{
 "cells": [
  {
   "cell_type": "code",
   "execution_count": 1,
   "metadata": {
    "collapsed": true
   },
   "outputs": [],
   "source": [
    "import Utils.midi_to_statematrix"
   ]
  },
  {
   "cell_type": "code",
   "execution_count": 3,
   "metadata": {},
   "outputs": [],
   "source": [
    "import data"
   ]
  },
  {
   "cell_type": "code",
   "execution_count": 23,
   "metadata": {
    "collapsed": true,
    "scrolled": true
   },
   "outputs": [],
   "source": [
    "import Utils.multi_training"
   ]
  },
  {
   "cell_type": "code",
   "execution_count": 31,
   "metadata": {},
   "outputs": [
    {
     "name": "stdout",
     "output_type": "stream",
     "text": [
      "Loaded i_ran_so_far_away-flock_of_seagulls\n"
     ]
    }
   ],
   "source": [
    "import Utils.multi_training\n",
    "pcs = Utils.multi_training.loadPieces(\"/Users/nikhilkotecha/Desktop/Music/\")"
   ]
  },
  {
   "cell_type": "code",
   "execution_count": 33,
   "metadata": {},
   "outputs": [
    {
     "name": "stdout",
     "output_type": "stream",
     "text": [
      "midi.Pattern(format=1, resolution=120, tracks=\\\n",
      "[midi.Track(\\\n",
      "  [midi.TimeSignatureEvent(tick=0, data=[4, 2, 24, 8]),\n",
      "   midi.KeySignatureEvent(tick=0, data=[0, 0]),\n",
      "   midi.SetTempoEvent(tick=0, data=[6, 91, 155]),\n",
      "   midi.EndOfTrackEvent(tick=0, data=[])]),\n",
      " midi.Track(\\\n",
      "  [midi.PortEvent(tick=0, data=[0]),\n",
      "   midi.TrackNameEvent(tick=0, text='Mute Gtr G-029', data=[77, 117, 116, 101, 32, 71, 116, 114, 32, 71, 45, 48, 50, 57]),\n",
      "   midi.ProgramChangeEvent(tick=0, channel=0, data=[28]),\n",
      "   midi.ControlChangeEvent(tick=0, channel=0, data=[7, 121]),\n",
      "   midi.ControlChangeEvent(tick=0, channel=0, data=[10, 66]),\n",
      "   midi.NoteOnEvent(tick=9060, channel=0, data=[50, 127]),\n",
      "   midi.NoteOnEvent(tick=59, channel=0, data=[50, 0]),\n",
      "   midi.NoteOnEvent(tick=1, channel=0, data=[45, 127]),\n",
      "   midi.NoteOnEvent(tick=59, channel=0, data=[45, 0]),\n",
      "   midi.NoteOnEvent(tick=1, channel=0, data=[45, 127]),\n",
      "   midi.NoteOnEvent(tick=59, channel=0, data=[45, 0]),\n",
      "   midi.NoteOnEvent(tick=1, channel=0, data=[45, 127]),\n",
      "   midi.NoteOnEvent(tick=59, channel=0, data=[45, 0]),\n",
      "   midi.NoteOnEvent(tick=1, channel=0, data=[45, 127]),\n",
      "   midi.NoteOnEvent(tick=59, channel=0, data=[45, 0]),\n",
      "   midi.NoteOnEvent(tick=1, channel=0, data=[45, 127]),\n",
      "   midi.NoteOnEvent(tick=59, channel=0, data=[45, 0]),\n",
      "   midi.NoteOnEvent(tick=1, channel=0, data=[52, 127]),\n",
      "   midi.NoteOnEvent(tick=59, channel=0, data=[52, 0]),\n",
      "   midi.NoteOnEvent(tick=1, channel=0, data=[57, 127]),\n",
      "   midi.NoteOnEvent(tick=59, channel=0, data=[57, 0]),\n",
      "   midi.NoteOnEvent(tick=1, channel=0, data=[52, 127]),\n",
      "   midi.NoteOnEvent(tick=59, channel=0, data=[52, 0]),\n",
      "   midi.NoteOnEvent(tick=1, channel=0, data=[45, 127]),\n",
      "   midi.NoteOnEvent(tick=59, channel=0, data=[45, 0]),\n",
      "   midi.NoteOnEvent(tick=1, channel=0, data=[45, 127]),\n",
      "   midi.NoteOnEvent(tick=59, channel=0, data=[45, 0]),\n",
      "   midi.NoteOnEvent(tick=1, channel=0, data=[45, 127]),\n",
      "   midi.NoteOnEvent(tick=59, channel=0, data=[45, 0]),\n",
      "   midi.NoteOnEvent(tick=1, channel=0, data=[45, 127]),\n",
      "   midi.NoteOnEvent(tick=59, channel=0, data=[45, 0]),\n",
      "   midi.NoteOnEvent(tick=1, channel=0, data=[45, 127]),\n",
      "   midi.NoteOnEvent(tick=59, channel=0, data=[45, 0]),\n",
      "   midi.NoteOnEvent(tick=1, channel=0, data=[52, 127]),\n",
      "   midi.NoteOnEvent(tick=59, channel=0, data=[52, 0]),\n",
      "   midi.NoteOnEvent(tick=1, channel=0, data=[57, 127]),\n",
      "   midi.NoteOnEvent(tick=59, channel=0, data=[57, 0]),\n",
      "   midi.NoteOnEvent(tick=1, channel=0, data=[52, 127]),\n",
      "   midi.NoteOnEvent(tick=59, channel=0, data=[52, 0]),\n",
      "   midi.NoteOnEvent(tick=1, channel=0, data=[45, 127]),\n",
      "   midi.NoteOnEvent(tick=59, channel=0, data=[45, 0]),\n",
      "   midi.NoteOnEvent(tick=1, channel=0, data=[45, 127]),\n",
      "   midi.NoteOnEvent(tick=59, channel=0, data=[45, 0]),\n",
      "   midi.NoteOnEvent(tick=1, channel=0, data=[45, 127]),\n",
      "   midi.NoteOnEvent(tick=59, channel=0, data=[45, 0]),\n",
      "   midi.NoteOnEvent(tick=1, channel=0, data=[45, 127]),\n",
      "   midi.NoteOnEvent(tick=59, channel=0, data=[45, 0]),\n",
      "   midi.NoteOnEvent(tick=1, channel=0, data=[45, 127]),\n",
      "   midi.NoteOnEvent(tick=59, channel=0, data=[45, 0]),\n",
      "   midi.NoteOnEvent(tick=1, channel=0, data=[52, 127]),\n",
      "   midi.NoteOnEvent(tick=59, channel=0, data=[52, 0]),\n",
      "   midi.NoteOnEvent(tick=1, channel=0, data=[57, 127]),\n",
      "   midi.NoteOnEvent(tick=59, channel=0, data=[57, 0]),\n",
      "   midi.NoteOnEvent(tick=1, channel=0, data=[52, 127]),\n",
      "   midi.NoteOnEvent(tick=59, channel=0, data=[52, 0]),\n",
      "   midi.NoteOnEvent(tick=1, channel=0, data=[45, 127]),\n",
      "   midi.NoteOnEvent(tick=59, channel=0, data=[45, 0]),\n",
      "   midi.NoteOnEvent(tick=1, channel=0, data=[45, 127]),\n",
      "   midi.NoteOnEvent(tick=59, channel=0, data=[45, 0]),\n",
      "   midi.NoteOnEvent(tick=1, channel=0, data=[45, 127]),\n",
      "   midi.NoteOnEvent(tick=59, channel=0, data=[45, 0]),\n",
      "   midi.NoteOnEvent(tick=1, channel=0, data=[45, 127]),\n",
      "   midi.NoteOnEvent(tick=59, channel=0, data=[45, 0]),\n",
      "   midi.NoteOnEvent(tick=1, channel=0, data=[45, 127]),\n",
      "   midi.NoteOnEvent(tick=59, channel=0, data=[45, 0]),\n",
      "   midi.NoteOnEvent(tick=1, channel=0, data=[52, 127]),\n",
      "   midi.NoteOnEvent(tick=59, channel=0, data=[52, 0]),\n",
      "   midi.NoteOnEvent(tick=1, channel=0, data=[57, 127]),\n",
      "   midi.NoteOnEvent(tick=59, channel=0, data=[57, 0]),\n",
      "   midi.NoteOnEvent(tick=1, channel=0, data=[52, 127]),\n",
      "   midi.NoteOnEvent(tick=59, channel=0, data=[52, 0]),\n",
      "   midi.NoteOnEvent(tick=1, channel=0, data=[45, 127]),\n",
      "   midi.NoteOnEvent(tick=59, channel=0, data=[45, 0]),\n",
      "   midi.NoteOnEvent(tick=1, channel=0, data=[45, 127]),\n",
      "   midi.NoteOnEvent(tick=59, channel=0, data=[45, 0]),\n",
      "   midi.NoteOnEvent(tick=1, channel=0, data=[45, 127]),\n",
      "   midi.NoteOnEvent(tick=59, channel=0, data=[45, 0]),\n",
      "   midi.NoteOnEvent(tick=1, channel=0, data=[45, 127]),\n",
      "   midi.NoteOnEvent(tick=59, channel=0, data=[45, 0]),\n",
      "   midi.NoteOnEvent(tick=1, channel=0, data=[45, 127]),\n",
      "   midi.NoteOnEvent(tick=59, channel=0, data=[45, 0]),\n",
      "   midi.NoteOnEvent(tick=1, channel=0, data=[52, 127]),\n",
      "   midi.NoteOnEvent(tick=59, channel=0, data=[52, 0]),\n",
      "   midi.NoteOnEvent(tick=1, channel=0, data=[57, 127]),\n",
      "   midi.NoteOnEvent(tick=59, channel=0, data=[57, 0]),\n",
      "   midi.NoteOnEvent(tick=1, channel=0, data=[52, 127]),\n",
      "   midi.NoteOnEvent(tick=59, channel=0, data=[52, 0]),\n",
      "   midi.NoteOnEvent(tick=1, channel=0, data=[45, 127]),\n",
      "   midi.NoteOnEvent(tick=59, channel=0, data=[45, 0]),\n",
      "   midi.NoteOnEvent(tick=1, channel=0, data=[45, 127]),\n",
      "   midi.NoteOnEvent(tick=59, channel=0, data=[45, 0]),\n",
      "   midi.NoteOnEvent(tick=1, channel=0, data=[45, 127]),\n",
      "   midi.NoteOnEvent(tick=59, channel=0, data=[45, 0]),\n",
      "   midi.NoteOnEvent(tick=1, channel=0, data=[45, 127]),\n",
      "   midi.NoteOnEvent(tick=59, channel=0, data=[45, 0]),\n",
      "   midi.NoteOnEvent(tick=1, channel=0, data=[45, 127]),\n",
      "   midi.NoteOnEvent(tick=59, channel=0, data=[45, 0]),\n",
      "   midi.NoteOnEvent(tick=1, channel=0, data=[52, 127]),\n",
      "   midi.NoteOnEvent(tick=59, channel=0, data=[52, 0]),\n",
      "   midi.NoteOnEvent(tick=1, channel=0, data=[57, 127]),\n",
      "   midi.NoteOnEvent(tick=59, channel=0, data=[57, 0]),\n",
      "   midi.NoteOnEvent(tick=1, channel=0, data=[52, 127]),\n",
      "   midi.NoteOnEvent(tick=59, channel=0, data=[52, 0]),\n",
      "   midi.NoteOnEvent(tick=1, channel=0, data=[43, 127]),\n",
      "   midi.NoteOnEvent(tick=59, channel=0, data=[43, 0]),\n",
      "   midi.NoteOnEvent(tick=1, channel=0, data=[43, 127]),\n",
      "   midi.NoteOnEvent(tick=59, channel=0, data=[43, 0]),\n",
      "   midi.NoteOnEvent(tick=1, channel=0, data=[43, 127]),\n",
      "   midi.NoteOnEvent(tick=59, channel=0, data=[43, 0]),\n",
      "   midi.NoteOnEvent(tick=1, channel=0, data=[43, 127]),\n",
      "   midi.NoteOnEvent(tick=59, channel=0, data=[43, 0]),\n",
      "   midi.NoteOnEvent(tick=1, channel=0, data=[43, 127]),\n",
      "   midi.NoteOnEvent(tick=59, channel=0, data=[43, 0]),\n",
      "   midi.NoteOnEvent(tick=1, channel=0, data=[50, 127]),\n",
      "   midi.NoteOnEvent(tick=59, channel=0, data=[50, 0]),\n",
      "   midi.NoteOnEvent(tick=1, channel=0, data=[55, 127]),\n",
      "   midi.NoteOnEvent(tick=59, channel=0, data=[55, 0]),\n",
      "   midi.NoteOnEvent(tick=1, channel=0, data=[50, 127]),\n",
      "   midi.NoteOnEvent(tick=59, channel=0, data=[50, 0]),\n",
      "   midi.NoteOnEvent(tick=1, channel=0, data=[43, 127]),\n",
      "   midi.NoteOnEvent(tick=59, channel=0, data=[43, 0]),\n",
      "   midi.NoteOnEvent(tick=1, channel=0, data=[43, 127]),\n",
      "   midi.NoteOnEvent(tick=59, channel=0, data=[43, 0]),\n",
      "   midi.NoteOnEvent(tick=1, channel=0, data=[43, 127]),\n",
      "   midi.NoteOnEvent(tick=59, channel=0, data=[43, 0]),\n",
      "   midi.NoteOnEvent(tick=1, channel=0, data=[43, 127]),\n",
      "   midi.NoteOnEvent(tick=59, channel=0, data=[43, 0]),\n",
      "   midi.NoteOnEvent(tick=1, channel=0, data=[43, 127]),\n",
      "   midi.NoteOnEvent(tick=59, channel=0, data=[43, 0]),\n",
      "   midi.NoteOnEvent(tick=1, channel=0, data=[50, 127]),\n",
      "   midi.NoteOnEvent(tick=59, channel=0, data=[50, 0]),\n",
      "   midi.NoteOnEvent(tick=1, channel=0, data=[55, 127]),\n",
      "   midi.NoteOnEvent(tick=59, channel=0, data=[55, 0]),\n",
      "   midi.NoteOnEvent(tick=1, channel=0, data=[50, 127]),\n",
      "   midi.NoteOnEvent(tick=59, channel=0, data=[50, 0]),\n",
      "   midi.NoteOnEvent(tick=1, channel=0, data=[45, 127]),\n",
      "   midi.NoteOnEvent(tick=59, channel=0, data=[45, 0]),\n",
      "   midi.NoteOnEvent(tick=1, channel=0, data=[45, 127]),\n",
      "   midi.NoteOnEvent(tick=59, channel=0, data=[45, 0]),\n",
      "   midi.NoteOnEvent(tick=1, channel=0, data=[45, 127]),\n",
      "   midi.NoteOnEvent(tick=59, channel=0, data=[45, 0]),\n",
      "   midi.NoteOnEvent(tick=1, channel=0, data=[45, 127]),\n",
      "   midi.NoteOnEvent(tick=59, channel=0, data=[45, 0]),\n",
      "   midi.NoteOnEvent(tick=1, channel=0, data=[45, 127]),\n",
      "   midi.NoteOnEvent(tick=59, channel=0, data=[45, 0]),\n",
      "   midi.NoteOnEvent(tick=1, channel=0, data=[52, 127]),\n",
      "   midi.NoteOnEvent(tick=59, channel=0, data=[52, 0]),\n",
      "   midi.NoteOnEvent(tick=1, channel=0, data=[57, 127]),\n",
      "   midi.NoteOnEvent(tick=59, channel=0, data=[57, 0]),\n",
      "   midi.NoteOnEvent(tick=1, channel=0, data=[52, 127]),\n",
      "   midi.NoteOnEvent(tick=59, channel=0, data=[52, 0]),\n",
      "   midi.NoteOnEvent(tick=1, channel=0, data=[45, 127]),\n",
      "   midi.NoteOnEvent(tick=59, channel=0, data=[45, 0]),\n",
      "   midi.NoteOnEvent(tick=1, channel=0, data=[45, 127]),\n",
      "   midi.NoteOnEvent(tick=59, channel=0, data=[45, 0]),\n",
      "   midi.NoteOnEvent(tick=1, channel=0, data=[45, 127]),\n",
      "   midi.NoteOnEvent(tick=59, channel=0, data=[45, 0]),\n",
      "   midi.NoteOnEvent(tick=1, channel=0, data=[45, 127]),\n",
      "   midi.NoteOnEvent(tick=59, channel=0, data=[45, 0]),\n",
      "   midi.NoteOnEvent(tick=1, channel=0, data=[45, 127]),\n",
      "   midi.NoteOnEvent(tick=59, channel=0, data=[45, 0]),\n",
      "   midi.NoteOnEvent(tick=1, channel=0, data=[52, 127]),\n",
      "   midi.NoteOnEvent(tick=59, channel=0, data=[52, 0]),\n",
      "   midi.NoteOnEvent(tick=1, channel=0, data=[57, 127]),\n",
      "   midi.NoteOnEvent(tick=59, channel=0, data=[57, 0]),\n",
      "   midi.NoteOnEvent(tick=1, channel=0, data=[52, 127]),\n",
      "   midi.NoteOnEvent(tick=59, channel=0, data=[52, 0]),\n",
      "   midi.NoteOnEvent(tick=1, channel=0, data=[43, 127]),\n",
      "   midi.NoteOnEvent(tick=59, channel=0, data=[43, 0]),\n",
      "   midi.NoteOnEvent(tick=1, channel=0, data=[43, 127]),\n",
      "   midi.NoteOnEvent(tick=59, channel=0, data=[43, 0]),\n",
      "   midi.NoteOnEvent(tick=1, channel=0, data=[43, 127]),\n",
      "   midi.NoteOnEvent(tick=59, channel=0, data=[43, 0]),\n",
      "   midi.NoteOnEvent(tick=1, channel=0, data=[43, 127]),\n",
      "   midi.NoteOnEvent(tick=59, channel=0, data=[43, 0]),\n",
      "   midi.NoteOnEvent(tick=1, channel=0, data=[43, 127]),\n",
      "   midi.NoteOnEvent(tick=59, channel=0, data=[43, 0]),\n",
      "   midi.NoteOnEvent(tick=1, channel=0, data=[50, 127]),\n",
      "   midi.NoteOnEvent(tick=59, channel=0, data=[50, 0]),\n",
      "   midi.NoteOnEvent(tick=1, channel=0, data=[55, 127]),\n",
      "   midi.NoteOnEvent(tick=59, channel=0, data=[55, 0]),\n",
      "   midi.NoteOnEvent(tick=1, channel=0, data=[50, 127]),\n",
      "   midi.NoteOnEvent(tick=59, channel=0, data=[50, 0]),\n",
      "   midi.NoteOnEvent(tick=1, channel=0, data=[43, 127]),\n",
      "   midi.NoteOnEvent(tick=59, channel=0, data=[43, 0]),\n",
      "   midi.NoteOnEvent(tick=1, channel=0, data=[43, 127]),\n",
      "   midi.NoteOnEvent(tick=59, channel=0, data=[43, 0]),\n",
      "   midi.NoteOnEvent(tick=1, channel=0, data=[43, 127]),\n",
      "   midi.NoteOnEvent(tick=59, channel=0, data=[43, 0]),\n",
      "   midi.NoteOnEvent(tick=1, channel=0, data=[43, 127]),\n",
      "   midi.NoteOnEvent(tick=59, channel=0, data=[43, 0]),\n",
      "   midi.NoteOnEvent(tick=1, channel=0, data=[43, 127]),\n",
      "   midi.NoteOnEvent(tick=59, channel=0, data=[43, 0]),\n",
      "   midi.NoteOnEvent(tick=1, channel=0, data=[50, 127]),\n",
      "   midi.NoteOnEvent(tick=59, channel=0, data=[50, 0]),\n",
      "   midi.NoteOnEvent(tick=1, channel=0, data=[55, 127]),\n",
      "   midi.NoteOnEvent(tick=59, channel=0, data=[55, 0]),\n",
      "   midi.NoteOnEvent(tick=1, channel=0, data=[50, 127]),\n",
      "   midi.NoteOnEvent(tick=59, channel=0, data=[50, 0]),\n",
      "   midi.NoteOnEvent(tick=1, channel=0, data=[41, 127]),\n",
      "   midi.NoteOnEvent(tick=59, channel=0, data=[41, 0]),\n",
      "   midi.NoteOnEvent(tick=1, channel=0, data=[41, 127]),\n",
      "   midi.NoteOnEvent(tick=59, channel=0, data=[41, 0]),\n",
      "   midi.NoteOnEvent(tick=1, channel=0, data=[41, 127]),\n",
      "   midi.NoteOnEvent(tick=59, channel=0, data=[41, 0]),\n",
      "   midi.NoteOnEvent(tick=1, channel=0, data=[41, 127]),\n",
      "   midi.NoteOnEvent(tick=59, channel=0, data=[41, 0]),\n",
      "   midi.NoteOnEvent(tick=1, channel=0, data=[41, 127]),\n",
      "   midi.NoteOnEvent(tick=59, channel=0, data=[41, 0]),\n",
      "   midi.NoteOnEvent(tick=1, channel=0, data=[48, 127]),\n",
      "   midi.NoteOnEvent(tick=59, channel=0, data=[48, 0]),\n",
      "   midi.NoteOnEvent(tick=1, channel=0, data=[53, 127]),\n",
      "   midi.NoteOnEvent(tick=59, channel=0, data=[53, 0]),\n",
      "   midi.NoteOnEvent(tick=1, channel=0, data=[48, 127]),\n",
      "   midi.NoteOnEvent(tick=59, channel=0, data=[48, 0]),\n",
      "   midi.NoteOnEvent(tick=1, channel=0, data=[41, 127]),\n",
      "   midi.NoteOnEvent(tick=59, channel=0, data=[41, 0]),\n",
      "   midi.NoteOnEvent(tick=1, channel=0, data=[41, 127]),\n",
      "   midi.NoteOnEvent(tick=59, channel=0, data=[41, 0]),\n",
      "   midi.NoteOnEvent(tick=1, channel=0, data=[41, 127]),\n",
      "   midi.NoteOnEvent(tick=59, channel=0, data=[41, 0]),\n",
      "   midi.NoteOnEvent(tick=1, channel=0, data=[41, 127]),\n",
      "   midi.NoteOnEvent(tick=59, channel=0, data=[41, 0]),\n",
      "   midi.NoteOnEvent(tick=1, channel=0, data=[41, 127]),\n",
      "   midi.NoteOnEvent(tick=59, channel=0, data=[41, 0]),\n",
      "   midi.NoteOnEvent(tick=1, channel=0, data=[48, 127]),\n",
      "   midi.NoteOnEvent(tick=59, channel=0, data=[48, 0]),\n",
      "   midi.NoteOnEvent(tick=1, channel=0, data=[53, 127]),\n",
      "   midi.NoteOnEvent(tick=57, channel=0, data=[53, 0]),\n",
      "   midi.NoteOnEvent(tick=3, channel=0, data=[48, 127]),\n",
      "   midi.NoteOnEvent(tick=59, channel=0, data=[48, 0]),\n",
      "   midi.NoteOnEvent(tick=1, channel=0, data=[43, 127]),\n",
      "   midi.NoteOnEvent(tick=59, channel=0, data=[43, 0]),\n",
      "   midi.NoteOnEvent(tick=1, channel=0, data=[43, 127]),\n",
      "   midi.NoteOnEvent(tick=59, channel=0, data=[43, 0]),\n",
      "   midi.NoteOnEvent(tick=1, channel=0, data=[43, 127]),\n",
      "   midi.NoteOnEvent(tick=59, channel=0, data=[43, 0]),\n",
      "   midi.NoteOnEvent(tick=1, channel=0, data=[43, 127]),\n",
      "   midi.NoteOnEvent(tick=59, channel=0, data=[43, 0]),\n",
      "   midi.NoteOnEvent(tick=1, channel=0, data=[43, 127]),\n",
      "   midi.NoteOnEvent(tick=59, channel=0, data=[43, 0]),\n",
      "   midi.NoteOnEvent(tick=1, channel=0, data=[50, 127]),\n",
      "   midi.NoteOnEvent(tick=59, channel=0, data=[50, 0]),\n",
      "   midi.NoteOnEvent(tick=1, channel=0, data=[55, 127]),\n",
      "   midi.NoteOnEvent(tick=59, channel=0, data=[55, 0]),\n",
      "   midi.NoteOnEvent(tick=1, channel=0, data=[50, 127]),\n",
      "   midi.NoteOnEvent(tick=59, channel=0, data=[50, 0]),\n",
      "   midi.NoteOnEvent(tick=1, channel=0, data=[43, 127]),\n",
      "   midi.NoteOnEvent(tick=59, channel=0, data=[43, 0]),\n",
      "   midi.NoteOnEvent(tick=1, channel=0, data=[43, 127]),\n",
      "   midi.NoteOnEvent(tick=59, channel=0, data=[43, 0]),\n",
      "   midi.NoteOnEvent(tick=1, channel=0, data=[43, 127]),\n",
      "   midi.NoteOnEvent(tick=59, channel=0, data=[43, 0]),\n",
      "   midi.NoteOnEvent(tick=1, channel=0, data=[43, 127]),\n",
      "   midi.NoteOnEvent(tick=59, channel=0, data=[43, 0]),\n",
      "   midi.NoteOnEvent(tick=1, channel=0, data=[43, 127]),\n",
      "   midi.NoteOnEvent(tick=59, channel=0, data=[43, 0]),\n",
      "   midi.NoteOnEvent(tick=1, channel=0, data=[50, 127]),\n",
      "   midi.NoteOnEvent(tick=59, channel=0, data=[50, 0]),\n",
      "   midi.NoteOnEvent(tick=1, channel=0, data=[55, 127]),\n",
      "   midi.NoteOnEvent(tick=59, channel=0, data=[55, 0]),\n",
      "   midi.NoteOnEvent(tick=1, channel=0, data=[50, 127]),\n",
      "   midi.NoteOnEvent(tick=59, channel=0, data=[50, 0]),\n",
      "   midi.NoteOnEvent(tick=1, channel=0, data=[45, 127]),\n",
      "   midi.NoteOnEvent(tick=59, channel=0, data=[45, 0]),\n",
      "   midi.NoteOnEvent(tick=1, channel=0, data=[45, 127]),\n",
      "   midi.NoteOnEvent(tick=59, channel=0, data=[45, 0]),\n",
      "   midi.NoteOnEvent(tick=1, channel=0, data=[45, 127]),\n",
      "   midi.NoteOnEvent(tick=59, channel=0, data=[45, 0]),\n",
      "   midi.NoteOnEvent(tick=1, channel=0, data=[45, 127]),\n",
      "   midi.NoteOnEvent(tick=59, channel=0, data=[45, 0]),\n",
      "   midi.NoteOnEvent(tick=1, channel=0, data=[45, 127]),\n",
      "   midi.NoteOnEvent(tick=59, channel=0, data=[45, 0]),\n",
      "   midi.NoteOnEvent(tick=1, channel=0, data=[52, 127]),\n",
      "   midi.NoteOnEvent(tick=59, channel=0, data=[52, 0]),\n",
      "   midi.NoteOnEvent(tick=1, channel=0, data=[57, 127]),\n",
      "   midi.NoteOnEvent(tick=59, channel=0, data=[57, 0]),\n",
      "   midi.NoteOnEvent(tick=1, channel=0, data=[52, 127]),\n",
      "   midi.NoteOnEvent(tick=59, channel=0, data=[52, 0]),\n",
      "   midi.NoteOnEvent(tick=1, channel=0, data=[45, 127]),\n",
      "   midi.NoteOnEvent(tick=59, channel=0, data=[45, 0]),\n",
      "   midi.NoteOnEvent(tick=1, channel=0, data=[45, 127]),\n",
      "   midi.NoteOnEvent(tick=59, channel=0, data=[45, 0]),\n",
      "   midi.NoteOnEvent(tick=1, channel=0, data=[45, 127]),\n",
      "   midi.NoteOnEvent(tick=59, channel=0, data=[45, 0]),\n",
      "   midi.NoteOnEvent(tick=1, channel=0, data=[45, 127]),\n",
      "   midi.NoteOnEvent(tick=59, channel=0, data=[45, 0]),\n",
      "   midi.NoteOnEvent(tick=1, channel=0, data=[45, 127]),\n",
      "   midi.NoteOnEvent(tick=59, channel=0, data=[45, 0]),\n",
      "   midi.NoteOnEvent(tick=1, channel=0, data=[52, 127]),\n",
      "   midi.NoteOnEvent(tick=59, channel=0, data=[52, 0]),\n",
      "   midi.NoteOnEvent(tick=1, channel=0, data=[57, 127]),\n",
      "   midi.NoteOnEvent(tick=59, channel=0, data=[57, 0]),\n",
      "   midi.NoteOnEvent(tick=1, channel=0, data=[52, 127]),\n",
      "   midi.NoteOnEvent(tick=59, channel=0, data=[52, 0]),\n",
      "   midi.NoteOnEvent(tick=1, channel=0, data=[45, 127]),\n",
      "   midi.NoteOnEvent(tick=59, channel=0, data=[45, 0]),\n",
      "   midi.NoteOnEvent(tick=1, channel=0, data=[45, 127]),\n",
      "   midi.NoteOnEvent(tick=59, channel=0, data=[45, 0]),\n",
      "   midi.NoteOnEvent(tick=1, channel=0, data=[45, 127]),\n",
      "   midi.NoteOnEvent(tick=59, channel=0, data=[45, 0]),\n",
      "   midi.NoteOnEvent(tick=1, channel=0, data=[45, 127]),\n",
      "   midi.NoteOnEvent(tick=59, channel=0, data=[45, 0]),\n",
      "   midi.NoteOnEvent(tick=1, channel=0, data=[45, 127]),\n",
      "   midi.NoteOnEvent(tick=59, channel=0, data=[45, 0]),\n",
      "   midi.NoteOnEvent(tick=1, channel=0, data=[52, 127]),\n",
      "   midi.NoteOnEvent(tick=59, channel=0, data=[52, 0]),\n",
      "   midi.NoteOnEvent(tick=1, channel=0, data=[57, 127]),\n",
      "   midi.NoteOnEvent(tick=59, channel=0, data=[57, 0]),\n",
      "   midi.NoteOnEvent(tick=1, channel=0, data=[52, 127]),\n",
      "   midi.NoteOnEvent(tick=59, channel=0, data=[52, 0]),\n",
      "   midi.NoteOnEvent(tick=1, channel=0, data=[45, 127]),\n",
      "   midi.NoteOnEvent(tick=59, channel=0, data=[45, 0]),\n",
      "   midi.NoteOnEvent(tick=1, channel=0, data=[45, 127]),\n",
      "   midi.NoteOnEvent(tick=59, channel=0, data=[45, 0]),\n",
      "   midi.NoteOnEvent(tick=1, channel=0, data=[45, 127]),\n",
      "   midi.NoteOnEvent(tick=59, channel=0, data=[45, 0]),\n",
      "   midi.NoteOnEvent(tick=1, channel=0, data=[45, 127]),\n",
      "   midi.NoteOnEvent(tick=59, channel=0, data=[45, 0]),\n",
      "   midi.NoteOnEvent(tick=1, channel=0, data=[45, 127]),\n",
      "   midi.NoteOnEvent(tick=59, channel=0, data=[45, 0]),\n",
      "   midi.NoteOnEvent(tick=1, channel=0, data=[52, 127]),\n",
      "   midi.NoteOnEvent(tick=59, channel=0, data=[52, 0]),\n",
      "   midi.NoteOnEvent(tick=1, channel=0, data=[57, 127]),\n",
      "   midi.NoteOnEvent(tick=59, channel=0, data=[57, 0]),\n",
      "   midi.NoteOnEvent(tick=1, channel=0, data=[52, 127]),\n",
      "   midi.NoteOnEvent(tick=59, channel=0, data=[52, 0]),\n",
      "   midi.NoteOnEvent(tick=1, channel=0, data=[45, 127]),\n",
      "   midi.NoteOnEvent(tick=59, channel=0, data=[45, 0]),\n",
      "   midi.NoteOnEvent(tick=1, channel=0, data=[45, 127]),\n",
      "   midi.NoteOnEvent(tick=59, channel=0, data=[45, 0]),\n",
      "   midi.NoteOnEvent(tick=1, channel=0, data=[45, 127]),\n",
      "   midi.NoteOnEvent(tick=59, channel=0, data=[45, 0]),\n",
      "   midi.NoteOnEvent(tick=1, channel=0, data=[45, 127]),\n",
      "   midi.NoteOnEvent(tick=59, channel=0, data=[45, 0]),\n",
      "   midi.NoteOnEvent(tick=1, channel=0, data=[45, 127]),\n",
      "   midi.NoteOnEvent(tick=59, channel=0, data=[45, 0]),\n",
      "   midi.NoteOnEvent(tick=1, channel=0, data=[52, 127]),\n",
      "   midi.NoteOnEvent(tick=59, channel=0, data=[52, 0]),\n",
      "   midi.NoteOnEvent(tick=1, channel=0, data=[57, 127]),\n",
      "   midi.NoteOnEvent(tick=59, channel=0, data=[57, 0]),\n",
      "   midi.NoteOnEvent(tick=1, channel=0, data=[52, 127]),\n",
      "   midi.NoteOnEvent(tick=59, channel=0, data=[52, 0]),\n",
      "   midi.NoteOnEvent(tick=1, channel=0, data=[45, 127]),\n",
      "   midi.NoteOnEvent(tick=59, channel=0, data=[45, 0]),\n",
      "   midi.NoteOnEvent(tick=1, channel=0, data=[45, 127]),\n",
      "   midi.NoteOnEvent(tick=59, channel=0, data=[45, 0]),\n",
      "   midi.NoteOnEvent(tick=1, channel=0, data=[45, 127]),\n",
      "   midi.NoteOnEvent(tick=59, channel=0, data=[45, 0]),\n",
      "   midi.NoteOnEvent(tick=1, channel=0, data=[45, 127]),\n",
      "   midi.NoteOnEvent(tick=59, channel=0, data=[45, 0]),\n",
      "   midi.NoteOnEvent(tick=1, channel=0, data=[45, 127]),\n",
      "   midi.NoteOnEvent(tick=59, channel=0, data=[45, 0]),\n",
      "   midi.NoteOnEvent(tick=1, channel=0, data=[52, 127]),\n",
      "   midi.NoteOnEvent(tick=59, channel=0, data=[52, 0]),\n",
      "   midi.NoteOnEvent(tick=1, channel=0, data=[57, 127]),\n",
      "   midi.NoteOnEvent(tick=59, channel=0, data=[57, 0]),\n",
      "   midi.NoteOnEvent(tick=1, channel=0, data=[52, 127]),\n",
      "   midi.NoteOnEvent(tick=59, channel=0, data=[52, 0]),\n",
      "   midi.NoteOnEvent(tick=1, channel=0, data=[45, 127]),\n",
      "   midi.NoteOnEvent(tick=59, channel=0, data=[45, 0]),\n",
      "   midi.NoteOnEvent(tick=1, channel=0, data=[45, 127]),\n",
      "   midi.NoteOnEvent(tick=59, channel=0, data=[45, 0]),\n",
      "   midi.NoteOnEvent(tick=1, channel=0, data=[45, 127]),\n",
      "   midi.NoteOnEvent(tick=59, channel=0, data=[45, 0]),\n",
      "   midi.NoteOnEvent(tick=1, channel=0, data=[45, 127]),\n",
      "   midi.NoteOnEvent(tick=59, channel=0, data=[45, 0]),\n",
      "   midi.NoteOnEvent(tick=1, channel=0, data=[45, 127]),\n",
      "   midi.NoteOnEvent(tick=59, channel=0, data=[45, 0]),\n",
      "   midi.NoteOnEvent(tick=1, channel=0, data=[52, 127]),\n",
      "   midi.NoteOnEvent(tick=59, channel=0, data=[52, 0]),\n",
      "   midi.NoteOnEvent(tick=1, channel=0, data=[57, 127]),\n",
      "   midi.NoteOnEvent(tick=59, channel=0, data=[57, 0]),\n",
      "   midi.NoteOnEvent(tick=1, channel=0, data=[52, 127]),\n",
      "   midi.NoteOnEvent(tick=59, channel=0, data=[52, 0]),\n",
      "   midi.NoteOnEvent(tick=1, channel=0, data=[45, 127]),\n",
      "   midi.NoteOnEvent(tick=59, channel=0, data=[45, 0]),\n",
      "   midi.NoteOnEvent(tick=1, channel=0, data=[45, 127]),\n",
      "   midi.NoteOnEvent(tick=59, channel=0, data=[45, 0]),\n",
      "   midi.NoteOnEvent(tick=1, channel=0, data=[45, 127]),\n",
      "   midi.NoteOnEvent(tick=59, channel=0, data=[45, 0]),\n",
      "   midi.NoteOnEvent(tick=1, channel=0, data=[45, 127]),\n",
      "   midi.NoteOnEvent(tick=59, channel=0, data=[45, 0]),\n",
      "   midi.NoteOnEvent(tick=1, channel=0, data=[45, 127]),\n",
      "   midi.NoteOnEvent(tick=59, channel=0, data=[45, 0]),\n",
      "   midi.NoteOnEvent(tick=1, channel=0, data=[52, 127]),\n",
      "   midi.NoteOnEvent(tick=59, channel=0, data=[52, 0]),\n",
      "   midi.NoteOnEvent(tick=1, channel=0, data=[57, 127]),\n",
      "   midi.NoteOnEvent(tick=59, channel=0, data=[57, 0]),\n",
      "   midi.NoteOnEvent(tick=1, channel=0, data=[52, 127]),\n",
      "   midi.NoteOnEvent(tick=59, channel=0, data=[52, 0]),\n",
      "   midi.NoteOnEvent(tick=1, channel=0, data=[43, 127]),\n",
      "   midi.NoteOnEvent(tick=59, channel=0, data=[43, 0]),\n",
      "   midi.NoteOnEvent(tick=1, channel=0, data=[43, 127]),\n",
      "   midi.NoteOnEvent(tick=59, channel=0, data=[43, 0]),\n",
      "   midi.NoteOnEvent(tick=1, channel=0, data=[43, 127]),\n",
      "   midi.NoteOnEvent(tick=59, channel=0, data=[43, 0]),\n",
      "   midi.NoteOnEvent(tick=1, channel=0, data=[43, 127]),\n",
      "   midi.NoteOnEvent(tick=59, channel=0, data=[43, 0]),\n",
      "   midi.NoteOnEvent(tick=1, channel=0, data=[43, 127]),\n",
      "   midi.NoteOnEvent(tick=59, channel=0, data=[43, 0]),\n",
      "   midi.NoteOnEvent(tick=1, channel=0, data=[50, 127]),\n",
      "   midi.NoteOnEvent(tick=59, channel=0, data=[50, 0]),\n",
      "   midi.NoteOnEvent(tick=1, channel=0, data=[55, 127]),\n",
      "   midi.NoteOnEvent(tick=59, channel=0, data=[55, 0]),\n",
      "   midi.NoteOnEvent(tick=1, channel=0, data=[50, 127]),\n",
      "   midi.NoteOnEvent(tick=59, channel=0, data=[50, 0]),\n",
      "   midi.NoteOnEvent(tick=1, channel=0, data=[43, 127]),\n",
      "   midi.NoteOnEvent(tick=59, channel=0, data=[43, 0]),\n",
      "   midi.NoteOnEvent(tick=1, channel=0, data=[43, 127]),\n",
      "   midi.NoteOnEvent(tick=59, channel=0, data=[43, 0]),\n",
      "   midi.NoteOnEvent(tick=1, channel=0, data=[43, 127]),\n",
      "   midi.NoteOnEvent(tick=59, channel=0, data=[43, 0]),\n",
      "   midi.NoteOnEvent(tick=1, channel=0, data=[43, 127]),\n",
      "   midi.NoteOnEvent(tick=59, channel=0, data=[43, 0]),\n",
      "   midi.NoteOnEvent(tick=1, channel=0, data=[43, 127]),\n",
      "   midi.NoteOnEvent(tick=59, channel=0, data=[43, 0]),\n",
      "   midi.NoteOnEvent(tick=1, channel=0, data=[50, 127]),\n",
      "   midi.NoteOnEvent(tick=59, channel=0, data=[50, 0]),\n",
      "   midi.NoteOnEvent(tick=1, channel=0, data=[55, 127]),\n",
      "   midi.NoteOnEvent(tick=59, channel=0, data=[55, 0]),\n",
      "   midi.NoteOnEvent(tick=1, channel=0, data=[50, 127]),\n",
      "   midi.NoteOnEvent(tick=59, channel=0, data=[50, 0]),\n",
      "   midi.NoteOnEvent(tick=1, channel=0, data=[43, 127]),\n",
      "   midi.NoteOnEvent(tick=59, channel=0, data=[43, 0]),\n",
      "   midi.NoteOnEvent(tick=1, channel=0, data=[43, 127]),\n",
      "   midi.NoteOnEvent(tick=59, channel=0, data=[43, 0]),\n",
      "   midi.NoteOnEvent(tick=1, channel=0, data=[43, 127]),\n",
      "   midi.NoteOnEvent(tick=59, channel=0, data=[43, 0]),\n",
      "   midi.NoteOnEvent(tick=1, channel=0, data=[43, 127]),\n",
      "   midi.NoteOnEvent(tick=59, channel=0, data=[43, 0]),\n",
      "   midi.NoteOnEvent(tick=1, channel=0, data=[43, 127]),\n",
      "   midi.NoteOnEvent(tick=59, channel=0, data=[43, 0]),\n",
      "   midi.NoteOnEvent(tick=1, channel=0, data=[50, 127]),\n",
      "   midi.NoteOnEvent(tick=59, channel=0, data=[50, 0]),\n",
      "   midi.NoteOnEvent(tick=1, channel=0, data=[55, 127]),\n",
      "   midi.NoteOnEvent(tick=59, channel=0, data=[55, 0]),\n",
      "   midi.NoteOnEvent(tick=1, channel=0, data=[50, 127]),\n",
      "   midi.NoteOnEvent(tick=59, channel=0, data=[50, 0]),\n",
      "   midi.NoteOnEvent(tick=1, channel=0, data=[43, 127]),\n",
      "   midi.NoteOnEvent(tick=59, channel=0, data=[43, 0]),\n",
      "   midi.NoteOnEvent(tick=1, channel=0, data=[43, 127]),\n",
      "   midi.NoteOnEvent(tick=59, channel=0, data=[43, 0]),\n",
      "   midi.NoteOnEvent(tick=1, channel=0, data=[43, 127]),\n",
      "   midi.NoteOnEvent(tick=59, channel=0, data=[43, 0]),\n",
      "   midi.NoteOnEvent(tick=1, channel=0, data=[43, 127]),\n",
      "   midi.NoteOnEvent(tick=59, channel=0, data=[43, 0]),\n",
      "   midi.NoteOnEvent(tick=1, channel=0, data=[43, 127]),\n",
      "   midi.NoteOnEvent(tick=59, channel=0, data=[43, 0]),\n",
      "   midi.NoteOnEvent(tick=1, channel=0, data=[50, 127]),\n",
      "   midi.NoteOnEvent(tick=59, channel=0, data=[50, 0]),\n",
      "   midi.NoteOnEvent(tick=1, channel=0, data=[55, 127]),\n",
      "   midi.NoteOnEvent(tick=59, channel=0, data=[55, 0]),\n",
      "   midi.NoteOnEvent(tick=1, channel=0, data=[50, 127]),\n",
      "   midi.NoteOnEvent(tick=59, channel=0, data=[50, 0]),\n",
      "   midi.NoteOnEvent(tick=1, channel=0, data=[45, 127]),\n",
      "   midi.NoteOnEvent(tick=59, channel=0, data=[45, 0]),\n",
      "   midi.NoteOnEvent(tick=1, channel=0, data=[45, 127]),\n",
      "   midi.NoteOnEvent(tick=59, channel=0, data=[45, 0]),\n",
      "   midi.NoteOnEvent(tick=1, channel=0, data=[45, 127]),\n",
      "   midi.NoteOnEvent(tick=59, channel=0, data=[45, 0]),\n",
      "   midi.NoteOnEvent(tick=1, channel=0, data=[45, 127]),\n",
      "   midi.NoteOnEvent(tick=59, channel=0, data=[45, 0]),\n",
      "   midi.NoteOnEvent(tick=1, channel=0, data=[45, 127]),\n",
      "   midi.NoteOnEvent(tick=59, channel=0, data=[45, 0]),\n",
      "   midi.NoteOnEvent(tick=1, channel=0, data=[52, 127]),\n",
      "   midi.NoteOnEvent(tick=59, channel=0, data=[52, 0]),\n",
      "   midi.NoteOnEvent(tick=1, channel=0, data=[57, 127]),\n",
      "   midi.NoteOnEvent(tick=59, channel=0, data=[57, 0]),\n",
      "   midi.NoteOnEvent(tick=1, channel=0, data=[52, 127]),\n",
      "   midi.NoteOnEvent(tick=59, channel=0, data=[52, 0]),\n",
      "   midi.NoteOnEvent(tick=1, channel=0, data=[45, 127]),\n",
      "   midi.NoteOnEvent(tick=59, channel=0, data=[45, 0]),\n",
      "   midi.NoteOnEvent(tick=1, channel=0, data=[45, 127]),\n",
      "   midi.NoteOnEvent(tick=59, channel=0, data=[45, 0]),\n",
      "   midi.NoteOnEvent(tick=1, channel=0, data=[45, 127]),\n",
      "   midi.NoteOnEvent(tick=59, channel=0, data=[45, 0]),\n",
      "   midi.NoteOnEvent(tick=1, channel=0, data=[45, 127]),\n",
      "   midi.NoteOnEvent(tick=59, channel=0, data=[45, 0]),\n",
      "   midi.NoteOnEvent(tick=1, channel=0, data=[45, 127]),\n",
      "   midi.NoteOnEvent(tick=59, channel=0, data=[45, 0]),\n",
      "   midi.NoteOnEvent(tick=1, channel=0, data=[52, 127]),\n",
      "   midi.NoteOnEvent(tick=59, channel=0, data=[52, 0]),\n",
      "   midi.NoteOnEvent(tick=1, channel=0, data=[57, 127]),\n",
      "   midi.NoteOnEvent(tick=59, channel=0, data=[57, 0]),\n",
      "   midi.NoteOnEvent(tick=1, channel=0, data=[52, 127]),\n",
      "   midi.NoteOnEvent(tick=59, channel=0, data=[52, 0]),\n",
      "   midi.NoteOnEvent(tick=1, channel=0, data=[45, 127]),\n",
      "   midi.NoteOnEvent(tick=59, channel=0, data=[45, 0]),\n",
      "   midi.NoteOnEvent(tick=1, channel=0, data=[45, 127]),\n",
      "   midi.NoteOnEvent(tick=59, channel=0, data=[45, 0]),\n",
      "   midi.NoteOnEvent(tick=1, channel=0, data=[45, 127]),\n",
      "   midi.NoteOnEvent(tick=59, channel=0, data=[45, 0]),\n",
      "   midi.NoteOnEvent(tick=1, channel=0, data=[45, 127]),\n",
      "   midi.NoteOnEvent(tick=59, channel=0, data=[45, 0]),\n",
      "   midi.NoteOnEvent(tick=1, channel=0, data=[45, 127]),\n",
      "   midi.NoteOnEvent(tick=59, channel=0, data=[45, 0]),\n",
      "   midi.NoteOnEvent(tick=1, channel=0, data=[52, 127]),\n",
      "   midi.NoteOnEvent(tick=59, channel=0, data=[52, 0]),\n",
      "   midi.NoteOnEvent(tick=1, channel=0, data=[57, 127]),\n",
      "   midi.NoteOnEvent(tick=59, channel=0, data=[57, 0]),\n",
      "   midi.NoteOnEvent(tick=1, channel=0, data=[52, 127]),\n",
      "   midi.NoteOnEvent(tick=59, channel=0, data=[52, 0]),\n",
      "   midi.NoteOnEvent(tick=1, channel=0, data=[45, 127]),\n",
      "   midi.NoteOnEvent(tick=59, channel=0, data=[45, 0]),\n",
      "   midi.NoteOnEvent(tick=1, channel=0, data=[45, 127]),\n",
      "   midi.NoteOnEvent(tick=59, channel=0, data=[45, 0]),\n",
      "   midi.NoteOnEvent(tick=1, channel=0, data=[45, 127]),\n",
      "   midi.NoteOnEvent(tick=59, channel=0, data=[45, 0]),\n",
      "   midi.NoteOnEvent(tick=1, channel=0, data=[45, 127]),\n",
      "   midi.NoteOnEvent(tick=59, channel=0, data=[45, 0]),\n",
      "   midi.NoteOnEvent(tick=1, channel=0, data=[45, 127]),\n",
      "   midi.NoteOnEvent(tick=59, channel=0, data=[45, 0]),\n",
      "   midi.NoteOnEvent(tick=1, channel=0, data=[52, 127]),\n",
      "   midi.NoteOnEvent(tick=59, channel=0, data=[52, 0]),\n",
      "   midi.NoteOnEvent(tick=1, channel=0, data=[57, 127]),\n",
      "   midi.NoteOnEvent(tick=59, channel=0, data=[57, 0]),\n",
      "   midi.NoteOnEvent(tick=1, channel=0, data=[52, 127]),\n",
      "   midi.NoteOnEvent(tick=59, channel=0, data=[52, 0]),\n",
      "   midi.NoteOnEvent(tick=1, channel=0, data=[43, 127]),\n",
      "   midi.NoteOnEvent(tick=59, channel=0, data=[43, 0]),\n",
      "   midi.NoteOnEvent(tick=1, channel=0, data=[43, 127]),\n",
      "   midi.NoteOnEvent(tick=59, channel=0, data=[43, 0]),\n",
      "   midi.NoteOnEvent(tick=1, channel=0, data=[43, 127]),\n",
      "   midi.NoteOnEvent(tick=59, channel=0, data=[43, 0]),\n",
      "   midi.NoteOnEvent(tick=1, channel=0, data=[43, 127]),\n",
      "   midi.NoteOnEvent(tick=59, channel=0, data=[43, 0]),\n",
      "   midi.NoteOnEvent(tick=1, channel=0, data=[43, 127]),\n",
      "   midi.NoteOnEvent(tick=59, channel=0, data=[43, 0]),\n",
      "   midi.NoteOnEvent(tick=1, channel=0, data=[50, 127]),\n",
      "   midi.NoteOnEvent(tick=59, channel=0, data=[50, 0]),\n",
      "   midi.NoteOnEvent(tick=1, channel=0, data=[55, 127]),\n",
      "   midi.NoteOnEvent(tick=59, channel=0, data=[55, 0]),\n",
      "   midi.NoteOnEvent(tick=1, channel=0, data=[50, 127]),\n",
      "   midi.NoteOnEvent(tick=59, channel=0, data=[50, 0]),\n",
      "   midi.NoteOnEvent(tick=1, channel=0, data=[43, 127]),\n",
      "   midi.NoteOnEvent(tick=59, channel=0, data=[43, 0]),\n",
      "   midi.NoteOnEvent(tick=1, channel=0, data=[43, 127]),\n",
      "   midi.NoteOnEvent(tick=59, channel=0, data=[43, 0]),\n",
      "   midi.NoteOnEvent(tick=1, channel=0, data=[43, 127]),\n",
      "   midi.NoteOnEvent(tick=59, channel=0, data=[43, 0]),\n",
      "   midi.NoteOnEvent(tick=1, channel=0, data=[43, 127]),\n",
      "   midi.NoteOnEvent(tick=59, channel=0, data=[43, 0]),\n",
      "   midi.NoteOnEvent(tick=1, channel=0, data=[43, 127]),\n",
      "   midi.NoteOnEvent(tick=59, channel=0, data=[43, 0]),\n",
      "   midi.NoteOnEvent(tick=1, channel=0, data=[50, 127]),\n",
      "   midi.NoteOnEvent(tick=59, channel=0, data=[50, 0]),\n",
      "   midi.NoteOnEvent(tick=1, channel=0, data=[55, 127]),\n",
      "   midi.NoteOnEvent(tick=59, channel=0, data=[55, 0]),\n",
      "   midi.NoteOnEvent(tick=1, channel=0, data=[50, 127]),\n",
      "   midi.NoteOnEvent(tick=59, channel=0, data=[50, 0]),\n",
      "   midi.NoteOnEvent(tick=1, channel=0, data=[43, 127]),\n",
      "   midi.NoteOnEvent(tick=59, channel=0, data=[43, 0]),\n",
      "   midi.NoteOnEvent(tick=1, channel=0, data=[43, 127]),\n",
      "   midi.NoteOnEvent(tick=59, channel=0, data=[43, 0]),\n",
      "   midi.NoteOnEvent(tick=1, channel=0, data=[43, 127]),\n",
      "   midi.NoteOnEvent(tick=59, channel=0, data=[43, 0]),\n",
      "   midi.NoteOnEvent(tick=1, channel=0, data=[43, 127]),\n",
      "   midi.NoteOnEvent(tick=59, channel=0, data=[43, 0]),\n",
      "   midi.NoteOnEvent(tick=1, channel=0, data=[43, 127]),\n",
      "   midi.NoteOnEvent(tick=59, channel=0, data=[43, 0]),\n",
      "   midi.NoteOnEvent(tick=1, channel=0, data=[50, 127]),\n",
      "   midi.NoteOnEvent(tick=59, channel=0, data=[50, 0]),\n",
      "   midi.NoteOnEvent(tick=1, channel=0, data=[55, 127]),\n",
      "   midi.NoteOnEvent(tick=59, channel=0, data=[55, 0]),\n",
      "   midi.NoteOnEvent(tick=1, channel=0, data=[50, 127]),\n",
      "   midi.NoteOnEvent(tick=59, channel=0, data=[50, 0]),\n",
      "   midi.NoteOnEvent(tick=1, channel=0, data=[43, 127]),\n",
      "   midi.NoteOnEvent(tick=59, channel=0, data=[43, 0]),\n",
      "   midi.NoteOnEvent(tick=1, channel=0, data=[43, 127]),\n",
      "   midi.NoteOnEvent(tick=59, channel=0, data=[43, 0]),\n",
      "   midi.NoteOnEvent(tick=1, channel=0, data=[43, 127]),\n",
      "   midi.NoteOnEvent(tick=59, channel=0, data=[43, 0]),\n",
      "   midi.NoteOnEvent(tick=1, channel=0, data=[43, 127]),\n",
      "   midi.NoteOnEvent(tick=59, channel=0, data=[43, 0]),\n",
      "   midi.NoteOnEvent(tick=1, channel=0, data=[43, 127]),\n",
      "   midi.NoteOnEvent(tick=59, channel=0, data=[43, 0]),\n",
      "   midi.NoteOnEvent(tick=1, channel=0, data=[50, 127]),\n",
      "   midi.NoteOnEvent(tick=59, channel=0, data=[50, 0]),\n",
      "   midi.NoteOnEvent(tick=1, channel=0, data=[55, 127]),\n",
      "   midi.NoteOnEvent(tick=59, channel=0, data=[55, 0]),\n",
      "   midi.NoteOnEvent(tick=1, channel=0, data=[50, 127]),\n",
      "   midi.NoteOnEvent(tick=59, channel=0, data=[50, 0]),\n",
      "   midi.NoteOnEvent(tick=3841, channel=0, data=[45, 127]),\n",
      "   midi.NoteOnEvent(tick=59, channel=0, data=[45, 0]),\n",
      "   midi.NoteOnEvent(tick=1, channel=0, data=[45, 127]),\n",
      "   midi.NoteOnEvent(tick=59, channel=0, data=[45, 0]),\n",
      "   midi.NoteOnEvent(tick=1, channel=0, data=[45, 127]),\n",
      "   midi.NoteOnEvent(tick=59, channel=0, data=[45, 0]),\n",
      "   midi.NoteOnEvent(tick=1, channel=0, data=[45, 127]),\n",
      "   midi.NoteOnEvent(tick=59, channel=0, data=[45, 0]),\n",
      "   midi.NoteOnEvent(tick=1, channel=0, data=[45, 127]),\n",
      "   midi.NoteOnEvent(tick=59, channel=0, data=[45, 0]),\n",
      "   midi.NoteOnEvent(tick=1, channel=0, data=[52, 127]),\n",
      "   midi.NoteOnEvent(tick=59, channel=0, data=[52, 0]),\n",
      "   midi.NoteOnEvent(tick=1, channel=0, data=[57, 127]),\n",
      "   midi.NoteOnEvent(tick=59, channel=0, data=[57, 0]),\n",
      "   midi.NoteOnEvent(tick=1, channel=0, data=[52, 127]),\n",
      "   midi.NoteOnEvent(tick=59, channel=0, data=[52, 0]),\n",
      "   midi.NoteOnEvent(tick=1, channel=0, data=[45, 127]),\n",
      "   midi.NoteOnEvent(tick=59, channel=0, data=[45, 0]),\n",
      "   midi.NoteOnEvent(tick=1, channel=0, data=[45, 127]),\n",
      "   midi.NoteOnEvent(tick=59, channel=0, data=[45, 0]),\n",
      "   midi.NoteOnEvent(tick=1, channel=0, data=[45, 127]),\n",
      "   midi.NoteOnEvent(tick=59, channel=0, data=[45, 0]),\n",
      "   midi.NoteOnEvent(tick=1, channel=0, data=[45, 127]),\n",
      "   midi.NoteOnEvent(tick=59, channel=0, data=[45, 0]),\n",
      "   midi.NoteOnEvent(tick=1, channel=0, data=[45, 127]),\n",
      "   midi.NoteOnEvent(tick=59, channel=0, data=[45, 0]),\n",
      "   midi.NoteOnEvent(tick=1, channel=0, data=[52, 127]),\n",
      "   midi.NoteOnEvent(tick=59, channel=0, data=[52, 0]),\n",
      "   midi.NoteOnEvent(tick=1, channel=0, data=[57, 127]),\n",
      "   midi.NoteOnEvent(tick=59, channel=0, data=[57, 0]),\n",
      "   midi.NoteOnEvent(tick=1, channel=0, data=[52, 127]),\n",
      "   midi.NoteOnEvent(tick=59, channel=0, data=[52, 0]),\n",
      "   midi.NoteOnEvent(tick=1, channel=0, data=[43, 127]),\n",
      "   midi.NoteOnEvent(tick=59, channel=0, data=[43, 0]),\n",
      "   midi.NoteOnEvent(tick=1, channel=0, data=[43, 127]),\n",
      "   midi.NoteOnEvent(tick=59, channel=0, data=[43, 0]),\n",
      "   midi.NoteOnEvent(tick=1, channel=0, data=[43, 127]),\n",
      "   midi.NoteOnEvent(tick=59, channel=0, data=[43, 0]),\n",
      "   midi.NoteOnEvent(tick=1, channel=0, data=[43, 127]),\n",
      "   midi.NoteOnEvent(tick=59, channel=0, data=[43, 0]),\n",
      "   midi.NoteOnEvent(tick=1, channel=0, data=[43, 127]),\n",
      "   midi.NoteOnEvent(tick=59, channel=0, data=[43, 0]),\n",
      "   midi.NoteOnEvent(tick=1, channel=0, data=[50, 127]),\n",
      "   midi.NoteOnEvent(tick=59, channel=0, data=[50, 0]),\n",
      "   midi.NoteOnEvent(tick=1, channel=0, data=[55, 127]),\n",
      "   midi.NoteOnEvent(tick=59, channel=0, data=[55, 0]),\n",
      "   midi.NoteOnEvent(tick=1, channel=0, data=[50, 127]),\n",
      "   midi.NoteOnEvent(tick=59, channel=0, data=[50, 0]),\n",
      "   midi.NoteOnEvent(tick=1, channel=0, data=[43, 127]),\n",
      "   midi.NoteOnEvent(tick=59, channel=0, data=[43, 0]),\n",
      "   midi.NoteOnEvent(tick=1, channel=0, data=[43, 127]),\n",
      "   midi.NoteOnEvent(tick=59, channel=0, data=[43, 0]),\n",
      "   midi.NoteOnEvent(tick=1, channel=0, data=[43, 127]),\n",
      "   midi.NoteOnEvent(tick=59, channel=0, data=[43, 0]),\n",
      "   midi.NoteOnEvent(tick=1, channel=0, data=[43, 127]),\n",
      "   midi.NoteOnEvent(tick=59, channel=0, data=[43, 0]),\n",
      "   midi.NoteOnEvent(tick=1, channel=0, data=[43, 127]),\n",
      "   midi.NoteOnEvent(tick=59, channel=0, data=[43, 0]),\n",
      "   midi.NoteOnEvent(tick=1, channel=0, data=[50, 127]),\n",
      "   midi.NoteOnEvent(tick=59, channel=0, data=[50, 0]),\n",
      "   midi.NoteOnEvent(tick=1, channel=0, data=[55, 127]),\n",
      "   midi.NoteOnEvent(tick=59, channel=0, data=[55, 0]),\n",
      "   midi.NoteOnEvent(tick=1, channel=0, data=[50, 127]),\n",
      "   midi.NoteOnEvent(tick=59, channel=0, data=[50, 0]),\n",
      "   midi.NoteOnEvent(tick=1, channel=0, data=[45, 127]),\n",
      "   midi.NoteOnEvent(tick=59, channel=0, data=[45, 0]),\n",
      "   midi.NoteOnEvent(tick=1, channel=0, data=[45, 127]),\n",
      "   midi.NoteOnEvent(tick=59, channel=0, data=[45, 0]),\n",
      "   midi.NoteOnEvent(tick=1, channel=0, data=[45, 127]),\n",
      "   midi.NoteOnEvent(tick=59, channel=0, data=[45, 0]),\n",
      "   midi.NoteOnEvent(tick=1, channel=0, data=[45, 127]),\n",
      "   midi.NoteOnEvent(tick=59, channel=0, data=[45, 0]),\n",
      "   midi.NoteOnEvent(tick=1, channel=0, data=[45, 127]),\n",
      "   midi.NoteOnEvent(tick=59, channel=0, data=[45, 0]),\n",
      "   midi.NoteOnEvent(tick=1, channel=0, data=[52, 127]),\n",
      "   midi.NoteOnEvent(tick=59, channel=0, data=[52, 0]),\n",
      "   midi.NoteOnEvent(tick=1, channel=0, data=[57, 127]),\n",
      "   midi.NoteOnEvent(tick=59, channel=0, data=[57, 0]),\n",
      "   midi.NoteOnEvent(tick=1, channel=0, data=[52, 127]),\n",
      "   midi.NoteOnEvent(tick=59, channel=0, data=[52, 0]),\n",
      "   midi.NoteOnEvent(tick=1, channel=0, data=[45, 127]),\n",
      "   midi.NoteOnEvent(tick=59, channel=0, data=[45, 0]),\n",
      "   midi.NoteOnEvent(tick=1, channel=0, data=[45, 127]),\n",
      "   midi.NoteOnEvent(tick=59, channel=0, data=[45, 0]),\n",
      "   midi.NoteOnEvent(tick=1, channel=0, data=[45, 127]),\n",
      "   midi.NoteOnEvent(tick=59, channel=0, data=[45, 0]),\n",
      "   midi.NoteOnEvent(tick=1, channel=0, data=[45, 127]),\n",
      "   midi.NoteOnEvent(tick=59, channel=0, data=[45, 0]),\n",
      "   midi.NoteOnEvent(tick=1, channel=0, data=[45, 127]),\n",
      "   midi.NoteOnEvent(tick=59, channel=0, data=[45, 0]),\n",
      "   midi.NoteOnEvent(tick=1, channel=0, data=[52, 127]),\n",
      "   midi.NoteOnEvent(tick=59, channel=0, data=[52, 0]),\n",
      "   midi.NoteOnEvent(tick=1, channel=0, data=[57, 127]),\n",
      "   midi.NoteOnEvent(tick=59, channel=0, data=[57, 0]),\n",
      "   midi.NoteOnEvent(tick=1, channel=0, data=[52, 127]),\n",
      "   midi.NoteOnEvent(tick=59, channel=0, data=[52, 0]),\n",
      "   midi.NoteOnEvent(tick=1, channel=0, data=[43, 127]),\n",
      "   midi.NoteOnEvent(tick=59, channel=0, data=[43, 0]),\n",
      "   midi.NoteOnEvent(tick=1, channel=0, data=[43, 127]),\n",
      "   midi.NoteOnEvent(tick=59, channel=0, data=[43, 0]),\n",
      "   midi.NoteOnEvent(tick=1, channel=0, data=[43, 127]),\n",
      "   midi.NoteOnEvent(tick=59, channel=0, data=[43, 0]),\n",
      "   midi.NoteOnEvent(tick=1, channel=0, data=[43, 127]),\n",
      "   midi.NoteOnEvent(tick=59, channel=0, data=[43, 0]),\n",
      "   midi.NoteOnEvent(tick=1, channel=0, data=[43, 127]),\n",
      "   midi.NoteOnEvent(tick=59, channel=0, data=[43, 0]),\n",
      "   midi.NoteOnEvent(tick=1, channel=0, data=[50, 127]),\n",
      "   midi.NoteOnEvent(tick=59, channel=0, data=[50, 0]),\n",
      "   midi.NoteOnEvent(tick=1, channel=0, data=[55, 127]),\n",
      "   midi.NoteOnEvent(tick=59, channel=0, data=[55, 0]),\n",
      "   midi.NoteOnEvent(tick=1, channel=0, data=[50, 127]),\n",
      "   midi.NoteOnEvent(tick=59, channel=0, data=[50, 0]),\n",
      "   midi.NoteOnEvent(tick=1, channel=0, data=[43, 127]),\n",
      "   midi.NoteOnEvent(tick=59, channel=0, data=[43, 0]),\n",
      "   midi.NoteOnEvent(tick=1, channel=0, data=[43, 127]),\n",
      "   midi.NoteOnEvent(tick=59, channel=0, data=[43, 0]),\n",
      "   midi.NoteOnEvent(tick=1, channel=0, data=[43, 127]),\n",
      "   midi.NoteOnEvent(tick=59, channel=0, data=[43, 0]),\n",
      "   midi.NoteOnEvent(tick=1, channel=0, data=[43, 127]),\n",
      "   midi.NoteOnEvent(tick=59, channel=0, data=[43, 0]),\n",
      "   midi.NoteOnEvent(tick=1, channel=0, data=[43, 127]),\n",
      "   midi.NoteOnEvent(tick=59, channel=0, data=[43, 0]),\n",
      "   midi.NoteOnEvent(tick=1, channel=0, data=[52, 127]),\n",
      "   midi.NoteOnEvent(tick=59, channel=0, data=[52, 0]),\n",
      "   midi.NoteOnEvent(tick=1, channel=0, data=[57, 127]),\n",
      "   midi.NoteOnEvent(tick=59, channel=0, data=[57, 0]),\n",
      "   midi.NoteOnEvent(tick=1, channel=0, data=[52, 127]),\n",
      "   midi.NoteOnEvent(tick=59, channel=0, data=[52, 0]),\n",
      "   midi.NoteOnEvent(tick=1, channel=0, data=[45, 127]),\n",
      "   midi.NoteOnEvent(tick=59, channel=0, data=[45, 0]),\n",
      "   midi.NoteOnEvent(tick=1, channel=0, data=[45, 127]),\n",
      "   midi.NoteOnEvent(tick=59, channel=0, data=[45, 0]),\n",
      "   midi.NoteOnEvent(tick=1, channel=0, data=[45, 127]),\n",
      "   midi.NoteOnEvent(tick=59, channel=0, data=[45, 0]),\n",
      "   midi.NoteOnEvent(tick=1, channel=0, data=[45, 127]),\n",
      "   midi.NoteOnEvent(tick=59, channel=0, data=[45, 0]),\n",
      "   midi.NoteOnEvent(tick=1, channel=0, data=[45, 127]),\n",
      "   midi.NoteOnEvent(tick=59, channel=0, data=[45, 0]),\n",
      "   midi.NoteOnEvent(tick=1, channel=0, data=[52, 127]),\n",
      "   midi.NoteOnEvent(tick=59, channel=0, data=[52, 0]),\n",
      "   midi.NoteOnEvent(tick=1, channel=0, data=[57, 127]),\n",
      "   midi.NoteOnEvent(tick=59, channel=0, data=[57, 0]),\n",
      "   midi.NoteOnEvent(tick=1, channel=0, data=[52, 127]),\n",
      "   midi.NoteOnEvent(tick=59, channel=0, data=[52, 0]),\n",
      "   midi.NoteOnEvent(tick=1, channel=0, data=[45, 127]),\n",
      "   midi.NoteOnEvent(tick=59, channel=0, data=[45, 0]),\n",
      "   midi.NoteOnEvent(tick=1, channel=0, data=[45, 127]),\n",
      "   midi.NoteOnEvent(tick=59, channel=0, data=[45, 0]),\n",
      "   midi.NoteOnEvent(tick=1, channel=0, data=[45, 127]),\n",
      "   midi.NoteOnEvent(tick=59, channel=0, data=[45, 0]),\n",
      "   midi.NoteOnEvent(tick=1, channel=0, data=[45, 127]),\n",
      "   midi.NoteOnEvent(tick=59, channel=0, data=[45, 0]),\n",
      "   midi.NoteOnEvent(tick=1, channel=0, data=[45, 127]),\n",
      "   midi.NoteOnEvent(tick=59, channel=0, data=[45, 0]),\n",
      "   midi.NoteOnEvent(tick=1, channel=0, data=[52, 127]),\n",
      "   midi.NoteOnEvent(tick=59, channel=0, data=[52, 0]),\n",
      "   midi.NoteOnEvent(tick=1, channel=0, data=[57, 127]),\n",
      "   midi.NoteOnEvent(tick=59, channel=0, data=[57, 0]),\n",
      "   midi.NoteOnEvent(tick=1, channel=0, data=[52, 127]),\n",
      "   midi.NoteOnEvent(tick=59, channel=0, data=[52, 0]),\n",
      "   midi.NoteOnEvent(tick=1, channel=0, data=[45, 127]),\n",
      "   midi.NoteOnEvent(tick=59, channel=0, data=[45, 0]),\n",
      "   midi.NoteOnEvent(tick=1, channel=0, data=[45, 127]),\n",
      "   midi.NoteOnEvent(tick=59, channel=0, data=[45, 0]),\n",
      "   midi.NoteOnEvent(tick=1, channel=0, data=[45, 127]),\n",
      "   midi.NoteOnEvent(tick=59, channel=0, data=[45, 0]),\n",
      "   midi.NoteOnEvent(tick=1, channel=0, data=[45, 127]),\n",
      "   midi.NoteOnEvent(tick=59, channel=0, data=[45, 0]),\n",
      "   midi.NoteOnEvent(tick=1, channel=0, data=[45, 127]),\n",
      "   midi.NoteOnEvent(tick=59, channel=0, data=[45, 0]),\n",
      "   midi.NoteOnEvent(tick=1, channel=0, data=[52, 127]),\n",
      "   midi.NoteOnEvent(tick=59, channel=0, data=[52, 0]),\n",
      "   midi.NoteOnEvent(tick=1, channel=0, data=[57, 127]),\n",
      "   midi.NoteOnEvent(tick=59, channel=0, data=[57, 0]),\n",
      "   midi.NoteOnEvent(tick=1, channel=0, data=[52, 127]),\n",
      "   midi.NoteOnEvent(tick=59, channel=0, data=[52, 0]),\n",
      "   midi.NoteOnEvent(tick=1, channel=0, data=[45, 127]),\n",
      "   midi.NoteOnEvent(tick=59, channel=0, data=[45, 0]),\n",
      "   midi.NoteOnEvent(tick=1, channel=0, data=[45, 127]),\n",
      "   midi.NoteOnEvent(tick=59, channel=0, data=[45, 0]),\n",
      "   midi.NoteOnEvent(tick=1, channel=0, data=[45, 127]),\n",
      "   midi.NoteOnEvent(tick=59, channel=0, data=[45, 0]),\n",
      "   midi.NoteOnEvent(tick=1, channel=0, data=[45, 127]),\n",
      "   midi.NoteOnEvent(tick=59, channel=0, data=[45, 0]),\n",
      "   midi.NoteOnEvent(tick=1, channel=0, data=[45, 127]),\n",
      "   midi.NoteOnEvent(tick=59, channel=0, data=[45, 0]),\n",
      "   midi.NoteOnEvent(tick=1, channel=0, data=[52, 127]),\n",
      "   midi.NoteOnEvent(tick=59, channel=0, data=[52, 0]),\n",
      "   midi.NoteOnEvent(tick=1, channel=0, data=[57, 127]),\n",
      "   midi.NoteOnEvent(tick=59, channel=0, data=[57, 0]),\n",
      "   midi.NoteOnEvent(tick=1, channel=0, data=[52, 127]),\n",
      "   midi.NoteOnEvent(tick=59, channel=0, data=[52, 0]),\n",
      "   midi.NoteOnEvent(tick=1, channel=0, data=[43, 127]),\n",
      "   midi.NoteOnEvent(tick=59, channel=0, data=[43, 0]),\n",
      "   midi.NoteOnEvent(tick=1, channel=0, data=[43, 127]),\n",
      "   midi.NoteOnEvent(tick=59, channel=0, data=[43, 0]),\n",
      "   midi.NoteOnEvent(tick=1, channel=0, data=[43, 127]),\n",
      "   midi.NoteOnEvent(tick=59, channel=0, data=[43, 0]),\n",
      "   midi.NoteOnEvent(tick=1, channel=0, data=[43, 127]),\n",
      "   midi.NoteOnEvent(tick=59, channel=0, data=[43, 0]),\n",
      "   midi.NoteOnEvent(tick=1, channel=0, data=[43, 127]),\n",
      "   midi.NoteOnEvent(tick=59, channel=0, data=[43, 0]),\n",
      "   midi.NoteOnEvent(tick=1, channel=0, data=[50, 127]),\n",
      "   midi.NoteOnEvent(tick=59, channel=0, data=[50, 0]),\n",
      "   midi.NoteOnEvent(tick=1, channel=0, data=[55, 127]),\n",
      "   midi.NoteOnEvent(tick=59, channel=0, data=[55, 0]),\n",
      "   midi.NoteOnEvent(tick=1, channel=0, data=[50, 127]),\n",
      "   midi.NoteOnEvent(tick=59, channel=0, data=[50, 0]),\n",
      "   midi.NoteOnEvent(tick=1, channel=0, data=[43, 127]),\n",
      "   midi.NoteOnEvent(tick=59, channel=0, data=[43, 0]),\n",
      "   midi.NoteOnEvent(tick=1, channel=0, data=[43, 127]),\n",
      "   midi.NoteOnEvent(tick=59, channel=0, data=[43, 0]),\n",
      "   midi.NoteOnEvent(tick=1, channel=0, data=[43, 127]),\n",
      "   midi.NoteOnEvent(tick=59, channel=0, data=[43, 0]),\n",
      "   midi.NoteOnEvent(tick=1, channel=0, data=[43, 127]),\n",
      "   midi.NoteOnEvent(tick=59, channel=0, data=[43, 0]),\n",
      "   midi.NoteOnEvent(tick=1, channel=0, data=[43, 127]),\n",
      "   midi.NoteOnEvent(tick=59, channel=0, data=[43, 0]),\n",
      "   midi.NoteOnEvent(tick=1, channel=0, data=[50, 127]),\n",
      "   midi.NoteOnEvent(tick=59, channel=0, data=[50, 0]),\n",
      "   midi.NoteOnEvent(tick=1, channel=0, data=[55, 127]),\n",
      "   midi.NoteOnEvent(tick=59, channel=0, data=[55, 0]),\n",
      "   midi.NoteOnEvent(tick=1, channel=0, data=[50, 127]),\n",
      "   midi.NoteOnEvent(tick=59, channel=0, data=[50, 0]),\n",
      "   midi.NoteOnEvent(tick=1, channel=0, data=[43, 127]),\n",
      "   midi.NoteOnEvent(tick=59, channel=0, data=[43, 0]),\n",
      "   midi.NoteOnEvent(tick=1, channel=0, data=[43, 127]),\n",
      "   midi.NoteOnEvent(tick=59, channel=0, data=[43, 0]),\n",
      "   midi.NoteOnEvent(tick=1, channel=0, data=[43, 127]),\n",
      "   midi.NoteOnEvent(tick=59, channel=0, data=[43, 0]),\n",
      "   midi.NoteOnEvent(tick=1, channel=0, data=[43, 127]),\n",
      "   midi.NoteOnEvent(tick=59, channel=0, data=[43, 0]),\n",
      "   midi.NoteOnEvent(tick=1, channel=0, data=[43, 127]),\n",
      "   midi.NoteOnEvent(tick=59, channel=0, data=[43, 0]),\n",
      "   midi.NoteOnEvent(tick=1, channel=0, data=[50, 127]),\n",
      "   midi.NoteOnEvent(tick=59, channel=0, data=[50, 0]),\n",
      "   midi.NoteOnEvent(tick=1, channel=0, data=[55, 127]),\n",
      "   midi.NoteOnEvent(tick=59, channel=0, data=[55, 0]),\n",
      "   midi.NoteOnEvent(tick=1, channel=0, data=[50, 127]),\n",
      "   midi.NoteOnEvent(tick=59, channel=0, data=[50, 0]),\n",
      "   midi.NoteOnEvent(tick=1, channel=0, data=[43, 127]),\n",
      "   midi.NoteOnEvent(tick=59, channel=0, data=[43, 0]),\n",
      "   midi.NoteOnEvent(tick=1, channel=0, data=[43, 127]),\n",
      "   midi.NoteOnEvent(tick=59, channel=0, data=[43, 0]),\n",
      "   midi.NoteOnEvent(tick=1, channel=0, data=[43, 127]),\n",
      "   midi.NoteOnEvent(tick=59, channel=0, data=[43, 0]),\n",
      "   midi.NoteOnEvent(tick=1, channel=0, data=[43, 127]),\n",
      "   midi.NoteOnEvent(tick=59, channel=0, data=[43, 0]),\n",
      "   midi.NoteOnEvent(tick=1, channel=0, data=[43, 127]),\n",
      "   midi.NoteOnEvent(tick=59, channel=0, data=[43, 0]),\n",
      "   midi.NoteOnEvent(tick=1, channel=0, data=[50, 127]),\n",
      "   midi.NoteOnEvent(tick=59, channel=0, data=[50, 0]),\n",
      "   midi.NoteOnEvent(tick=1, channel=0, data=[55, 127]),\n",
      "   midi.NoteOnEvent(tick=59, channel=0, data=[55, 0]),\n",
      "   midi.NoteOnEvent(tick=1, channel=0, data=[50, 127]),\n",
      "   midi.NoteOnEvent(tick=59, channel=0, data=[50, 0]),\n",
      "   midi.NoteOnEvent(tick=1, channel=0, data=[45, 127]),\n",
      "   midi.NoteOnEvent(tick=59, channel=0, data=[45, 0]),\n",
      "   midi.NoteOnEvent(tick=1, channel=0, data=[45, 127]),\n",
      "   midi.NoteOnEvent(tick=59, channel=0, data=[45, 0]),\n",
      "   midi.NoteOnEvent(tick=1, channel=0, data=[45, 127]),\n",
      "   midi.NoteOnEvent(tick=59, channel=0, data=[45, 0]),\n",
      "   midi.NoteOnEvent(tick=1, channel=0, data=[45, 127]),\n",
      "   midi.NoteOnEvent(tick=59, channel=0, data=[45, 0]),\n",
      "   midi.NoteOnEvent(tick=1, channel=0, data=[45, 127]),\n",
      "   midi.NoteOnEvent(tick=59, channel=0, data=[45, 0]),\n",
      "   midi.NoteOnEvent(tick=1, channel=0, data=[52, 127]),\n",
      "   midi.NoteOnEvent(tick=59, channel=0, data=[52, 0]),\n",
      "   midi.NoteOnEvent(tick=1, channel=0, data=[57, 127]),\n",
      "   midi.NoteOnEvent(tick=59, channel=0, data=[57, 0]),\n",
      "   midi.NoteOnEvent(tick=1, channel=0, data=[52, 127]),\n",
      "   midi.NoteOnEvent(tick=59, channel=0, data=[52, 0]),\n",
      "   midi.NoteOnEvent(tick=1, channel=0, data=[45, 127]),\n",
      "   midi.NoteOnEvent(tick=59, channel=0, data=[45, 0]),\n",
      "   midi.NoteOnEvent(tick=1, channel=0, data=[45, 127]),\n",
      "   midi.NoteOnEvent(tick=59, channel=0, data=[45, 0]),\n",
      "   midi.NoteOnEvent(tick=1, channel=0, data=[45, 127]),\n",
      "   midi.NoteOnEvent(tick=59, channel=0, data=[45, 0]),\n",
      "   midi.NoteOnEvent(tick=1, channel=0, data=[45, 127]),\n",
      "   midi.NoteOnEvent(tick=59, channel=0, data=[45, 0]),\n",
      "   midi.NoteOnEvent(tick=1, channel=0, data=[45, 127]),\n",
      "   midi.NoteOnEvent(tick=59, channel=0, data=[45, 0]),\n",
      "   midi.NoteOnEvent(tick=1, channel=0, data=[52, 127]),\n",
      "   midi.NoteOnEvent(tick=59, channel=0, data=[52, 0]),\n",
      "   midi.NoteOnEvent(tick=1, channel=0, data=[57, 127]),\n",
      "   midi.NoteOnEvent(tick=59, channel=0, data=[57, 0]),\n",
      "   midi.NoteOnEvent(tick=1, channel=0, data=[52, 127]),\n",
      "   midi.NoteOnEvent(tick=59, channel=0, data=[52, 0]),\n",
      "   midi.NoteOnEvent(tick=1, channel=0, data=[45, 127]),\n",
      "   midi.NoteOnEvent(tick=59, channel=0, data=[45, 0]),\n",
      "   midi.NoteOnEvent(tick=1, channel=0, data=[45, 127]),\n",
      "   midi.NoteOnEvent(tick=59, channel=0, data=[45, 0]),\n",
      "   midi.NoteOnEvent(tick=1, channel=0, data=[45, 127]),\n",
      "   midi.NoteOnEvent(tick=59, channel=0, data=[45, 0]),\n",
      "   midi.NoteOnEvent(tick=1, channel=0, data=[45, 127]),\n",
      "   midi.NoteOnEvent(tick=59, channel=0, data=[45, 0]),\n",
      "   midi.NoteOnEvent(tick=1, channel=0, data=[45, 127]),\n",
      "   midi.NoteOnEvent(tick=59, channel=0, data=[45, 0]),\n",
      "   midi.NoteOnEvent(tick=1, channel=0, data=[52, 127]),\n",
      "   midi.NoteOnEvent(tick=59, channel=0, data=[52, 0]),\n",
      "   midi.NoteOnEvent(tick=1, channel=0, data=[57, 127]),\n",
      "   midi.NoteOnEvent(tick=59, channel=0, data=[57, 0]),\n",
      "   midi.NoteOnEvent(tick=1, channel=0, data=[52, 127]),\n",
      "   midi.NoteOnEvent(tick=59, channel=0, data=[52, 0]),\n",
      "   midi.NoteOnEvent(tick=1, channel=0, data=[45, 127]),\n",
      "   midi.NoteOnEvent(tick=59, channel=0, data=[45, 0]),\n",
      "   midi.NoteOnEvent(tick=1, channel=0, data=[45, 127]),\n",
      "   midi.NoteOnEvent(tick=59, channel=0, data=[45, 0]),\n",
      "   midi.NoteOnEvent(tick=1, channel=0, data=[45, 127]),\n",
      "   midi.NoteOnEvent(tick=59, channel=0, data=[45, 0]),\n",
      "   midi.NoteOnEvent(tick=1, channel=0, data=[45, 127]),\n",
      "   midi.NoteOnEvent(tick=59, channel=0, data=[45, 0]),\n",
      "   midi.NoteOnEvent(tick=1, channel=0, data=[45, 127]),\n",
      "   midi.NoteOnEvent(tick=59, channel=0, data=[45, 0]),\n",
      "   midi.NoteOnEvent(tick=1, channel=0, data=[52, 127]),\n",
      "   midi.NoteOnEvent(tick=59, channel=0, data=[52, 0]),\n",
      "   midi.NoteOnEvent(tick=1, channel=0, data=[57, 127]),\n",
      "   midi.NoteOnEvent(tick=59, channel=0, data=[57, 0]),\n",
      "   midi.NoteOnEvent(tick=1, channel=0, data=[52, 127]),\n",
      "   midi.NoteOnEvent(tick=59, channel=0, data=[52, 0]),\n",
      "   midi.NoteOnEvent(tick=1, channel=0, data=[43, 127]),\n",
      "   midi.NoteOnEvent(tick=59, channel=0, data=[43, 0]),\n",
      "   midi.NoteOnEvent(tick=1, channel=0, data=[43, 127]),\n",
      "   midi.NoteOnEvent(tick=59, channel=0, data=[43, 0]),\n",
      "   midi.NoteOnEvent(tick=1, channel=0, data=[43, 127]),\n",
      "   midi.NoteOnEvent(tick=59, channel=0, data=[43, 0]),\n",
      "   midi.NoteOnEvent(tick=1, channel=0, data=[43, 127]),\n",
      "   midi.NoteOnEvent(tick=59, channel=0, data=[43, 0]),\n",
      "   midi.NoteOnEvent(tick=1, channel=0, data=[43, 127]),\n",
      "   midi.NoteOnEvent(tick=59, channel=0, data=[43, 0]),\n",
      "   midi.NoteOnEvent(tick=1, channel=0, data=[50, 127]),\n",
      "   midi.NoteOnEvent(tick=59, channel=0, data=[50, 0]),\n",
      "   midi.NoteOnEvent(tick=1, channel=0, data=[55, 127]),\n",
      "   midi.NoteOnEvent(tick=59, channel=0, data=[55, 0]),\n",
      "   midi.NoteOnEvent(tick=1, channel=0, data=[50, 127]),\n",
      "   midi.NoteOnEvent(tick=59, channel=0, data=[50, 0]),\n",
      "   midi.NoteOnEvent(tick=1, channel=0, data=[43, 127]),\n",
      "   midi.NoteOnEvent(tick=59, channel=0, data=[43, 0]),\n",
      "   midi.NoteOnEvent(tick=1, channel=0, data=[43, 127]),\n",
      "   midi.NoteOnEvent(tick=59, channel=0, data=[43, 0]),\n",
      "   midi.NoteOnEvent(tick=1, channel=0, data=[43, 127]),\n",
      "   midi.NoteOnEvent(tick=59, channel=0, data=[43, 0]),\n",
      "   midi.NoteOnEvent(tick=1, channel=0, data=[43, 127]),\n",
      "   midi.NoteOnEvent(tick=59, channel=0, data=[43, 0]),\n",
      "   midi.NoteOnEvent(tick=1, channel=0, data=[43, 127]),\n",
      "   midi.NoteOnEvent(tick=59, channel=0, data=[43, 0]),\n",
      "   midi.NoteOnEvent(tick=1, channel=0, data=[50, 127]),\n",
      "   midi.NoteOnEvent(tick=59, channel=0, data=[50, 0]),\n",
      "   midi.NoteOnEvent(tick=1, channel=0, data=[55, 127]),\n",
      "   midi.NoteOnEvent(tick=59, channel=0, data=[55, 0]),\n",
      "   midi.NoteOnEvent(tick=1, channel=0, data=[50, 127]),\n",
      "   midi.NoteOnEvent(tick=59, channel=0, data=[50, 0]),\n",
      "   midi.NoteOnEvent(tick=1, channel=0, data=[43, 127]),\n",
      "   midi.NoteOnEvent(tick=59, channel=0, data=[43, 0]),\n",
      "   midi.NoteOnEvent(tick=1, channel=0, data=[43, 127]),\n",
      "   midi.NoteOnEvent(tick=59, channel=0, data=[43, 0]),\n",
      "   midi.NoteOnEvent(tick=1, channel=0, data=[43, 127]),\n",
      "   midi.NoteOnEvent(tick=59, channel=0, data=[43, 0]),\n",
      "   midi.NoteOnEvent(tick=1, channel=0, data=[43, 127]),\n",
      "   midi.NoteOnEvent(tick=59, channel=0, data=[43, 0]),\n",
      "   midi.NoteOnEvent(tick=1, channel=0, data=[43, 127]),\n",
      "   midi.NoteOnEvent(tick=59, channel=0, data=[43, 0]),\n",
      "   midi.NoteOnEvent(tick=1, channel=0, data=[50, 127]),\n",
      "   midi.NoteOnEvent(tick=59, channel=0, data=[50, 0]),\n",
      "   midi.NoteOnEvent(tick=1, channel=0, data=[55, 127]),\n",
      "   midi.NoteOnEvent(tick=59, channel=0, data=[55, 0]),\n",
      "   midi.NoteOnEvent(tick=1, channel=0, data=[50, 127]),\n",
      "   midi.NoteOnEvent(tick=59, channel=0, data=[50, 0]),\n",
      "   midi.NoteOnEvent(tick=1, channel=0, data=[43, 127]),\n",
      "   midi.NoteOnEvent(tick=59, channel=0, data=[43, 0]),\n",
      "   midi.NoteOnEvent(tick=1, channel=0, data=[43, 127]),\n",
      "   midi.NoteOnEvent(tick=59, channel=0, data=[43, 0]),\n",
      "   midi.NoteOnEvent(tick=1, channel=0, data=[43, 127]),\n",
      "   midi.NoteOnEvent(tick=59, channel=0, data=[43, 0]),\n",
      "   midi.NoteOnEvent(tick=1, channel=0, data=[43, 127]),\n",
      "   midi.NoteOnEvent(tick=59, channel=0, data=[43, 0]),\n",
      "   midi.NoteOnEvent(tick=1, channel=0, data=[43, 127]),\n",
      "   midi.NoteOnEvent(tick=59, channel=0, data=[43, 0]),\n",
      "   midi.NoteOnEvent(tick=1, channel=0, data=[50, 127]),\n",
      "   midi.NoteOnEvent(tick=59, channel=0, data=[50, 0]),\n",
      "   midi.NoteOnEvent(tick=1, channel=0, data=[55, 127]),\n",
      "   midi.NoteOnEvent(tick=59, channel=0, data=[55, 0]),\n",
      "   midi.NoteOnEvent(tick=1, channel=0, data=[50, 127]),\n",
      "   midi.NoteOnEvent(tick=59, channel=0, data=[50, 0]),\n",
      "   midi.NoteOnEvent(tick=5761, channel=0, data=[45, 127]),\n",
      "   midi.NoteOnEvent(tick=59, channel=0, data=[45, 0]),\n",
      "   midi.NoteOnEvent(tick=1, channel=0, data=[45, 127]),\n",
      "   midi.NoteOnEvent(tick=59, channel=0, data=[45, 0]),\n",
      "   midi.NoteOnEvent(tick=1, channel=0, data=[45, 127]),\n",
      "   midi.NoteOnEvent(tick=59, channel=0, data=[45, 0]),\n",
      "   midi.NoteOnEvent(tick=1, channel=0, data=[45, 127]),\n",
      "   midi.NoteOnEvent(tick=59, channel=0, data=[45, 0]),\n",
      "   midi.NoteOnEvent(tick=1, channel=0, data=[45, 127]),\n",
      "   midi.NoteOnEvent(tick=59, channel=0, data=[45, 0]),\n",
      "   midi.NoteOnEvent(tick=1, channel=0, data=[52, 127]),\n",
      "   midi.NoteOnEvent(tick=59, channel=0, data=[52, 0]),\n",
      "   midi.NoteOnEvent(tick=1, channel=0, data=[57, 127]),\n",
      "   midi.NoteOnEvent(tick=59, channel=0, data=[57, 0]),\n",
      "   midi.NoteOnEvent(tick=1, channel=0, data=[52, 127]),\n",
      "   midi.NoteOnEvent(tick=59, channel=0, data=[52, 0]),\n",
      "   midi.NoteOnEvent(tick=1, channel=0, data=[45, 127]),\n",
      "   midi.NoteOnEvent(tick=59, channel=0, data=[45, 0]),\n",
      "   midi.NoteOnEvent(tick=1, channel=0, data=[45, 127]),\n",
      "   midi.NoteOnEvent(tick=59, channel=0, data=[45, 0]),\n",
      "   midi.NoteOnEvent(tick=1, channel=0, data=[45, 127]),\n",
      "   midi.NoteOnEvent(tick=59, channel=0, data=[45, 0]),\n",
      "   midi.NoteOnEvent(tick=1, channel=0, data=[45, 127]),\n",
      "   midi.NoteOnEvent(tick=59, channel=0, data=[45, 0]),\n",
      "   midi.NoteOnEvent(tick=1, channel=0, data=[45, 127]),\n",
      "   midi.NoteOnEvent(tick=59, channel=0, data=[45, 0]),\n",
      "   midi.NoteOnEvent(tick=1, channel=0, data=[52, 127]),\n",
      "   midi.NoteOnEvent(tick=59, channel=0, data=[52, 0]),\n",
      "   midi.NoteOnEvent(tick=1, channel=0, data=[57, 127]),\n",
      "   midi.NoteOnEvent(tick=59, channel=0, data=[57, 0]),\n",
      "   midi.NoteOnEvent(tick=1, channel=0, data=[52, 127]),\n",
      "   midi.NoteOnEvent(tick=59, channel=0, data=[52, 0]),\n",
      "   midi.NoteOnEvent(tick=1, channel=0, data=[43, 127]),\n",
      "   midi.NoteOnEvent(tick=59, channel=0, data=[43, 0]),\n",
      "   midi.NoteOnEvent(tick=1, channel=0, data=[43, 127]),\n",
      "   midi.NoteOnEvent(tick=59, channel=0, data=[43, 0]),\n",
      "   midi.NoteOnEvent(tick=1, channel=0, data=[43, 127]),\n",
      "   midi.NoteOnEvent(tick=59, channel=0, data=[43, 0]),\n",
      "   midi.NoteOnEvent(tick=1, channel=0, data=[43, 127]),\n",
      "   midi.NoteOnEvent(tick=59, channel=0, data=[43, 0]),\n",
      "   midi.NoteOnEvent(tick=1, channel=0, data=[43, 127]),\n",
      "   midi.NoteOnEvent(tick=59, channel=0, data=[43, 0]),\n",
      "   midi.NoteOnEvent(tick=1, channel=0, data=[50, 127]),\n",
      "   midi.NoteOnEvent(tick=59, channel=0, data=[50, 0]),\n",
      "   midi.NoteOnEvent(tick=1, channel=0, data=[55, 127]),\n",
      "   midi.NoteOnEvent(tick=59, channel=0, data=[55, 0]),\n",
      "   midi.NoteOnEvent(tick=1, channel=0, data=[50, 127]),\n",
      "   midi.NoteOnEvent(tick=59, channel=0, data=[50, 0]),\n",
      "   midi.NoteOnEvent(tick=1, channel=0, data=[43, 127]),\n",
      "   midi.NoteOnEvent(tick=59, channel=0, data=[43, 0]),\n",
      "   midi.NoteOnEvent(tick=1, channel=0, data=[43, 127]),\n",
      "   midi.NoteOnEvent(tick=59, channel=0, data=[43, 0]),\n",
      "   midi.NoteOnEvent(tick=1, channel=0, data=[43, 127]),\n",
      "   midi.NoteOnEvent(tick=59, channel=0, data=[43, 0]),\n",
      "   midi.NoteOnEvent(tick=1, channel=0, data=[43, 127]),\n",
      "   midi.NoteOnEvent(tick=59, channel=0, data=[43, 0]),\n",
      "   midi.NoteOnEvent(tick=1, channel=0, data=[43, 127]),\n",
      "   midi.NoteOnEvent(tick=59, channel=0, data=[43, 0]),\n",
      "   midi.NoteOnEvent(tick=1, channel=0, data=[50, 127]),\n",
      "   midi.NoteOnEvent(tick=59, channel=0, data=[50, 0]),\n",
      "   midi.NoteOnEvent(tick=1, channel=0, data=[55, 127]),\n",
      "   midi.NoteOnEvent(tick=59, channel=0, data=[55, 0]),\n",
      "   midi.NoteOnEvent(tick=1, channel=0, data=[50, 127]),\n",
      "   midi.NoteOnEvent(tick=59, channel=0, data=[50, 0]),\n",
      "   midi.NoteOnEvent(tick=1, channel=0, data=[45, 127]),\n",
      "   midi.NoteOnEvent(tick=59, channel=0, data=[45, 0]),\n",
      "   midi.NoteOnEvent(tick=1, channel=0, data=[45, 127]),\n",
      "   midi.NoteOnEvent(tick=59, channel=0, data=[45, 0]),\n",
      "   midi.NoteOnEvent(tick=1, channel=0, data=[45, 127]),\n",
      "   midi.NoteOnEvent(tick=59, channel=0, data=[45, 0]),\n",
      "   midi.NoteOnEvent(tick=1, channel=0, data=[45, 127]),\n",
      "   midi.NoteOnEvent(tick=59, channel=0, data=[45, 0]),\n",
      "   midi.NoteOnEvent(tick=1, channel=0, data=[45, 127]),\n",
      "   midi.NoteOnEvent(tick=59, channel=0, data=[45, 0]),\n",
      "   midi.NoteOnEvent(tick=1, channel=0, data=[52, 127]),\n",
      "   midi.NoteOnEvent(tick=59, channel=0, data=[52, 0]),\n",
      "   midi.NoteOnEvent(tick=1, channel=0, data=[57, 127]),\n",
      "   midi.NoteOnEvent(tick=59, channel=0, data=[57, 0]),\n",
      "   midi.NoteOnEvent(tick=1, channel=0, data=[52, 127]),\n",
      "   midi.NoteOnEvent(tick=59, channel=0, data=[52, 0]),\n",
      "   midi.NoteOnEvent(tick=1, channel=0, data=[45, 127]),\n",
      "   midi.NoteOnEvent(tick=59, channel=0, data=[45, 0]),\n",
      "   midi.NoteOnEvent(tick=1, channel=0, data=[45, 127]),\n",
      "   midi.NoteOnEvent(tick=59, channel=0, data=[45, 0]),\n",
      "   midi.NoteOnEvent(tick=1, channel=0, data=[45, 127]),\n",
      "   midi.NoteOnEvent(tick=59, channel=0, data=[45, 0]),\n",
      "   midi.NoteOnEvent(tick=1, channel=0, data=[45, 127]),\n",
      "   midi.NoteOnEvent(tick=59, channel=0, data=[45, 0]),\n",
      "   midi.NoteOnEvent(tick=1, channel=0, data=[45, 127]),\n",
      "   midi.NoteOnEvent(tick=59, channel=0, data=[45, 0]),\n",
      "   midi.NoteOnEvent(tick=1, channel=0, data=[52, 127]),\n",
      "   midi.NoteOnEvent(tick=59, channel=0, data=[52, 0]),\n",
      "   midi.NoteOnEvent(tick=1, channel=0, data=[57, 127]),\n",
      "   midi.NoteOnEvent(tick=59, channel=0, data=[57, 0]),\n",
      "   midi.NoteOnEvent(tick=1, channel=0, data=[52, 127]),\n",
      "   midi.NoteOnEvent(tick=59, channel=0, data=[52, 0]),\n",
      "   midi.NoteOnEvent(tick=1, channel=0, data=[43, 127]),\n",
      "   midi.NoteOnEvent(tick=59, channel=0, data=[43, 0]),\n",
      "   midi.NoteOnEvent(tick=1, channel=0, data=[43, 127]),\n",
      "   midi.NoteOnEvent(tick=59, channel=0, data=[43, 0]),\n",
      "   midi.NoteOnEvent(tick=1, channel=0, data=[43, 127]),\n",
      "   midi.NoteOnEvent(tick=59, channel=0, data=[43, 0]),\n",
      "   midi.NoteOnEvent(tick=1, channel=0, data=[43, 127]),\n",
      "   midi.NoteOnEvent(tick=59, channel=0, data=[43, 0]),\n",
      "   midi.NoteOnEvent(tick=1, channel=0, data=[43, 127]),\n",
      "   midi.NoteOnEvent(tick=59, channel=0, data=[43, 0]),\n",
      "   midi.NoteOnEvent(tick=1, channel=0, data=[50, 127]),\n",
      "   midi.NoteOnEvent(tick=59, channel=0, data=[50, 0]),\n",
      "   midi.NoteOnEvent(tick=1, channel=0, data=[55, 127]),\n",
      "   midi.NoteOnEvent(tick=59, channel=0, data=[55, 0]),\n",
      "   midi.NoteOnEvent(tick=1, channel=0, data=[50, 127]),\n",
      "   midi.NoteOnEvent(tick=59, channel=0, data=[50, 0]),\n",
      "   midi.NoteOnEvent(tick=1, channel=0, data=[43, 127]),\n",
      "   midi.NoteOnEvent(tick=59, channel=0, data=[43, 0]),\n",
      "   midi.NoteOnEvent(tick=1, channel=0, data=[43, 127]),\n",
      "   midi.NoteOnEvent(tick=59, channel=0, data=[43, 0]),\n",
      "   midi.NoteOnEvent(tick=1, channel=0, data=[43, 127]),\n",
      "   midi.NoteOnEvent(tick=59, channel=0, data=[43, 0]),\n",
      "   midi.NoteOnEvent(tick=1, channel=0, data=[43, 127]),\n",
      "   midi.NoteOnEvent(tick=59, channel=0, data=[43, 0]),\n",
      "   midi.NoteOnEvent(tick=1, channel=0, data=[43, 127]),\n",
      "   midi.NoteOnEvent(tick=59, channel=0, data=[43, 0]),\n",
      "   midi.NoteOnEvent(tick=1, channel=0, data=[50, 127]),\n",
      "   midi.NoteOnEvent(tick=59, channel=0, data=[50, 0]),\n",
      "   midi.NoteOnEvent(tick=1, channel=0, data=[55, 127]),\n",
      "   midi.NoteOnEvent(tick=59, channel=0, data=[55, 0]),\n",
      "   midi.NoteOnEvent(tick=1, channel=0, data=[50, 127]),\n",
      "   midi.NoteOnEvent(tick=59, channel=0, data=[50, 0]),\n",
      "   midi.NoteOnEvent(tick=1, channel=0, data=[41, 127]),\n",
      "   midi.NoteOnEvent(tick=59, channel=0, data=[41, 0]),\n",
      "   midi.NoteOnEvent(tick=1, channel=0, data=[41, 127]),\n",
      "   midi.NoteOnEvent(tick=59, channel=0, data=[41, 0]),\n",
      "   midi.NoteOnEvent(tick=1, channel=0, data=[41, 127]),\n",
      "   midi.NoteOnEvent(tick=59, channel=0, data=[41, 0]),\n",
      "   midi.NoteOnEvent(tick=1, channel=0, data=[41, 127]),\n",
      "   midi.NoteOnEvent(tick=59, channel=0, data=[41, 0]),\n",
      "   midi.NoteOnEvent(tick=1, channel=0, data=[41, 127]),\n",
      "   midi.NoteOnEvent(tick=59, channel=0, data=[41, 0]),\n",
      "   midi.NoteOnEvent(tick=1, channel=0, data=[48, 127]),\n",
      "   midi.NoteOnEvent(tick=59, channel=0, data=[48, 0]),\n",
      "   midi.NoteOnEvent(tick=1, channel=0, data=[53, 127]),\n",
      "   midi.NoteOnEvent(tick=59, channel=0, data=[53, 0]),\n",
      "   midi.NoteOnEvent(tick=1, channel=0, data=[48, 127]),\n",
      "   midi.NoteOnEvent(tick=59, channel=0, data=[48, 0]),\n",
      "   midi.NoteOnEvent(tick=1, channel=0, data=[41, 127]),\n",
      "   midi.NoteOnEvent(tick=59, channel=0, data=[41, 0]),\n",
      "   midi.NoteOnEvent(tick=1, channel=0, data=[41, 127]),\n",
      "   midi.NoteOnEvent(tick=59, channel=0, data=[41, 0]),\n",
      "   midi.NoteOnEvent(tick=1, channel=0, data=[41, 127]),\n",
      "   midi.NoteOnEvent(tick=59, channel=0, data=[41, 0]),\n",
      "   midi.NoteOnEvent(tick=1, channel=0, data=[41, 127]),\n",
      "   midi.NoteOnEvent(tick=59, channel=0, data=[41, 0]),\n",
      "   midi.NoteOnEvent(tick=1, channel=0, data=[41, 127]),\n",
      "   midi.NoteOnEvent(tick=59, channel=0, data=[41, 0]),\n",
      "   midi.NoteOnEvent(tick=1, channel=0, data=[48, 127]),\n",
      "   midi.NoteOnEvent(tick=59, channel=0, data=[48, 0]),\n",
      "   midi.NoteOnEvent(tick=1, channel=0, data=[53, 127]),\n",
      "   midi.NoteOnEvent(tick=57, channel=0, data=[53, 0]),\n",
      "   midi.NoteOnEvent(tick=3, channel=0, data=[48, 127]),\n",
      "   midi.NoteOnEvent(tick=59, channel=0, data=[48, 0]),\n",
      "   midi.NoteOnEvent(tick=1, channel=0, data=[52, 127]),\n",
      "   midi.NoteOnEvent(tick=0, channel=0, data=[43, 127]),\n",
      "   midi.NoteOnEvent(tick=59, channel=0, data=[43, 0]),\n",
      "   midi.NoteOnEvent(tick=0, channel=0, data=[52, 0]),\n",
      "   midi.NoteOnEvent(tick=1, channel=0, data=[43, 127]),\n",
      "   midi.NoteOnEvent(tick=59, channel=0, data=[43, 0]),\n",
      "   midi.NoteOnEvent(tick=1, channel=0, data=[43, 127]),\n",
      "   midi.NoteOnEvent(tick=59, channel=0, data=[43, 0]),\n",
      "   midi.NoteOnEvent(tick=1, channel=0, data=[43, 127]),\n",
      "   midi.NoteOnEvent(tick=59, channel=0, data=[43, 0]),\n",
      "   midi.NoteOnEvent(tick=1, channel=0, data=[43, 127]),\n",
      "   midi.NoteOnEvent(tick=59, channel=0, data=[43, 0]),\n",
      "   midi.NoteOnEvent(tick=1, channel=0, data=[50, 127]),\n",
      "   midi.NoteOnEvent(tick=59, channel=0, data=[50, 0]),\n",
      "   midi.NoteOnEvent(tick=1, channel=0, data=[55, 127]),\n",
      "   midi.NoteOnEvent(tick=59, channel=0, data=[55, 0]),\n",
      "   midi.NoteOnEvent(tick=1, channel=0, data=[50, 127]),\n",
      "   midi.NoteOnEvent(tick=59, channel=0, data=[50, 0]),\n",
      "   midi.NoteOnEvent(tick=1, channel=0, data=[43, 127]),\n",
      "   midi.NoteOnEvent(tick=59, channel=0, data=[43, 0]),\n",
      "   midi.NoteOnEvent(tick=1, channel=0, data=[43, 127]),\n",
      "   midi.NoteOnEvent(tick=59, channel=0, data=[43, 0]),\n",
      "   midi.NoteOnEvent(tick=1, channel=0, data=[43, 127]),\n",
      "   midi.NoteOnEvent(tick=59, channel=0, data=[43, 0]),\n",
      "   midi.NoteOnEvent(tick=1, channel=0, data=[43, 127]),\n",
      "   midi.NoteOnEvent(tick=59, channel=0, data=[43, 0]),\n",
      "   midi.NoteOnEvent(tick=1, channel=0, data=[43, 127]),\n",
      "   midi.NoteOnEvent(tick=59, channel=0, data=[43, 0]),\n",
      "   midi.NoteOnEvent(tick=1, channel=0, data=[50, 127]),\n",
      "   midi.NoteOnEvent(tick=59, channel=0, data=[50, 0]),\n",
      "   midi.NoteOnEvent(tick=1, channel=0, data=[55, 127]),\n",
      "   midi.NoteOnEvent(tick=59, channel=0, data=[55, 0]),\n",
      "   midi.NoteOnEvent(tick=1, channel=0, data=[50, 127]),\n",
      "   midi.NoteOnEvent(tick=59, channel=0, data=[50, 0]),\n",
      "   midi.NoteOnEvent(tick=1, channel=0, data=[41, 127]),\n",
      "   midi.NoteOnEvent(tick=59, channel=0, data=[41, 0]),\n",
      "   midi.NoteOnEvent(tick=1, channel=0, data=[41, 127]),\n",
      "   midi.NoteOnEvent(tick=59, channel=0, data=[41, 0]),\n",
      "   midi.NoteOnEvent(tick=1, channel=0, data=[41, 127]),\n",
      "   midi.NoteOnEvent(tick=59, channel=0, data=[41, 0]),\n",
      "   midi.NoteOnEvent(tick=1, channel=0, data=[41, 127]),\n",
      "   midi.NoteOnEvent(tick=59, channel=0, data=[41, 0]),\n",
      "   midi.NoteOnEvent(tick=1, channel=0, data=[41, 127]),\n",
      "   midi.NoteOnEvent(tick=59, channel=0, data=[41, 0]),\n",
      "   midi.NoteOnEvent(tick=1, channel=0, data=[48, 127]),\n",
      "   midi.NoteOnEvent(tick=59, channel=0, data=[48, 0]),\n",
      "   midi.NoteOnEvent(tick=1, channel=0, data=[53, 127]),\n",
      "   midi.NoteOnEvent(tick=59, channel=0, data=[53, 0]),\n",
      "   midi.NoteOnEvent(tick=1, channel=0, data=[48, 127]),\n",
      "   midi.NoteOnEvent(tick=59, channel=0, data=[48, 0]),\n",
      "   midi.NoteOnEvent(tick=1, channel=0, data=[41, 127]),\n",
      "   midi.NoteOnEvent(tick=59, channel=0, data=[41, 0]),\n",
      "   midi.NoteOnEvent(tick=1, channel=0, data=[41, 127]),\n",
      "   midi.NoteOnEvent(tick=59, channel=0, data=[41, 0]),\n",
      "   midi.NoteOnEvent(tick=1, channel=0, data=[41, 127]),\n",
      "   midi.NoteOnEvent(tick=59, channel=0, data=[41, 0]),\n",
      "   midi.NoteOnEvent(tick=1, channel=0, data=[41, 127]),\n",
      "   midi.NoteOnEvent(tick=59, channel=0, data=[41, 0]),\n",
      "   midi.NoteOnEvent(tick=1, channel=0, data=[41, 127]),\n",
      "   midi.NoteOnEvent(tick=59, channel=0, data=[41, 0]),\n",
      "   midi.NoteOnEvent(tick=1, channel=0, data=[48, 127]),\n",
      "   midi.NoteOnEvent(tick=59, channel=0, data=[48, 0]),\n",
      "   midi.NoteOnEvent(tick=1, channel=0, data=[53, 127]),\n",
      "   midi.NoteOnEvent(tick=57, channel=0, data=[53, 0]),\n",
      "   midi.NoteOnEvent(tick=3, channel=0, data=[48, 127]),\n",
      "   midi.NoteOnEvent(tick=59, channel=0, data=[48, 0]),\n",
      "   midi.NoteOnEvent(tick=1, channel=0, data=[43, 127]),\n",
      "   midi.NoteOnEvent(tick=59, channel=0, data=[43, 0]),\n",
      "   midi.NoteOnEvent(tick=1, channel=0, data=[43, 127]),\n",
      "   midi.NoteOnEvent(tick=59, channel=0, data=[43, 0]),\n",
      "   midi.NoteOnEvent(tick=1, channel=0, data=[43, 127]),\n",
      "   midi.NoteOnEvent(tick=59, channel=0, data=[43, 0]),\n",
      "   midi.NoteOnEvent(tick=1, channel=0, data=[43, 127]),\n",
      "   midi.NoteOnEvent(tick=59, channel=0, data=[43, 0]),\n",
      "   midi.NoteOnEvent(tick=1, channel=0, data=[43, 127]),\n",
      "   midi.NoteOnEvent(tick=59, channel=0, data=[43, 0]),\n",
      "   midi.NoteOnEvent(tick=1, channel=0, data=[50, 127]),\n",
      "   midi.NoteOnEvent(tick=59, channel=0, data=[50, 0]),\n",
      "   midi.NoteOnEvent(tick=1, channel=0, data=[55, 127]),\n",
      "   midi.NoteOnEvent(tick=59, channel=0, data=[55, 0]),\n",
      "   midi.NoteOnEvent(tick=1, channel=0, data=[50, 127]),\n",
      "   midi.NoteOnEvent(tick=59, channel=0, data=[50, 0]),\n",
      "   midi.NoteOnEvent(tick=1, channel=0, data=[43, 127]),\n",
      "   midi.NoteOnEvent(tick=59, channel=0, data=[43, 0]),\n",
      "   midi.NoteOnEvent(tick=421, channel=0, data=[45, 127]),\n",
      "   midi.NoteOnEvent(tick=59, channel=0, data=[45, 0]),\n",
      "   midi.NoteOnEvent(tick=1, channel=0, data=[45, 127]),\n",
      "   midi.NoteOnEvent(tick=59, channel=0, data=[45, 0]),\n",
      "   midi.NoteOnEvent(tick=1, channel=0, data=[45, 127]),\n",
      "   midi.NoteOnEvent(tick=59, channel=0, data=[45, 0]),\n",
      "   midi.NoteOnEvent(tick=1, channel=0, data=[45, 127]),\n",
      "   midi.NoteOnEvent(tick=59, channel=0, data=[45, 0]),\n",
      "   midi.NoteOnEvent(tick=1, channel=0, data=[45, 127]),\n",
      "   midi.NoteOnEvent(tick=59, channel=0, data=[45, 0]),\n",
      "   midi.NoteOnEvent(tick=1, channel=0, data=[52, 127]),\n",
      "   midi.NoteOnEvent(tick=59, channel=0, data=[52, 0]),\n",
      "   midi.NoteOnEvent(tick=1, channel=0, data=[57, 127]),\n",
      "   midi.NoteOnEvent(tick=59, channel=0, data=[57, 0]),\n",
      "   midi.NoteOnEvent(tick=1, channel=0, data=[52, 127]),\n",
      "   midi.NoteOnEvent(tick=59, channel=0, data=[52, 0]),\n",
      "   midi.NoteOnEvent(tick=1, channel=0, data=[45, 127]),\n",
      "   midi.NoteOnEvent(tick=59, channel=0, data=[45, 0]),\n",
      "   midi.NoteOnEvent(tick=1, channel=0, data=[45, 127]),\n",
      "   midi.NoteOnEvent(tick=59, channel=0, data=[45, 0]),\n",
      "   midi.NoteOnEvent(tick=1, channel=0, data=[45, 127]),\n",
      "   midi.NoteOnEvent(tick=59, channel=0, data=[45, 0]),\n",
      "   midi.NoteOnEvent(tick=1, channel=0, data=[45, 127]),\n",
      "   midi.NoteOnEvent(tick=59, channel=0, data=[45, 0]),\n",
      "   midi.NoteOnEvent(tick=1, channel=0, data=[45, 127]),\n",
      "   midi.NoteOnEvent(tick=59, channel=0, data=[45, 0]),\n",
      "   midi.NoteOnEvent(tick=1, channel=0, data=[52, 127]),\n",
      "   midi.NoteOnEvent(tick=59, channel=0, data=[52, 0]),\n",
      "   midi.NoteOnEvent(tick=1, channel=0, data=[57, 127]),\n",
      "   midi.NoteOnEvent(tick=59, channel=0, data=[57, 0]),\n",
      "   midi.NoteOnEvent(tick=1, channel=0, data=[52, 127]),\n",
      "   midi.NoteOnEvent(tick=59, channel=0, data=[52, 0]),\n",
      "   midi.NoteOnEvent(tick=1, channel=0, data=[45, 127]),\n",
      "   midi.NoteOnEvent(tick=59, channel=0, data=[45, 0]),\n",
      "   midi.NoteOnEvent(tick=1, channel=0, data=[45, 127]),\n",
      "   midi.NoteOnEvent(tick=59, channel=0, data=[45, 0]),\n",
      "   midi.NoteOnEvent(tick=1, channel=0, data=[45, 127]),\n",
      "   midi.NoteOnEvent(tick=59, channel=0, data=[45, 0]),\n",
      "   midi.NoteOnEvent(tick=1, channel=0, data=[45, 127]),\n",
      "   midi.NoteOnEvent(tick=59, channel=0, data=[45, 0]),\n",
      "   midi.NoteOnEvent(tick=1, channel=0, data=[45, 127]),\n",
      "   midi.NoteOnEvent(tick=59, channel=0, data=[45, 0]),\n",
      "   midi.NoteOnEvent(tick=1, channel=0, data=[52, 127]),\n",
      "   midi.NoteOnEvent(tick=59, channel=0, data=[52, 0]),\n",
      "   midi.NoteOnEvent(tick=1, channel=0, data=[57, 127]),\n",
      "   midi.NoteOnEvent(tick=59, channel=0, data=[57, 0]),\n",
      "   midi.NoteOnEvent(tick=1, channel=0, data=[52, 127]),\n",
      "   midi.NoteOnEvent(tick=59, channel=0, data=[52, 0]),\n",
      "   midi.NoteOnEvent(tick=1, channel=0, data=[45, 127]),\n",
      "   midi.NoteOnEvent(tick=59, channel=0, data=[45, 0]),\n",
      "   midi.NoteOnEvent(tick=1, channel=0, data=[45, 127]),\n",
      "   midi.NoteOnEvent(tick=59, channel=0, data=[45, 0]),\n",
      "   midi.NoteOnEvent(tick=1, channel=0, data=[45, 127]),\n",
      "   midi.NoteOnEvent(tick=59, channel=0, data=[45, 0]),\n",
      "   midi.NoteOnEvent(tick=1, channel=0, data=[45, 127]),\n",
      "   midi.NoteOnEvent(tick=59, channel=0, data=[45, 0]),\n",
      "   midi.NoteOnEvent(tick=1, channel=0, data=[45, 127]),\n",
      "   midi.NoteOnEvent(tick=59, channel=0, data=[45, 0]),\n",
      "   midi.NoteOnEvent(tick=1, channel=0, data=[52, 127]),\n",
      "   midi.NoteOnEvent(tick=59, channel=0, data=[52, 0]),\n",
      "   midi.NoteOnEvent(tick=1, channel=0, data=[57, 127]),\n",
      "   midi.NoteOnEvent(tick=59, channel=0, data=[57, 0]),\n",
      "   midi.NoteOnEvent(tick=1, channel=0, data=[52, 127]),\n",
      "   midi.NoteOnEvent(tick=59, channel=0, data=[52, 0]),\n",
      "   midi.NoteOnEvent(tick=1, channel=0, data=[43, 127]),\n",
      "   midi.NoteOnEvent(tick=59, channel=0, data=[43, 0]),\n",
      "   midi.NoteOnEvent(tick=1, channel=0, data=[43, 127]),\n",
      "   midi.NoteOnEvent(tick=59, channel=0, data=[43, 0]),\n",
      "   midi.NoteOnEvent(tick=1, channel=0, data=[43, 127]),\n",
      "   midi.NoteOnEvent(tick=59, channel=0, data=[43, 0]),\n",
      "   midi.NoteOnEvent(tick=1, channel=0, data=[43, 127]),\n",
      "   midi.NoteOnEvent(tick=59, channel=0, data=[43, 0]),\n",
      "   midi.NoteOnEvent(tick=1, channel=0, data=[43, 127]),\n",
      "   midi.NoteOnEvent(tick=59, channel=0, data=[43, 0]),\n",
      "   midi.NoteOnEvent(tick=1, channel=0, data=[50, 127]),\n",
      "   midi.NoteOnEvent(tick=59, channel=0, data=[50, 0]),\n",
      "   midi.NoteOnEvent(tick=1, channel=0, data=[55, 127]),\n",
      "   midi.NoteOnEvent(tick=59, channel=0, data=[55, 0]),\n",
      "   midi.NoteOnEvent(tick=1, channel=0, data=[50, 127]),\n",
      "   midi.NoteOnEvent(tick=59, channel=0, data=[50, 0]),\n",
      "   midi.NoteOnEvent(tick=1, channel=0, data=[43, 127]),\n",
      "   midi.NoteOnEvent(tick=59, channel=0, data=[43, 0]),\n",
      "   midi.NoteOnEvent(tick=1, channel=0, data=[43, 127]),\n",
      "   midi.NoteOnEvent(tick=59, channel=0, data=[43, 0]),\n",
      "   midi.NoteOnEvent(tick=1, channel=0, data=[43, 127]),\n",
      "   midi.NoteOnEvent(tick=59, channel=0, data=[43, 0]),\n",
      "   midi.NoteOnEvent(tick=1, channel=0, data=[43, 127]),\n",
      "   midi.NoteOnEvent(tick=59, channel=0, data=[43, 0]),\n",
      "   midi.NoteOnEvent(tick=1, channel=0, data=[43, 127]),\n",
      "   midi.NoteOnEvent(tick=59, channel=0, data=[43, 0]),\n",
      "   midi.NoteOnEvent(tick=1, channel=0, data=[50, 127]),\n",
      "   midi.NoteOnEvent(tick=59, channel=0, data=[50, 0]),\n",
      "   midi.NoteOnEvent(tick=1, channel=0, data=[55, 127]),\n",
      "   midi.NoteOnEvent(tick=59, channel=0, data=[55, 0]),\n",
      "   midi.NoteOnEvent(tick=1, channel=0, data=[50, 127]),\n",
      "   midi.NoteOnEvent(tick=59, channel=0, data=[50, 0]),\n",
      "   midi.NoteOnEvent(tick=1, channel=0, data=[43, 127]),\n",
      "   midi.NoteOnEvent(tick=59, channel=0, data=[43, 0]),\n",
      "   midi.NoteOnEvent(tick=1, channel=0, data=[43, 127]),\n",
      "   midi.NoteOnEvent(tick=59, channel=0, data=[43, 0]),\n",
      "   midi.NoteOnEvent(tick=1, channel=0, data=[43, 127]),\n",
      "   midi.NoteOnEvent(tick=59, channel=0, data=[43, 0]),\n",
      "   midi.NoteOnEvent(tick=1, channel=0, data=[43, 127]),\n",
      "   midi.NoteOnEvent(tick=59, channel=0, data=[43, 0]),\n",
      "   midi.NoteOnEvent(tick=1, channel=0, data=[43, 127]),\n",
      "   midi.NoteOnEvent(tick=59, channel=0, data=[43, 0]),\n",
      "   midi.NoteOnEvent(tick=1, channel=0, data=[50, 127]),\n",
      "   midi.NoteOnEvent(tick=59, channel=0, data=[50, 0]),\n",
      "   midi.NoteOnEvent(tick=1, channel=0, data=[55, 127]),\n",
      "   midi.NoteOnEvent(tick=59, channel=0, data=[55, 0]),\n",
      "   midi.NoteOnEvent(tick=1, channel=0, data=[50, 127]),\n",
      "   midi.NoteOnEvent(tick=59, channel=0, data=[50, 0]),\n",
      "   midi.NoteOnEvent(tick=1, channel=0, data=[43, 127]),\n",
      "   midi.NoteOnEvent(tick=59, channel=0, data=[43, 0]),\n",
      "   midi.NoteOnEvent(tick=1, channel=0, data=[43, 127]),\n",
      "   midi.NoteOnEvent(tick=59, channel=0, data=[43, 0]),\n",
      "   midi.NoteOnEvent(tick=1, channel=0, data=[43, 127]),\n",
      "   midi.NoteOnEvent(tick=59, channel=0, data=[43, 0]),\n",
      "   midi.NoteOnEvent(tick=1, channel=0, data=[43, 127]),\n",
      "   midi.NoteOnEvent(tick=59, channel=0, data=[43, 0]),\n",
      "   midi.NoteOnEvent(tick=1, channel=0, data=[43, 127]),\n",
      "   midi.NoteOnEvent(tick=59, channel=0, data=[43, 0]),\n",
      "   midi.NoteOnEvent(tick=1, channel=0, data=[50, 127]),\n",
      "   midi.NoteOnEvent(tick=59, channel=0, data=[50, 0]),\n",
      "   midi.NoteOnEvent(tick=1, channel=0, data=[55, 127]),\n",
      "   midi.NoteOnEvent(tick=59, channel=0, data=[55, 0]),\n",
      "   midi.NoteOnEvent(tick=1, channel=0, data=[50, 127]),\n",
      "   midi.NoteOnEvent(tick=59, channel=0, data=[50, 0]),\n",
      "   midi.NoteOnEvent(tick=1, channel=0, data=[45, 127]),\n",
      "   midi.NoteOnEvent(tick=59, channel=0, data=[45, 0]),\n",
      "   midi.NoteOnEvent(tick=1, channel=0, data=[45, 127]),\n",
      "   midi.NoteOnEvent(tick=59, channel=0, data=[45, 0]),\n",
      "   midi.NoteOnEvent(tick=1, channel=0, data=[45, 127]),\n",
      "   midi.NoteOnEvent(tick=59, channel=0, data=[45, 0]),\n",
      "   midi.NoteOnEvent(tick=1, channel=0, data=[45, 127]),\n",
      "   midi.NoteOnEvent(tick=59, channel=0, data=[45, 0]),\n",
      "   midi.NoteOnEvent(tick=1, channel=0, data=[45, 127]),\n",
      "   midi.NoteOnEvent(tick=59, channel=0, data=[45, 0]),\n",
      "   midi.NoteOnEvent(tick=1, channel=0, data=[52, 127]),\n",
      "   midi.NoteOnEvent(tick=59, channel=0, data=[52, 0]),\n",
      "   midi.NoteOnEvent(tick=1, channel=0, data=[57, 127]),\n",
      "   midi.NoteOnEvent(tick=59, channel=0, data=[57, 0]),\n",
      "   midi.NoteOnEvent(tick=1, channel=0, data=[52, 127]),\n",
      "   midi.NoteOnEvent(tick=59, channel=0, data=[52, 0]),\n",
      "   midi.NoteOnEvent(tick=1, channel=0, data=[45, 127]),\n",
      "   midi.NoteOnEvent(tick=59, channel=0, data=[45, 0]),\n",
      "   midi.NoteOnEvent(tick=1, channel=0, data=[45, 127]),\n",
      "   midi.NoteOnEvent(tick=59, channel=0, data=[45, 0]),\n",
      "   midi.NoteOnEvent(tick=1, channel=0, data=[45, 127]),\n",
      "   midi.NoteOnEvent(tick=59, channel=0, data=[45, 0]),\n",
      "   midi.NoteOnEvent(tick=1, channel=0, data=[45, 127]),\n",
      "   midi.NoteOnEvent(tick=59, channel=0, data=[45, 0]),\n",
      "   midi.NoteOnEvent(tick=1, channel=0, data=[45, 127]),\n",
      "   midi.NoteOnEvent(tick=59, channel=0, data=[45, 0]),\n",
      "   midi.NoteOnEvent(tick=1, channel=0, data=[52, 127]),\n",
      "   midi.NoteOnEvent(tick=59, channel=0, data=[52, 0]),\n",
      "   midi.NoteOnEvent(tick=1, channel=0, data=[57, 127]),\n",
      "   midi.NoteOnEvent(tick=59, channel=0, data=[57, 0]),\n",
      "   midi.NoteOnEvent(tick=1, channel=0, data=[52, 127]),\n",
      "   midi.NoteOnEvent(tick=59, channel=0, data=[52, 0]),\n",
      "   midi.NoteOnEvent(tick=1, channel=0, data=[45, 127]),\n",
      "   midi.NoteOnEvent(tick=59, channel=0, data=[45, 0]),\n",
      "   midi.NoteOnEvent(tick=1, channel=0, data=[45, 127]),\n",
      "   midi.NoteOnEvent(tick=59, channel=0, data=[45, 0]),\n",
      "   midi.NoteOnEvent(tick=1, channel=0, data=[45, 127]),\n",
      "   midi.NoteOnEvent(tick=59, channel=0, data=[45, 0]),\n",
      "   midi.NoteOnEvent(tick=1, channel=0, data=[45, 127]),\n",
      "   midi.NoteOnEvent(tick=59, channel=0, data=[45, 0]),\n",
      "   midi.NoteOnEvent(tick=1, channel=0, data=[45, 127]),\n",
      "   midi.NoteOnEvent(tick=59, channel=0, data=[45, 0]),\n",
      "   midi.NoteOnEvent(tick=1, channel=0, data=[52, 127]),\n",
      "   midi.NoteOnEvent(tick=59, channel=0, data=[52, 0]),\n",
      "   midi.NoteOnEvent(tick=1, channel=0, data=[57, 127]),\n",
      "   midi.NoteOnEvent(tick=59, channel=0, data=[57, 0]),\n",
      "   midi.NoteOnEvent(tick=1, channel=0, data=[52, 127]),\n",
      "   midi.NoteOnEvent(tick=59, channel=0, data=[52, 0]),\n",
      "   midi.NoteOnEvent(tick=1, channel=0, data=[45, 127]),\n",
      "   midi.NoteOnEvent(tick=59, channel=0, data=[45, 0]),\n",
      "   midi.NoteOnEvent(tick=1, channel=0, data=[45, 127]),\n",
      "   midi.NoteOnEvent(tick=59, channel=0, data=[45, 0]),\n",
      "   midi.NoteOnEvent(tick=1, channel=0, data=[45, 127]),\n",
      "   midi.NoteOnEvent(tick=59, channel=0, data=[45, 0]),\n",
      "   midi.NoteOnEvent(tick=1, channel=0, data=[45, 127]),\n",
      "   midi.NoteOnEvent(tick=59, channel=0, data=[45, 0]),\n",
      "   midi.NoteOnEvent(tick=1, channel=0, data=[45, 127]),\n",
      "   midi.NoteOnEvent(tick=59, channel=0, data=[45, 0]),\n",
      "   midi.NoteOnEvent(tick=1, channel=0, data=[52, 127]),\n",
      "   midi.NoteOnEvent(tick=59, channel=0, data=[52, 0]),\n",
      "   midi.NoteOnEvent(tick=1, channel=0, data=[57, 127]),\n",
      "   midi.NoteOnEvent(tick=59, channel=0, data=[57, 0]),\n",
      "   midi.NoteOnEvent(tick=1, channel=0, data=[52, 127]),\n",
      "   midi.NoteOnEvent(tick=59, channel=0, data=[52, 0]),\n",
      "   midi.NoteOnEvent(tick=1, channel=0, data=[43, 127]),\n",
      "   midi.NoteOnEvent(tick=59, channel=0, data=[43, 0]),\n",
      "   midi.NoteOnEvent(tick=1, channel=0, data=[43, 127]),\n",
      "   midi.NoteOnEvent(tick=59, channel=0, data=[43, 0]),\n",
      "   midi.NoteOnEvent(tick=1, channel=0, data=[43, 127]),\n",
      "   midi.NoteOnEvent(tick=59, channel=0, data=[43, 0]),\n",
      "   midi.NoteOnEvent(tick=1, channel=0, data=[43, 127]),\n",
      "   midi.NoteOnEvent(tick=59, channel=0, data=[43, 0]),\n",
      "   midi.NoteOnEvent(tick=1, channel=0, data=[43, 127]),\n",
      "   midi.NoteOnEvent(tick=59, channel=0, data=[43, 0]),\n",
      "   midi.NoteOnEvent(tick=1, channel=0, data=[50, 127]),\n",
      "   midi.NoteOnEvent(tick=59, channel=0, data=[50, 0]),\n",
      "   midi.NoteOnEvent(tick=1, channel=0, data=[55, 127]),\n",
      "   midi.NoteOnEvent(tick=59, channel=0, data=[55, 0]),\n",
      "   midi.NoteOnEvent(tick=1, channel=0, data=[50, 127]),\n",
      "   midi.NoteOnEvent(tick=59, channel=0, data=[50, 0]),\n",
      "   midi.NoteOnEvent(tick=1, channel=0, data=[43, 127]),\n",
      "   midi.NoteOnEvent(tick=59, channel=0, data=[43, 0]),\n",
      "   midi.NoteOnEvent(tick=1, channel=0, data=[43, 127]),\n",
      "   midi.NoteOnEvent(tick=59, channel=0, data=[43, 0]),\n",
      "   midi.NoteOnEvent(tick=1, channel=0, data=[43, 127]),\n",
      "   midi.NoteOnEvent(tick=59, channel=0, data=[43, 0]),\n",
      "   midi.NoteOnEvent(tick=1, channel=0, data=[43, 127]),\n",
      "   midi.NoteOnEvent(tick=59, channel=0, data=[43, 0]),\n",
      "   midi.NoteOnEvent(tick=1, channel=0, data=[43, 127]),\n",
      "   midi.NoteOnEvent(tick=59, channel=0, data=[43, 0]),\n",
      "   midi.NoteOnEvent(tick=1, channel=0, data=[50, 127]),\n",
      "   midi.NoteOnEvent(tick=59, channel=0, data=[50, 0]),\n",
      "   midi.NoteOnEvent(tick=1, channel=0, data=[55, 127]),\n",
      "   midi.NoteOnEvent(tick=59, channel=0, data=[55, 0]),\n",
      "   midi.NoteOnEvent(tick=1, channel=0, data=[50, 127]),\n",
      "   midi.NoteOnEvent(tick=59, channel=0, data=[50, 0]),\n",
      "   midi.NoteOnEvent(tick=1, channel=0, data=[43, 127]),\n",
      "   midi.NoteOnEvent(tick=59, channel=0, data=[43, 0]),\n",
      "   midi.NoteOnEvent(tick=1, channel=0, data=[43, 127]),\n",
      "   midi.NoteOnEvent(tick=59, channel=0, data=[43, 0]),\n",
      "   midi.NoteOnEvent(tick=1, channel=0, data=[43, 127]),\n",
      "   midi.NoteOnEvent(tick=59, channel=0, data=[43, 0]),\n",
      "   midi.NoteOnEvent(tick=1, channel=0, data=[43, 127]),\n",
      "   midi.NoteOnEvent(tick=59, channel=0, data=[43, 0]),\n",
      "   midi.NoteOnEvent(tick=1, channel=0, data=[43, 127]),\n",
      "   midi.NoteOnEvent(tick=59, channel=0, data=[43, 0]),\n",
      "   midi.NoteOnEvent(tick=1, channel=0, data=[50, 127]),\n",
      "   midi.NoteOnEvent(tick=59, channel=0, data=[50, 0]),\n",
      "   midi.NoteOnEvent(tick=1, channel=0, data=[55, 127]),\n",
      "   midi.NoteOnEvent(tick=59, channel=0, data=[55, 0]),\n",
      "   midi.NoteOnEvent(tick=1, channel=0, data=[50, 127]),\n",
      "   midi.NoteOnEvent(tick=59, channel=0, data=[50, 0]),\n",
      "   midi.NoteOnEvent(tick=1, channel=0, data=[43, 127]),\n",
      "   midi.NoteOnEvent(tick=59, channel=0, data=[43, 0]),\n",
      "   midi.NoteOnEvent(tick=1, channel=0, data=[43, 127]),\n",
      "   midi.NoteOnEvent(tick=59, channel=0, data=[43, 0]),\n",
      "   midi.NoteOnEvent(tick=1, channel=0, data=[43, 127]),\n",
      "   midi.NoteOnEvent(tick=59, channel=0, data=[43, 0]),\n",
      "   midi.NoteOnEvent(tick=1, channel=0, data=[43, 127]),\n",
      "   midi.NoteOnEvent(tick=59, channel=0, data=[43, 0]),\n",
      "   midi.NoteOnEvent(tick=1, channel=0, data=[43, 127]),\n",
      "   midi.NoteOnEvent(tick=59, channel=0, data=[43, 0]),\n",
      "   midi.NoteOnEvent(tick=1, channel=0, data=[50, 127]),\n",
      "   midi.NoteOnEvent(tick=59, channel=0, data=[50, 0]),\n",
      "   midi.NoteOnEvent(tick=1, channel=0, data=[55, 127]),\n",
      "   midi.NoteOnEvent(tick=59, channel=0, data=[55, 0]),\n",
      "   midi.NoteOnEvent(tick=1, channel=0, data=[50, 127]),\n",
      "   midi.NoteOnEvent(tick=59, channel=0, data=[50, 0]),\n",
      "   midi.NoteOnEvent(tick=3601, channel=0, data=[43, 127]),\n",
      "   midi.NoteOnEvent(tick=59, channel=0, data=[43, 0]),\n",
      "   midi.NoteOnEvent(tick=1, channel=0, data=[50, 127]),\n",
      "   midi.NoteOnEvent(tick=59, channel=0, data=[50, 0]),\n",
      "   midi.NoteOnEvent(tick=1, channel=0, data=[55, 127]),\n",
      "   midi.NoteOnEvent(tick=59, channel=0, data=[55, 0]),\n",
      "   midi.NoteOnEvent(tick=1, channel=0, data=[50, 127]),\n",
      "   midi.NoteOnEvent(tick=59, channel=0, data=[50, 0]),\n",
      "   midi.EndOfTrackEvent(tick=0, data=[])]),\n",
      " midi.Track(\\\n",
      "  [midi.PortEvent(tick=0, data=[0]),\n",
      "   midi.TrackNameEvent(tick=0, text='Vocal G-092', data=[86, 111, 99, 97, 108, 32, 71, 45, 48, 57, 50]),\n",
      "   midi.ProgramChangeEvent(tick=0, channel=1, data=[91]),\n",
      "   midi.ControlChangeEvent(tick=0, channel=1, data=[7, 77]),\n",
      "   midi.ControlChangeEvent(tick=0, channel=1, data=[10, 59]),\n",
      "   midi.NoteOnEvent(tick=18780, channel=1, data=[60, 127]),\n",
      "   midi.NoteOnEvent(tick=26, channel=1, data=[60, 0]),\n",
      "   midi.NoteOnEvent(tick=34, channel=1, data=[60, 127]),\n",
      "   midi.NoteOnEvent(tick=26, channel=1, data=[60, 0]),\n",
      "   midi.NoteOnEvent(tick=34, channel=1, data=[60, 127]),\n",
      "   midi.NoteOnEvent(tick=39, channel=1, data=[60, 0]),\n",
      "   midi.NoteOnEvent(tick=21, channel=1, data=[59, 127]),\n",
      "   midi.NoteOnEvent(tick=119, channel=1, data=[59, 0]),\n",
      "   midi.NoteOnEvent(tick=1, channel=1, data=[60, 127]),\n",
      "   midi.NoteOnEvent(tick=60, channel=1, data=[59, 127]),\n",
      "   midi.NoteOnEvent(tick=12, channel=1, data=[60, 0]),\n",
      "   midi.NoteOnEvent(tick=97, channel=1, data=[59, 0]),\n",
      "   midi.NoteOnEvent(tick=11, channel=1, data=[60, 127]),\n",
      "   midi.NoteOnEvent(tick=60, channel=1, data=[57, 127]),\n",
      "   midi.NoteOnEvent(tick=8, channel=1, data=[60, 0]),\n",
      "   midi.NoteOnEvent(tick=359, channel=1, data=[57, 0]),\n",
      "   midi.NoteOnEvent(tick=53, channel=1, data=[60, 127]),\n",
      "   midi.NoteOnEvent(tick=26, channel=1, data=[60, 0]),\n",
      "   midi.NoteOnEvent(tick=34, channel=1, data=[60, 127]),\n",
      "   midi.NoteOnEvent(tick=26, channel=1, data=[60, 0]),\n",
      "   midi.NoteOnEvent(tick=34, channel=1, data=[60, 127]),\n",
      "   midi.NoteOnEvent(tick=49, channel=1, data=[60, 0]),\n",
      "   midi.NoteOnEvent(tick=11, channel=1, data=[62, 127]),\n",
      "   midi.NoteOnEvent(tick=120, channel=1, data=[64, 127]),\n",
      "   midi.NoteOnEvent(tick=2, channel=1, data=[62, 0]),\n",
      "   midi.NoteOnEvent(tick=58, channel=1, data=[62, 127]),\n",
      "   midi.NoteOnEvent(tick=19, channel=1, data=[64, 0]),\n",
      "   midi.NoteOnEvent(tick=101, channel=1, data=[60, 127]),\n",
      "   midi.NoteOnEvent(tick=10, channel=1, data=[62, 0]),\n",
      "   midi.NoteOnEvent(tick=110, channel=1, data=[62, 127]),\n",
      "   midi.NoteOnEvent(tick=8, channel=1, data=[60, 0]),\n",
      "   midi.NoteOnEvent(tick=112, channel=1, data=[64, 127]),\n",
      "   midi.NoteOnEvent(tick=13, channel=1, data=[62, 0]),\n",
      "   midi.NoteOnEvent(tick=167, channel=1, data=[62, 127]),\n",
      "   midi.NoteOnEvent(tick=9, channel=1, data=[64, 0]),\n",
      "   midi.NoteOnEvent(tick=111, channel=1, data=[60, 127]),\n",
      "   midi.NoteOnEvent(tick=8, channel=1, data=[62, 0]),\n",
      "   midi.NoteOnEvent(tick=52, channel=1, data=[57, 127]),\n",
      "   midi.NoteOnEvent(tick=9, channel=1, data=[60, 0]),\n",
      "   midi.NoteOnEvent(tick=231, channel=1, data=[60, 127]),\n",
      "   midi.NoteOnEvent(tick=10, channel=1, data=[57, 0]),\n",
      "   midi.NoteOnEvent(tick=33, channel=1, data=[60, 0]),\n",
      "   midi.NoteOnEvent(tick=17, channel=1, data=[62, 127]),\n",
      "   midi.NoteOnEvent(tick=120, channel=1, data=[60, 127]),\n",
      "   midi.NoteOnEvent(tick=1, channel=1, data=[62, 0]),\n",
      "   midi.NoteOnEvent(tick=59, channel=1, data=[62, 127]),\n",
      "   midi.NoteOnEvent(tick=16, channel=1, data=[60, 0]),\n",
      "   midi.NoteOnEvent(tick=104, channel=1, data=[64, 127]),\n",
      "   midi.NoteOnEvent(tick=1, channel=1, data=[62, 0]),\n",
      "   midi.NoteOnEvent(tick=179, channel=1, data=[62, 127]),\n",
      "   midi.NoteOnEvent(tick=24, channel=1, data=[64, 0]),\n",
      "   midi.NoteOnEvent(tick=96, channel=1, data=[60, 127]),\n",
      "   midi.NoteOnEvent(tick=8, channel=1, data=[62, 0]),\n",
      "   midi.NoteOnEvent(tick=52, channel=1, data=[57, 127]),\n",
      "   midi.NoteOnEvent(tick=5, channel=1, data=[60, 0]),\n",
      "   midi.NoteOnEvent(tick=501, channel=1, data=[57, 0]),\n",
      "   midi.NoteOnEvent(tick=34, channel=1, data=[57, 127]),\n",
      "   midi.NoteOnEvent(tick=6, channel=1, data=[57, 0]),\n",
      "   midi.NoteOnEvent(tick=294, channel=1, data=[60, 127]),\n",
      "   midi.NoteOnEvent(tick=20, channel=1, data=[60, 0]),\n",
      "   midi.NoteOnEvent(tick=40, channel=1, data=[60, 127]),\n",
      "   midi.NoteOnEvent(tick=30, channel=1, data=[60, 0]),\n",
      "   midi.NoteOnEvent(tick=30, channel=1, data=[60, 127]),\n",
      "   midi.NoteOnEvent(tick=52, channel=1, data=[60, 0]),\n",
      "   midi.NoteOnEvent(tick=8, channel=1, data=[59, 127]),\n",
      "   midi.NoteOnEvent(tick=120, channel=1, data=[60, 127]),\n",
      "   midi.NoteOnEvent(tick=6, channel=1, data=[59, 0]),\n",
      "   midi.NoteOnEvent(tick=54, channel=1, data=[59, 127]),\n",
      "   midi.NoteOnEvent(tick=1, channel=1, data=[60, 0]),\n",
      "   midi.NoteOnEvent(tick=119, channel=1, data=[60, 127]),\n",
      "   midi.NoteOnEvent(tick=4, channel=1, data=[59, 0]),\n",
      "   midi.NoteOnEvent(tick=56, channel=1, data=[57, 127]),\n",
      "   midi.NoteOnEvent(tick=3, channel=1, data=[60, 0]),\n",
      "   midi.NoteOnEvent(tick=357, channel=1, data=[57, 0]),\n",
      "   midi.NoteOnEvent(tick=60, channel=1, data=[60, 127]),\n",
      "   midi.NoteOnEvent(tick=25, channel=1, data=[60, 0]),\n",
      "   midi.NoteOnEvent(tick=35, channel=1, data=[60, 127]),\n",
      "   midi.NoteOnEvent(tick=24, channel=1, data=[60, 0]),\n",
      "   midi.NoteOnEvent(tick=36, channel=1, data=[60, 127]),\n",
      "   midi.NoteOnEvent(tick=58, channel=1, data=[60, 0]),\n",
      "   midi.NoteOnEvent(tick=2, channel=1, data=[62, 127]),\n",
      "   midi.NoteOnEvent(tick=115, channel=1, data=[62, 0]),\n",
      "   midi.NoteOnEvent(tick=5, channel=1, data=[64, 127]),\n",
      "   midi.NoteOnEvent(tick=60, channel=1, data=[62, 127]),\n",
      "   midi.NoteOnEvent(tick=26, channel=1, data=[64, 0]),\n",
      "   midi.NoteOnEvent(tick=94, channel=1, data=[60, 127]),\n",
      "   midi.NoteOnEvent(tick=11, channel=1, data=[62, 0]),\n",
      "   midi.NoteOnEvent(tick=109, channel=1, data=[62, 127]),\n",
      "   midi.NoteOnEvent(tick=3, channel=1, data=[60, 0]),\n",
      "   midi.NoteOnEvent(tick=117, channel=1, data=[64, 127]),\n",
      "   midi.NoteOnEvent(tick=19, channel=1, data=[62, 0]),\n",
      "   midi.NoteOnEvent(tick=155, channel=1, data=[64, 0]),\n",
      "   midi.NoteOnEvent(tick=6, channel=1, data=[62, 127]),\n",
      "   midi.NoteOnEvent(tick=120, channel=1, data=[60, 127]),\n",
      "   midi.NoteOnEvent(tick=8, channel=1, data=[62, 0]),\n",
      "   midi.NoteOnEvent(tick=52, channel=1, data=[57, 127]),\n",
      "   midi.NoteOnEvent(tick=8, channel=1, data=[60, 0]),\n",
      "   midi.NoteOnEvent(tick=227, channel=1, data=[57, 0]),\n",
      "   midi.NoteOnEvent(tick=5, channel=1, data=[60, 127]),\n",
      "   midi.NoteOnEvent(tick=51, channel=1, data=[60, 0]),\n",
      "   midi.NoteOnEvent(tick=9, channel=1, data=[62, 127]),\n",
      "   midi.NoteOnEvent(tick=117, channel=1, data=[62, 0]),\n",
      "   midi.NoteOnEvent(tick=3, channel=1, data=[60, 127]),\n",
      "   midi.NoteOnEvent(tick=60, channel=1, data=[62, 127]),\n",
      "   midi.NoteOnEvent(tick=11, channel=1, data=[60, 0]),\n",
      "   midi.NoteOnEvent(tick=109, channel=1, data=[64, 127]),\n",
      "   midi.NoteOnEvent(tick=7, channel=1, data=[62, 0]),\n",
      "   midi.NoteOnEvent(tick=173, channel=1, data=[62, 127]),\n",
      "   midi.NoteOnEvent(tick=19, channel=1, data=[64, 0]),\n",
      "   midi.NoteOnEvent(tick=101, channel=1, data=[60, 127]),\n",
      "   midi.NoteOnEvent(tick=3, channel=1, data=[62, 0]),\n",
      "   midi.NoteOnEvent(tick=57, channel=1, data=[57, 127]),\n",
      "   midi.NoteOnEvent(tick=9, channel=1, data=[60, 0]),\n",
      "   midi.NoteOnEvent(tick=478, channel=1, data=[57, 0]),\n",
      "   midi.NoteOnEvent(tick=53, channel=1, data=[62, 127]),\n",
      "   midi.NoteOnEvent(tick=116, channel=1, data=[62, 0]),\n",
      "   midi.NoteOnEvent(tick=4, channel=1, data=[64, 127]),\n",
      "   midi.NoteOnEvent(tick=120, channel=1, data=[62, 127]),\n",
      "   midi.NoteOnEvent(tick=20, channel=1, data=[64, 0]),\n",
      "   midi.NoteOnEvent(tick=95, channel=1, data=[62, 0]),\n",
      "   midi.NoteOnEvent(tick=5, channel=1, data=[60, 127]),\n",
      "   midi.NoteOnEvent(tick=60, channel=1, data=[57, 127]),\n",
      "   midi.NoteOnEvent(tick=21, channel=1, data=[60, 0]),\n",
      "   midi.NoteOnEvent(tick=219, channel=1, data=[60, 127]),\n",
      "   midi.NoteOnEvent(tick=18, channel=1, data=[57, 0]),\n",
      "   midi.NoteOnEvent(tick=15, channel=1, data=[60, 0]),\n",
      "   midi.NoteOnEvent(tick=27, channel=1, data=[62, 127]),\n",
      "   midi.NoteOnEvent(tick=115, channel=1, data=[62, 0]),\n",
      "   midi.NoteOnEvent(tick=5, channel=1, data=[60, 127]),\n",
      "   midi.NoteOnEvent(tick=120, channel=1, data=[62, 127]),\n",
      "   midi.NoteOnEvent(tick=6, channel=1, data=[60, 0]),\n",
      "   midi.NoteOnEvent(tick=114, channel=1, data=[64, 127]),\n",
      "   midi.NoteOnEvent(tick=4, channel=1, data=[62, 0]),\n",
      "   midi.NoteOnEvent(tick=107, channel=1, data=[64, 0]),\n",
      "   midi.NoteOnEvent(tick=9, channel=1, data=[62, 127]),\n",
      "   midi.NoteOnEvent(tick=120, channel=1, data=[60, 127]),\n",
      "   midi.NoteOnEvent(tick=11, channel=1, data=[62, 0]),\n",
      "   midi.NoteOnEvent(tick=49, channel=1, data=[57, 127]),\n",
      "   midi.NoteOnEvent(tick=8, channel=1, data=[60, 0]),\n",
      "   midi.NoteOnEvent(tick=445, channel=1, data=[57, 0]),\n",
      "   midi.NoteOnEvent(tick=87, channel=1, data=[62, 127]),\n",
      "   midi.NoteOnEvent(tick=113, channel=1, data=[62, 0]),\n",
      "   midi.NoteOnEvent(tick=7, channel=1, data=[64, 127]),\n",
      "   midi.NoteOnEvent(tick=120, channel=1, data=[62, 127]),\n",
      "   midi.NoteOnEvent(tick=7, channel=1, data=[64, 0]),\n",
      "   midi.NoteOnEvent(tick=106, channel=1, data=[62, 0]),\n",
      "   midi.NoteOnEvent(tick=7, channel=1, data=[60, 127]),\n",
      "   midi.NoteOnEvent(tick=60, channel=1, data=[57, 127]),\n",
      "   midi.NoteOnEvent(tick=10, channel=1, data=[60, 0]),\n",
      "   midi.NoteOnEvent(tick=230, channel=1, data=[60, 127]),\n",
      "   midi.NoteOnEvent(tick=12, channel=1, data=[57, 0]),\n",
      "   midi.NoteOnEvent(tick=43, channel=1, data=[60, 0]),\n",
      "   midi.NoteOnEvent(tick=5, channel=1, data=[62, 127]),\n",
      "   midi.NoteOnEvent(tick=120, channel=1, data=[60, 127]),\n",
      "   midi.NoteOnEvent(tick=4, channel=1, data=[62, 0]),\n",
      "   midi.NoteOnEvent(tick=116, channel=1, data=[62, 127]),\n",
      "   midi.NoteOnEvent(tick=13, channel=1, data=[60, 0]),\n",
      "   midi.NoteOnEvent(tick=107, channel=1, data=[64, 127]),\n",
      "   midi.NoteOnEvent(tick=3, channel=1, data=[62, 0]),\n",
      "   midi.NoteOnEvent(tick=117, channel=1, data=[62, 127]),\n",
      "   midi.NoteOnEvent(tick=16, channel=1, data=[64, 0]),\n",
      "   midi.NoteOnEvent(tick=104, channel=1, data=[60, 127]),\n",
      "   midi.NoteOnEvent(tick=20, channel=1, data=[62, 0]),\n",
      "   midi.NoteOnEvent(tick=40, channel=1, data=[57, 127]),\n",
      "   midi.NoteOnEvent(tick=6, channel=1, data=[60, 0]),\n",
      "   midi.NoteOnEvent(tick=305, channel=1, data=[57, 0]),\n",
      "   midi.NoteOnEvent(tick=109, channel=1, data=[55, 127]),\n",
      "   midi.NoteOnEvent(tick=36, channel=1, data=[55, 0]),\n",
      "   midi.NoteOnEvent(tick=24, channel=1, data=[55, 127]),\n",
      "   midi.NoteOnEvent(tick=36, channel=1, data=[55, 0]),\n",
      "   midi.NoteOnEvent(tick=24, channel=1, data=[55, 127]),\n",
      "   midi.NoteOnEvent(tick=30, channel=1, data=[55, 0]),\n",
      "   midi.NoteOnEvent(tick=30, channel=1, data=[55, 127]),\n",
      "   midi.NoteOnEvent(tick=35, channel=1, data=[55, 0]),\n",
      "   midi.NoteOnEvent(tick=25, channel=1, data=[55, 127]),\n",
      "   midi.NoteOnEvent(tick=60, channel=1, data=[55, 127]),\n",
      "   midi.NoteOnEvent(tick=19, channel=1, data=[55, 0]),\n",
      "   midi.NoteOnEvent(tick=41, channel=1, data=[57, 127]),\n",
      "   midi.NoteOnEvent(tick=26, channel=1, data=[57, 0]),\n",
      "   midi.NoteOnEvent(tick=98, channel=1, data=[55, 0]),\n",
      "   midi.NoteOnEvent(tick=3776, channel=1, data=[60, 127]),\n",
      "   midi.NoteOnEvent(tick=26, channel=1, data=[60, 0]),\n",
      "   midi.NoteOnEvent(tick=34, channel=1, data=[60, 127]),\n",
      "   midi.NoteOnEvent(tick=26, channel=1, data=[60, 0]),\n",
      "   midi.NoteOnEvent(tick=34, channel=1, data=[60, 127]),\n",
      "   midi.NoteOnEvent(tick=39, channel=1, data=[60, 0]),\n",
      "   midi.NoteOnEvent(tick=21, channel=1, data=[59, 127]),\n",
      "   midi.NoteOnEvent(tick=119, channel=1, data=[59, 0]),\n",
      "   midi.NoteOnEvent(tick=1, channel=1, data=[60, 127]),\n",
      "   midi.NoteOnEvent(tick=60, channel=1, data=[59, 127]),\n",
      "   midi.NoteOnEvent(tick=12, channel=1, data=[60, 0]),\n",
      "   midi.NoteOnEvent(tick=97, channel=1, data=[59, 0]),\n",
      "   midi.NoteOnEvent(tick=11, channel=1, data=[60, 127]),\n",
      "   midi.NoteOnEvent(tick=60, channel=1, data=[57, 127]),\n",
      "   midi.NoteOnEvent(tick=8, channel=1, data=[60, 0]),\n",
      "   midi.NoteOnEvent(tick=359, channel=1, data=[57, 0]),\n",
      "   midi.NoteOnEvent(tick=53, channel=1, data=[60, 127]),\n",
      "   midi.NoteOnEvent(tick=26, channel=1, data=[60, 0]),\n",
      "   midi.NoteOnEvent(tick=34, channel=1, data=[60, 127]),\n",
      "   midi.NoteOnEvent(tick=26, channel=1, data=[60, 0]),\n",
      "   midi.NoteOnEvent(tick=34, channel=1, data=[60, 127]),\n",
      "   midi.NoteOnEvent(tick=49, channel=1, data=[60, 0]),\n",
      "   midi.NoteOnEvent(tick=11, channel=1, data=[62, 127]),\n",
      "   midi.NoteOnEvent(tick=120, channel=1, data=[64, 127]),\n",
      "   midi.NoteOnEvent(tick=2, channel=1, data=[62, 0]),\n",
      "   midi.NoteOnEvent(tick=58, channel=1, data=[62, 127]),\n",
      "   midi.NoteOnEvent(tick=19, channel=1, data=[64, 0]),\n",
      "   midi.NoteOnEvent(tick=101, channel=1, data=[60, 127]),\n",
      "   midi.NoteOnEvent(tick=10, channel=1, data=[62, 0]),\n",
      "   midi.NoteOnEvent(tick=110, channel=1, data=[62, 127]),\n",
      "   midi.NoteOnEvent(tick=8, channel=1, data=[60, 0]),\n",
      "   midi.NoteOnEvent(tick=112, channel=1, data=[64, 127]),\n",
      "   midi.NoteOnEvent(tick=13, channel=1, data=[62, 0]),\n",
      "   midi.NoteOnEvent(tick=167, channel=1, data=[62, 127]),\n",
      "   midi.NoteOnEvent(tick=9, channel=1, data=[64, 0]),\n",
      "   midi.NoteOnEvent(tick=111, channel=1, data=[60, 127]),\n",
      "   midi.NoteOnEvent(tick=8, channel=1, data=[62, 0]),\n",
      "   midi.NoteOnEvent(tick=52, channel=1, data=[57, 127]),\n",
      "   midi.NoteOnEvent(tick=9, channel=1, data=[60, 0]),\n",
      "   midi.NoteOnEvent(tick=231, channel=1, data=[60, 127]),\n",
      "   midi.NoteOnEvent(tick=10, channel=1, data=[57, 0]),\n",
      "   midi.NoteOnEvent(tick=33, channel=1, data=[60, 0]),\n",
      "   midi.NoteOnEvent(tick=17, channel=1, data=[62, 127]),\n",
      "   midi.NoteOnEvent(tick=120, channel=1, data=[60, 127]),\n",
      "   midi.NoteOnEvent(tick=1, channel=1, data=[62, 0]),\n",
      "   midi.NoteOnEvent(tick=59, channel=1, data=[62, 127]),\n",
      "   midi.NoteOnEvent(tick=16, channel=1, data=[60, 0]),\n",
      "   midi.NoteOnEvent(tick=104, channel=1, data=[64, 127]),\n",
      "   midi.NoteOnEvent(tick=1, channel=1, data=[62, 0]),\n",
      "   midi.NoteOnEvent(tick=179, channel=1, data=[62, 127]),\n",
      "   midi.NoteOnEvent(tick=24, channel=1, data=[64, 0]),\n",
      "   midi.NoteOnEvent(tick=96, channel=1, data=[60, 127]),\n",
      "   midi.NoteOnEvent(tick=8, channel=1, data=[62, 0]),\n",
      "   midi.NoteOnEvent(tick=52, channel=1, data=[57, 127]),\n",
      "   midi.NoteOnEvent(tick=5, channel=1, data=[60, 0]),\n",
      "   midi.NoteOnEvent(tick=501, channel=1, data=[57, 0]),\n",
      "   midi.NoteOnEvent(tick=34, channel=1, data=[57, 127]),\n",
      "   midi.NoteOnEvent(tick=6, channel=1, data=[57, 0]),\n",
      "   midi.NoteOnEvent(tick=294, channel=1, data=[60, 127]),\n",
      "   midi.NoteOnEvent(tick=20, channel=1, data=[60, 0]),\n",
      "   midi.NoteOnEvent(tick=40, channel=1, data=[60, 127]),\n",
      "   midi.NoteOnEvent(tick=30, channel=1, data=[60, 0]),\n",
      "   midi.NoteOnEvent(tick=30, channel=1, data=[60, 127]),\n",
      "   midi.NoteOnEvent(tick=52, channel=1, data=[60, 0]),\n",
      "   midi.NoteOnEvent(tick=8, channel=1, data=[59, 127]),\n",
      "   midi.NoteOnEvent(tick=120, channel=1, data=[60, 127]),\n",
      "   midi.NoteOnEvent(tick=6, channel=1, data=[59, 0]),\n",
      "   midi.NoteOnEvent(tick=54, channel=1, data=[59, 127]),\n",
      "   midi.NoteOnEvent(tick=1, channel=1, data=[60, 0]),\n",
      "   midi.NoteOnEvent(tick=119, channel=1, data=[60, 127]),\n",
      "   midi.NoteOnEvent(tick=4, channel=1, data=[59, 0]),\n",
      "   midi.NoteOnEvent(tick=56, channel=1, data=[57, 127]),\n",
      "   midi.NoteOnEvent(tick=3, channel=1, data=[60, 0]),\n",
      "   midi.NoteOnEvent(tick=357, channel=1, data=[57, 0]),\n",
      "   midi.NoteOnEvent(tick=60, channel=1, data=[60, 127]),\n",
      "   midi.NoteOnEvent(tick=25, channel=1, data=[60, 0]),\n",
      "   midi.NoteOnEvent(tick=35, channel=1, data=[60, 127]),\n",
      "   midi.NoteOnEvent(tick=24, channel=1, data=[60, 0]),\n",
      "   midi.NoteOnEvent(tick=36, channel=1, data=[60, 127]),\n",
      "   midi.NoteOnEvent(tick=58, channel=1, data=[60, 0]),\n",
      "   midi.NoteOnEvent(tick=2, channel=1, data=[62, 127]),\n",
      "   midi.NoteOnEvent(tick=115, channel=1, data=[62, 0]),\n",
      "   midi.NoteOnEvent(tick=5, channel=1, data=[64, 127]),\n",
      "   midi.NoteOnEvent(tick=60, channel=1, data=[62, 127]),\n",
      "   midi.NoteOnEvent(tick=26, channel=1, data=[64, 0]),\n",
      "   midi.NoteOnEvent(tick=94, channel=1, data=[60, 127]),\n",
      "   midi.NoteOnEvent(tick=11, channel=1, data=[62, 0]),\n",
      "   midi.NoteOnEvent(tick=109, channel=1, data=[62, 127]),\n",
      "   midi.NoteOnEvent(tick=3, channel=1, data=[60, 0]),\n",
      "   midi.NoteOnEvent(tick=117, channel=1, data=[64, 127]),\n",
      "   midi.NoteOnEvent(tick=19, channel=1, data=[62, 0]),\n",
      "   midi.NoteOnEvent(tick=155, channel=1, data=[64, 0]),\n",
      "   midi.NoteOnEvent(tick=6, channel=1, data=[62, 127]),\n",
      "   midi.NoteOnEvent(tick=120, channel=1, data=[60, 127]),\n",
      "   midi.NoteOnEvent(tick=8, channel=1, data=[62, 0]),\n",
      "   midi.NoteOnEvent(tick=52, channel=1, data=[57, 127]),\n",
      "   midi.NoteOnEvent(tick=8, channel=1, data=[60, 0]),\n",
      "   midi.NoteOnEvent(tick=227, channel=1, data=[57, 0]),\n",
      "   midi.NoteOnEvent(tick=5, channel=1, data=[60, 127]),\n",
      "   midi.NoteOnEvent(tick=51, channel=1, data=[60, 0]),\n",
      "   midi.NoteOnEvent(tick=9, channel=1, data=[62, 127]),\n",
      "   midi.NoteOnEvent(tick=117, channel=1, data=[62, 0]),\n",
      "   midi.NoteOnEvent(tick=3, channel=1, data=[60, 127]),\n",
      "   midi.NoteOnEvent(tick=60, channel=1, data=[62, 127]),\n",
      "   midi.NoteOnEvent(tick=11, channel=1, data=[60, 0]),\n",
      "   midi.NoteOnEvent(tick=109, channel=1, data=[64, 127]),\n",
      "   midi.NoteOnEvent(tick=7, channel=1, data=[62, 0]),\n",
      "   midi.NoteOnEvent(tick=173, channel=1, data=[62, 127]),\n",
      "   midi.NoteOnEvent(tick=19, channel=1, data=[64, 0]),\n",
      "   midi.NoteOnEvent(tick=101, channel=1, data=[60, 127]),\n",
      "   midi.NoteOnEvent(tick=3, channel=1, data=[62, 0]),\n",
      "   midi.NoteOnEvent(tick=57, channel=1, data=[57, 127]),\n",
      "   midi.NoteOnEvent(tick=9, channel=1, data=[60, 0]),\n",
      "   midi.NoteOnEvent(tick=478, channel=1, data=[57, 0]),\n",
      "   midi.NoteOnEvent(tick=53, channel=1, data=[62, 127]),\n",
      "   midi.NoteOnEvent(tick=116, channel=1, data=[62, 0]),\n",
      "   midi.NoteOnEvent(tick=4, channel=1, data=[64, 127]),\n",
      "   midi.NoteOnEvent(tick=120, channel=1, data=[62, 127]),\n",
      "   midi.NoteOnEvent(tick=20, channel=1, data=[64, 0]),\n",
      "   midi.NoteOnEvent(tick=95, channel=1, data=[62, 0]),\n",
      "   midi.NoteOnEvent(tick=5, channel=1, data=[60, 127]),\n",
      "   midi.NoteOnEvent(tick=60, channel=1, data=[57, 127]),\n",
      "   midi.NoteOnEvent(tick=21, channel=1, data=[60, 0]),\n",
      "   midi.NoteOnEvent(tick=219, channel=1, data=[60, 127]),\n",
      "   midi.NoteOnEvent(tick=18, channel=1, data=[57, 0]),\n",
      "   midi.NoteOnEvent(tick=15, channel=1, data=[60, 0]),\n",
      "   midi.NoteOnEvent(tick=27, channel=1, data=[62, 127]),\n",
      "   midi.NoteOnEvent(tick=115, channel=1, data=[62, 0]),\n",
      "   midi.NoteOnEvent(tick=5, channel=1, data=[60, 127]),\n",
      "   midi.NoteOnEvent(tick=120, channel=1, data=[62, 127]),\n",
      "   midi.NoteOnEvent(tick=6, channel=1, data=[60, 0]),\n",
      "   midi.NoteOnEvent(tick=114, channel=1, data=[64, 127]),\n",
      "   midi.NoteOnEvent(tick=4, channel=1, data=[62, 0]),\n",
      "   midi.NoteOnEvent(tick=107, channel=1, data=[64, 0]),\n",
      "   midi.NoteOnEvent(tick=9, channel=1, data=[62, 127]),\n",
      "   midi.NoteOnEvent(tick=120, channel=1, data=[60, 127]),\n",
      "   midi.NoteOnEvent(tick=11, channel=1, data=[62, 0]),\n",
      "   midi.NoteOnEvent(tick=49, channel=1, data=[57, 127]),\n",
      "   midi.NoteOnEvent(tick=8, channel=1, data=[60, 0]),\n",
      "   midi.NoteOnEvent(tick=445, channel=1, data=[57, 0]),\n",
      "   midi.NoteOnEvent(tick=87, channel=1, data=[62, 127]),\n",
      "   midi.NoteOnEvent(tick=113, channel=1, data=[62, 0]),\n",
      "   midi.NoteOnEvent(tick=7, channel=1, data=[64, 127]),\n",
      "   midi.NoteOnEvent(tick=120, channel=1, data=[62, 127]),\n",
      "   midi.NoteOnEvent(tick=7, channel=1, data=[64, 0]),\n",
      "   midi.NoteOnEvent(tick=106, channel=1, data=[62, 0]),\n",
      "   midi.NoteOnEvent(tick=7, channel=1, data=[60, 127]),\n",
      "   midi.NoteOnEvent(tick=60, channel=1, data=[57, 127]),\n",
      "   midi.NoteOnEvent(tick=10, channel=1, data=[60, 0]),\n",
      "   midi.NoteOnEvent(tick=230, channel=1, data=[60, 127]),\n",
      "   midi.NoteOnEvent(tick=12, channel=1, data=[57, 0]),\n",
      "   midi.NoteOnEvent(tick=43, channel=1, data=[60, 0]),\n",
      "   midi.NoteOnEvent(tick=5, channel=1, data=[62, 127]),\n",
      "   midi.NoteOnEvent(tick=120, channel=1, data=[60, 127]),\n",
      "   midi.NoteOnEvent(tick=4, channel=1, data=[62, 0]),\n",
      "   midi.NoteOnEvent(tick=116, channel=1, data=[62, 127]),\n",
      "   midi.NoteOnEvent(tick=13, channel=1, data=[60, 0]),\n",
      "   midi.NoteOnEvent(tick=107, channel=1, data=[64, 127]),\n",
      "   midi.NoteOnEvent(tick=3, channel=1, data=[62, 0]),\n",
      "   midi.NoteOnEvent(tick=117, channel=1, data=[62, 127]),\n",
      "   midi.NoteOnEvent(tick=16, channel=1, data=[64, 0]),\n",
      "   midi.NoteOnEvent(tick=104, channel=1, data=[60, 127]),\n",
      "   midi.NoteOnEvent(tick=20, channel=1, data=[62, 0]),\n",
      "   midi.NoteOnEvent(tick=40, channel=1, data=[57, 127]),\n",
      "   midi.NoteOnEvent(tick=6, channel=1, data=[60, 0]),\n",
      "   midi.NoteOnEvent(tick=305, channel=1, data=[57, 0]),\n",
      "   midi.NoteOnEvent(tick=109, channel=1, data=[55, 127]),\n",
      "   midi.NoteOnEvent(tick=36, channel=1, data=[55, 0]),\n",
      "   midi.NoteOnEvent(tick=24, channel=1, data=[55, 127]),\n",
      "   midi.NoteOnEvent(tick=36, channel=1, data=[55, 0]),\n",
      "   midi.NoteOnEvent(tick=24, channel=1, data=[55, 127]),\n",
      "   midi.NoteOnEvent(tick=30, channel=1, data=[55, 0]),\n",
      "   midi.NoteOnEvent(tick=30, channel=1, data=[55, 127]),\n",
      "   midi.NoteOnEvent(tick=35, channel=1, data=[55, 0]),\n",
      "   midi.NoteOnEvent(tick=25, channel=1, data=[55, 127]),\n",
      "   midi.NoteOnEvent(tick=60, channel=1, data=[57, 127]),\n",
      "   midi.NoteOnEvent(tick=19, channel=1, data=[55, 0]),\n",
      "   midi.NoteOnEvent(tick=60, channel=1, data=[57, 0]),\n",
      "   midi.NoteOnEvent(tick=9641, channel=1, data=[72, 127]),\n",
      "   midi.NoteOnEvent(tick=26, channel=1, data=[72, 0]),\n",
      "   midi.NoteOnEvent(tick=34, channel=1, data=[72, 127]),\n",
      "   midi.NoteOnEvent(tick=26, channel=1, data=[72, 0]),\n",
      "   midi.NoteOnEvent(tick=34, channel=1, data=[72, 127]),\n",
      "   midi.NoteOnEvent(tick=39, channel=1, data=[72, 0]),\n",
      "   midi.NoteOnEvent(tick=21, channel=1, data=[71, 127]),\n",
      "   midi.NoteOnEvent(tick=119, channel=1, data=[71, 0]),\n",
      "   midi.NoteOnEvent(tick=1, channel=1, data=[72, 127]),\n",
      "   midi.NoteOnEvent(tick=60, channel=1, data=[71, 127]),\n",
      "   midi.NoteOnEvent(tick=12, channel=1, data=[72, 0]),\n",
      "   midi.NoteOnEvent(tick=97, channel=1, data=[71, 0]),\n",
      "   midi.NoteOnEvent(tick=11, channel=1, data=[72, 127]),\n",
      "   midi.NoteOnEvent(tick=60, channel=1, data=[69, 127]),\n",
      "   midi.NoteOnEvent(tick=8, channel=1, data=[72, 0]),\n",
      "   midi.NoteOnEvent(tick=359, channel=1, data=[69, 0]),\n",
      "   midi.NoteOnEvent(tick=53, channel=1, data=[72, 127]),\n",
      "   midi.NoteOnEvent(tick=26, channel=1, data=[72, 0]),\n",
      "   midi.NoteOnEvent(tick=34, channel=1, data=[72, 127]),\n",
      "   midi.NoteOnEvent(tick=26, channel=1, data=[72, 0]),\n",
      "   midi.NoteOnEvent(tick=34, channel=1, data=[72, 127]),\n",
      "   midi.NoteOnEvent(tick=49, channel=1, data=[72, 0]),\n",
      "   midi.NoteOnEvent(tick=11, channel=1, data=[74, 127]),\n",
      "   midi.NoteOnEvent(tick=120, channel=1, data=[76, 127]),\n",
      "   midi.NoteOnEvent(tick=2, channel=1, data=[74, 0]),\n",
      "   midi.NoteOnEvent(tick=58, channel=1, data=[74, 127]),\n",
      "   midi.NoteOnEvent(tick=19, channel=1, data=[76, 0]),\n",
      "   midi.NoteOnEvent(tick=101, channel=1, data=[72, 127]),\n",
      "   midi.NoteOnEvent(tick=10, channel=1, data=[74, 0]),\n",
      "   midi.NoteOnEvent(tick=110, channel=1, data=[74, 127]),\n",
      "   midi.NoteOnEvent(tick=8, channel=1, data=[72, 0]),\n",
      "   midi.NoteOnEvent(tick=112, channel=1, data=[76, 127]),\n",
      "   midi.NoteOnEvent(tick=13, channel=1, data=[74, 0]),\n",
      "   midi.NoteOnEvent(tick=167, channel=1, data=[74, 127]),\n",
      "   midi.NoteOnEvent(tick=9, channel=1, data=[76, 0]),\n",
      "   midi.NoteOnEvent(tick=111, channel=1, data=[72, 127]),\n",
      "   midi.NoteOnEvent(tick=8, channel=1, data=[74, 0]),\n",
      "   midi.NoteOnEvent(tick=52, channel=1, data=[69, 127]),\n",
      "   midi.NoteOnEvent(tick=9, channel=1, data=[72, 0]),\n",
      "   midi.NoteOnEvent(tick=231, channel=1, data=[72, 127]),\n",
      "   midi.NoteOnEvent(tick=10, channel=1, data=[69, 0]),\n",
      "   midi.NoteOnEvent(tick=33, channel=1, data=[72, 0]),\n",
      "   midi.NoteOnEvent(tick=17, channel=1, data=[74, 127]),\n",
      "   midi.NoteOnEvent(tick=120, channel=1, data=[72, 127]),\n",
      "   midi.NoteOnEvent(tick=1, channel=1, data=[74, 0]),\n",
      "   midi.NoteOnEvent(tick=59, channel=1, data=[74, 127]),\n",
      "   midi.NoteOnEvent(tick=16, channel=1, data=[72, 0]),\n",
      "   midi.NoteOnEvent(tick=104, channel=1, data=[76, 127]),\n",
      "   midi.NoteOnEvent(tick=1, channel=1, data=[74, 0]),\n",
      "   midi.NoteOnEvent(tick=179, channel=1, data=[74, 127]),\n",
      "   midi.NoteOnEvent(tick=24, channel=1, data=[76, 0]),\n",
      "   midi.NoteOnEvent(tick=96, channel=1, data=[72, 127]),\n",
      "   midi.NoteOnEvent(tick=8, channel=1, data=[74, 0]),\n",
      "   midi.NoteOnEvent(tick=52, channel=1, data=[69, 127]),\n",
      "   midi.NoteOnEvent(tick=5, channel=1, data=[72, 0]),\n",
      "   midi.NoteOnEvent(tick=501, channel=1, data=[69, 0]),\n",
      "   midi.NoteOnEvent(tick=34, channel=1, data=[69, 127]),\n",
      "   midi.NoteOnEvent(tick=6, channel=1, data=[69, 0]),\n",
      "   midi.NoteOnEvent(tick=294, channel=1, data=[72, 127]),\n",
      "   midi.NoteOnEvent(tick=20, channel=1, data=[72, 0]),\n",
      "   midi.NoteOnEvent(tick=40, channel=1, data=[72, 127]),\n",
      "   midi.NoteOnEvent(tick=30, channel=1, data=[72, 0]),\n",
      "   midi.NoteOnEvent(tick=30, channel=1, data=[72, 127]),\n",
      "   midi.NoteOnEvent(tick=52, channel=1, data=[72, 0]),\n",
      "   midi.NoteOnEvent(tick=8, channel=1, data=[71, 127]),\n",
      "   midi.NoteOnEvent(tick=120, channel=1, data=[72, 127]),\n",
      "   midi.NoteOnEvent(tick=6, channel=1, data=[71, 0]),\n",
      "   midi.NoteOnEvent(tick=54, channel=1, data=[71, 127]),\n",
      "   midi.NoteOnEvent(tick=1, channel=1, data=[72, 0]),\n",
      "   midi.NoteOnEvent(tick=119, channel=1, data=[72, 127]),\n",
      "   midi.NoteOnEvent(tick=4, channel=1, data=[71, 0]),\n",
      "   midi.NoteOnEvent(tick=56, channel=1, data=[69, 127]),\n",
      "   midi.NoteOnEvent(tick=3, channel=1, data=[72, 0]),\n",
      "   midi.NoteOnEvent(tick=357, channel=1, data=[69, 0]),\n",
      "   midi.NoteOnEvent(tick=60, channel=1, data=[72, 127]),\n",
      "   midi.NoteOnEvent(tick=25, channel=1, data=[72, 0]),\n",
      "   midi.NoteOnEvent(tick=35, channel=1, data=[72, 127]),\n",
      "   midi.NoteOnEvent(tick=24, channel=1, data=[72, 0]),\n",
      "   midi.NoteOnEvent(tick=36, channel=1, data=[72, 127]),\n",
      "   midi.NoteOnEvent(tick=58, channel=1, data=[72, 0]),\n",
      "   midi.NoteOnEvent(tick=2, channel=1, data=[74, 127]),\n",
      "   midi.NoteOnEvent(tick=115, channel=1, data=[74, 0]),\n",
      "   midi.NoteOnEvent(tick=5, channel=1, data=[76, 127]),\n",
      "   midi.NoteOnEvent(tick=60, channel=1, data=[74, 127]),\n",
      "   midi.NoteOnEvent(tick=26, channel=1, data=[76, 0]),\n",
      "   midi.NoteOnEvent(tick=94, channel=1, data=[72, 127]),\n",
      "   midi.NoteOnEvent(tick=11, channel=1, data=[74, 0]),\n",
      "   midi.NoteOnEvent(tick=109, channel=1, data=[74, 127]),\n",
      "   midi.NoteOnEvent(tick=3, channel=1, data=[72, 0]),\n",
      "   midi.NoteOnEvent(tick=117, channel=1, data=[76, 127]),\n",
      "   midi.NoteOnEvent(tick=19, channel=1, data=[74, 0]),\n",
      "   midi.NoteOnEvent(tick=155, channel=1, data=[76, 0]),\n",
      "   midi.NoteOnEvent(tick=6, channel=1, data=[74, 127]),\n",
      "   midi.NoteOnEvent(tick=120, channel=1, data=[72, 127]),\n",
      "   midi.NoteOnEvent(tick=8, channel=1, data=[74, 0]),\n",
      "   midi.NoteOnEvent(tick=52, channel=1, data=[69, 127]),\n",
      "   midi.NoteOnEvent(tick=8, channel=1, data=[72, 0]),\n",
      "   midi.NoteOnEvent(tick=227, channel=1, data=[69, 0]),\n",
      "   midi.NoteOnEvent(tick=5, channel=1, data=[72, 127]),\n",
      "   midi.NoteOnEvent(tick=51, channel=1, data=[72, 0]),\n",
      "   midi.NoteOnEvent(tick=9, channel=1, data=[74, 127]),\n",
      "   midi.NoteOnEvent(tick=117, channel=1, data=[74, 0]),\n",
      "   midi.NoteOnEvent(tick=3, channel=1, data=[72, 127]),\n",
      "   midi.NoteOnEvent(tick=60, channel=1, data=[74, 127]),\n",
      "   midi.NoteOnEvent(tick=11, channel=1, data=[72, 0]),\n",
      "   midi.NoteOnEvent(tick=109, channel=1, data=[76, 127]),\n",
      "   midi.NoteOnEvent(tick=7, channel=1, data=[74, 0]),\n",
      "   midi.NoteOnEvent(tick=173, channel=1, data=[74, 127]),\n",
      "   midi.NoteOnEvent(tick=19, channel=1, data=[76, 0]),\n",
      "   midi.NoteOnEvent(tick=101, channel=1, data=[72, 127]),\n",
      "   midi.NoteOnEvent(tick=3, channel=1, data=[74, 0]),\n",
      "   midi.NoteOnEvent(tick=57, channel=1, data=[69, 127]),\n",
      "   midi.NoteOnEvent(tick=9, channel=1, data=[72, 0]),\n",
      "   midi.NoteOnEvent(tick=478, channel=1, data=[69, 0]),\n",
      "   midi.NoteOnEvent(tick=53, channel=1, data=[74, 127]),\n",
      "   midi.NoteOnEvent(tick=116, channel=1, data=[74, 0]),\n",
      "   midi.NoteOnEvent(tick=4, channel=1, data=[76, 127]),\n",
      "   midi.NoteOnEvent(tick=120, channel=1, data=[74, 127]),\n",
      "   midi.NoteOnEvent(tick=20, channel=1, data=[76, 0]),\n",
      "   midi.NoteOnEvent(tick=95, channel=1, data=[74, 0]),\n",
      "   midi.NoteOnEvent(tick=5, channel=1, data=[72, 127]),\n",
      "   midi.NoteOnEvent(tick=60, channel=1, data=[69, 127]),\n",
      "   midi.NoteOnEvent(tick=21, channel=1, data=[72, 0]),\n",
      "   midi.NoteOnEvent(tick=219, channel=1, data=[72, 127]),\n",
      "   midi.NoteOnEvent(tick=18, channel=1, data=[69, 0]),\n",
      "   midi.NoteOnEvent(tick=15, channel=1, data=[72, 0]),\n",
      "   midi.NoteOnEvent(tick=27, channel=1, data=[74, 127]),\n",
      "   midi.NoteOnEvent(tick=115, channel=1, data=[74, 0]),\n",
      "   midi.NoteOnEvent(tick=5, channel=1, data=[72, 127]),\n",
      "   midi.NoteOnEvent(tick=120, channel=1, data=[74, 127]),\n",
      "   midi.NoteOnEvent(tick=6, channel=1, data=[72, 0]),\n",
      "   midi.NoteOnEvent(tick=114, channel=1, data=[76, 127]),\n",
      "   midi.NoteOnEvent(tick=4, channel=1, data=[74, 0]),\n",
      "   midi.NoteOnEvent(tick=107, channel=1, data=[76, 0]),\n",
      "   midi.NoteOnEvent(tick=9, channel=1, data=[74, 127]),\n",
      "   midi.NoteOnEvent(tick=120, channel=1, data=[72, 127]),\n",
      "   midi.NoteOnEvent(tick=11, channel=1, data=[74, 0]),\n",
      "   midi.NoteOnEvent(tick=49, channel=1, data=[69, 127]),\n",
      "   midi.NoteOnEvent(tick=8, channel=1, data=[72, 0]),\n",
      "   midi.NoteOnEvent(tick=445, channel=1, data=[69, 0]),\n",
      "   midi.NoteOnEvent(tick=87, channel=1, data=[74, 127]),\n",
      "   midi.NoteOnEvent(tick=113, channel=1, data=[74, 0]),\n",
      "   midi.NoteOnEvent(tick=7, channel=1, data=[76, 127]),\n",
      "   midi.NoteOnEvent(tick=120, channel=1, data=[74, 127]),\n",
      "   midi.NoteOnEvent(tick=7, channel=1, data=[76, 0]),\n",
      "   midi.NoteOnEvent(tick=106, channel=1, data=[74, 0]),\n",
      "   midi.NoteOnEvent(tick=7, channel=1, data=[72, 127]),\n",
      "   midi.NoteOnEvent(tick=60, channel=1, data=[69, 127]),\n",
      "   midi.NoteOnEvent(tick=10, channel=1, data=[72, 0]),\n",
      "   midi.NoteOnEvent(tick=230, channel=1, data=[72, 127]),\n",
      "   midi.NoteOnEvent(tick=12, channel=1, data=[69, 0]),\n",
      "   midi.NoteOnEvent(tick=43, channel=1, data=[72, 0]),\n",
      "   midi.NoteOnEvent(tick=5, channel=1, data=[74, 127]),\n",
      "   midi.NoteOnEvent(tick=120, channel=1, data=[72, 127]),\n",
      "   midi.NoteOnEvent(tick=4, channel=1, data=[74, 0]),\n",
      "   midi.NoteOnEvent(tick=116, channel=1, data=[74, 127]),\n",
      "   midi.NoteOnEvent(tick=13, channel=1, data=[72, 0]),\n",
      "   midi.NoteOnEvent(tick=107, channel=1, data=[76, 127]),\n",
      "   midi.NoteOnEvent(tick=3, channel=1, data=[74, 0]),\n",
      "   midi.NoteOnEvent(tick=117, channel=1, data=[74, 127]),\n",
      "   midi.NoteOnEvent(tick=16, channel=1, data=[76, 0]),\n",
      "   midi.NoteOnEvent(tick=104, channel=1, data=[72, 127]),\n",
      "   midi.NoteOnEvent(tick=20, channel=1, data=[74, 0]),\n",
      "   midi.NoteOnEvent(tick=40, channel=1, data=[69, 127]),\n",
      "   midi.NoteOnEvent(tick=6, channel=1, data=[72, 0]),\n",
      "   midi.NoteOnEvent(tick=305, channel=1, data=[69, 0]),\n",
      "   midi.NoteOnEvent(tick=229, channel=1, data=[74, 127]),\n",
      "   midi.NoteOnEvent(tick=116, channel=1, data=[74, 0]),\n",
      "   midi.NoteOnEvent(tick=4, channel=1, data=[76, 127]),\n",
      "   midi.NoteOnEvent(tick=120, channel=1, data=[74, 127]),\n",
      "   midi.NoteOnEvent(tick=20, channel=1, data=[76, 0]),\n",
      "   midi.NoteOnEvent(tick=95, channel=1, data=[74, 0]),\n",
      "   midi.NoteOnEvent(tick=5, channel=1, data=[72, 127]),\n",
      "   midi.NoteOnEvent(tick=60, channel=1, data=[69, 127]),\n",
      "   midi.NoteOnEvent(tick=21, channel=1, data=[72, 0]),\n",
      "   midi.NoteOnEvent(tick=219, channel=1, data=[72, 127]),\n",
      "   midi.NoteOnEvent(tick=18, channel=1, data=[69, 0]),\n",
      "   midi.NoteOnEvent(tick=15, channel=1, data=[72, 0]),\n",
      "   midi.NoteOnEvent(tick=27, channel=1, data=[74, 127]),\n",
      "   midi.NoteOnEvent(tick=115, channel=1, data=[74, 0]),\n",
      "   midi.NoteOnEvent(tick=5, channel=1, data=[72, 127]),\n",
      "   midi.NoteOnEvent(tick=120, channel=1, data=[74, 127]),\n",
      "   midi.NoteOnEvent(tick=6, channel=1, data=[72, 0]),\n",
      "   midi.NoteOnEvent(tick=114, channel=1, data=[76, 127]),\n",
      "   midi.NoteOnEvent(tick=4, channel=1, data=[74, 0]),\n",
      "   midi.NoteOnEvent(tick=107, channel=1, data=[76, 0]),\n",
      "   midi.NoteOnEvent(tick=9, channel=1, data=[74, 127]),\n",
      "   midi.NoteOnEvent(tick=120, channel=1, data=[72, 127]),\n",
      "   midi.NoteOnEvent(tick=11, channel=1, data=[74, 0]),\n",
      "   midi.NoteOnEvent(tick=49, channel=1, data=[69, 127]),\n",
      "   midi.NoteOnEvent(tick=8, channel=1, data=[72, 0]),\n",
      "   midi.NoteOnEvent(tick=445, channel=1, data=[69, 0]),\n",
      "   midi.NoteOnEvent(tick=87, channel=1, data=[74, 127]),\n",
      "   midi.NoteOnEvent(tick=113, channel=1, data=[74, 0]),\n",
      "   midi.NoteOnEvent(tick=7, channel=1, data=[76, 127]),\n",
      "   midi.NoteOnEvent(tick=120, channel=1, data=[74, 127]),\n",
      "   midi.NoteOnEvent(tick=7, channel=1, data=[76, 0]),\n",
      "   midi.NoteOnEvent(tick=106, channel=1, data=[74, 0]),\n",
      "   midi.NoteOnEvent(tick=7, channel=1, data=[72, 127]),\n",
      "   midi.NoteOnEvent(tick=60, channel=1, data=[69, 127]),\n",
      "   midi.NoteOnEvent(tick=10, channel=1, data=[72, 0]),\n",
      "   midi.NoteOnEvent(tick=230, channel=1, data=[72, 127]),\n",
      "   midi.NoteOnEvent(tick=12, channel=1, data=[69, 0]),\n",
      "   midi.NoteOnEvent(tick=43, channel=1, data=[72, 0]),\n",
      "   midi.NoteOnEvent(tick=5, channel=1, data=[74, 127]),\n",
      "   midi.NoteOnEvent(tick=120, channel=1, data=[72, 127]),\n",
      "   midi.NoteOnEvent(tick=4, channel=1, data=[74, 0]),\n",
      "   midi.NoteOnEvent(tick=116, channel=1, data=[74, 127]),\n",
      "   midi.NoteOnEvent(tick=13, channel=1, data=[72, 0]),\n",
      "   midi.NoteOnEvent(tick=107, channel=1, data=[76, 127]),\n",
      "   midi.NoteOnEvent(tick=3, channel=1, data=[74, 0]),\n",
      "   midi.NoteOnEvent(tick=117, channel=1, data=[74, 127]),\n",
      "   midi.NoteOnEvent(tick=16, channel=1, data=[76, 0]),\n",
      "   midi.NoteOnEvent(tick=104, channel=1, data=[72, 127]),\n",
      "   midi.NoteOnEvent(tick=20, channel=1, data=[74, 0]),\n",
      "   midi.NoteOnEvent(tick=40, channel=1, data=[69, 127]),\n",
      "   midi.NoteOnEvent(tick=6, channel=1, data=[72, 0]),\n",
      "   midi.NoteOnEvent(tick=305, channel=1, data=[69, 0]),\n",
      "   midi.EndOfTrackEvent(tick=0, data=[])]),\n",
      " midi.Track(\\\n",
      "  [midi.PortEvent(tick=0, data=[0]),\n",
      "   midi.TrackNameEvent(tick=0, text='SynthBass G-040', data=[83, 121, 110, 116, 104, 66, 97, 115, 115, 32, 71, 45, 48, 52, 48]),\n",
      "   midi.ProgramChangeEvent(tick=0, channel=2, data=[39]),\n",
      "   midi.ControlChangeEvent(tick=0, channel=2, data=[7, 99]),\n",
      "   midi.ControlChangeEvent(tick=0, channel=2, data=[10, 44]),\n",
      "   midi.NoteOnEvent(tick=9120, channel=2, data=[33, 127]),\n",
      "   midi.NoteOnEvent(tick=144, channel=2, data=[33, 0]),\n",
      "   midi.NoteOnEvent(tick=36, channel=2, data=[33, 127]),\n",
      "   midi.NoteOnEvent(tick=28, channel=2, data=[33, 0]),\n",
      "   midi.NoteOnEvent(tick=32, channel=2, data=[33, 127]),\n",
      "   midi.NoteOnEvent(tick=199, channel=2, data=[33, 0]),\n",
      "   midi.NoteOnEvent(tick=41, channel=2, data=[33, 127]),\n",
      "   midi.NoteOnEvent(tick=139, channel=2, data=[33, 0]),\n",
      "   midi.NoteOnEvent(tick=41, channel=2, data=[33, 127]),\n",
      "   midi.NoteOnEvent(tick=30, channel=2, data=[33, 0]),\n",
      "   midi.NoteOnEvent(tick=30, channel=2, data=[33, 127]),\n",
      "   midi.NoteOnEvent(tick=187, channel=2, data=[33, 0]),\n",
      "   midi.NoteOnEvent(tick=53, channel=2, data=[33, 127]),\n",
      "   midi.NoteOnEvent(tick=151, channel=2, data=[33, 0]),\n",
      "   midi.NoteOnEvent(tick=29, channel=2, data=[33, 127]),\n",
      "   midi.NoteOnEvent(tick=30, channel=2, data=[33, 0]),\n",
      "   midi.NoteOnEvent(tick=30, channel=2, data=[33, 127]),\n",
      "   midi.NoteOnEvent(tick=203, channel=2, data=[33, 0]),\n",
      "   midi.NoteOnEvent(tick=37, channel=2, data=[33, 127]),\n",
      "   midi.NoteOnEvent(tick=161, channel=2, data=[33, 0]),\n",
      "   midi.NoteOnEvent(tick=19, channel=2, data=[33, 127]),\n",
      "   midi.NoteOnEvent(tick=27, channel=2, data=[33, 0]),\n",
      "   midi.NoteOnEvent(tick=33, channel=2, data=[33, 127]),\n",
      "   midi.NoteOnEvent(tick=185, channel=2, data=[33, 0]),\n",
      "   midi.NoteOnEvent(tick=55, channel=2, data=[33, 127]),\n",
      "   midi.NoteOnEvent(tick=135, channel=2, data=[33, 0]),\n",
      "   midi.NoteOnEvent(tick=45, channel=2, data=[33, 127]),\n",
      "   midi.NoteOnEvent(tick=21, channel=2, data=[33, 0]),\n",
      "   midi.NoteOnEvent(tick=39, channel=2, data=[33, 127]),\n",
      "   midi.NoteOnEvent(tick=191, channel=2, data=[33, 0]),\n",
      "   midi.NoteOnEvent(tick=49, channel=2, data=[33, 127]),\n",
      "   midi.NoteOnEvent(tick=145, channel=2, data=[33, 0]),\n",
      "   midi.NoteOnEvent(tick=35, channel=2, data=[33, 127]),\n",
      "   midi.NoteOnEvent(tick=28, channel=2, data=[33, 0]),\n",
      "   midi.NoteOnEvent(tick=32, channel=2, data=[33, 127]),\n",
      "   midi.NoteOnEvent(tick=202, channel=2, data=[33, 0]),\n",
      "   midi.NoteOnEvent(tick=38, channel=2, data=[31, 127]),\n",
      "   midi.NoteOnEvent(tick=147, channel=2, data=[31, 0]),\n",
      "   midi.NoteOnEvent(tick=33, channel=2, data=[31, 127]),\n",
      "   midi.NoteOnEvent(tick=22, channel=2, data=[31, 0]),\n",
      "   midi.NoteOnEvent(tick=38, channel=2, data=[31, 127]),\n",
      "   midi.NoteOnEvent(tick=203, channel=2, data=[31, 0]),\n",
      "   midi.NoteOnEvent(tick=37, channel=2, data=[31, 127]),\n",
      "   midi.NoteOnEvent(tick=159, channel=2, data=[31, 0]),\n",
      "   midi.NoteOnEvent(tick=21, channel=2, data=[31, 127]),\n",
      "   midi.NoteOnEvent(tick=24, channel=2, data=[31, 0]),\n",
      "   midi.NoteOnEvent(tick=36, channel=2, data=[31, 127]),\n",
      "   midi.NoteOnEvent(tick=194, channel=2, data=[31, 0]),\n",
      "   midi.NoteOnEvent(tick=46, channel=2, data=[33, 127]),\n",
      "   midi.NoteOnEvent(tick=146, channel=2, data=[33, 0]),\n",
      "   midi.NoteOnEvent(tick=34, channel=2, data=[33, 127]),\n",
      "   midi.NoteOnEvent(tick=25, channel=2, data=[33, 0]),\n",
      "   midi.NoteOnEvent(tick=35, channel=2, data=[33, 127]),\n",
      "   midi.NoteOnEvent(tick=186, channel=2, data=[33, 0]),\n",
      "   midi.NoteOnEvent(tick=54, channel=2, data=[33, 127]),\n",
      "   midi.NoteOnEvent(tick=161, channel=2, data=[33, 0]),\n",
      "   midi.NoteOnEvent(tick=19, channel=2, data=[33, 127]),\n",
      "   midi.NoteOnEvent(tick=27, channel=2, data=[33, 0]),\n",
      "   midi.NoteOnEvent(tick=33, channel=2, data=[33, 127]),\n",
      "   midi.NoteOnEvent(tick=181, channel=2, data=[33, 0]),\n",
      "   midi.NoteOnEvent(tick=59, channel=2, data=[31, 127]),\n",
      "   midi.NoteOnEvent(tick=158, channel=2, data=[31, 0]),\n",
      "   midi.NoteOnEvent(tick=22, channel=2, data=[31, 127]),\n",
      "   midi.NoteOnEvent(tick=26, channel=2, data=[31, 0]),\n",
      "   midi.NoteOnEvent(tick=34, channel=2, data=[31, 127]),\n",
      "   midi.NoteOnEvent(tick=183, channel=2, data=[31, 0]),\n",
      "   midi.NoteOnEvent(tick=57, channel=2, data=[31, 127]),\n",
      "   midi.NoteOnEvent(tick=158, channel=2, data=[31, 0]),\n",
      "   midi.NoteOnEvent(tick=22, channel=2, data=[31, 127]),\n",
      "   midi.NoteOnEvent(tick=24, channel=2, data=[31, 0]),\n",
      "   midi.NoteOnEvent(tick=36, channel=2, data=[31, 127]),\n",
      "   midi.NoteOnEvent(tick=182, channel=2, data=[31, 0]),\n",
      "   midi.NoteOnEvent(tick=58, channel=2, data=[29, 127]),\n",
      "   midi.NoteOnEvent(tick=143, channel=2, data=[29, 0]),\n",
      "   midi.NoteOnEvent(tick=37, channel=2, data=[29, 127]),\n",
      "   midi.NoteOnEvent(tick=26, channel=2, data=[29, 0]),\n",
      "   midi.NoteOnEvent(tick=34, channel=2, data=[29, 127]),\n",
      "   midi.NoteOnEvent(tick=185, channel=2, data=[29, 0]),\n",
      "   midi.NoteOnEvent(tick=55, channel=2, data=[29, 127]),\n",
      "   midi.NoteOnEvent(tick=142, channel=2, data=[29, 0]),\n",
      "   midi.NoteOnEvent(tick=38, channel=2, data=[29, 127]),\n",
      "   midi.NoteOnEvent(tick=30, channel=2, data=[29, 0]),\n",
      "   midi.NoteOnEvent(tick=30, channel=2, data=[29, 127]),\n",
      "   midi.NoteOnEvent(tick=180, channel=2, data=[29, 0]),\n",
      "   midi.NoteOnEvent(tick=60, channel=2, data=[31, 127]),\n",
      "   midi.NoteOnEvent(tick=147, channel=2, data=[31, 0]),\n",
      "   midi.NoteOnEvent(tick=33, channel=2, data=[31, 127]),\n",
      "   midi.NoteOnEvent(tick=25, channel=2, data=[31, 0]),\n",
      "   midi.NoteOnEvent(tick=35, channel=2, data=[31, 127]),\n",
      "   midi.NoteOnEvent(tick=198, channel=2, data=[31, 0]),\n",
      "   midi.NoteOnEvent(tick=42, channel=2, data=[31, 127]),\n",
      "   midi.NoteOnEvent(tick=162, channel=2, data=[31, 0]),\n",
      "   midi.NoteOnEvent(tick=18, channel=2, data=[31, 127]),\n",
      "   midi.NoteOnEvent(tick=27, channel=2, data=[31, 0]),\n",
      "   midi.NoteOnEvent(tick=33, channel=2, data=[31, 127]),\n",
      "   midi.NoteOnEvent(tick=179, channel=2, data=[31, 0]),\n",
      "   midi.NoteOnEvent(tick=61, channel=2, data=[33, 127]),\n",
      "   midi.NoteOnEvent(tick=144, channel=2, data=[33, 0]),\n",
      "   midi.NoteOnEvent(tick=36, channel=2, data=[33, 127]),\n",
      "   midi.NoteOnEvent(tick=28, channel=2, data=[33, 0]),\n",
      "   midi.NoteOnEvent(tick=32, channel=2, data=[33, 127]),\n",
      "   midi.NoteOnEvent(tick=199, channel=2, data=[33, 0]),\n",
      "   midi.NoteOnEvent(tick=41, channel=2, data=[33, 127]),\n",
      "   midi.NoteOnEvent(tick=139, channel=2, data=[33, 0]),\n",
      "   midi.NoteOnEvent(tick=41, channel=2, data=[33, 127]),\n",
      "   midi.NoteOnEvent(tick=30, channel=2, data=[33, 0]),\n",
      "   midi.NoteOnEvent(tick=30, channel=2, data=[33, 127]),\n",
      "   midi.NoteOnEvent(tick=187, channel=2, data=[33, 0]),\n",
      "   midi.NoteOnEvent(tick=53, channel=2, data=[33, 127]),\n",
      "   midi.NoteOnEvent(tick=151, channel=2, data=[33, 0]),\n",
      "   midi.NoteOnEvent(tick=29, channel=2, data=[33, 127]),\n",
      "   midi.NoteOnEvent(tick=30, channel=2, data=[33, 0]),\n",
      "   midi.NoteOnEvent(tick=30, channel=2, data=[33, 127]),\n",
      "   midi.NoteOnEvent(tick=203, channel=2, data=[33, 0]),\n",
      "   midi.NoteOnEvent(tick=37, channel=2, data=[33, 127]),\n",
      "   midi.NoteOnEvent(tick=135, channel=2, data=[33, 0]),\n",
      "   midi.NoteOnEvent(tick=45, channel=2, data=[33, 127]),\n",
      "   midi.NoteOnEvent(tick=21, channel=2, data=[33, 0]),\n",
      "   midi.NoteOnEvent(tick=39, channel=2, data=[33, 127]),\n",
      "   midi.NoteOnEvent(tick=191, channel=2, data=[33, 0]),\n",
      "   midi.NoteOnEvent(tick=49, channel=2, data=[33, 127]),\n",
      "   midi.NoteOnEvent(tick=145, channel=2, data=[33, 0]),\n",
      "   midi.NoteOnEvent(tick=35, channel=2, data=[33, 127]),\n",
      "   midi.NoteOnEvent(tick=28, channel=2, data=[33, 0]),\n",
      "   midi.NoteOnEvent(tick=32, channel=2, data=[33, 127]),\n",
      "   midi.NoteOnEvent(tick=202, channel=2, data=[33, 0]),\n",
      "   midi.NoteOnEvent(tick=38, channel=2, data=[33, 127]),\n",
      "   midi.NoteOnEvent(tick=135, channel=2, data=[33, 0]),\n",
      "   midi.NoteOnEvent(tick=45, channel=2, data=[33, 127]),\n",
      "   midi.NoteOnEvent(tick=21, channel=2, data=[33, 0]),\n",
      "   midi.NoteOnEvent(tick=39, channel=2, data=[33, 127]),\n",
      "   midi.NoteOnEvent(tick=191, channel=2, data=[33, 0]),\n",
      "   midi.NoteOnEvent(tick=49, channel=2, data=[33, 127]),\n",
      "   midi.NoteOnEvent(tick=145, channel=2, data=[33, 0]),\n",
      "   midi.NoteOnEvent(tick=35, channel=2, data=[33, 127]),\n",
      "   midi.NoteOnEvent(tick=28, channel=2, data=[33, 0]),\n",
      "   midi.NoteOnEvent(tick=32, channel=2, data=[33, 127]),\n",
      "   midi.NoteOnEvent(tick=202, channel=2, data=[33, 0]),\n",
      "   midi.NoteOnEvent(tick=38, channel=2, data=[33, 127]),\n",
      "   midi.NoteOnEvent(tick=135, channel=2, data=[33, 0]),\n",
      "   midi.NoteOnEvent(tick=45, channel=2, data=[33, 127]),\n",
      "   midi.NoteOnEvent(tick=21, channel=2, data=[33, 0]),\n",
      "   midi.NoteOnEvent(tick=39, channel=2, data=[33, 127]),\n",
      "   midi.NoteOnEvent(tick=191, channel=2, data=[33, 0]),\n",
      "   midi.NoteOnEvent(tick=49, channel=2, data=[31, 127]),\n",
      "   midi.NoteOnEvent(tick=147, channel=2, data=[31, 0]),\n",
      "   midi.NoteOnEvent(tick=33, channel=2, data=[31, 127]),\n",
      "   midi.NoteOnEvent(tick=22, channel=2, data=[31, 0]),\n",
      "   midi.NoteOnEvent(tick=38, channel=2, data=[31, 127]),\n",
      "   midi.NoteOnEvent(tick=203, channel=2, data=[31, 0]),\n",
      "   midi.NoteOnEvent(tick=37, channel=2, data=[31, 127]),\n",
      "   midi.NoteOnEvent(tick=159, channel=2, data=[31, 0]),\n",
      "   midi.NoteOnEvent(tick=21, channel=2, data=[31, 127]),\n",
      "   midi.NoteOnEvent(tick=24, channel=2, data=[31, 0]),\n",
      "   midi.NoteOnEvent(tick=36, channel=2, data=[31, 127]),\n",
      "   midi.NoteOnEvent(tick=194, channel=2, data=[31, 0]),\n",
      "   midi.NoteOnEvent(tick=46, channel=2, data=[31, 127]),\n",
      "   midi.NoteOnEvent(tick=147, channel=2, data=[31, 0]),\n",
      "   midi.NoteOnEvent(tick=33, channel=2, data=[31, 127]),\n",
      "   midi.NoteOnEvent(tick=22, channel=2, data=[31, 0]),\n",
      "   midi.NoteOnEvent(tick=38, channel=2, data=[31, 127]),\n",
      "   midi.NoteOnEvent(tick=203, channel=2, data=[31, 0]),\n",
      "   midi.NoteOnEvent(tick=37, channel=2, data=[31, 127]),\n",
      "   midi.NoteOnEvent(tick=159, channel=2, data=[31, 0]),\n",
      "   midi.NoteOnEvent(tick=21, channel=2, data=[31, 127]),\n",
      "   midi.NoteOnEvent(tick=24, channel=2, data=[31, 0]),\n",
      "   midi.NoteOnEvent(tick=36, channel=2, data=[31, 127]),\n",
      "   midi.NoteOnEvent(tick=194, channel=2, data=[31, 0]),\n",
      "   midi.NoteOnEvent(tick=46, channel=2, data=[33, 127]),\n",
      "   midi.NoteOnEvent(tick=145, channel=2, data=[33, 0]),\n",
      "   midi.NoteOnEvent(tick=35, channel=2, data=[33, 127]),\n",
      "   midi.NoteOnEvent(tick=28, channel=2, data=[33, 0]),\n",
      "   midi.NoteOnEvent(tick=32, channel=2, data=[33, 127]),\n",
      "   midi.NoteOnEvent(tick=202, channel=2, data=[33, 0]),\n",
      "   midi.NoteOnEvent(tick=38, channel=2, data=[33, 127]),\n",
      "   midi.NoteOnEvent(tick=135, channel=2, data=[33, 0]),\n",
      "   midi.NoteOnEvent(tick=45, channel=2, data=[33, 127]),\n",
      "   midi.NoteOnEvent(tick=21, channel=2, data=[33, 0]),\n",
      "   midi.NoteOnEvent(tick=39, channel=2, data=[33, 127]),\n",
      "   midi.NoteOnEvent(tick=191, channel=2, data=[33, 0]),\n",
      "   midi.NoteOnEvent(tick=49, channel=2, data=[33, 127]),\n",
      "   midi.NoteOnEvent(tick=145, channel=2, data=[33, 0]),\n",
      "   midi.NoteOnEvent(tick=35, channel=2, data=[33, 127]),\n",
      "   midi.NoteOnEvent(tick=28, channel=2, data=[33, 0]),\n",
      "   midi.NoteOnEvent(tick=32, channel=2, data=[33, 127]),\n",
      "   midi.NoteOnEvent(tick=202, channel=2, data=[33, 0]),\n",
      "   midi.NoteOnEvent(tick=38, channel=2, data=[33, 127]),\n",
      "   midi.NoteOnEvent(tick=135, channel=2, data=[33, 0]),\n",
      "   midi.NoteOnEvent(tick=45, channel=2, data=[33, 127]),\n",
      "   midi.NoteOnEvent(tick=21, channel=2, data=[33, 0]),\n",
      "   midi.NoteOnEvent(tick=39, channel=2, data=[33, 127]),\n",
      "   midi.NoteOnEvent(tick=191, channel=2, data=[33, 0]),\n",
      "   midi.NoteOnEvent(tick=49, channel=2, data=[31, 127]),\n",
      "   midi.NoteOnEvent(tick=147, channel=2, data=[31, 0]),\n",
      "   midi.NoteOnEvent(tick=33, channel=2, data=[31, 127]),\n",
      "   midi.NoteOnEvent(tick=22, channel=2, data=[31, 0]),\n",
      "   midi.NoteOnEvent(tick=38, channel=2, data=[31, 127]),\n",
      "   midi.NoteOnEvent(tick=203, channel=2, data=[31, 0]),\n",
      "   midi.NoteOnEvent(tick=37, channel=2, data=[31, 127]),\n",
      "   midi.NoteOnEvent(tick=159, channel=2, data=[31, 0]),\n",
      "   midi.NoteOnEvent(tick=21, channel=2, data=[31, 127]),\n",
      "   midi.NoteOnEvent(tick=24, channel=2, data=[31, 0]),\n",
      "   midi.NoteOnEvent(tick=36, channel=2, data=[31, 127]),\n",
      "   midi.NoteOnEvent(tick=194, channel=2, data=[31, 0]),\n",
      "   midi.NoteOnEvent(tick=46, channel=2, data=[31, 127]),\n",
      "   midi.NoteOnEvent(tick=147, channel=2, data=[31, 0]),\n",
      "   midi.NoteOnEvent(tick=33, channel=2, data=[31, 127]),\n",
      "   midi.NoteOnEvent(tick=22, channel=2, data=[31, 0]),\n",
      "   midi.NoteOnEvent(tick=38, channel=2, data=[31, 127]),\n",
      "   midi.NoteOnEvent(tick=203, channel=2, data=[31, 0]),\n",
      "   midi.NoteOnEvent(tick=37, channel=2, data=[31, 127]),\n",
      "   midi.NoteOnEvent(tick=159, channel=2, data=[31, 0]),\n",
      "   midi.NoteOnEvent(tick=21, channel=2, data=[31, 127]),\n",
      "   midi.NoteOnEvent(tick=24, channel=2, data=[31, 0]),\n",
      "   midi.NoteOnEvent(tick=36, channel=2, data=[31, 127]),\n",
      "   midi.NoteOnEvent(tick=194, channel=2, data=[31, 0]),\n",
      "   midi.NoteOnEvent(tick=46, channel=2, data=[29, 127]),\n",
      "   midi.NoteOnEvent(tick=131, channel=2, data=[29, 0]),\n",
      "   midi.NoteOnEvent(tick=49, channel=2, data=[29, 127]),\n",
      "   midi.NoteOnEvent(tick=28, channel=2, data=[29, 0]),\n",
      "   midi.NoteOnEvent(tick=32, channel=2, data=[29, 127]),\n",
      "   midi.NoteOnEvent(tick=182, channel=2, data=[29, 0]),\n",
      "   midi.NoteOnEvent(tick=58, channel=2, data=[29, 127]),\n",
      "   midi.NoteOnEvent(tick=127, channel=2, data=[29, 0]),\n",
      "   midi.NoteOnEvent(tick=53, channel=2, data=[29, 127]),\n",
      "   midi.NoteOnEvent(tick=22, channel=2, data=[29, 0]),\n",
      "   midi.NoteOnEvent(tick=38, channel=2, data=[29, 127]),\n",
      "   midi.NoteOnEvent(tick=165, channel=2, data=[29, 0]),\n",
      "   midi.NoteOnEvent(tick=75, channel=2, data=[31, 127]),\n",
      "   midi.NoteOnEvent(tick=119, channel=2, data=[31, 0]),\n",
      "   midi.NoteOnEvent(tick=61, channel=2, data=[31, 127]),\n",
      "   midi.NoteOnEvent(tick=21, channel=2, data=[31, 0]),\n",
      "   midi.NoteOnEvent(tick=39, channel=2, data=[31, 127]),\n",
      "   midi.NoteOnEvent(tick=167, channel=2, data=[31, 0]),\n",
      "   midi.NoteOnEvent(tick=73, channel=2, data=[31, 127]),\n",
      "   midi.NoteOnEvent(tick=125, channel=2, data=[31, 0]),\n",
      "   midi.NoteOnEvent(tick=55, channel=2, data=[31, 127]),\n",
      "   midi.NoteOnEvent(tick=25, channel=2, data=[31, 0]),\n",
      "   midi.NoteOnEvent(tick=35, channel=2, data=[31, 127]),\n",
      "   midi.NoteOnEvent(tick=189, channel=2, data=[31, 0]),\n",
      "   midi.NoteOnEvent(tick=51, channel=2, data=[29, 127]),\n",
      "   midi.NoteOnEvent(tick=127, channel=2, data=[29, 0]),\n",
      "   midi.NoteOnEvent(tick=53, channel=2, data=[29, 127]),\n",
      "   midi.NoteOnEvent(tick=20, channel=2, data=[29, 0]),\n",
      "   midi.NoteOnEvent(tick=40, channel=2, data=[29, 127]),\n",
      "   midi.NoteOnEvent(tick=178, channel=2, data=[29, 0]),\n",
      "   midi.NoteOnEvent(tick=62, channel=2, data=[29, 127]),\n",
      "   midi.NoteOnEvent(tick=189, channel=2, data=[29, 0]),\n",
      "   midi.NoteOnEvent(tick=51, channel=2, data=[29, 127]),\n",
      "   midi.NoteOnEvent(tick=157, channel=2, data=[29, 0]),\n",
      "   midi.NoteOnEvent(tick=53, channel=2, data=[29, 127]),\n",
      "   midi.NoteOnEvent(tick=19, channel=2, data=[29, 0]),\n",
      "   midi.NoteOnEvent(tick=71, channel=2, data=[31, 127]),\n",
      "   midi.NoteOnEvent(tick=137, channel=2, data=[31, 0]),\n",
      "   midi.NoteOnEvent(tick=43, channel=2, data=[31, 127]),\n",
      "   midi.NoteOnEvent(tick=164, channel=2, data=[31, 0]),\n",
      "   midi.NoteOnEvent(tick=76, channel=2, data=[31, 127]),\n",
      "   midi.NoteOnEvent(tick=78, channel=2, data=[31, 0]),\n",
      "   midi.NoteOnEvent(tick=402, channel=2, data=[33, 127]),\n",
      "   midi.NoteOnEvent(tick=135, channel=2, data=[33, 0]),\n",
      "   midi.NoteOnEvent(tick=45, channel=2, data=[33, 127]),\n",
      "   midi.NoteOnEvent(tick=21, channel=2, data=[33, 0]),\n",
      "   midi.NoteOnEvent(tick=39, channel=2, data=[33, 127]),\n",
      "   midi.NoteOnEvent(tick=191, channel=2, data=[33, 0]),\n",
      "   midi.NoteOnEvent(tick=49, channel=2, data=[33, 127]),\n",
      "   midi.NoteOnEvent(tick=145, channel=2, data=[33, 0]),\n",
      "   midi.NoteOnEvent(tick=35, channel=2, data=[33, 127]),\n",
      "   midi.NoteOnEvent(tick=28, channel=2, data=[33, 0]),\n",
      "   midi.NoteOnEvent(tick=32, channel=2, data=[33, 127]),\n",
      "   midi.NoteOnEvent(tick=202, channel=2, data=[33, 0]),\n",
      "   midi.NoteOnEvent(tick=38, channel=2, data=[31, 127]),\n",
      "   midi.NoteOnEvent(tick=147, channel=2, data=[31, 0]),\n",
      "   midi.NoteOnEvent(tick=33, channel=2, data=[31, 127]),\n",
      "   midi.NoteOnEvent(tick=22, channel=2, data=[31, 0]),\n",
      "   midi.NoteOnEvent(tick=38, channel=2, data=[31, 127]),\n",
      "   midi.NoteOnEvent(tick=203, channel=2, data=[31, 0]),\n",
      "   midi.NoteOnEvent(tick=37, channel=2, data=[31, 127]),\n",
      "   midi.NoteOnEvent(tick=159, channel=2, data=[31, 0]),\n",
      "   midi.NoteOnEvent(tick=21, channel=2, data=[31, 127]),\n",
      "   midi.NoteOnEvent(tick=24, channel=2, data=[31, 0]),\n",
      "   midi.NoteOnEvent(tick=36, channel=2, data=[31, 127]),\n",
      "   midi.NoteOnEvent(tick=194, channel=2, data=[31, 0]),\n",
      "   midi.NoteOnEvent(tick=46, channel=2, data=[33, 127]),\n",
      "   midi.NoteOnEvent(tick=146, channel=2, data=[33, 0]),\n",
      "   midi.NoteOnEvent(tick=34, channel=2, data=[33, 127]),\n",
      "   midi.NoteOnEvent(tick=25, channel=2, data=[33, 0]),\n",
      "   midi.NoteOnEvent(tick=35, channel=2, data=[33, 127]),\n",
      "   midi.NoteOnEvent(tick=186, channel=2, data=[33, 0]),\n",
      "   midi.NoteOnEvent(tick=54, channel=2, data=[33, 127]),\n",
      "   midi.NoteOnEvent(tick=161, channel=2, data=[33, 0]),\n",
      "   midi.NoteOnEvent(tick=19, channel=2, data=[33, 127]),\n",
      "   midi.NoteOnEvent(tick=27, channel=2, data=[33, 0]),\n",
      "   midi.NoteOnEvent(tick=33, channel=2, data=[33, 127]),\n",
      "   midi.NoteOnEvent(tick=181, channel=2, data=[33, 0]),\n",
      "   midi.NoteOnEvent(tick=59, channel=2, data=[31, 127]),\n",
      "   midi.NoteOnEvent(tick=158, channel=2, data=[31, 0]),\n",
      "   midi.NoteOnEvent(tick=22, channel=2, data=[31, 127]),\n",
      "   midi.NoteOnEvent(tick=26, channel=2, data=[31, 0]),\n",
      "   midi.NoteOnEvent(tick=34, channel=2, data=[31, 127]),\n",
      "   midi.NoteOnEvent(tick=183, channel=2, data=[31, 0]),\n",
      "   midi.NoteOnEvent(tick=57, channel=2, data=[31, 127]),\n",
      "   midi.NoteOnEvent(tick=158, channel=2, data=[31, 0]),\n",
      "   midi.NoteOnEvent(tick=22, channel=2, data=[31, 127]),\n",
      "   midi.NoteOnEvent(tick=24, channel=2, data=[31, 0]),\n",
      "   midi.NoteOnEvent(tick=36, channel=2, data=[31, 127]),\n",
      "   midi.NoteOnEvent(tick=182, channel=2, data=[31, 0]),\n",
      "   midi.NoteOnEvent(tick=58, channel=2, data=[33, 127]),\n",
      "   midi.NoteOnEvent(tick=145, channel=2, data=[33, 0]),\n",
      "   midi.NoteOnEvent(tick=35, channel=2, data=[33, 127]),\n",
      "   midi.NoteOnEvent(tick=28, channel=2, data=[33, 0]),\n",
      "   midi.NoteOnEvent(tick=32, channel=2, data=[33, 127]),\n",
      "   midi.NoteOnEvent(tick=202, channel=2, data=[33, 0]),\n",
      "   midi.NoteOnEvent(tick=38, channel=2, data=[33, 127]),\n",
      "   midi.NoteOnEvent(tick=135, channel=2, data=[33, 0]),\n",
      "   midi.NoteOnEvent(tick=45, channel=2, data=[33, 127]),\n",
      "   midi.NoteOnEvent(tick=21, channel=2, data=[33, 0]),\n",
      "   midi.NoteOnEvent(tick=39, channel=2, data=[33, 127]),\n",
      "   midi.NoteOnEvent(tick=191, channel=2, data=[33, 0]),\n",
      "   midi.NoteOnEvent(tick=49, channel=2, data=[33, 127]),\n",
      "   midi.NoteOnEvent(tick=145, channel=2, data=[33, 0]),\n",
      "   midi.NoteOnEvent(tick=35, channel=2, data=[33, 127]),\n",
      "   midi.NoteOnEvent(tick=28, channel=2, data=[33, 0]),\n",
      "   midi.NoteOnEvent(tick=32, channel=2, data=[33, 127]),\n",
      "   midi.NoteOnEvent(tick=202, channel=2, data=[33, 0]),\n",
      "   midi.NoteOnEvent(tick=38, channel=2, data=[33, 127]),\n",
      "   midi.NoteOnEvent(tick=135, channel=2, data=[33, 0]),\n",
      "   midi.NoteOnEvent(tick=45, channel=2, data=[33, 127]),\n",
      "   midi.NoteOnEvent(tick=21, channel=2, data=[33, 0]),\n",
      "   midi.NoteOnEvent(tick=39, channel=2, data=[33, 127]),\n",
      "   midi.NoteOnEvent(tick=191, channel=2, data=[33, 0]),\n",
      "   midi.NoteOnEvent(tick=49, channel=2, data=[31, 127]),\n",
      "   midi.NoteOnEvent(tick=147, channel=2, data=[31, 0]),\n",
      "   midi.NoteOnEvent(tick=33, channel=2, data=[31, 127]),\n",
      "   midi.NoteOnEvent(tick=22, channel=2, data=[31, 0]),\n",
      "   midi.NoteOnEvent(tick=38, channel=2, data=[31, 127]),\n",
      "   midi.NoteOnEvent(tick=203, channel=2, data=[31, 0]),\n",
      "   midi.NoteOnEvent(tick=37, channel=2, data=[31, 127]),\n",
      "   midi.NoteOnEvent(tick=159, channel=2, data=[31, 0]),\n",
      "   midi.NoteOnEvent(tick=21, channel=2, data=[31, 127]),\n",
      "   midi.NoteOnEvent(tick=24, channel=2, data=[31, 0]),\n",
      "   midi.NoteOnEvent(tick=36, channel=2, data=[31, 127]),\n",
      "   midi.NoteOnEvent(tick=194, channel=2, data=[31, 0]),\n",
      "   midi.NoteOnEvent(tick=46, channel=2, data=[31, 127]),\n",
      "   midi.NoteOnEvent(tick=147, channel=2, data=[31, 0]),\n",
      "   midi.NoteOnEvent(tick=33, channel=2, data=[31, 127]),\n",
      "   midi.NoteOnEvent(tick=22, channel=2, data=[31, 0]),\n",
      "   midi.NoteOnEvent(tick=38, channel=2, data=[31, 127]),\n",
      "   midi.NoteOnEvent(tick=203, channel=2, data=[31, 0]),\n",
      "   midi.NoteOnEvent(tick=37, channel=2, data=[31, 127]),\n",
      "   midi.NoteOnEvent(tick=159, channel=2, data=[31, 0]),\n",
      "   midi.NoteOnEvent(tick=21, channel=2, data=[31, 127]),\n",
      "   midi.NoteOnEvent(tick=24, channel=2, data=[31, 0]),\n",
      "   midi.NoteOnEvent(tick=36, channel=2, data=[31, 127]),\n",
      "   midi.NoteOnEvent(tick=194, channel=2, data=[31, 0]),\n",
      "   midi.NoteOnEvent(tick=46, channel=2, data=[33, 127]),\n",
      "   midi.NoteOnEvent(tick=145, channel=2, data=[33, 0]),\n",
      "   midi.NoteOnEvent(tick=35, channel=2, data=[33, 127]),\n",
      "   midi.NoteOnEvent(tick=28, channel=2, data=[33, 0]),\n",
      "   midi.NoteOnEvent(tick=32, channel=2, data=[33, 127]),\n",
      "   midi.NoteOnEvent(tick=202, channel=2, data=[33, 0]),\n",
      "   midi.NoteOnEvent(tick=38, channel=2, data=[33, 127]),\n",
      "   midi.NoteOnEvent(tick=135, channel=2, data=[33, 0]),\n",
      "   midi.NoteOnEvent(tick=45, channel=2, data=[33, 127]),\n",
      "   midi.NoteOnEvent(tick=21, channel=2, data=[33, 0]),\n",
      "   midi.NoteOnEvent(tick=39, channel=2, data=[33, 127]),\n",
      "   midi.NoteOnEvent(tick=191, channel=2, data=[33, 0]),\n",
      "   midi.NoteOnEvent(tick=49, channel=2, data=[33, 127]),\n",
      "   midi.NoteOnEvent(tick=145, channel=2, data=[33, 0]),\n",
      "   midi.NoteOnEvent(tick=35, channel=2, data=[33, 127]),\n",
      "   midi.NoteOnEvent(tick=28, channel=2, data=[33, 0]),\n",
      "   midi.NoteOnEvent(tick=32, channel=2, data=[33, 127]),\n",
      "   midi.NoteOnEvent(tick=202, channel=2, data=[33, 0]),\n",
      "   midi.NoteOnEvent(tick=38, channel=2, data=[33, 127]),\n",
      "   midi.NoteOnEvent(tick=135, channel=2, data=[33, 0]),\n",
      "   midi.NoteOnEvent(tick=45, channel=2, data=[33, 127]),\n",
      "   midi.NoteOnEvent(tick=21, channel=2, data=[33, 0]),\n",
      "   midi.NoteOnEvent(tick=39, channel=2, data=[33, 127]),\n",
      "   midi.NoteOnEvent(tick=191, channel=2, data=[33, 0]),\n",
      "   midi.NoteOnEvent(tick=49, channel=2, data=[31, 127]),\n",
      "   midi.NoteOnEvent(tick=147, channel=2, data=[31, 0]),\n",
      "   midi.NoteOnEvent(tick=33, channel=2, data=[31, 127]),\n",
      "   midi.NoteOnEvent(tick=22, channel=2, data=[31, 0]),\n",
      "   midi.NoteOnEvent(tick=38, channel=2, data=[31, 127]),\n",
      "   midi.NoteOnEvent(tick=203, channel=2, data=[31, 0]),\n",
      "   midi.NoteOnEvent(tick=37, channel=2, data=[31, 127]),\n",
      "   midi.NoteOnEvent(tick=159, channel=2, data=[31, 0]),\n",
      "   midi.NoteOnEvent(tick=21, channel=2, data=[31, 127]),\n",
      "   midi.NoteOnEvent(tick=24, channel=2, data=[31, 0]),\n",
      "   midi.NoteOnEvent(tick=36, channel=2, data=[31, 127]),\n",
      "   midi.NoteOnEvent(tick=194, channel=2, data=[31, 0]),\n",
      "   midi.NoteOnEvent(tick=46, channel=2, data=[31, 127]),\n",
      "   midi.NoteOnEvent(tick=147, channel=2, data=[31, 0]),\n",
      "   midi.NoteOnEvent(tick=33, channel=2, data=[31, 127]),\n",
      "   midi.NoteOnEvent(tick=22, channel=2, data=[31, 0]),\n",
      "   midi.NoteOnEvent(tick=38, channel=2, data=[31, 127]),\n",
      "   midi.NoteOnEvent(tick=203, channel=2, data=[31, 0]),\n",
      "   midi.NoteOnEvent(tick=37, channel=2, data=[31, 127]),\n",
      "   midi.NoteOnEvent(tick=159, channel=2, data=[31, 0]),\n",
      "   midi.NoteOnEvent(tick=21, channel=2, data=[31, 127]),\n",
      "   midi.NoteOnEvent(tick=24, channel=2, data=[31, 0]),\n",
      "   midi.NoteOnEvent(tick=36, channel=2, data=[31, 127]),\n",
      "   midi.NoteOnEvent(tick=194, channel=2, data=[31, 0]),\n",
      "   midi.NoteOnEvent(tick=46, channel=2, data=[29, 127]),\n",
      "   midi.NoteOnEvent(tick=128, channel=2, data=[29, 0]),\n",
      "   midi.NoteOnEvent(tick=52, channel=2, data=[29, 127]),\n",
      "   midi.NoteOnEvent(tick=23, channel=2, data=[29, 0]),\n",
      "   midi.NoteOnEvent(tick=37, channel=2, data=[29, 127]),\n",
      "   midi.NoteOnEvent(tick=200, channel=2, data=[29, 0]),\n",
      "   midi.NoteOnEvent(tick=40, channel=2, data=[29, 127]),\n",
      "   midi.NoteOnEvent(tick=145, channel=2, data=[29, 0]),\n",
      "   midi.NoteOnEvent(tick=35, channel=2, data=[29, 127]),\n",
      "   midi.NoteOnEvent(tick=16, channel=2, data=[29, 0]),\n",
      "   midi.NoteOnEvent(tick=44, channel=2, data=[29, 127]),\n",
      "   midi.NoteOnEvent(tick=120, channel=2, data=[29, 127]),\n",
      "   midi.NoteOnEvent(tick=45, channel=2, data=[29, 0]),\n",
      "   midi.NoteOnEvent(tick=26, channel=2, data=[29, 0]),\n",
      "   midi.NoteOnEvent(tick=49, channel=2, data=[31, 127]),\n",
      "   midi.NoteOnEvent(tick=119, channel=2, data=[31, 0]),\n",
      "   midi.NoteOnEvent(tick=61, channel=2, data=[31, 127]),\n",
      "   midi.NoteOnEvent(tick=17, channel=2, data=[31, 0]),\n",
      "   midi.NoteOnEvent(tick=43, channel=2, data=[31, 127]),\n",
      "   midi.NoteOnEvent(tick=174, channel=2, data=[31, 0]),\n",
      "   midi.NoteOnEvent(tick=66, channel=2, data=[31, 127]),\n",
      "   midi.NoteOnEvent(tick=121, channel=2, data=[31, 0]),\n",
      "   midi.NoteOnEvent(tick=59, channel=2, data=[31, 127]),\n",
      "   midi.NoteOnEvent(tick=21, channel=2, data=[31, 0]),\n",
      "   midi.NoteOnEvent(tick=39, channel=2, data=[31, 127]),\n",
      "   midi.NoteOnEvent(tick=158, channel=2, data=[31, 0]),\n",
      "   midi.NoteOnEvent(tick=82, channel=2, data=[29, 127]),\n",
      "   midi.NoteOnEvent(tick=124, channel=2, data=[29, 0]),\n",
      "   midi.NoteOnEvent(tick=56, channel=2, data=[29, 127]),\n",
      "   midi.NoteOnEvent(tick=19, channel=2, data=[29, 0]),\n",
      "   midi.NoteOnEvent(tick=41, channel=2, data=[29, 127]),\n",
      "   midi.NoteOnEvent(tick=172, channel=2, data=[29, 0]),\n",
      "   midi.NoteOnEvent(tick=68, channel=2, data=[29, 127]),\n",
      "   midi.NoteOnEvent(tick=153, channel=2, data=[29, 0]),\n",
      "   midi.NoteOnEvent(tick=57, channel=2, data=[29, 127]),\n",
      "   midi.NoteOnEvent(tick=13, channel=2, data=[29, 0]),\n",
      "   midi.NoteOnEvent(tick=17, channel=2, data=[29, 127]),\n",
      "   midi.NoteOnEvent(tick=179, channel=2, data=[29, 0]),\n",
      "   midi.NoteOnEvent(tick=61, channel=2, data=[31, 127]),\n",
      "   midi.NoteOnEvent(tick=122, channel=2, data=[31, 0]),\n",
      "   midi.NoteOnEvent(tick=58, channel=2, data=[31, 127]),\n",
      "   midi.NoteOnEvent(tick=19, channel=2, data=[31, 0]),\n",
      "   midi.NoteOnEvent(tick=41, channel=2, data=[31, 127]),\n",
      "   midi.NoteOnEvent(tick=149, channel=2, data=[31, 0]),\n",
      "   midi.NoteOnEvent(tick=91, channel=2, data=[31, 127]),\n",
      "   midi.NoteOnEvent(tick=222, channel=2, data=[31, 0]),\n",
      "   midi.ControlChangeEvent(tick=253, channel=2, data=[7, 58]),\n",
      "   midi.NoteOnEvent(tick=1, channel=2, data=[48, 127]),\n",
      "   midi.ControlChangeEvent(tick=4, channel=2, data=[7, 88]),\n",
      "   midi.NoteOnEvent(tick=15, channel=2, data=[48, 0]),\n",
      "   midi.NoteOnEvent(tick=11, channel=2, data=[48, 127]),\n",
      "   midi.NoteOnEvent(tick=19, channel=2, data=[48, 0]),\n",
      "   midi.NoteOnEvent(tick=11, channel=2, data=[48, 127]),\n",
      "   midi.ControlChangeEvent(tick=4, channel=2, data=[7, 89]),\n",
      "   midi.NoteOnEvent(tick=15, channel=2, data=[48, 0]),\n",
      "   midi.NoteOnEvent(tick=11, channel=2, data=[48, 127]),\n",
      "   midi.NoteOnEvent(tick=19, channel=2, data=[48, 0]),\n",
      "   midi.ControlChangeEvent(tick=5, channel=2, data=[7, 90]),\n",
      "   midi.NoteOnEvent(tick=6, channel=2, data=[48, 127]),\n",
      "   midi.NoteOnEvent(tick=19, channel=2, data=[48, 0]),\n",
      "   midi.NoteOnEvent(tick=11, channel=2, data=[48, 127]),\n",
      "   midi.ControlChangeEvent(tick=14, channel=2, data=[7, 91]),\n",
      "   midi.NoteOnEvent(tick=5, channel=2, data=[48, 0]),\n",
      "   midi.NoteOnEvent(tick=11, channel=2, data=[48, 127]),\n",
      "   midi.NoteOnEvent(tick=19, channel=2, data=[48, 0]),\n",
      "   midi.NoteOnEvent(tick=11, channel=2, data=[48, 127]),\n",
      "   midi.ControlChangeEvent(tick=14, channel=2, data=[7, 92]),\n",
      "   midi.NoteOnEvent(tick=5, channel=2, data=[48, 0]),\n",
      "   midi.NoteOnEvent(tick=11, channel=2, data=[48, 127]),\n",
      "   midi.NoteOnEvent(tick=19, channel=2, data=[48, 0]),\n",
      "   midi.NoteOnEvent(tick=11, channel=2, data=[48, 127]),\n",
      "   midi.ControlChangeEvent(tick=4, channel=2, data=[7, 93]),\n",
      "   midi.NoteOnEvent(tick=15, channel=2, data=[48, 0]),\n",
      "   midi.NoteOnEvent(tick=11, channel=2, data=[48, 127]),\n",
      "   midi.NoteOnEvent(tick=19, channel=2, data=[48, 0]),\n",
      "   midi.ControlChangeEvent(tick=5, channel=2, data=[7, 94]),\n",
      "   midi.NoteOnEvent(tick=6, channel=2, data=[48, 127]),\n",
      "   midi.NoteOnEvent(tick=19, channel=2, data=[48, 0]),\n",
      "   midi.NoteOnEvent(tick=11, channel=2, data=[48, 127]),\n",
      "   midi.NoteOnEvent(tick=19, channel=2, data=[48, 0]),\n",
      "   midi.ControlChangeEvent(tick=5, channel=2, data=[7, 95]),\n",
      "   midi.NoteOnEvent(tick=6, channel=2, data=[48, 127]),\n",
      "   midi.NoteOnEvent(tick=19, channel=2, data=[48, 0]),\n",
      "   midi.NoteOnEvent(tick=11, channel=2, data=[48, 127]),\n",
      "   midi.ControlChangeEvent(tick=14, channel=2, data=[7, 96]),\n",
      "   midi.NoteOnEvent(tick=5, channel=2, data=[48, 0]),\n",
      "   midi.NoteOnEvent(tick=11, channel=2, data=[48, 127]),\n",
      "   midi.NoteOnEvent(tick=19, channel=2, data=[48, 0]),\n",
      "   midi.NoteOnEvent(tick=11, channel=2, data=[48, 127]),\n",
      "   midi.ControlChangeEvent(tick=4, channel=2, data=[7, 97]),\n",
      "   midi.NoteOnEvent(tick=15, channel=2, data=[48, 0]),\n",
      "   midi.NoteOnEvent(tick=11, channel=2, data=[48, 127]),\n",
      "   midi.NoteOnEvent(tick=19, channel=2, data=[48, 0]),\n",
      "   midi.NoteOnEvent(tick=11, channel=2, data=[48, 127]),\n",
      "   midi.ControlChangeEvent(tick=4, channel=2, data=[7, 98]),\n",
      "   midi.NoteOnEvent(tick=15, channel=2, data=[48, 0]),\n",
      "   midi.NoteOnEvent(tick=11, channel=2, data=[48, 127]),\n",
      "   midi.NoteOnEvent(tick=19, channel=2, data=[48, 0]),\n",
      "   midi.ControlChangeEvent(tick=5, channel=2, data=[7, 99]),\n",
      "   midi.NoteOnEvent(tick=6, channel=2, data=[48, 127]),\n",
      "   midi.NoteOnEvent(tick=19, channel=2, data=[48, 0]),\n",
      "   midi.NoteOnEvent(tick=11, channel=2, data=[48, 127]),\n",
      "   midi.ControlChangeEvent(tick=14, channel=2, data=[7, 100]),\n",
      "   midi.NoteOnEvent(tick=5, channel=2, data=[48, 0]),\n",
      "   midi.NoteOnEvent(tick=11, channel=2, data=[48, 127]),\n",
      "   midi.NoteOnEvent(tick=19, channel=2, data=[48, 0]),\n",
      "   midi.NoteOnEvent(tick=11, channel=2, data=[48, 127]),\n",
      "   midi.ControlChangeEvent(tick=14, channel=2, data=[7, 101]),\n",
      "   midi.NoteOnEvent(tick=5, channel=2, data=[48, 0]),\n",
      "   midi.NoteOnEvent(tick=11, channel=2, data=[48, 127]),\n",
      "   midi.NoteOnEvent(tick=19, channel=2, data=[48, 0]),\n",
      "   midi.NoteOnEvent(tick=11, channel=2, data=[48, 127]),\n",
      "   midi.ControlChangeEvent(tick=4, channel=2, data=[7, 102]),\n",
      "   midi.NoteOnEvent(tick=15, channel=2, data=[48, 0]),\n",
      "   midi.NoteOnEvent(tick=11, channel=2, data=[48, 127]),\n",
      "   midi.NoteOnEvent(tick=19, channel=2, data=[48, 0]),\n",
      "   midi.ControlChangeEvent(tick=5, channel=2, data=[7, 103]),\n",
      "   midi.NoteOnEvent(tick=6, channel=2, data=[48, 127]),\n",
      "   midi.NoteOnEvent(tick=19, channel=2, data=[48, 0]),\n",
      "   midi.NoteOnEvent(tick=11, channel=2, data=[48, 127]),\n",
      "   midi.NoteOnEvent(tick=19, channel=2, data=[48, 0]),\n",
      "   midi.ControlChangeEvent(tick=5, channel=2, data=[7, 104]),\n",
      "   midi.NoteOnEvent(tick=6, channel=2, data=[48, 127]),\n",
      "   midi.NoteOnEvent(tick=19, channel=2, data=[48, 0]),\n",
      "   midi.NoteOnEvent(tick=11, channel=2, data=[48, 127]),\n",
      "   midi.ControlChangeEvent(tick=14, channel=2, data=[7, 105]),\n",
      "   midi.NoteOnEvent(tick=5, channel=2, data=[48, 0]),\n",
      "   midi.NoteOnEvent(tick=11, channel=2, data=[48, 127]),\n",
      "   midi.NoteOnEvent(tick=19, channel=2, data=[48, 0]),\n",
      "   midi.NoteOnEvent(tick=11, channel=2, data=[48, 127]),\n",
      "   midi.ControlChangeEvent(tick=4, channel=2, data=[7, 106]),\n",
      "   midi.NoteOnEvent(tick=15, channel=2, data=[48, 0]),\n",
      "   midi.NoteOnEvent(tick=11, channel=2, data=[48, 127]),\n",
      "   midi.NoteOnEvent(tick=19, channel=2, data=[48, 0]),\n",
      "   midi.NoteOnEvent(tick=11, channel=2, data=[48, 127]),\n",
      "   midi.ControlChangeEvent(tick=4, channel=2, data=[7, 107]),\n",
      "   midi.NoteOnEvent(tick=15, channel=2, data=[48, 0]),\n",
      "   midi.NoteOnEvent(tick=11, channel=2, data=[48, 127]),\n",
      "   midi.NoteOnEvent(tick=19, channel=2, data=[48, 0]),\n",
      "   midi.ControlChangeEvent(tick=5, channel=2, data=[7, 108]),\n",
      "   midi.NoteOnEvent(tick=6, channel=2, data=[48, 127]),\n",
      "   midi.NoteOnEvent(tick=19, channel=2, data=[48, 0]),\n",
      "   midi.NoteOnEvent(tick=11, channel=2, data=[48, 127]),\n",
      "   midi.ControlChangeEvent(tick=14, channel=2, data=[7, 109]),\n",
      "   midi.NoteOnEvent(tick=5, channel=2, data=[48, 0]),\n",
      "   midi.NoteOnEvent(tick=11, channel=2, data=[48, 127]),\n",
      "   midi.NoteOnEvent(tick=19, channel=2, data=[48, 0]),\n",
      "   midi.NoteOnEvent(tick=11, channel=2, data=[48, 127]),\n",
      "   midi.ControlChangeEvent(tick=14, channel=2, data=[7, 110]),\n",
      "   midi.NoteOnEvent(tick=5, channel=2, data=[48, 0]),\n",
      "   midi.NoteOnEvent(tick=11, channel=2, data=[48, 127]),\n",
      "   midi.NoteOnEvent(tick=19, channel=2, data=[48, 0]),\n",
      "   midi.NoteOnEvent(tick=11, channel=2, data=[48, 127]),\n",
      "   midi.ControlChangeEvent(tick=4, channel=2, data=[7, 111]),\n",
      "   midi.NoteOnEvent(tick=15, channel=2, data=[48, 0]),\n",
      "   midi.NoteOnEvent(tick=11, channel=2, data=[48, 127]),\n",
      "   midi.NoteOnEvent(tick=19, channel=2, data=[48, 0]),\n",
      "   midi.ControlChangeEvent(tick=5, channel=2, data=[7, 112]),\n",
      "   midi.NoteOnEvent(tick=6, channel=2, data=[48, 127]),\n",
      "   midi.NoteOnEvent(tick=19, channel=2, data=[48, 0]),\n",
      "   midi.NoteOnEvent(tick=11, channel=2, data=[48, 127]),\n",
      "   midi.NoteOnEvent(tick=19, channel=2, data=[48, 0]),\n",
      "   midi.ControlChangeEvent(tick=5, channel=2, data=[7, 113]),\n",
      "   midi.NoteOnEvent(tick=6, channel=2, data=[48, 127]),\n",
      "   midi.NoteOnEvent(tick=19, channel=2, data=[48, 0]),\n",
      "   midi.NoteOnEvent(tick=11, channel=2, data=[48, 127]),\n",
      "   midi.ControlChangeEvent(tick=14, channel=2, data=[7, 114]),\n",
      "   midi.NoteOnEvent(tick=5, channel=2, data=[48, 0]),\n",
      "   midi.NoteOnEvent(tick=11, channel=2, data=[48, 127]),\n",
      "   midi.NoteOnEvent(tick=19, channel=2, data=[48, 0]),\n",
      "   midi.NoteOnEvent(tick=11, channel=2, data=[48, 127]),\n",
      "   midi.ControlChangeEvent(tick=4, channel=2, data=[7, 115]),\n",
      "   midi.NoteOnEvent(tick=15, channel=2, data=[48, 0]),\n",
      "   midi.NoteOnEvent(tick=11, channel=2, data=[48, 127]),\n",
      "   midi.NoteOnEvent(tick=19, channel=2, data=[48, 0]),\n",
      "   midi.NoteOnEvent(tick=11, channel=2, data=[48, 127]),\n",
      "   midi.ControlChangeEvent(tick=4, channel=2, data=[7, 116]),\n",
      "   midi.NoteOnEvent(tick=15, channel=2, data=[48, 0]),\n",
      "   midi.NoteOnEvent(tick=11, channel=2, data=[48, 127]),\n",
      "   midi.NoteOnEvent(tick=19, channel=2, data=[48, 0]),\n",
      "   midi.ControlChangeEvent(tick=5, channel=2, data=[7, 117]),\n",
      "   midi.NoteOnEvent(tick=6, channel=2, data=[48, 127]),\n",
      "   midi.NoteOnEvent(tick=19, channel=2, data=[48, 0]),\n",
      "   midi.NoteOnEvent(tick=11, channel=2, data=[48, 127]),\n",
      "   midi.ControlChangeEvent(tick=14, channel=2, data=[7, 118]),\n",
      "   midi.NoteOnEvent(tick=5, channel=2, data=[48, 0]),\n",
      "   midi.NoteOnEvent(tick=11, channel=2, data=[48, 127]),\n",
      "   midi.NoteOnEvent(tick=19, channel=2, data=[48, 0]),\n",
      "   midi.NoteOnEvent(tick=11, channel=2, data=[48, 127]),\n",
      "   midi.ControlChangeEvent(tick=14, channel=2, data=[7, 119]),\n",
      "   midi.NoteOnEvent(tick=5, channel=2, data=[48, 0]),\n",
      "   midi.NoteOnEvent(tick=11, channel=2, data=[48, 127]),\n",
      "   midi.NoteOnEvent(tick=19, channel=2, data=[48, 0]),\n",
      "   midi.NoteOnEvent(tick=11, channel=2, data=[48, 127]),\n",
      "   midi.ControlChangeEvent(tick=4, channel=2, data=[7, 120]),\n",
      "   midi.NoteOnEvent(tick=15, channel=2, data=[48, 0]),\n",
      "   midi.NoteOnEvent(tick=11, channel=2, data=[48, 127]),\n",
      "   midi.NoteOnEvent(tick=19, channel=2, data=[48, 0]),\n",
      "   midi.ControlChangeEvent(tick=5, channel=2, data=[7, 121]),\n",
      "   midi.NoteOnEvent(tick=6, channel=2, data=[48, 127]),\n",
      "   midi.NoteOnEvent(tick=19, channel=2, data=[48, 0]),\n",
      "   midi.NoteOnEvent(tick=11, channel=2, data=[48, 127]),\n",
      "   midi.NoteOnEvent(tick=19, channel=2, data=[48, 0]),\n",
      "   midi.ControlChangeEvent(tick=5, channel=2, data=[7, 122]),\n",
      "   midi.NoteOnEvent(tick=6, channel=2, data=[48, 127]),\n",
      "   midi.NoteOnEvent(tick=19, channel=2, data=[48, 0]),\n",
      "   midi.NoteOnEvent(tick=11, channel=2, data=[48, 127]),\n",
      "   midi.ControlChangeEvent(tick=14, channel=2, data=[7, 123]),\n",
      "   midi.NoteOnEvent(tick=5, channel=2, data=[48, 0]),\n",
      "   midi.NoteOnEvent(tick=11, channel=2, data=[48, 127]),\n",
      "   midi.NoteOnEvent(tick=19, channel=2, data=[48, 0]),\n",
      "   midi.NoteOnEvent(tick=15, channel=2, data=[33, 127]),\n",
      "   midi.ControlChangeEvent(tick=0, channel=2, data=[7, 124]),\n",
      "   midi.NoteOnEvent(tick=135, channel=2, data=[33, 0]),\n",
      "   midi.NoteOnEvent(tick=45, channel=2, data=[33, 127]),\n",
      "   midi.NoteOnEvent(tick=21, channel=2, data=[33, 0]),\n",
      "   midi.NoteOnEvent(tick=39, channel=2, data=[33, 127]),\n",
      "   midi.NoteOnEvent(tick=191, channel=2, data=[33, 0]),\n",
      "   midi.NoteOnEvent(tick=49, channel=2, data=[33, 127]),\n",
      "   midi.NoteOnEvent(tick=145, channel=2, data=[33, 0]),\n",
      "   midi.NoteOnEvent(tick=35, channel=2, data=[33, 127]),\n",
      "   midi.NoteOnEvent(tick=28, channel=2, data=[33, 0]),\n",
      "   midi.NoteOnEvent(tick=32, channel=2, data=[33, 127]),\n",
      "   midi.NoteOnEvent(tick=202, channel=2, data=[33, 0]),\n",
      "   midi.NoteOnEvent(tick=38, channel=2, data=[31, 127]),\n",
      "   midi.NoteOnEvent(tick=147, channel=2, data=[31, 0]),\n",
      "   midi.NoteOnEvent(tick=33, channel=2, data=[31, 127]),\n",
      "   midi.NoteOnEvent(tick=22, channel=2, data=[31, 0]),\n",
      "   midi.NoteOnEvent(tick=38, channel=2, data=[31, 127]),\n",
      "   midi.NoteOnEvent(tick=203, channel=2, data=[31, 0]),\n",
      "   midi.NoteOnEvent(tick=37, channel=2, data=[31, 127]),\n",
      "   midi.NoteOnEvent(tick=159, channel=2, data=[31, 0]),\n",
      "   midi.NoteOnEvent(tick=21, channel=2, data=[31, 127]),\n",
      "   midi.NoteOnEvent(tick=24, channel=2, data=[31, 0]),\n",
      "   midi.NoteOnEvent(tick=36, channel=2, data=[31, 127]),\n",
      "   midi.NoteOnEvent(tick=194, channel=2, data=[31, 0]),\n",
      "   midi.NoteOnEvent(tick=46, channel=2, data=[33, 127]),\n",
      "   midi.NoteOnEvent(tick=146, channel=2, data=[33, 0]),\n",
      "   midi.NoteOnEvent(tick=34, channel=2, data=[33, 127]),\n",
      "   midi.NoteOnEvent(tick=25, channel=2, data=[33, 0]),\n",
      "   midi.NoteOnEvent(tick=35, channel=2, data=[33, 127]),\n",
      "   midi.NoteOnEvent(tick=186, channel=2, data=[33, 0]),\n",
      "   midi.NoteOnEvent(tick=54, channel=2, data=[33, 127]),\n",
      "   midi.NoteOnEvent(tick=161, channel=2, data=[33, 0]),\n",
      "   midi.NoteOnEvent(tick=19, channel=2, data=[33, 127]),\n",
      "   midi.NoteOnEvent(tick=27, channel=2, data=[33, 0]),\n",
      "   midi.NoteOnEvent(tick=33, channel=2, data=[33, 127]),\n",
      "   midi.NoteOnEvent(tick=181, channel=2, data=[33, 0]),\n",
      "   midi.NoteOnEvent(tick=59, channel=2, data=[31, 127]),\n",
      "   midi.NoteOnEvent(tick=158, channel=2, data=[31, 0]),\n",
      "   midi.NoteOnEvent(tick=22, channel=2, data=[31, 127]),\n",
      "   midi.NoteOnEvent(tick=26, channel=2, data=[31, 0]),\n",
      "   midi.NoteOnEvent(tick=34, channel=2, data=[31, 127]),\n",
      "   midi.NoteOnEvent(tick=183, channel=2, data=[31, 0]),\n",
      "   midi.NoteOnEvent(tick=57, channel=2, data=[31, 127]),\n",
      "   midi.NoteOnEvent(tick=158, channel=2, data=[31, 0]),\n",
      "   midi.NoteOnEvent(tick=22, channel=2, data=[31, 127]),\n",
      "   midi.NoteOnEvent(tick=24, channel=2, data=[31, 0]),\n",
      "   midi.NoteOnEvent(tick=36, channel=2, data=[31, 127]),\n",
      "   midi.NoteOnEvent(tick=182, channel=2, data=[31, 0]),\n",
      "   midi.NoteOnEvent(tick=58, channel=2, data=[29, 127]),\n",
      "   midi.NoteOnEvent(tick=143, channel=2, data=[29, 0]),\n",
      "   midi.NoteOnEvent(tick=37, channel=2, data=[29, 127]),\n",
      "   midi.NoteOnEvent(tick=26, channel=2, data=[29, 0]),\n",
      "   midi.NoteOnEvent(tick=34, channel=2, data=[29, 127]),\n",
      "   midi.NoteOnEvent(tick=185, channel=2, data=[29, 0]),\n",
      "   midi.NoteOnEvent(tick=55, channel=2, data=[29, 127]),\n",
      "   midi.NoteOnEvent(tick=142, channel=2, data=[29, 0]),\n",
      "   midi.NoteOnEvent(tick=38, channel=2, data=[29, 127]),\n",
      "   midi.NoteOnEvent(tick=30, channel=2, data=[29, 0]),\n",
      "   midi.NoteOnEvent(tick=30, channel=2, data=[29, 127]),\n",
      "   midi.NoteOnEvent(tick=180, channel=2, data=[29, 0]),\n",
      "   midi.NoteOnEvent(tick=60, channel=2, data=[31, 127]),\n",
      "   midi.NoteOnEvent(tick=147, channel=2, data=[31, 0]),\n",
      "   midi.NoteOnEvent(tick=33, channel=2, data=[31, 127]),\n",
      "   midi.NoteOnEvent(tick=25, channel=2, data=[31, 0]),\n",
      "   midi.NoteOnEvent(tick=35, channel=2, data=[31, 127]),\n",
      "   midi.NoteOnEvent(tick=198, channel=2, data=[31, 0]),\n",
      "   midi.NoteOnEvent(tick=42, channel=2, data=[31, 127]),\n",
      "   midi.NoteOnEvent(tick=162, channel=2, data=[31, 0]),\n",
      "   midi.NoteOnEvent(tick=18, channel=2, data=[43, 127]),\n",
      "   midi.NoteOnEvent(tick=27, channel=2, data=[43, 0]),\n",
      "   midi.NoteOnEvent(tick=33, channel=2, data=[43, 127]),\n",
      "   midi.NoteOnEvent(tick=179, channel=2, data=[43, 0]),\n",
      "   midi.NoteOnEvent(tick=61, channel=2, data=[41, 127]),\n",
      "   midi.NoteOnEvent(tick=143, channel=2, data=[41, 0]),\n",
      "   midi.NoteOnEvent(tick=37, channel=2, data=[41, 127]),\n",
      "   midi.NoteOnEvent(tick=26, channel=2, data=[41, 0]),\n",
      "   midi.NoteOnEvent(tick=34, channel=2, data=[41, 127]),\n",
      "   midi.NoteOnEvent(tick=185, channel=2, data=[41, 0]),\n",
      "   midi.NoteOnEvent(tick=55, channel=2, data=[41, 127]),\n",
      "   midi.NoteOnEvent(tick=142, channel=2, data=[41, 0]),\n",
      "   midi.NoteOnEvent(tick=38, channel=2, data=[41, 127]),\n",
      "   midi.NoteOnEvent(tick=30, channel=2, data=[41, 0]),\n",
      "   midi.NoteOnEvent(tick=30, channel=2, data=[41, 127]),\n",
      "   midi.NoteOnEvent(tick=180, channel=2, data=[41, 0]),\n",
      "   midi.NoteOnEvent(tick=60, channel=2, data=[43, 127]),\n",
      "   midi.NoteOnEvent(tick=147, channel=2, data=[43, 0]),\n",
      "   midi.NoteOnEvent(tick=33, channel=2, data=[43, 127]),\n",
      "   midi.NoteOnEvent(tick=25, channel=2, data=[43, 0]),\n",
      "   midi.NoteOnEvent(tick=35, channel=2, data=[43, 127]),\n",
      "   midi.NoteOnEvent(tick=198, channel=2, data=[43, 0]),\n",
      "   midi.NoteOnEvent(tick=42, channel=2, data=[43, 127]),\n",
      "   midi.NoteOnEvent(tick=444, channel=2, data=[43, 0]),\n",
      "   midi.NoteOnEvent(tick=216, channel=2, data=[45, 127]),\n",
      "   midi.NoteOnEvent(tick=28, channel=2, data=[45, 0]),\n",
      "   midi.NoteOnEvent(tick=32, channel=2, data=[45, 127]),\n",
      "   midi.NoteOnEvent(tick=202, channel=2, data=[45, 0]),\n",
      "   midi.NoteOnEvent(tick=38, channel=2, data=[45, 127]),\n",
      "   midi.NoteOnEvent(tick=135, channel=2, data=[45, 0]),\n",
      "   midi.NoteOnEvent(tick=45, channel=2, data=[45, 127]),\n",
      "   midi.NoteOnEvent(tick=21, channel=2, data=[45, 0]),\n",
      "   midi.NoteOnEvent(tick=39, channel=2, data=[45, 127]),\n",
      "   midi.NoteOnEvent(tick=191, channel=2, data=[45, 0]),\n",
      "   midi.NoteOnEvent(tick=49, channel=2, data=[45, 127]),\n",
      "   midi.NoteOnEvent(tick=145, channel=2, data=[45, 0]),\n",
      "   midi.NoteOnEvent(tick=35, channel=2, data=[45, 127]),\n",
      "   midi.NoteOnEvent(tick=28, channel=2, data=[45, 0]),\n",
      "   midi.NoteOnEvent(tick=32, channel=2, data=[45, 127]),\n",
      "   midi.NoteOnEvent(tick=202, channel=2, data=[45, 0]),\n",
      "   midi.NoteOnEvent(tick=38, channel=2, data=[45, 127]),\n",
      "   midi.NoteOnEvent(tick=135, channel=2, data=[45, 0]),\n",
      "   midi.NoteOnEvent(tick=45, channel=2, data=[45, 127]),\n",
      "   midi.NoteOnEvent(tick=21, channel=2, data=[45, 0]),\n",
      "   midi.NoteOnEvent(tick=39, channel=2, data=[45, 127]),\n",
      "   midi.NoteOnEvent(tick=191, channel=2, data=[45, 0]),\n",
      "   midi.NoteOnEvent(tick=49, channel=2, data=[43, 127]),\n",
      "   midi.NoteOnEvent(tick=147, channel=2, data=[43, 0]),\n",
      "   midi.NoteOnEvent(tick=33, channel=2, data=[43, 127]),\n",
      "   midi.NoteOnEvent(tick=22, channel=2, data=[43, 0]),\n",
      "   midi.NoteOnEvent(tick=38, channel=2, data=[43, 127]),\n",
      "   midi.NoteOnEvent(tick=203, channel=2, data=[43, 0]),\n",
      "   midi.NoteOnEvent(tick=37, channel=2, data=[43, 127]),\n",
      "   midi.NoteOnEvent(tick=159, channel=2, data=[43, 0]),\n",
      "   midi.NoteOnEvent(tick=21, channel=2, data=[43, 127]),\n",
      "   midi.NoteOnEvent(tick=24, channel=2, data=[43, 0]),\n",
      "   midi.NoteOnEvent(tick=36, channel=2, data=[43, 127]),\n",
      "   midi.NoteOnEvent(tick=194, channel=2, data=[43, 0]),\n",
      "   midi.NoteOnEvent(tick=46, channel=2, data=[43, 127]),\n",
      "   midi.NoteOnEvent(tick=147, channel=2, data=[43, 0]),\n",
      "   midi.NoteOnEvent(tick=33, channel=2, data=[43, 127]),\n",
      "   midi.NoteOnEvent(tick=22, channel=2, data=[43, 0]),\n",
      "   midi.NoteOnEvent(tick=38, channel=2, data=[43, 127]),\n",
      "   midi.NoteOnEvent(tick=203, channel=2, data=[43, 0]),\n",
      "   midi.NoteOnEvent(tick=37, channel=2, data=[43, 127]),\n",
      "   midi.NoteOnEvent(tick=159, channel=2, data=[43, 0]),\n",
      "   midi.NoteOnEvent(tick=21, channel=2, data=[43, 127]),\n",
      "   midi.NoteOnEvent(tick=24, channel=2, data=[43, 0]),\n",
      "   midi.NoteOnEvent(tick=36, channel=2, data=[43, 127]),\n",
      "   midi.NoteOnEvent(tick=194, channel=2, data=[43, 0]),\n",
      "   midi.NoteOnEvent(tick=46, channel=2, data=[45, 127]),\n",
      "   midi.NoteOnEvent(tick=145, channel=2, data=[45, 0]),\n",
      "   midi.NoteOnEvent(tick=35, channel=2, data=[45, 127]),\n",
      "   midi.NoteOnEvent(tick=28, channel=2, data=[45, 0]),\n",
      "   midi.NoteOnEvent(tick=32, channel=2, data=[45, 127]),\n",
      "   midi.NoteOnEvent(tick=202, channel=2, data=[45, 0]),\n",
      "   midi.NoteOnEvent(tick=38, channel=2, data=[45, 127]),\n",
      "   midi.NoteOnEvent(tick=135, channel=2, data=[45, 0]),\n",
      "   midi.NoteOnEvent(tick=45, channel=2, data=[45, 127]),\n",
      "   midi.NoteOnEvent(tick=21, channel=2, data=[45, 0]),\n",
      "   midi.NoteOnEvent(tick=39, channel=2, data=[45, 127]),\n",
      "   midi.NoteOnEvent(tick=191, channel=2, data=[45, 0]),\n",
      "   midi.NoteOnEvent(tick=49, channel=2, data=[45, 127]),\n",
      "   midi.NoteOnEvent(tick=145, channel=2, data=[45, 0]),\n",
      "   midi.NoteOnEvent(tick=35, channel=2, data=[45, 127]),\n",
      "   midi.NoteOnEvent(tick=28, channel=2, data=[45, 0]),\n",
      "   midi.NoteOnEvent(tick=32, channel=2, data=[45, 127]),\n",
      "   midi.NoteOnEvent(tick=202, channel=2, data=[45, 0]),\n",
      "   midi.NoteOnEvent(tick=38, channel=2, data=[45, 127]),\n",
      "   midi.NoteOnEvent(tick=135, channel=2, data=[45, 0]),\n",
      "   midi.NoteOnEvent(tick=45, channel=2, data=[45, 127]),\n",
      "   midi.NoteOnEvent(tick=21, channel=2, data=[45, 0]),\n",
      "   midi.NoteOnEvent(tick=39, channel=2, data=[45, 127]),\n",
      "   midi.NoteOnEvent(tick=191, channel=2, data=[45, 0]),\n",
      "   midi.NoteOnEvent(tick=49, channel=2, data=[43, 127]),\n",
      "   midi.NoteOnEvent(tick=147, channel=2, data=[43, 0]),\n",
      "   midi.NoteOnEvent(tick=33, channel=2, data=[43, 127]),\n",
      "   midi.NoteOnEvent(tick=22, channel=2, data=[43, 0]),\n",
      "   midi.NoteOnEvent(tick=38, channel=2, data=[43, 127]),\n",
      "   midi.NoteOnEvent(tick=203, channel=2, data=[43, 0]),\n",
      "   midi.NoteOnEvent(tick=37, channel=2, data=[43, 127]),\n",
      "   midi.NoteOnEvent(tick=159, channel=2, data=[43, 0]),\n",
      "   midi.NoteOnEvent(tick=21, channel=2, data=[43, 127]),\n",
      "   midi.NoteOnEvent(tick=24, channel=2, data=[43, 0]),\n",
      "   midi.NoteOnEvent(tick=36, channel=2, data=[43, 127]),\n",
      "   midi.NoteOnEvent(tick=194, channel=2, data=[43, 0]),\n",
      "   midi.NoteOnEvent(tick=46, channel=2, data=[43, 127]),\n",
      "   midi.NoteOnEvent(tick=147, channel=2, data=[43, 0]),\n",
      "   midi.NoteOnEvent(tick=33, channel=2, data=[43, 127]),\n",
      "   midi.NoteOnEvent(tick=22, channel=2, data=[43, 0]),\n",
      "   midi.NoteOnEvent(tick=38, channel=2, data=[43, 127]),\n",
      "   midi.NoteOnEvent(tick=203, channel=2, data=[43, 0]),\n",
      "   midi.NoteOnEvent(tick=37, channel=2, data=[43, 127]),\n",
      "   midi.NoteOnEvent(tick=159, channel=2, data=[43, 0]),\n",
      "   midi.NoteOnEvent(tick=21, channel=2, data=[43, 127]),\n",
      "   midi.NoteOnEvent(tick=24, channel=2, data=[43, 0]),\n",
      "   midi.NoteOnEvent(tick=36, channel=2, data=[43, 127]),\n",
      "   midi.NoteOnEvent(tick=194, channel=2, data=[43, 0]),\n",
      "   midi.NoteOnEvent(tick=46, channel=2, data=[41, 127]),\n",
      "   midi.NoteOnEvent(tick=131, channel=2, data=[41, 0]),\n",
      "   midi.NoteOnEvent(tick=49, channel=2, data=[41, 127]),\n",
      "   midi.NoteOnEvent(tick=28, channel=2, data=[41, 0]),\n",
      "   midi.NoteOnEvent(tick=32, channel=2, data=[41, 127]),\n",
      "   midi.NoteOnEvent(tick=182, channel=2, data=[41, 0]),\n",
      "   midi.NoteOnEvent(tick=58, channel=2, data=[41, 127]),\n",
      "   midi.NoteOnEvent(tick=127, channel=2, data=[41, 0]),\n",
      "   midi.NoteOnEvent(tick=53, channel=2, data=[41, 127]),\n",
      "   midi.NoteOnEvent(tick=22, channel=2, data=[41, 0]),\n",
      "   midi.NoteOnEvent(tick=38, channel=2, data=[41, 127]),\n",
      "   midi.NoteOnEvent(tick=165, channel=2, data=[41, 0]),\n",
      "   midi.NoteOnEvent(tick=75, channel=2, data=[43, 127]),\n",
      "   midi.NoteOnEvent(tick=119, channel=2, data=[43, 0]),\n",
      "   midi.NoteOnEvent(tick=61, channel=2, data=[43, 127]),\n",
      "   midi.NoteOnEvent(tick=21, channel=2, data=[43, 0]),\n",
      "   midi.NoteOnEvent(tick=39, channel=2, data=[43, 127]),\n",
      "   midi.NoteOnEvent(tick=167, channel=2, data=[43, 0]),\n",
      "   midi.NoteOnEvent(tick=73, channel=2, data=[43, 127]),\n",
      "   midi.NoteOnEvent(tick=125, channel=2, data=[43, 0]),\n",
      "   midi.NoteOnEvent(tick=55, channel=2, data=[43, 127]),\n",
      "   midi.NoteOnEvent(tick=25, channel=2, data=[43, 0]),\n",
      "   midi.NoteOnEvent(tick=35, channel=2, data=[43, 127]),\n",
      "   midi.NoteOnEvent(tick=189, channel=2, data=[43, 0]),\n",
      "   midi.NoteOnEvent(tick=51, channel=2, data=[41, 127]),\n",
      "   midi.NoteOnEvent(tick=127, channel=2, data=[41, 0]),\n",
      "   midi.NoteOnEvent(tick=53, channel=2, data=[41, 127]),\n",
      "   midi.NoteOnEvent(tick=20, channel=2, data=[41, 0]),\n",
      "   midi.NoteOnEvent(tick=40, channel=2, data=[41, 127]),\n",
      "   midi.NoteOnEvent(tick=178, channel=2, data=[41, 0]),\n",
      "   midi.NoteOnEvent(tick=62, channel=2, data=[41, 127]),\n",
      "   midi.NoteOnEvent(tick=180, channel=2, data=[41, 127]),\n",
      "   midi.NoteOnEvent(tick=9, channel=2, data=[41, 0]),\n",
      "   midi.NoteOnEvent(tick=10, channel=2, data=[41, 0]),\n",
      "   midi.NoteOnEvent(tick=141, channel=2, data=[41, 127]),\n",
      "   midi.NoteOnEvent(tick=149, channel=2, data=[41, 0]),\n",
      "   midi.NoteOnEvent(tick=51, channel=2, data=[43, 127]),\n",
      "   midi.NoteOnEvent(tick=137, channel=2, data=[43, 0]),\n",
      "   midi.NoteOnEvent(tick=43, channel=2, data=[43, 127]),\n",
      "   midi.NoteOnEvent(tick=164, channel=2, data=[43, 0]),\n",
      "   midi.NoteOnEvent(tick=76, channel=2, data=[43, 127]),\n",
      "   midi.NoteOnEvent(tick=78, channel=2, data=[43, 0]),\n",
      "   midi.NoteOnEvent(tick=162, channel=2, data=[43, 127]),\n",
      "   midi.NoteOnEvent(tick=194, channel=2, data=[43, 0]),\n",
      "   midi.NoteOnEvent(tick=46, channel=2, data=[41, 127]),\n",
      "   midi.NoteOnEvent(tick=131, channel=2, data=[41, 0]),\n",
      "   midi.NoteOnEvent(tick=49, channel=2, data=[41, 127]),\n",
      "   midi.NoteOnEvent(tick=28, channel=2, data=[41, 0]),\n",
      "   midi.NoteOnEvent(tick=32, channel=2, data=[41, 127]),\n",
      "   midi.NoteOnEvent(tick=182, channel=2, data=[41, 0]),\n",
      "   midi.NoteOnEvent(tick=58, channel=2, data=[41, 127]),\n",
      "   midi.NoteOnEvent(tick=127, channel=2, data=[41, 0]),\n",
      "   midi.NoteOnEvent(tick=53, channel=2, data=[41, 127]),\n",
      "   midi.NoteOnEvent(tick=22, channel=2, data=[41, 0]),\n",
      "   midi.NoteOnEvent(tick=38, channel=2, data=[41, 127]),\n",
      "   midi.NoteOnEvent(tick=165, channel=2, data=[41, 0]),\n",
      "   midi.NoteOnEvent(tick=75, channel=2, data=[43, 127]),\n",
      "   midi.NoteOnEvent(tick=119, channel=2, data=[43, 0]),\n",
      "   midi.NoteOnEvent(tick=61, channel=2, data=[43, 127]),\n",
      "   midi.NoteOnEvent(tick=21, channel=2, data=[43, 0]),\n",
      "   midi.NoteOnEvent(tick=39, channel=2, data=[43, 127]),\n",
      "   midi.NoteOnEvent(tick=167, channel=2, data=[43, 0]),\n",
      "   midi.NoteOnEvent(tick=73, channel=2, data=[43, 127]),\n",
      "   midi.NoteOnEvent(tick=125, channel=2, data=[43, 0]),\n",
      "   midi.NoteOnEvent(tick=55, channel=2, data=[43, 127]),\n",
      "   midi.NoteOnEvent(tick=25, channel=2, data=[43, 0]),\n",
      "   midi.NoteOnEvent(tick=35, channel=2, data=[43, 127]),\n",
      "   midi.NoteOnEvent(tick=189, channel=2, data=[43, 0]),\n",
      "   midi.NoteOnEvent(tick=51, channel=2, data=[41, 127]),\n",
      "   midi.NoteOnEvent(tick=127, channel=2, data=[41, 0]),\n",
      "   midi.NoteOnEvent(tick=53, channel=2, data=[41, 127]),\n",
      "   midi.NoteOnEvent(tick=20, channel=2, data=[41, 0]),\n",
      "   midi.NoteOnEvent(tick=40, channel=2, data=[41, 127]),\n",
      "   midi.NoteOnEvent(tick=178, channel=2, data=[41, 0]),\n",
      "   midi.NoteOnEvent(tick=62, channel=2, data=[41, 127]),\n",
      "   midi.NoteOnEvent(tick=189, channel=2, data=[41, 0]),\n",
      "   midi.NoteOnEvent(tick=51, channel=2, data=[41, 127]),\n",
      "   midi.NoteOnEvent(tick=157, channel=2, data=[41, 0]),\n",
      "   midi.NoteOnEvent(tick=53, channel=2, data=[41, 127]),\n",
      "   midi.NoteOnEvent(tick=19, channel=2, data=[41, 0]),\n",
      "   midi.NoteOnEvent(tick=71, channel=2, data=[43, 127]),\n",
      "   midi.NoteOnEvent(tick=137, channel=2, data=[43, 0]),\n",
      "   midi.NoteOnEvent(tick=43, channel=2, data=[43, 127]),\n",
      "   midi.NoteOnEvent(tick=164, channel=2, data=[43, 0]),\n",
      "   midi.NoteOnEvent(tick=556, channel=2, data=[57, 127]),\n",
      "   midi.NoteOnEvent(tick=127, channel=2, data=[57, 0]),\n",
      "   midi.NoteOnEvent(tick=53, channel=2, data=[57, 127]),\n",
      "   midi.NoteOnEvent(tick=54, channel=2, data=[57, 0]),\n",
      "   midi.NoteOnEvent(tick=6, channel=2, data=[45, 127]),\n",
      "   midi.NoteOnEvent(tick=138, channel=2, data=[45, 0]),\n",
      "   midi.NoteOnEvent(tick=42, channel=2, data=[45, 127]),\n",
      "   midi.NoteOnEvent(tick=60, channel=2, data=[57, 127]),\n",
      "   midi.NoteOnEvent(tick=22, channel=2, data=[45, 0]),\n",
      "   midi.NoteOnEvent(tick=126, channel=2, data=[57, 0]),\n",
      "   midi.NoteOnEvent(tick=32, channel=2, data=[57, 127]),\n",
      "   midi.NoteOnEvent(tick=53, channel=2, data=[57, 0]),\n",
      "   midi.NoteOnEvent(tick=7, channel=2, data=[45, 127]),\n",
      "   midi.NoteOnEvent(tick=158, channel=2, data=[45, 0]),\n",
      "   midi.NoteOnEvent(tick=22, channel=2, data=[45, 127]),\n",
      "   midi.NoteOnEvent(tick=60, channel=2, data=[55, 127]),\n",
      "   midi.NoteOnEvent(tick=3, channel=2, data=[45, 0]),\n",
      "   midi.NoteOnEvent(tick=82, channel=2, data=[55, 0]),\n",
      "   midi.NoteOnEvent(tick=95, channel=2, data=[55, 127]),\n",
      "   midi.NoteOnEvent(tick=60, channel=2, data=[43, 127]),\n",
      "   midi.NoteOnEvent(tick=16, channel=2, data=[55, 0]),\n",
      "   midi.NoteOnEvent(tick=206, channel=2, data=[43, 0]),\n",
      "   midi.NoteOnEvent(tick=18, channel=2, data=[55, 127]),\n",
      "   midi.NoteOnEvent(tick=87, channel=2, data=[55, 0]),\n",
      "   midi.NoteOnEvent(tick=93, channel=2, data=[55, 127]),\n",
      "   midi.NoteOnEvent(tick=49, channel=2, data=[55, 0]),\n",
      "   midi.NoteOnEvent(tick=11, channel=2, data=[43, 127]),\n",
      "   midi.NoteOnEvent(tick=160, channel=2, data=[43, 0]),\n",
      "   midi.NoteOnEvent(tick=20, channel=2, data=[43, 127]),\n",
      "   midi.NoteOnEvent(tick=59, channel=2, data=[43, 0]),\n",
      "   midi.NoteOnEvent(tick=1, channel=2, data=[53, 127]),\n",
      "   midi.NoteOnEvent(tick=87, channel=2, data=[53, 0]),\n",
      "   midi.NoteOnEvent(tick=93, channel=2, data=[53, 127]),\n",
      "   midi.NoteOnEvent(tick=54, channel=2, data=[53, 0]),\n",
      "   midi.NoteOnEvent(tick=6, channel=2, data=[41, 127]),\n",
      "   midi.NoteOnEvent(tick=150, channel=2, data=[41, 0]),\n",
      "   midi.NoteOnEvent(tick=30, channel=2, data=[41, 127]),\n",
      "   midi.NoteOnEvent(tick=53, channel=2, data=[41, 0]),\n",
      "   midi.NoteOnEvent(tick=7, channel=2, data=[53, 127]),\n",
      "   midi.NoteOnEvent(tick=82, channel=2, data=[53, 0]),\n",
      "   midi.NoteOnEvent(tick=98, channel=2, data=[53, 127]),\n",
      "   midi.NoteOnEvent(tick=60, channel=2, data=[41, 127]),\n",
      "   midi.NoteOnEvent(tick=8, channel=2, data=[53, 0]),\n",
      "   midi.NoteOnEvent(tick=132, channel=2, data=[41, 0]),\n",
      "   midi.NoteOnEvent(tick=40, channel=2, data=[41, 127]),\n",
      "   midi.NoteOnEvent(tick=60, channel=2, data=[55, 127]),\n",
      "   midi.NoteOnEvent(tick=4, channel=2, data=[41, 0]),\n",
      "   midi.NoteOnEvent(tick=88, channel=2, data=[55, 0]),\n",
      "   midi.NoteOnEvent(tick=88, channel=2, data=[55, 127]),\n",
      "   midi.NoteOnEvent(tick=60, channel=2, data=[55, 0]),\n",
      "   midi.NoteOnEvent(tick=0, channel=2, data=[43, 127]),\n",
      "   midi.NoteOnEvent(tick=239, channel=2, data=[43, 0]),\n",
      "   midi.NoteOnEvent(tick=1, channel=2, data=[55, 127]),\n",
      "   midi.NoteOnEvent(tick=90, channel=2, data=[55, 0]),\n",
      "   midi.NoteOnEvent(tick=90, channel=2, data=[55, 127]),\n",
      "   midi.NoteOnEvent(tick=60, channel=2, data=[43, 127]),\n",
      "   midi.NoteOnEvent(tick=6, channel=2, data=[55, 0]),\n",
      "   midi.NoteOnEvent(tick=148, channel=2, data=[43, 0]),\n",
      "   midi.NoteOnEvent(tick=26, channel=2, data=[43, 127]),\n",
      "   midi.NoteOnEvent(tick=60, channel=2, data=[57, 127]),\n",
      "   midi.NoteOnEvent(tick=1, channel=2, data=[43, 0]),\n",
      "   midi.NoteOnEvent(tick=88, channel=2, data=[57, 0]),\n",
      "   midi.NoteOnEvent(tick=91, channel=2, data=[57, 127]),\n",
      "   midi.NoteOnEvent(tick=59, channel=2, data=[57, 0]),\n",
      "   midi.NoteOnEvent(tick=1, channel=2, data=[45, 127]),\n",
      "   midi.NoteOnEvent(tick=217, channel=2, data=[45, 0]),\n",
      "   midi.NoteOnEvent(tick=23, channel=2, data=[57, 127]),\n",
      "   midi.NoteOnEvent(tick=83, channel=2, data=[57, 0]),\n",
      "   midi.NoteOnEvent(tick=97, channel=2, data=[57, 127]),\n",
      "   midi.NoteOnEvent(tick=60, channel=2, data=[45, 127]),\n",
      "   midi.NoteOnEvent(tick=4, channel=2, data=[57, 0]),\n",
      "   midi.NoteOnEvent(tick=149, channel=2, data=[45, 0]),\n",
      "   midi.NoteOnEvent(tick=27, channel=2, data=[45, 127]),\n",
      "   midi.NoteOnEvent(tick=53, channel=2, data=[45, 0]),\n",
      "   midi.NoteOnEvent(tick=7, channel=2, data=[55, 127]),\n",
      "   midi.NoteOnEvent(tick=86, channel=2, data=[55, 0]),\n",
      "   midi.NoteOnEvent(tick=94, channel=2, data=[55, 127]),\n",
      "   midi.NoteOnEvent(tick=59, channel=2, data=[55, 0]),\n",
      "   midi.NoteOnEvent(tick=1, channel=2, data=[43, 127]),\n",
      "   midi.NoteOnEvent(tick=232, channel=2, data=[43, 0]),\n",
      "   midi.NoteOnEvent(tick=8, channel=2, data=[55, 127]),\n",
      "   midi.NoteOnEvent(tick=94, channel=2, data=[55, 0]),\n",
      "   midi.NoteOnEvent(tick=86, channel=2, data=[55, 127]),\n",
      "   midi.NoteOnEvent(tick=60, channel=2, data=[43, 127]),\n",
      "   midi.NoteOnEvent(tick=9, channel=2, data=[55, 0]),\n",
      "   midi.NoteOnEvent(tick=227, channel=2, data=[43, 0]),\n",
      "   midi.NoteOnEvent(tick=4, channel=2, data=[53, 127]),\n",
      "   midi.NoteOnEvent(tick=118, channel=2, data=[53, 0]),\n",
      "   midi.NoteOnEvent(tick=62, channel=2, data=[53, 127]),\n",
      "   midi.NoteOnEvent(tick=51, channel=2, data=[53, 0]),\n",
      "   midi.NoteOnEvent(tick=9, channel=2, data=[41, 127]),\n",
      "   midi.NoteOnEvent(tick=211, channel=2, data=[41, 0]),\n",
      "   midi.NoteOnEvent(tick=29, channel=2, data=[53, 127]),\n",
      "   midi.NoteOnEvent(tick=100, channel=2, data=[53, 0]),\n",
      "   midi.NoteOnEvent(tick=80, channel=2, data=[53, 127]),\n",
      "   midi.NoteOnEvent(tick=60, channel=2, data=[41, 127]),\n",
      "   midi.NoteOnEvent(tick=5, channel=2, data=[53, 0]),\n",
      "   midi.NoteOnEvent(tick=235, channel=2, data=[55, 127]),\n",
      "   midi.NoteOnEvent(tick=3, channel=2, data=[41, 0]),\n",
      "   midi.NoteOnEvent(tick=96, channel=2, data=[55, 0]),\n",
      "   midi.NoteOnEvent(tick=21, channel=2, data=[43, 127]),\n",
      "   midi.NoteOnEvent(tick=60, channel=2, data=[55, 127]),\n",
      "   midi.NoteOnEvent(tick=13, channel=2, data=[43, 0]),\n",
      "   midi.NoteOnEvent(tick=96, channel=2, data=[55, 0]),\n",
      "   midi.NoteOnEvent(tick=11, channel=2, data=[43, 127]),\n",
      "   midi.NoteOnEvent(tick=60, channel=2, data=[55, 127]),\n",
      "   midi.NoteOnEvent(tick=8, channel=2, data=[43, 0]),\n",
      "   midi.NoteOnEvent(tick=112, channel=2, data=[43, 127]),\n",
      "   midi.NoteOnEvent(tick=3, channel=2, data=[55, 0]),\n",
      "   midi.NoteOnEvent(tick=57, channel=2, data=[55, 127]),\n",
      "   midi.NoteOnEvent(tick=11, channel=2, data=[43, 0]),\n",
      "   midi.NoteOnEvent(tick=101, channel=2, data=[55, 0]),\n",
      "   midi.NoteOnEvent(tick=8, channel=2, data=[43, 127]),\n",
      "   midi.NoteOnEvent(tick=60, channel=2, data=[55, 127]),\n",
      "   midi.NoteOnEvent(tick=4, channel=2, data=[43, 0]),\n",
      "   midi.NoteOnEvent(tick=116, channel=2, data=[43, 127]),\n",
      "   midi.NoteOnEvent(tick=21, channel=2, data=[55, 0]),\n",
      "   midi.NoteOnEvent(tick=91, channel=2, data=[43, 0]),\n",
      "   midi.ControlChangeEvent(tick=8, channel=2, data=[7, 117]),\n",
      "   midi.ControlChangeEvent(tick=10, channel=2, data=[7, 114]),\n",
      "   midi.ControlChangeEvent(tick=10, channel=2, data=[7, 111]),\n",
      "   midi.ControlChangeEvent(tick=10, channel=2, data=[7, 108]),\n",
      "   midi.ControlChangeEvent(tick=10, channel=2, data=[7, 104]),\n",
      "   midi.ControlChangeEvent(tick=10, channel=2, data=[7, 101]),\n",
      "   midi.ControlChangeEvent(tick=10, channel=2, data=[7, 98]),\n",
      "   midi.ControlChangeEvent(tick=10, channel=2, data=[7, 95]),\n",
      "   midi.ControlChangeEvent(tick=10, channel=2, data=[7, 91]),\n",
      "   midi.ControlChangeEvent(tick=10, channel=2, data=[7, 88]),\n",
      "   midi.ControlChangeEvent(tick=10, channel=2, data=[7, 85]),\n",
      "   midi.ControlChangeEvent(tick=10, channel=2, data=[7, 82]),\n",
      "   midi.ControlChangeEvent(tick=10, channel=2, data=[7, 78]),\n",
      "   midi.ControlChangeEvent(tick=10, channel=2, data=[7, 75]),\n",
      "   midi.ControlChangeEvent(tick=10, channel=2, data=[7, 72]),\n",
      "   midi.ControlChangeEvent(tick=10, channel=2, data=[7, 69]),\n",
      "   midi.ControlChangeEvent(tick=10, channel=2, data=[7, 65]),\n",
      "   midi.ControlChangeEvent(tick=10, channel=2, data=[7, 62]),\n",
      "   midi.ControlChangeEvent(tick=10, channel=2, data=[7, 59]),\n",
      "   midi.ControlChangeEvent(tick=10, channel=2, data=[7, 56]),\n",
      "   midi.ControlChangeEvent(tick=10, channel=2, data=[7, 52]),\n",
      "   midi.ControlChangeEvent(tick=10, channel=2, data=[7, 49]),\n",
      "   midi.ControlChangeEvent(tick=10, channel=2, data=[7, 46]),\n",
      "   midi.ControlChangeEvent(tick=10, channel=2, data=[7, 43]),\n",
      "   midi.ControlChangeEvent(tick=10, channel=2, data=[7, 39]),\n",
      "   midi.ControlChangeEvent(tick=10, channel=2, data=[7, 36]),\n",
      "   midi.ControlChangeEvent(tick=10, channel=2, data=[7, 33]),\n",
      "   midi.ControlChangeEvent(tick=10, channel=2, data=[7, 30]),\n",
      "   midi.ControlChangeEvent(tick=10, channel=2, data=[7, 26]),\n",
      "   midi.ControlChangeEvent(tick=10, channel=2, data=[7, 23]),\n",
      "   midi.ControlChangeEvent(tick=10, channel=2, data=[7, 20]),\n",
      "   midi.ControlChangeEvent(tick=10, channel=2, data=[7, 17]),\n",
      "   midi.ControlChangeEvent(tick=10, channel=2, data=[7, 13]),\n",
      "   midi.ControlChangeEvent(tick=10, channel=2, data=[7, 10]),\n",
      "   midi.ControlChangeEvent(tick=10, channel=2, data=[7, 7]),\n",
      "   midi.ControlChangeEvent(tick=10, channel=2, data=[7, 4]),\n",
      "   midi.ControlChangeEvent(tick=10, channel=2, data=[7, 0]),\n",
      "   midi.EndOfTrackEvent(tick=0, data=[])]),\n",
      " midi.Track(\\\n",
      "  [midi.PortEvent(tick=0, data=[0]),\n",
      "   midi.TrackNameEvent(tick=0, text='Overdrive Gtr G-30', data=[79, 118, 101, 114, 100, 114, 105, 118, 101, 32, 71, 116, 114, 32, 71, 45, 51, 48]),\n",
      "   midi.ProgramChangeEvent(tick=0, channel=3, data=[29]),\n",
      "   midi.ControlChangeEvent(tick=0, channel=3, data=[7, 127]),\n",
      "   midi.ControlChangeEvent(tick=0, channel=3, data=[10, 55]),\n",
      "   midi.ControlChangeEvent(tick=3360, channel=3, data=[91, 127]),\n",
      "   midi.ControlChangeEvent(tick=0, channel=3, data=[1, 121]),\n",
      "   midi.NoteOnEvent(tick=15180, channel=3, data=[64, 98]),\n",
      "   midi.NoteOnEvent(tick=13, channel=3, data=[64, 0]),\n",
      "   midi.NoteOnEvent(tick=17, channel=3, data=[64, 109]),\n",
      "   midi.NoteOnEvent(tick=14, channel=3, data=[64, 0]),\n",
      "   midi.NoteOnEvent(tick=16, channel=3, data=[64, 87]),\n",
      "   midi.NoteOnEvent(tick=44, channel=3, data=[64, 0]),\n",
      "   midi.NoteOnEvent(tick=16, channel=3, data=[62, 108]),\n",
      "   midi.NoteOnEvent(tick=60, channel=3, data=[57, 127]),\n",
      "   midi.NoteOnEvent(tick=5, channel=3, data=[62, 0]),\n",
      "   midi.NoteOnEvent(tick=67, channel=3, data=[57, 0]),\n",
      "   midi.NoteOnEvent(tick=708, channel=3, data=[64, 109]),\n",
      "   midi.NoteOnEvent(tick=13, channel=3, data=[64, 0]),\n",
      "   midi.NoteOnEvent(tick=17, channel=3, data=[64, 98]),\n",
      "   midi.NoteOnEvent(tick=29, channel=3, data=[64, 0]),\n",
      "   midi.NoteOnEvent(tick=1, channel=3, data=[64, 121]),\n",
      "   midi.NoteOnEvent(tick=44, channel=3, data=[64, 0]),\n",
      "   midi.NoteOnEvent(tick=16, channel=3, data=[62, 109]),\n",
      "   midi.NoteOnEvent(tick=60, channel=3, data=[57, 127]),\n",
      "   midi.NoteOnEvent(tick=5, channel=3, data=[62, 0]),\n",
      "   midi.NoteOnEvent(tick=94, channel=3, data=[57, 0]),\n",
      "   midi.NoteOnEvent(tick=2481, channel=3, data=[57, 109]),\n",
      "   midi.NoteOnEvent(tick=16, channel=3, data=[57, 0]),\n",
      "   midi.NoteOnEvent(tick=14, channel=3, data=[57, 109]),\n",
      "   midi.NoteOnEvent(tick=30, channel=3, data=[60, 93]),\n",
      "   midi.NoteOnEvent(tick=13, channel=3, data=[57, 0]),\n",
      "   midi.NoteOnEvent(tick=47, channel=3, data=[57, 109]),\n",
      "   midi.NoteOnEvent(tick=6, channel=3, data=[60, 0]),\n",
      "   midi.NoteOnEvent(tick=54, channel=3, data=[60, 121]),\n",
      "   midi.NoteOnEvent(tick=8, channel=3, data=[57, 0]),\n",
      "   midi.NoteOnEvent(tick=52, channel=3, data=[62, 115]),\n",
      "   midi.NoteOnEvent(tick=4, channel=3, data=[60, 0]),\n",
      "   midi.NoteOnEvent(tick=38, channel=3, data=[62, 0]),\n",
      "   midi.NoteOnEvent(tick=18, channel=3, data=[57, 90]),\n",
      "   midi.NoteOnEvent(tick=79, channel=3, data=[57, 0]),\n",
      "   midi.NoteOnEvent(tick=701, channel=3, data=[64, 98]),\n",
      "   midi.NoteOnEvent(tick=13, channel=3, data=[64, 0]),\n",
      "   midi.NoteOnEvent(tick=17, channel=3, data=[64, 109]),\n",
      "   midi.NoteOnEvent(tick=14, channel=3, data=[64, 0]),\n",
      "   midi.NoteOnEvent(tick=16, channel=3, data=[64, 87]),\n",
      "   midi.NoteOnEvent(tick=44, channel=3, data=[64, 0]),\n",
      "   midi.NoteOnEvent(tick=16, channel=3, data=[62, 98]),\n",
      "   midi.NoteOnEvent(tick=60, channel=3, data=[57, 109]),\n",
      "   midi.NoteOnEvent(tick=5, channel=3, data=[62, 0]),\n",
      "   midi.NoteOnEvent(tick=67, channel=3, data=[57, 0]),\n",
      "   midi.ControlChangeEvent(tick=2328, channel=3, data=[7, 99]),\n",
      "   midi.NoteOnEvent(tick=240, channel=3, data=[62, 121]),\n",
      "   midi.NoteOnEvent(tick=120, channel=3, data=[64, 121]),\n",
      "   midi.NoteOnEvent(tick=11, channel=3, data=[62, 0]),\n",
      "   midi.NoteOnEvent(tick=109, channel=3, data=[62, 121]),\n",
      "   midi.NoteOnEvent(tick=13, channel=3, data=[64, 0]),\n",
      "   midi.NoteOnEvent(tick=107, channel=3, data=[60, 121]),\n",
      "   midi.NoteOnEvent(tick=8, channel=3, data=[62, 0]),\n",
      "   midi.NoteOnEvent(tick=52, channel=3, data=[57, 121]),\n",
      "   midi.NoteOnEvent(tick=12, channel=3, data=[60, 0]),\n",
      "   midi.NoteOnEvent(tick=227, channel=3, data=[57, 0]),\n",
      "   midi.NoteOnEvent(tick=1, channel=3, data=[60, 121]),\n",
      "   midi.NoteOnEvent(tick=58, channel=3, data=[60, 0]),\n",
      "   midi.NoteOnEvent(tick=2, channel=3, data=[62, 121]),\n",
      "   midi.NoteOnEvent(tick=120, channel=3, data=[62, 0]),\n",
      "   midi.NoteOnEvent(tick=0, channel=3, data=[60, 121]),\n",
      "   midi.NoteOnEvent(tick=120, channel=3, data=[62, 121]),\n",
      "   midi.NoteOnEvent(tick=11, channel=3, data=[60, 0]),\n",
      "   midi.NoteOnEvent(tick=109, channel=3, data=[62, 0]),\n",
      "   midi.NoteOnEvent(tick=0, channel=3, data=[64, 121]),\n",
      "   midi.NoteOnEvent(tick=111, channel=3, data=[64, 0]),\n",
      "   midi.NoteOnEvent(tick=9, channel=3, data=[62, 121]),\n",
      "   midi.NoteOnEvent(tick=111, channel=3, data=[62, 0]),\n",
      "   midi.NoteOnEvent(tick=69, channel=3, data=[69, 121]),\n",
      "   midi.NoteOnEvent(tick=120, channel=3, data=[67, 121]),\n",
      "   midi.NoteOnEvent(tick=7, channel=3, data=[69, 0]),\n",
      "   midi.NoteOnEvent(tick=110, channel=3, data=[67, 0]),\n",
      "   midi.NoteOnEvent(tick=3, channel=3, data=[69, 121]),\n",
      "   midi.NoteOnEvent(tick=300, channel=3, data=[62, 121]),\n",
      "   midi.NoteOnEvent(tick=4, channel=3, data=[69, 0]),\n",
      "   midi.NoteOnEvent(tick=113, channel=3, data=[62, 0]),\n",
      "   midi.NoteOnEvent(tick=3, channel=3, data=[64, 121]),\n",
      "   midi.NoteOnEvent(tick=116, channel=3, data=[64, 0]),\n",
      "   midi.NoteOnEvent(tick=4, channel=3, data=[62, 121]),\n",
      "   midi.NoteOnEvent(tick=120, channel=3, data=[60, 121]),\n",
      "   midi.NoteOnEvent(tick=1, channel=3, data=[62, 0]),\n",
      "   midi.NoteOnEvent(tick=59, channel=3, data=[57, 121]),\n",
      "   midi.NoteOnEvent(tick=15, channel=3, data=[60, 0]),\n",
      "   midi.NoteOnEvent(tick=223, channel=3, data=[57, 0]),\n",
      "   midi.NoteOnEvent(tick=2, channel=3, data=[60, 121]),\n",
      "   midi.NoteOnEvent(tick=60, channel=3, data=[62, 121]),\n",
      "   midi.NoteOnEvent(tick=4, channel=3, data=[60, 0]),\n",
      "   midi.NoteOnEvent(tick=107, channel=3, data=[62, 0]),\n",
      "   midi.NoteOnEvent(tick=9, channel=3, data=[60, 121]),\n",
      "   midi.NoteOnEvent(tick=120, channel=3, data=[62, 121]),\n",
      "   midi.NoteOnEvent(tick=22, channel=3, data=[60, 0]),\n",
      "   midi.NoteOnEvent(tick=92, channel=3, data=[62, 0]),\n",
      "   midi.NoteOnEvent(tick=6, channel=3, data=[64, 121]),\n",
      "   midi.NoteOnEvent(tick=106, channel=3, data=[64, 0]),\n",
      "   midi.NoteOnEvent(tick=14, channel=3, data=[62, 121]),\n",
      "   midi.NoteOnEvent(tick=180, channel=3, data=[69, 121]),\n",
      "   midi.NoteOnEvent(tick=24, channel=3, data=[62, 0]),\n",
      "   midi.NoteOnEvent(tick=96, channel=3, data=[67, 121]),\n",
      "   midi.NoteOnEvent(tick=13, channel=3, data=[69, 0]),\n",
      "   midi.NoteOnEvent(tick=100, channel=3, data=[67, 0]),\n",
      "   midi.NoteOnEvent(tick=7, channel=3, data=[69, 121]),\n",
      "   midi.NoteOnEvent(tick=502, channel=3, data=[69, 0]),\n",
      "   midi.PitchWheelEvent(tick=9, channel=3, data=[80, 61]),\n",
      "   midi.PitchWheelEvent(tick=2, channel=3, data=[33, 59]),\n",
      "   midi.PitchWheelEvent(tick=1, channel=3, data=[123, 50]),\n",
      "   midi.PitchWheelEvent(tick=1, channel=3, data=[28, 46]),\n",
      "   midi.PitchWheelEvent(tick=1, channel=3, data=[61, 41]),\n",
      "   midi.PitchWheelEvent(tick=1, channel=3, data=[118, 37]),\n",
      "   midi.PitchWheelEvent(tick=0, channel=3, data=[23, 33]),\n",
      "   midi.PitchWheelEvent(tick=1, channel=3, data=[80, 29]),\n",
      "   midi.PitchWheelEvent(tick=2, channel=3, data=[113, 24]),\n",
      "   midi.PitchWheelEvent(tick=1, channel=3, data=[42, 21]),\n",
      "   midi.PitchWheelEvent(tick=1, channel=3, data=[28, 14]),\n",
      "   midi.PitchWheelEvent(tick=1, channel=3, data=[85, 10]),\n",
      "   midi.PitchWheelEvent(tick=1, channel=3, data=[37, 8]),\n",
      "   midi.PitchWheelEvent(tick=3, channel=3, data=[118, 5]),\n",
      "   midi.PitchWheelEvent(tick=8, channel=3, data=[85, 10]),\n",
      "   midi.PitchWheelEvent(tick=1, channel=3, data=[18, 20]),\n",
      "   midi.PitchWheelEvent(tick=0, channel=3, data=[94, 36]),\n",
      "   midi.PitchWheelEvent(tick=2, channel=3, data=[56, 60]),\n",
      "   midi.PitchWheelEvent(tick=1, channel=3, data=[0, 64]),\n",
      "   midi.NoteOnEvent(tick=3661, channel=3, data=[64, 98]),\n",
      "   midi.NoteOnEvent(tick=13, channel=3, data=[64, 0]),\n",
      "   midi.NoteOnEvent(tick=17, channel=3, data=[64, 109]),\n",
      "   midi.NoteOnEvent(tick=14, channel=3, data=[64, 0]),\n",
      "   midi.NoteOnEvent(tick=16, channel=3, data=[64, 87]),\n",
      "   midi.NoteOnEvent(tick=44, channel=3, data=[64, 0]),\n",
      "   midi.NoteOnEvent(tick=16, channel=3, data=[62, 108]),\n",
      "   midi.NoteOnEvent(tick=60, channel=3, data=[57, 127]),\n",
      "   midi.NoteOnEvent(tick=5, channel=3, data=[62, 0]),\n",
      "   midi.NoteOnEvent(tick=67, channel=3, data=[57, 0]),\n",
      "   midi.NoteOnEvent(tick=708, channel=3, data=[64, 109]),\n",
      "   midi.NoteOnEvent(tick=13, channel=3, data=[64, 0]),\n",
      "   midi.NoteOnEvent(tick=17, channel=3, data=[64, 98]),\n",
      "   midi.NoteOnEvent(tick=14, channel=3, data=[64, 0]),\n",
      "   midi.NoteOnEvent(tick=16, channel=3, data=[64, 121]),\n",
      "   midi.NoteOnEvent(tick=44, channel=3, data=[64, 0]),\n",
      "   midi.NoteOnEvent(tick=16, channel=3, data=[62, 109]),\n",
      "   midi.NoteOnEvent(tick=60, channel=3, data=[57, 127]),\n",
      "   midi.NoteOnEvent(tick=5, channel=3, data=[62, 0]),\n",
      "   midi.NoteOnEvent(tick=67, channel=3, data=[57, 0]),\n",
      "   midi.NoteOnEvent(tick=2508, channel=3, data=[57, 127]),\n",
      "   midi.NoteOnEvent(tick=16, channel=3, data=[57, 0]),\n",
      "   midi.NoteOnEvent(tick=14, channel=3, data=[57, 127]),\n",
      "   midi.NoteOnEvent(tick=30, channel=3, data=[60, 127]),\n",
      "   midi.NoteOnEvent(tick=13, channel=3, data=[57, 0]),\n",
      "   midi.NoteOnEvent(tick=47, channel=3, data=[57, 127]),\n",
      "   midi.NoteOnEvent(tick=6, channel=3, data=[60, 0]),\n",
      "   midi.NoteOnEvent(tick=54, channel=3, data=[60, 127]),\n",
      "   midi.NoteOnEvent(tick=8, channel=3, data=[57, 0]),\n",
      "   midi.NoteOnEvent(tick=52, channel=3, data=[62, 109]),\n",
      "   midi.NoteOnEvent(tick=4, channel=3, data=[60, 0]),\n",
      "   midi.PitchWheelEvent(tick=23, channel=3, data=[103, 66]),\n",
      "   midi.PitchWheelEvent(tick=1, channel=3, data=[23, 70]),\n",
      "   midi.PitchWheelEvent(tick=1, channel=3, data=[54, 72]),\n",
      "   midi.PitchWheelEvent(tick=1, channel=3, data=[102, 75]),\n",
      "   midi.PitchWheelEvent(tick=1, channel=3, data=[37, 80]),\n",
      "   midi.PitchWheelEvent(tick=1, channel=3, data=[101, 84]),\n",
      "   midi.PitchWheelEvent(tick=2, channel=3, data=[36, 89]),\n",
      "   midi.PitchWheelEvent(tick=0, channel=3, data=[100, 93]),\n",
      "   midi.PitchWheelEvent(tick=1, channel=3, data=[35, 98]),\n",
      "   midi.PitchWheelEvent(tick=1, channel=3, data=[99, 102]),\n",
      "   midi.PitchWheelEvent(tick=1, channel=3, data=[34, 107]),\n",
      "   midi.PitchWheelEvent(tick=2, channel=3, data=[113, 112]),\n",
      "   midi.PitchWheelEvent(tick=0, channel=3, data=[112, 121]),\n",
      "   midi.PitchWheelEvent(tick=1, channel=3, data=[48, 126]),\n",
      "   midi.PitchWheelEvent(tick=1, channel=3, data=[127, 127]),\n",
      "   midi.NoteOnEvent(tick=1, channel=3, data=[62, 0]),\n",
      "   midi.NoteOnEvent(tick=18, channel=3, data=[57, 90]),\n",
      "   midi.PitchWheelEvent(tick=9, channel=3, data=[127, 127]),\n",
      "   midi.PitchWheelEvent(tick=1, channel=3, data=[49, 117]),\n",
      "   midi.PitchWheelEvent(tick=2, channel=3, data=[97, 111]),\n",
      "   midi.PitchWheelEvent(tick=1, channel=3, data=[114, 103]),\n",
      "   midi.PitchWheelEvent(tick=1, channel=3, data=[116, 94]),\n",
      "   midi.PitchWheelEvent(tick=1, channel=3, data=[37, 80]),\n",
      "   midi.PitchWheelEvent(tick=1, channel=3, data=[103, 66]),\n",
      "   midi.PitchWheelEvent(tick=1, channel=3, data=[0, 64]),\n",
      "   midi.NoteOnEvent(tick=62, channel=3, data=[57, 0]),\n",
      "   midi.NoteOnEvent(tick=701, channel=3, data=[64, 127]),\n",
      "   midi.NoteOnEvent(tick=13, channel=3, data=[64, 0]),\n",
      "   midi.NoteOnEvent(tick=17, channel=3, data=[64, 127]),\n",
      "   midi.NoteOnEvent(tick=14, channel=3, data=[64, 0]),\n",
      "   midi.NoteOnEvent(tick=16, channel=3, data=[64, 127]),\n",
      "   midi.NoteOnEvent(tick=44, channel=3, data=[64, 0]),\n",
      "   midi.NoteOnEvent(tick=16, channel=3, data=[62, 127]),\n",
      "   midi.NoteOnEvent(tick=60, channel=3, data=[57, 127]),\n",
      "   midi.NoteOnEvent(tick=5, channel=3, data=[62, 0]),\n",
      "   midi.NoteOnEvent(tick=67, channel=3, data=[57, 0]),\n",
      "   midi.ControlChangeEvent(tick=2308, channel=3, data=[7, 115]),\n",
      "   midi.NoteOnEvent(tick=260, channel=3, data=[62, 121]),\n",
      "   midi.NoteOnEvent(tick=120, channel=3, data=[64, 121]),\n",
      "   midi.NoteOnEvent(tick=11, channel=3, data=[62, 0]),\n",
      "   midi.NoteOnEvent(tick=109, channel=3, data=[62, 121]),\n",
      "   midi.NoteOnEvent(tick=13, channel=3, data=[64, 0]),\n",
      "   midi.NoteOnEvent(tick=107, channel=3, data=[60, 121]),\n",
      "   midi.NoteOnEvent(tick=8, channel=3, data=[62, 0]),\n",
      "   midi.NoteOnEvent(tick=52, channel=3, data=[57, 121]),\n",
      "   midi.NoteOnEvent(tick=12, channel=3, data=[60, 0]),\n",
      "   midi.NoteOnEvent(tick=227, channel=3, data=[57, 0]),\n",
      "   midi.NoteOnEvent(tick=1, channel=3, data=[60, 121]),\n",
      "   midi.NoteOnEvent(tick=58, channel=3, data=[60, 0]),\n",
      "   midi.NoteOnEvent(tick=2, channel=3, data=[62, 121]),\n",
      "   midi.NoteOnEvent(tick=120, channel=3, data=[62, 0]),\n",
      "   midi.NoteOnEvent(tick=0, channel=3, data=[60, 121]),\n",
      "   midi.NoteOnEvent(tick=120, channel=3, data=[62, 121]),\n",
      "   midi.NoteOnEvent(tick=11, channel=3, data=[60, 0]),\n",
      "   midi.NoteOnEvent(tick=109, channel=3, data=[62, 0]),\n",
      "   midi.NoteOnEvent(tick=0, channel=3, data=[64, 121]),\n",
      "   midi.NoteOnEvent(tick=111, channel=3, data=[64, 0]),\n",
      "   midi.NoteOnEvent(tick=9, channel=3, data=[62, 121]),\n",
      "   midi.NoteOnEvent(tick=180, channel=3, data=[69, 121]),\n",
      "   midi.NoteOnEvent(tick=18, channel=3, data=[62, 0]),\n",
      "   midi.NoteOnEvent(tick=102, channel=3, data=[67, 121]),\n",
      "   midi.NoteOnEvent(tick=7, channel=3, data=[69, 0]),\n",
      "   midi.NoteOnEvent(tick=110, channel=3, data=[67, 0]),\n",
      "   midi.NoteOnEvent(tick=3, channel=3, data=[69, 121]),\n",
      "   midi.NoteOnEvent(tick=300, channel=3, data=[62, 121]),\n",
      "   midi.NoteOnEvent(tick=4, channel=3, data=[69, 0]),\n",
      "   midi.NoteOnEvent(tick=113, channel=3, data=[62, 0]),\n",
      "   midi.NoteOnEvent(tick=3, channel=3, data=[64, 121]),\n",
      "   midi.NoteOnEvent(tick=116, channel=3, data=[64, 0]),\n",
      "   midi.NoteOnEvent(tick=4, channel=3, data=[62, 121]),\n",
      "   midi.NoteOnEvent(tick=120, channel=3, data=[60, 121]),\n",
      "   midi.NoteOnEvent(tick=1, channel=3, data=[62, 0]),\n",
      "   midi.NoteOnEvent(tick=59, channel=3, data=[57, 121]),\n",
      "   midi.NoteOnEvent(tick=15, channel=3, data=[60, 0]),\n",
      "   midi.NoteOnEvent(tick=223, channel=3, data=[57, 0]),\n",
      "   midi.NoteOnEvent(tick=2, channel=3, data=[60, 121]),\n",
      "   midi.NoteOnEvent(tick=60, channel=3, data=[62, 121]),\n",
      "   midi.NoteOnEvent(tick=4, channel=3, data=[60, 0]),\n",
      "   midi.NoteOnEvent(tick=107, channel=3, data=[62, 0]),\n",
      "   midi.NoteOnEvent(tick=9, channel=3, data=[60, 121]),\n",
      "   midi.NoteOnEvent(tick=120, channel=3, data=[62, 121]),\n",
      "   midi.NoteOnEvent(tick=22, channel=3, data=[60, 0]),\n",
      "   midi.NoteOnEvent(tick=92, channel=3, data=[62, 0]),\n",
      "   midi.NoteOnEvent(tick=6, channel=3, data=[64, 121]),\n",
      "   midi.NoteOnEvent(tick=106, channel=3, data=[64, 0]),\n",
      "   midi.NoteOnEvent(tick=14, channel=3, data=[62, 121]),\n",
      "   midi.NoteOnEvent(tick=180, channel=3, data=[69, 121]),\n",
      "   midi.NoteOnEvent(tick=24, channel=3, data=[62, 0]),\n",
      "   midi.NoteOnEvent(tick=96, channel=3, data=[67, 121]),\n",
      "   midi.NoteOnEvent(tick=13, channel=3, data=[69, 0]),\n",
      "   midi.NoteOnEvent(tick=100, channel=3, data=[67, 0]),\n",
      "   midi.NoteOnEvent(tick=7, channel=3, data=[69, 121]),\n",
      "   midi.NoteOnEvent(tick=502, channel=3, data=[69, 0]),\n",
      "   midi.PitchWheelEvent(tick=9, channel=3, data=[80, 61]),\n",
      "   midi.PitchWheelEvent(tick=2, channel=3, data=[33, 59]),\n",
      "   midi.PitchWheelEvent(tick=1, channel=3, data=[123, 50]),\n",
      "   midi.PitchWheelEvent(tick=1, channel=3, data=[28, 46]),\n",
      "   midi.PitchWheelEvent(tick=1, channel=3, data=[61, 41]),\n",
      "   midi.PitchWheelEvent(tick=1, channel=3, data=[118, 37]),\n",
      "   midi.PitchWheelEvent(tick=0, channel=3, data=[23, 33]),\n",
      "   midi.PitchWheelEvent(tick=1, channel=3, data=[80, 29]),\n",
      "   midi.PitchWheelEvent(tick=2, channel=3, data=[113, 24]),\n",
      "   midi.PitchWheelEvent(tick=1, channel=3, data=[42, 21]),\n",
      "   midi.PitchWheelEvent(tick=1, channel=3, data=[28, 14]),\n",
      "   midi.PitchWheelEvent(tick=1, channel=3, data=[85, 10]),\n",
      "   midi.PitchWheelEvent(tick=1, channel=3, data=[37, 8]),\n",
      "   midi.PitchWheelEvent(tick=3, channel=3, data=[118, 5]),\n",
      "   midi.ControlChangeEvent(tick=3, channel=3, data=[7, 32]),\n",
      "   midi.PitchWheelEvent(tick=5, channel=3, data=[85, 10]),\n",
      "   midi.PitchWheelEvent(tick=1, channel=3, data=[18, 20]),\n",
      "   midi.PitchWheelEvent(tick=0, channel=3, data=[94, 36]),\n",
      "   midi.PitchWheelEvent(tick=2, channel=3, data=[56, 60]),\n",
      "   midi.PitchWheelEvent(tick=1, channel=3, data=[0, 64]),\n",
      "   midi.ControlChangeEvent(tick=1, channel=3, data=[7, 66]),\n",
      "   midi.NoteOnEvent(tick=0, channel=3, data=[48, 127]),\n",
      "   midi.ControlChangeEvent(tick=10, channel=3, data=[7, 65]),\n",
      "   midi.ControlChangeEvent(tick=20, channel=3, data=[7, 62]),\n",
      "   midi.ControlChangeEvent(tick=20, channel=3, data=[7, 59]),\n",
      "   midi.ControlChangeEvent(tick=10, channel=3, data=[7, 58]),\n",
      "   midi.ControlChangeEvent(tick=30, channel=3, data=[7, 55]),\n",
      "   midi.ControlChangeEvent(tick=50, channel=3, data=[7, 54]),\n",
      "   midi.ControlChangeEvent(tick=90, channel=3, data=[7, 53]),\n",
      "   midi.ControlChangeEvent(tick=40, channel=3, data=[7, 52]),\n",
      "   midi.ControlChangeEvent(tick=150, channel=3, data=[7, 53]),\n",
      "   midi.ControlChangeEvent(tick=30, channel=3, data=[7, 55]),\n",
      "   midi.ControlChangeEvent(tick=30, channel=3, data=[7, 56]),\n",
      "   midi.ControlChangeEvent(tick=90, channel=3, data=[7, 57]),\n",
      "   midi.ControlChangeEvent(tick=10, channel=3, data=[7, 58]),\n",
      "   midi.ControlChangeEvent(tick=30, channel=3, data=[7, 59]),\n",
      "   midi.ControlChangeEvent(tick=40, channel=3, data=[7, 60]),\n",
      "   midi.ControlChangeEvent(tick=30, channel=3, data=[7, 62]),\n",
      "   midi.ControlChangeEvent(tick=20, channel=3, data=[7, 63]),\n",
      "   midi.ControlChangeEvent(tick=20, channel=3, data=[7, 64]),\n",
      "   midi.ControlChangeEvent(tick=20, channel=3, data=[7, 65]),\n",
      "   midi.ControlChangeEvent(tick=10, channel=3, data=[7, 66]),\n",
      "   midi.ControlChangeEvent(tick=10, channel=3, data=[7, 68]),\n",
      "   midi.ControlChangeEvent(tick=20, channel=3, data=[7, 69]),\n",
      "   midi.ControlChangeEvent(tick=10, channel=3, data=[7, 70]),\n",
      "   midi.ControlChangeEvent(tick=40, channel=3, data=[7, 71]),\n",
      "   midi.ControlChangeEvent(tick=40, channel=3, data=[7, 73]),\n",
      "   midi.ControlChangeEvent(tick=30, channel=3, data=[7, 75]),\n",
      "   midi.ControlChangeEvent(tick=40, channel=3, data=[7, 76]),\n",
      "   midi.ControlChangeEvent(tick=20, channel=3, data=[7, 77]),\n",
      "   midi.ControlChangeEvent(tick=20, channel=3, data=[7, 78]),\n",
      "   midi.ControlChangeEvent(tick=20, channel=3, data=[7, 79]),\n",
      "   midi.ControlChangeEvent(tick=30, channel=3, data=[7, 80]),\n",
      "   midi.ControlChangeEvent(tick=10, channel=3, data=[7, 81]),\n",
      "   midi.ControlChangeEvent(tick=30, channel=3, data=[7, 82]),\n",
      "   midi.ControlChangeEvent(tick=30, channel=3, data=[7, 84]),\n",
      "   midi.ControlChangeEvent(tick=10, channel=3, data=[7, 85]),\n",
      "   midi.ControlChangeEvent(tick=10, channel=3, data=[7, 88]),\n",
      "   midi.ControlChangeEvent(tick=20, channel=3, data=[7, 87]),\n",
      "   midi.ControlChangeEvent(tick=10, channel=3, data=[7, 89]),\n",
      "   midi.ControlChangeEvent(tick=20, channel=3, data=[7, 90]),\n",
      "   midi.ControlChangeEvent(tick=20, channel=3, data=[7, 91]),\n",
      "   midi.ControlChangeEvent(tick=20, channel=3, data=[7, 92]),\n",
      "   midi.ControlChangeEvent(tick=20, channel=3, data=[7, 93]),\n",
      "   midi.ControlChangeEvent(tick=20, channel=3, data=[7, 94]),\n",
      "   midi.ControlChangeEvent(tick=20, channel=3, data=[7, 95]),\n",
      "   midi.ControlChangeEvent(tick=30, channel=3, data=[7, 96]),\n",
      "   midi.ControlChangeEvent(tick=20, channel=3, data=[7, 97]),\n",
      "   midi.ControlChangeEvent(tick=20, channel=3, data=[7, 98]),\n",
      "   midi.ControlChangeEvent(tick=20, channel=3, data=[7, 99]),\n",
      "   midi.ControlChangeEvent(tick=20, channel=3, data=[7, 100]),\n",
      "   midi.ControlChangeEvent(tick=20, channel=3, data=[7, 101]),\n",
      "   midi.ControlChangeEvent(tick=20, channel=3, data=[7, 102]),\n",
      "   midi.ControlChangeEvent(tick=20, channel=3, data=[7, 103]),\n",
      "   midi.ControlChangeEvent(tick=20, channel=3, data=[7, 104]),\n",
      "   midi.ControlChangeEvent(tick=20, channel=3, data=[7, 105]),\n",
      "   midi.ControlChangeEvent(tick=20, channel=3, data=[7, 106]),\n",
      "   midi.ControlChangeEvent(tick=20, channel=3, data=[7, 107]),\n",
      "   midi.ControlChangeEvent(tick=20, channel=3, data=[7, 108]),\n",
      "   midi.ControlChangeEvent(tick=20, channel=3, data=[7, 109]),\n",
      "   midi.ControlChangeEvent(tick=20, channel=3, data=[7, 110]),\n",
      "   midi.ControlChangeEvent(tick=20, channel=3, data=[7, 111]),\n",
      "   midi.ControlChangeEvent(tick=20, channel=3, data=[7, 112]),\n",
      "   midi.ControlChangeEvent(tick=20, channel=3, data=[7, 113]),\n",
      "   midi.ControlChangeEvent(tick=20, channel=3, data=[7, 114]),\n",
      "   midi.ControlChangeEvent(tick=20, channel=3, data=[7, 115]),\n",
      "   midi.ControlChangeEvent(tick=20, channel=3, data=[7, 116]),\n",
      "   midi.ControlChangeEvent(tick=20, channel=3, data=[7, 117]),\n",
      "   midi.ControlChangeEvent(tick=20, channel=3, data=[7, 118]),\n",
      "   midi.ControlChangeEvent(tick=20, channel=3, data=[7, 119]),\n",
      "   midi.ControlChangeEvent(tick=20, channel=3, data=[7, 120]),\n",
      "   midi.ControlChangeEvent(tick=20, channel=3, data=[7, 121]),\n",
      "   midi.ControlChangeEvent(tick=20, channel=3, data=[7, 122]),\n",
      "   midi.ControlChangeEvent(tick=20, channel=3, data=[7, 123]),\n",
      "   midi.ControlChangeEvent(tick=20, channel=3, data=[7, 124]),\n",
      "   midi.ControlChangeEvent(tick=20, channel=3, data=[7, 125]),\n",
      "   midi.ControlChangeEvent(tick=20, channel=3, data=[7, 126]),\n",
      "   midi.ControlChangeEvent(tick=20, channel=3, data=[7, 127]),\n",
      "   midi.NoteOnEvent(tick=103, channel=3, data=[48, 0]),\n",
      "   midi.NoteOnEvent(tick=7577, channel=3, data=[57, 127]),\n",
      "   midi.NoteOnEvent(tick=72, channel=3, data=[57, 0]),\n",
      "   midi.NoteOnEvent(tick=708, channel=3, data=[64, 109]),\n",
      "   midi.NoteOnEvent(tick=13, channel=3, data=[64, 0]),\n",
      "   midi.NoteOnEvent(tick=17, channel=3, data=[64, 98]),\n",
      "   midi.NoteOnEvent(tick=14, channel=3, data=[64, 0]),\n",
      "   midi.NoteOnEvent(tick=16, channel=3, data=[64, 121]),\n",
      "   midi.NoteOnEvent(tick=44, channel=3, data=[64, 0]),\n",
      "   midi.NoteOnEvent(tick=16, channel=3, data=[62, 109]),\n",
      "   midi.NoteOnEvent(tick=60, channel=3, data=[57, 127]),\n",
      "   midi.NoteOnEvent(tick=5, channel=3, data=[62, 0]),\n",
      "   midi.NoteOnEvent(tick=67, channel=3, data=[57, 0]),\n",
      "   midi.NoteOnEvent(tick=2508, channel=3, data=[57, 109]),\n",
      "   midi.NoteOnEvent(tick=16, channel=3, data=[57, 0]),\n",
      "   midi.NoteOnEvent(tick=14, channel=3, data=[57, 109]),\n",
      "   midi.NoteOnEvent(tick=30, channel=3, data=[60, 93]),\n",
      "   midi.NoteOnEvent(tick=13, channel=3, data=[57, 0]),\n",
      "   midi.NoteOnEvent(tick=47, channel=3, data=[57, 109]),\n",
      "   midi.NoteOnEvent(tick=6, channel=3, data=[60, 0]),\n",
      "   midi.NoteOnEvent(tick=54, channel=3, data=[60, 121]),\n",
      "   midi.NoteOnEvent(tick=8, channel=3, data=[57, 0]),\n",
      "   midi.NoteOnEvent(tick=52, channel=3, data=[62, 115]),\n",
      "   midi.NoteOnEvent(tick=4, channel=3, data=[60, 0]),\n",
      "   midi.PitchWheelEvent(tick=23, channel=3, data=[103, 66]),\n",
      "   midi.PitchWheelEvent(tick=2, channel=3, data=[54, 72]),\n",
      "   midi.PitchWheelEvent(tick=5, channel=3, data=[36, 89]),\n",
      "   midi.PitchWheelEvent(tick=3, channel=3, data=[34, 107]),\n",
      "   midi.PitchWheelEvent(tick=4, channel=3, data=[127, 127]),\n",
      "   midi.NoteOnEvent(tick=1, channel=3, data=[62, 0]),\n",
      "   midi.NoteOnEvent(tick=18, channel=3, data=[57, 90]),\n",
      "   midi.PitchWheelEvent(tick=9, channel=3, data=[127, 127]),\n",
      "   midi.PitchWheelEvent(tick=3, channel=3, data=[97, 111]),\n",
      "   midi.PitchWheelEvent(tick=2, channel=3, data=[116, 94]),\n",
      "   midi.PitchWheelEvent(tick=2, channel=3, data=[103, 66]),\n",
      "   midi.PitchWheelEvent(tick=1, channel=3, data=[0, 64]),\n",
      "   midi.NoteOnEvent(tick=62, channel=3, data=[57, 0]),\n",
      "   midi.NoteOnEvent(tick=701, channel=3, data=[64, 98]),\n",
      "   midi.NoteOnEvent(tick=13, channel=3, data=[64, 0]),\n",
      "   midi.NoteOnEvent(tick=17, channel=3, data=[64, 109]),\n",
      "   midi.NoteOnEvent(tick=14, channel=3, data=[64, 0]),\n",
      "   midi.NoteOnEvent(tick=16, channel=3, data=[64, 87]),\n",
      "   midi.NoteOnEvent(tick=44, channel=3, data=[64, 0]),\n",
      "   midi.NoteOnEvent(tick=16, channel=3, data=[62, 98]),\n",
      "   midi.NoteOnEvent(tick=60, channel=3, data=[57, 109]),\n",
      "   midi.NoteOnEvent(tick=5, channel=3, data=[62, 0]),\n",
      "   midi.NoteOnEvent(tick=67, channel=3, data=[57, 0]),\n",
      "   midi.ControlChangeEvent(tick=2328, channel=3, data=[7, 122]),\n",
      "   midi.NoteOnEvent(tick=240, channel=3, data=[62, 121]),\n",
      "   midi.NoteOnEvent(tick=120, channel=3, data=[64, 121]),\n",
      "   midi.NoteOnEvent(tick=11, channel=3, data=[62, 0]),\n",
      "   midi.NoteOnEvent(tick=109, channel=3, data=[62, 121]),\n",
      "   midi.NoteOnEvent(tick=13, channel=3, data=[64, 0]),\n",
      "   midi.NoteOnEvent(tick=107, channel=3, data=[60, 121]),\n",
      "   midi.NoteOnEvent(tick=8, channel=3, data=[62, 0]),\n",
      "   midi.NoteOnEvent(tick=52, channel=3, data=[57, 121]),\n",
      "   midi.NoteOnEvent(tick=12, channel=3, data=[60, 0]),\n",
      "   midi.NoteOnEvent(tick=227, channel=3, data=[57, 0]),\n",
      "   midi.NoteOnEvent(tick=1, channel=3, data=[60, 121]),\n",
      "   midi.NoteOnEvent(tick=58, channel=3, data=[60, 0]),\n",
      "   midi.NoteOnEvent(tick=2, channel=3, data=[62, 121]),\n",
      "   midi.NoteOnEvent(tick=120, channel=3, data=[62, 0]),\n",
      "   midi.NoteOnEvent(tick=0, channel=3, data=[60, 121]),\n",
      "   midi.NoteOnEvent(tick=120, channel=3, data=[62, 121]),\n",
      "   midi.NoteOnEvent(tick=11, channel=3, data=[60, 0]),\n",
      "   midi.NoteOnEvent(tick=109, channel=3, data=[62, 0]),\n",
      "   midi.NoteOnEvent(tick=0, channel=3, data=[64, 121]),\n",
      "   midi.NoteOnEvent(tick=111, channel=3, data=[64, 0]),\n",
      "   midi.NoteOnEvent(tick=9, channel=3, data=[62, 121]),\n",
      "   midi.NoteOnEvent(tick=180, channel=3, data=[69, 121]),\n",
      "   midi.NoteOnEvent(tick=18, channel=3, data=[62, 0]),\n",
      "   midi.NoteOnEvent(tick=102, channel=3, data=[67, 121]),\n",
      "   midi.NoteOnEvent(tick=7, channel=3, data=[69, 0]),\n",
      "   midi.NoteOnEvent(tick=110, channel=3, data=[67, 0]),\n",
      "   midi.NoteOnEvent(tick=3, channel=3, data=[69, 121]),\n",
      "   midi.NoteOnEvent(tick=300, channel=3, data=[62, 121]),\n",
      "   midi.NoteOnEvent(tick=4, channel=3, data=[69, 0]),\n",
      "   midi.NoteOnEvent(tick=113, channel=3, data=[62, 0]),\n",
      "   midi.NoteOnEvent(tick=3, channel=3, data=[64, 121]),\n",
      "   midi.NoteOnEvent(tick=116, channel=3, data=[64, 0]),\n",
      "   midi.NoteOnEvent(tick=4, channel=3, data=[62, 121]),\n",
      "   midi.NoteOnEvent(tick=120, channel=3, data=[60, 121]),\n",
      "   midi.NoteOnEvent(tick=1, channel=3, data=[62, 0]),\n",
      "   midi.NoteOnEvent(tick=59, channel=3, data=[57, 121]),\n",
      "   midi.NoteOnEvent(tick=15, channel=3, data=[60, 0]),\n",
      "   midi.NoteOnEvent(tick=223, channel=3, data=[57, 0]),\n",
      "   midi.NoteOnEvent(tick=2, channel=3, data=[60, 121]),\n",
      "   midi.NoteOnEvent(tick=60, channel=3, data=[62, 121]),\n",
      "   midi.NoteOnEvent(tick=4, channel=3, data=[60, 0]),\n",
      "   midi.NoteOnEvent(tick=107, channel=3, data=[62, 0]),\n",
      "   midi.NoteOnEvent(tick=9, channel=3, data=[60, 121]),\n",
      "   midi.NoteOnEvent(tick=120, channel=3, data=[62, 121]),\n",
      "   midi.NoteOnEvent(tick=22, channel=3, data=[60, 0]),\n",
      "   midi.NoteOnEvent(tick=92, channel=3, data=[62, 0]),\n",
      "   midi.NoteOnEvent(tick=6, channel=3, data=[64, 121]),\n",
      "   midi.NoteOnEvent(tick=106, channel=3, data=[64, 0]),\n",
      "   midi.NoteOnEvent(tick=14, channel=3, data=[62, 121]),\n",
      "   midi.NoteOnEvent(tick=180, channel=3, data=[69, 121]),\n",
      "   midi.NoteOnEvent(tick=24, channel=3, data=[62, 0]),\n",
      "   midi.NoteOnEvent(tick=96, channel=3, data=[67, 121]),\n",
      "   midi.NoteOnEvent(tick=13, channel=3, data=[69, 0]),\n",
      "   midi.NoteOnEvent(tick=100, channel=3, data=[67, 0]),\n",
      "   midi.NoteOnEvent(tick=7, channel=3, data=[69, 121]),\n",
      "   midi.NoteOnEvent(tick=300, channel=3, data=[62, 121]),\n",
      "   midi.NoteOnEvent(tick=120, channel=3, data=[64, 121]),\n",
      "   midi.NoteOnEvent(tick=11, channel=3, data=[62, 0]),\n",
      "   midi.NoteOnEvent(tick=71, channel=3, data=[69, 0]),\n",
      "   midi.NoteOnEvent(tick=38, channel=3, data=[62, 121]),\n",
      "   midi.NoteOnEvent(tick=13, channel=3, data=[64, 0]),\n",
      "   midi.NoteOnEvent(tick=107, channel=3, data=[60, 121]),\n",
      "   midi.NoteOnEvent(tick=8, channel=3, data=[62, 0]),\n",
      "   midi.NoteOnEvent(tick=52, channel=3, data=[57, 121]),\n",
      "   midi.NoteOnEvent(tick=12, channel=3, data=[60, 0]),\n",
      "   midi.NoteOnEvent(tick=227, channel=3, data=[57, 0]),\n",
      "   midi.NoteOnEvent(tick=1, channel=3, data=[60, 121]),\n",
      "   midi.NoteOnEvent(tick=58, channel=3, data=[60, 0]),\n",
      "   midi.NoteOnEvent(tick=2, channel=3, data=[62, 121]),\n",
      "   midi.NoteOnEvent(tick=120, channel=3, data=[62, 0]),\n",
      "   midi.NoteOnEvent(tick=0, channel=3, data=[60, 121]),\n",
      "   midi.NoteOnEvent(tick=120, channel=3, data=[62, 121]),\n",
      "   midi.NoteOnEvent(tick=11, channel=3, data=[60, 0]),\n",
      "   midi.NoteOnEvent(tick=109, channel=3, data=[62, 0]),\n",
      "   midi.NoteOnEvent(tick=0, channel=3, data=[64, 121]),\n",
      "   midi.NoteOnEvent(tick=111, channel=3, data=[64, 0]),\n",
      "   midi.NoteOnEvent(tick=9, channel=3, data=[62, 121]),\n",
      "   midi.NoteOnEvent(tick=180, channel=3, data=[69, 121]),\n",
      "   midi.NoteOnEvent(tick=18, channel=3, data=[62, 0]),\n",
      "   midi.NoteOnEvent(tick=102, channel=3, data=[67, 121]),\n",
      "   midi.NoteOnEvent(tick=7, channel=3, data=[69, 0]),\n",
      "   midi.NoteOnEvent(tick=110, channel=3, data=[67, 0]),\n",
      "   midi.NoteOnEvent(tick=3, channel=3, data=[69, 121]),\n",
      "   midi.NoteOnEvent(tick=300, channel=3, data=[62, 121]),\n",
      "   midi.NoteOnEvent(tick=4, channel=3, data=[69, 0]),\n",
      "   midi.NoteOnEvent(tick=113, channel=3, data=[62, 0]),\n",
      "   midi.NoteOnEvent(tick=3, channel=3, data=[64, 121]),\n",
      "   midi.NoteOnEvent(tick=116, channel=3, data=[64, 0]),\n",
      "   midi.NoteOnEvent(tick=4, channel=3, data=[62, 121]),\n",
      "   midi.NoteOnEvent(tick=120, channel=3, data=[60, 121]),\n",
      "   midi.NoteOnEvent(tick=1, channel=3, data=[62, 0]),\n",
      "   midi.NoteOnEvent(tick=59, channel=3, data=[57, 121]),\n",
      "   midi.NoteOnEvent(tick=15, channel=3, data=[60, 0]),\n",
      "   midi.NoteOnEvent(tick=223, channel=3, data=[57, 0]),\n",
      "   midi.NoteOnEvent(tick=2, channel=3, data=[60, 121]),\n",
      "   midi.NoteOnEvent(tick=60, channel=3, data=[62, 121]),\n",
      "   midi.NoteOnEvent(tick=4, channel=3, data=[60, 0]),\n",
      "   midi.NoteOnEvent(tick=107, channel=3, data=[62, 0]),\n",
      "   midi.NoteOnEvent(tick=9, channel=3, data=[60, 121]),\n",
      "   midi.NoteOnEvent(tick=120, channel=3, data=[62, 121]),\n",
      "   midi.NoteOnEvent(tick=22, channel=3, data=[60, 0]),\n",
      "   midi.NoteOnEvent(tick=92, channel=3, data=[62, 0]),\n",
      "   midi.NoteOnEvent(tick=6, channel=3, data=[64, 121]),\n",
      "   midi.NoteOnEvent(tick=106, channel=3, data=[64, 0]),\n",
      "   midi.NoteOnEvent(tick=14, channel=3, data=[62, 121]),\n",
      "   midi.NoteOnEvent(tick=180, channel=3, data=[69, 121]),\n",
      "   midi.NoteOnEvent(tick=24, channel=3, data=[62, 0]),\n",
      "   midi.NoteOnEvent(tick=96, channel=3, data=[67, 121]),\n",
      "   midi.NoteOnEvent(tick=13, channel=3, data=[69, 0]),\n",
      "   midi.NoteOnEvent(tick=100, channel=3, data=[67, 0]),\n",
      "   midi.NoteOnEvent(tick=7, channel=3, data=[69, 121]),\n",
      "   midi.NoteOnEvent(tick=502, channel=3, data=[69, 0]),\n",
      "   midi.EndOfTrackEvent(tick=0, data=[])]),\n",
      " midi.Track(\\\n",
      "  [midi.PortEvent(tick=0, data=[0]),\n",
      "   midi.TrackNameEvent(tick=0, text='Overdrive G-030', data=[79, 118, 101, 114, 100, 114, 105, 118, 101, 32, 71, 45, 48, 51, 48]),\n",
      "   midi.ProgramChangeEvent(tick=0, channel=4, data=[29]),\n",
      "   midi.ControlChangeEvent(tick=0, channel=4, data=[7, 127]),\n",
      "   midi.ControlChangeEvent(tick=0, channel=4, data=[10, 88]),\n",
      "   midi.ControlChangeEvent(tick=11040, channel=4, data=[91, 99]),\n",
      "   midi.ControlChangeEvent(tick=0, channel=4, data=[1, 99]),\n",
      "   midi.ControlChangeEvent(tick=0, channel=4, data=[7, 102]),\n",
      "   midi.ControlChangeEvent(tick=0, channel=4, data=[10, 32]),\n",
      "   midi.NoteOnEvent(tick=1, channel=4, data=[55, 125]),\n",
      "   midi.NoteOnEvent(tick=0, channel=4, data=[57, 122]),\n",
      "   midi.NoteOnEvent(tick=0, channel=4, data=[72, 127]),\n",
      "   midi.NoteOnEvent(tick=0, channel=4, data=[64, 127]),\n",
      "   midi.NoteOnEvent(tick=0, channel=4, data=[69, 127]),\n",
      "   midi.ControlChangeEvent(tick=0, channel=4, data=[7, 101]),\n",
      "   midi.ControlChangeEvent(tick=9, channel=4, data=[7, 100]),\n",
      "   midi.ControlChangeEvent(tick=10, channel=4, data=[7, 99]),\n",
      "   midi.NoteOnEvent(tick=10, channel=4, data=[57, 0]),\n",
      "   midi.NoteOnEvent(tick=0, channel=4, data=[55, 0]),\n",
      "   midi.ControlChangeEvent(tick=0, channel=4, data=[7, 98]),\n",
      "   midi.ControlChangeEvent(tick=10, channel=4, data=[7, 97]),\n",
      "   midi.ControlChangeEvent(tick=10, channel=4, data=[7, 96]),\n",
      "   midi.ControlChangeEvent(tick=10, channel=4, data=[7, 95]),\n",
      "   midi.NoteOnEvent(tick=1, channel=4, data=[64, 0]),\n",
      "   midi.NoteOnEvent(tick=0, channel=4, data=[72, 0]),\n",
      "   midi.NoteOnEvent(tick=0, channel=4, data=[69, 0]),\n",
      "   midi.ControlChangeEvent(tick=9, channel=4, data=[7, 93]),\n",
      "   midi.ControlChangeEvent(tick=10, channel=4, data=[7, 92]),\n",
      "   midi.ControlChangeEvent(tick=9, channel=4, data=[10, 96]),\n",
      "   midi.NoteOnEvent(tick=1, channel=4, data=[69, 127]),\n",
      "   midi.NoteOnEvent(tick=0, channel=4, data=[64, 127]),\n",
      "   midi.NoteOnEvent(tick=0, channel=4, data=[72, 127]),\n",
      "   midi.NoteOnEvent(tick=0, channel=4, data=[57, 122]),\n",
      "   midi.NoteOnEvent(tick=0, channel=4, data=[55, 125]),\n",
      "   midi.ControlChangeEvent(tick=0, channel=4, data=[7, 91]),\n",
      "   midi.ControlChangeEvent(tick=10, channel=4, data=[7, 90]),\n",
      "   midi.ControlChangeEvent(tick=10, channel=4, data=[7, 89]),\n",
      "   midi.NoteOnEvent(tick=9, channel=4, data=[55, 0]),\n",
      "   midi.NoteOnEvent(tick=0, channel=4, data=[57, 0]),\n",
      "   midi.ControlChangeEvent(tick=1, channel=4, data=[7, 88]),\n",
      "   midi.ControlChangeEvent(tick=10, channel=4, data=[7, 87]),\n",
      "   midi.ControlChangeEvent(tick=10, channel=4, data=[7, 86]),\n",
      "   midi.NoteOnEvent(tick=10, channel=4, data=[69, 0]),\n",
      "   midi.NoteOnEvent(tick=0, channel=4, data=[64, 0]),\n",
      "   midi.NoteOnEvent(tick=0, channel=4, data=[72, 0]),\n",
      "   midi.ControlChangeEvent(tick=0, channel=4, data=[7, 84]),\n",
      "   midi.ControlChangeEvent(tick=10, channel=4, data=[7, 83]),\n",
      "   midi.ControlChangeEvent(tick=10, channel=4, data=[7, 82]),\n",
      "   midi.ControlChangeEvent(tick=9, channel=4, data=[10, 32]),\n",
      "   midi.NoteOnEvent(tick=1, channel=4, data=[69, 127]),\n",
      "   midi.NoteOnEvent(tick=0, channel=4, data=[64, 127]),\n",
      "   midi.NoteOnEvent(tick=0, channel=4, data=[72, 127]),\n",
      "   midi.NoteOnEvent(tick=0, channel=4, data=[57, 122]),\n",
      "   midi.NoteOnEvent(tick=0, channel=4, data=[55, 125]),\n",
      "   midi.ControlChangeEvent(tick=0, channel=4, data=[7, 81]),\n",
      "   midi.ControlChangeEvent(tick=10, channel=4, data=[7, 80]),\n",
      "   midi.ControlChangeEvent(tick=10, channel=4, data=[7, 79]),\n",
      "   midi.NoteOnEvent(tick=9, channel=4, data=[55, 0]),\n",
      "   midi.NoteOnEvent(tick=0, channel=4, data=[57, 0]),\n",
      "   midi.ControlChangeEvent(tick=1, channel=4, data=[7, 78]),\n",
      "   midi.ControlChangeEvent(tick=10, channel=4, data=[7, 77]),\n",
      "   midi.ControlChangeEvent(tick=10, channel=4, data=[7, 75]),\n",
      "   midi.NoteOnEvent(tick=10, channel=4, data=[69, 0]),\n",
      "   midi.NoteOnEvent(tick=0, channel=4, data=[64, 0]),\n",
      "   midi.NoteOnEvent(tick=0, channel=4, data=[72, 0]),\n",
      "   midi.ControlChangeEvent(tick=0, channel=4, data=[7, 74]),\n",
      "   midi.ControlChangeEvent(tick=10, channel=4, data=[7, 73]),\n",
      "   midi.ControlChangeEvent(tick=10, channel=4, data=[7, 72]),\n",
      "   midi.ControlChangeEvent(tick=9, channel=4, data=[10, 96]),\n",
      "   midi.NoteOnEvent(tick=1, channel=4, data=[69, 127]),\n",
      "   midi.NoteOnEvent(tick=0, channel=4, data=[64, 127]),\n",
      "   midi.NoteOnEvent(tick=0, channel=4, data=[72, 127]),\n",
      "   midi.NoteOnEvent(tick=0, channel=4, data=[57, 122]),\n",
      "   midi.NoteOnEvent(tick=0, channel=4, data=[55, 125]),\n",
      "   midi.ControlChangeEvent(tick=0, channel=4, data=[7, 71]),\n",
      "   midi.ControlChangeEvent(tick=10, channel=4, data=[7, 70]),\n",
      "   midi.ControlChangeEvent(tick=10, channel=4, data=[7, 69]),\n",
      "   midi.NoteOnEvent(tick=9, channel=4, data=[55, 0]),\n",
      "   midi.NoteOnEvent(tick=0, channel=4, data=[57, 0]),\n",
      "   midi.ControlChangeEvent(tick=1, channel=4, data=[7, 67]),\n",
      "   midi.ControlChangeEvent(tick=10, channel=4, data=[7, 66]),\n",
      "   midi.ControlChangeEvent(tick=10, channel=4, data=[7, 65]),\n",
      "   midi.NoteOnEvent(tick=10, channel=4, data=[69, 0]),\n",
      "   midi.NoteOnEvent(tick=0, channel=4, data=[64, 0]),\n",
      "   midi.NoteOnEvent(tick=0, channel=4, data=[72, 0]),\n",
      "   midi.ControlChangeEvent(tick=0, channel=4, data=[7, 64]),\n",
      "   midi.ControlChangeEvent(tick=10, channel=4, data=[7, 63]),\n",
      "   midi.ControlChangeEvent(tick=10, channel=4, data=[7, 62]),\n",
      "   midi.ControlChangeEvent(tick=8, channel=4, data=[10, 32]),\n",
      "   midi.NoteOnEvent(tick=2, channel=4, data=[69, 127]),\n",
      "   midi.NoteOnEvent(tick=0, channel=4, data=[64, 127]),\n",
      "   midi.NoteOnEvent(tick=0, channel=4, data=[72, 127]),\n",
      "   midi.NoteOnEvent(tick=0, channel=4, data=[57, 122]),\n",
      "   midi.NoteOnEvent(tick=0, channel=4, data=[55, 125]),\n",
      "   midi.ControlChangeEvent(tick=0, channel=4, data=[7, 61]),\n",
      "   midi.ControlChangeEvent(tick=10, channel=4, data=[7, 60]),\n",
      "   midi.ControlChangeEvent(tick=10, channel=4, data=[7, 58]),\n",
      "   midi.NoteOnEvent(tick=9, channel=4, data=[55, 0]),\n",
      "   midi.NoteOnEvent(tick=0, channel=4, data=[57, 0]),\n",
      "   midi.ControlChangeEvent(tick=1, channel=4, data=[7, 57]),\n",
      "   midi.ControlChangeEvent(tick=10, channel=4, data=[7, 56]),\n",
      "   midi.ControlChangeEvent(tick=10, channel=4, data=[7, 55]),\n",
      "   midi.NoteOnEvent(tick=10, channel=4, data=[69, 0]),\n",
      "   midi.NoteOnEvent(tick=0, channel=4, data=[64, 0]),\n",
      "   midi.NoteOnEvent(tick=0, channel=4, data=[72, 0]),\n",
      "   midi.ControlChangeEvent(tick=0, channel=4, data=[7, 54]),\n",
      "   midi.ControlChangeEvent(tick=10, channel=4, data=[7, 53]),\n",
      "   midi.ControlChangeEvent(tick=10, channel=4, data=[7, 52]),\n",
      "   midi.ControlChangeEvent(tick=9, channel=4, data=[10, 96]),\n",
      "   midi.NoteOnEvent(tick=1, channel=4, data=[69, 127]),\n",
      "   midi.NoteOnEvent(tick=0, channel=4, data=[64, 127]),\n",
      "   midi.NoteOnEvent(tick=0, channel=4, data=[72, 127]),\n",
      "   midi.NoteOnEvent(tick=0, channel=4, data=[57, 122]),\n",
      "   midi.NoteOnEvent(tick=0, channel=4, data=[55, 125]),\n",
      "   midi.ControlChangeEvent(tick=0, channel=4, data=[7, 51]),\n",
      "   midi.ControlChangeEvent(tick=10, channel=4, data=[7, 49]),\n",
      "   midi.ControlChangeEvent(tick=10, channel=4, data=[7, 48]),\n",
      "   midi.NoteOnEvent(tick=9, channel=4, data=[55, 0]),\n",
      "   midi.NoteOnEvent(tick=0, channel=4, data=[57, 0]),\n",
      "   midi.ControlChangeEvent(tick=1, channel=4, data=[7, 47]),\n",
      "   midi.ControlChangeEvent(tick=10, channel=4, data=[7, 46]),\n",
      "   midi.ControlChangeEvent(tick=10, channel=4, data=[7, 45]),\n",
      "   midi.NoteOnEvent(tick=10, channel=4, data=[69, 0]),\n",
      "   midi.NoteOnEvent(tick=0, channel=4, data=[64, 0]),\n",
      "   midi.NoteOnEvent(tick=0, channel=4, data=[72, 0]),\n",
      "   midi.ControlChangeEvent(tick=0, channel=4, data=[7, 44]),\n",
      "   midi.ControlChangeEvent(tick=10, channel=4, data=[7, 43]),\n",
      "   midi.ControlChangeEvent(tick=10, channel=4, data=[7, 41]),\n",
      "   midi.ControlChangeEvent(tick=9, channel=4, data=[10, 32]),\n",
      "   midi.NoteOnEvent(tick=1, channel=4, data=[69, 127]),\n",
      "   midi.NoteOnEvent(tick=0, channel=4, data=[64, 127]),\n",
      "   midi.NoteOnEvent(tick=0, channel=4, data=[72, 127]),\n",
      "   midi.NoteOnEvent(tick=0, channel=4, data=[57, 122]),\n",
      "   midi.NoteOnEvent(tick=0, channel=4, data=[55, 125]),\n",
      "   midi.ControlChangeEvent(tick=0, channel=4, data=[7, 39]),\n",
      "   midi.ControlChangeEvent(tick=10, channel=4, data=[7, 38]),\n",
      "   midi.ControlChangeEvent(tick=10, channel=4, data=[7, 36]),\n",
      "   midi.NoteOnEvent(tick=9, channel=4, data=[55, 0]),\n",
      "   midi.NoteOnEvent(tick=0, channel=4, data=[57, 0]),\n",
      "   midi.ControlChangeEvent(tick=1, channel=4, data=[7, 35]),\n",
      "   midi.ControlChangeEvent(tick=10, channel=4, data=[7, 34]),\n",
      "   midi.ControlChangeEvent(tick=10, channel=4, data=[7, 32]),\n",
      "   midi.NoteOnEvent(tick=10, channel=4, data=[69, 0]),\n",
      "   midi.NoteOnEvent(tick=0, channel=4, data=[64, 0]),\n",
      "   midi.NoteOnEvent(tick=0, channel=4, data=[72, 0]),\n",
      "   midi.ControlChangeEvent(tick=10, channel=4, data=[7, 29]),\n",
      "   midi.ControlChangeEvent(tick=20, channel=4, data=[10, 96]),\n",
      "   midi.NoteOnEvent(tick=0, channel=4, data=[69, 127]),\n",
      "   midi.NoteOnEvent(tick=0, channel=4, data=[64, 127]),\n",
      "   midi.NoteOnEvent(tick=0, channel=4, data=[72, 127]),\n",
      "   midi.NoteOnEvent(tick=0, channel=4, data=[57, 122]),\n",
      "   midi.NoteOnEvent(tick=0, channel=4, data=[55, 125]),\n",
      "   midi.ControlChangeEvent(tick=0, channel=4, data=[7, 28]),\n",
      "   midi.ControlChangeEvent(tick=10, channel=4, data=[7, 27]),\n",
      "   midi.ControlChangeEvent(tick=10, channel=4, data=[7, 26]),\n",
      "   midi.NoteOnEvent(tick=9, channel=4, data=[55, 0]),\n",
      "   midi.NoteOnEvent(tick=0, channel=4, data=[57, 0]),\n",
      "   midi.ControlChangeEvent(tick=1, channel=4, data=[7, 25]),\n",
      "   midi.ControlChangeEvent(tick=10, channel=4, data=[7, 24]),\n",
      "   midi.ControlChangeEvent(tick=10, channel=4, data=[7, 23]),\n",
      "   midi.NoteOnEvent(tick=10, channel=4, data=[69, 0]),\n",
      "   midi.NoteOnEvent(tick=0, channel=4, data=[64, 0]),\n",
      "   midi.NoteOnEvent(tick=0, channel=4, data=[72, 0]),\n",
      "   midi.ControlChangeEvent(tick=0, channel=4, data=[7, 22]),\n",
      "   midi.ControlChangeEvent(tick=10, channel=4, data=[7, 21]),\n",
      "   midi.ControlChangeEvent(tick=10, channel=4, data=[7, 20]),\n",
      "   midi.ControlChangeEvent(tick=10, channel=4, data=[10, 32]),\n",
      "   midi.NoteOnEvent(tick=0, channel=4, data=[69, 127]),\n",
      "   midi.NoteOnEvent(tick=0, channel=4, data=[64, 127]),\n",
      "   midi.NoteOnEvent(tick=0, channel=4, data=[72, 127]),\n",
      "   midi.NoteOnEvent(tick=0, channel=4, data=[57, 122]),\n",
      "   midi.NoteOnEvent(tick=0, channel=4, data=[55, 125]),\n",
      "   midi.ControlChangeEvent(tick=0, channel=4, data=[7, 19]),\n",
      "   midi.ControlChangeEvent(tick=10, channel=4, data=[7, 18]),\n",
      "   midi.ControlChangeEvent(tick=10, channel=4, data=[7, 17]),\n",
      "   midi.NoteOnEvent(tick=9, channel=4, data=[55, 0]),\n",
      "   midi.NoteOnEvent(tick=0, channel=4, data=[57, 0]),\n",
      "   midi.ControlChangeEvent(tick=1, channel=4, data=[7, 16]),\n",
      "   midi.ControlChangeEvent(tick=10, channel=4, data=[7, 15]),\n",
      "   midi.ControlChangeEvent(tick=10, channel=4, data=[7, 14]),\n",
      "   midi.NoteOnEvent(tick=10, channel=4, data=[69, 0]),\n",
      "   midi.NoteOnEvent(tick=0, channel=4, data=[64, 0]),\n",
      "   midi.NoteOnEvent(tick=0, channel=4, data=[72, 0]),\n",
      "   midi.ControlChangeEvent(tick=0, channel=4, data=[7, 13]),\n",
      "   midi.ControlChangeEvent(tick=10, channel=4, data=[7, 12]),\n",
      "   midi.ControlChangeEvent(tick=10, channel=4, data=[7, 11]),\n",
      "   midi.ControlChangeEvent(tick=10, channel=4, data=[7, 10]),\n",
      "   midi.ControlChangeEvent(tick=10, channel=4, data=[7, 9]),\n",
      "   midi.ControlChangeEvent(tick=10, channel=4, data=[7, 8]),\n",
      "   midi.ControlChangeEvent(tick=10, channel=4, data=[7, 7]),\n",
      "   midi.ControlChangeEvent(tick=10, channel=4, data=[7, 6]),\n",
      "   midi.ControlChangeEvent(tick=10, channel=4, data=[7, 5]),\n",
      "   midi.ControlChangeEvent(tick=10, channel=4, data=[7, 4]),\n",
      "   midi.ControlChangeEvent(tick=10, channel=4, data=[7, 3]),\n",
      "   midi.ControlChangeEvent(tick=10, channel=4, data=[7, 2]),\n",
      "   midi.ControlChangeEvent(tick=10, channel=4, data=[7, 1]),\n",
      "   midi.ControlChangeEvent(tick=10, channel=4, data=[7, 0]),\n",
      "   midi.ControlChangeEvent(tick=50, channel=4, data=[10, 96]),\n",
      "   midi.NoteOnEvent(tick=0, channel=4, data=[55, 127]),\n",
      "   midi.NoteOnEvent(tick=0, channel=4, data=[62, 127]),\n",
      "   midi.NoteOnEvent(tick=0, channel=4, data=[67, 127]),\n",
      "   midi.NoteOnEvent(tick=0, channel=4, data=[71, 127]),\n",
      "   midi.ControlChangeEvent(tick=1, channel=4, data=[7, 104]),\n",
      "   midi.ControlChangeEvent(tick=9, channel=4, data=[7, 103]),\n",
      "   midi.ControlChangeEvent(tick=10, channel=4, data=[7, 102]),\n",
      "   midi.ControlChangeEvent(tick=10, channel=4, data=[7, 101]),\n",
      "   midi.ControlChangeEvent(tick=10, channel=4, data=[7, 100]),\n",
      "   midi.ControlChangeEvent(tick=10, channel=4, data=[7, 99]),\n",
      "   midi.NoteOnEvent(tick=10, channel=4, data=[71, 0]),\n",
      "   midi.NoteOnEvent(tick=0, channel=4, data=[55, 0]),\n",
      "   midi.NoteOnEvent(tick=0, channel=4, data=[62, 0]),\n",
      "   midi.NoteOnEvent(tick=0, channel=4, data=[67, 0]),\n",
      "   midi.ControlChangeEvent(tick=0, channel=4, data=[7, 98]),\n",
      "   midi.ControlChangeEvent(tick=10, channel=4, data=[7, 96]),\n",
      "   midi.ControlChangeEvent(tick=10, channel=4, data=[7, 95]),\n",
      "   midi.ControlChangeEvent(tick=8, channel=4, data=[10, 32]),\n",
      "   midi.NoteOnEvent(tick=2, channel=4, data=[55, 127]),\n",
      "   midi.NoteOnEvent(tick=0, channel=4, data=[62, 127]),\n",
      "   midi.NoteOnEvent(tick=0, channel=4, data=[67, 127]),\n",
      "   midi.NoteOnEvent(tick=0, channel=4, data=[71, 127]),\n",
      "   midi.ControlChangeEvent(tick=1, channel=4, data=[7, 94]),\n",
      "   midi.ControlChangeEvent(tick=9, channel=4, data=[7, 93]),\n",
      "   midi.ControlChangeEvent(tick=10, channel=4, data=[7, 92]),\n",
      "   midi.ControlChangeEvent(tick=10, channel=4, data=[7, 91]),\n",
      "   midi.ControlChangeEvent(tick=10, channel=4, data=[7, 90]),\n",
      "   midi.ControlChangeEvent(tick=10, channel=4, data=[7, 88]),\n",
      "   midi.NoteOnEvent(tick=10, channel=4, data=[71, 0]),\n",
      "   midi.NoteOnEvent(tick=0, channel=4, data=[55, 0]),\n",
      "   midi.NoteOnEvent(tick=0, channel=4, data=[62, 0]),\n",
      "   midi.NoteOnEvent(tick=0, channel=4, data=[67, 0]),\n",
      "   midi.ControlChangeEvent(tick=0, channel=4, data=[7, 87]),\n",
      "   midi.ControlChangeEvent(tick=10, channel=4, data=[7, 86]),\n",
      "   midi.ControlChangeEvent(tick=10, channel=4, data=[7, 85]),\n",
      "   midi.ControlChangeEvent(tick=9, channel=4, data=[10, 96]),\n",
      "   midi.NoteOnEvent(tick=1, channel=4, data=[55, 127]),\n",
      "   midi.NoteOnEvent(tick=0, channel=4, data=[62, 127]),\n",
      "   midi.NoteOnEvent(tick=0, channel=4, data=[67, 127]),\n",
      "   midi.NoteOnEvent(tick=0, channel=4, data=[71, 127]),\n",
      "   midi.ControlChangeEvent(tick=10, channel=4, data=[7, 83]),\n",
      "   midi.ControlChangeEvent(tick=10, channel=4, data=[7, 81]),\n",
      "   midi.ControlChangeEvent(tick=10, channel=4, data=[7, 80]),\n",
      "   midi.ControlChangeEvent(tick=10, channel=4, data=[7, 79]),\n",
      "   midi.ControlChangeEvent(tick=10, channel=4, data=[7, 78]),\n",
      "   midi.NoteOnEvent(tick=10, channel=4, data=[71, 0]),\n",
      "   midi.NoteOnEvent(tick=0, channel=4, data=[55, 0]),\n",
      "   midi.NoteOnEvent(tick=0, channel=4, data=[62, 0]),\n",
      "   midi.NoteOnEvent(tick=0, channel=4, data=[67, 0]),\n",
      "   midi.ControlChangeEvent(tick=0, channel=4, data=[7, 77]),\n",
      "   midi.ControlChangeEvent(tick=10, channel=4, data=[7, 76]),\n",
      "   midi.ControlChangeEvent(tick=10, channel=4, data=[7, 75]),\n",
      "   midi.ControlChangeEvent(tick=9, channel=4, data=[10, 32]),\n",
      "   midi.NoteOnEvent(tick=1, channel=4, data=[55, 127]),\n",
      "   midi.NoteOnEvent(tick=0, channel=4, data=[62, 127]),\n",
      "   midi.NoteOnEvent(tick=0, channel=4, data=[67, 127]),\n",
      "   midi.NoteOnEvent(tick=0, channel=4, data=[71, 127]),\n",
      "   midi.ControlChangeEvent(tick=10, channel=4, data=[7, 72]),\n",
      "   midi.ControlChangeEvent(tick=10, channel=4, data=[7, 71]),\n",
      "   midi.ControlChangeEvent(tick=10, channel=4, data=[7, 70]),\n",
      "   midi.ControlChangeEvent(tick=10, channel=4, data=[7, 69]),\n",
      "   midi.ControlChangeEvent(tick=10, channel=4, data=[7, 68]),\n",
      "   midi.NoteOnEvent(tick=10, channel=4, data=[71, 0]),\n",
      "   midi.NoteOnEvent(tick=0, channel=4, data=[55, 0]),\n",
      "   midi.NoteOnEvent(tick=0, channel=4, data=[62, 0]),\n",
      "   midi.NoteOnEvent(tick=0, channel=4, data=[67, 0]),\n",
      "   midi.ControlChangeEvent(tick=0, channel=4, data=[7, 66]),\n",
      "   midi.ControlChangeEvent(tick=10, channel=4, data=[7, 64]),\n",
      "   midi.ControlChangeEvent(tick=10, channel=4, data=[7, 63]),\n",
      "   midi.ControlChangeEvent(tick=9, channel=4, data=[10, 96]),\n",
      "   midi.NoteOnEvent(tick=1, channel=4, data=[55, 127]),\n",
      "   midi.NoteOnEvent(tick=0, channel=4, data=[62, 127]),\n",
      "   midi.NoteOnEvent(tick=0, channel=4, data=[67, 127]),\n",
      "   midi.NoteOnEvent(tick=0, channel=4, data=[71, 127]),\n",
      "   midi.ControlChangeEvent(tick=10, channel=4, data=[7, 61]),\n",
      "   midi.ControlChangeEvent(tick=10, channel=4, data=[7, 59]),\n",
      "   midi.ControlChangeEvent(tick=10, channel=4, data=[7, 58]),\n",
      "   midi.ControlChangeEvent(tick=10, channel=4, data=[7, 57]),\n",
      "   midi.ControlChangeEvent(tick=10, channel=4, data=[7, 56]),\n",
      "   midi.NoteOnEvent(tick=10, channel=4, data=[71, 0]),\n",
      "   midi.NoteOnEvent(tick=0, channel=4, data=[55, 0]),\n",
      "   midi.NoteOnEvent(tick=0, channel=4, data=[62, 0]),\n",
      "   midi.NoteOnEvent(tick=0, channel=4, data=[67, 0]),\n",
      "   midi.ControlChangeEvent(tick=0, channel=4, data=[7, 54]),\n",
      "   midi.ControlChangeEvent(tick=10, channel=4, data=[7, 53]),\n",
      "   midi.ControlChangeEvent(tick=10, channel=4, data=[7, 52]),\n",
      "   midi.ControlChangeEvent(tick=8, channel=4, data=[10, 32]),\n",
      "   midi.NoteOnEvent(tick=2, channel=4, data=[55, 127]),\n",
      "   midi.NoteOnEvent(tick=0, channel=4, data=[62, 127]),\n",
      "   midi.NoteOnEvent(tick=0, channel=4, data=[67, 127]),\n",
      "   midi.NoteOnEvent(tick=0, channel=4, data=[71, 127]),\n",
      "   midi.ControlChangeEvent(tick=10, channel=4, data=[7, 49]),\n",
      "   midi.ControlChangeEvent(tick=10, channel=4, data=[7, 48]),\n",
      "   midi.ControlChangeEvent(tick=10, channel=4, data=[7, 47]),\n",
      "   midi.ControlChangeEvent(tick=10, channel=4, data=[7, 45]),\n",
      "   midi.ControlChangeEvent(tick=10, channel=4, data=[7, 44]),\n",
      "   midi.NoteOnEvent(tick=10, channel=4, data=[71, 0]),\n",
      "   midi.NoteOnEvent(tick=0, channel=4, data=[55, 0]),\n",
      "   midi.NoteOnEvent(tick=0, channel=4, data=[62, 0]),\n",
      "   midi.NoteOnEvent(tick=0, channel=4, data=[67, 0]),\n",
      "   midi.ControlChangeEvent(tick=0, channel=4, data=[7, 43]),\n",
      "   midi.ControlChangeEvent(tick=10, channel=4, data=[7, 41]),\n",
      "   midi.ControlChangeEvent(tick=10, channel=4, data=[7, 40]),\n",
      "   midi.ControlChangeEvent(tick=9, channel=4, data=[10, 96]),\n",
      "   midi.NoteOnEvent(tick=1, channel=4, data=[55, 127]),\n",
      "   midi.NoteOnEvent(tick=0, channel=4, data=[62, 127]),\n",
      "   midi.NoteOnEvent(tick=0, channel=4, data=[67, 127]),\n",
      "   midi.NoteOnEvent(tick=0, channel=4, data=[71, 127]),\n",
      "   midi.ControlChangeEvent(tick=10, channel=4, data=[7, 38]),\n",
      "   midi.ControlChangeEvent(tick=10, channel=4, data=[7, 36]),\n",
      "   midi.ControlChangeEvent(tick=10, channel=4, data=[7, 35]),\n",
      "   midi.ControlChangeEvent(tick=10, channel=4, data=[7, 34]),\n",
      "   midi.ControlChangeEvent(tick=10, channel=4, data=[7, 32]),\n",
      "   midi.NoteOnEvent(tick=10, channel=4, data=[71, 0]),\n",
      "   midi.NoteOnEvent(tick=0, channel=4, data=[55, 0]),\n",
      "   midi.NoteOnEvent(tick=0, channel=4, data=[62, 0]),\n",
      "   midi.NoteOnEvent(tick=0, channel=4, data=[67, 0]),\n",
      "   midi.ControlChangeEvent(tick=0, channel=4, data=[7, 31]),\n",
      "   midi.ControlChangeEvent(tick=10, channel=4, data=[7, 30]),\n",
      "   midi.ControlChangeEvent(tick=10, channel=4, data=[7, 29]),\n",
      "   midi.ControlChangeEvent(tick=10, channel=4, data=[10, 32]),\n",
      "   midi.NoteOnEvent(tick=0, channel=4, data=[55, 127]),\n",
      "   midi.NoteOnEvent(tick=0, channel=4, data=[62, 127]),\n",
      "   midi.NoteOnEvent(tick=0, channel=4, data=[67, 127]),\n",
      "   midi.NoteOnEvent(tick=0, channel=4, data=[71, 127]),\n",
      "   midi.ControlChangeEvent(tick=10, channel=4, data=[7, 27]),\n",
      "   midi.ControlChangeEvent(tick=20, channel=4, data=[7, 26]),\n",
      "   midi.ControlChangeEvent(tick=10, channel=4, data=[7, 25]),\n",
      "   midi.ControlChangeEvent(tick=10, channel=4, data=[7, 24]),\n",
      "   midi.NoteOnEvent(tick=10, channel=4, data=[71, 0]),\n",
      "   midi.NoteOnEvent(tick=0, channel=4, data=[55, 0]),\n",
      "   midi.NoteOnEvent(tick=0, channel=4, data=[62, 0]),\n",
      "   midi.NoteOnEvent(tick=0, channel=4, data=[67, 0]),\n",
      "   midi.ControlChangeEvent(tick=0, channel=4, data=[7, 23]),\n",
      "   midi.ControlChangeEvent(tick=10, channel=4, data=[7, 22]),\n",
      "   midi.ControlChangeEvent(tick=10, channel=4, data=[7, 21]),\n",
      "   midi.ControlChangeEvent(tick=10, channel=4, data=[10, 96]),\n",
      "   midi.NoteOnEvent(tick=0, channel=4, data=[55, 127]),\n",
      "   midi.NoteOnEvent(tick=0, channel=4, data=[62, 127]),\n",
      "   midi.NoteOnEvent(tick=0, channel=4, data=[67, 127]),\n",
      "   midi.NoteOnEvent(tick=0, channel=4, data=[71, 127]),\n",
      "   midi.ControlChangeEvent(tick=0, channel=4, data=[7, 20]),\n",
      "   midi.ControlChangeEvent(tick=10, channel=4, data=[7, 19]),\n",
      "   midi.ControlChangeEvent(tick=10, channel=4, data=[7, 18]),\n",
      "   midi.ControlChangeEvent(tick=10, channel=4, data=[7, 17]),\n",
      "   midi.ControlChangeEvent(tick=10, channel=4, data=[7, 16]),\n",
      "   midi.ControlChangeEvent(tick=10, channel=4, data=[7, 15]),\n",
      "   midi.NoteOnEvent(tick=10, channel=4, data=[71, 0]),\n",
      "   midi.NoteOnEvent(tick=0, channel=4, data=[55, 0]),\n",
      "   midi.NoteOnEvent(tick=0, channel=4, data=[62, 0]),\n",
      "   midi.NoteOnEvent(tick=0, channel=4, data=[67, 0]),\n",
      "   midi.ControlChangeEvent(tick=0, channel=4, data=[7, 14]),\n",
      "   midi.ControlChangeEvent(tick=10, channel=4, data=[7, 13]),\n",
      "   midi.ControlChangeEvent(tick=10, channel=4, data=[7, 12]),\n",
      "   midi.ControlChangeEvent(tick=10, channel=4, data=[7, 11]),\n",
      "   midi.ControlChangeEvent(tick=10, channel=4, data=[7, 10]),\n",
      "   midi.ControlChangeEvent(tick=10, channel=4, data=[7, 9]),\n",
      "   midi.ControlChangeEvent(tick=10, channel=4, data=[7, 8]),\n",
      "   midi.ControlChangeEvent(tick=10, channel=4, data=[7, 7]),\n",
      "   midi.ControlChangeEvent(tick=10, channel=4, data=[7, 6]),\n",
      "   midi.ControlChangeEvent(tick=10, channel=4, data=[7, 5]),\n",
      "   midi.ControlChangeEvent(tick=10, channel=4, data=[7, 4]),\n",
      "   midi.ControlChangeEvent(tick=10, channel=4, data=[7, 3]),\n",
      "   midi.ControlChangeEvent(tick=10, channel=4, data=[7, 2]),\n",
      "   midi.ControlChangeEvent(tick=10, channel=4, data=[7, 1]),\n",
      "   midi.ControlChangeEvent(tick=10, channel=4, data=[7, 0]),\n",
      "   midi.ControlChangeEvent(tick=38, channel=4, data=[10, 32]),\n",
      "   midi.NoteOnEvent(tick=2, channel=4, data=[64, 122]),\n",
      "   midi.NoteOnEvent(tick=0, channel=4, data=[69, 127]),\n",
      "   midi.NoteOnEvent(tick=0, channel=4, data=[72, 127]),\n",
      "   midi.NoteOnEvent(tick=0, channel=4, data=[57, 116]),\n",
      "   midi.ControlChangeEvent(tick=0, channel=4, data=[7, 106]),\n",
      "   midi.ControlChangeEvent(tick=10, channel=4, data=[7, 105]),\n",
      "   midi.ControlChangeEvent(tick=10, channel=4, data=[7, 104]),\n",
      "   midi.ControlChangeEvent(tick=10, channel=4, data=[7, 103]),\n",
      "   midi.ControlChangeEvent(tick=10, channel=4, data=[7, 102]),\n",
      "   midi.ControlChangeEvent(tick=10, channel=4, data=[7, 101]),\n",
      "   midi.NoteOnEvent(tick=10, channel=4, data=[57, 0]),\n",
      "   midi.NoteOnEvent(tick=0, channel=4, data=[64, 0]),\n",
      "   midi.NoteOnEvent(tick=0, channel=4, data=[69, 0]),\n",
      "   midi.NoteOnEvent(tick=0, channel=4, data=[72, 0]),\n",
      "   midi.ControlChangeEvent(tick=0, channel=4, data=[7, 100]),\n",
      "   midi.ControlChangeEvent(tick=10, channel=4, data=[7, 98]),\n",
      "   midi.ControlChangeEvent(tick=10, channel=4, data=[7, 97]),\n",
      "   midi.ControlChangeEvent(tick=8, channel=4, data=[10, 96]),\n",
      "   midi.NoteOnEvent(tick=2, channel=4, data=[64, 122]),\n",
      "   midi.NoteOnEvent(tick=0, channel=4, data=[69, 127]),\n",
      "   midi.NoteOnEvent(tick=0, channel=4, data=[72, 127]),\n",
      "   midi.NoteOnEvent(tick=0, channel=4, data=[57, 116]),\n",
      "   midi.ControlChangeEvent(tick=0, channel=4, data=[7, 96]),\n",
      "   midi.ControlChangeEvent(tick=10, channel=4, data=[7, 95]),\n",
      "   midi.ControlChangeEvent(tick=10, channel=4, data=[7, 94]),\n",
      "   midi.ControlChangeEvent(tick=10, channel=4, data=[7, 93]),\n",
      "   midi.ControlChangeEvent(tick=10, channel=4, data=[7, 92]),\n",
      "   midi.ControlChangeEvent(tick=10, channel=4, data=[7, 90]),\n",
      "   midi.NoteOnEvent(tick=10, channel=4, data=[57, 0]),\n",
      "   midi.NoteOnEvent(tick=0, channel=4, data=[64, 0]),\n",
      "   midi.NoteOnEvent(tick=0, channel=4, data=[69, 0]),\n",
      "   midi.NoteOnEvent(tick=0, channel=4, data=[72, 0]),\n",
      "   midi.ControlChangeEvent(tick=0, channel=4, data=[7, 89]),\n",
      "   midi.ControlChangeEvent(tick=10, channel=4, data=[7, 88]),\n",
      "   midi.ControlChangeEvent(tick=10, channel=4, data=[7, 87]),\n",
      "   midi.ControlChangeEvent(tick=8, channel=4, data=[10, 32]),\n",
      "   midi.NoteOnEvent(tick=2, channel=4, data=[64, 122]),\n",
      "   midi.NoteOnEvent(tick=0, channel=4, data=[69, 127]),\n",
      "   midi.NoteOnEvent(tick=0, channel=4, data=[72, 127]),\n",
      "   midi.NoteOnEvent(tick=0, channel=4, data=[57, 116]),\n",
      "   midi.ControlChangeEvent(tick=0, channel=4, data=[7, 86]),\n",
      "   midi.ControlChangeEvent(tick=10, channel=4, data=[7, 85]),\n",
      "   midi.ControlChangeEvent(tick=10, channel=4, data=[7, 84]),\n",
      "   midi.ControlChangeEvent(tick=10, channel=4, data=[7, 82]),\n",
      "   midi.ControlChangeEvent(tick=10, channel=4, data=[7, 81]),\n",
      "   midi.ControlChangeEvent(tick=10, channel=4, data=[7, 80]),\n",
      "   midi.NoteOnEvent(tick=10, channel=4, data=[57, 0]),\n",
      "   midi.NoteOnEvent(tick=0, channel=4, data=[64, 0]),\n",
      "   midi.NoteOnEvent(tick=0, channel=4, data=[69, 0]),\n",
      "   midi.NoteOnEvent(tick=0, channel=4, data=[72, 0]),\n",
      "   midi.ControlChangeEvent(tick=0, channel=4, data=[7, 79]),\n",
      "   midi.ControlChangeEvent(tick=10, channel=4, data=[7, 78]),\n",
      "   midi.ControlChangeEvent(tick=10, channel=4, data=[7, 77]),\n",
      "   midi.ControlChangeEvent(tick=10, channel=4, data=[10, 96]),\n",
      "   midi.NoteOnEvent(tick=0, channel=4, data=[64, 122]),\n",
      "   midi.NoteOnEvent(tick=0, channel=4, data=[69, 127]),\n",
      "   midi.NoteOnEvent(tick=0, channel=4, data=[72, 127]),\n",
      "   midi.NoteOnEvent(tick=0, channel=4, data=[57, 116]),\n",
      "   midi.ControlChangeEvent(tick=0, channel=4, data=[7, 75]),\n",
      "   midi.ControlChangeEvent(tick=10, channel=4, data=[7, 72]),\n",
      "   midi.ControlChangeEvent(tick=10, channel=4, data=[7, 71]),\n",
      "   midi.ControlChangeEvent(tick=10, channel=4, data=[7, 70]),\n",
      "   midi.ControlChangeEvent(tick=10, channel=4, data=[7, 68]),\n",
      "   midi.ControlChangeEvent(tick=10, channel=4, data=[7, 67]),\n",
      "   midi.NoteOnEvent(tick=10, channel=4, data=[57, 0]),\n",
      "   midi.NoteOnEvent(tick=0, channel=4, data=[64, 0]),\n",
      "   midi.NoteOnEvent(tick=0, channel=4, data=[69, 0]),\n",
      "   midi.NoteOnEvent(tick=0, channel=4, data=[72, 0]),\n",
      "   midi.ControlChangeEvent(tick=0, channel=4, data=[7, 66]),\n",
      "   midi.ControlChangeEvent(tick=10, channel=4, data=[7, 64]),\n",
      "   midi.ControlChangeEvent(tick=10, channel=4, data=[7, 63]),\n",
      "   midi.ControlChangeEvent(tick=8, channel=4, data=[10, 32]),\n",
      "   midi.NoteOnEvent(tick=2, channel=4, data=[64, 122]),\n",
      "   midi.NoteOnEvent(tick=0, channel=4, data=[69, 127]),\n",
      "   midi.NoteOnEvent(tick=0, channel=4, data=[72, 127]),\n",
      "   midi.NoteOnEvent(tick=0, channel=4, data=[57, 116]),\n",
      "   midi.ControlChangeEvent(tick=0, channel=4, data=[7, 62]),\n",
      "   midi.ControlChangeEvent(tick=10, channel=4, data=[7, 61]),\n",
      "   midi.ControlChangeEvent(tick=10, channel=4, data=[7, 59]),\n",
      "   midi.ControlChangeEvent(tick=10, channel=4, data=[7, 58]),\n",
      "   midi.ControlChangeEvent(tick=10, channel=4, data=[7, 57]),\n",
      "   midi.ControlChangeEvent(tick=10, channel=4, data=[7, 56]),\n",
      "   midi.NoteOnEvent(tick=10, channel=4, data=[57, 0]),\n",
      "   midi.NoteOnEvent(tick=0, channel=4, data=[64, 0]),\n",
      "   midi.NoteOnEvent(tick=0, channel=4, data=[69, 0]),\n",
      "   midi.NoteOnEvent(tick=0, channel=4, data=[72, 0]),\n",
      "   midi.ControlChangeEvent(tick=0, channel=4, data=[7, 54]),\n",
      "   midi.ControlChangeEvent(tick=10, channel=4, data=[7, 53]),\n",
      "   midi.ControlChangeEvent(tick=10, channel=4, data=[7, 52]),\n",
      "   midi.ControlChangeEvent(tick=8, channel=4, data=[10, 96]),\n",
      "   midi.NoteOnEvent(tick=2, channel=4, data=[64, 122]),\n",
      "   midi.NoteOnEvent(tick=0, channel=4, data=[69, 127]),\n",
      "   midi.NoteOnEvent(tick=0, channel=4, data=[72, 127]),\n",
      "   midi.NoteOnEvent(tick=0, channel=4, data=[57, 116]),\n",
      "   midi.ControlChangeEvent(tick=0, channel=4, data=[7, 50]),\n",
      "   midi.ControlChangeEvent(tick=10, channel=4, data=[7, 49]),\n",
      "   midi.ControlChangeEvent(tick=10, channel=4, data=[7, 48]),\n",
      "   midi.ControlChangeEvent(tick=10, channel=4, data=[7, 47]),\n",
      "   midi.ControlChangeEvent(tick=10, channel=4, data=[7, 45]),\n",
      "   midi.ControlChangeEvent(tick=10, channel=4, data=[7, 44]),\n",
      "   midi.NoteOnEvent(tick=10, channel=4, data=[57, 0]),\n",
      "   midi.NoteOnEvent(tick=0, channel=4, data=[64, 0]),\n",
      "   midi.NoteOnEvent(tick=0, channel=4, data=[69, 0]),\n",
      "   midi.NoteOnEvent(tick=0, channel=4, data=[72, 0]),\n",
      "   midi.ControlChangeEvent(tick=0, channel=4, data=[7, 43]),\n",
      "   midi.ControlChangeEvent(tick=10, channel=4, data=[7, 41]),\n",
      "   midi.ControlChangeEvent(tick=10, channel=4, data=[7, 40]),\n",
      "   midi.ControlChangeEvent(tick=9, channel=4, data=[10, 32]),\n",
      "   midi.NoteOnEvent(tick=1, channel=4, data=[64, 122]),\n",
      "   midi.NoteOnEvent(tick=0, channel=4, data=[69, 127]),\n",
      "   midi.NoteOnEvent(tick=0, channel=4, data=[72, 127]),\n",
      "   midi.NoteOnEvent(tick=0, channel=4, data=[57, 116]),\n",
      "   midi.ControlChangeEvent(tick=1, channel=4, data=[7, 39]),\n",
      "   midi.ControlChangeEvent(tick=9, channel=4, data=[7, 38]),\n",
      "   midi.ControlChangeEvent(tick=10, channel=4, data=[7, 36]),\n",
      "   midi.ControlChangeEvent(tick=10, channel=4, data=[7, 35]),\n",
      "   midi.ControlChangeEvent(tick=10, channel=4, data=[7, 34]),\n",
      "   midi.ControlChangeEvent(tick=10, channel=4, data=[7, 32]),\n",
      "   midi.NoteOnEvent(tick=10, channel=4, data=[57, 0]),\n",
      "   midi.NoteOnEvent(tick=0, channel=4, data=[64, 0]),\n",
      "   midi.NoteOnEvent(tick=0, channel=4, data=[69, 0]),\n",
      "   midi.NoteOnEvent(tick=0, channel=4, data=[72, 0]),\n",
      "   midi.ControlChangeEvent(tick=0, channel=4, data=[7, 31]),\n",
      "   midi.ControlChangeEvent(tick=10, channel=4, data=[7, 30]),\n",
      "   midi.NoteOnEvent(tick=20, channel=4, data=[64, 122]),\n",
      "   midi.NoteOnEvent(tick=0, channel=4, data=[69, 127]),\n",
      "   midi.NoteOnEvent(tick=0, channel=4, data=[72, 127]),\n",
      "   midi.NoteOnEvent(tick=0, channel=4, data=[57, 116]),\n",
      "   midi.ControlChangeEvent(tick=10, channel=4, data=[7, 28]),\n",
      "   midi.ControlChangeEvent(tick=10, channel=4, data=[7, 27]),\n",
      "   midi.ControlChangeEvent(tick=10, channel=4, data=[7, 26]),\n",
      "   midi.ControlChangeEvent(tick=10, channel=4, data=[7, 25]),\n",
      "   midi.ControlChangeEvent(tick=10, channel=4, data=[7, 24]),\n",
      "   midi.NoteOnEvent(tick=10, channel=4, data=[57, 0]),\n",
      "   midi.NoteOnEvent(tick=0, channel=4, data=[64, 0]),\n",
      "   midi.NoteOnEvent(tick=0, channel=4, data=[69, 0]),\n",
      "   midi.NoteOnEvent(tick=0, channel=4, data=[72, 0]),\n",
      "   midi.ControlChangeEvent(tick=0, channel=4, data=[7, 23]),\n",
      "   midi.ControlChangeEvent(tick=10, channel=4, data=[7, 22]),\n",
      "   midi.ControlChangeEvent(tick=10, channel=4, data=[7, 21]),\n",
      "   midi.NoteOnEvent(tick=10, channel=4, data=[64, 122]),\n",
      "   midi.NoteOnEvent(tick=0, channel=4, data=[69, 127]),\n",
      "   midi.NoteOnEvent(tick=0, channel=4, data=[72, 127]),\n",
      "   midi.NoteOnEvent(tick=0, channel=4, data=[57, 116]),\n",
      "   midi.ControlChangeEvent(tick=10, channel=4, data=[7, 19]),\n",
      "   midi.ControlChangeEvent(tick=10, channel=4, data=[7, 18]),\n",
      "   midi.ControlChangeEvent(tick=10, channel=4, data=[7, 17]),\n",
      "   midi.ControlChangeEvent(tick=10, channel=4, data=[7, 16]),\n",
      "   midi.ControlChangeEvent(tick=10, channel=4, data=[7, 15]),\n",
      "   midi.NoteOnEvent(tick=10, channel=4, data=[57, 0]),\n",
      "   midi.NoteOnEvent(tick=0, channel=4, data=[64, 0]),\n",
      "   midi.NoteOnEvent(tick=0, channel=4, data=[69, 0]),\n",
      "   midi.NoteOnEvent(tick=0, channel=4, data=[72, 0]),\n",
      "   midi.ControlChangeEvent(tick=0, channel=4, data=[7, 14]),\n",
      "   midi.ControlChangeEvent(tick=10, channel=4, data=[7, 13]),\n",
      "   midi.ControlChangeEvent(tick=10, channel=4, data=[7, 12]),\n",
      "   midi.ControlChangeEvent(tick=10, channel=4, data=[7, 11]),\n",
      "   midi.ControlChangeEvent(tick=10, channel=4, data=[7, 10]),\n",
      "   midi.ControlChangeEvent(tick=10, channel=4, data=[7, 9]),\n",
      "   midi.ControlChangeEvent(tick=10, channel=4, data=[7, 8]),\n",
      "   midi.ControlChangeEvent(tick=10, channel=4, data=[7, 7]),\n",
      "   midi.ControlChangeEvent(tick=10, channel=4, data=[7, 6]),\n",
      "   midi.ControlChangeEvent(tick=10, channel=4, data=[7, 5]),\n",
      "   midi.ControlChangeEvent(tick=10, channel=4, data=[7, 4]),\n",
      "   midi.ControlChangeEvent(tick=10, channel=4, data=[7, 3]),\n",
      "   midi.ControlChangeEvent(tick=10, channel=4, data=[7, 2]),\n",
      "   midi.ControlChangeEvent(tick=10, channel=4, data=[7, 1]),\n",
      "   midi.ControlChangeEvent(tick=10, channel=4, data=[7, 0]),\n",
      "   midi.ControlChangeEvent(tick=38, channel=4, data=[10, 96]),\n",
      "   midi.NoteOnEvent(tick=2, channel=4, data=[67, 127]),\n",
      "   midi.NoteOnEvent(tick=0, channel=4, data=[55, 125]),\n",
      "   midi.NoteOnEvent(tick=0, channel=4, data=[71, 127]),\n",
      "   midi.NoteOnEvent(tick=0, channel=4, data=[64, 122]),\n",
      "   midi.NoteOnEvent(tick=0, channel=4, data=[62, 116]),\n",
      "   midi.ControlChangeEvent(tick=0, channel=4, data=[7, 104]),\n",
      "   midi.ControlChangeEvent(tick=10, channel=4, data=[7, 103]),\n",
      "   midi.ControlChangeEvent(tick=10, channel=4, data=[7, 102]),\n",
      "   midi.ControlChangeEvent(tick=10, channel=4, data=[7, 101]),\n",
      "   midi.ControlChangeEvent(tick=10, channel=4, data=[7, 100]),\n",
      "   midi.ControlChangeEvent(tick=10, channel=4, data=[7, 99]),\n",
      "   midi.NoteOnEvent(tick=10, channel=4, data=[62, 0]),\n",
      "   midi.NoteOnEvent(tick=0, channel=4, data=[71, 0]),\n",
      "   midi.NoteOnEvent(tick=0, channel=4, data=[67, 0]),\n",
      "   midi.NoteOnEvent(tick=0, channel=4, data=[55, 0]),\n",
      "   midi.NoteOnEvent(tick=0, channel=4, data=[64, 0]),\n",
      "   midi.ControlChangeEvent(tick=0, channel=4, data=[7, 98]),\n",
      "   midi.ControlChangeEvent(tick=10, channel=4, data=[7, 97]),\n",
      "   midi.ControlChangeEvent(tick=10, channel=4, data=[7, 95]),\n",
      "   midi.ControlChangeEvent(tick=9, channel=4, data=[10, 32]),\n",
      "   midi.NoteOnEvent(tick=1, channel=4, data=[67, 127]),\n",
      "   midi.NoteOnEvent(tick=0, channel=4, data=[55, 125]),\n",
      "   midi.NoteOnEvent(tick=0, channel=4, data=[71, 127]),\n",
      "   midi.NoteOnEvent(tick=0, channel=4, data=[64, 122]),\n",
      "   midi.NoteOnEvent(tick=0, channel=4, data=[62, 116]),\n",
      "   midi.ControlChangeEvent(tick=0, channel=4, data=[7, 94]),\n",
      "   midi.ControlChangeEvent(tick=10, channel=4, data=[7, 93]),\n",
      "   midi.ControlChangeEvent(tick=10, channel=4, data=[7, 92]),\n",
      "   midi.ControlChangeEvent(tick=10, channel=4, data=[7, 91]),\n",
      "   midi.ControlChangeEvent(tick=10, channel=4, data=[7, 90]),\n",
      "   midi.ControlChangeEvent(tick=10, channel=4, data=[7, 89]),\n",
      "   midi.NoteOnEvent(tick=10, channel=4, data=[62, 0]),\n",
      "   midi.NoteOnEvent(tick=0, channel=4, data=[71, 0]),\n",
      "   midi.NoteOnEvent(tick=0, channel=4, data=[67, 0]),\n",
      "   midi.NoteOnEvent(tick=0, channel=4, data=[55, 0]),\n",
      "   midi.NoteOnEvent(tick=0, channel=4, data=[64, 0]),\n",
      "   midi.ControlChangeEvent(tick=0, channel=4, data=[7, 88]),\n",
      "   midi.ControlChangeEvent(tick=10, channel=4, data=[7, 87]),\n",
      "   midi.ControlChangeEvent(tick=10, channel=4, data=[7, 85]),\n",
      "   midi.ControlChangeEvent(tick=9, channel=4, data=[10, 96]),\n",
      "   midi.NoteOnEvent(tick=1, channel=4, data=[67, 127]),\n",
      "   midi.NoteOnEvent(tick=0, channel=4, data=[55, 125]),\n",
      "   midi.NoteOnEvent(tick=0, channel=4, data=[71, 127]),\n",
      "   midi.NoteOnEvent(tick=0, channel=4, data=[64, 122]),\n",
      "   midi.NoteOnEvent(tick=0, channel=4, data=[62, 116]),\n",
      "   midi.ControlChangeEvent(tick=0, channel=4, data=[7, 84]),\n",
      "   midi.ControlChangeEvent(tick=10, channel=4, data=[7, 83]),\n",
      "   midi.ControlChangeEvent(tick=10, channel=4, data=[7, 82]),\n",
      "   midi.ControlChangeEvent(tick=10, channel=4, data=[7, 81]),\n",
      "   midi.ControlChangeEvent(tick=10, channel=4, data=[7, 80]),\n",
      "   midi.ControlChangeEvent(tick=10, channel=4, data=[7, 79]),\n",
      "   midi.NoteOnEvent(tick=10, channel=4, data=[62, 0]),\n",
      "   midi.NoteOnEvent(tick=0, channel=4, data=[71, 0]),\n",
      "   midi.NoteOnEvent(tick=0, channel=4, data=[67, 0]),\n",
      "   midi.NoteOnEvent(tick=0, channel=4, data=[55, 0]),\n",
      "   midi.NoteOnEvent(tick=0, channel=4, data=[64, 0]),\n",
      "   midi.ControlChangeEvent(tick=0, channel=4, data=[7, 78]),\n",
      "   midi.ControlChangeEvent(tick=10, channel=4, data=[7, 77]),\n",
      "   midi.ControlChangeEvent(tick=10, channel=4, data=[7, 75]),\n",
      "   midi.ControlChangeEvent(tick=8, channel=4, data=[10, 32]),\n",
      "   midi.NoteOnEvent(tick=2, channel=4, data=[67, 127]),\n",
      "   midi.NoteOnEvent(tick=0, channel=4, data=[55, 125]),\n",
      "   midi.NoteOnEvent(tick=0, channel=4, data=[71, 127]),\n",
      "   midi.NoteOnEvent(tick=0, channel=4, data=[64, 122]),\n",
      "   midi.NoteOnEvent(tick=0, channel=4, data=[62, 116]),\n",
      "   midi.ControlChangeEvent(tick=0, channel=4, data=[7, 74]),\n",
      "   midi.ControlChangeEvent(tick=10, channel=4, data=[7, 73]),\n",
      "   midi.ControlChangeEvent(tick=10, channel=4, data=[7, 72]),\n",
      "   midi.ControlChangeEvent(tick=10, channel=4, data=[7, 71]),\n",
      "   midi.ControlChangeEvent(tick=10, channel=4, data=[7, 70]),\n",
      "   midi.ControlChangeEvent(tick=10, channel=4, data=[7, 69]),\n",
      "   midi.NoteOnEvent(tick=10, channel=4, data=[62, 0]),\n",
      "   midi.NoteOnEvent(tick=0, channel=4, data=[71, 0]),\n",
      "   midi.NoteOnEvent(tick=0, channel=4, data=[67, 0]),\n",
      "   midi.NoteOnEvent(tick=0, channel=4, data=[55, 0]),\n",
      "   midi.NoteOnEvent(tick=0, channel=4, data=[64, 0]),\n",
      "   midi.ControlChangeEvent(tick=0, channel=4, data=[7, 68]),\n",
      "   midi.ControlChangeEvent(tick=10, channel=4, data=[7, 66]),\n",
      "   midi.ControlChangeEvent(tick=10, channel=4, data=[7, 64]),\n",
      "   midi.ControlChangeEvent(tick=8, channel=4, data=[10, 96]),\n",
      "   midi.NoteOnEvent(tick=2, channel=4, data=[67, 127]),\n",
      "   midi.NoteOnEvent(tick=0, channel=4, data=[55, 125]),\n",
      "   midi.NoteOnEvent(tick=0, channel=4, data=[71, 127]),\n",
      "   midi.NoteOnEvent(tick=0, channel=4, data=[64, 122]),\n",
      "   midi.NoteOnEvent(tick=0, channel=4, data=[62, 116]),\n",
      "   midi.ControlChangeEvent(tick=0, channel=4, data=[7, 63]),\n",
      "   midi.ControlChangeEvent(tick=10, channel=4, data=[7, 61]),\n",
      "   midi.ControlChangeEvent(tick=10, channel=4, data=[7, 60]),\n",
      "   midi.ControlChangeEvent(tick=10, channel=4, data=[7, 59]),\n",
      "   midi.ControlChangeEvent(tick=10, channel=4, data=[7, 57]),\n",
      "   midi.ControlChangeEvent(tick=10, channel=4, data=[7, 56]),\n",
      "   midi.NoteOnEvent(tick=10, channel=4, data=[62, 0]),\n",
      "   midi.NoteOnEvent(tick=0, channel=4, data=[71, 0]),\n",
      "   midi.NoteOnEvent(tick=0, channel=4, data=[67, 0]),\n",
      "   midi.NoteOnEvent(tick=0, channel=4, data=[55, 0]),\n",
      "   midi.NoteOnEvent(tick=0, channel=4, data=[64, 0]),\n",
      "   midi.ControlChangeEvent(tick=0, channel=4, data=[7, 55]),\n",
      "   midi.ControlChangeEvent(tick=10, channel=4, data=[7, 54]),\n",
      "   midi.ControlChangeEvent(tick=10, channel=4, data=[7, 52]),\n",
      "   midi.ControlChangeEvent(tick=8, channel=4, data=[10, 32]),\n",
      "   midi.NoteOnEvent(tick=2, channel=4, data=[67, 127]),\n",
      "   midi.NoteOnEvent(tick=0, channel=4, data=[55, 125]),\n",
      "   midi.NoteOnEvent(tick=0, channel=4, data=[71, 127]),\n",
      "   midi.NoteOnEvent(tick=0, channel=4, data=[64, 122]),\n",
      "   midi.NoteOnEvent(tick=0, channel=4, data=[62, 116]),\n",
      "   midi.ControlChangeEvent(tick=0, channel=4, data=[7, 51]),\n",
      "   midi.ControlChangeEvent(tick=10, channel=4, data=[7, 50]),\n",
      "   midi.ControlChangeEvent(tick=10, channel=4, data=[7, 48]),\n",
      "   midi.ControlChangeEvent(tick=10, channel=4, data=[7, 47]),\n",
      "   midi.ControlChangeEvent(tick=10, channel=4, data=[7, 46]),\n",
      "   midi.ControlChangeEvent(tick=10, channel=4, data=[7, 44]),\n",
      "   midi.NoteOnEvent(tick=10, channel=4, data=[62, 0]),\n",
      "   midi.NoteOnEvent(tick=0, channel=4, data=[71, 0]),\n",
      "   midi.NoteOnEvent(tick=0, channel=4, data=[67, 0]),\n",
      "   midi.NoteOnEvent(tick=0, channel=4, data=[55, 0]),\n",
      "   midi.NoteOnEvent(tick=0, channel=4, data=[64, 0]),\n",
      "   midi.ControlChangeEvent(tick=0, channel=4, data=[7, 43]),\n",
      "   midi.ControlChangeEvent(tick=10, channel=4, data=[7, 42]),\n",
      "   midi.ControlChangeEvent(tick=10, channel=4, data=[7, 41]),\n",
      "   midi.ControlChangeEvent(tick=10, channel=4, data=[10, 96]),\n",
      "   midi.NoteOnEvent(tick=0, channel=4, data=[67, 127]),\n",
      "   midi.NoteOnEvent(tick=0, channel=4, data=[55, 125]),\n",
      "   midi.NoteOnEvent(tick=0, channel=4, data=[71, 127]),\n",
      "   midi.NoteOnEvent(tick=0, channel=4, data=[64, 122]),\n",
      "   midi.NoteOnEvent(tick=0, channel=4, data=[62, 116]),\n",
      "   midi.ControlChangeEvent(tick=1, channel=4, data=[7, 39]),\n",
      "   midi.ControlChangeEvent(tick=9, channel=4, data=[7, 38]),\n",
      "   midi.ControlChangeEvent(tick=10, channel=4, data=[7, 37]),\n",
      "   midi.ControlChangeEvent(tick=10, channel=4, data=[7, 35]),\n",
      "   midi.ControlChangeEvent(tick=10, channel=4, data=[7, 34]),\n",
      "   midi.ControlChangeEvent(tick=10, channel=4, data=[7, 33]),\n",
      "   midi.NoteOnEvent(tick=10, channel=4, data=[62, 0]),\n",
      "   midi.NoteOnEvent(tick=0, channel=4, data=[71, 0]),\n",
      "   midi.NoteOnEvent(tick=0, channel=4, data=[67, 0]),\n",
      "   midi.NoteOnEvent(tick=0, channel=4, data=[55, 0]),\n",
      "   midi.NoteOnEvent(tick=0, channel=4, data=[64, 0]),\n",
      "   midi.ControlChangeEvent(tick=0, channel=4, data=[7, 32]),\n",
      "   midi.ControlChangeEvent(tick=10, channel=4, data=[7, 31]),\n",
      "   midi.ControlChangeEvent(tick=10, channel=4, data=[7, 30]),\n",
      "   midi.ControlChangeEvent(tick=10, channel=4, data=[10, 96]),\n",
      "   midi.NoteOnEvent(tick=0, channel=4, data=[67, 127]),\n",
      "   midi.NoteOnEvent(tick=0, channel=4, data=[55, 125]),\n",
      "   midi.NoteOnEvent(tick=0, channel=4, data=[71, 127]),\n",
      "   midi.NoteOnEvent(tick=0, channel=4, data=[64, 122]),\n",
      "   midi.NoteOnEvent(tick=0, channel=4, data=[62, 116]),\n",
      "   midi.ControlChangeEvent(tick=1, channel=4, data=[7, 29]),\n",
      "   midi.ControlChangeEvent(tick=9, channel=4, data=[7, 28]),\n",
      "   midi.ControlChangeEvent(tick=10, channel=4, data=[7, 27]),\n",
      "   midi.ControlChangeEvent(tick=10, channel=4, data=[7, 26]),\n",
      "   midi.ControlChangeEvent(tick=10, channel=4, data=[7, 25]),\n",
      "   midi.ControlChangeEvent(tick=10, channel=4, data=[7, 24]),\n",
      "   midi.NoteOnEvent(tick=10, channel=4, data=[62, 0]),\n",
      "   midi.NoteOnEvent(tick=0, channel=4, data=[71, 0]),\n",
      "   midi.NoteOnEvent(tick=0, channel=4, data=[67, 0]),\n",
      "   midi.NoteOnEvent(tick=0, channel=4, data=[55, 0]),\n",
      "   midi.NoteOnEvent(tick=0, channel=4, data=[64, 0]),\n",
      "   midi.ControlChangeEvent(tick=0, channel=4, data=[7, 23]),\n",
      "   midi.ControlChangeEvent(tick=10, channel=4, data=[7, 21]),\n",
      "   midi.ControlChangeEvent(tick=10, channel=4, data=[7, 20]),\n",
      "   midi.ControlChangeEvent(tick=10, channel=4, data=[10, 96]),\n",
      "   midi.NoteOnEvent(tick=0, channel=4, data=[67, 127]),\n",
      "   midi.NoteOnEvent(tick=0, channel=4, data=[55, 125]),\n",
      "   midi.NoteOnEvent(tick=0, channel=4, data=[71, 127]),\n",
      "   midi.NoteOnEvent(tick=0, channel=4, data=[64, 122]),\n",
      "   midi.NoteOnEvent(tick=0, channel=4, data=[62, 116]),\n",
      "   midi.ControlChangeEvent(tick=1, channel=4, data=[7, 19]),\n",
      "   midi.ControlChangeEvent(tick=9, channel=4, data=[7, 18]),\n",
      "   midi.ControlChangeEvent(tick=10, channel=4, data=[7, 17]),\n",
      "   midi.ControlChangeEvent(tick=10, channel=4, data=[7, 16]),\n",
      "   midi.ControlChangeEvent(tick=10, channel=4, data=[7, 15]),\n",
      "   midi.ControlChangeEvent(tick=10, channel=4, data=[7, 14]),\n",
      "   midi.NoteOnEvent(tick=10, channel=4, data=[62, 0]),\n",
      "   midi.NoteOnEvent(tick=0, channel=4, data=[71, 0]),\n",
      "   midi.NoteOnEvent(tick=0, channel=4, data=[67, 0]),\n",
      "   midi.NoteOnEvent(tick=0, channel=4, data=[55, 0]),\n",
      "   midi.NoteOnEvent(tick=0, channel=4, data=[64, 0]),\n",
      "   midi.ControlChangeEvent(tick=0, channel=4, data=[7, 13]),\n",
      "   midi.ControlChangeEvent(tick=10, channel=4, data=[7, 11]),\n",
      "   midi.ControlChangeEvent(tick=10, channel=4, data=[7, 10]),\n",
      "   midi.ControlChangeEvent(tick=10, channel=4, data=[7, 9]),\n",
      "   midi.ControlChangeEvent(tick=10, channel=4, data=[7, 8]),\n",
      "   midi.ControlChangeEvent(tick=10, channel=4, data=[7, 7]),\n",
      "   midi.ControlChangeEvent(tick=10, channel=4, data=[7, 6]),\n",
      "   midi.ControlChangeEvent(tick=10, channel=4, data=[7, 5]),\n",
      "   midi.ControlChangeEvent(tick=10, channel=4, data=[7, 4]),\n",
      "   midi.ControlChangeEvent(tick=10, channel=4, data=[7, 3]),\n",
      "   midi.ControlChangeEvent(tick=10, channel=4, data=[7, 1]),\n",
      "   midi.ControlChangeEvent(tick=79, channel=4, data=[7, 99]),\n",
      "   midi.ControlChangeEvent(tick=0, channel=4, data=[10, 44]),\n",
      "   midi.NoteOnEvent(tick=1, channel=4, data=[41, 127]),\n",
      "   midi.NoteOnEvent(tick=4, channel=4, data=[48, 127]),\n",
      "   midi.NoteOnEvent(tick=4, channel=4, data=[53, 127]),\n",
      "   midi.NoteOnEvent(tick=4, channel=4, data=[57, 127]),\n",
      "   midi.NoteOnEvent(tick=866, channel=4, data=[57, 0]),\n",
      "   midi.NoteOnEvent(tick=0, channel=4, data=[41, 0]),\n",
      "   midi.NoteOnEvent(tick=0, channel=4, data=[48, 0]),\n",
      "   midi.NoteOnEvent(tick=0, channel=4, data=[53, 0]),\n",
      "   midi.NoteOnEvent(tick=82, channel=4, data=[38, 127]),\n",
      "   midi.NoteOnEvent(tick=4, channel=4, data=[43, 127]),\n",
      "   midi.NoteOnEvent(tick=4, channel=4, data=[55, 127]),\n",
      "   midi.NoteOnEvent(tick=4, channel=4, data=[57, 127]),\n",
      "   midi.NoteOnEvent(tick=4, channel=4, data=[59, 127]),\n",
      "   midi.NoteOnEvent(tick=862, channel=4, data=[59, 0]),\n",
      "   midi.NoteOnEvent(tick=0, channel=4, data=[38, 0]),\n",
      "   midi.NoteOnEvent(tick=0, channel=4, data=[55, 0]),\n",
      "   midi.NoteOnEvent(tick=0, channel=4, data=[43, 0]),\n",
      "   midi.NoteOnEvent(tick=24, channel=4, data=[57, 0]),\n",
      "   midi.NoteOnEvent(tick=58, channel=4, data=[45, 127]),\n",
      "   midi.NoteOnEvent(tick=4, channel=4, data=[52, 127]),\n",
      "   midi.NoteOnEvent(tick=4, channel=4, data=[57, 127]),\n",
      "   midi.NoteOnEvent(tick=4, channel=4, data=[60, 127]),\n",
      "   midi.NoteOnEvent(tick=4, channel=4, data=[64, 127]),\n",
      "   midi.NoteOnEvent(tick=4, channel=4, data=[69, 127]),\n",
      "   midi.ControlChangeEvent(tick=1410, channel=4, data=[7, 96]),\n",
      "   midi.ControlChangeEvent(tick=10, channel=4, data=[7, 95]),\n",
      "   midi.ControlChangeEvent(tick=10, channel=4, data=[7, 93]),\n",
      "   midi.ControlChangeEvent(tick=10, channel=4, data=[7, 92]),\n",
      "   midi.ControlChangeEvent(tick=10, channel=4, data=[7, 90]),\n",
      "   midi.ControlChangeEvent(tick=10, channel=4, data=[7, 89]),\n",
      "   midi.ControlChangeEvent(tick=10, channel=4, data=[7, 87]),\n",
      "   midi.ControlChangeEvent(tick=10, channel=4, data=[7, 85]),\n",
      "   midi.ControlChangeEvent(tick=10, channel=4, data=[7, 84]),\n",
      "   midi.ControlChangeEvent(tick=10, channel=4, data=[7, 82]),\n",
      "   midi.ControlChangeEvent(tick=10, channel=4, data=[7, 81]),\n",
      "   midi.ControlChangeEvent(tick=10, channel=4, data=[7, 79]),\n",
      "   midi.ControlChangeEvent(tick=10, channel=4, data=[7, 78]),\n",
      "   midi.ControlChangeEvent(tick=10, channel=4, data=[7, 76]),\n",
      "   midi.ControlChangeEvent(tick=10, channel=4, data=[7, 74]),\n",
      "   midi.ControlChangeEvent(tick=10, channel=4, data=[7, 73]),\n",
      "   midi.ControlChangeEvent(tick=10, channel=4, data=[7, 71]),\n",
      "   midi.ControlChangeEvent(tick=10, channel=4, data=[7, 70]),\n",
      "   midi.ControlChangeEvent(tick=10, channel=4, data=[7, 68]),\n",
      "   midi.ControlChangeEvent(tick=10, channel=4, data=[7, 67]),\n",
      "   midi.ControlChangeEvent(tick=10, channel=4, data=[7, 65]),\n",
      "   midi.ControlChangeEvent(tick=10, channel=4, data=[7, 63]),\n",
      "   midi.ControlChangeEvent(tick=10, channel=4, data=[7, 62]),\n",
      "   midi.ControlChangeEvent(tick=10, channel=4, data=[7, 60]),\n",
      "   midi.ControlChangeEvent(tick=10, channel=4, data=[7, 59]),\n",
      "   midi.ControlChangeEvent(tick=10, channel=4, data=[7, 57]),\n",
      "   midi.ControlChangeEvent(tick=10, channel=4, data=[7, 56]),\n",
      "   midi.ControlChangeEvent(tick=10, channel=4, data=[7, 54]),\n",
      "   midi.ControlChangeEvent(tick=10, channel=4, data=[7, 52]),\n",
      "   midi.ControlChangeEvent(tick=10, channel=4, data=[7, 51]),\n",
      "   midi.ControlChangeEvent(tick=10, channel=4, data=[7, 49]),\n",
      "   midi.NoteOnEvent(tick=7, channel=4, data=[69, 0]),\n",
      "   midi.NoteOnEvent(tick=0, channel=4, data=[52, 0]),\n",
      "   midi.NoteOnEvent(tick=0, channel=4, data=[57, 0]),\n",
      "   midi.NoteOnEvent(tick=0, channel=4, data=[45, 0]),\n",
      "   midi.NoteOnEvent(tick=0, channel=4, data=[64, 0]),\n",
      "   midi.NoteOnEvent(tick=0, channel=4, data=[60, 0]),\n",
      "   midi.ControlChangeEvent(tick=3, channel=4, data=[7, 48]),\n",
      "   midi.ControlChangeEvent(tick=10, channel=4, data=[7, 46]),\n",
      "   midi.ControlChangeEvent(tick=10, channel=4, data=[7, 45]),\n",
      "   midi.ControlChangeEvent(tick=10, channel=4, data=[7, 43]),\n",
      "   midi.ControlChangeEvent(tick=10, channel=4, data=[7, 41]),\n",
      "   midi.ControlChangeEvent(tick=10, channel=4, data=[7, 40]),\n",
      "   midi.ControlChangeEvent(tick=10, channel=4, data=[7, 38]),\n",
      "   midi.ControlChangeEvent(tick=10, channel=4, data=[7, 37]),\n",
      "   midi.ControlChangeEvent(tick=10, channel=4, data=[7, 35]),\n",
      "   midi.ControlChangeEvent(tick=10, channel=4, data=[7, 34]),\n",
      "   midi.ControlChangeEvent(tick=10, channel=4, data=[7, 32]),\n",
      "   midi.ControlChangeEvent(tick=10, channel=4, data=[7, 30]),\n",
      "   midi.ControlChangeEvent(tick=10, channel=4, data=[7, 29]),\n",
      "   midi.ControlChangeEvent(tick=10, channel=4, data=[7, 27]),\n",
      "   midi.ControlChangeEvent(tick=10, channel=4, data=[7, 26]),\n",
      "   midi.ControlChangeEvent(tick=10, channel=4, data=[7, 24]),\n",
      "   midi.ControlChangeEvent(tick=10, channel=4, data=[7, 23]),\n",
      "   midi.ControlChangeEvent(tick=10, channel=4, data=[7, 21]),\n",
      "   midi.ControlChangeEvent(tick=10, channel=4, data=[7, 19]),\n",
      "   midi.ControlChangeEvent(tick=10, channel=4, data=[7, 18]),\n",
      "   midi.ControlChangeEvent(tick=10, channel=4, data=[7, 16]),\n",
      "   midi.ControlChangeEvent(tick=10, channel=4, data=[7, 15]),\n",
      "   midi.ControlChangeEvent(tick=10, channel=4, data=[7, 13]),\n",
      "   midi.ControlChangeEvent(tick=10, channel=4, data=[7, 12]),\n",
      "   midi.ControlChangeEvent(tick=10, channel=4, data=[7, 10]),\n",
      "   midi.ControlChangeEvent(tick=10, channel=4, data=[7, 8]),\n",
      "   midi.ControlChangeEvent(tick=10, channel=4, data=[7, 7]),\n",
      "   midi.ControlChangeEvent(tick=10, channel=4, data=[7, 5]),\n",
      "   midi.ControlChangeEvent(tick=10, channel=4, data=[7, 4]),\n",
      "   midi.ControlChangeEvent(tick=10, channel=4, data=[7, 2]),\n",
      "   midi.ControlChangeEvent(tick=10, channel=4, data=[7, 0]),\n",
      "   midi.ControlChangeEvent(tick=11400, channel=4, data=[10, 32]),\n",
      "   midi.NoteOnEvent(tick=0, channel=4, data=[69, 127]),\n",
      "   midi.NoteOnEvent(tick=0, channel=4, data=[64, 127]),\n",
      "   midi.NoteOnEvent(tick=0, channel=4, data=[72, 127]),\n",
      "   midi.NoteOnEvent(tick=0, channel=4, data=[57, 122]),\n",
      "   midi.NoteOnEvent(tick=0, channel=4, data=[55, 125]),\n",
      "   midi.ControlChangeEvent(tick=1, channel=4, data=[7, 101]),\n",
      "   midi.ControlChangeEvent(tick=9, channel=4, data=[7, 100]),\n",
      "   midi.ControlChangeEvent(tick=10, channel=4, data=[7, 99]),\n",
      "   midi.NoteOnEvent(tick=9, channel=4, data=[55, 0]),\n",
      "   midi.NoteOnEvent(tick=0, channel=4, data=[57, 0]),\n",
      "   midi.ControlChangeEvent(tick=1, channel=4, data=[7, 98]),\n",
      "   midi.ControlChangeEvent(tick=10, channel=4, data=[7, 97]),\n",
      "   midi.ControlChangeEvent(tick=10, channel=4, data=[7, 96]),\n",
      "   midi.NoteOnEvent(tick=10, channel=4, data=[69, 0]),\n",
      "   midi.NoteOnEvent(tick=0, channel=4, data=[64, 0]),\n",
      "   midi.NoteOnEvent(tick=0, channel=4, data=[72, 0]),\n",
      "   midi.ControlChangeEvent(tick=0, channel=4, data=[7, 95]),\n",
      "   midi.ControlChangeEvent(tick=10, channel=4, data=[7, 93]),\n",
      "   midi.ControlChangeEvent(tick=10, channel=4, data=[7, 92]),\n",
      "   midi.ControlChangeEvent(tick=9, channel=4, data=[10, 96]),\n",
      "   midi.NoteOnEvent(tick=1, channel=4, data=[69, 127]),\n",
      "   midi.NoteOnEvent(tick=0, channel=4, data=[64, 127]),\n",
      "   midi.NoteOnEvent(tick=0, channel=4, data=[72, 127]),\n",
      "   midi.NoteOnEvent(tick=0, channel=4, data=[57, 122]),\n",
      "   midi.NoteOnEvent(tick=0, channel=4, data=[55, 125]),\n",
      "   midi.ControlChangeEvent(tick=0, channel=4, data=[7, 91]),\n",
      "   midi.ControlChangeEvent(tick=10, channel=4, data=[7, 90]),\n",
      "   midi.ControlChangeEvent(tick=10, channel=4, data=[7, 89]),\n",
      "   midi.NoteOnEvent(tick=9, channel=4, data=[55, 0]),\n",
      "   midi.NoteOnEvent(tick=0, channel=4, data=[57, 0]),\n",
      "   midi.ControlChangeEvent(tick=1, channel=4, data=[7, 88]),\n",
      "   midi.ControlChangeEvent(tick=10, channel=4, data=[7, 87]),\n",
      "   midi.ControlChangeEvent(tick=10, channel=4, data=[7, 86]),\n",
      "   midi.NoteOnEvent(tick=10, channel=4, data=[69, 0]),\n",
      "   midi.NoteOnEvent(tick=0, channel=4, data=[64, 0]),\n",
      "   midi.NoteOnEvent(tick=0, channel=4, data=[72, 0]),\n",
      "   midi.ControlChangeEvent(tick=0, channel=4, data=[7, 84]),\n",
      "   midi.ControlChangeEvent(tick=10, channel=4, data=[7, 83]),\n",
      "   midi.ControlChangeEvent(tick=10, channel=4, data=[7, 82]),\n",
      "   midi.ControlChangeEvent(tick=9, channel=4, data=[10, 32]),\n",
      "   midi.NoteOnEvent(tick=1, channel=4, data=[69, 127]),\n",
      "   midi.NoteOnEvent(tick=0, channel=4, data=[64, 127]),\n",
      "   midi.NoteOnEvent(tick=0, channel=4, data=[72, 127]),\n",
      "   midi.NoteOnEvent(tick=0, channel=4, data=[57, 122]),\n",
      "   midi.NoteOnEvent(tick=0, channel=4, data=[55, 125]),\n",
      "   midi.ControlChangeEvent(tick=0, channel=4, data=[7, 81]),\n",
      "   midi.ControlChangeEvent(tick=10, channel=4, data=[7, 80]),\n",
      "   midi.ControlChangeEvent(tick=10, channel=4, data=[7, 79]),\n",
      "   midi.NoteOnEvent(tick=9, channel=4, data=[55, 0]),\n",
      "   midi.NoteOnEvent(tick=0, channel=4, data=[57, 0]),\n",
      "   midi.ControlChangeEvent(tick=1, channel=4, data=[7, 78]),\n",
      "   midi.ControlChangeEvent(tick=10, channel=4, data=[7, 77]),\n",
      "   midi.ControlChangeEvent(tick=10, channel=4, data=[7, 75]),\n",
      "   midi.NoteOnEvent(tick=10, channel=4, data=[69, 0]),\n",
      "   midi.NoteOnEvent(tick=0, channel=4, data=[64, 0]),\n",
      "   midi.NoteOnEvent(tick=0, channel=4, data=[72, 0]),\n",
      "   midi.ControlChangeEvent(tick=0, channel=4, data=[7, 74]),\n",
      "   midi.ControlChangeEvent(tick=10, channel=4, data=[7, 73]),\n",
      "   midi.ControlChangeEvent(tick=10, channel=4, data=[7, 72]),\n",
      "   midi.ControlChangeEvent(tick=9, channel=4, data=[10, 96]),\n",
      "   midi.NoteOnEvent(tick=1, channel=4, data=[69, 127]),\n",
      "   midi.NoteOnEvent(tick=0, channel=4, data=[64, 127]),\n",
      "   midi.NoteOnEvent(tick=0, channel=4, data=[72, 127]),\n",
      "   midi.NoteOnEvent(tick=0, channel=4, data=[57, 122]),\n",
      "   midi.NoteOnEvent(tick=0, channel=4, data=[55, 125]),\n",
      "   midi.ControlChangeEvent(tick=0, channel=4, data=[7, 71]),\n",
      "   midi.ControlChangeEvent(tick=10, channel=4, data=[7, 70]),\n",
      "   midi.ControlChangeEvent(tick=10, channel=4, data=[7, 69]),\n",
      "   midi.NoteOnEvent(tick=9, channel=4, data=[55, 0]),\n",
      "   midi.NoteOnEvent(tick=0, channel=4, data=[57, 0]),\n",
      "   midi.ControlChangeEvent(tick=1, channel=4, data=[7, 67]),\n",
      "   midi.ControlChangeEvent(tick=10, channel=4, data=[7, 66]),\n",
      "   midi.ControlChangeEvent(tick=10, channel=4, data=[7, 65]),\n",
      "   midi.NoteOnEvent(tick=10, channel=4, data=[69, 0]),\n",
      "   midi.NoteOnEvent(tick=0, channel=4, data=[64, 0]),\n",
      "   midi.NoteOnEvent(tick=0, channel=4, data=[72, 0]),\n",
      "   midi.ControlChangeEvent(tick=0, channel=4, data=[7, 64]),\n",
      "   midi.ControlChangeEvent(tick=10, channel=4, data=[7, 63]),\n",
      "   midi.ControlChangeEvent(tick=10, channel=4, data=[7, 62]),\n",
      "   midi.ControlChangeEvent(tick=8, channel=4, data=[10, 32]),\n",
      "   midi.NoteOnEvent(tick=2, channel=4, data=[69, 127]),\n",
      "   midi.NoteOnEvent(tick=0, channel=4, data=[64, 127]),\n",
      "   midi.NoteOnEvent(tick=0, channel=4, data=[72, 127]),\n",
      "   midi.NoteOnEvent(tick=0, channel=4, data=[57, 122]),\n",
      "   midi.NoteOnEvent(tick=0, channel=4, data=[55, 125]),\n",
      "   midi.ControlChangeEvent(tick=0, channel=4, data=[7, 61]),\n",
      "   midi.ControlChangeEvent(tick=10, channel=4, data=[7, 60]),\n",
      "   midi.ControlChangeEvent(tick=10, channel=4, data=[7, 58]),\n",
      "   midi.NoteOnEvent(tick=9, channel=4, data=[55, 0]),\n",
      "   midi.NoteOnEvent(tick=0, channel=4, data=[57, 0]),\n",
      "   midi.ControlChangeEvent(tick=1, channel=4, data=[7, 57]),\n",
      "   midi.ControlChangeEvent(tick=10, channel=4, data=[7, 56]),\n",
      "   midi.ControlChangeEvent(tick=10, channel=4, data=[7, 55]),\n",
      "   midi.NoteOnEvent(tick=10, channel=4, data=[69, 0]),\n",
      "   midi.NoteOnEvent(tick=0, channel=4, data=[64, 0]),\n",
      "   midi.NoteOnEvent(tick=0, channel=4, data=[72, 0]),\n",
      "   midi.ControlChangeEvent(tick=0, channel=4, data=[7, 54]),\n",
      "   midi.ControlChangeEvent(tick=10, channel=4, data=[7, 53]),\n",
      "   midi.ControlChangeEvent(tick=10, channel=4, data=[7, 52]),\n",
      "   midi.ControlChangeEvent(tick=9, channel=4, data=[10, 96]),\n",
      "   midi.NoteOnEvent(tick=1, channel=4, data=[69, 127]),\n",
      "   midi.NoteOnEvent(tick=0, channel=4, data=[64, 127]),\n",
      "   midi.NoteOnEvent(tick=0, channel=4, data=[72, 127]),\n",
      "   midi.NoteOnEvent(tick=0, channel=4, data=[57, 122]),\n",
      "   midi.NoteOnEvent(tick=0, channel=4, data=[55, 125]),\n",
      "   midi.ControlChangeEvent(tick=0, channel=4, data=[7, 51]),\n",
      "   midi.ControlChangeEvent(tick=10, channel=4, data=[7, 49]),\n",
      "   midi.ControlChangeEvent(tick=10, channel=4, data=[7, 48]),\n",
      "   midi.NoteOnEvent(tick=9, channel=4, data=[55, 0]),\n",
      "   midi.NoteOnEvent(tick=0, channel=4, data=[57, 0]),\n",
      "   midi.ControlChangeEvent(tick=1, channel=4, data=[7, 47]),\n",
      "   midi.ControlChangeEvent(tick=10, channel=4, data=[7, 46]),\n",
      "   midi.ControlChangeEvent(tick=10, channel=4, data=[7, 45]),\n",
      "   midi.NoteOnEvent(tick=10, channel=4, data=[69, 0]),\n",
      "   midi.NoteOnEvent(tick=0, channel=4, data=[64, 0]),\n",
      "   midi.NoteOnEvent(tick=0, channel=4, data=[72, 0]),\n",
      "   midi.ControlChangeEvent(tick=0, channel=4, data=[7, 44]),\n",
      "   midi.ControlChangeEvent(tick=10, channel=4, data=[7, 43]),\n",
      "   midi.ControlChangeEvent(tick=10, channel=4, data=[7, 41]),\n",
      "   midi.ControlChangeEvent(tick=9, channel=4, data=[10, 32]),\n",
      "   midi.NoteOnEvent(tick=1, channel=4, data=[69, 127]),\n",
      "   midi.NoteOnEvent(tick=0, channel=4, data=[64, 127]),\n",
      "   midi.NoteOnEvent(tick=0, channel=4, data=[72, 127]),\n",
      "   midi.NoteOnEvent(tick=0, channel=4, data=[57, 122]),\n",
      "   midi.NoteOnEvent(tick=0, channel=4, data=[55, 125]),\n",
      "   midi.ControlChangeEvent(tick=0, channel=4, data=[7, 39]),\n",
      "   midi.ControlChangeEvent(tick=10, channel=4, data=[7, 38]),\n",
      "   midi.ControlChangeEvent(tick=10, channel=4, data=[7, 36]),\n",
      "   midi.NoteOnEvent(tick=9, channel=4, data=[55, 0]),\n",
      "   midi.NoteOnEvent(tick=0, channel=4, data=[57, 0]),\n",
      "   midi.ControlChangeEvent(tick=1, channel=4, data=[7, 35]),\n",
      "   midi.ControlChangeEvent(tick=10, channel=4, data=[7, 34]),\n",
      "   midi.ControlChangeEvent(tick=10, channel=4, data=[7, 32]),\n",
      "   midi.NoteOnEvent(tick=10, channel=4, data=[69, 0]),\n",
      "   midi.NoteOnEvent(tick=0, channel=4, data=[64, 0]),\n",
      "   midi.NoteOnEvent(tick=0, channel=4, data=[72, 0]),\n",
      "   midi.ControlChangeEvent(tick=10, channel=4, data=[7, 29]),\n",
      "   midi.ControlChangeEvent(tick=20, channel=4, data=[10, 96]),\n",
      "   midi.NoteOnEvent(tick=0, channel=4, data=[69, 127]),\n",
      "   midi.NoteOnEvent(tick=0, channel=4, data=[64, 127]),\n",
      "   midi.NoteOnEvent(tick=0, channel=4, data=[72, 127]),\n",
      "   midi.NoteOnEvent(tick=0, channel=4, data=[57, 122]),\n",
      "   midi.NoteOnEvent(tick=0, channel=4, data=[55, 125]),\n",
      "   midi.ControlChangeEvent(tick=0, channel=4, data=[7, 28]),\n",
      "   midi.ControlChangeEvent(tick=10, channel=4, data=[7, 27]),\n",
      "   midi.ControlChangeEvent(tick=10, channel=4, data=[7, 26]),\n",
      "   midi.NoteOnEvent(tick=9, channel=4, data=[55, 0]),\n",
      "   midi.NoteOnEvent(tick=0, channel=4, data=[57, 0]),\n",
      "   midi.ControlChangeEvent(tick=1, channel=4, data=[7, 25]),\n",
      "   midi.ControlChangeEvent(tick=10, channel=4, data=[7, 24]),\n",
      "   midi.ControlChangeEvent(tick=10, channel=4, data=[7, 23]),\n",
      "   midi.NoteOnEvent(tick=10, channel=4, data=[69, 0]),\n",
      "   midi.NoteOnEvent(tick=0, channel=4, data=[64, 0]),\n",
      "   midi.NoteOnEvent(tick=0, channel=4, data=[72, 0]),\n",
      "   midi.ControlChangeEvent(tick=0, channel=4, data=[7, 22]),\n",
      "   midi.ControlChangeEvent(tick=10, channel=4, data=[7, 21]),\n",
      "   midi.ControlChangeEvent(tick=10, channel=4, data=[7, 20]),\n",
      "   midi.ControlChangeEvent(tick=10, channel=4, data=[10, 32]),\n",
      "   midi.NoteOnEvent(tick=0, channel=4, data=[69, 127]),\n",
      "   midi.NoteOnEvent(tick=0, channel=4, data=[64, 127]),\n",
      "   midi.NoteOnEvent(tick=0, channel=4, data=[72, 127]),\n",
      "   midi.NoteOnEvent(tick=0, channel=4, data=[57, 122]),\n",
      "   midi.NoteOnEvent(tick=0, channel=4, data=[55, 125]),\n",
      "   midi.ControlChangeEvent(tick=0, channel=4, data=[7, 19]),\n",
      "   midi.ControlChangeEvent(tick=10, channel=4, data=[7, 18]),\n",
      "   midi.ControlChangeEvent(tick=10, channel=4, data=[7, 17]),\n",
      "   midi.NoteOnEvent(tick=9, channel=4, data=[55, 0]),\n",
      "   midi.NoteOnEvent(tick=0, channel=4, data=[57, 0]),\n",
      "   midi.ControlChangeEvent(tick=1, channel=4, data=[7, 16]),\n",
      "   midi.ControlChangeEvent(tick=10, channel=4, data=[7, 15]),\n",
      "   midi.ControlChangeEvent(tick=10, channel=4, data=[7, 14]),\n",
      "   midi.NoteOnEvent(tick=10, channel=4, data=[69, 0]),\n",
      "   midi.NoteOnEvent(tick=0, channel=4, data=[64, 0]),\n",
      "   midi.NoteOnEvent(tick=0, channel=4, data=[72, 0]),\n",
      "   midi.ControlChangeEvent(tick=0, channel=4, data=[7, 13]),\n",
      "   midi.ControlChangeEvent(tick=10, channel=4, data=[7, 12]),\n",
      "   midi.ControlChangeEvent(tick=10, channel=4, data=[7, 11]),\n",
      "   midi.ControlChangeEvent(tick=10, channel=4, data=[7, 10]),\n",
      "   midi.ControlChangeEvent(tick=10, channel=4, data=[7, 9]),\n",
      "   midi.ControlChangeEvent(tick=10, channel=4, data=[7, 8]),\n",
      "   midi.ControlChangeEvent(tick=10, channel=4, data=[7, 7]),\n",
      "   midi.ControlChangeEvent(tick=10, channel=4, data=[7, 6]),\n",
      "   midi.ControlChangeEvent(tick=10, channel=4, data=[7, 5]),\n",
      "   midi.ControlChangeEvent(tick=10, channel=4, data=[7, 4]),\n",
      "   midi.ControlChangeEvent(tick=10, channel=4, data=[7, 3]),\n",
      "   midi.ControlChangeEvent(tick=10, channel=4, data=[7, 2]),\n",
      "   midi.ControlChangeEvent(tick=10, channel=4, data=[7, 1]),\n",
      "   midi.ControlChangeEvent(tick=10, channel=4, data=[7, 0]),\n",
      "   midi.ControlChangeEvent(tick=45, channel=4, data=[10, 96]),\n",
      "   midi.NoteOnEvent(tick=5, channel=4, data=[55, 127]),\n",
      "   midi.NoteOnEvent(tick=0, channel=4, data=[62, 127]),\n",
      "   midi.NoteOnEvent(tick=0, channel=4, data=[67, 127]),\n",
      "   midi.NoteOnEvent(tick=0, channel=4, data=[71, 127]),\n",
      "   midi.ControlChangeEvent(tick=1, channel=4, data=[7, 104]),\n",
      "   midi.ControlChangeEvent(tick=9, channel=4, data=[7, 103]),\n",
      "   midi.ControlChangeEvent(tick=10, channel=4, data=[7, 102]),\n",
      "   midi.ControlChangeEvent(tick=10, channel=4, data=[7, 101]),\n",
      "   midi.ControlChangeEvent(tick=10, channel=4, data=[7, 100]),\n",
      "   midi.ControlChangeEvent(tick=10, channel=4, data=[7, 99]),\n",
      "   midi.NoteOnEvent(tick=10, channel=4, data=[71, 0]),\n",
      "   midi.NoteOnEvent(tick=0, channel=4, data=[55, 0]),\n",
      "   midi.NoteOnEvent(tick=0, channel=4, data=[62, 0]),\n",
      "   midi.NoteOnEvent(tick=0, channel=4, data=[67, 0]),\n",
      "   midi.ControlChangeEvent(tick=0, channel=4, data=[7, 98]),\n",
      "   midi.ControlChangeEvent(tick=10, channel=4, data=[7, 96]),\n",
      "   midi.ControlChangeEvent(tick=10, channel=4, data=[7, 95]),\n",
      "   midi.ControlChangeEvent(tick=8, channel=4, data=[10, 32]),\n",
      "   midi.NoteOnEvent(tick=2, channel=4, data=[55, 127]),\n",
      "   midi.NoteOnEvent(tick=0, channel=4, data=[62, 127]),\n",
      "   midi.NoteOnEvent(tick=0, channel=4, data=[67, 127]),\n",
      "   midi.NoteOnEvent(tick=0, channel=4, data=[71, 127]),\n",
      "   midi.ControlChangeEvent(tick=1, channel=4, data=[7, 94]),\n",
      "   midi.ControlChangeEvent(tick=9, channel=4, data=[7, 93]),\n",
      "   midi.ControlChangeEvent(tick=10, channel=4, data=[7, 92]),\n",
      "   midi.ControlChangeEvent(tick=10, channel=4, data=[7, 91]),\n",
      "   midi.ControlChangeEvent(tick=10, channel=4, data=[7, 90]),\n",
      "   midi.ControlChangeEvent(tick=10, channel=4, data=[7, 88]),\n",
      "   midi.NoteOnEvent(tick=10, channel=4, data=[71, 0]),\n",
      "   midi.NoteOnEvent(tick=0, channel=4, data=[55, 0]),\n",
      "   midi.NoteOnEvent(tick=0, channel=4, data=[62, 0]),\n",
      "   midi.NoteOnEvent(tick=0, channel=4, data=[67, 0]),\n",
      "   midi.ControlChangeEvent(tick=0, channel=4, data=[7, 87]),\n",
      "   midi.ControlChangeEvent(tick=10, channel=4, data=[7, 86]),\n",
      "   midi.ControlChangeEvent(tick=10, channel=4, data=[7, 85]),\n",
      "   midi.ControlChangeEvent(tick=9, channel=4, data=[10, 96]),\n",
      "   midi.NoteOnEvent(tick=1, channel=4, data=[55, 127]),\n",
      "   midi.NoteOnEvent(tick=0, channel=4, data=[62, 127]),\n",
      "   midi.NoteOnEvent(tick=0, channel=4, data=[67, 127]),\n",
      "   midi.NoteOnEvent(tick=0, channel=4, data=[71, 127]),\n",
      "   midi.ControlChangeEvent(tick=10, channel=4, data=[7, 83]),\n",
      "   midi.ControlChangeEvent(tick=10, channel=4, data=[7, 81]),\n",
      "   midi.ControlChangeEvent(tick=10, channel=4, data=[7, 80]),\n",
      "   midi.ControlChangeEvent(tick=10, channel=4, data=[7, 79]),\n",
      "   midi.ControlChangeEvent(tick=10, channel=4, data=[7, 78]),\n",
      "   midi.NoteOnEvent(tick=10, channel=4, data=[71, 0]),\n",
      "   midi.NoteOnEvent(tick=0, channel=4, data=[55, 0]),\n",
      "   midi.NoteOnEvent(tick=0, channel=4, data=[62, 0]),\n",
      "   midi.NoteOnEvent(tick=0, channel=4, data=[67, 0]),\n",
      "   midi.ControlChangeEvent(tick=0, channel=4, data=[7, 77]),\n",
      "   midi.ControlChangeEvent(tick=10, channel=4, data=[7, 76]),\n",
      "   midi.ControlChangeEvent(tick=10, channel=4, data=[7, 75]),\n",
      "   midi.ControlChangeEvent(tick=9, channel=4, data=[10, 32]),\n",
      "   midi.NoteOnEvent(tick=1, channel=4, data=[55, 127]),\n",
      "   midi.NoteOnEvent(tick=0, channel=4, data=[62, 127]),\n",
      "   midi.NoteOnEvent(tick=0, channel=4, data=[67, 127]),\n",
      "   midi.NoteOnEvent(tick=0, channel=4, data=[71, 127]),\n",
      "   midi.ControlChangeEvent(tick=10, channel=4, data=[7, 72]),\n",
      "   midi.ControlChangeEvent(tick=10, channel=4, data=[7, 71]),\n",
      "   midi.ControlChangeEvent(tick=10, channel=4, data=[7, 70]),\n",
      "   midi.ControlChangeEvent(tick=10, channel=4, data=[7, 69]),\n",
      "   midi.ControlChangeEvent(tick=10, channel=4, data=[7, 68]),\n",
      "   midi.NoteOnEvent(tick=10, channel=4, data=[71, 0]),\n",
      "   midi.NoteOnEvent(tick=0, channel=4, data=[55, 0]),\n",
      "   midi.NoteOnEvent(tick=0, channel=4, data=[62, 0]),\n",
      "   midi.NoteOnEvent(tick=0, channel=4, data=[67, 0]),\n",
      "   midi.ControlChangeEvent(tick=0, channel=4, data=[7, 66]),\n",
      "   midi.ControlChangeEvent(tick=10, channel=4, data=[7, 64]),\n",
      "   midi.ControlChangeEvent(tick=10, channel=4, data=[7, 63]),\n",
      "   midi.ControlChangeEvent(tick=9, channel=4, data=[10, 96]),\n",
      "   midi.NoteOnEvent(tick=1, channel=4, data=[55, 127]),\n",
      "   midi.NoteOnEvent(tick=0, channel=4, data=[62, 127]),\n",
      "   midi.NoteOnEvent(tick=0, channel=4, data=[67, 127]),\n",
      "   midi.NoteOnEvent(tick=0, channel=4, data=[71, 127]),\n",
      "   midi.ControlChangeEvent(tick=10, channel=4, data=[7, 61]),\n",
      "   midi.ControlChangeEvent(tick=10, channel=4, data=[7, 59]),\n",
      "   midi.ControlChangeEvent(tick=10, channel=4, data=[7, 58]),\n",
      "   midi.ControlChangeEvent(tick=10, channel=4, data=[7, 57]),\n",
      "   midi.ControlChangeEvent(tick=10, channel=4, data=[7, 56]),\n",
      "   midi.NoteOnEvent(tick=10, channel=4, data=[71, 0]),\n",
      "   midi.NoteOnEvent(tick=0, channel=4, data=[55, 0]),\n",
      "   midi.NoteOnEvent(tick=0, channel=4, data=[62, 0]),\n",
      "   midi.NoteOnEvent(tick=0, channel=4, data=[67, 0]),\n",
      "   midi.ControlChangeEvent(tick=0, channel=4, data=[7, 54]),\n",
      "   midi.ControlChangeEvent(tick=10, channel=4, data=[7, 53]),\n",
      "   midi.ControlChangeEvent(tick=10, channel=4, data=[7, 52]),\n",
      "   midi.ControlChangeEvent(tick=8, channel=4, data=[10, 32]),\n",
      "   midi.NoteOnEvent(tick=2, channel=4, data=[55, 127]),\n",
      "   midi.NoteOnEvent(tick=0, channel=4, data=[62, 127]),\n",
      "   midi.NoteOnEvent(tick=0, channel=4, data=[67, 127]),\n",
      "   midi.NoteOnEvent(tick=0, channel=4, data=[71, 127]),\n",
      "   midi.ControlChangeEvent(tick=10, channel=4, data=[7, 49]),\n",
      "   midi.ControlChangeEvent(tick=10, channel=4, data=[7, 48]),\n",
      "   midi.ControlChangeEvent(tick=10, channel=4, data=[7, 47]),\n",
      "   midi.ControlChangeEvent(tick=10, channel=4, data=[7, 45]),\n",
      "   midi.ControlChangeEvent(tick=10, channel=4, data=[7, 44]),\n",
      "   midi.NoteOnEvent(tick=10, channel=4, data=[71, 0]),\n",
      "   midi.NoteOnEvent(tick=0, channel=4, data=[55, 0]),\n",
      "   midi.NoteOnEvent(tick=0, channel=4, data=[62, 0]),\n",
      "   midi.NoteOnEvent(tick=0, channel=4, data=[67, 0]),\n",
      "   midi.ControlChangeEvent(tick=0, channel=4, data=[7, 43]),\n",
      "   midi.ControlChangeEvent(tick=10, channel=4, data=[7, 41]),\n",
      "   midi.ControlChangeEvent(tick=10, channel=4, data=[7, 40]),\n",
      "   midi.ControlChangeEvent(tick=9, channel=4, data=[10, 96]),\n",
      "   midi.NoteOnEvent(tick=1, channel=4, data=[55, 127]),\n",
      "   midi.NoteOnEvent(tick=0, channel=4, data=[62, 127]),\n",
      "   midi.NoteOnEvent(tick=0, channel=4, data=[67, 127]),\n",
      "   midi.NoteOnEvent(tick=0, channel=4, data=[71, 127]),\n",
      "   midi.ControlChangeEvent(tick=10, channel=4, data=[7, 38]),\n",
      "   midi.ControlChangeEvent(tick=10, channel=4, data=[7, 36]),\n",
      "   midi.ControlChangeEvent(tick=10, channel=4, data=[7, 35]),\n",
      "   midi.ControlChangeEvent(tick=10, channel=4, data=[7, 34]),\n",
      "   midi.ControlChangeEvent(tick=10, channel=4, data=[7, 32]),\n",
      "   midi.NoteOnEvent(tick=10, channel=4, data=[71, 0]),\n",
      "   midi.NoteOnEvent(tick=0, channel=4, data=[55, 0]),\n",
      "   midi.NoteOnEvent(tick=0, channel=4, data=[62, 0]),\n",
      "   midi.NoteOnEvent(tick=0, channel=4, data=[67, 0]),\n",
      "   midi.ControlChangeEvent(tick=0, channel=4, data=[7, 31]),\n",
      "   midi.ControlChangeEvent(tick=10, channel=4, data=[7, 30]),\n",
      "   midi.ControlChangeEvent(tick=10, channel=4, data=[7, 29]),\n",
      "   midi.ControlChangeEvent(tick=10, channel=4, data=[10, 32]),\n",
      "   midi.NoteOnEvent(tick=0, channel=4, data=[55, 127]),\n",
      "   midi.NoteOnEvent(tick=0, channel=4, data=[62, 127]),\n",
      "   midi.NoteOnEvent(tick=0, channel=4, data=[67, 127]),\n",
      "   midi.NoteOnEvent(tick=0, channel=4, data=[71, 127]),\n",
      "   midi.ControlChangeEvent(tick=10, channel=4, data=[7, 27]),\n",
      "   midi.ControlChangeEvent(tick=20, channel=4, data=[7, 26]),\n",
      "   midi.ControlChangeEvent(tick=10, channel=4, data=[7, 25]),\n",
      "   midi.ControlChangeEvent(tick=10, channel=4, data=[7, 24]),\n",
      "   midi.NoteOnEvent(tick=10, channel=4, data=[71, 0]),\n",
      "   midi.NoteOnEvent(tick=0, channel=4, data=[55, 0]),\n",
      "   midi.NoteOnEvent(tick=0, channel=4, data=[62, 0]),\n",
      "   midi.NoteOnEvent(tick=0, channel=4, data=[67, 0]),\n",
      "   midi.ControlChangeEvent(tick=0, channel=4, data=[7, 23]),\n",
      "   midi.ControlChangeEvent(tick=10, channel=4, data=[7, 22]),\n",
      "   midi.ControlChangeEvent(tick=10, channel=4, data=[7, 21]),\n",
      "   midi.ControlChangeEvent(tick=10, channel=4, data=[10, 96]),\n",
      "   midi.NoteOnEvent(tick=0, channel=4, data=[55, 127]),\n",
      "   midi.NoteOnEvent(tick=0, channel=4, data=[62, 127]),\n",
      "   midi.NoteOnEvent(tick=0, channel=4, data=[67, 127]),\n",
      "   midi.NoteOnEvent(tick=0, channel=4, data=[71, 127]),\n",
      "   midi.ControlChangeEvent(tick=0, channel=4, data=[7, 20]),\n",
      "   midi.ControlChangeEvent(tick=10, channel=4, data=[7, 19]),\n",
      "   midi.ControlChangeEvent(tick=10, channel=4, data=[7, 18]),\n",
      "   midi.ControlChangeEvent(tick=10, channel=4, data=[7, 17]),\n",
      "   midi.ControlChangeEvent(tick=10, channel=4, data=[7, 16]),\n",
      "   midi.ControlChangeEvent(tick=10, channel=4, data=[7, 15]),\n",
      "   midi.NoteOnEvent(tick=10, channel=4, data=[71, 0]),\n",
      "   midi.NoteOnEvent(tick=0, channel=4, data=[55, 0]),\n",
      "   midi.NoteOnEvent(tick=0, channel=4, data=[62, 0]),\n",
      "   midi.NoteOnEvent(tick=0, channel=4, data=[67, 0]),\n",
      "   midi.ControlChangeEvent(tick=0, channel=4, data=[7, 14]),\n",
      "   midi.ControlChangeEvent(tick=10, channel=4, data=[7, 13]),\n",
      "   midi.ControlChangeEvent(tick=10, channel=4, data=[7, 12]),\n",
      "   midi.ControlChangeEvent(tick=10, channel=4, data=[7, 11]),\n",
      "   midi.ControlChangeEvent(tick=10, channel=4, data=[7, 10]),\n",
      "   midi.ControlChangeEvent(tick=10, channel=4, data=[7, 9]),\n",
      "   midi.ControlChangeEvent(tick=10, channel=4, data=[7, 8]),\n",
      "   midi.ControlChangeEvent(tick=10, channel=4, data=[7, 7]),\n",
      "   midi.ControlChangeEvent(tick=10, channel=4, data=[7, 6]),\n",
      "   midi.ControlChangeEvent(tick=10, channel=4, data=[7, 5]),\n",
      "   midi.ControlChangeEvent(tick=10, channel=4, data=[7, 4]),\n",
      "   midi.ControlChangeEvent(tick=10, channel=4, data=[7, 3]),\n",
      "   midi.ControlChangeEvent(tick=10, channel=4, data=[7, 2]),\n",
      "   midi.ControlChangeEvent(tick=10, channel=4, data=[7, 1]),\n",
      "   midi.ControlChangeEvent(tick=10, channel=4, data=[7, 0]),\n",
      "   midi.ControlChangeEvent(tick=38, channel=4, data=[10, 32]),\n",
      "   midi.NoteOnEvent(tick=2, channel=4, data=[64, 122]),\n",
      "   midi.NoteOnEvent(tick=0, channel=4, data=[69, 127]),\n",
      "   midi.NoteOnEvent(tick=0, channel=4, data=[72, 127]),\n",
      "   midi.NoteOnEvent(tick=0, channel=4, data=[57, 116]),\n",
      "   midi.ControlChangeEvent(tick=0, channel=4, data=[7, 106]),\n",
      "   midi.ControlChangeEvent(tick=10, channel=4, data=[7, 105]),\n",
      "   midi.ControlChangeEvent(tick=10, channel=4, data=[7, 104]),\n",
      "   midi.ControlChangeEvent(tick=10, channel=4, data=[7, 103]),\n",
      "   midi.ControlChangeEvent(tick=10, channel=4, data=[7, 102]),\n",
      "   midi.ControlChangeEvent(tick=10, channel=4, data=[7, 101]),\n",
      "   midi.NoteOnEvent(tick=10, channel=4, data=[57, 0]),\n",
      "   midi.NoteOnEvent(tick=0, channel=4, data=[64, 0]),\n",
      "   midi.NoteOnEvent(tick=0, channel=4, data=[69, 0]),\n",
      "   midi.NoteOnEvent(tick=0, channel=4, data=[72, 0]),\n",
      "   midi.ControlChangeEvent(tick=0, channel=4, data=[7, 100]),\n",
      "   midi.ControlChangeEvent(tick=10, channel=4, data=[7, 98]),\n",
      "   midi.ControlChangeEvent(tick=10, channel=4, data=[7, 97]),\n",
      "   midi.ControlChangeEvent(tick=8, channel=4, data=[10, 96]),\n",
      "   midi.NoteOnEvent(tick=2, channel=4, data=[64, 122]),\n",
      "   midi.NoteOnEvent(tick=0, channel=4, data=[69, 127]),\n",
      "   midi.NoteOnEvent(tick=0, channel=4, data=[72, 127]),\n",
      "   midi.NoteOnEvent(tick=0, channel=4, data=[57, 116]),\n",
      "   midi.ControlChangeEvent(tick=0, channel=4, data=[7, 96]),\n",
      "   midi.ControlChangeEvent(tick=10, channel=4, data=[7, 95]),\n",
      "   midi.ControlChangeEvent(tick=10, channel=4, data=[7, 94]),\n",
      "   midi.ControlChangeEvent(tick=10, channel=4, data=[7, 93]),\n",
      "   midi.ControlChangeEvent(tick=10, channel=4, data=[7, 92]),\n",
      "   midi.ControlChangeEvent(tick=10, channel=4, data=[7, 90]),\n",
      "   midi.NoteOnEvent(tick=10, channel=4, data=[57, 0]),\n",
      "   midi.NoteOnEvent(tick=0, channel=4, data=[64, 0]),\n",
      "   midi.NoteOnEvent(tick=0, channel=4, data=[69, 0]),\n",
      "   midi.NoteOnEvent(tick=0, channel=4, data=[72, 0]),\n",
      "   midi.ControlChangeEvent(tick=0, channel=4, data=[7, 89]),\n",
      "   midi.ControlChangeEvent(tick=10, channel=4, data=[7, 88]),\n",
      "   midi.ControlChangeEvent(tick=10, channel=4, data=[7, 87]),\n",
      "   midi.ControlChangeEvent(tick=8, channel=4, data=[10, 32]),\n",
      "   midi.NoteOnEvent(tick=2, channel=4, data=[64, 122]),\n",
      "   midi.NoteOnEvent(tick=0, channel=4, data=[69, 127]),\n",
      "   midi.NoteOnEvent(tick=0, channel=4, data=[72, 127]),\n",
      "   midi.NoteOnEvent(tick=0, channel=4, data=[57, 116]),\n",
      "   midi.ControlChangeEvent(tick=0, channel=4, data=[7, 86]),\n",
      "   midi.ControlChangeEvent(tick=10, channel=4, data=[7, 85]),\n",
      "   midi.ControlChangeEvent(tick=10, channel=4, data=[7, 84]),\n",
      "   midi.ControlChangeEvent(tick=10, channel=4, data=[7, 82]),\n",
      "   midi.ControlChangeEvent(tick=10, channel=4, data=[7, 81]),\n",
      "   midi.ControlChangeEvent(tick=10, channel=4, data=[7, 80]),\n",
      "   midi.NoteOnEvent(tick=10, channel=4, data=[57, 0]),\n",
      "   midi.NoteOnEvent(tick=0, channel=4, data=[64, 0]),\n",
      "   midi.NoteOnEvent(tick=0, channel=4, data=[69, 0]),\n",
      "   midi.NoteOnEvent(tick=0, channel=4, data=[72, 0]),\n",
      "   midi.ControlChangeEvent(tick=0, channel=4, data=[7, 79]),\n",
      "   midi.ControlChangeEvent(tick=10, channel=4, data=[7, 78]),\n",
      "   midi.ControlChangeEvent(tick=10, channel=4, data=[7, 77]),\n",
      "   midi.ControlChangeEvent(tick=10, channel=4, data=[10, 96]),\n",
      "   midi.NoteOnEvent(tick=0, channel=4, data=[64, 122]),\n",
      "   midi.NoteOnEvent(tick=0, channel=4, data=[69, 127]),\n",
      "   midi.NoteOnEvent(tick=0, channel=4, data=[72, 127]),\n",
      "   midi.NoteOnEvent(tick=0, channel=4, data=[57, 116]),\n",
      "   midi.ControlChangeEvent(tick=0, channel=4, data=[7, 75]),\n",
      "   midi.ControlChangeEvent(tick=10, channel=4, data=[7, 72]),\n",
      "   midi.ControlChangeEvent(tick=10, channel=4, data=[7, 71]),\n",
      "   midi.ControlChangeEvent(tick=10, channel=4, data=[7, 70]),\n",
      "   midi.ControlChangeEvent(tick=10, channel=4, data=[7, 68]),\n",
      "   midi.ControlChangeEvent(tick=10, channel=4, data=[7, 67]),\n",
      "   midi.NoteOnEvent(tick=10, channel=4, data=[57, 0]),\n",
      "   midi.NoteOnEvent(tick=0, channel=4, data=[64, 0]),\n",
      "   midi.NoteOnEvent(tick=0, channel=4, data=[69, 0]),\n",
      "   midi.NoteOnEvent(tick=0, channel=4, data=[72, 0]),\n",
      "   midi.ControlChangeEvent(tick=0, channel=4, data=[7, 66]),\n",
      "   midi.ControlChangeEvent(tick=10, channel=4, data=[7, 64]),\n",
      "   midi.ControlChangeEvent(tick=10, channel=4, data=[7, 63]),\n",
      "   midi.ControlChangeEvent(tick=8, channel=4, data=[10, 32]),\n",
      "   midi.NoteOnEvent(tick=2, channel=4, data=[64, 122]),\n",
      "   midi.NoteOnEvent(tick=0, channel=4, data=[69, 127]),\n",
      "   midi.NoteOnEvent(tick=0, channel=4, data=[72, 127]),\n",
      "   midi.NoteOnEvent(tick=0, channel=4, data=[57, 116]),\n",
      "   midi.ControlChangeEvent(tick=0, channel=4, data=[7, 62]),\n",
      "   midi.ControlChangeEvent(tick=10, channel=4, data=[7, 61]),\n",
      "   midi.ControlChangeEvent(tick=10, channel=4, data=[7, 59]),\n",
      "   midi.ControlChangeEvent(tick=10, channel=4, data=[7, 58]),\n",
      "   midi.ControlChangeEvent(tick=10, channel=4, data=[7, 57]),\n",
      "   midi.ControlChangeEvent(tick=10, channel=4, data=[7, 56]),\n",
      "   midi.NoteOnEvent(tick=10, channel=4, data=[57, 0]),\n",
      "   midi.NoteOnEvent(tick=0, channel=4, data=[64, 0]),\n",
      "   midi.NoteOnEvent(tick=0, channel=4, data=[69, 0]),\n",
      "   midi.NoteOnEvent(tick=0, channel=4, data=[72, 0]),\n",
      "   midi.ControlChangeEvent(tick=0, channel=4, data=[7, 54]),\n",
      "   midi.ControlChangeEvent(tick=10, channel=4, data=[7, 53]),\n",
      "   midi.ControlChangeEvent(tick=10, channel=4, data=[7, 52]),\n",
      "   midi.ControlChangeEvent(tick=8, channel=4, data=[10, 96]),\n",
      "   midi.NoteOnEvent(tick=2, channel=4, data=[64, 122]),\n",
      "   midi.NoteOnEvent(tick=0, channel=4, data=[69, 127]),\n",
      "   midi.NoteOnEvent(tick=0, channel=4, data=[72, 127]),\n",
      "   midi.NoteOnEvent(tick=0, channel=4, data=[57, 116]),\n",
      "   midi.ControlChangeEvent(tick=0, channel=4, data=[7, 50]),\n",
      "   midi.ControlChangeEvent(tick=10, channel=4, data=[7, 49]),\n",
      "   midi.ControlChangeEvent(tick=10, channel=4, data=[7, 48]),\n",
      "   midi.ControlChangeEvent(tick=10, channel=4, data=[7, 47]),\n",
      "   midi.ControlChangeEvent(tick=10, channel=4, data=[7, 45]),\n",
      "   midi.ControlChangeEvent(tick=10, channel=4, data=[7, 44]),\n",
      "   midi.NoteOnEvent(tick=10, channel=4, data=[57, 0]),\n",
      "   midi.NoteOnEvent(tick=0, channel=4, data=[64, 0]),\n",
      "   midi.NoteOnEvent(tick=0, channel=4, data=[69, 0]),\n",
      "   midi.NoteOnEvent(tick=0, channel=4, data=[72, 0]),\n",
      "   midi.ControlChangeEvent(tick=0, channel=4, data=[7, 43]),\n",
      "   midi.ControlChangeEvent(tick=10, channel=4, data=[7, 41]),\n",
      "   midi.ControlChangeEvent(tick=10, channel=4, data=[7, 40]),\n",
      "   midi.ControlChangeEvent(tick=9, channel=4, data=[10, 32]),\n",
      "   midi.NoteOnEvent(tick=1, channel=4, data=[64, 122]),\n",
      "   midi.NoteOnEvent(tick=0, channel=4, data=[69, 127]),\n",
      "   midi.NoteOnEvent(tick=0, channel=4, data=[72, 127]),\n",
      "   midi.NoteOnEvent(tick=0, channel=4, data=[57, 116]),\n",
      "   midi.ControlChangeEvent(tick=1, channel=4, data=[7, 39]),\n",
      "   midi.ControlChangeEvent(tick=9, channel=4, data=[7, 38]),\n",
      "   midi.ControlChangeEvent(tick=10, channel=4, data=[7, 36]),\n",
      "   midi.ControlChangeEvent(tick=10, channel=4, data=[7, 35]),\n",
      "   midi.ControlChangeEvent(tick=10, channel=4, data=[7, 34]),\n",
      "   midi.ControlChangeEvent(tick=10, channel=4, data=[7, 32]),\n",
      "   midi.NoteOnEvent(tick=10, channel=4, data=[57, 0]),\n",
      "   midi.NoteOnEvent(tick=0, channel=4, data=[64, 0]),\n",
      "   midi.NoteOnEvent(tick=0, channel=4, data=[69, 0]),\n",
      "   midi.NoteOnEvent(tick=0, channel=4, data=[72, 0]),\n",
      "   midi.ControlChangeEvent(tick=0, channel=4, data=[7, 31]),\n",
      "   midi.ControlChangeEvent(tick=10, channel=4, data=[7, 30]),\n",
      "   midi.NoteOnEvent(tick=20, channel=4, data=[64, 122]),\n",
      "   midi.NoteOnEvent(tick=0, channel=4, data=[69, 127]),\n",
      "   midi.NoteOnEvent(tick=0, channel=4, data=[72, 127]),\n",
      "   midi.NoteOnEvent(tick=0, channel=4, data=[57, 116]),\n",
      "   midi.ControlChangeEvent(tick=10, channel=4, data=[7, 28]),\n",
      "   midi.ControlChangeEvent(tick=10, channel=4, data=[7, 27]),\n",
      "   midi.ControlChangeEvent(tick=10, channel=4, data=[7, 26]),\n",
      "   midi.ControlChangeEvent(tick=10, channel=4, data=[7, 25]),\n",
      "   midi.ControlChangeEvent(tick=10, channel=4, data=[7, 24]),\n",
      "   midi.NoteOnEvent(tick=10, channel=4, data=[57, 0]),\n",
      "   midi.NoteOnEvent(tick=0, channel=4, data=[64, 0]),\n",
      "   midi.NoteOnEvent(tick=0, channel=4, data=[69, 0]),\n",
      "   midi.NoteOnEvent(tick=0, channel=4, data=[72, 0]),\n",
      "   midi.ControlChangeEvent(tick=0, channel=4, data=[7, 23]),\n",
      "   midi.ControlChangeEvent(tick=10, channel=4, data=[7, 22]),\n",
      "   midi.ControlChangeEvent(tick=10, channel=4, data=[7, 21]),\n",
      "   midi.NoteOnEvent(tick=10, channel=4, data=[64, 122]),\n",
      "   midi.NoteOnEvent(tick=0, channel=4, data=[69, 127]),\n",
      "   midi.NoteOnEvent(tick=0, channel=4, data=[72, 127]),\n",
      "   midi.NoteOnEvent(tick=0, channel=4, data=[57, 116]),\n",
      "   midi.ControlChangeEvent(tick=10, channel=4, data=[7, 19]),\n",
      "   midi.ControlChangeEvent(tick=10, channel=4, data=[7, 18]),\n",
      "   midi.ControlChangeEvent(tick=10, channel=4, data=[7, 17]),\n",
      "   midi.ControlChangeEvent(tick=10, channel=4, data=[7, 16]),\n",
      "   midi.ControlChangeEvent(tick=10, channel=4, data=[7, 15]),\n",
      "   midi.NoteOnEvent(tick=10, channel=4, data=[57, 0]),\n",
      "   midi.NoteOnEvent(tick=0, channel=4, data=[64, 0]),\n",
      "   midi.NoteOnEvent(tick=0, channel=4, data=[69, 0]),\n",
      "   midi.NoteOnEvent(tick=0, channel=4, data=[72, 0]),\n",
      "   midi.ControlChangeEvent(tick=0, channel=4, data=[7, 14]),\n",
      "   midi.ControlChangeEvent(tick=10, channel=4, data=[7, 13]),\n",
      "   midi.ControlChangeEvent(tick=10, channel=4, data=[7, 12]),\n",
      "   midi.ControlChangeEvent(tick=10, channel=4, data=[7, 11]),\n",
      "   midi.ControlChangeEvent(tick=10, channel=4, data=[7, 10]),\n",
      "   midi.ControlChangeEvent(tick=10, channel=4, data=[7, 9]),\n",
      "   midi.ControlChangeEvent(tick=10, channel=4, data=[7, 8]),\n",
      "   midi.ControlChangeEvent(tick=10, channel=4, data=[7, 7]),\n",
      "   midi.ControlChangeEvent(tick=10, channel=4, data=[7, 6]),\n",
      "   midi.ControlChangeEvent(tick=10, channel=4, data=[7, 5]),\n",
      "   midi.ControlChangeEvent(tick=10, channel=4, data=[7, 4]),\n",
      "   midi.ControlChangeEvent(tick=10, channel=4, data=[7, 3]),\n",
      "   midi.ControlChangeEvent(tick=10, channel=4, data=[7, 2]),\n",
      "   midi.ControlChangeEvent(tick=10, channel=4, data=[7, 1]),\n",
      "   midi.ControlChangeEvent(tick=10, channel=4, data=[7, 0]),\n",
      "   midi.ControlChangeEvent(tick=38, channel=4, data=[10, 96]),\n",
      "   midi.NoteOnEvent(tick=2, channel=4, data=[67, 127]),\n",
      "   midi.NoteOnEvent(tick=0, channel=4, data=[55, 125]),\n",
      "   midi.NoteOnEvent(tick=0, channel=4, data=[71, 127]),\n",
      "   midi.NoteOnEvent(tick=0, channel=4, data=[64, 122]),\n",
      "   midi.NoteOnEvent(tick=0, channel=4, data=[62, 116]),\n",
      "   midi.ControlChangeEvent(tick=0, channel=4, data=[7, 104]),\n",
      "   midi.ControlChangeEvent(tick=10, channel=4, data=[7, 103]),\n",
      "   midi.ControlChangeEvent(tick=10, channel=4, data=[7, 102]),\n",
      "   midi.ControlChangeEvent(tick=10, channel=4, data=[7, 101]),\n",
      "   midi.ControlChangeEvent(tick=10, channel=4, data=[7, 100]),\n",
      "   midi.ControlChangeEvent(tick=10, channel=4, data=[7, 99]),\n",
      "   midi.NoteOnEvent(tick=10, channel=4, data=[62, 0]),\n",
      "   midi.NoteOnEvent(tick=0, channel=4, data=[71, 0]),\n",
      "   midi.NoteOnEvent(tick=0, channel=4, data=[67, 0]),\n",
      "   midi.NoteOnEvent(tick=0, channel=4, data=[55, 0]),\n",
      "   midi.NoteOnEvent(tick=0, channel=4, data=[64, 0]),\n",
      "   midi.ControlChangeEvent(tick=0, channel=4, data=[7, 98]),\n",
      "   midi.ControlChangeEvent(tick=10, channel=4, data=[7, 97]),\n",
      "   midi.ControlChangeEvent(tick=10, channel=4, data=[7, 95]),\n",
      "   midi.ControlChangeEvent(tick=9, channel=4, data=[10, 32]),\n",
      "   midi.NoteOnEvent(tick=1, channel=4, data=[67, 127]),\n",
      "   midi.NoteOnEvent(tick=0, channel=4, data=[55, 125]),\n",
      "   midi.NoteOnEvent(tick=0, channel=4, data=[71, 127]),\n",
      "   midi.NoteOnEvent(tick=0, channel=4, data=[64, 122]),\n",
      "   midi.NoteOnEvent(tick=0, channel=4, data=[62, 116]),\n",
      "   midi.ControlChangeEvent(tick=0, channel=4, data=[7, 94]),\n",
      "   midi.ControlChangeEvent(tick=10, channel=4, data=[7, 93]),\n",
      "   midi.ControlChangeEvent(tick=10, channel=4, data=[7, 92]),\n",
      "   midi.ControlChangeEvent(tick=10, channel=4, data=[7, 91]),\n",
      "   midi.ControlChangeEvent(tick=10, channel=4, data=[7, 90]),\n",
      "   midi.ControlChangeEvent(tick=10, channel=4, data=[7, 89]),\n",
      "   midi.NoteOnEvent(tick=10, channel=4, data=[62, 0]),\n",
      "   midi.NoteOnEvent(tick=0, channel=4, data=[71, 0]),\n",
      "   midi.NoteOnEvent(tick=0, channel=4, data=[67, 0]),\n",
      "   midi.NoteOnEvent(tick=0, channel=4, data=[55, 0]),\n",
      "   midi.NoteOnEvent(tick=0, channel=4, data=[64, 0]),\n",
      "   midi.ControlChangeEvent(tick=0, channel=4, data=[7, 88]),\n",
      "   midi.ControlChangeEvent(tick=10, channel=4, data=[7, 87]),\n",
      "   midi.ControlChangeEvent(tick=10, channel=4, data=[7, 85]),\n",
      "   midi.ControlChangeEvent(tick=9, channel=4, data=[10, 96]),\n",
      "   midi.NoteOnEvent(tick=1, channel=4, data=[67, 127]),\n",
      "   midi.NoteOnEvent(tick=0, channel=4, data=[55, 125]),\n",
      "   midi.NoteOnEvent(tick=0, channel=4, data=[71, 127]),\n",
      "   midi.NoteOnEvent(tick=0, channel=4, data=[64, 122]),\n",
      "   midi.NoteOnEvent(tick=0, channel=4, data=[62, 116]),\n",
      "   midi.ControlChangeEvent(tick=0, channel=4, data=[7, 84]),\n",
      "   midi.ControlChangeEvent(tick=10, channel=4, data=[7, 83]),\n",
      "   midi.ControlChangeEvent(tick=10, channel=4, data=[7, 82]),\n",
      "   midi.ControlChangeEvent(tick=10, channel=4, data=[7, 81]),\n",
      "   midi.ControlChangeEvent(tick=10, channel=4, data=[7, 80]),\n",
      "   midi.ControlChangeEvent(tick=10, channel=4, data=[7, 79]),\n",
      "   midi.NoteOnEvent(tick=10, channel=4, data=[62, 0]),\n",
      "   midi.NoteOnEvent(tick=0, channel=4, data=[71, 0]),\n",
      "   midi.NoteOnEvent(tick=0, channel=4, data=[67, 0]),\n",
      "   midi.NoteOnEvent(tick=0, channel=4, data=[55, 0]),\n",
      "   midi.NoteOnEvent(tick=0, channel=4, data=[64, 0]),\n",
      "   midi.ControlChangeEvent(tick=0, channel=4, data=[7, 78]),\n",
      "   midi.ControlChangeEvent(tick=10, channel=4, data=[7, 77]),\n",
      "   midi.ControlChangeEvent(tick=10, channel=4, data=[7, 75]),\n",
      "   midi.ControlChangeEvent(tick=8, channel=4, data=[10, 32]),\n",
      "   midi.NoteOnEvent(tick=2, channel=4, data=[67, 127]),\n",
      "   midi.NoteOnEvent(tick=0, channel=4, data=[55, 125]),\n",
      "   midi.NoteOnEvent(tick=0, channel=4, data=[71, 127]),\n",
      "   midi.NoteOnEvent(tick=0, channel=4, data=[64, 122]),\n",
      "   midi.NoteOnEvent(tick=0, channel=4, data=[62, 116]),\n",
      "   midi.ControlChangeEvent(tick=0, channel=4, data=[7, 74]),\n",
      "   midi.ControlChangeEvent(tick=10, channel=4, data=[7, 73]),\n",
      "   midi.ControlChangeEvent(tick=10, channel=4, data=[7, 72]),\n",
      "   midi.ControlChangeEvent(tick=10, channel=4, data=[7, 71]),\n",
      "   midi.ControlChangeEvent(tick=10, channel=4, data=[7, 70]),\n",
      "   midi.ControlChangeEvent(tick=10, channel=4, data=[7, 69]),\n",
      "   midi.NoteOnEvent(tick=10, channel=4, data=[62, 0]),\n",
      "   midi.NoteOnEvent(tick=0, channel=4, data=[71, 0]),\n",
      "   midi.NoteOnEvent(tick=0, channel=4, data=[67, 0]),\n",
      "   midi.NoteOnEvent(tick=0, channel=4, data=[55, 0]),\n",
      "   midi.NoteOnEvent(tick=0, channel=4, data=[64, 0]),\n",
      "   midi.ControlChangeEvent(tick=0, channel=4, data=[7, 68]),\n",
      "   midi.ControlChangeEvent(tick=10, channel=4, data=[7, 66]),\n",
      "   midi.ControlChangeEvent(tick=10, channel=4, data=[7, 64]),\n",
      "   midi.ControlChangeEvent(tick=8, channel=4, data=[10, 96]),\n",
      "   midi.NoteOnEvent(tick=2, channel=4, data=[67, 127]),\n",
      "   midi.NoteOnEvent(tick=0, channel=4, data=[55, 125]),\n",
      "   midi.NoteOnEvent(tick=0, channel=4, data=[71, 127]),\n",
      "   midi.NoteOnEvent(tick=0, channel=4, data=[64, 122]),\n",
      "   midi.NoteOnEvent(tick=0, channel=4, data=[62, 116]),\n",
      "   midi.ControlChangeEvent(tick=0, channel=4, data=[7, 63]),\n",
      "   midi.ControlChangeEvent(tick=10, channel=4, data=[7, 61]),\n",
      "   midi.ControlChangeEvent(tick=10, channel=4, data=[7, 60]),\n",
      "   midi.ControlChangeEvent(tick=10, channel=4, data=[7, 59]),\n",
      "   midi.ControlChangeEvent(tick=10, channel=4, data=[7, 57]),\n",
      "   midi.ControlChangeEvent(tick=10, channel=4, data=[7, 56]),\n",
      "   midi.NoteOnEvent(tick=10, channel=4, data=[62, 0]),\n",
      "   midi.NoteOnEvent(tick=0, channel=4, data=[71, 0]),\n",
      "   midi.NoteOnEvent(tick=0, channel=4, data=[67, 0]),\n",
      "   midi.NoteOnEvent(tick=0, channel=4, data=[55, 0]),\n",
      "   midi.NoteOnEvent(tick=0, channel=4, data=[64, 0]),\n",
      "   midi.ControlChangeEvent(tick=0, channel=4, data=[7, 55]),\n",
      "   midi.ControlChangeEvent(tick=10, channel=4, data=[7, 54]),\n",
      "   midi.ControlChangeEvent(tick=10, channel=4, data=[7, 52]),\n",
      "   midi.ControlChangeEvent(tick=8, channel=4, data=[10, 32]),\n",
      "   midi.NoteOnEvent(tick=2, channel=4, data=[67, 127]),\n",
      "   midi.NoteOnEvent(tick=0, channel=4, data=[55, 125]),\n",
      "   midi.NoteOnEvent(tick=0, channel=4, data=[71, 127]),\n",
      "   midi.NoteOnEvent(tick=0, channel=4, data=[64, 122]),\n",
      "   midi.NoteOnEvent(tick=0, channel=4, data=[62, 116]),\n",
      "   midi.ControlChangeEvent(tick=0, channel=4, data=[7, 51]),\n",
      "   midi.ControlChangeEvent(tick=10, channel=4, data=[7, 50]),\n",
      "   midi.ControlChangeEvent(tick=10, channel=4, data=[7, 48]),\n",
      "   midi.ControlChangeEvent(tick=10, channel=4, data=[7, 47]),\n",
      "   midi.ControlChangeEvent(tick=10, channel=4, data=[7, 46]),\n",
      "   midi.ControlChangeEvent(tick=10, channel=4, data=[7, 44]),\n",
      "   midi.NoteOnEvent(tick=10, channel=4, data=[62, 0]),\n",
      "   midi.NoteOnEvent(tick=0, channel=4, data=[71, 0]),\n",
      "   midi.NoteOnEvent(tick=0, channel=4, data=[67, 0]),\n",
      "   midi.NoteOnEvent(tick=0, channel=4, data=[55, 0]),\n",
      "   midi.NoteOnEvent(tick=0, channel=4, data=[64, 0]),\n",
      "   midi.ControlChangeEvent(tick=0, channel=4, data=[7, 43]),\n",
      "   midi.ControlChangeEvent(tick=10, channel=4, data=[7, 42]),\n",
      "   midi.ControlChangeEvent(tick=10, channel=4, data=[7, 41]),\n",
      "   midi.ControlChangeEvent(tick=10, channel=4, data=[10, 96]),\n",
      "   midi.NoteOnEvent(tick=0, channel=4, data=[67, 127]),\n",
      "   midi.NoteOnEvent(tick=0, channel=4, data=[55, 125]),\n",
      "   midi.NoteOnEvent(tick=0, channel=4, data=[71, 127]),\n",
      "   midi.NoteOnEvent(tick=0, channel=4, data=[64, 122]),\n",
      "   midi.NoteOnEvent(tick=0, channel=4, data=[62, 116]),\n",
      "   midi.ControlChangeEvent(tick=1, channel=4, data=[7, 39]),\n",
      "   midi.ControlChangeEvent(tick=9, channel=4, data=[7, 38]),\n",
      "   midi.ControlChangeEvent(tick=10, channel=4, data=[7, 37]),\n",
      "   midi.ControlChangeEvent(tick=10, channel=4, data=[7, 35]),\n",
      "   midi.ControlChangeEvent(tick=10, channel=4, data=[7, 34]),\n",
      "   midi.ControlChangeEvent(tick=10, channel=4, data=[7, 33]),\n",
      "   midi.NoteOnEvent(tick=10, channel=4, data=[62, 0]),\n",
      "   midi.NoteOnEvent(tick=0, channel=4, data=[71, 0]),\n",
      "   midi.NoteOnEvent(tick=0, channel=4, data=[67, 0]),\n",
      "   midi.NoteOnEvent(tick=0, channel=4, data=[55, 0]),\n",
      "   midi.NoteOnEvent(tick=0, channel=4, data=[64, 0]),\n",
      "   midi.ControlChangeEvent(tick=0, channel=4, data=[7, 32]),\n",
      "   midi.ControlChangeEvent(tick=10, channel=4, data=[7, 31]),\n",
      "   midi.ControlChangeEvent(tick=10, channel=4, data=[7, 30]),\n",
      "   midi.ControlChangeEvent(tick=10, channel=4, data=[10, 96]),\n",
      "   midi.NoteOnEvent(tick=0, channel=4, data=[67, 127]),\n",
      "   midi.NoteOnEvent(tick=0, channel=4, data=[55, 125]),\n",
      "   midi.NoteOnEvent(tick=0, channel=4, data=[71, 127]),\n",
      "   midi.NoteOnEvent(tick=0, channel=4, data=[64, 122]),\n",
      "   midi.NoteOnEvent(tick=0, channel=4, data=[62, 116]),\n",
      "   midi.ControlChangeEvent(tick=1, channel=4, data=[7, 29]),\n",
      "   midi.ControlChangeEvent(tick=9, channel=4, data=[7, 28]),\n",
      "   midi.ControlChangeEvent(tick=10, channel=4, data=[7, 27]),\n",
      "   midi.ControlChangeEvent(tick=10, channel=4, data=[7, 26]),\n",
      "   midi.ControlChangeEvent(tick=10, channel=4, data=[7, 25]),\n",
      "   midi.ControlChangeEvent(tick=10, channel=4, data=[7, 24]),\n",
      "   midi.NoteOnEvent(tick=10, channel=4, data=[62, 0]),\n",
      "   midi.NoteOnEvent(tick=0, channel=4, data=[71, 0]),\n",
      "   midi.NoteOnEvent(tick=0, channel=4, data=[67, 0]),\n",
      "   midi.NoteOnEvent(tick=0, channel=4, data=[55, 0]),\n",
      "   midi.NoteOnEvent(tick=0, channel=4, data=[64, 0]),\n",
      "   midi.ControlChangeEvent(tick=0, channel=4, data=[7, 23]),\n",
      "   midi.ControlChangeEvent(tick=10, channel=4, data=[7, 21]),\n",
      "   midi.ControlChangeEvent(tick=10, channel=4, data=[7, 20]),\n",
      "   midi.ControlChangeEvent(tick=10, channel=4, data=[10, 96]),\n",
      "   midi.NoteOnEvent(tick=0, channel=4, data=[67, 127]),\n",
      "   midi.NoteOnEvent(tick=0, channel=4, data=[55, 125]),\n",
      "   midi.NoteOnEvent(tick=0, channel=4, data=[71, 127]),\n",
      "   midi.NoteOnEvent(tick=0, channel=4, data=[64, 122]),\n",
      "   midi.NoteOnEvent(tick=0, channel=4, data=[62, 116]),\n",
      "   midi.ControlChangeEvent(tick=1, channel=4, data=[7, 19]),\n",
      "   midi.ControlChangeEvent(tick=9, channel=4, data=[7, 18]),\n",
      "   midi.ControlChangeEvent(tick=10, channel=4, data=[7, 17]),\n",
      "   midi.ControlChangeEvent(tick=10, channel=4, data=[7, 16]),\n",
      "   midi.ControlChangeEvent(tick=10, channel=4, data=[7, 15]),\n",
      "   midi.ControlChangeEvent(tick=10, channel=4, data=[7, 14]),\n",
      "   midi.NoteOnEvent(tick=10, channel=4, data=[62, 0]),\n",
      "   midi.NoteOnEvent(tick=0, channel=4, data=[71, 0]),\n",
      "   midi.NoteOnEvent(tick=0, channel=4, data=[67, 0]),\n",
      "   midi.NoteOnEvent(tick=0, channel=4, data=[55, 0]),\n",
      "   midi.NoteOnEvent(tick=0, channel=4, data=[64, 0]),\n",
      "   midi.ControlChangeEvent(tick=0, channel=4, data=[7, 13]),\n",
      "   midi.ControlChangeEvent(tick=10, channel=4, data=[7, 11]),\n",
      "   midi.ControlChangeEvent(tick=10, channel=4, data=[7, 10]),\n",
      "   midi.ControlChangeEvent(tick=10, channel=4, data=[7, 11]),\n",
      "   midi.ControlChangeEvent(tick=20, channel=4, data=[7, 10]),\n",
      "   midi.ControlChangeEvent(tick=20, channel=4, data=[7, 9]),\n",
      "   midi.ControlChangeEvent(tick=10, channel=4, data=[7, 8]),\n",
      "   midi.ControlChangeEvent(tick=20, channel=4, data=[7, 7]),\n",
      "   midi.ControlChangeEvent(tick=10, channel=4, data=[7, 6]),\n",
      "   midi.ControlChangeEvent(tick=20, channel=4, data=[7, 5]),\n",
      "   midi.ControlChangeEvent(tick=10, channel=4, data=[7, 4]),\n",
      "   midi.ControlChangeEvent(tick=20, channel=4, data=[7, 3]),\n",
      "   midi.ControlChangeEvent(tick=10, channel=4, data=[7, 2]),\n",
      "   midi.ControlChangeEvent(tick=20, channel=4, data=[7, 1]),\n",
      "   midi.ControlChangeEvent(tick=10, channel=4, data=[7, 0]),\n",
      "   midi.ControlChangeEvent(tick=21090, channel=4, data=[7, 81]),\n",
      "   midi.ControlChangeEvent(tick=10, channel=4, data=[10, 32]),\n",
      "   midi.NoteOnEvent(tick=1, channel=4, data=[55, 125]),\n",
      "   midi.NoteOnEvent(tick=0, channel=4, data=[57, 122]),\n",
      "   midi.NoteOnEvent(tick=0, channel=4, data=[72, 127]),\n",
      "   midi.NoteOnEvent(tick=0, channel=4, data=[64, 127]),\n",
      "   midi.NoteOnEvent(tick=0, channel=4, data=[69, 127]),\n",
      "   midi.ControlChangeEvent(tick=9, channel=4, data=[7, 80]),\n",
      "   midi.ControlChangeEvent(tick=10, channel=4, data=[7, 79]),\n",
      "   midi.NoteOnEvent(tick=10, channel=4, data=[57, 0]),\n",
      "   midi.NoteOnEvent(tick=0, channel=4, data=[55, 0]),\n",
      "   midi.ControlChangeEvent(tick=0, channel=4, data=[7, 78]),\n",
      "   midi.ControlChangeEvent(tick=10, channel=4, data=[7, 77]),\n",
      "   midi.ControlChangeEvent(tick=10, channel=4, data=[7, 76]),\n",
      "   midi.ControlChangeEvent(tick=10, channel=4, data=[7, 75]),\n",
      "   midi.NoteOnEvent(tick=1, channel=4, data=[64, 0]),\n",
      "   midi.NoteOnEvent(tick=0, channel=4, data=[72, 0]),\n",
      "   midi.NoteOnEvent(tick=0, channel=4, data=[69, 0]),\n",
      "   midi.ControlChangeEvent(tick=19, channel=4, data=[7, 74]),\n",
      "   midi.ControlChangeEvent(tick=9, channel=4, data=[10, 96]),\n",
      "   midi.NoteOnEvent(tick=1, channel=4, data=[69, 127]),\n",
      "   midi.NoteOnEvent(tick=0, channel=4, data=[64, 127]),\n",
      "   midi.NoteOnEvent(tick=0, channel=4, data=[72, 127]),\n",
      "   midi.NoteOnEvent(tick=0, channel=4, data=[57, 122]),\n",
      "   midi.NoteOnEvent(tick=0, channel=4, data=[55, 125]),\n",
      "   midi.ControlChangeEvent(tick=0, channel=4, data=[7, 73]),\n",
      "   midi.ControlChangeEvent(tick=10, channel=4, data=[7, 72]),\n",
      "   midi.ControlChangeEvent(tick=10, channel=4, data=[7, 71]),\n",
      "   midi.NoteOnEvent(tick=9, channel=4, data=[55, 0]),\n",
      "   midi.NoteOnEvent(tick=0, channel=4, data=[57, 0]),\n",
      "   midi.ControlChangeEvent(tick=1, channel=4, data=[7, 70]),\n",
      "   midi.ControlChangeEvent(tick=10, channel=4, data=[7, 69]),\n",
      "   midi.ControlChangeEvent(tick=10, channel=4, data=[7, 68]),\n",
      "   midi.NoteOnEvent(tick=10, channel=4, data=[69, 0]),\n",
      "   midi.NoteOnEvent(tick=0, channel=4, data=[64, 0]),\n",
      "   midi.NoteOnEvent(tick=0, channel=4, data=[72, 0]),\n",
      "   midi.ControlChangeEvent(tick=10, channel=4, data=[7, 67]),\n",
      "   midi.ControlChangeEvent(tick=10, channel=4, data=[7, 66]),\n",
      "   midi.ControlChangeEvent(tick=9, channel=4, data=[10, 32]),\n",
      "   midi.NoteOnEvent(tick=1, channel=4, data=[69, 127]),\n",
      "   midi.NoteOnEvent(tick=0, channel=4, data=[64, 127]),\n",
      "   midi.NoteOnEvent(tick=0, channel=4, data=[72, 127]),\n",
      "   midi.NoteOnEvent(tick=0, channel=4, data=[57, 122]),\n",
      "   midi.NoteOnEvent(tick=0, channel=4, data=[55, 125]),\n",
      "   midi.ControlChangeEvent(tick=0, channel=4, data=[7, 65]),\n",
      "   midi.ControlChangeEvent(tick=10, channel=4, data=[7, 64]),\n",
      "   midi.ControlChangeEvent(tick=10, channel=4, data=[7, 63]),\n",
      "   midi.NoteOnEvent(tick=9, channel=4, data=[55, 0]),\n",
      "   midi.NoteOnEvent(tick=0, channel=4, data=[57, 0]),\n",
      "   midi.ControlChangeEvent(tick=1, channel=4, data=[7, 62]),\n",
      "   midi.ControlChangeEvent(tick=10, channel=4, data=[7, 61]),\n",
      "   midi.NoteOnEvent(tick=20, channel=4, data=[69, 0]),\n",
      "   midi.NoteOnEvent(tick=0, channel=4, data=[64, 0]),\n",
      "   midi.NoteOnEvent(tick=0, channel=4, data=[72, 0]),\n",
      "   midi.ControlChangeEvent(tick=0, channel=4, data=[7, 60]),\n",
      "   midi.ControlChangeEvent(tick=10, channel=4, data=[7, 59]),\n",
      "   midi.ControlChangeEvent(tick=10, channel=4, data=[7, 58]),\n",
      "   midi.ControlChangeEvent(tick=9, channel=4, data=[10, 96]),\n",
      "   midi.NoteOnEvent(tick=1, channel=4, data=[69, 127]),\n",
      "   midi.NoteOnEvent(tick=0, channel=4, data=[64, 127]),\n",
      "   midi.NoteOnEvent(tick=0, channel=4, data=[72, 127]),\n",
      "   midi.NoteOnEvent(tick=0, channel=4, data=[57, 122]),\n",
      "   midi.NoteOnEvent(tick=0, channel=4, data=[55, 125]),\n",
      "   midi.ControlChangeEvent(tick=0, channel=4, data=[7, 57]),\n",
      "   midi.ControlChangeEvent(tick=10, channel=4, data=[7, 56]),\n",
      "   midi.ControlChangeEvent(tick=10, channel=4, data=[7, 55]),\n",
      "   midi.NoteOnEvent(tick=9, channel=4, data=[55, 0]),\n",
      "   midi.NoteOnEvent(tick=0, channel=4, data=[57, 0]),\n",
      "   midi.ControlChangeEvent(tick=1, channel=4, data=[7, 54]),\n",
      "   midi.ControlChangeEvent(tick=20, channel=4, data=[7, 53]),\n",
      "   midi.NoteOnEvent(tick=10, channel=4, data=[69, 0]),\n",
      "   midi.NoteOnEvent(tick=0, channel=4, data=[64, 0]),\n",
      "   midi.NoteOnEvent(tick=0, channel=4, data=[72, 0]),\n",
      "   midi.ControlChangeEvent(tick=0, channel=4, data=[7, 52]),\n",
      "   midi.ControlChangeEvent(tick=10, channel=4, data=[7, 51]),\n",
      "   midi.ControlChangeEvent(tick=10, channel=4, data=[7, 50]),\n",
      "   midi.ControlChangeEvent(tick=8, channel=4, data=[10, 32]),\n",
      "   midi.NoteOnEvent(tick=2, channel=4, data=[69, 127]),\n",
      "   midi.NoteOnEvent(tick=0, channel=4, data=[64, 127]),\n",
      "   midi.NoteOnEvent(tick=0, channel=4, data=[72, 127]),\n",
      "   midi.NoteOnEvent(tick=0, channel=4, data=[57, 122]),\n",
      "   midi.NoteOnEvent(tick=0, channel=4, data=[55, 125]),\n",
      "   midi.ControlChangeEvent(tick=0, channel=4, data=[7, 49]),\n",
      "   midi.ControlChangeEvent(tick=10, channel=4, data=[7, 48]),\n",
      "   midi.NoteOnEvent(tick=19, channel=4, data=[55, 0]),\n",
      "   midi.NoteOnEvent(tick=0, channel=4, data=[57, 0]),\n",
      "   midi.ControlChangeEvent(tick=1, channel=4, data=[7, 47]),\n",
      "   midi.ControlChangeEvent(tick=10, channel=4, data=[7, 46]),\n",
      "   midi.ControlChangeEvent(tick=10, channel=4, data=[7, 45]),\n",
      "   midi.NoteOnEvent(tick=10, channel=4, data=[69, 0]),\n",
      "   midi.NoteOnEvent(tick=0, channel=4, data=[64, 0]),\n",
      "   midi.NoteOnEvent(tick=0, channel=4, data=[72, 0]),\n",
      "   midi.ControlChangeEvent(tick=0, channel=4, data=[7, 44]),\n",
      "   midi.ControlChangeEvent(tick=10, channel=4, data=[7, 43]),\n",
      "   midi.ControlChangeEvent(tick=10, channel=4, data=[7, 42]),\n",
      "   midi.ControlChangeEvent(tick=9, channel=4, data=[10, 96]),\n",
      "   midi.NoteOnEvent(tick=1, channel=4, data=[69, 127]),\n",
      "   midi.NoteOnEvent(tick=0, channel=4, data=[64, 127]),\n",
      "   midi.NoteOnEvent(tick=0, channel=4, data=[72, 127]),\n",
      "   midi.NoteOnEvent(tick=0, channel=4, data=[57, 122]),\n",
      "   midi.NoteOnEvent(tick=0, channel=4, data=[55, 125]),\n",
      "   midi.ControlChangeEvent(tick=0, channel=4, data=[7, 41]),\n",
      "   midi.ControlChangeEvent(tick=20, channel=4, data=[7, 40]),\n",
      "   midi.NoteOnEvent(tick=9, channel=4, data=[55, 0]),\n",
      "   midi.NoteOnEvent(tick=0, channel=4, data=[57, 0]),\n",
      "   midi.ControlChangeEvent(tick=1, channel=4, data=[7, 39]),\n",
      "   midi.ControlChangeEvent(tick=10, channel=4, data=[7, 38]),\n",
      "   midi.ControlChangeEvent(tick=10, channel=4, data=[7, 37]),\n",
      "   midi.NoteOnEvent(tick=10, channel=4, data=[69, 0]),\n",
      "   midi.NoteOnEvent(tick=0, channel=4, data=[64, 0]),\n",
      "   midi.NoteOnEvent(tick=0, channel=4, data=[72, 0]),\n",
      "   midi.ControlChangeEvent(tick=0, channel=4, data=[7, 36]),\n",
      "   midi.ControlChangeEvent(tick=10, channel=4, data=[7, 35]),\n",
      "   midi.ControlChangeEvent(tick=10, channel=4, data=[7, 34]),\n",
      "   midi.ControlChangeEvent(tick=9, channel=4, data=[10, 32]),\n",
      "   midi.NoteOnEvent(tick=1, channel=4, data=[69, 127]),\n",
      "   midi.NoteOnEvent(tick=0, channel=4, data=[64, 127]),\n",
      "   midi.NoteOnEvent(tick=0, channel=4, data=[72, 127]),\n",
      "   midi.NoteOnEvent(tick=0, channel=4, data=[57, 122]),\n",
      "   midi.NoteOnEvent(tick=0, channel=4, data=[55, 125]),\n",
      "   midi.ControlChangeEvent(tick=10, channel=4, data=[7, 33]),\n",
      "   midi.ControlChangeEvent(tick=10, channel=4, data=[7, 32]),\n",
      "   midi.NoteOnEvent(tick=9, channel=4, data=[55, 0]),\n",
      "   midi.NoteOnEvent(tick=0, channel=4, data=[57, 0]),\n",
      "   midi.ControlChangeEvent(tick=1, channel=4, data=[7, 31]),\n",
      "   midi.ControlChangeEvent(tick=10, channel=4, data=[7, 30]),\n",
      "   midi.ControlChangeEvent(tick=10, channel=4, data=[7, 29]),\n",
      "   midi.NoteOnEvent(tick=10, channel=4, data=[69, 0]),\n",
      "   midi.NoteOnEvent(tick=0, channel=4, data=[64, 0]),\n",
      "   midi.NoteOnEvent(tick=0, channel=4, data=[72, 0]),\n",
      "   midi.ControlChangeEvent(tick=0, channel=4, data=[7, 28]),\n",
      "   midi.ControlChangeEvent(tick=10, channel=4, data=[7, 27]),\n",
      "   midi.ControlChangeEvent(tick=20, channel=4, data=[10, 96]),\n",
      "   midi.NoteOnEvent(tick=0, channel=4, data=[69, 127]),\n",
      "   midi.NoteOnEvent(tick=0, channel=4, data=[64, 127]),\n",
      "   midi.NoteOnEvent(tick=0, channel=4, data=[72, 127]),\n",
      "   midi.NoteOnEvent(tick=0, channel=4, data=[57, 122]),\n",
      "   midi.NoteOnEvent(tick=0, channel=4, data=[55, 125]),\n",
      "   midi.ControlChangeEvent(tick=0, channel=4, data=[7, 26]),\n",
      "   midi.ControlChangeEvent(tick=10, channel=4, data=[7, 25]),\n",
      "   midi.ControlChangeEvent(tick=10, channel=4, data=[7, 24]),\n",
      "   midi.NoteOnEvent(tick=9, channel=4, data=[55, 0]),\n",
      "   midi.NoteOnEvent(tick=0, channel=4, data=[57, 0]),\n",
      "   midi.ControlChangeEvent(tick=1, channel=4, data=[7, 23]),\n",
      "   midi.ControlChangeEvent(tick=10, channel=4, data=[7, 22]),\n",
      "   midi.ControlChangeEvent(tick=10, channel=4, data=[7, 21]),\n",
      "   midi.NoteOnEvent(tick=10, channel=4, data=[69, 0]),\n",
      "   midi.NoteOnEvent(tick=0, channel=4, data=[64, 0]),\n",
      "   midi.NoteOnEvent(tick=0, channel=4, data=[72, 0]),\n",
      "   midi.ControlChangeEvent(tick=10, channel=4, data=[7, 20]),\n",
      "   midi.ControlChangeEvent(tick=10, channel=4, data=[7, 19]),\n",
      "   midi.ControlChangeEvent(tick=10, channel=4, data=[10, 32]),\n",
      "   midi.NoteOnEvent(tick=0, channel=4, data=[69, 127]),\n",
      "   midi.NoteOnEvent(tick=0, channel=4, data=[64, 127]),\n",
      "   midi.NoteOnEvent(tick=0, channel=4, data=[72, 127]),\n",
      "   midi.NoteOnEvent(tick=0, channel=4, data=[57, 122]),\n",
      "   midi.NoteOnEvent(tick=0, channel=4, data=[55, 125]),\n",
      "   midi.ControlChangeEvent(tick=0, channel=4, data=[7, 18]),\n",
      "   midi.ControlChangeEvent(tick=10, channel=4, data=[7, 17]),\n",
      "   midi.ControlChangeEvent(tick=10, channel=4, data=[7, 16]),\n",
      "   midi.NoteOnEvent(tick=9, channel=4, data=[55, 0]),\n",
      "   midi.NoteOnEvent(tick=0, channel=4, data=[57, 0]),\n",
      "   midi.ControlChangeEvent(tick=1, channel=4, data=[7, 15]),\n",
      "   midi.ControlChangeEvent(tick=10, channel=4, data=[7, 14]),\n",
      "   midi.NoteOnEvent(tick=20, channel=4, data=[69, 0]),\n",
      "   midi.NoteOnEvent(tick=0, channel=4, data=[64, 0]),\n",
      "   midi.NoteOnEvent(tick=0, channel=4, data=[72, 0]),\n",
      "   midi.ControlChangeEvent(tick=0, channel=4, data=[7, 13]),\n",
      "   midi.ControlChangeEvent(tick=10, channel=4, data=[7, 12]),\n",
      "   midi.ControlChangeEvent(tick=10, channel=4, data=[7, 11]),\n",
      "   midi.ControlChangeEvent(tick=10, channel=4, data=[7, 10]),\n",
      "   midi.ControlChangeEvent(tick=10, channel=4, data=[7, 9]),\n",
      "   midi.ControlChangeEvent(tick=10, channel=4, data=[7, 8]),\n",
      "   midi.ControlChangeEvent(tick=10, channel=4, data=[7, 7]),\n",
      "   midi.ControlChangeEvent(tick=20, channel=4, data=[7, 6]),\n",
      "   midi.ControlChangeEvent(tick=10, channel=4, data=[7, 5]),\n",
      "   midi.ControlChangeEvent(tick=10, channel=4, data=[7, 4]),\n",
      "   midi.ControlChangeEvent(tick=10, channel=4, data=[7, 3]),\n",
      "   midi.ControlChangeEvent(tick=10, channel=4, data=[7, 2]),\n",
      "   midi.ControlChangeEvent(tick=10, channel=4, data=[7, 1]),\n",
      "   midi.ControlChangeEvent(tick=10, channel=4, data=[7, 0]),\n",
      "   midi.ControlChangeEvent(tick=35, channel=4, data=[10, 96]),\n",
      "   midi.ControlChangeEvent(tick=5, channel=4, data=[10, 32]),\n",
      "   midi.ControlChangeEvent(tick=0, channel=4, data=[7, 79]),\n",
      "   midi.NoteOnEvent(tick=1, channel=4, data=[55, 125]),\n",
      "   midi.NoteOnEvent(tick=0, channel=4, data=[57, 122]),\n",
      "   midi.NoteOnEvent(tick=0, channel=4, data=[72, 127]),\n",
      "   midi.NoteOnEvent(tick=0, channel=4, data=[64, 127]),\n",
      "   midi.NoteOnEvent(tick=0, channel=4, data=[69, 127]),\n",
      "   midi.ControlChangeEvent(tick=19, channel=4, data=[7, 78]),\n",
      "   midi.NoteOnEvent(tick=10, channel=4, data=[57, 0]),\n",
      "   midi.NoteOnEvent(tick=0, channel=4, data=[55, 0]),\n",
      "   midi.ControlChangeEvent(tick=0, channel=4, data=[7, 77]),\n",
      "   midi.ControlChangeEvent(tick=10, channel=4, data=[7, 76]),\n",
      "   midi.ControlChangeEvent(tick=10, channel=4, data=[7, 75]),\n",
      "   midi.ControlChangeEvent(tick=10, channel=4, data=[7, 74]),\n",
      "   midi.NoteOnEvent(tick=1, channel=4, data=[64, 0]),\n",
      "   midi.NoteOnEvent(tick=0, channel=4, data=[72, 0]),\n",
      "   midi.NoteOnEvent(tick=0, channel=4, data=[69, 0]),\n",
      "   midi.ControlChangeEvent(tick=9, channel=4, data=[7, 73]),\n",
      "   midi.ControlChangeEvent(tick=19, channel=4, data=[10, 96]),\n",
      "   midi.NoteOnEvent(tick=1, channel=4, data=[69, 127]),\n",
      "   midi.NoteOnEvent(tick=0, channel=4, data=[64, 127]),\n",
      "   midi.NoteOnEvent(tick=0, channel=4, data=[72, 127]),\n",
      "   midi.NoteOnEvent(tick=0, channel=4, data=[57, 122]),\n",
      "   midi.NoteOnEvent(tick=0, channel=4, data=[55, 125]),\n",
      "   midi.ControlChangeEvent(tick=0, channel=4, data=[7, 72]),\n",
      "   midi.ControlChangeEvent(tick=10, channel=4, data=[7, 71]),\n",
      "   midi.ControlChangeEvent(tick=10, channel=4, data=[7, 70]),\n",
      "   midi.NoteOnEvent(tick=9, channel=4, data=[55, 0]),\n",
      "   midi.NoteOnEvent(tick=0, channel=4, data=[57, 0]),\n",
      "   midi.ControlChangeEvent(tick=1, channel=4, data=[7, 69]),\n",
      "   midi.ControlChangeEvent(tick=10, channel=4, data=[7, 68]),\n",
      "   midi.ControlChangeEvent(tick=10, channel=4, data=[7, 67]),\n",
      "   midi.NoteOnEvent(tick=10, channel=4, data=[69, 0]),\n",
      "   midi.NoteOnEvent(tick=0, channel=4, data=[64, 0]),\n",
      "   midi.NoteOnEvent(tick=0, channel=4, data=[72, 0]),\n",
      "   midi.ControlChangeEvent(tick=10, channel=4, data=[7, 66]),\n",
      "   midi.ControlChangeEvent(tick=10, channel=4, data=[7, 65]),\n",
      "   midi.ControlChangeEvent(tick=9, channel=4, data=[10, 32]),\n",
      "   midi.NoteOnEvent(tick=1, channel=4, data=[69, 127]),\n",
      "   midi.NoteOnEvent(tick=0, channel=4, data=[64, 127]),\n",
      "   midi.NoteOnEvent(tick=0, channel=4, data=[72, 127]),\n",
      "   midi.NoteOnEvent(tick=0, channel=4, data=[57, 122]),\n",
      "   midi.NoteOnEvent(tick=0, channel=4, data=[55, 125]),\n",
      "   midi.ControlChangeEvent(tick=0, channel=4, data=[7, 64]),\n",
      "   midi.ControlChangeEvent(tick=10, channel=4, data=[7, 63]),\n",
      "   midi.ControlChangeEvent(tick=10, channel=4, data=[7, 62]),\n",
      "   midi.NoteOnEvent(tick=9, channel=4, data=[55, 0]),\n",
      "   midi.NoteOnEvent(tick=0, channel=4, data=[57, 0]),\n",
      "   midi.ControlChangeEvent(tick=1, channel=4, data=[7, 61]),\n",
      "   midi.ControlChangeEvent(tick=20, channel=4, data=[7, 60]),\n",
      "   midi.NoteOnEvent(tick=10, channel=4, data=[69, 0]),\n",
      "   midi.NoteOnEvent(tick=0, channel=4, data=[64, 0]),\n",
      "   midi.NoteOnEvent(tick=0, channel=4, data=[72, 0]),\n",
      "   midi.ControlChangeEvent(tick=0, channel=4, data=[7, 59]),\n",
      "   midi.ControlChangeEvent(tick=10, channel=4, data=[7, 58]),\n",
      "   midi.ControlChangeEvent(tick=10, channel=4, data=[7, 57]),\n",
      "   midi.ControlChangeEvent(tick=9, channel=4, data=[10, 96]),\n",
      "   midi.NoteOnEvent(tick=1, channel=4, data=[69, 127]),\n",
      "   midi.NoteOnEvent(tick=0, channel=4, data=[64, 127]),\n",
      "   midi.NoteOnEvent(tick=0, channel=4, data=[72, 127]),\n",
      "   midi.NoteOnEvent(tick=0, channel=4, data=[57, 122]),\n",
      "   midi.NoteOnEvent(tick=0, channel=4, data=[55, 125]),\n",
      "   midi.ControlChangeEvent(tick=0, channel=4, data=[7, 56]),\n",
      "   midi.ControlChangeEvent(tick=10, channel=4, data=[7, 55]),\n",
      "   midi.NoteOnEvent(tick=19, channel=4, data=[55, 0]),\n",
      "   midi.NoteOnEvent(tick=0, channel=4, data=[57, 0]),\n",
      "   midi.ControlChangeEvent(tick=1, channel=4, data=[7, 54]),\n",
      "   midi.ControlChangeEvent(tick=10, channel=4, data=[7, 53]),\n",
      "   midi.ControlChangeEvent(tick=10, channel=4, data=[7, 52]),\n",
      "   midi.NoteOnEvent(tick=10, channel=4, data=[69, 0]),\n",
      "   midi.NoteOnEvent(tick=0, channel=4, data=[64, 0]),\n",
      "   midi.NoteOnEvent(tick=0, channel=4, data=[72, 0]),\n",
      "   midi.ControlChangeEvent(tick=0, channel=4, data=[7, 51]),\n",
      "   midi.ControlChangeEvent(tick=10, channel=4, data=[7, 50]),\n",
      "   midi.ControlChangeEvent(tick=10, channel=4, data=[7, 49]),\n",
      "   midi.ControlChangeEvent(tick=8, channel=4, data=[10, 32]),\n",
      "   midi.NoteOnEvent(tick=2, channel=4, data=[69, 127]),\n",
      "   midi.NoteOnEvent(tick=0, channel=4, data=[64, 127]),\n",
      "   midi.NoteOnEvent(tick=0, channel=4, data=[72, 127]),\n",
      "   midi.NoteOnEvent(tick=0, channel=4, data=[57, 122]),\n",
      "   midi.NoteOnEvent(tick=0, channel=4, data=[55, 125]),\n",
      "   midi.ControlChangeEvent(tick=10, channel=4, data=[7, 48]),\n",
      "   midi.ControlChangeEvent(tick=10, channel=4, data=[7, 47]),\n",
      "   midi.NoteOnEvent(tick=9, channel=4, data=[55, 0]),\n",
      "   midi.NoteOnEvent(tick=0, channel=4, data=[57, 0]),\n",
      "   midi.ControlChangeEvent(tick=1, channel=4, data=[7, 46]),\n",
      "   midi.ControlChangeEvent(tick=10, channel=4, data=[7, 45]),\n",
      "   midi.ControlChangeEvent(tick=10, channel=4, data=[7, 44]),\n",
      "   midi.NoteOnEvent(tick=10, channel=4, data=[69, 0]),\n",
      "   midi.NoteOnEvent(tick=0, channel=4, data=[64, 0]),\n",
      "   midi.NoteOnEvent(tick=0, channel=4, data=[72, 0]),\n",
      "   midi.ControlChangeEvent(tick=0, channel=4, data=[7, 43]),\n",
      "   midi.ControlChangeEvent(tick=20, channel=4, data=[7, 42]),\n",
      "   midi.ControlChangeEvent(tick=9, channel=4, data=[10, 96]),\n",
      "   midi.NoteOnEvent(tick=1, channel=4, data=[69, 127]),\n",
      "   midi.NoteOnEvent(tick=0, channel=4, data=[64, 127]),\n",
      "   midi.NoteOnEvent(tick=0, channel=4, data=[72, 127]),\n",
      "   midi.NoteOnEvent(tick=0, channel=4, data=[57, 122]),\n",
      "   midi.NoteOnEvent(tick=0, channel=4, data=[55, 125]),\n",
      "   midi.ControlChangeEvent(tick=0, channel=4, data=[7, 41]),\n",
      "   midi.ControlChangeEvent(tick=10, channel=4, data=[7, 40]),\n",
      "   midi.ControlChangeEvent(tick=10, channel=4, data=[7, 39]),\n",
      "   midi.NoteOnEvent(tick=9, channel=4, data=[55, 0]),\n",
      "   midi.NoteOnEvent(tick=0, channel=4, data=[57, 0]),\n",
      "   midi.ControlChangeEvent(tick=1, channel=4, data=[7, 38]),\n",
      "   midi.ControlChangeEvent(tick=10, channel=4, data=[7, 37]),\n",
      "   midi.NoteOnEvent(tick=20, channel=4, data=[69, 0]),\n",
      "   midi.NoteOnEvent(tick=0, channel=4, data=[64, 0]),\n",
      "   midi.NoteOnEvent(tick=0, channel=4, data=[72, 0]),\n",
      "   midi.ControlChangeEvent(tick=0, channel=4, data=[7, 36]),\n",
      "   midi.ControlChangeEvent(tick=10, channel=4, data=[7, 35]),\n",
      "   midi.ControlChangeEvent(tick=10, channel=4, data=[7, 34]),\n",
      "   midi.ControlChangeEvent(tick=9, channel=4, data=[10, 32]),\n",
      "   midi.NoteOnEvent(tick=1, channel=4, data=[69, 127]),\n",
      "   midi.NoteOnEvent(tick=0, channel=4, data=[64, 127]),\n",
      "   midi.NoteOnEvent(tick=0, channel=4, data=[72, 127]),\n",
      "   midi.NoteOnEvent(tick=0, channel=4, data=[57, 122]),\n",
      "   midi.NoteOnEvent(tick=0, channel=4, data=[55, 125]),\n",
      "   midi.ControlChangeEvent(tick=0, channel=4, data=[7, 33]),\n",
      "   midi.ControlChangeEvent(tick=10, channel=4, data=[7, 32]),\n",
      "   midi.ControlChangeEvent(tick=10, channel=4, data=[7, 31]),\n",
      "   midi.NoteOnEvent(tick=9, channel=4, data=[55, 0]),\n",
      "   midi.NoteOnEvent(tick=0, channel=4, data=[57, 0]),\n",
      "   midi.ControlChangeEvent(tick=11, channel=4, data=[7, 30]),\n",
      "   midi.ControlChangeEvent(tick=10, channel=4, data=[7, 29]),\n",
      "   midi.NoteOnEvent(tick=10, channel=4, data=[69, 0]),\n",
      "   midi.NoteOnEvent(tick=0, channel=4, data=[64, 0]),\n",
      "   midi.NoteOnEvent(tick=0, channel=4, data=[72, 0]),\n",
      "   midi.ControlChangeEvent(tick=0, channel=4, data=[7, 28]),\n",
      "   midi.ControlChangeEvent(tick=10, channel=4, data=[7, 27]),\n",
      "   midi.ControlChangeEvent(tick=10, channel=4, data=[7, 26]),\n",
      "   midi.ControlChangeEvent(tick=10, channel=4, data=[10, 96]),\n",
      "   midi.NoteOnEvent(tick=0, channel=4, data=[69, 127]),\n",
      "   midi.NoteOnEvent(tick=0, channel=4, data=[64, 127]),\n",
      "   midi.NoteOnEvent(tick=0, channel=4, data=[72, 127]),\n",
      "   midi.NoteOnEvent(tick=0, channel=4, data=[57, 122]),\n",
      "   midi.NoteOnEvent(tick=0, channel=4, data=[55, 125]),\n",
      "   midi.ControlChangeEvent(tick=0, channel=4, data=[7, 25]),\n",
      "   midi.ControlChangeEvent(tick=20, channel=4, data=[7, 24]),\n",
      "   midi.NoteOnEvent(tick=9, channel=4, data=[55, 0]),\n",
      "   midi.NoteOnEvent(tick=0, channel=4, data=[57, 0]),\n",
      "   midi.ControlChangeEvent(tick=1, channel=4, data=[7, 23]),\n",
      "   midi.ControlChangeEvent(tick=10, channel=4, data=[7, 22]),\n",
      "   midi.ControlChangeEvent(tick=10, channel=4, data=[7, 21]),\n",
      "   midi.NoteOnEvent(tick=10, channel=4, data=[69, 0]),\n",
      "   midi.NoteOnEvent(tick=0, channel=4, data=[64, 0]),\n",
      "   midi.NoteOnEvent(tick=0, channel=4, data=[72, 0]),\n",
      "   midi.ControlChangeEvent(tick=0, channel=4, data=[7, 20]),\n",
      "   midi.ControlChangeEvent(tick=10, channel=4, data=[7, 19]),\n",
      "   midi.ControlChangeEvent(tick=20, channel=4, data=[10, 32]),\n",
      "   midi.NoteOnEvent(tick=0, channel=4, data=[69, 127]),\n",
      "   midi.NoteOnEvent(tick=0, channel=4, data=[64, 127]),\n",
      "   midi.NoteOnEvent(tick=0, channel=4, data=[72, 127]),\n",
      "   midi.NoteOnEvent(tick=0, channel=4, data=[57, 122]),\n",
      "   midi.NoteOnEvent(tick=0, channel=4, data=[55, 125]),\n",
      "   midi.ControlChangeEvent(tick=0, channel=4, data=[7, 18]),\n",
      "   midi.ControlChangeEvent(tick=10, channel=4, data=[7, 17]),\n",
      "   midi.ControlChangeEvent(tick=10, channel=4, data=[7, 16]),\n",
      "   midi.NoteOnEvent(tick=9, channel=4, data=[55, 0]),\n",
      "   midi.NoteOnEvent(tick=0, channel=4, data=[57, 0]),\n",
      "   midi.ControlChangeEvent(tick=1, channel=4, data=[7, 15]),\n",
      "   midi.ControlChangeEvent(tick=10, channel=4, data=[7, 14]),\n",
      "   midi.ControlChangeEvent(tick=10, channel=4, data=[7, 13]),\n",
      "   midi.NoteOnEvent(tick=10, channel=4, data=[69, 0]),\n",
      "   midi.NoteOnEvent(tick=0, channel=4, data=[64, 0]),\n",
      "   midi.NoteOnEvent(tick=0, channel=4, data=[72, 0]),\n",
      "   midi.ControlChangeEvent(tick=10, channel=4, data=[7, 12]),\n",
      "   midi.ControlChangeEvent(tick=10, channel=4, data=[7, 11]),\n",
      "   midi.ControlChangeEvent(tick=10, channel=4, data=[7, 10]),\n",
      "   midi.ControlChangeEvent(tick=10, channel=4, data=[7, 9]),\n",
      "   midi.ControlChangeEvent(tick=10, channel=4, data=[7, 8]),\n",
      "   midi.ControlChangeEvent(tick=10, channel=4, data=[7, 7]),\n",
      "   midi.ControlChangeEvent(tick=20, channel=4, data=[7, 6]),\n",
      "   midi.ControlChangeEvent(tick=10, channel=4, data=[7, 5]),\n",
      "   midi.ControlChangeEvent(tick=10, channel=4, data=[7, 4]),\n",
      "   midi.ControlChangeEvent(tick=10, channel=4, data=[7, 3]),\n",
      "   midi.ControlChangeEvent(tick=10, channel=4, data=[7, 2]),\n",
      "   midi.ControlChangeEvent(tick=10, channel=4, data=[7, 1]),\n",
      "   midi.ControlChangeEvent(tick=10, channel=4, data=[7, 0]),\n",
      "   midi.ControlChangeEvent(tick=35, channel=4, data=[10, 96]),\n",
      "   midi.ControlChangeEvent(tick=5, channel=4, data=[10, 96]),\n",
      "   midi.NoteOnEvent(tick=0, channel=4, data=[55, 127]),\n",
      "   midi.NoteOnEvent(tick=0, channel=4, data=[62, 127]),\n",
      "   midi.NoteOnEvent(tick=0, channel=4, data=[67, 127]),\n",
      "   midi.NoteOnEvent(tick=0, channel=4, data=[71, 127]),\n",
      "   midi.ControlChangeEvent(tick=0, channel=4, data=[7, 79]),\n",
      "   midi.ControlChangeEvent(tick=20, channel=4, data=[7, 78]),\n",
      "   midi.ControlChangeEvent(tick=10, channel=4, data=[7, 77]),\n",
      "   midi.ControlChangeEvent(tick=10, channel=4, data=[7, 76]),\n",
      "   midi.ControlChangeEvent(tick=10, channel=4, data=[7, 75]),\n",
      "   midi.NoteOnEvent(tick=10, channel=4, data=[71, 0]),\n",
      "   midi.NoteOnEvent(tick=0, channel=4, data=[55, 0]),\n",
      "   midi.NoteOnEvent(tick=0, channel=4, data=[62, 0]),\n",
      "   midi.NoteOnEvent(tick=0, channel=4, data=[67, 0]),\n",
      "   midi.ControlChangeEvent(tick=0, channel=4, data=[7, 74]),\n",
      "   midi.ControlChangeEvent(tick=20, channel=4, data=[7, 73]),\n",
      "   midi.ControlChangeEvent(tick=8, channel=4, data=[10, 32]),\n",
      "   midi.NoteOnEvent(tick=2, channel=4, data=[55, 127]),\n",
      "   midi.NoteOnEvent(tick=0, channel=4, data=[62, 127]),\n",
      "   midi.NoteOnEvent(tick=0, channel=4, data=[67, 127]),\n",
      "   midi.NoteOnEvent(tick=0, channel=4, data=[71, 127]),\n",
      "   midi.ControlChangeEvent(tick=0, channel=4, data=[7, 72]),\n",
      "   midi.ControlChangeEvent(tick=10, channel=4, data=[7, 71]),\n",
      "   midi.ControlChangeEvent(tick=10, channel=4, data=[7, 70]),\n",
      "   midi.ControlChangeEvent(tick=10, channel=4, data=[7, 69]),\n",
      "   midi.ControlChangeEvent(tick=20, channel=4, data=[7, 68]),\n",
      "   midi.NoteOnEvent(tick=10, channel=4, data=[71, 0]),\n",
      "   midi.NoteOnEvent(tick=0, channel=4, data=[55, 0]),\n",
      "   midi.NoteOnEvent(tick=0, channel=4, data=[62, 0]),\n",
      "   midi.NoteOnEvent(tick=0, channel=4, data=[67, 0]),\n",
      "   midi.ControlChangeEvent(tick=0, channel=4, data=[7, 67]),\n",
      "   midi.ControlChangeEvent(tick=10, channel=4, data=[7, 66]),\n",
      "   midi.ControlChangeEvent(tick=10, channel=4, data=[7, 65]),\n",
      "   midi.ControlChangeEvent(tick=9, channel=4, data=[10, 96]),\n",
      "   midi.NoteOnEvent(tick=1, channel=4, data=[55, 127]),\n",
      "   midi.NoteOnEvent(tick=0, channel=4, data=[62, 127]),\n",
      "   midi.NoteOnEvent(tick=0, channel=4, data=[67, 127]),\n",
      "   midi.NoteOnEvent(tick=0, channel=4, data=[71, 127]),\n",
      "   midi.ControlChangeEvent(tick=0, channel=4, data=[7, 64]),\n",
      "   midi.ControlChangeEvent(tick=20, channel=4, data=[7, 63]),\n",
      "   midi.ControlChangeEvent(tick=10, channel=4, data=[7, 62]),\n",
      "   midi.ControlChangeEvent(tick=10, channel=4, data=[7, 61]),\n",
      "   midi.ControlChangeEvent(tick=10, channel=4, data=[7, 60]),\n",
      "   midi.NoteOnEvent(tick=10, channel=4, data=[71, 0]),\n",
      "   midi.NoteOnEvent(tick=0, channel=4, data=[55, 0]),\n",
      "   midi.NoteOnEvent(tick=0, channel=4, data=[62, 0]),\n",
      "   midi.NoteOnEvent(tick=0, channel=4, data=[67, 0]),\n",
      "   midi.ControlChangeEvent(tick=0, channel=4, data=[7, 59]),\n",
      "   midi.ControlChangeEvent(tick=10, channel=4, data=[7, 58]),\n",
      "   midi.ControlChangeEvent(tick=19, channel=4, data=[10, 32]),\n",
      "   midi.NoteOnEvent(tick=1, channel=4, data=[55, 127]),\n",
      "   midi.NoteOnEvent(tick=0, channel=4, data=[62, 127]),\n",
      "   midi.NoteOnEvent(tick=0, channel=4, data=[67, 127]),\n",
      "   midi.NoteOnEvent(tick=0, channel=4, data=[71, 127]),\n",
      "   midi.ControlChangeEvent(tick=0, channel=4, data=[7, 57]),\n",
      "   midi.ControlChangeEvent(tick=10, channel=4, data=[7, 56]),\n",
      "   midi.ControlChangeEvent(tick=10, channel=4, data=[7, 55]),\n",
      "   midi.ControlChangeEvent(tick=10, channel=4, data=[7, 54]),\n",
      "   midi.ControlChangeEvent(tick=10, channel=4, data=[7, 53]),\n",
      "   midi.NoteOnEvent(tick=20, channel=4, data=[71, 0]),\n",
      "   midi.NoteOnEvent(tick=0, channel=4, data=[55, 0]),\n",
      "   midi.NoteOnEvent(tick=0, channel=4, data=[62, 0]),\n",
      "   midi.NoteOnEvent(tick=0, channel=4, data=[67, 0]),\n",
      "   midi.ControlChangeEvent(tick=0, channel=4, data=[7, 52]),\n",
      "   midi.ControlChangeEvent(tick=10, channel=4, data=[7, 51]),\n",
      "   midi.ControlChangeEvent(tick=10, channel=4, data=[7, 50]),\n",
      "   midi.ControlChangeEvent(tick=9, channel=4, data=[10, 96]),\n",
      "   midi.NoteOnEvent(tick=1, channel=4, data=[55, 127]),\n",
      "   midi.NoteOnEvent(tick=0, channel=4, data=[62, 127]),\n",
      "   midi.NoteOnEvent(tick=0, channel=4, data=[67, 127]),\n",
      "   midi.NoteOnEvent(tick=0, channel=4, data=[71, 127]),\n",
      "   midi.ControlChangeEvent(tick=0, channel=4, data=[7, 49]),\n",
      "   midi.ControlChangeEvent(tick=10, channel=4, data=[7, 48]),\n",
      "   midi.ControlChangeEvent(tick=20, channel=4, data=[7, 47]),\n",
      "   midi.ControlChangeEvent(tick=10, channel=4, data=[7, 46]),\n",
      "   midi.ControlChangeEvent(tick=10, channel=4, data=[7, 45]),\n",
      "   midi.NoteOnEvent(tick=10, channel=4, data=[71, 0]),\n",
      "   midi.NoteOnEvent(tick=0, channel=4, data=[55, 0]),\n",
      "   midi.NoteOnEvent(tick=0, channel=4, data=[62, 0]),\n",
      "   midi.NoteOnEvent(tick=0, channel=4, data=[67, 0]),\n",
      "   midi.ControlChangeEvent(tick=0, channel=4, data=[7, 44]),\n",
      "   midi.ControlChangeEvent(tick=10, channel=4, data=[7, 43]),\n",
      "   midi.ControlChangeEvent(tick=18, channel=4, data=[10, 32]),\n",
      "   midi.NoteOnEvent(tick=2, channel=4, data=[55, 127]),\n",
      "   midi.NoteOnEvent(tick=0, channel=4, data=[62, 127]),\n",
      "   midi.NoteOnEvent(tick=0, channel=4, data=[67, 127]),\n",
      "   midi.NoteOnEvent(tick=0, channel=4, data=[71, 127]),\n",
      "   midi.ControlChangeEvent(tick=0, channel=4, data=[7, 42]),\n",
      "   midi.ControlChangeEvent(tick=10, channel=4, data=[7, 41]),\n",
      "   midi.ControlChangeEvent(tick=10, channel=4, data=[7, 40]),\n",
      "   midi.ControlChangeEvent(tick=10, channel=4, data=[7, 39]),\n",
      "   midi.ControlChangeEvent(tick=10, channel=4, data=[7, 38]),\n",
      "   midi.ControlChangeEvent(tick=10, channel=4, data=[7, 37]),\n",
      "   midi.NoteOnEvent(tick=10, channel=4, data=[71, 0]),\n",
      "   midi.NoteOnEvent(tick=0, channel=4, data=[55, 0]),\n",
      "   midi.NoteOnEvent(tick=0, channel=4, data=[62, 0]),\n",
      "   midi.NoteOnEvent(tick=0, channel=4, data=[67, 0]),\n",
      "   midi.ControlChangeEvent(tick=10, channel=4, data=[7, 36]),\n",
      "   midi.ControlChangeEvent(tick=10, channel=4, data=[7, 35]),\n",
      "   midi.ControlChangeEvent(tick=10, channel=4, data=[7, 34]),\n",
      "   midi.ControlChangeEvent(tick=10, channel=4, data=[7, 33]),\n",
      "   midi.ControlChangeEvent(tick=10, channel=4, data=[7, 32]),\n",
      "   midi.ControlChangeEvent(tick=20, channel=4, data=[7, 31]),\n",
      "   midi.ControlChangeEvent(tick=10, channel=4, data=[7, 30]),\n",
      "   midi.ControlChangeEvent(tick=10, channel=4, data=[7, 29]),\n",
      "   midi.ControlChangeEvent(tick=10, channel=4, data=[7, 28]),\n",
      "   midi.ControlChangeEvent(tick=10, channel=4, data=[7, 27]),\n",
      "   midi.ControlChangeEvent(tick=20, channel=4, data=[7, 26]),\n",
      "   midi.ControlChangeEvent(tick=10, channel=4, data=[7, 25]),\n",
      "   midi.ControlChangeEvent(tick=10, channel=4, data=[7, 24]),\n",
      "   midi.ControlChangeEvent(tick=10, channel=4, data=[7, 23]),\n",
      "   midi.ControlChangeEvent(tick=10, channel=4, data=[7, 22]),\n",
      "   midi.ControlChangeEvent(tick=20, channel=4, data=[7, 21]),\n",
      "   midi.ControlChangeEvent(tick=10, channel=4, data=[7, 20]),\n",
      "   midi.ControlChangeEvent(tick=10, channel=4, data=[7, 19]),\n",
      "   midi.ControlChangeEvent(tick=10, channel=4, data=[7, 18]),\n",
      "   midi.ControlChangeEvent(tick=10, channel=4, data=[7, 17]),\n",
      "   midi.ControlChangeEvent(tick=10, channel=4, data=[7, 16]),\n",
      "   midi.ControlChangeEvent(tick=20, channel=4, data=[7, 15]),\n",
      "   midi.ControlChangeEvent(tick=10, channel=4, data=[7, 14]),\n",
      "   midi.ControlChangeEvent(tick=10, channel=4, data=[7, 13]),\n",
      "   midi.ControlChangeEvent(tick=10, channel=4, data=[7, 12]),\n",
      "   midi.ControlChangeEvent(tick=10, channel=4, data=[7, 11]),\n",
      "   midi.ControlChangeEvent(tick=20, channel=4, data=[7, 10]),\n",
      "   midi.ControlChangeEvent(tick=10, channel=4, data=[7, 9]),\n",
      "   midi.ControlChangeEvent(tick=10, channel=4, data=[7, 8]),\n",
      "   midi.ControlChangeEvent(tick=10, channel=4, data=[7, 7]),\n",
      "   midi.ControlChangeEvent(tick=10, channel=4, data=[7, 6]),\n",
      "   midi.ControlChangeEvent(tick=20, channel=4, data=[7, 5]),\n",
      "   midi.ControlChangeEvent(tick=10, channel=4, data=[7, 4]),\n",
      "   midi.ControlChangeEvent(tick=10, channel=4, data=[7, 3]),\n",
      "   midi.ControlChangeEvent(tick=10, channel=4, data=[7, 2]),\n",
      "   midi.ControlChangeEvent(tick=10, channel=4, data=[7, 1]),\n",
      "   midi.ControlChangeEvent(tick=10, channel=4, data=[7, 0]),\n",
      "   midi.ControlChangeEvent(tick=10, channel=4, data=[7, 81]),\n",
      "   midi.ControlChangeEvent(tick=10, channel=4, data=[10, 96]),\n",
      "   midi.NoteOnEvent(tick=0, channel=4, data=[55, 127]),\n",
      "   midi.NoteOnEvent(tick=0, channel=4, data=[62, 127]),\n",
      "   midi.NoteOnEvent(tick=0, channel=4, data=[67, 127]),\n",
      "   midi.NoteOnEvent(tick=0, channel=4, data=[71, 127]),\n",
      "   midi.ControlChangeEvent(tick=10, channel=4, data=[7, 80]),\n",
      "   midi.ControlChangeEvent(tick=10, channel=4, data=[7, 79]),\n",
      "   midi.ControlChangeEvent(tick=10, channel=4, data=[7, 78]),\n",
      "   midi.ControlChangeEvent(tick=10, channel=4, data=[7, 77]),\n",
      "   midi.ControlChangeEvent(tick=10, channel=4, data=[7, 76]),\n",
      "   midi.NoteOnEvent(tick=10, channel=4, data=[71, 0]),\n",
      "   midi.NoteOnEvent(tick=0, channel=4, data=[55, 0]),\n",
      "   midi.NoteOnEvent(tick=0, channel=4, data=[62, 0]),\n",
      "   midi.NoteOnEvent(tick=0, channel=4, data=[67, 0]),\n",
      "   midi.ControlChangeEvent(tick=0, channel=4, data=[7, 75]),\n",
      "   midi.ControlChangeEvent(tick=10, channel=4, data=[7, 74]),\n",
      "   midi.ControlChangeEvent(tick=18, channel=4, data=[10, 32]),\n",
      "   midi.NoteOnEvent(tick=2, channel=4, data=[55, 127]),\n",
      "   midi.NoteOnEvent(tick=0, channel=4, data=[62, 127]),\n",
      "   midi.NoteOnEvent(tick=0, channel=4, data=[67, 127]),\n",
      "   midi.NoteOnEvent(tick=0, channel=4, data=[71, 127]),\n",
      "   midi.ControlChangeEvent(tick=0, channel=4, data=[7, 73]),\n",
      "   midi.ControlChangeEvent(tick=10, channel=4, data=[7, 72]),\n",
      "   midi.ControlChangeEvent(tick=10, channel=4, data=[7, 71]),\n",
      "   midi.ControlChangeEvent(tick=10, channel=4, data=[7, 70]),\n",
      "   midi.ControlChangeEvent(tick=10, channel=4, data=[7, 69]),\n",
      "   midi.ControlChangeEvent(tick=10, channel=4, data=[7, 68]),\n",
      "   midi.NoteOnEvent(tick=10, channel=4, data=[71, 0]),\n",
      "   midi.NoteOnEvent(tick=0, channel=4, data=[55, 0]),\n",
      "   midi.NoteOnEvent(tick=0, channel=4, data=[62, 0]),\n",
      "   midi.NoteOnEvent(tick=0, channel=4, data=[67, 0]),\n",
      "   midi.ControlChangeEvent(tick=0, channel=4, data=[7, 67]),\n",
      "   midi.ControlChangeEvent(tick=20, channel=4, data=[7, 66]),\n",
      "   midi.ControlChangeEvent(tick=9, channel=4, data=[10, 96]),\n",
      "   midi.NoteOnEvent(tick=1, channel=4, data=[55, 127]),\n",
      "   midi.NoteOnEvent(tick=0, channel=4, data=[62, 127]),\n",
      "   midi.NoteOnEvent(tick=0, channel=4, data=[67, 127]),\n",
      "   midi.NoteOnEvent(tick=0, channel=4, data=[71, 127]),\n",
      "   midi.ControlChangeEvent(tick=0, channel=4, data=[7, 65]),\n",
      "   midi.ControlChangeEvent(tick=10, channel=4, data=[7, 64]),\n",
      "   midi.ControlChangeEvent(tick=10, channel=4, data=[7, 63]),\n",
      "   midi.ControlChangeEvent(tick=10, channel=4, data=[7, 62]),\n",
      "   midi.ControlChangeEvent(tick=10, channel=4, data=[7, 61]),\n",
      "   midi.ControlChangeEvent(tick=10, channel=4, data=[7, 60]),\n",
      "   midi.NoteOnEvent(tick=10, channel=4, data=[71, 0]),\n",
      "   midi.NoteOnEvent(tick=0, channel=4, data=[55, 0]),\n",
      "   midi.NoteOnEvent(tick=0, channel=4, data=[62, 0]),\n",
      "   midi.NoteOnEvent(tick=0, channel=4, data=[67, 0]),\n",
      "   midi.ControlChangeEvent(tick=10, channel=4, data=[7, 59]),\n",
      "   midi.ControlChangeEvent(tick=10, channel=4, data=[7, 58]),\n",
      "   midi.ControlChangeEvent(tick=9, channel=4, data=[10, 32]),\n",
      "   midi.NoteOnEvent(tick=1, channel=4, data=[55, 127]),\n",
      "   midi.NoteOnEvent(tick=0, channel=4, data=[62, 127]),\n",
      "   midi.NoteOnEvent(tick=0, channel=4, data=[67, 127]),\n",
      "   midi.NoteOnEvent(tick=0, channel=4, data=[71, 127]),\n",
      "   midi.ControlChangeEvent(tick=0, channel=4, data=[7, 57]),\n",
      "   midi.ControlChangeEvent(tick=10, channel=4, data=[7, 56]),\n",
      "   midi.ControlChangeEvent(tick=10, channel=4, data=[7, 55]),\n",
      "   midi.ControlChangeEvent(tick=10, channel=4, data=[7, 54]),\n",
      "   midi.ControlChangeEvent(tick=10, channel=4, data=[7, 53]),\n",
      "   midi.ControlChangeEvent(tick=10, channel=4, data=[7, 52]),\n",
      "   midi.NoteOnEvent(tick=10, channel=4, data=[71, 0]),\n",
      "   midi.NoteOnEvent(tick=0, channel=4, data=[55, 0]),\n",
      "   midi.NoteOnEvent(tick=0, channel=4, data=[62, 0]),\n",
      "   midi.NoteOnEvent(tick=0, channel=4, data=[67, 0]),\n",
      "   midi.ControlChangeEvent(tick=10, channel=4, data=[7, 51]),\n",
      "   midi.ControlChangeEvent(tick=10, channel=4, data=[7, 50]),\n",
      "   midi.ControlChangeEvent(tick=9, channel=4, data=[10, 96]),\n",
      "   midi.NoteOnEvent(tick=1, channel=4, data=[55, 127]),\n",
      "   midi.NoteOnEvent(tick=0, channel=4, data=[62, 127]),\n",
      "   midi.NoteOnEvent(tick=0, channel=4, data=[67, 127]),\n",
      "   midi.NoteOnEvent(tick=0, channel=4, data=[71, 127]),\n",
      "   midi.ControlChangeEvent(tick=0, channel=4, data=[7, 49]),\n",
      "   midi.ControlChangeEvent(tick=10, channel=4, data=[7, 48]),\n",
      "   midi.ControlChangeEvent(tick=10, channel=4, data=[7, 47]),\n",
      "   midi.ControlChangeEvent(tick=10, channel=4, data=[7, 46]),\n",
      "   midi.ControlChangeEvent(tick=10, channel=4, data=[7, 45]),\n",
      "   midi.NoteOnEvent(tick=20, channel=4, data=[71, 0]),\n",
      "   midi.NoteOnEvent(tick=0, channel=4, data=[55, 0]),\n",
      "   midi.NoteOnEvent(tick=0, channel=4, data=[62, 0]),\n",
      "   midi.NoteOnEvent(tick=0, channel=4, data=[67, 0]),\n",
      "   midi.ControlChangeEvent(tick=0, channel=4, data=[7, 44]),\n",
      "   midi.ControlChangeEvent(tick=10, channel=4, data=[7, 43]),\n",
      "   midi.ControlChangeEvent(tick=10, channel=4, data=[7, 42]),\n",
      "   midi.ControlChangeEvent(tick=8, channel=4, data=[10, 32]),\n",
      "   midi.NoteOnEvent(tick=2, channel=4, data=[55, 127]),\n",
      "   midi.NoteOnEvent(tick=0, channel=4, data=[62, 127]),\n",
      "   midi.NoteOnEvent(tick=0, channel=4, data=[67, 127]),\n",
      "   midi.NoteOnEvent(tick=0, channel=4, data=[71, 127]),\n",
      "   midi.ControlChangeEvent(tick=0, channel=4, data=[7, 41]),\n",
      "   midi.ControlChangeEvent(tick=10, channel=4, data=[7, 40]),\n",
      "   midi.ControlChangeEvent(tick=10, channel=4, data=[7, 39]),\n",
      "   midi.ControlChangeEvent(tick=10, channel=4, data=[7, 38]),\n",
      "   midi.ControlChangeEvent(tick=20, channel=4, data=[7, 37]),\n",
      "   midi.NoteOnEvent(tick=10, channel=4, data=[71, 0]),\n",
      "   midi.NoteOnEvent(tick=0, channel=4, data=[55, 0]),\n",
      "   midi.NoteOnEvent(tick=0, channel=4, data=[62, 0]),\n",
      "   midi.NoteOnEvent(tick=0, channel=4, data=[67, 0]),\n",
      "   midi.ControlChangeEvent(tick=0, channel=4, data=[7, 36]),\n",
      "   midi.ControlChangeEvent(tick=10, channel=4, data=[7, 35]),\n",
      "   midi.ControlChangeEvent(tick=10, channel=4, data=[7, 34]),\n",
      "   midi.ControlChangeEvent(tick=10, channel=4, data=[7, 33]),\n",
      "   midi.ControlChangeEvent(tick=10, channel=4, data=[7, 32]),\n",
      "   midi.ControlChangeEvent(tick=10, channel=4, data=[7, 31]),\n",
      "   midi.ControlChangeEvent(tick=20, channel=4, data=[7, 30]),\n",
      "   midi.ControlChangeEvent(tick=10, channel=4, data=[7, 29]),\n",
      "   midi.ControlChangeEvent(tick=10, channel=4, data=[7, 28]),\n",
      "   midi.ControlChangeEvent(tick=10, channel=4, data=[7, 27]),\n",
      "   midi.ControlChangeEvent(tick=10, channel=4, data=[7, 26]),\n",
      "   midi.ControlChangeEvent(tick=10, channel=4, data=[7, 25]),\n",
      "   midi.ControlChangeEvent(tick=10, channel=4, data=[7, 24]),\n",
      "   midi.ControlChangeEvent(tick=10, channel=4, data=[7, 23]),\n",
      "   midi.ControlChangeEvent(tick=20, channel=4, data=[7, 22]),\n",
      "   midi.ControlChangeEvent(tick=10, channel=4, data=[7, 21]),\n",
      "   midi.ControlChangeEvent(tick=10, channel=4, data=[7, 20]),\n",
      "   midi.ControlChangeEvent(tick=10, channel=4, data=[7, 19]),\n",
      "   midi.ControlChangeEvent(tick=10, channel=4, data=[7, 18]),\n",
      "   midi.ControlChangeEvent(tick=10, channel=4, data=[7, 17]),\n",
      "   midi.ControlChangeEvent(tick=10, channel=4, data=[7, 16]),\n",
      "   midi.ControlChangeEvent(tick=20, channel=4, data=[7, 15]),\n",
      "   midi.ControlChangeEvent(tick=10, channel=4, data=[7, 14]),\n",
      "   midi.ControlChangeEvent(tick=10, channel=4, data=[7, 13]),\n",
      "   midi.ControlChangeEvent(tick=10, channel=4, data=[7, 12]),\n",
      "   midi.ControlChangeEvent(tick=10, channel=4, data=[7, 11]),\n",
      "   midi.ControlChangeEvent(tick=10, channel=4, data=[7, 10]),\n",
      "   midi.ControlChangeEvent(tick=10, channel=4, data=[7, 9]),\n",
      "   midi.ControlChangeEvent(tick=20, channel=4, data=[7, 8]),\n",
      "   midi.ControlChangeEvent(tick=10, channel=4, data=[7, 7]),\n",
      "   midi.ControlChangeEvent(tick=10, channel=4, data=[7, 6]),\n",
      "   midi.ControlChangeEvent(tick=10, channel=4, data=[7, 5]),\n",
      "   midi.ControlChangeEvent(tick=10, channel=4, data=[7, 4]),\n",
      "   midi.ControlChangeEvent(tick=10, channel=4, data=[7, 3]),\n",
      "   midi.ControlChangeEvent(tick=10, channel=4, data=[7, 2]),\n",
      "   midi.ControlChangeEvent(tick=10, channel=4, data=[7, 1]),\n",
      "   midi.ControlChangeEvent(tick=19260, channel=4, data=[7, 102]),\n",
      "   midi.ControlChangeEvent(tick=0, channel=4, data=[10, 32]),\n",
      "   midi.NoteOnEvent(tick=1, channel=4, data=[55, 125]),\n",
      "   midi.NoteOnEvent(tick=0, channel=4, data=[57, 122]),\n",
      "   midi.NoteOnEvent(tick=0, channel=4, data=[72, 127]),\n",
      "   midi.NoteOnEvent(tick=0, channel=4, data=[64, 127]),\n",
      "   midi.NoteOnEvent(tick=0, channel=4, data=[69, 127]),\n",
      "   midi.ControlChangeEvent(tick=0, channel=4, data=[7, 101]),\n",
      "   midi.ControlChangeEvent(tick=9, channel=4, data=[7, 100]),\n",
      "   midi.ControlChangeEvent(tick=10, channel=4, data=[7, 99]),\n",
      "   midi.NoteOnEvent(tick=10, channel=4, data=[57, 0]),\n",
      "   midi.NoteOnEvent(tick=0, channel=4, data=[55, 0]),\n",
      "   midi.ControlChangeEvent(tick=0, channel=4, data=[7, 98]),\n",
      "   midi.ControlChangeEvent(tick=10, channel=4, data=[7, 97]),\n",
      "   midi.ControlChangeEvent(tick=10, channel=4, data=[7, 96]),\n",
      "   midi.ControlChangeEvent(tick=10, channel=4, data=[7, 95]),\n",
      "   midi.NoteOnEvent(tick=1, channel=4, data=[64, 0]),\n",
      "   midi.NoteOnEvent(tick=0, channel=4, data=[72, 0]),\n",
      "   midi.NoteOnEvent(tick=0, channel=4, data=[69, 0]),\n",
      "   midi.ControlChangeEvent(tick=9, channel=4, data=[7, 93]),\n",
      "   midi.ControlChangeEvent(tick=10, channel=4, data=[7, 92]),\n",
      "   midi.ControlChangeEvent(tick=9, channel=4, data=[10, 96]),\n",
      "   midi.NoteOnEvent(tick=1, channel=4, data=[69, 127]),\n",
      "   midi.NoteOnEvent(tick=0, channel=4, data=[64, 127]),\n",
      "   midi.NoteOnEvent(tick=0, channel=4, data=[72, 127]),\n",
      "   midi.NoteOnEvent(tick=0, channel=4, data=[57, 122]),\n",
      "   midi.NoteOnEvent(tick=0, channel=4, data=[55, 125]),\n",
      "   midi.ControlChangeEvent(tick=0, channel=4, data=[7, 91]),\n",
      "   midi.ControlChangeEvent(tick=10, channel=4, data=[7, 90]),\n",
      "   midi.ControlChangeEvent(tick=10, channel=4, data=[7, 89]),\n",
      "   midi.NoteOnEvent(tick=9, channel=4, data=[55, 0]),\n",
      "   midi.NoteOnEvent(tick=0, channel=4, data=[57, 0]),\n",
      "   midi.ControlChangeEvent(tick=1, channel=4, data=[7, 88]),\n",
      "   midi.ControlChangeEvent(tick=10, channel=4, data=[7, 87]),\n",
      "   midi.ControlChangeEvent(tick=10, channel=4, data=[7, 86]),\n",
      "   midi.NoteOnEvent(tick=10, channel=4, data=[69, 0]),\n",
      "   midi.NoteOnEvent(tick=0, channel=4, data=[64, 0]),\n",
      "   midi.NoteOnEvent(tick=0, channel=4, data=[72, 0]),\n",
      "   midi.ControlChangeEvent(tick=0, channel=4, data=[7, 84]),\n",
      "   midi.ControlChangeEvent(tick=10, channel=4, data=[7, 83]),\n",
      "   midi.ControlChangeEvent(tick=10, channel=4, data=[7, 82]),\n",
      "   midi.ControlChangeEvent(tick=9, channel=4, data=[10, 32]),\n",
      "   midi.NoteOnEvent(tick=1, channel=4, data=[69, 127]),\n",
      "   midi.NoteOnEvent(tick=0, channel=4, data=[64, 127]),\n",
      "   midi.NoteOnEvent(tick=0, channel=4, data=[72, 127]),\n",
      "   midi.NoteOnEvent(tick=0, channel=4, data=[57, 122]),\n",
      "   midi.NoteOnEvent(tick=0, channel=4, data=[55, 125]),\n",
      "   midi.ControlChangeEvent(tick=0, channel=4, data=[7, 81]),\n",
      "   midi.ControlChangeEvent(tick=10, channel=4, data=[7, 80]),\n",
      "   midi.ControlChangeEvent(tick=10, channel=4, data=[7, 79]),\n",
      "   midi.NoteOnEvent(tick=9, channel=4, data=[55, 0]),\n",
      "   midi.NoteOnEvent(tick=0, channel=4, data=[57, 0]),\n",
      "   midi.ControlChangeEvent(tick=1, channel=4, data=[7, 78]),\n",
      "   midi.ControlChangeEvent(tick=10, channel=4, data=[7, 77]),\n",
      "   midi.ControlChangeEvent(tick=10, channel=4, data=[7, 75]),\n",
      "   midi.NoteOnEvent(tick=10, channel=4, data=[69, 0]),\n",
      "   midi.NoteOnEvent(tick=0, channel=4, data=[64, 0]),\n",
      "   midi.NoteOnEvent(tick=0, channel=4, data=[72, 0]),\n",
      "   midi.ControlChangeEvent(tick=0, channel=4, data=[7, 74]),\n",
      "   midi.ControlChangeEvent(tick=10, channel=4, data=[7, 73]),\n",
      "   midi.ControlChangeEvent(tick=10, channel=4, data=[7, 72]),\n",
      "   midi.ControlChangeEvent(tick=9, channel=4, data=[10, 96]),\n",
      "   midi.NoteOnEvent(tick=1, channel=4, data=[69, 127]),\n",
      "   midi.NoteOnEvent(tick=0, channel=4, data=[64, 127]),\n",
      "   midi.NoteOnEvent(tick=0, channel=4, data=[72, 127]),\n",
      "   midi.NoteOnEvent(tick=0, channel=4, data=[57, 122]),\n",
      "   midi.NoteOnEvent(tick=0, channel=4, data=[55, 125]),\n",
      "   midi.ControlChangeEvent(tick=0, channel=4, data=[7, 71]),\n",
      "   midi.ControlChangeEvent(tick=10, channel=4, data=[7, 70]),\n",
      "   midi.ControlChangeEvent(tick=10, channel=4, data=[7, 69]),\n",
      "   midi.NoteOnEvent(tick=9, channel=4, data=[55, 0]),\n",
      "   midi.NoteOnEvent(tick=0, channel=4, data=[57, 0]),\n",
      "   midi.ControlChangeEvent(tick=1, channel=4, data=[7, 67]),\n",
      "   midi.ControlChangeEvent(tick=10, channel=4, data=[7, 66]),\n",
      "   midi.ControlChangeEvent(tick=10, channel=4, data=[7, 65]),\n",
      "   midi.NoteOnEvent(tick=10, channel=4, data=[69, 0]),\n",
      "   midi.NoteOnEvent(tick=0, channel=4, data=[64, 0]),\n",
      "   midi.NoteOnEvent(tick=0, channel=4, data=[72, 0]),\n",
      "   midi.ControlChangeEvent(tick=0, channel=4, data=[7, 64]),\n",
      "   midi.ControlChangeEvent(tick=10, channel=4, data=[7, 63]),\n",
      "   midi.ControlChangeEvent(tick=10, channel=4, data=[7, 62]),\n",
      "   midi.ControlChangeEvent(tick=8, channel=4, data=[10, 32]),\n",
      "   midi.NoteOnEvent(tick=2, channel=4, data=[69, 127]),\n",
      "   midi.NoteOnEvent(tick=0, channel=4, data=[64, 127]),\n",
      "   midi.NoteOnEvent(tick=0, channel=4, data=[72, 127]),\n",
      "   midi.NoteOnEvent(tick=0, channel=4, data=[57, 122]),\n",
      "   midi.NoteOnEvent(tick=0, channel=4, data=[55, 125]),\n",
      "   midi.ControlChangeEvent(tick=0, channel=4, data=[7, 61]),\n",
      "   midi.ControlChangeEvent(tick=10, channel=4, data=[7, 60]),\n",
      "   midi.ControlChangeEvent(tick=10, channel=4, data=[7, 58]),\n",
      "   midi.NoteOnEvent(tick=9, channel=4, data=[55, 0]),\n",
      "   midi.NoteOnEvent(tick=0, channel=4, data=[57, 0]),\n",
      "   midi.ControlChangeEvent(tick=1, channel=4, data=[7, 57]),\n",
      "   midi.ControlChangeEvent(tick=10, channel=4, data=[7, 56]),\n",
      "   midi.ControlChangeEvent(tick=10, channel=4, data=[7, 55]),\n",
      "   midi.NoteOnEvent(tick=10, channel=4, data=[69, 0]),\n",
      "   midi.NoteOnEvent(tick=0, channel=4, data=[64, 0]),\n",
      "   midi.NoteOnEvent(tick=0, channel=4, data=[72, 0]),\n",
      "   midi.ControlChangeEvent(tick=0, channel=4, data=[7, 54]),\n",
      "   midi.ControlChangeEvent(tick=10, channel=4, data=[7, 53]),\n",
      "   midi.ControlChangeEvent(tick=10, channel=4, data=[7, 52]),\n",
      "   midi.ControlChangeEvent(tick=9, channel=4, data=[10, 96]),\n",
      "   midi.NoteOnEvent(tick=1, channel=4, data=[69, 127]),\n",
      "   midi.NoteOnEvent(tick=0, channel=4, data=[64, 127]),\n",
      "   midi.NoteOnEvent(tick=0, channel=4, data=[72, 127]),\n",
      "   midi.NoteOnEvent(tick=0, channel=4, data=[57, 122]),\n",
      "   midi.NoteOnEvent(tick=0, channel=4, data=[55, 125]),\n",
      "   midi.ControlChangeEvent(tick=0, channel=4, data=[7, 51]),\n",
      "   midi.ControlChangeEvent(tick=10, channel=4, data=[7, 49]),\n",
      "   midi.ControlChangeEvent(tick=10, channel=4, data=[7, 48]),\n",
      "   midi.NoteOnEvent(tick=9, channel=4, data=[55, 0]),\n",
      "   midi.NoteOnEvent(tick=0, channel=4, data=[57, 0]),\n",
      "   midi.ControlChangeEvent(tick=1, channel=4, data=[7, 47]),\n",
      "   midi.ControlChangeEvent(tick=10, channel=4, data=[7, 46]),\n",
      "   midi.ControlChangeEvent(tick=10, channel=4, data=[7, 45]),\n",
      "   midi.NoteOnEvent(tick=10, channel=4, data=[69, 0]),\n",
      "   midi.NoteOnEvent(tick=0, channel=4, data=[64, 0]),\n",
      "   midi.NoteOnEvent(tick=0, channel=4, data=[72, 0]),\n",
      "   midi.ControlChangeEvent(tick=0, channel=4, data=[7, 44]),\n",
      "   midi.ControlChangeEvent(tick=10, channel=4, data=[7, 43]),\n",
      "   midi.ControlChangeEvent(tick=10, channel=4, data=[7, 41]),\n",
      "   midi.ControlChangeEvent(tick=9, channel=4, data=[10, 32]),\n",
      "   midi.NoteOnEvent(tick=1, channel=4, data=[69, 127]),\n",
      "   midi.NoteOnEvent(tick=0, channel=4, data=[64, 127]),\n",
      "   midi.NoteOnEvent(tick=0, channel=4, data=[72, 127]),\n",
      "   midi.NoteOnEvent(tick=0, channel=4, data=[57, 122]),\n",
      "   midi.NoteOnEvent(tick=0, channel=4, data=[55, 125]),\n",
      "   midi.ControlChangeEvent(tick=0, channel=4, data=[7, 39]),\n",
      "   midi.ControlChangeEvent(tick=10, channel=4, data=[7, 38]),\n",
      "   midi.ControlChangeEvent(tick=10, channel=4, data=[7, 36]),\n",
      "   midi.NoteOnEvent(tick=9, channel=4, data=[55, 0]),\n",
      "   midi.NoteOnEvent(tick=0, channel=4, data=[57, 0]),\n",
      "   midi.ControlChangeEvent(tick=1, channel=4, data=[7, 35]),\n",
      "   midi.ControlChangeEvent(tick=10, channel=4, data=[7, 34]),\n",
      "   midi.ControlChangeEvent(tick=10, channel=4, data=[7, 32]),\n",
      "   midi.NoteOnEvent(tick=10, channel=4, data=[69, 0]),\n",
      "   midi.NoteOnEvent(tick=0, channel=4, data=[64, 0]),\n",
      "   midi.NoteOnEvent(tick=0, channel=4, data=[72, 0]),\n",
      "   midi.ControlChangeEvent(tick=10, channel=4, data=[7, 29]),\n",
      "   midi.ControlChangeEvent(tick=20, channel=4, data=[10, 96]),\n",
      "   midi.NoteOnEvent(tick=0, channel=4, data=[69, 127]),\n",
      "   midi.NoteOnEvent(tick=0, channel=4, data=[64, 127]),\n",
      "   midi.NoteOnEvent(tick=0, channel=4, data=[72, 127]),\n",
      "   midi.NoteOnEvent(tick=0, channel=4, data=[57, 122]),\n",
      "   midi.NoteOnEvent(tick=0, channel=4, data=[55, 125]),\n",
      "   midi.ControlChangeEvent(tick=0, channel=4, data=[7, 28]),\n",
      "   midi.ControlChangeEvent(tick=10, channel=4, data=[7, 27]),\n",
      "   midi.ControlChangeEvent(tick=10, channel=4, data=[7, 26]),\n",
      "   midi.NoteOnEvent(tick=9, channel=4, data=[55, 0]),\n",
      "   midi.NoteOnEvent(tick=0, channel=4, data=[57, 0]),\n",
      "   midi.ControlChangeEvent(tick=1, channel=4, data=[7, 25]),\n",
      "   midi.ControlChangeEvent(tick=10, channel=4, data=[7, 24]),\n",
      "   midi.ControlChangeEvent(tick=10, channel=4, data=[7, 23]),\n",
      "   midi.NoteOnEvent(tick=10, channel=4, data=[69, 0]),\n",
      "   midi.NoteOnEvent(tick=0, channel=4, data=[64, 0]),\n",
      "   midi.NoteOnEvent(tick=0, channel=4, data=[72, 0]),\n",
      "   midi.ControlChangeEvent(tick=0, channel=4, data=[7, 22]),\n",
      "   midi.ControlChangeEvent(tick=10, channel=4, data=[7, 21]),\n",
      "   midi.ControlChangeEvent(tick=10, channel=4, data=[7, 20]),\n",
      "   midi.ControlChangeEvent(tick=10, channel=4, data=[10, 32]),\n",
      "   midi.NoteOnEvent(tick=0, channel=4, data=[69, 127]),\n",
      "   midi.NoteOnEvent(tick=0, channel=4, data=[64, 127]),\n",
      "   midi.NoteOnEvent(tick=0, channel=4, data=[72, 127]),\n",
      "   midi.NoteOnEvent(tick=0, channel=4, data=[57, 122]),\n",
      "   midi.NoteOnEvent(tick=0, channel=4, data=[55, 125]),\n",
      "   midi.ControlChangeEvent(tick=0, channel=4, data=[7, 19]),\n",
      "   midi.ControlChangeEvent(tick=10, channel=4, data=[7, 18]),\n",
      "   midi.ControlChangeEvent(tick=10, channel=4, data=[7, 17]),\n",
      "   midi.NoteOnEvent(tick=9, channel=4, data=[55, 0]),\n",
      "   midi.NoteOnEvent(tick=0, channel=4, data=[57, 0]),\n",
      "   midi.ControlChangeEvent(tick=1, channel=4, data=[7, 16]),\n",
      "   midi.ControlChangeEvent(tick=10, channel=4, data=[7, 15]),\n",
      "   midi.ControlChangeEvent(tick=10, channel=4, data=[7, 14]),\n",
      "   midi.NoteOnEvent(tick=10, channel=4, data=[69, 0]),\n",
      "   midi.NoteOnEvent(tick=0, channel=4, data=[64, 0]),\n",
      "   midi.NoteOnEvent(tick=0, channel=4, data=[72, 0]),\n",
      "   midi.ControlChangeEvent(tick=0, channel=4, data=[7, 13]),\n",
      "   midi.ControlChangeEvent(tick=10, channel=4, data=[7, 12]),\n",
      "   midi.ControlChangeEvent(tick=10, channel=4, data=[7, 11]),\n",
      "   midi.ControlChangeEvent(tick=10, channel=4, data=[7, 10]),\n",
      "   midi.ControlChangeEvent(tick=10, channel=4, data=[7, 9]),\n",
      "   midi.ControlChangeEvent(tick=10, channel=4, data=[7, 8]),\n",
      "   midi.ControlChangeEvent(tick=10, channel=4, data=[7, 7]),\n",
      "   midi.ControlChangeEvent(tick=10, channel=4, data=[7, 6]),\n",
      "   midi.ControlChangeEvent(tick=10, channel=4, data=[7, 5]),\n",
      "   midi.ControlChangeEvent(tick=10, channel=4, data=[7, 4]),\n",
      "   midi.ControlChangeEvent(tick=10, channel=4, data=[7, 3]),\n",
      "   midi.ControlChangeEvent(tick=10, channel=4, data=[7, 2]),\n",
      "   midi.ControlChangeEvent(tick=10, channel=4, data=[7, 1]),\n",
      "   midi.ControlChangeEvent(tick=10, channel=4, data=[7, 0]),\n",
      "   midi.EndOfTrackEvent(tick=0, data=[])]),\n",
      " midi.Track(\\\n",
      "  [midi.PortEvent(tick=0, data=[0]),\n",
      "   midi.TrackNameEvent(tick=0, text='Analog Pad G-051', data=[65, 110, 97, 108, 111, 103, 32, 80, 97, 100, 32, 71, 45, 48, 53, 49]),\n",
      "   midi.ProgramChangeEvent(tick=0, channel=5, data=[50]),\n",
      "   midi.ControlChangeEvent(tick=0, channel=5, data=[7, 85]),\n",
      "   midi.ControlChangeEvent(tick=0, channel=5, data=[10, 72]),\n",
      "   midi.ControlChangeEvent(tick=8980, channel=5, data=[7, 1]),\n",
      "   midi.ControlChangeEvent(tick=0, channel=5, data=[7, 1]),\n",
      "   midi.ControlChangeEvent(tick=20, channel=5, data=[7, 8]),\n",
      "   midi.ControlChangeEvent(tick=10, channel=5, data=[7, 30]),\n",
      "   midi.ControlChangeEvent(tick=10, channel=5, data=[7, 58]),\n",
      "   midi.ControlChangeEvent(tick=10, channel=5, data=[7, 58]),\n",
      "   midi.ControlChangeEvent(tick=10, channel=5, data=[7, 65]),\n",
      "   midi.ControlChangeEvent(tick=10, channel=5, data=[7, 66]),\n",
      "   midi.ControlChangeEvent(tick=10, channel=5, data=[7, 68]),\n",
      "   midi.ControlChangeEvent(tick=10, channel=5, data=[7, 69]),\n",
      "   midi.ControlChangeEvent(tick=10, channel=5, data=[7, 71]),\n",
      "   midi.ControlChangeEvent(tick=20, channel=5, data=[7, 74]),\n",
      "   midi.ControlChangeEvent(tick=10, channel=5, data=[7, 75]),\n",
      "   midi.NoteOnEvent(tick=10, channel=5, data=[76, 127]),\n",
      "   midi.NoteOnEvent(tick=0, channel=5, data=[69, 127]),\n",
      "   midi.NoteOnEvent(tick=0, channel=5, data=[57, 127]),\n",
      "   midi.NoteOnEvent(tick=0, channel=5, data=[72, 127]),\n",
      "   midi.ControlChangeEvent(tick=0, channel=5, data=[7, 76]),\n",
      "   midi.ControlChangeEvent(tick=10, channel=5, data=[7, 78]),\n",
      "   midi.ControlChangeEvent(tick=10, channel=5, data=[7, 81]),\n",
      "   midi.ControlChangeEvent(tick=10, channel=5, data=[7, 83]),\n",
      "   midi.ControlChangeEvent(tick=10, channel=5, data=[7, 84]),\n",
      "   midi.ControlChangeEvent(tick=10, channel=5, data=[7, 86]),\n",
      "   midi.ControlChangeEvent(tick=10, channel=5, data=[7, 88]),\n",
      "   midi.ControlChangeEvent(tick=20, channel=5, data=[7, 90]),\n",
      "   midi.ControlChangeEvent(tick=10, channel=5, data=[7, 91]),\n",
      "   midi.ControlChangeEvent(tick=10, channel=5, data=[7, 92]),\n",
      "   midi.ControlChangeEvent(tick=10, channel=5, data=[7, 93]),\n",
      "   midi.ControlChangeEvent(tick=10, channel=5, data=[7, 94]),\n",
      "   midi.ControlChangeEvent(tick=10, channel=5, data=[7, 96]),\n",
      "   midi.ControlChangeEvent(tick=30, channel=5, data=[7, 97]),\n",
      "   midi.ControlChangeEvent(tick=10, channel=5, data=[7, 98]),\n",
      "   midi.ControlChangeEvent(tick=10, channel=5, data=[7, 100]),\n",
      "   midi.ControlChangeEvent(tick=30, channel=5, data=[7, 101]),\n",
      "   midi.ControlChangeEvent(tick=40, channel=5, data=[7, 103]),\n",
      "   midi.ControlChangeEvent(tick=30, channel=5, data=[7, 105]),\n",
      "   midi.ControlChangeEvent(tick=10, channel=5, data=[7, 106]),\n",
      "   midi.ControlChangeEvent(tick=10, channel=5, data=[7, 107]),\n",
      "   midi.ControlChangeEvent(tick=10, channel=5, data=[7, 108]),\n",
      "   midi.ControlChangeEvent(tick=10, channel=5, data=[7, 109]),\n",
      "   midi.ControlChangeEvent(tick=10, channel=5, data=[7, 110]),\n",
      "   midi.ControlChangeEvent(tick=10, channel=5, data=[7, 112]),\n",
      "   midi.ControlChangeEvent(tick=10, channel=5, data=[7, 113]),\n",
      "   midi.ControlChangeEvent(tick=20, channel=5, data=[7, 114]),\n",
      "   midi.ControlChangeEvent(tick=10, channel=5, data=[7, 115]),\n",
      "   midi.ControlChangeEvent(tick=10, channel=5, data=[7, 116]),\n",
      "   midi.ControlChangeEvent(tick=20, channel=5, data=[7, 117]),\n",
      "   midi.ControlChangeEvent(tick=10, channel=5, data=[7, 118]),\n",
      "   midi.ControlChangeEvent(tick=10, channel=5, data=[7, 119]),\n",
      "   midi.ControlChangeEvent(tick=20, channel=5, data=[7, 120]),\n",
      "   midi.ControlChangeEvent(tick=10, channel=5, data=[7, 121]),\n",
      "   midi.ControlChangeEvent(tick=20, channel=5, data=[7, 122]),\n",
      "   midi.ControlChangeEvent(tick=10, channel=5, data=[7, 123]),\n",
      "   midi.ControlChangeEvent(tick=20, channel=5, data=[7, 119]),\n",
      "   midi.ControlChangeEvent(tick=40, channel=5, data=[7, 118]),\n",
      "   midi.ControlChangeEvent(tick=50, channel=5, data=[7, 117]),\n",
      "   midi.ControlChangeEvent(tick=170, channel=5, data=[7, 116]),\n",
      "   midi.ControlChangeEvent(tick=60, channel=5, data=[7, 115]),\n",
      "   midi.ControlChangeEvent(tick=30, channel=5, data=[7, 114]),\n",
      "   midi.ControlChangeEvent(tick=30, channel=5, data=[7, 113]),\n",
      "   midi.ControlChangeEvent(tick=30, channel=5, data=[7, 111]),\n",
      "   midi.ControlChangeEvent(tick=30, channel=5, data=[7, 110]),\n",
      "   midi.NoteOnEvent(tick=10, channel=5, data=[81, 127]),\n",
      "   midi.ControlChangeEvent(tick=0, channel=5, data=[7, 124]),\n",
      "   midi.ControlChangeEvent(tick=40, channel=5, data=[7, 123]),\n",
      "   midi.ControlChangeEvent(tick=40, channel=5, data=[7, 122]),\n",
      "   midi.ControlChangeEvent(tick=30, channel=5, data=[7, 121]),\n",
      "   midi.ControlChangeEvent(tick=40, channel=5, data=[7, 120]),\n",
      "   midi.ControlChangeEvent(tick=40, channel=5, data=[7, 119]),\n",
      "   midi.ControlChangeEvent(tick=30, channel=5, data=[7, 118]),\n",
      "   midi.ControlChangeEvent(tick=40, channel=5, data=[7, 117]),\n",
      "   midi.ControlChangeEvent(tick=40, channel=5, data=[7, 116]),\n",
      "   midi.ControlChangeEvent(tick=30, channel=5, data=[7, 115]),\n",
      "   midi.ControlChangeEvent(tick=40, channel=5, data=[7, 114]),\n",
      "   midi.ControlChangeEvent(tick=30, channel=5, data=[7, 113]),\n",
      "   midi.ControlChangeEvent(tick=40, channel=5, data=[7, 112]),\n",
      "   midi.ControlChangeEvent(tick=40, channel=5, data=[7, 111]),\n",
      "   midi.ControlChangeEvent(tick=30, channel=5, data=[7, 110]),\n",
      "   midi.ControlChangeEvent(tick=40, channel=5, data=[7, 109]),\n",
      "   midi.ControlChangeEvent(tick=40, channel=5, data=[7, 108]),\n",
      "   midi.ControlChangeEvent(tick=30, channel=5, data=[7, 107]),\n",
      "   midi.ControlChangeEvent(tick=40, channel=5, data=[7, 106]),\n",
      "   midi.ControlChangeEvent(tick=30, channel=5, data=[7, 105]),\n",
      "   midi.ControlChangeEvent(tick=20, channel=5, data=[7, 105]),\n",
      "   midi.NoteOnEvent(tick=241, channel=5, data=[57, 0]),\n",
      "   midi.NoteOnEvent(tick=8, channel=5, data=[76, 0]),\n",
      "   midi.NoteOnEvent(tick=4, channel=5, data=[69, 0]),\n",
      "   midi.NoteOnEvent(tick=3, channel=5, data=[72, 0]),\n",
      "   midi.NoteOnEvent(tick=26, channel=5, data=[81, 0]),\n",
      "   midi.ControlChangeEvent(tick=278, channel=5, data=[7, 104]),\n",
      "   midi.ControlChangeEvent(tick=70, channel=5, data=[7, 103]),\n",
      "   midi.ControlChangeEvent(tick=130, channel=5, data=[7, 102]),\n",
      "   midi.ControlChangeEvent(tick=80, channel=5, data=[7, 101]),\n",
      "   midi.ControlChangeEvent(tick=190, channel=5, data=[7, 100]),\n",
      "   midi.ControlChangeEvent(tick=40, channel=5, data=[7, 98]),\n",
      "   midi.ControlChangeEvent(tick=30, channel=5, data=[7, 95]),\n",
      "   midi.ControlChangeEvent(tick=50, channel=5, data=[7, 93]),\n",
      "   midi.ControlChangeEvent(tick=40, channel=5, data=[7, 91]),\n",
      "   midi.ControlChangeEvent(tick=220, channel=5, data=[7, 92]),\n",
      "   midi.ControlChangeEvent(tick=140, channel=5, data=[7, 93]),\n",
      "   midi.ControlChangeEvent(tick=110, channel=5, data=[7, 94]),\n",
      "   midi.ControlChangeEvent(tick=10, channel=5, data=[7, 4]),\n",
      "   midi.ControlChangeEvent(tick=14, channel=5, data=[7, 94]),\n",
      "   midi.ControlChangeEvent(tick=10, channel=5, data=[7, 92]),\n",
      "   midi.ControlChangeEvent(tick=10, channel=5, data=[7, 90]),\n",
      "   midi.ControlChangeEvent(tick=10, channel=5, data=[7, 88]),\n",
      "   midi.ControlChangeEvent(tick=10, channel=5, data=[7, 86]),\n",
      "   midi.ControlChangeEvent(tick=10, channel=5, data=[7, 84]),\n",
      "   midi.ControlChangeEvent(tick=10, channel=5, data=[7, 82]),\n",
      "   midi.ControlChangeEvent(tick=10, channel=5, data=[7, 80]),\n",
      "   midi.ControlChangeEvent(tick=10, channel=5, data=[7, 78]),\n",
      "   midi.ControlChangeEvent(tick=10, channel=5, data=[7, 76]),\n",
      "   midi.ControlChangeEvent(tick=10, channel=5, data=[7, 74]),\n",
      "   midi.ControlChangeEvent(tick=10, channel=5, data=[7, 72]),\n",
      "   midi.ControlChangeEvent(tick=10, channel=5, data=[7, 70]),\n",
      "   midi.ControlChangeEvent(tick=10, channel=5, data=[7, 68]),\n",
      "   midi.ControlChangeEvent(tick=10, channel=5, data=[7, 66]),\n",
      "   midi.ControlChangeEvent(tick=10, channel=5, data=[7, 64]),\n",
      "   midi.ControlChangeEvent(tick=10, channel=5, data=[7, 62]),\n",
      "   midi.ControlChangeEvent(tick=10, channel=5, data=[7, 60]),\n",
      "   midi.ControlChangeEvent(tick=10, channel=5, data=[7, 58]),\n",
      "   midi.ControlChangeEvent(tick=10, channel=5, data=[7, 56]),\n",
      "   midi.ControlChangeEvent(tick=10, channel=5, data=[7, 54]),\n",
      "   midi.ControlChangeEvent(tick=10, channel=5, data=[7, 52]),\n",
      "   midi.ControlChangeEvent(tick=10, channel=5, data=[7, 50]),\n",
      "   midi.ControlChangeEvent(tick=10, channel=5, data=[7, 48]),\n",
      "   midi.ControlChangeEvent(tick=10, channel=5, data=[7, 46]),\n",
      "   midi.ControlChangeEvent(tick=10, channel=5, data=[7, 44]),\n",
      "   midi.ControlChangeEvent(tick=10, channel=5, data=[7, 42]),\n",
      "   midi.ControlChangeEvent(tick=10, channel=5, data=[7, 40]),\n",
      "   midi.ControlChangeEvent(tick=10, channel=5, data=[7, 38]),\n",
      "   midi.ControlChangeEvent(tick=10, channel=5, data=[7, 36]),\n",
      "   midi.ControlChangeEvent(tick=10, channel=5, data=[7, 34]),\n",
      "   midi.ControlChangeEvent(tick=10, channel=5, data=[7, 32]),\n",
      "   midi.ControlChangeEvent(tick=10, channel=5, data=[7, 30]),\n",
      "   midi.ControlChangeEvent(tick=10, channel=5, data=[7, 28]),\n",
      "   midi.ControlChangeEvent(tick=10, channel=5, data=[7, 26]),\n",
      "   midi.ControlChangeEvent(tick=10, channel=5, data=[7, 24]),\n",
      "   midi.ControlChangeEvent(tick=10, channel=5, data=[7, 22]),\n",
      "   midi.ControlChangeEvent(tick=10, channel=5, data=[7, 20]),\n",
      "   midi.ControlChangeEvent(tick=10, channel=5, data=[7, 18]),\n",
      "   midi.ControlChangeEvent(tick=10, channel=5, data=[7, 16]),\n",
      "   midi.ControlChangeEvent(tick=10, channel=5, data=[7, 14]),\n",
      "   midi.ControlChangeEvent(tick=10, channel=5, data=[7, 12]),\n",
      "   midi.ControlChangeEvent(tick=10, channel=5, data=[7, 10]),\n",
      "   midi.ControlChangeEvent(tick=10, channel=5, data=[7, 8]),\n",
      "   midi.ControlChangeEvent(tick=10, channel=5, data=[7, 6]),\n",
      "   midi.ControlChangeEvent(tick=10, channel=5, data=[7, 4]),\n",
      "   midi.ControlChangeEvent(tick=10, channel=5, data=[7, 2]),\n",
      "   midi.ControlChangeEvent(tick=10, channel=5, data=[7, 0]),\n",
      "   midi.ControlChangeEvent(tick=1935, channel=5, data=[7, 1]),\n",
      "   midi.NoteOnEvent(tick=1, channel=5, data=[65, 127]),\n",
      "   midi.NoteOnEvent(tick=0, channel=5, data=[69, 127]),\n",
      "   midi.NoteOnEvent(tick=0, channel=5, data=[72, 127]),\n",
      "   midi.ControlChangeEvent(tick=10, channel=5, data=[7, 7]),\n",
      "   midi.ControlChangeEvent(tick=10, channel=5, data=[7, 14]),\n",
      "   midi.ControlChangeEvent(tick=10, channel=5, data=[7, 18]),\n",
      "   midi.ControlChangeEvent(tick=10, channel=5, data=[7, 22]),\n",
      "   midi.ControlChangeEvent(tick=10, channel=5, data=[7, 28]),\n",
      "   midi.ControlChangeEvent(tick=10, channel=5, data=[7, 33]),\n",
      "   midi.ControlChangeEvent(tick=10, channel=5, data=[7, 39]),\n",
      "   midi.ControlChangeEvent(tick=10, channel=5, data=[7, 44]),\n",
      "   midi.ControlChangeEvent(tick=10, channel=5, data=[7, 45]),\n",
      "   midi.ControlChangeEvent(tick=10, channel=5, data=[7, 48]),\n",
      "   midi.ControlChangeEvent(tick=10, channel=5, data=[7, 50]),\n",
      "   midi.ControlChangeEvent(tick=10, channel=5, data=[7, 52]),\n",
      "   midi.ControlChangeEvent(tick=10, channel=5, data=[7, 54]),\n",
      "   midi.ControlChangeEvent(tick=10, channel=5, data=[7, 57]),\n",
      "   midi.ControlChangeEvent(tick=10, channel=5, data=[7, 59]),\n",
      "   midi.ControlChangeEvent(tick=10, channel=5, data=[7, 60]),\n",
      "   midi.ControlChangeEvent(tick=10, channel=5, data=[7, 63]),\n",
      "   midi.ControlChangeEvent(tick=10, channel=5, data=[7, 65]),\n",
      "   midi.ControlChangeEvent(tick=10, channel=5, data=[7, 66]),\n",
      "   midi.ControlChangeEvent(tick=10, channel=5, data=[7, 68]),\n",
      "   midi.ControlChangeEvent(tick=10, channel=5, data=[7, 71]),\n",
      "   midi.ControlChangeEvent(tick=10, channel=5, data=[7, 73]),\n",
      "   midi.ControlChangeEvent(tick=10, channel=5, data=[7, 75]),\n",
      "   midi.ControlChangeEvent(tick=10, channel=5, data=[7, 77]),\n",
      "   midi.ControlChangeEvent(tick=10, channel=5, data=[7, 79]),\n",
      "   midi.ControlChangeEvent(tick=20, channel=5, data=[7, 82]),\n",
      "   midi.ControlChangeEvent(tick=20, channel=5, data=[7, 84]),\n",
      "   midi.ControlChangeEvent(tick=20, channel=5, data=[7, 86]),\n",
      "   midi.ControlChangeEvent(tick=10, channel=5, data=[7, 88]),\n",
      "   midi.ControlChangeEvent(tick=10, channel=5, data=[7, 91]),\n",
      "   midi.ControlChangeEvent(tick=10, channel=5, data=[7, 93]),\n",
      "   midi.ControlChangeEvent(tick=10, channel=5, data=[7, 95]),\n",
      "   midi.ControlChangeEvent(tick=20, channel=5, data=[7, 98]),\n",
      "   midi.ControlChangeEvent(tick=10, channel=5, data=[7, 100]),\n",
      "   midi.ControlChangeEvent(tick=10, channel=5, data=[7, 99]),\n",
      "   midi.ControlChangeEvent(tick=250, channel=5, data=[7, 100]),\n",
      "   midi.ControlChangeEvent(tick=250, channel=5, data=[7, 101]),\n",
      "   midi.NoteOnEvent(tick=70, channel=5, data=[72, 0]),\n",
      "   midi.NoteOnEvent(tick=0, channel=5, data=[69, 0]),\n",
      "   midi.NoteOnEvent(tick=0, channel=5, data=[65, 0]),\n",
      "   midi.NoteOnEvent(tick=0, channel=5, data=[86, 127]),\n",
      "   midi.NoteOnEvent(tick=0, channel=5, data=[71, 127]),\n",
      "   midi.NoteOnEvent(tick=0, channel=5, data=[67, 127]),\n",
      "   midi.ControlChangeEvent(tick=180, channel=5, data=[7, 102]),\n",
      "   midi.ControlChangeEvent(tick=250, channel=5, data=[7, 103]),\n",
      "   midi.ControlChangeEvent(tick=250, channel=5, data=[7, 104]),\n",
      "   midi.ControlChangeEvent(tick=250, channel=5, data=[7, 105]),\n",
      "   midi.NoteOnEvent(tick=30, channel=5, data=[67, 0]),\n",
      "   midi.NoteOnEvent(tick=0, channel=5, data=[71, 0]),\n",
      "   midi.NoteOnEvent(tick=0, channel=5, data=[86, 0]),\n",
      "   midi.NoteOnEvent(tick=0, channel=5, data=[72, 127]),\n",
      "   midi.NoteOnEvent(tick=0, channel=5, data=[69, 127]),\n",
      "   midi.NoteOnEvent(tick=0, channel=5, data=[76, 127]),\n",
      "   midi.NoteOnEvent(tick=0, channel=5, data=[81, 127]),\n",
      "   midi.ControlChangeEvent(tick=220, channel=5, data=[7, 106]),\n",
      "   midi.ControlChangeEvent(tick=250, channel=5, data=[7, 107]),\n",
      "   midi.ControlChangeEvent(tick=250, channel=5, data=[7, 109]),\n",
      "   midi.ControlChangeEvent(tick=70, channel=5, data=[7, 110]),\n",
      "   midi.ControlChangeEvent(tick=70, channel=5, data=[7, 111]),\n",
      "   midi.ControlChangeEvent(tick=60, channel=5, data=[7, 112]),\n",
      "   midi.ControlChangeEvent(tick=70, channel=5, data=[7, 113]),\n",
      "   midi.ControlChangeEvent(tick=70, channel=5, data=[7, 114]),\n",
      "   midi.ControlChangeEvent(tick=60, channel=5, data=[7, 115]),\n",
      "   midi.ControlChangeEvent(tick=70, channel=5, data=[7, 116]),\n",
      "   midi.ControlChangeEvent(tick=70, channel=5, data=[7, 117]),\n",
      "   midi.ControlChangeEvent(tick=60, channel=5, data=[7, 118]),\n",
      "   midi.ControlChangeEvent(tick=70, channel=5, data=[7, 119]),\n",
      "   midi.ControlChangeEvent(tick=50, channel=5, data=[7, 121]),\n",
      "   midi.ControlChangeEvent(tick=90, channel=5, data=[7, 120]),\n",
      "   midi.ControlChangeEvent(tick=50, channel=5, data=[7, 119]),\n",
      "   midi.ControlChangeEvent(tick=60, channel=5, data=[7, 118]),\n",
      "   midi.ControlChangeEvent(tick=60, channel=5, data=[7, 117]),\n",
      "   midi.ControlChangeEvent(tick=30, channel=5, data=[7, 116]),\n",
      "   midi.ControlChangeEvent(tick=20, channel=5, data=[7, 115]),\n",
      "   midi.ControlChangeEvent(tick=20, channel=5, data=[7, 113]),\n",
      "   midi.ControlChangeEvent(tick=20, channel=5, data=[7, 111]),\n",
      "   midi.ControlChangeEvent(tick=20, channel=5, data=[7, 109]),\n",
      "   midi.ControlChangeEvent(tick=20, channel=5, data=[7, 105]),\n",
      "   midi.ControlChangeEvent(tick=20, channel=5, data=[7, 103]),\n",
      "   midi.ControlChangeEvent(tick=10, channel=5, data=[7, 101]),\n",
      "   midi.ControlChangeEvent(tick=10, channel=5, data=[7, 98]),\n",
      "   midi.ControlChangeEvent(tick=10, channel=5, data=[7, 97]),\n",
      "   midi.ControlChangeEvent(tick=20, channel=5, data=[7, 96]),\n",
      "   midi.ControlChangeEvent(tick=10, channel=5, data=[7, 95]),\n",
      "   midi.ControlChangeEvent(tick=10, channel=5, data=[7, 90]),\n",
      "   midi.ControlChangeEvent(tick=10, channel=5, data=[7, 89]),\n",
      "   midi.ControlChangeEvent(tick=10, channel=5, data=[7, 87]),\n",
      "   midi.ControlChangeEvent(tick=30, channel=5, data=[7, 85]),\n",
      "   midi.ControlChangeEvent(tick=10, channel=5, data=[7, 82]),\n",
      "   midi.ControlChangeEvent(tick=20, channel=5, data=[7, 80]),\n",
      "   midi.ControlChangeEvent(tick=10, channel=5, data=[7, 78]),\n",
      "   midi.ControlChangeEvent(tick=20, channel=5, data=[7, 76]),\n",
      "   midi.ControlChangeEvent(tick=10, channel=5, data=[7, 74]),\n",
      "   midi.ControlChangeEvent(tick=10, channel=5, data=[7, 72]),\n",
      "   midi.ControlChangeEvent(tick=20, channel=5, data=[7, 70]),\n",
      "   midi.ControlChangeEvent(tick=10, channel=5, data=[7, 69]),\n",
      "   midi.ControlChangeEvent(tick=10, channel=5, data=[7, 68]),\n",
      "   midi.ControlChangeEvent(tick=20, channel=5, data=[7, 66]),\n",
      "   midi.ControlChangeEvent(tick=20, channel=5, data=[7, 63]),\n",
      "   midi.ControlChangeEvent(tick=20, channel=5, data=[7, 61]),\n",
      "   midi.ControlChangeEvent(tick=10, channel=5, data=[7, 58]),\n",
      "   midi.ControlChangeEvent(tick=20, channel=5, data=[7, 56]),\n",
      "   midi.ControlChangeEvent(tick=30, channel=5, data=[7, 54]),\n",
      "   midi.ControlChangeEvent(tick=30, channel=5, data=[7, 52]),\n",
      "   midi.ControlChangeEvent(tick=20, channel=5, data=[7, 50]),\n",
      "   midi.ControlChangeEvent(tick=20, channel=5, data=[7, 48]),\n",
      "   midi.ControlChangeEvent(tick=20, channel=5, data=[7, 46]),\n",
      "   midi.ControlChangeEvent(tick=30, channel=5, data=[7, 43]),\n",
      "   midi.ControlChangeEvent(tick=10, channel=5, data=[7, 40]),\n",
      "   midi.ControlChangeEvent(tick=10, channel=5, data=[7, 38]),\n",
      "   midi.ControlChangeEvent(tick=20, channel=5, data=[7, 36]),\n",
      "   midi.ControlChangeEvent(tick=30, channel=5, data=[7, 33]),\n",
      "   midi.ControlChangeEvent(tick=20, channel=5, data=[7, 31]),\n",
      "   midi.ControlChangeEvent(tick=20, channel=5, data=[7, 29]),\n",
      "   midi.ControlChangeEvent(tick=20, channel=5, data=[7, 27]),\n",
      "   midi.ControlChangeEvent(tick=20, channel=5, data=[7, 24]),\n",
      "   midi.ControlChangeEvent(tick=30, channel=5, data=[7, 21]),\n",
      "   midi.ControlChangeEvent(tick=20, channel=5, data=[7, 20]),\n",
      "   midi.ControlChangeEvent(tick=30, channel=5, data=[7, 18]),\n",
      "   midi.ControlChangeEvent(tick=20, channel=5, data=[7, 17]),\n",
      "   midi.ControlChangeEvent(tick=10, channel=5, data=[7, 16]),\n",
      "   midi.ControlChangeEvent(tick=20, channel=5, data=[7, 15]),\n",
      "   midi.ControlChangeEvent(tick=30, channel=5, data=[7, 14]),\n",
      "   midi.ControlChangeEvent(tick=20, channel=5, data=[7, 13]),\n",
      "   midi.ControlChangeEvent(tick=10, channel=5, data=[7, 12]),\n",
      "   midi.ControlChangeEvent(tick=10, channel=5, data=[7, 11]),\n",
      "   midi.ControlChangeEvent(tick=10, channel=5, data=[7, 10]),\n",
      "   midi.ControlChangeEvent(tick=10, channel=5, data=[7, 9]),\n",
      "   midi.ControlChangeEvent(tick=10, channel=5, data=[7, 8]),\n",
      "   midi.ControlChangeEvent(tick=20, channel=5, data=[7, 7]),\n",
      "   midi.ControlChangeEvent(tick=10, channel=5, data=[7, 6]),\n",
      "   midi.ControlChangeEvent(tick=10, channel=5, data=[7, 5]),\n",
      "   midi.ControlChangeEvent(tick=20, channel=5, data=[7, 3]),\n",
      "   midi.ControlChangeEvent(tick=20, channel=5, data=[7, 2]),\n",
      "   midi.ControlChangeEvent(tick=10, channel=5, data=[7, 1]),\n",
      "   midi.ControlChangeEvent(tick=10, channel=5, data=[7, 0]),\n",
      "   midi.NoteOnEvent(tick=70, channel=5, data=[81, 0]),\n",
      "   midi.NoteOnEvent(tick=0, channel=5, data=[72, 0]),\n",
      "   midi.NoteOnEvent(tick=0, channel=5, data=[69, 0]),\n",
      "   midi.NoteOnEvent(tick=0, channel=5, data=[76, 0]),\n",
      "   midi.ControlChangeEvent(tick=590, channel=5, data=[7, 0]),\n",
      "   midi.ControlChangeEvent(tick=0, channel=5, data=[7, 121]),\n",
      "   midi.NoteOnEvent(tick=6130, channel=5, data=[69, 122]),\n",
      "   midi.NoteOnEvent(tick=0, channel=5, data=[65, 117]),\n",
      "   midi.NoteOnEvent(tick=0, channel=5, data=[72, 120]),\n",
      "   midi.NoteOnEvent(tick=904, channel=5, data=[65, 0]),\n",
      "   midi.NoteOnEvent(tick=10, channel=5, data=[72, 0]),\n",
      "   midi.NoteOnEvent(tick=2, channel=5, data=[69, 0]),\n",
      "   midi.NoteOnEvent(tick=44, channel=5, data=[71, 127]),\n",
      "   midi.NoteOnEvent(tick=0, channel=5, data=[74, 127]),\n",
      "   midi.NoteOnEvent(tick=0, channel=5, data=[67, 122]),\n",
      "   midi.NoteOnEvent(tick=925, channel=5, data=[74, 0]),\n",
      "   midi.NoteOnEvent(tick=1, channel=5, data=[67, 0]),\n",
      "   midi.NoteOnEvent(tick=3, channel=5, data=[71, 0]),\n",
      "   midi.NoteOnEvent(tick=31, channel=5, data=[72, 127]),\n",
      "   midi.NoteOnEvent(tick=0, channel=5, data=[69, 127]),\n",
      "   midi.NoteOnEvent(tick=0, channel=5, data=[65, 127]),\n",
      "   midi.NoteOnEvent(tick=894, channel=5, data=[65, 0]),\n",
      "   midi.NoteOnEvent(tick=12, channel=5, data=[69, 0]),\n",
      "   midi.NoteOnEvent(tick=3, channel=5, data=[72, 0]),\n",
      "   midi.NoteOnEvent(tick=51, channel=5, data=[71, 127]),\n",
      "   midi.NoteOnEvent(tick=0, channel=5, data=[74, 127]),\n",
      "   midi.NoteOnEvent(tick=0, channel=5, data=[67, 127]),\n",
      "   midi.ControlChangeEvent(tick=480, channel=5, data=[7, 123]),\n",
      "   midi.ControlChangeEvent(tick=10, channel=5, data=[7, 121]),\n",
      "   midi.ControlChangeEvent(tick=10, channel=5, data=[7, 119]),\n",
      "   midi.ControlChangeEvent(tick=10, channel=5, data=[7, 117]),\n",
      "   midi.ControlChangeEvent(tick=10, channel=5, data=[7, 115]),\n",
      "   midi.ControlChangeEvent(tick=10, channel=5, data=[7, 112]),\n",
      "   midi.ControlChangeEvent(tick=10, channel=5, data=[7, 110]),\n",
      "   midi.ControlChangeEvent(tick=10, channel=5, data=[7, 108]),\n",
      "   midi.ControlChangeEvent(tick=10, channel=5, data=[7, 106]),\n",
      "   midi.ControlChangeEvent(tick=10, channel=5, data=[7, 103]),\n",
      "   midi.ControlChangeEvent(tick=10, channel=5, data=[7, 101]),\n",
      "   midi.ControlChangeEvent(tick=10, channel=5, data=[7, 99]),\n",
      "   midi.ControlChangeEvent(tick=10, channel=5, data=[7, 97]),\n",
      "   midi.ControlChangeEvent(tick=10, channel=5, data=[7, 94]),\n",
      "   midi.ControlChangeEvent(tick=10, channel=5, data=[7, 92]),\n",
      "   midi.ControlChangeEvent(tick=10, channel=5, data=[7, 90]),\n",
      "   midi.ControlChangeEvent(tick=10, channel=5, data=[7, 88]),\n",
      "   midi.ControlChangeEvent(tick=10, channel=5, data=[7, 85]),\n",
      "   midi.ControlChangeEvent(tick=10, channel=5, data=[7, 83]),\n",
      "   midi.ControlChangeEvent(tick=10, channel=5, data=[7, 81]),\n",
      "   midi.ControlChangeEvent(tick=10, channel=5, data=[7, 79]),\n",
      "   midi.ControlChangeEvent(tick=10, channel=5, data=[7, 77]),\n",
      "   midi.ControlChangeEvent(tick=10, channel=5, data=[7, 74]),\n",
      "   midi.ControlChangeEvent(tick=10, channel=5, data=[7, 72]),\n",
      "   midi.ControlChangeEvent(tick=10, channel=5, data=[7, 70]),\n",
      "   midi.ControlChangeEvent(tick=10, channel=5, data=[7, 68]),\n",
      "   midi.ControlChangeEvent(tick=10, channel=5, data=[7, 65]),\n",
      "   midi.ControlChangeEvent(tick=10, channel=5, data=[7, 63]),\n",
      "   midi.ControlChangeEvent(tick=10, channel=5, data=[7, 61]),\n",
      "   midi.ControlChangeEvent(tick=10, channel=5, data=[7, 59]),\n",
      "   midi.ControlChangeEvent(tick=10, channel=5, data=[7, 56]),\n",
      "   midi.ControlChangeEvent(tick=10, channel=5, data=[7, 54]),\n",
      "   midi.ControlChangeEvent(tick=10, channel=5, data=[7, 52]),\n",
      "   midi.ControlChangeEvent(tick=10, channel=5, data=[7, 50]),\n",
      "   midi.ControlChangeEvent(tick=10, channel=5, data=[7, 47]),\n",
      "   midi.ControlChangeEvent(tick=10, channel=5, data=[7, 45]),\n",
      "   midi.ControlChangeEvent(tick=10, channel=5, data=[7, 43]),\n",
      "   midi.ControlChangeEvent(tick=10, channel=5, data=[7, 41]),\n",
      "   midi.ControlChangeEvent(tick=10, channel=5, data=[7, 39]),\n",
      "   midi.ControlChangeEvent(tick=10, channel=5, data=[7, 36]),\n",
      "   midi.ControlChangeEvent(tick=10, channel=5, data=[7, 34]),\n",
      "   midi.ControlChangeEvent(tick=10, channel=5, data=[7, 32]),\n",
      "   midi.ControlChangeEvent(tick=10, channel=5, data=[7, 30]),\n",
      "   midi.ControlChangeEvent(tick=10, channel=5, data=[7, 27]),\n",
      "   midi.ControlChangeEvent(tick=10, channel=5, data=[7, 25]),\n",
      "   midi.ControlChangeEvent(tick=10, channel=5, data=[7, 23]),\n",
      "   midi.ControlChangeEvent(tick=10, channel=5, data=[7, 21]),\n",
      "   midi.ControlChangeEvent(tick=10, channel=5, data=[7, 18]),\n",
      "   midi.ControlChangeEvent(tick=10, channel=5, data=[7, 16]),\n",
      "   midi.ControlChangeEvent(tick=10, channel=5, data=[7, 14]),\n",
      "   midi.ControlChangeEvent(tick=10, channel=5, data=[7, 12]),\n",
      "   midi.ControlChangeEvent(tick=10, channel=5, data=[7, 9]),\n",
      "   midi.ControlChangeEvent(tick=10, channel=5, data=[7, 7]),\n",
      "   midi.ControlChangeEvent(tick=10, channel=5, data=[7, 5]),\n",
      "   midi.NoteOnEvent(tick=8, channel=5, data=[71, 0]),\n",
      "   midi.NoteOnEvent(tick=2, channel=5, data=[74, 0]),\n",
      "   midi.ControlChangeEvent(tick=0, channel=5, data=[7, 3]),\n",
      "   midi.NoteOnEvent(tick=1, channel=5, data=[67, 0]),\n",
      "   midi.ControlChangeEvent(tick=9, channel=5, data=[7, 0]),\n",
      "   midi.ControlChangeEvent(tick=5320, channel=5, data=[7, 0]),\n",
      "   midi.ControlChangeEvent(tick=0, channel=5, data=[7, 121]),\n",
      "   midi.NoteOnEvent(tick=6130, channel=5, data=[69, 122]),\n",
      "   midi.NoteOnEvent(tick=0, channel=5, data=[65, 117]),\n",
      "   midi.NoteOnEvent(tick=0, channel=5, data=[72, 120]),\n",
      "   midi.NoteOnEvent(tick=904, channel=5, data=[65, 0]),\n",
      "   midi.NoteOnEvent(tick=10, channel=5, data=[72, 0]),\n",
      "   midi.NoteOnEvent(tick=2, channel=5, data=[69, 0]),\n",
      "   midi.NoteOnEvent(tick=44, channel=5, data=[71, 127]),\n",
      "   midi.NoteOnEvent(tick=0, channel=5, data=[74, 127]),\n",
      "   midi.NoteOnEvent(tick=0, channel=5, data=[67, 122]),\n",
      "   midi.NoteOnEvent(tick=925, channel=5, data=[74, 0]),\n",
      "   midi.NoteOnEvent(tick=1, channel=5, data=[67, 0]),\n",
      "   midi.NoteOnEvent(tick=3, channel=5, data=[71, 0]),\n",
      "   midi.NoteOnEvent(tick=31, channel=5, data=[72, 127]),\n",
      "   midi.NoteOnEvent(tick=0, channel=5, data=[65, 127]),\n",
      "   midi.NoteOnEvent(tick=0, channel=5, data=[69, 127]),\n",
      "   midi.NoteOnEvent(tick=894, channel=5, data=[65, 0]),\n",
      "   midi.NoteOnEvent(tick=12, channel=5, data=[69, 0]),\n",
      "   midi.NoteOnEvent(tick=3, channel=5, data=[72, 0]),\n",
      "   midi.NoteOnEvent(tick=51, channel=5, data=[67, 127]),\n",
      "   midi.NoteOnEvent(tick=0, channel=5, data=[74, 127]),\n",
      "   midi.NoteOnEvent(tick=0, channel=5, data=[71, 127]),\n",
      "   midi.ControlChangeEvent(tick=0, channel=5, data=[7, 108]),\n",
      "   midi.ControlChangeEvent(tick=10, channel=5, data=[7, 107]),\n",
      "   midi.ControlChangeEvent(tick=20, channel=5, data=[7, 106]),\n",
      "   midi.ControlChangeEvent(tick=10, channel=5, data=[7, 105]),\n",
      "   midi.ControlChangeEvent(tick=30, channel=5, data=[7, 104]),\n",
      "   midi.ControlChangeEvent(tick=30, channel=5, data=[7, 103]),\n",
      "   midi.ControlChangeEvent(tick=50, channel=5, data=[7, 102]),\n",
      "   midi.ControlChangeEvent(tick=10, channel=5, data=[7, 101]),\n",
      "   midi.ControlChangeEvent(tick=20, channel=5, data=[7, 100]),\n",
      "   midi.ControlChangeEvent(tick=20, channel=5, data=[7, 99]),\n",
      "   midi.ControlChangeEvent(tick=40, channel=5, data=[7, 98]),\n",
      "   midi.ControlChangeEvent(tick=10, channel=5, data=[7, 97]),\n",
      "   midi.ControlChangeEvent(tick=30, channel=5, data=[7, 96]),\n",
      "   midi.ControlChangeEvent(tick=30, channel=5, data=[7, 95]),\n",
      "   midi.ControlChangeEvent(tick=20, channel=5, data=[7, 94]),\n",
      "   midi.ControlChangeEvent(tick=20, channel=5, data=[7, 93]),\n",
      "   midi.ControlChangeEvent(tick=20, channel=5, data=[7, 92]),\n",
      "   midi.ControlChangeEvent(tick=10, channel=5, data=[7, 91]),\n",
      "   midi.ControlChangeEvent(tick=20, channel=5, data=[7, 90]),\n",
      "   midi.ControlChangeEvent(tick=30, channel=5, data=[7, 89]),\n",
      "   midi.ControlChangeEvent(tick=40, channel=5, data=[7, 88]),\n",
      "   midi.ControlChangeEvent(tick=30, channel=5, data=[7, 87]),\n",
      "   midi.ControlChangeEvent(tick=10, channel=5, data=[7, 86]),\n",
      "   midi.ControlChangeEvent(tick=10, channel=5, data=[7, 85]),\n",
      "   midi.ControlChangeEvent(tick=20, channel=5, data=[7, 84]),\n",
      "   midi.ControlChangeEvent(tick=10, channel=5, data=[7, 83]),\n",
      "   midi.ControlChangeEvent(tick=10, channel=5, data=[7, 80]),\n",
      "   midi.ControlChangeEvent(tick=30, channel=5, data=[7, 78]),\n",
      "   midi.ControlChangeEvent(tick=10, channel=5, data=[7, 77]),\n",
      "   midi.ControlChangeEvent(tick=20, channel=5, data=[7, 75]),\n",
      "   midi.ControlChangeEvent(tick=10, channel=5, data=[7, 74]),\n",
      "   midi.ControlChangeEvent(tick=20, channel=5, data=[7, 73]),\n",
      "   midi.ControlChangeEvent(tick=20, channel=5, data=[7, 71]),\n",
      "   midi.ControlChangeEvent(tick=10, channel=5, data=[7, 69]),\n",
      "   midi.ControlChangeEvent(tick=10, channel=5, data=[7, 68]),\n",
      "   midi.ControlChangeEvent(tick=20, channel=5, data=[7, 66]),\n",
      "   midi.ControlChangeEvent(tick=10, channel=5, data=[7, 65]),\n",
      "   midi.ControlChangeEvent(tick=20, channel=5, data=[7, 64]),\n",
      "   midi.ControlChangeEvent(tick=10, channel=5, data=[7, 62]),\n",
      "   midi.ControlChangeEvent(tick=20, channel=5, data=[7, 60]),\n",
      "   midi.ControlChangeEvent(tick=10, channel=5, data=[7, 59]),\n",
      "   midi.ControlChangeEvent(tick=10, channel=5, data=[7, 58]),\n",
      "   midi.ControlChangeEvent(tick=10, channel=5, data=[7, 57]),\n",
      "   midi.ControlChangeEvent(tick=10, channel=5, data=[7, 55]),\n",
      "   midi.ControlChangeEvent(tick=10, channel=5, data=[7, 52]),\n",
      "   midi.ControlChangeEvent(tick=10, channel=5, data=[7, 51]),\n",
      "   midi.ControlChangeEvent(tick=10, channel=5, data=[7, 50]),\n",
      "   midi.ControlChangeEvent(tick=10, channel=5, data=[7, 48]),\n",
      "   midi.ControlChangeEvent(tick=10, channel=5, data=[7, 45]),\n",
      "   midi.ControlChangeEvent(tick=10, channel=5, data=[7, 43]),\n",
      "   midi.ControlChangeEvent(tick=10, channel=5, data=[7, 42]),\n",
      "   midi.ControlChangeEvent(tick=10, channel=5, data=[7, 40]),\n",
      "   midi.ControlChangeEvent(tick=10, channel=5, data=[7, 38]),\n",
      "   midi.ControlChangeEvent(tick=10, channel=5, data=[7, 37]),\n",
      "   midi.NoteOnEvent(tick=1, channel=5, data=[74, 0]),\n",
      "   midi.NoteOnEvent(tick=2, channel=5, data=[71, 0]),\n",
      "   midi.NoteOnEvent(tick=4, channel=5, data=[67, 0]),\n",
      "   midi.ControlChangeEvent(tick=3, channel=5, data=[7, 36]),\n",
      "   midi.ControlChangeEvent(tick=10, channel=5, data=[7, 32]),\n",
      "   midi.ControlChangeEvent(tick=10, channel=5, data=[7, 25]),\n",
      "   midi.ControlChangeEvent(tick=10, channel=5, data=[7, 20]),\n",
      "   midi.NoteOnEvent(tick=10, channel=5, data=[36, 127]),\n",
      "   midi.NoteOnEvent(tick=0, channel=5, data=[48, 127]),\n",
      "   midi.NoteOnEvent(tick=0, channel=5, data=[67, 127]),\n",
      "   midi.ControlChangeEvent(tick=0, channel=5, data=[7, 16]),\n",
      "   midi.NoteOnEvent(tick=0, channel=5, data=[72, 127]),\n",
      "   midi.NoteOnEvent(tick=0, channel=5, data=[76, 127]),\n",
      "   midi.ControlChangeEvent(tick=10, channel=5, data=[7, 15]),\n",
      "   midi.ControlChangeEvent(tick=10, channel=5, data=[7, 20]),\n",
      "   midi.ControlChangeEvent(tick=10, channel=5, data=[7, 22]),\n",
      "   midi.ControlChangeEvent(tick=10, channel=5, data=[7, 24]),\n",
      "   midi.ControlChangeEvent(tick=10, channel=5, data=[7, 25]),\n",
      "   midi.ControlChangeEvent(tick=10, channel=5, data=[7, 30]),\n",
      "   midi.ControlChangeEvent(tick=10, channel=5, data=[7, 33]),\n",
      "   midi.ControlChangeEvent(tick=10, channel=5, data=[7, 37]),\n",
      "   midi.ControlChangeEvent(tick=10, channel=5, data=[7, 45]),\n",
      "   midi.ControlChangeEvent(tick=10, channel=5, data=[7, 46]),\n",
      "   midi.ControlChangeEvent(tick=10, channel=5, data=[7, 52]),\n",
      "   midi.ControlChangeEvent(tick=10, channel=5, data=[7, 54]),\n",
      "   midi.ControlChangeEvent(tick=10, channel=5, data=[7, 57]),\n",
      "   midi.ControlChangeEvent(tick=10, channel=5, data=[7, 59]),\n",
      "   midi.ControlChangeEvent(tick=10, channel=5, data=[7, 61]),\n",
      "   midi.ControlChangeEvent(tick=20, channel=5, data=[7, 63]),\n",
      "   midi.ControlChangeEvent(tick=10, channel=5, data=[7, 65]),\n",
      "   midi.ControlChangeEvent(tick=20, channel=5, data=[7, 67]),\n",
      "   midi.ControlChangeEvent(tick=40, channel=5, data=[7, 68]),\n",
      "   midi.ControlChangeEvent(tick=10, channel=5, data=[7, 69]),\n",
      "   midi.ControlChangeEvent(tick=20, channel=5, data=[7, 70]),\n",
      "   midi.ControlChangeEvent(tick=10, channel=5, data=[7, 71]),\n",
      "   midi.ControlChangeEvent(tick=40, channel=5, data=[7, 73]),\n",
      "   midi.ControlChangeEvent(tick=40, channel=5, data=[7, 74]),\n",
      "   midi.ControlChangeEvent(tick=40, channel=5, data=[7, 75]),\n",
      "   midi.ControlChangeEvent(tick=30, channel=5, data=[7, 76]),\n",
      "   midi.ControlChangeEvent(tick=40, channel=5, data=[7, 77]),\n",
      "   midi.ControlChangeEvent(tick=30, channel=5, data=[7, 78]),\n",
      "   midi.ControlChangeEvent(tick=40, channel=5, data=[7, 79]),\n",
      "   midi.ControlChangeEvent(tick=30, channel=5, data=[7, 80]),\n",
      "   midi.ControlChangeEvent(tick=40, channel=5, data=[7, 81]),\n",
      "   midi.ControlChangeEvent(tick=30, channel=5, data=[7, 82]),\n",
      "   midi.ControlChangeEvent(tick=40, channel=5, data=[7, 83]),\n",
      "   midi.ControlChangeEvent(tick=40, channel=5, data=[7, 84]),\n",
      "   midi.ControlChangeEvent(tick=30, channel=5, data=[7, 85]),\n",
      "   midi.ControlChangeEvent(tick=40, channel=5, data=[7, 86]),\n",
      "   midi.ControlChangeEvent(tick=30, channel=5, data=[7, 87]),\n",
      "   midi.ControlChangeEvent(tick=40, channel=5, data=[7, 88]),\n",
      "   midi.ControlChangeEvent(tick=30, channel=5, data=[7, 89]),\n",
      "   midi.ControlChangeEvent(tick=40, channel=5, data=[7, 90]),\n",
      "   midi.ControlChangeEvent(tick=30, channel=5, data=[7, 91]),\n",
      "   midi.ControlChangeEvent(tick=40, channel=5, data=[7, 92]),\n",
      "   midi.ControlChangeEvent(tick=40, channel=5, data=[7, 93]),\n",
      "   midi.ControlChangeEvent(tick=30, channel=5, data=[7, 94]),\n",
      "   midi.ControlChangeEvent(tick=40, channel=5, data=[7, 95]),\n",
      "   midi.ControlChangeEvent(tick=30, channel=5, data=[7, 96]),\n",
      "   midi.ControlChangeEvent(tick=40, channel=5, data=[7, 97]),\n",
      "   midi.ControlChangeEvent(tick=30, channel=5, data=[7, 98]),\n",
      "   midi.ControlChangeEvent(tick=40, channel=5, data=[7, 99]),\n",
      "   midi.ControlChangeEvent(tick=30, channel=5, data=[7, 100]),\n",
      "   midi.ControlChangeEvent(tick=40, channel=5, data=[7, 101]),\n",
      "   midi.ControlChangeEvent(tick=40, channel=5, data=[7, 102]),\n",
      "   midi.ControlChangeEvent(tick=30, channel=5, data=[7, 103]),\n",
      "   midi.ControlChangeEvent(tick=40, channel=5, data=[7, 104]),\n",
      "   midi.ControlChangeEvent(tick=30, channel=5, data=[7, 105]),\n",
      "   midi.ControlChangeEvent(tick=40, channel=5, data=[7, 106]),\n",
      "   midi.ControlChangeEvent(tick=30, channel=5, data=[7, 107]),\n",
      "   midi.ControlChangeEvent(tick=40, channel=5, data=[7, 108]),\n",
      "   midi.ControlChangeEvent(tick=30, channel=5, data=[7, 109]),\n",
      "   midi.ControlChangeEvent(tick=40, channel=5, data=[7, 110]),\n",
      "   midi.ControlChangeEvent(tick=40, channel=5, data=[7, 111]),\n",
      "   midi.ControlChangeEvent(tick=30, channel=5, data=[7, 112]),\n",
      "   midi.ControlChangeEvent(tick=40, channel=5, data=[7, 113]),\n",
      "   midi.ControlChangeEvent(tick=30, channel=5, data=[7, 114]),\n",
      "   midi.ControlChangeEvent(tick=40, channel=5, data=[7, 115]),\n",
      "   midi.ControlChangeEvent(tick=30, channel=5, data=[7, 116]),\n",
      "   midi.ControlChangeEvent(tick=40, channel=5, data=[7, 117]),\n",
      "   midi.NoteOnEvent(tick=11, channel=5, data=[76, 0]),\n",
      "   midi.NoteOnEvent(tick=0, channel=5, data=[72, 0]),\n",
      "   midi.NoteOnEvent(tick=5, channel=5, data=[36, 0]),\n",
      "   midi.NoteOnEvent(tick=0, channel=5, data=[48, 0]),\n",
      "   midi.NoteOnEvent(tick=0, channel=5, data=[67, 0]),\n",
      "   midi.NoteOnEvent(tick=14, channel=5, data=[76, 120]),\n",
      "   midi.NoteOnEvent(tick=0, channel=5, data=[72, 120]),\n",
      "   midi.NoteOnEvent(tick=0, channel=5, data=[69, 118]),\n",
      "   midi.NoteOnEvent(tick=917, channel=5, data=[76, 0]),\n",
      "   midi.NoteOnEvent(tick=2, channel=5, data=[72, 0]),\n",
      "   midi.NoteOnEvent(tick=2, channel=5, data=[69, 0]),\n",
      "   midi.NoteOnEvent(tick=39, channel=5, data=[71, 127]),\n",
      "   midi.NoteOnEvent(tick=0, channel=5, data=[74, 127]),\n",
      "   midi.NoteOnEvent(tick=0, channel=5, data=[67, 127]),\n",
      "   midi.NoteOnEvent(tick=914, channel=5, data=[67, 0]),\n",
      "   midi.NoteOnEvent(tick=1, channel=5, data=[74, 0]),\n",
      "   midi.NoteOnEvent(tick=2, channel=5, data=[71, 0]),\n",
      "   midi.NoteOnEvent(tick=43, channel=5, data=[76, 127]),\n",
      "   midi.NoteOnEvent(tick=0, channel=5, data=[69, 127]),\n",
      "   midi.NoteOnEvent(tick=0, channel=5, data=[72, 127]),\n",
      "   midi.NoteOnEvent(tick=917, channel=5, data=[72, 0]),\n",
      "   midi.NoteOnEvent(tick=0, channel=5, data=[76, 0]),\n",
      "   midi.NoteOnEvent(tick=2, channel=5, data=[69, 0]),\n",
      "   midi.NoteOnEvent(tick=41, channel=5, data=[74, 127]),\n",
      "   midi.NoteOnEvent(tick=0, channel=5, data=[71, 127]),\n",
      "   midi.NoteOnEvent(tick=0, channel=5, data=[67, 127]),\n",
      "   midi.NoteOnEvent(tick=913, channel=5, data=[67, 0]),\n",
      "   midi.NoteOnEvent(tick=1, channel=5, data=[74, 0]),\n",
      "   midi.NoteOnEvent(tick=1, channel=5, data=[71, 0]),\n",
      "   midi.NoteOnEvent(tick=45, channel=5, data=[72, 127]),\n",
      "   midi.NoteOnEvent(tick=0, channel=5, data=[69, 127]),\n",
      "   midi.NoteOnEvent(tick=0, channel=5, data=[65, 127]),\n",
      "   midi.NoteOnEvent(tick=940, channel=5, data=[65, 0]),\n",
      "   midi.NoteOnEvent(tick=6, channel=5, data=[69, 0]),\n",
      "   midi.NoteOnEvent(tick=1, channel=5, data=[72, 0]),\n",
      "   midi.NoteOnEvent(tick=13, channel=5, data=[71, 127]),\n",
      "   midi.NoteOnEvent(tick=0, channel=5, data=[74, 127]),\n",
      "   midi.NoteOnEvent(tick=0, channel=5, data=[67, 127]),\n",
      "   midi.NoteOnEvent(tick=926, channel=5, data=[74, 0]),\n",
      "   midi.NoteOnEvent(tick=4, channel=5, data=[67, 0]),\n",
      "   midi.NoteOnEvent(tick=0, channel=5, data=[71, 0]),\n",
      "   midi.NoteOnEvent(tick=30, channel=5, data=[69, 127]),\n",
      "   midi.NoteOnEvent(tick=0, channel=5, data=[72, 127]),\n",
      "   midi.NoteOnEvent(tick=0, channel=5, data=[65, 127]),\n",
      "   midi.NoteOnEvent(tick=917, channel=5, data=[65, 0]),\n",
      "   midi.NoteOnEvent(tick=4, channel=5, data=[72, 0]),\n",
      "   midi.NoteOnEvent(tick=3, channel=5, data=[69, 0]),\n",
      "   midi.NoteOnEvent(tick=36, channel=5, data=[74, 127]),\n",
      "   midi.NoteOnEvent(tick=0, channel=5, data=[71, 127]),\n",
      "   midi.NoteOnEvent(tick=0, channel=5, data=[67, 127]),\n",
      "   midi.ControlChangeEvent(tick=0, channel=5, data=[7, 111]),\n",
      "   midi.NoteOnEvent(tick=960, channel=5, data=[67, 0]),\n",
      "   midi.NoteOnEvent(tick=0, channel=5, data=[71, 0]),\n",
      "   midi.NoteOnEvent(tick=0, channel=5, data=[74, 0]),\n",
      "   midi.ControlChangeEvent(tick=0, channel=5, data=[7, 111]),\n",
      "   midi.ControlChangeEvent(tick=10, channel=5, data=[7, 108]),\n",
      "   midi.ControlChangeEvent(tick=10, channel=5, data=[7, 105]),\n",
      "   midi.ControlChangeEvent(tick=10, channel=5, data=[7, 102]),\n",
      "   midi.ControlChangeEvent(tick=10, channel=5, data=[7, 99]),\n",
      "   midi.ControlChangeEvent(tick=10, channel=5, data=[7, 96]),\n",
      "   midi.ControlChangeEvent(tick=10, channel=5, data=[7, 93]),\n",
      "   midi.ControlChangeEvent(tick=10, channel=5, data=[7, 90]),\n",
      "   midi.ControlChangeEvent(tick=10, channel=5, data=[7, 87]),\n",
      "   midi.ControlChangeEvent(tick=10, channel=5, data=[7, 84]),\n",
      "   midi.ControlChangeEvent(tick=10, channel=5, data=[7, 81]),\n",
      "   midi.ControlChangeEvent(tick=10, channel=5, data=[7, 78]),\n",
      "   midi.ControlChangeEvent(tick=10, channel=5, data=[7, 75]),\n",
      "   midi.ControlChangeEvent(tick=10, channel=5, data=[7, 72]),\n",
      "   midi.ControlChangeEvent(tick=10, channel=5, data=[7, 69]),\n",
      "   midi.ControlChangeEvent(tick=10, channel=5, data=[7, 66]),\n",
      "   midi.ControlChangeEvent(tick=10, channel=5, data=[7, 63]),\n",
      "   midi.ControlChangeEvent(tick=10, channel=5, data=[7, 60]),\n",
      "   midi.ControlChangeEvent(tick=10, channel=5, data=[7, 57]),\n",
      "   midi.ControlChangeEvent(tick=10, channel=5, data=[7, 54]),\n",
      "   midi.ControlChangeEvent(tick=10, channel=5, data=[7, 51]),\n",
      "   midi.ControlChangeEvent(tick=10, channel=5, data=[7, 48]),\n",
      "   midi.ControlChangeEvent(tick=10, channel=5, data=[7, 45]),\n",
      "   midi.ControlChangeEvent(tick=10, channel=5, data=[7, 42]),\n",
      "   midi.ControlChangeEvent(tick=10, channel=5, data=[7, 39]),\n",
      "   midi.ControlChangeEvent(tick=10, channel=5, data=[7, 36]),\n",
      "   midi.ControlChangeEvent(tick=10, channel=5, data=[7, 33]),\n",
      "   midi.ControlChangeEvent(tick=10, channel=5, data=[7, 30]),\n",
      "   midi.ControlChangeEvent(tick=10, channel=5, data=[7, 27]),\n",
      "   midi.ControlChangeEvent(tick=10, channel=5, data=[7, 24]),\n",
      "   midi.ControlChangeEvent(tick=10, channel=5, data=[7, 21]),\n",
      "   midi.ControlChangeEvent(tick=10, channel=5, data=[7, 18]),\n",
      "   midi.ControlChangeEvent(tick=10, channel=5, data=[7, 15]),\n",
      "   midi.ControlChangeEvent(tick=10, channel=5, data=[7, 12]),\n",
      "   midi.ControlChangeEvent(tick=10, channel=5, data=[7, 9]),\n",
      "   midi.ControlChangeEvent(tick=10, channel=5, data=[7, 6]),\n",
      "   midi.ControlChangeEvent(tick=10, channel=5, data=[7, 3]),\n",
      "   midi.ControlChangeEvent(tick=10, channel=5, data=[7, 0]),\n",
      "   midi.ControlChangeEvent(tick=6830, channel=5, data=[7, 88]),\n",
      "   midi.NoteOnEvent(tick=480, channel=5, data=[69, 127]),\n",
      "   midi.NoteOnEvent(tick=0, channel=5, data=[72, 127]),\n",
      "   midi.NoteOnEvent(tick=0, channel=5, data=[65, 127]),\n",
      "   midi.NoteOnEvent(tick=915, channel=5, data=[65, 0]),\n",
      "   midi.NoteOnEvent(tick=10, channel=5, data=[72, 0]),\n",
      "   midi.NoteOnEvent(tick=1, channel=5, data=[69, 0]),\n",
      "   midi.NoteOnEvent(tick=34, channel=5, data=[71, 127]),\n",
      "   midi.NoteOnEvent(tick=0, channel=5, data=[74, 127]),\n",
      "   midi.NoteOnEvent(tick=0, channel=5, data=[67, 127]),\n",
      "   midi.NoteOnEvent(tick=932, channel=5, data=[67, 0]),\n",
      "   midi.NoteOnEvent(tick=3, channel=5, data=[74, 0]),\n",
      "   midi.NoteOnEvent(tick=1, channel=5, data=[71, 0]),\n",
      "   midi.NoteOnEvent(tick=24, channel=5, data=[69, 127]),\n",
      "   midi.NoteOnEvent(tick=0, channel=5, data=[72, 127]),\n",
      "   midi.NoteOnEvent(tick=0, channel=5, data=[65, 127]),\n",
      "   midi.NoteOnEvent(tick=915, channel=5, data=[65, 0]),\n",
      "   midi.NoteOnEvent(tick=6, channel=5, data=[72, 0]),\n",
      "   midi.NoteOnEvent(tick=2, channel=5, data=[69, 0]),\n",
      "   midi.NoteOnEvent(tick=37, channel=5, data=[71, 127]),\n",
      "   midi.NoteOnEvent(tick=0, channel=5, data=[74, 127]),\n",
      "   midi.NoteOnEvent(tick=0, channel=5, data=[67, 127]),\n",
      "   midi.NoteOnEvent(tick=840, channel=5, data=[67, 0]),\n",
      "   midi.NoteOnEvent(tick=0, channel=5, data=[74, 0]),\n",
      "   midi.NoteOnEvent(tick=0, channel=5, data=[71, 0]),\n",
      "   midi.NoteOnEvent(tick=120, channel=5, data=[65, 127]),\n",
      "   midi.NoteOnEvent(tick=0, channel=5, data=[69, 127]),\n",
      "   midi.NoteOnEvent(tick=0, channel=5, data=[72, 127]),\n",
      "   midi.NoteOnEvent(tick=840, channel=5, data=[72, 0]),\n",
      "   midi.NoteOnEvent(tick=0, channel=5, data=[69, 0]),\n",
      "   midi.NoteOnEvent(tick=0, channel=5, data=[65, 0]),\n",
      "   midi.NoteOnEvent(tick=120, channel=5, data=[71, 127]),\n",
      "   midi.NoteOnEvent(tick=0, channel=5, data=[74, 127]),\n",
      "   midi.NoteOnEvent(tick=0, channel=5, data=[67, 122]),\n",
      "   midi.NoteOnEvent(tick=925, channel=5, data=[74, 0]),\n",
      "   midi.NoteOnEvent(tick=1, channel=5, data=[67, 0]),\n",
      "   midi.NoteOnEvent(tick=3, channel=5, data=[71, 0]),\n",
      "   midi.NoteOnEvent(tick=31, channel=5, data=[72, 127]),\n",
      "   midi.NoteOnEvent(tick=0, channel=5, data=[69, 127]),\n",
      "   midi.NoteOnEvent(tick=0, channel=5, data=[65, 127]),\n",
      "   midi.NoteOnEvent(tick=894, channel=5, data=[65, 0]),\n",
      "   midi.NoteOnEvent(tick=12, channel=5, data=[69, 0]),\n",
      "   midi.NoteOnEvent(tick=3, channel=5, data=[72, 0]),\n",
      "   midi.NoteOnEvent(tick=51, channel=5, data=[71, 127]),\n",
      "   midi.NoteOnEvent(tick=0, channel=5, data=[74, 127]),\n",
      "   midi.NoteOnEvent(tick=0, channel=5, data=[67, 127]),\n",
      "   midi.NoteOnEvent(tick=960, channel=5, data=[72, 127]),\n",
      "   midi.NoteOnEvent(tick=0, channel=5, data=[76, 127]),\n",
      "   midi.NoteOnEvent(tick=0, channel=5, data=[69, 127]),\n",
      "   midi.NoteOnEvent(tick=58, channel=5, data=[71, 0]),\n",
      "   midi.NoteOnEvent(tick=2, channel=5, data=[74, 0]),\n",
      "   midi.NoteOnEvent(tick=1, channel=5, data=[67, 0]),\n",
      "   midi.NoteOnEvent(tick=870, channel=5, data=[76, 0]),\n",
      "   midi.NoteOnEvent(tick=2, channel=5, data=[69, 0]),\n",
      "   midi.NoteOnEvent(tick=4, channel=5, data=[72, 0]),\n",
      "   midi.NoteOnEvent(tick=23, channel=5, data=[74, 127]),\n",
      "   midi.NoteOnEvent(tick=0, channel=5, data=[67, 127]),\n",
      "   midi.NoteOnEvent(tick=0, channel=5, data=[71, 127]),\n",
      "   midi.NoteOnEvent(tick=910, channel=5, data=[74, 0]),\n",
      "   midi.NoteOnEvent(tick=5, channel=5, data=[71, 0]),\n",
      "   midi.NoteOnEvent(tick=2, channel=5, data=[67, 0]),\n",
      "   midi.NoteOnEvent(tick=43, channel=5, data=[69, 127]),\n",
      "   midi.NoteOnEvent(tick=0, channel=5, data=[72, 127]),\n",
      "   midi.NoteOnEvent(tick=0, channel=5, data=[65, 127]),\n",
      "   midi.NoteOnEvent(tick=925, channel=5, data=[65, 0]),\n",
      "   midi.NoteOnEvent(tick=6, channel=5, data=[72, 0]),\n",
      "   midi.NoteOnEvent(tick=0, channel=5, data=[69, 0]),\n",
      "   midi.NoteOnEvent(tick=29, channel=5, data=[74, 127]),\n",
      "   midi.NoteOnEvent(tick=0, channel=5, data=[67, 127]),\n",
      "   midi.NoteOnEvent(tick=0, channel=5, data=[71, 127]),\n",
      "   midi.NoteOnEvent(tick=921, channel=5, data=[67, 0]),\n",
      "   midi.NoteOnEvent(tick=4, channel=5, data=[71, 0]),\n",
      "   midi.NoteOnEvent(tick=3, channel=5, data=[74, 0]),\n",
      "   midi.NoteOnEvent(tick=32, channel=5, data=[69, 127]),\n",
      "   midi.NoteOnEvent(tick=0, channel=5, data=[76, 127]),\n",
      "   midi.NoteOnEvent(tick=0, channel=5, data=[72, 127]),\n",
      "   midi.NoteOnEvent(tick=932, channel=5, data=[76, 0]),\n",
      "   midi.NoteOnEvent(tick=1, channel=5, data=[69, 0]),\n",
      "   midi.NoteOnEvent(tick=2, channel=5, data=[72, 0]),\n",
      "   midi.NoteOnEvent(tick=25, channel=5, data=[74, 127]),\n",
      "   midi.NoteOnEvent(tick=0, channel=5, data=[71, 127]),\n",
      "   midi.NoteOnEvent(tick=0, channel=5, data=[67, 127]),\n",
      "   midi.NoteOnEvent(tick=934, channel=5, data=[67, 0]),\n",
      "   midi.NoteOnEvent(tick=0, channel=5, data=[74, 0]),\n",
      "   midi.NoteOnEvent(tick=1, channel=5, data=[71, 0]),\n",
      "   midi.NoteOnEvent(tick=25, channel=5, data=[72, 127]),\n",
      "   midi.NoteOnEvent(tick=0, channel=5, data=[65, 127]),\n",
      "   midi.NoteOnEvent(tick=0, channel=5, data=[69, 127]),\n",
      "   midi.NoteOnEvent(tick=918, channel=5, data=[65, 0]),\n",
      "   midi.NoteOnEvent(tick=4, channel=5, data=[69, 0]),\n",
      "   midi.NoteOnEvent(tick=4, channel=5, data=[72, 0]),\n",
      "   midi.NoteOnEvent(tick=34, channel=5, data=[71, 127]),\n",
      "   midi.NoteOnEvent(tick=0, channel=5, data=[67, 127]),\n",
      "   midi.NoteOnEvent(tick=0, channel=5, data=[74, 127]),\n",
      "   midi.NoteOnEvent(tick=923, channel=5, data=[67, 0]),\n",
      "   midi.NoteOnEvent(tick=1, channel=5, data=[74, 0]),\n",
      "   midi.NoteOnEvent(tick=4, channel=5, data=[71, 0]),\n",
      "   midi.ControlChangeEvent(tick=32, channel=5, data=[7, 104]),\n",
      "   midi.ControlChangeEvent(tick=10, channel=5, data=[7, 102]),\n",
      "   midi.ControlChangeEvent(tick=10, channel=5, data=[7, 100]),\n",
      "   midi.ControlChangeEvent(tick=10, channel=5, data=[7, 98]),\n",
      "   midi.ControlChangeEvent(tick=10, channel=5, data=[7, 96]),\n",
      "   midi.ControlChangeEvent(tick=10, channel=5, data=[7, 94]),\n",
      "   midi.ControlChangeEvent(tick=10, channel=5, data=[7, 91]),\n",
      "   midi.ControlChangeEvent(tick=10, channel=5, data=[7, 89]),\n",
      "   midi.ControlChangeEvent(tick=10, channel=5, data=[7, 87]),\n",
      "   midi.ControlChangeEvent(tick=10, channel=5, data=[7, 85]),\n",
      "   midi.ControlChangeEvent(tick=10, channel=5, data=[7, 83]),\n",
      "   midi.ControlChangeEvent(tick=10, channel=5, data=[7, 81]),\n",
      "   midi.ControlChangeEvent(tick=10, channel=5, data=[7, 78]),\n",
      "   midi.ControlChangeEvent(tick=10, channel=5, data=[7, 76]),\n",
      "   midi.ControlChangeEvent(tick=10, channel=5, data=[7, 74]),\n",
      "   midi.ControlChangeEvent(tick=10, channel=5, data=[7, 72]),\n",
      "   midi.ControlChangeEvent(tick=10, channel=5, data=[7, 70]),\n",
      "   midi.ControlChangeEvent(tick=10, channel=5, data=[7, 68]),\n",
      "   midi.ControlChangeEvent(tick=10, channel=5, data=[7, 65]),\n",
      "   midi.ControlChangeEvent(tick=10, channel=5, data=[7, 63]),\n",
      "   midi.ControlChangeEvent(tick=10, channel=5, data=[7, 61]),\n",
      "   midi.ControlChangeEvent(tick=10, channel=5, data=[7, 59]),\n",
      "   midi.ControlChangeEvent(tick=10, channel=5, data=[7, 57]),\n",
      "   midi.ControlChangeEvent(tick=10, channel=5, data=[7, 55]),\n",
      "   midi.ControlChangeEvent(tick=10, channel=5, data=[7, 52]),\n",
      "   midi.ControlChangeEvent(tick=10, channel=5, data=[7, 50]),\n",
      "   midi.ControlChangeEvent(tick=10, channel=5, data=[7, 48]),\n",
      "   midi.ControlChangeEvent(tick=10, channel=5, data=[7, 46]),\n",
      "   midi.ControlChangeEvent(tick=10, channel=5, data=[7, 44]),\n",
      "   midi.ControlChangeEvent(tick=10, channel=5, data=[7, 42]),\n",
      "   midi.ControlChangeEvent(tick=10, channel=5, data=[7, 39]),\n",
      "   midi.ControlChangeEvent(tick=10, channel=5, data=[7, 37]),\n",
      "   midi.ControlChangeEvent(tick=10, channel=5, data=[7, 35]),\n",
      "   midi.ControlChangeEvent(tick=10, channel=5, data=[7, 33]),\n",
      "   midi.ControlChangeEvent(tick=10, channel=5, data=[7, 31]),\n",
      "   midi.ControlChangeEvent(tick=10, channel=5, data=[7, 29]),\n",
      "   midi.ControlChangeEvent(tick=10, channel=5, data=[7, 26]),\n",
      "   midi.ControlChangeEvent(tick=10, channel=5, data=[7, 24]),\n",
      "   midi.ControlChangeEvent(tick=10, channel=5, data=[7, 22]),\n",
      "   midi.ControlChangeEvent(tick=10, channel=5, data=[7, 20]),\n",
      "   midi.ControlChangeEvent(tick=10, channel=5, data=[7, 18]),\n",
      "   midi.ControlChangeEvent(tick=10, channel=5, data=[7, 16]),\n",
      "   midi.ControlChangeEvent(tick=10, channel=5, data=[7, 13]),\n",
      "   midi.ControlChangeEvent(tick=10, channel=5, data=[7, 11]),\n",
      "   midi.ControlChangeEvent(tick=10, channel=5, data=[7, 9]),\n",
      "   midi.ControlChangeEvent(tick=10, channel=5, data=[7, 7]),\n",
      "   midi.ControlChangeEvent(tick=10, channel=5, data=[7, 5]),\n",
      "   midi.ControlChangeEvent(tick=10, channel=5, data=[7, 3]),\n",
      "   midi.ControlChangeEvent(tick=10, channel=5, data=[7, 0]),\n",
      "   midi.EndOfTrackEvent(tick=0, data=[])]),\n",
      " midi.Track(\\\n",
      "  [midi.PortEvent(tick=0, data=[0]),\n",
      "   midi.TrackNameEvent(tick=0, text='The Birds G-124', data=[84, 104, 101, 32, 66, 105, 114, 100, 115, 32, 71, 45, 49, 50, 52]),\n",
      "   midi.ProgramChangeEvent(tick=0, channel=6, data=[123]),\n",
      "   midi.ControlChangeEvent(tick=0, channel=6, data=[7, 88]),\n",
      "   midi.ControlChangeEvent(tick=0, channel=6, data=[10, 0]),\n",
      "   midi.ControlChangeEvent(tick=0, channel=6, data=[7, 33]),\n",
      "   midi.ControlChangeEvent(tick=10, channel=6, data=[7, 18]),\n",
      "   midi.ControlChangeEvent(tick=60, channel=6, data=[7, 19]),\n",
      "   midi.ControlChangeEvent(tick=50, channel=6, data=[7, 20]),\n",
      "   midi.ControlChangeEvent(tick=50, channel=6, data=[7, 21]),\n",
      "   midi.ControlChangeEvent(tick=50, channel=6, data=[7, 22]),\n",
      "   midi.ControlChangeEvent(tick=50, channel=6, data=[7, 23]),\n",
      "   midi.ControlChangeEvent(tick=60, channel=6, data=[7, 24]),\n",
      "   midi.ControlChangeEvent(tick=50, channel=6, data=[7, 25]),\n",
      "   midi.ControlChangeEvent(tick=50, channel=6, data=[7, 26]),\n",
      "   midi.NoteOnEvent(tick=50, channel=6, data=[44, 127]),\n",
      "   midi.ControlChangeEvent(tick=0, channel=6, data=[7, 27]),\n",
      "   midi.ControlChangeEvent(tick=50, channel=6, data=[7, 28]),\n",
      "   midi.ControlChangeEvent(tick=50, channel=6, data=[7, 29]),\n",
      "   midi.ControlChangeEvent(tick=60, channel=6, data=[7, 30]),\n",
      "   midi.ControlChangeEvent(tick=50, channel=6, data=[7, 31]),\n",
      "   midi.NoteOnEvent(tick=30, channel=6, data=[48, 127]),\n",
      "   midi.ControlChangeEvent(tick=20, channel=6, data=[7, 32]),\n",
      "   midi.ControlChangeEvent(tick=50, channel=6, data=[7, 33]),\n",
      "   midi.ControlChangeEvent(tick=50, channel=6, data=[7, 34]),\n",
      "   midi.ControlChangeEvent(tick=50, channel=6, data=[7, 35]),\n",
      "   midi.ControlChangeEvent(tick=60, channel=6, data=[7, 36]),\n",
      "   midi.NoteOnEvent(tick=10, channel=6, data=[44, 0]),\n",
      "   midi.ControlChangeEvent(tick=40, channel=6, data=[7, 37]),\n",
      "   midi.ControlChangeEvent(tick=50, channel=6, data=[7, 38]),\n",
      "   midi.ControlChangeEvent(tick=50, channel=6, data=[7, 39]),\n",
      "   midi.ControlChangeEvent(tick=50, channel=6, data=[7, 40]),\n",
      "   midi.ControlChangeEvent(tick=50, channel=6, data=[7, 41]),\n",
      "   midi.ControlChangeEvent(tick=60, channel=6, data=[7, 42]),\n",
      "   midi.ControlChangeEvent(tick=50, channel=6, data=[7, 43]),\n",
      "   midi.NoteOnEvent(tick=10, channel=6, data=[48, 0]),\n",
      "   midi.ControlChangeEvent(tick=40, channel=6, data=[7, 44]),\n",
      "   midi.ControlChangeEvent(tick=50, channel=6, data=[7, 45]),\n",
      "   midi.NoteOnEvent(tick=30, channel=6, data=[55, 127]),\n",
      "   midi.ControlChangeEvent(tick=20, channel=6, data=[7, 46]),\n",
      "   midi.ControlChangeEvent(tick=50, channel=6, data=[7, 47]),\n",
      "   midi.NoteOnEvent(tick=50, channel=6, data=[55, 0]),\n",
      "   midi.ControlChangeEvent(tick=10, channel=6, data=[7, 48]),\n",
      "   midi.ControlChangeEvent(tick=50, channel=6, data=[7, 49]),\n",
      "   midi.ControlChangeEvent(tick=50, channel=6, data=[7, 50]),\n",
      "   midi.ControlChangeEvent(tick=50, channel=6, data=[7, 51]),\n",
      "   midi.ControlChangeEvent(tick=50, channel=6, data=[7, 52]),\n",
      "   midi.ControlChangeEvent(tick=50, channel=6, data=[7, 53]),\n",
      "   midi.ControlChangeEvent(tick=60, channel=6, data=[7, 54]),\n",
      "   midi.ControlChangeEvent(tick=50, channel=6, data=[7, 55]),\n",
      "   midi.ControlChangeEvent(tick=50, channel=6, data=[7, 56]),\n",
      "   midi.ControlChangeEvent(tick=50, channel=6, data=[7, 57]),\n",
      "   midi.ControlChangeEvent(tick=50, channel=6, data=[7, 58]),\n",
      "   midi.ControlChangeEvent(tick=50, channel=6, data=[7, 59]),\n",
      "   midi.ControlChangeEvent(tick=60, channel=6, data=[7, 60]),\n",
      "   midi.ControlChangeEvent(tick=50, channel=6, data=[7, 61]),\n",
      "   midi.ControlChangeEvent(tick=50, channel=6, data=[7, 62]),\n",
      "   midi.ControlChangeEvent(tick=50, channel=6, data=[7, 63]),\n",
      "   midi.ControlChangeEvent(tick=50, channel=6, data=[7, 64]),\n",
      "   midi.ControlChangeEvent(tick=60, channel=6, data=[7, 65]),\n",
      "   midi.ControlChangeEvent(tick=50, channel=6, data=[7, 66]),\n",
      "   midi.ControlChangeEvent(tick=50, channel=6, data=[7, 67]),\n",
      "   midi.ControlChangeEvent(tick=50, channel=6, data=[7, 68]),\n",
      "   midi.ControlChangeEvent(tick=50, channel=6, data=[7, 69]),\n",
      "   midi.ControlChangeEvent(tick=50, channel=6, data=[7, 70]),\n",
      "   midi.ControlChangeEvent(tick=60, channel=6, data=[7, 71]),\n",
      "   midi.ControlChangeEvent(tick=50, channel=6, data=[7, 72]),\n",
      "   midi.ControlChangeEvent(tick=50, channel=6, data=[7, 73]),\n",
      "   midi.ControlChangeEvent(tick=50, channel=6, data=[7, 74]),\n",
      "   midi.ControlChangeEvent(tick=50, channel=6, data=[7, 75]),\n",
      "   midi.ControlChangeEvent(tick=50, channel=6, data=[7, 76]),\n",
      "   midi.ControlChangeEvent(tick=60, channel=6, data=[7, 77]),\n",
      "   midi.ControlChangeEvent(tick=50, channel=6, data=[7, 78]),\n",
      "   midi.ControlChangeEvent(tick=50, channel=6, data=[7, 79]),\n",
      "   midi.ControlChangeEvent(tick=50, channel=6, data=[7, 80]),\n",
      "   midi.ControlChangeEvent(tick=50, channel=6, data=[7, 81]),\n",
      "   midi.ControlChangeEvent(tick=50, channel=6, data=[7, 82]),\n",
      "   midi.ControlChangeEvent(tick=60, channel=6, data=[7, 83]),\n",
      "   midi.ControlChangeEvent(tick=50, channel=6, data=[7, 84]),\n",
      "   midi.ControlChangeEvent(tick=50, channel=6, data=[7, 85]),\n",
      "   midi.ControlChangeEvent(tick=50, channel=6, data=[7, 86]),\n",
      "   midi.ControlChangeEvent(tick=50, channel=6, data=[7, 87]),\n",
      "   midi.ControlChangeEvent(tick=50, channel=6, data=[7, 88]),\n",
      "   midi.ControlChangeEvent(tick=60, channel=6, data=[7, 89]),\n",
      "   midi.ControlChangeEvent(tick=50, channel=6, data=[7, 90]),\n",
      "   midi.ControlChangeEvent(tick=50, channel=6, data=[7, 91]),\n",
      "   midi.NoteOnEvent(tick=50, channel=6, data=[55, 127]),\n",
      "   midi.ControlChangeEvent(tick=0, channel=6, data=[7, 92]),\n",
      "   midi.ControlChangeEvent(tick=50, channel=6, data=[7, 93]),\n",
      "   midi.ControlChangeEvent(tick=50, channel=6, data=[7, 94]),\n",
      "   midi.ControlChangeEvent(tick=60, channel=6, data=[7, 95]),\n",
      "   midi.ControlChangeEvent(tick=50, channel=6, data=[7, 96]),\n",
      "   midi.ControlChangeEvent(tick=50, channel=6, data=[7, 97]),\n",
      "   midi.ControlChangeEvent(tick=50, channel=6, data=[7, 98]),\n",
      "   midi.ControlChangeEvent(tick=50, channel=6, data=[7, 99]),\n",
      "   midi.ControlChangeEvent(tick=50, channel=6, data=[7, 100]),\n",
      "   midi.ControlChangeEvent(tick=60, channel=6, data=[7, 101]),\n",
      "   midi.ControlChangeEvent(tick=50, channel=6, data=[7, 102]),\n",
      "   midi.ControlChangeEvent(tick=50, channel=6, data=[7, 103]),\n",
      "   midi.ControlChangeEvent(tick=50, channel=6, data=[7, 104]),\n",
      "   midi.ControlChangeEvent(tick=50, channel=6, data=[7, 105]),\n",
      "   midi.ControlChangeEvent(tick=50, channel=6, data=[7, 106]),\n",
      "   midi.NoteOnEvent(tick=720, channel=6, data=[55, 0]),\n",
      "   midi.NoteOnEvent(tick=480, channel=6, data=[51, 127]),\n",
      "   midi.NoteOnEvent(tick=1560, channel=6, data=[51, 0]),\n",
      "   midi.NoteOnEvent(tick=120, channel=6, data=[38, 127]),\n",
      "   midi.NoteOnEvent(tick=300, channel=6, data=[38, 0]),\n",
      "   midi.NoteOnEvent(tick=0, channel=6, data=[50, 127]),\n",
      "   midi.NoteOnEvent(tick=300, channel=6, data=[33, 124]),\n",
      "   midi.NoteOnEvent(tick=60, channel=6, data=[50, 0]),\n",
      "   midi.ControlChangeEvent(tick=534, channel=6, data=[10, 0]),\n",
      "   midi.ControlChangeEvent(tick=0, channel=6, data=[7, 64]),\n",
      "   midi.NoteOnEvent(tick=6, channel=6, data=[33, 0]),\n",
      "   midi.NoteOnEvent(tick=0, channel=6, data=[48, 127]),\n",
      "   midi.ControlChangeEvent(tick=14, channel=6, data=[10, 1]),\n",
      "   midi.ControlChangeEvent(tick=0, channel=6, data=[7, 65]),\n",
      "   midi.ControlChangeEvent(tick=10, channel=6, data=[7, 66]),\n",
      "   midi.ControlChangeEvent(tick=10, channel=6, data=[10, 2]),\n",
      "   midi.ControlChangeEvent(tick=0, channel=6, data=[7, 67]),\n",
      "   midi.ControlChangeEvent(tick=10, channel=6, data=[10, 3]),\n",
      "   midi.ControlChangeEvent(tick=10, channel=6, data=[7, 68]),\n",
      "   midi.ControlChangeEvent(tick=10, channel=6, data=[10, 4]),\n",
      "   midi.ControlChangeEvent(tick=0, channel=6, data=[7, 69]),\n",
      "   midi.ControlChangeEvent(tick=10, channel=6, data=[10, 5]),\n",
      "   midi.ControlChangeEvent(tick=0, channel=6, data=[7, 70]),\n",
      "   midi.ControlChangeEvent(tick=20, channel=6, data=[10, 6]),\n",
      "   midi.ControlChangeEvent(tick=0, channel=6, data=[7, 71]),\n",
      "   midi.ControlChangeEvent(tick=10, channel=6, data=[10, 7]),\n",
      "   midi.ControlChangeEvent(tick=0, channel=6, data=[7, 72]),\n",
      "   midi.ControlChangeEvent(tick=10, channel=6, data=[7, 73]),\n",
      "   midi.NoteOnEvent(tick=6, channel=6, data=[41, 86]),\n",
      "   midi.ControlChangeEvent(tick=4, channel=6, data=[10, 8]),\n",
      "   midi.ControlChangeEvent(tick=10, channel=6, data=[10, 9]),\n",
      "   midi.ControlChangeEvent(tick=0, channel=6, data=[7, 74]),\n",
      "   midi.ControlChangeEvent(tick=10, channel=6, data=[7, 75]),\n",
      "   midi.ControlChangeEvent(tick=10, channel=6, data=[10, 10]),\n",
      "   midi.ControlChangeEvent(tick=0, channel=6, data=[7, 76]),\n",
      "   midi.ControlChangeEvent(tick=10, channel=6, data=[10, 11]),\n",
      "   midi.ControlChangeEvent(tick=10, channel=6, data=[7, 77]),\n",
      "   midi.NoteOnEvent(tick=5, channel=6, data=[41, 0]),\n",
      "   midi.ControlChangeEvent(tick=5, channel=6, data=[10, 12]),\n",
      "   midi.ControlChangeEvent(tick=0, channel=6, data=[7, 78]),\n",
      "   midi.ControlChangeEvent(tick=10, channel=6, data=[10, 13]),\n",
      "   midi.ControlChangeEvent(tick=0, channel=6, data=[7, 79]),\n",
      "   midi.ControlChangeEvent(tick=20, channel=6, data=[10, 14]),\n",
      "   midi.ControlChangeEvent(tick=0, channel=6, data=[7, 80]),\n",
      "   midi.ControlChangeEvent(tick=10, channel=6, data=[10, 15]),\n",
      "   midi.ControlChangeEvent(tick=0, channel=6, data=[7, 81]),\n",
      "   midi.ControlChangeEvent(tick=10, channel=6, data=[7, 82]),\n",
      "   midi.NoteOnEvent(tick=6, channel=6, data=[56, 86]),\n",
      "   midi.ControlChangeEvent(tick=4, channel=6, data=[10, 16]),\n",
      "   midi.ControlChangeEvent(tick=10, channel=6, data=[10, 17]),\n",
      "   midi.ControlChangeEvent(tick=0, channel=6, data=[7, 83]),\n",
      "   midi.ControlChangeEvent(tick=10, channel=6, data=[7, 84]),\n",
      "   midi.ControlChangeEvent(tick=10, channel=6, data=[10, 18]),\n",
      "   midi.ControlChangeEvent(tick=0, channel=6, data=[7, 85]),\n",
      "   midi.ControlChangeEvent(tick=10, channel=6, data=[10, 19]),\n",
      "   midi.ControlChangeEvent(tick=10, channel=6, data=[7, 86]),\n",
      "   midi.NoteOnEvent(tick=5, channel=6, data=[56, 0]),\n",
      "   midi.ControlChangeEvent(tick=5, channel=6, data=[10, 20]),\n",
      "   midi.ControlChangeEvent(tick=0, channel=6, data=[7, 87]),\n",
      "   midi.ControlChangeEvent(tick=10, channel=6, data=[10, 21]),\n",
      "   midi.ControlChangeEvent(tick=0, channel=6, data=[7, 88]),\n",
      "   midi.ControlChangeEvent(tick=20, channel=6, data=[10, 22]),\n",
      "   midi.ControlChangeEvent(tick=0, channel=6, data=[7, 89]),\n",
      "   midi.ControlChangeEvent(tick=10, channel=6, data=[7, 90]),\n",
      "   midi.ControlChangeEvent(tick=10, channel=6, data=[7, 91]),\n",
      "   midi.ControlChangeEvent(tick=0, channel=6, data=[10, 23]),\n",
      "   midi.NoteOnEvent(tick=6, channel=6, data=[41, 86]),\n",
      "   midi.ControlChangeEvent(tick=4, channel=6, data=[10, 24]),\n",
      "   midi.ControlChangeEvent(tick=10, channel=6, data=[7, 92]),\n",
      "   midi.ControlChangeEvent(tick=10, channel=6, data=[10, 25]),\n",
      "   midi.ControlChangeEvent(tick=0, channel=6, data=[7, 93]),\n",
      "   midi.ControlChangeEvent(tick=10, channel=6, data=[10, 26]),\n",
      "   midi.ControlChangeEvent(tick=0, channel=6, data=[7, 94]),\n",
      "   midi.ControlChangeEvent(tick=20, channel=6, data=[10, 27]),\n",
      "   midi.ControlChangeEvent(tick=0, channel=6, data=[7, 95]),\n",
      "   midi.ControlChangeEvent(tick=10, channel=6, data=[10, 28]),\n",
      "   midi.ControlChangeEvent(tick=0, channel=6, data=[7, 96]),\n",
      "   midi.ControlChangeEvent(tick=10, channel=6, data=[7, 97]),\n",
      "   midi.ControlChangeEvent(tick=10, channel=6, data=[10, 29]),\n",
      "   midi.ControlChangeEvent(tick=10, channel=6, data=[10, 30]),\n",
      "   midi.ControlChangeEvent(tick=0, channel=6, data=[7, 98]),\n",
      "   midi.ControlChangeEvent(tick=10, channel=6, data=[7, 99]),\n",
      "   midi.ControlChangeEvent(tick=10, channel=6, data=[10, 31]),\n",
      "   midi.ControlChangeEvent(tick=0, channel=6, data=[7, 100]),\n",
      "   midi.ControlChangeEvent(tick=1, channel=6, data=[7, 101]),\n",
      "   midi.ControlChangeEvent(tick=9, channel=6, data=[10, 32]),\n",
      "   midi.ControlChangeEvent(tick=20, channel=6, data=[10, 33]),\n",
      "   midi.ControlChangeEvent(tick=10, channel=6, data=[10, 34]),\n",
      "   midi.ControlChangeEvent(tick=1, channel=6, data=[7, 102]),\n",
      "   midi.ControlChangeEvent(tick=19, channel=6, data=[10, 35]),\n",
      "   midi.ControlChangeEvent(tick=10, channel=6, data=[10, 36]),\n",
      "   midi.ControlChangeEvent(tick=11, channel=6, data=[7, 103]),\n",
      "   midi.ControlChangeEvent(tick=9, channel=6, data=[10, 37]),\n",
      "   midi.ControlChangeEvent(tick=10, channel=6, data=[10, 38]),\n",
      "   midi.ControlChangeEvent(tick=20, channel=6, data=[10, 39]),\n",
      "   midi.ControlChangeEvent(tick=1, channel=6, data=[7, 104]),\n",
      "   midi.ControlChangeEvent(tick=9, channel=6, data=[10, 40]),\n",
      "   midi.ControlChangeEvent(tick=20, channel=6, data=[10, 41]),\n",
      "   midi.ControlChangeEvent(tick=1, channel=6, data=[7, 105]),\n",
      "   midi.ControlChangeEvent(tick=9, channel=6, data=[10, 42]),\n",
      "   midi.ControlChangeEvent(tick=20, channel=6, data=[10, 43]),\n",
      "   midi.ControlChangeEvent(tick=11, channel=6, data=[7, 106]),\n",
      "   midi.ControlChangeEvent(tick=9, channel=6, data=[10, 44]),\n",
      "   midi.ControlChangeEvent(tick=10, channel=6, data=[10, 45]),\n",
      "   midi.ControlChangeEvent(tick=20, channel=6, data=[10, 46]),\n",
      "   midi.ControlChangeEvent(tick=1, channel=6, data=[7, 107]),\n",
      "   midi.ControlChangeEvent(tick=9, channel=6, data=[10, 47]),\n",
      "   midi.ControlChangeEvent(tick=20, channel=6, data=[10, 48]),\n",
      "   midi.ControlChangeEvent(tick=1, channel=6, data=[7, 108]),\n",
      "   midi.ControlChangeEvent(tick=9, channel=6, data=[10, 49]),\n",
      "   midi.ControlChangeEvent(tick=20, channel=6, data=[10, 50]),\n",
      "   midi.ControlChangeEvent(tick=10, channel=6, data=[10, 51]),\n",
      "   midi.ControlChangeEvent(tick=1, channel=6, data=[7, 109]),\n",
      "   midi.ControlChangeEvent(tick=19, channel=6, data=[10, 52]),\n",
      "   midi.ControlChangeEvent(tick=10, channel=6, data=[10, 53]),\n",
      "   midi.ControlChangeEvent(tick=11, channel=6, data=[7, 110]),\n",
      "   midi.ControlChangeEvent(tick=9, channel=6, data=[10, 54]),\n",
      "   midi.ControlChangeEvent(tick=10, channel=6, data=[10, 55]),\n",
      "   midi.ControlChangeEvent(tick=11, channel=6, data=[7, 111]),\n",
      "   midi.ControlChangeEvent(tick=9, channel=6, data=[10, 56]),\n",
      "   midi.ControlChangeEvent(tick=10, channel=6, data=[10, 57]),\n",
      "   midi.ControlChangeEvent(tick=20, channel=6, data=[10, 58]),\n",
      "   midi.ControlChangeEvent(tick=1, channel=6, data=[7, 112]),\n",
      "   midi.ControlChangeEvent(tick=9, channel=6, data=[10, 59]),\n",
      "   midi.ControlChangeEvent(tick=20, channel=6, data=[10, 60]),\n",
      "   midi.ControlChangeEvent(tick=10, channel=6, data=[10, 61]),\n",
      "   midi.ControlChangeEvent(tick=1, channel=6, data=[7, 113]),\n",
      "   midi.ControlChangeEvent(tick=19, channel=6, data=[10, 62]),\n",
      "   midi.ControlChangeEvent(tick=10, channel=6, data=[10, 63]),\n",
      "   midi.ControlChangeEvent(tick=1, channel=6, data=[7, 114]),\n",
      "   midi.NoteOnEvent(tick=5, channel=6, data=[41, 0]),\n",
      "   midi.ControlChangeEvent(tick=0, channel=6, data=[10, 64]),\n",
      "   midi.ControlChangeEvent(tick=10, channel=6, data=[10, 65]),\n",
      "   midi.ControlChangeEvent(tick=10, channel=6, data=[10, 66]),\n",
      "   midi.ControlChangeEvent(tick=10, channel=6, data=[10, 67]),\n",
      "   midi.ControlChangeEvent(tick=5, channel=6, data=[7, 115]),\n",
      "   midi.ControlChangeEvent(tick=5, channel=6, data=[10, 69]),\n",
      "   midi.ControlChangeEvent(tick=10, channel=6, data=[10, 70]),\n",
      "   midi.ControlChangeEvent(tick=10, channel=6, data=[10, 71]),\n",
      "   midi.ControlChangeEvent(tick=10, channel=6, data=[10, 73]),\n",
      "   midi.ControlChangeEvent(tick=5, channel=6, data=[7, 116]),\n",
      "   midi.ControlChangeEvent(tick=5, channel=6, data=[10, 74]),\n",
      "   midi.ControlChangeEvent(tick=10, channel=6, data=[10, 75]),\n",
      "   midi.ControlChangeEvent(tick=10, channel=6, data=[10, 77]),\n",
      "   midi.ControlChangeEvent(tick=10, channel=6, data=[10, 78]),\n",
      "   midi.ControlChangeEvent(tick=5, channel=6, data=[7, 117]),\n",
      "   midi.ControlChangeEvent(tick=5, channel=6, data=[10, 79]),\n",
      "   midi.NoteOnEvent(tick=0, channel=6, data=[59, 86]),\n",
      "   midi.ControlChangeEvent(tick=10, channel=6, data=[10, 81]),\n",
      "   midi.ControlChangeEvent(tick=10, channel=6, data=[10, 82]),\n",
      "   midi.ControlChangeEvent(tick=5, channel=6, data=[7, 118]),\n",
      "   midi.ControlChangeEvent(tick=5, channel=6, data=[10, 83]),\n",
      "   midi.ControlChangeEvent(tick=10, channel=6, data=[10, 85]),\n",
      "   midi.ControlChangeEvent(tick=10, channel=6, data=[10, 86]),\n",
      "   midi.NoteOnEvent(tick=9, channel=6, data=[59, 0]),\n",
      "   midi.ControlChangeEvent(tick=1, channel=6, data=[10, 87]),\n",
      "   midi.ControlChangeEvent(tick=5, channel=6, data=[7, 119]),\n",
      "   midi.ControlChangeEvent(tick=5, channel=6, data=[10, 88]),\n",
      "   midi.ControlChangeEvent(tick=10, channel=6, data=[10, 90]),\n",
      "   midi.ControlChangeEvent(tick=10, channel=6, data=[10, 91]),\n",
      "   midi.ControlChangeEvent(tick=10, channel=6, data=[10, 92]),\n",
      "   midi.ControlChangeEvent(tick=5, channel=6, data=[7, 120]),\n",
      "   midi.ControlChangeEvent(tick=5, channel=6, data=[10, 94]),\n",
      "   midi.ControlChangeEvent(tick=10, channel=6, data=[10, 95]),\n",
      "   midi.ControlChangeEvent(tick=10, channel=6, data=[10, 96]),\n",
      "   midi.ControlChangeEvent(tick=5, channel=6, data=[7, 121]),\n",
      "   midi.ControlChangeEvent(tick=5, channel=6, data=[10, 98]),\n",
      "   midi.ControlChangeEvent(tick=10, channel=6, data=[10, 99]),\n",
      "   midi.ControlChangeEvent(tick=10, channel=6, data=[10, 100]),\n",
      "   midi.ControlChangeEvent(tick=10, channel=6, data=[10, 102]),\n",
      "   midi.ControlChangeEvent(tick=5, channel=6, data=[7, 122]),\n",
      "   midi.ControlChangeEvent(tick=5, channel=6, data=[10, 103]),\n",
      "   midi.ControlChangeEvent(tick=10, channel=6, data=[10, 104]),\n",
      "   midi.ControlChangeEvent(tick=10, channel=6, data=[10, 106]),\n",
      "   midi.ControlChangeEvent(tick=10, channel=6, data=[10, 107]),\n",
      "   midi.ControlChangeEvent(tick=5, channel=6, data=[7, 123]),\n",
      "   midi.ControlChangeEvent(tick=5, channel=6, data=[10, 108]),\n",
      "   midi.ControlChangeEvent(tick=10, channel=6, data=[10, 109]),\n",
      "   midi.ControlChangeEvent(tick=10, channel=6, data=[10, 111]),\n",
      "   midi.ControlChangeEvent(tick=5, channel=6, data=[7, 124]),\n",
      "   midi.ControlChangeEvent(tick=5, channel=6, data=[10, 112]),\n",
      "   midi.ControlChangeEvent(tick=10, channel=6, data=[10, 113]),\n",
      "   midi.ControlChangeEvent(tick=10, channel=6, data=[10, 115]),\n",
      "   midi.ControlChangeEvent(tick=10, channel=6, data=[10, 116]),\n",
      "   midi.ControlChangeEvent(tick=5, channel=6, data=[7, 125]),\n",
      "   midi.ControlChangeEvent(tick=5, channel=6, data=[10, 117]),\n",
      "   midi.ControlChangeEvent(tick=10, channel=6, data=[10, 119]),\n",
      "   midi.ControlChangeEvent(tick=10, channel=6, data=[10, 120]),\n",
      "   midi.ControlChangeEvent(tick=10, channel=6, data=[10, 121]),\n",
      "   midi.ControlChangeEvent(tick=5, channel=6, data=[7, 126]),\n",
      "   midi.ControlChangeEvent(tick=5, channel=6, data=[10, 123]),\n",
      "   midi.ControlChangeEvent(tick=10, channel=6, data=[10, 124]),\n",
      "   midi.ControlChangeEvent(tick=10, channel=6, data=[10, 125]),\n",
      "   midi.ControlChangeEvent(tick=5, channel=6, data=[7, 127]),\n",
      "   midi.ControlChangeEvent(tick=5, channel=6, data=[7, 0]),\n",
      "   midi.ControlChangeEvent(tick=0, channel=6, data=[10, 127]),\n",
      "   midi.ControlChangeEvent(tick=15, channel=6, data=[7, 127]),\n",
      "   midi.ControlChangeEvent(tick=10, channel=6, data=[7, 113]),\n",
      "   midi.ControlChangeEvent(tick=10, channel=6, data=[7, 99]),\n",
      "   midi.ControlChangeEvent(tick=10, channel=6, data=[7, 85]),\n",
      "   midi.ControlChangeEvent(tick=10, channel=6, data=[7, 71]),\n",
      "   midi.ControlChangeEvent(tick=10, channel=6, data=[7, 57]),\n",
      "   midi.ControlChangeEvent(tick=10, channel=6, data=[7, 43]),\n",
      "   midi.ControlChangeEvent(tick=10, channel=6, data=[7, 29]),\n",
      "   midi.ControlChangeEvent(tick=10, channel=6, data=[7, 15]),\n",
      "   midi.ControlChangeEvent(tick=10, channel=6, data=[7, 0]),\n",
      "   midi.NoteOnEvent(tick=15, channel=6, data=[48, 0]),\n",
      "   midi.EndOfTrackEvent(tick=0, data=[])]),\n",
      " midi.Track(\\\n",
      "  [midi.PortEvent(tick=0, data=[0]),\n",
      "   midi.TrackNameEvent(tick=0, text='More Birds G-124', data=[77, 111, 114, 101, 32, 66, 105, 114, 100, 115, 32, 71, 45, 49, 50, 52]),\n",
      "   midi.ProgramChangeEvent(tick=0, channel=7, data=[123]),\n",
      "   midi.ControlChangeEvent(tick=0, channel=7, data=[7, 88]),\n",
      "   midi.ControlChangeEvent(tick=0, channel=7, data=[10, 127]),\n",
      "   midi.ControlChangeEvent(tick=0, channel=7, data=[7, 31]),\n",
      "   midi.ControlChangeEvent(tick=10, channel=7, data=[7, 31]),\n",
      "   midi.ControlChangeEvent(tick=60, channel=7, data=[7, 32]),\n",
      "   midi.ControlChangeEvent(tick=60, channel=7, data=[7, 33]),\n",
      "   midi.ControlChangeEvent(tick=60, channel=7, data=[7, 34]),\n",
      "   midi.ControlChangeEvent(tick=60, channel=7, data=[7, 35]),\n",
      "   midi.ControlChangeEvent(tick=60, channel=7, data=[7, 36]),\n",
      "   midi.ControlChangeEvent(tick=60, channel=7, data=[7, 37]),\n",
      "   midi.ControlChangeEvent(tick=60, channel=7, data=[7, 38]),\n",
      "   midi.NoteOnEvent(tick=50, channel=7, data=[33, 127]),\n",
      "   midi.ControlChangeEvent(tick=10, channel=7, data=[7, 39]),\n",
      "   midi.ControlChangeEvent(tick=60, channel=7, data=[7, 40]),\n",
      "   midi.ControlChangeEvent(tick=60, channel=7, data=[7, 41]),\n",
      "   midi.ControlChangeEvent(tick=60, channel=7, data=[7, 42]),\n",
      "   midi.ControlChangeEvent(tick=60, channel=7, data=[7, 43]),\n",
      "   midi.ControlChangeEvent(tick=50, channel=7, data=[7, 44]),\n",
      "   midi.ControlChangeEvent(tick=60, channel=7, data=[7, 45]),\n",
      "   midi.ControlChangeEvent(tick=60, channel=7, data=[7, 46]),\n",
      "   midi.ControlChangeEvent(tick=60, channel=7, data=[7, 47]),\n",
      "   midi.ControlChangeEvent(tick=60, channel=7, data=[7, 48]),\n",
      "   midi.ControlChangeEvent(tick=60, channel=7, data=[7, 49]),\n",
      "   midi.ControlChangeEvent(tick=60, channel=7, data=[7, 50]),\n",
      "   midi.ControlChangeEvent(tick=60, channel=7, data=[7, 51]),\n",
      "   midi.ControlChangeEvent(tick=60, channel=7, data=[7, 52]),\n",
      "   midi.ControlChangeEvent(tick=60, channel=7, data=[7, 53]),\n",
      "   midi.ControlChangeEvent(tick=60, channel=7, data=[7, 54]),\n",
      "   midi.NoteOnEvent(tick=60, channel=7, data=[56, 127]),\n",
      "   midi.ControlChangeEvent(tick=0, channel=7, data=[7, 55]),\n",
      "   midi.ControlChangeEvent(tick=60, channel=7, data=[7, 56]),\n",
      "   midi.ControlChangeEvent(tick=50, channel=7, data=[7, 57]),\n",
      "   midi.ControlChangeEvent(tick=60, channel=7, data=[7, 58]),\n",
      "   midi.ControlChangeEvent(tick=60, channel=7, data=[7, 59]),\n",
      "   midi.ControlChangeEvent(tick=60, channel=7, data=[7, 60]),\n",
      "   midi.ControlChangeEvent(tick=60, channel=7, data=[7, 61]),\n",
      "   midi.ControlChangeEvent(tick=60, channel=7, data=[7, 62]),\n",
      "   midi.ControlChangeEvent(tick=60, channel=7, data=[7, 63]),\n",
      "   midi.ControlChangeEvent(tick=60, channel=7, data=[7, 64]),\n",
      "   midi.NoteOnEvent(tick=10, channel=7, data=[33, 0]),\n",
      "   midi.ControlChangeEvent(tick=50, channel=7, data=[7, 65]),\n",
      "   midi.ControlChangeEvent(tick=60, channel=7, data=[7, 66]),\n",
      "   midi.ControlChangeEvent(tick=60, channel=7, data=[7, 67]),\n",
      "   midi.ControlChangeEvent(tick=60, channel=7, data=[7, 68]),\n",
      "   midi.ControlChangeEvent(tick=60, channel=7, data=[7, 69]),\n",
      "   midi.ControlChangeEvent(tick=50, channel=7, data=[7, 70]),\n",
      "   midi.ControlChangeEvent(tick=60, channel=7, data=[7, 71]),\n",
      "   midi.NoteOnEvent(tick=20, channel=7, data=[45, 127]),\n",
      "   midi.ControlChangeEvent(tick=40, channel=7, data=[7, 72]),\n",
      "   midi.ControlChangeEvent(tick=60, channel=7, data=[7, 73]),\n",
      "   midi.ControlChangeEvent(tick=60, channel=7, data=[7, 74]),\n",
      "   midi.ControlChangeEvent(tick=60, channel=7, data=[7, 75]),\n",
      "   midi.ControlChangeEvent(tick=60, channel=7, data=[7, 76]),\n",
      "   midi.ControlChangeEvent(tick=60, channel=7, data=[7, 77]),\n",
      "   midi.ControlChangeEvent(tick=60, channel=7, data=[7, 78]),\n",
      "   midi.ControlChangeEvent(tick=60, channel=7, data=[7, 79]),\n",
      "   midi.ControlChangeEvent(tick=60, channel=7, data=[7, 80]),\n",
      "   midi.ControlChangeEvent(tick=60, channel=7, data=[7, 81]),\n",
      "   midi.ControlChangeEvent(tick=60, channel=7, data=[7, 82]),\n",
      "   midi.ControlChangeEvent(tick=50, channel=7, data=[7, 83]),\n",
      "   midi.ControlChangeEvent(tick=60, channel=7, data=[7, 84]),\n",
      "   midi.ControlChangeEvent(tick=60, channel=7, data=[7, 85]),\n",
      "   midi.ControlChangeEvent(tick=60, channel=7, data=[7, 86]),\n",
      "   midi.ControlChangeEvent(tick=60, channel=7, data=[7, 87]),\n",
      "   midi.ControlChangeEvent(tick=60, channel=7, data=[7, 88]),\n",
      "   midi.ControlChangeEvent(tick=60, channel=7, data=[7, 89]),\n",
      "   midi.ControlChangeEvent(tick=60, channel=7, data=[7, 90]),\n",
      "   midi.ControlChangeEvent(tick=60, channel=7, data=[7, 91]),\n",
      "   midi.ControlChangeEvent(tick=60, channel=7, data=[7, 92]),\n",
      "   midi.ControlChangeEvent(tick=60, channel=7, data=[7, 93]),\n",
      "   midi.ControlChangeEvent(tick=60, channel=7, data=[7, 94]),\n",
      "   midi.ControlChangeEvent(tick=60, channel=7, data=[7, 95]),\n",
      "   midi.NoteOnEvent(tick=30, channel=7, data=[56, 127]),\n",
      "   midi.ControlChangeEvent(tick=20, channel=7, data=[7, 96]),\n",
      "   midi.ControlChangeEvent(tick=60, channel=7, data=[7, 97]),\n",
      "   midi.ControlChangeEvent(tick=60, channel=7, data=[7, 98]),\n",
      "   midi.ControlChangeEvent(tick=60, channel=7, data=[7, 99]),\n",
      "   midi.ControlChangeEvent(tick=60, channel=7, data=[7, 100]),\n",
      "   midi.ControlChangeEvent(tick=60, channel=7, data=[7, 101]),\n",
      "   midi.ControlChangeEvent(tick=60, channel=7, data=[7, 102]),\n",
      "   midi.ControlChangeEvent(tick=60, channel=7, data=[7, 103]),\n",
      "   midi.ControlChangeEvent(tick=60, channel=7, data=[7, 104]),\n",
      "   midi.ControlChangeEvent(tick=60, channel=7, data=[7, 105]),\n",
      "   midi.ControlChangeEvent(tick=60, channel=7, data=[7, 106]),\n",
      "   midi.ControlChangeEvent(tick=60, channel=7, data=[7, 107]),\n",
      "   midi.ControlChangeEvent(tick=50, channel=7, data=[7, 108]),\n",
      "   midi.NoteOnEvent(tick=50, channel=7, data=[56, 0]),\n",
      "   midi.NoteOnEvent(tick=180, channel=7, data=[45, 127]),\n",
      "   midi.NoteOnEvent(tick=480, channel=7, data=[48, 127]),\n",
      "   midi.NoteOnEvent(tick=180, channel=7, data=[45, 0]),\n",
      "   midi.NoteOnEvent(tick=1020, channel=7, data=[36, 127]),\n",
      "   midi.NoteOnEvent(tick=540, channel=7, data=[36, 0]),\n",
      "   midi.NoteOnEvent(tick=0, channel=7, data=[56, 0]),\n",
      "   midi.NoteOnEvent(tick=540, channel=7, data=[33, 127]),\n",
      "   midi.NoteOnEvent(tick=300, channel=7, data=[33, 0]),\n",
      "   midi.NoteOnEvent(tick=0, channel=7, data=[45, 0]),\n",
      "   midi.NoteOnEvent(tick=0, channel=7, data=[45, 125]),\n",
      "   midi.NoteOnEvent(tick=420, channel=7, data=[45, 127]),\n",
      "   midi.NoteOnEvent(tick=60, channel=7, data=[45, 0]),\n",
      "   midi.NoteOnEvent(tick=0, channel=7, data=[48, 0]),\n",
      "   midi.ControlChangeEvent(tick=294, channel=7, data=[10, 127]),\n",
      "   midi.ControlChangeEvent(tick=2, channel=7, data=[7, 64]),\n",
      "   midi.ControlChangeEvent(tick=18, channel=7, data=[10, 126]),\n",
      "   midi.ControlChangeEvent(tick=2, channel=7, data=[7, 65]),\n",
      "   midi.ControlChangeEvent(tick=8, channel=7, data=[10, 125]),\n",
      "   midi.ControlChangeEvent(tick=2, channel=7, data=[7, 66]),\n",
      "   midi.ControlChangeEvent(tick=10, channel=7, data=[7, 67]),\n",
      "   midi.ControlChangeEvent(tick=8, channel=7, data=[10, 124]),\n",
      "   midi.ControlChangeEvent(tick=2, channel=7, data=[7, 68]),\n",
      "   midi.ControlChangeEvent(tick=8, channel=7, data=[10, 123]),\n",
      "   midi.ControlChangeEvent(tick=2, channel=7, data=[7, 69]),\n",
      "   midi.NoteOnEvent(tick=4, channel=7, data=[45, 0]),\n",
      "   midi.ControlChangeEvent(tick=6, channel=7, data=[7, 70]),\n",
      "   midi.ControlChangeEvent(tick=8, channel=7, data=[10, 122]),\n",
      "   midi.ControlChangeEvent(tick=10, channel=7, data=[10, 121]),\n",
      "   midi.ControlChangeEvent(tick=2, channel=7, data=[7, 71]),\n",
      "   midi.ControlChangeEvent(tick=10, channel=7, data=[7, 72]),\n",
      "   midi.ControlChangeEvent(tick=8, channel=7, data=[10, 120]),\n",
      "   midi.ControlChangeEvent(tick=2, channel=7, data=[7, 73]),\n",
      "   midi.ControlChangeEvent(tick=8, channel=7, data=[10, 119]),\n",
      "   midi.ControlChangeEvent(tick=2, channel=7, data=[7, 74]),\n",
      "   midi.NoteOnEvent(tick=4, channel=7, data=[33, 86]),\n",
      "   midi.ControlChangeEvent(tick=6, channel=7, data=[7, 75]),\n",
      "   midi.ControlChangeEvent(tick=8, channel=7, data=[10, 118]),\n",
      "   midi.ControlChangeEvent(tick=2, channel=7, data=[7, 76]),\n",
      "   midi.ControlChangeEvent(tick=8, channel=7, data=[10, 117]),\n",
      "   midi.ControlChangeEvent(tick=12, channel=7, data=[7, 77]),\n",
      "   midi.ControlChangeEvent(tick=8, channel=7, data=[10, 116]),\n",
      "   midi.ControlChangeEvent(tick=2, channel=7, data=[7, 78]),\n",
      "   midi.ControlChangeEvent(tick=8, channel=7, data=[10, 115]),\n",
      "   midi.ControlChangeEvent(tick=2, channel=7, data=[7, 79]),\n",
      "   midi.ControlChangeEvent(tick=10, channel=7, data=[7, 80]),\n",
      "   midi.ControlChangeEvent(tick=8, channel=7, data=[10, 114]),\n",
      "   midi.ControlChangeEvent(tick=2, channel=7, data=[7, 81]),\n",
      "   midi.ControlChangeEvent(tick=8, channel=7, data=[10, 113]),\n",
      "   midi.ControlChangeEvent(tick=2, channel=7, data=[7, 82]),\n",
      "   midi.ControlChangeEvent(tick=18, channel=7, data=[10, 112]),\n",
      "   midi.ControlChangeEvent(tick=2, channel=7, data=[7, 83]),\n",
      "   midi.ControlChangeEvent(tick=8, channel=7, data=[10, 111]),\n",
      "   midi.ControlChangeEvent(tick=2, channel=7, data=[7, 84]),\n",
      "   midi.NoteOnEvent(tick=4, channel=7, data=[57, 86]),\n",
      "   midi.ControlChangeEvent(tick=6, channel=7, data=[7, 85]),\n",
      "   midi.ControlChangeEvent(tick=8, channel=7, data=[10, 110]),\n",
      "   midi.ControlChangeEvent(tick=2, channel=7, data=[7, 86]),\n",
      "   midi.ControlChangeEvent(tick=8, channel=7, data=[10, 109]),\n",
      "   midi.ControlChangeEvent(tick=2, channel=7, data=[7, 87]),\n",
      "   midi.ControlChangeEvent(tick=10, channel=7, data=[7, 88]),\n",
      "   midi.ControlChangeEvent(tick=8, channel=7, data=[10, 108]),\n",
      "   midi.ControlChangeEvent(tick=10, channel=7, data=[10, 107]),\n",
      "   midi.ControlChangeEvent(tick=2, channel=7, data=[7, 89]),\n",
      "   midi.ControlChangeEvent(tick=10, channel=7, data=[7, 90]),\n",
      "   midi.ControlChangeEvent(tick=8, channel=7, data=[10, 106]),\n",
      "   midi.ControlChangeEvent(tick=2, channel=7, data=[7, 91]),\n",
      "   midi.ControlChangeEvent(tick=8, channel=7, data=[10, 105]),\n",
      "   midi.ControlChangeEvent(tick=2, channel=7, data=[7, 92]),\n",
      "   midi.ControlChangeEvent(tick=10, channel=7, data=[7, 93]),\n",
      "   midi.ControlChangeEvent(tick=8, channel=7, data=[10, 104]),\n",
      "   midi.ControlChangeEvent(tick=2, channel=7, data=[7, 94]),\n",
      "   midi.ControlChangeEvent(tick=8, channel=7, data=[10, 103]),\n",
      "   midi.ControlChangeEvent(tick=2, channel=7, data=[7, 95]),\n",
      "   midi.NoteOnEvent(tick=4, channel=7, data=[57, 86]),\n",
      "   midi.ControlChangeEvent(tick=14, channel=7, data=[10, 102]),\n",
      "   midi.ControlChangeEvent(tick=2, channel=7, data=[7, 96]),\n",
      "   midi.ControlChangeEvent(tick=8, channel=7, data=[10, 101]),\n",
      "   midi.ControlChangeEvent(tick=2, channel=7, data=[7, 97]),\n",
      "   midi.ControlChangeEvent(tick=10, channel=7, data=[7, 98]),\n",
      "   midi.ControlChangeEvent(tick=8, channel=7, data=[10, 100]),\n",
      "   midi.ControlChangeEvent(tick=2, channel=7, data=[7, 99]),\n",
      "   midi.ControlChangeEvent(tick=8, channel=7, data=[10, 99]),\n",
      "   midi.ControlChangeEvent(tick=2, channel=7, data=[7, 100]),\n",
      "   midi.ControlChangeEvent(tick=10, channel=7, data=[7, 101]),\n",
      "   midi.ControlChangeEvent(tick=8, channel=7, data=[10, 98]),\n",
      "   midi.ControlChangeEvent(tick=10, channel=7, data=[10, 97]),\n",
      "   midi.ControlChangeEvent(tick=2, channel=7, data=[7, 102]),\n",
      "   midi.ControlChangeEvent(tick=10, channel=7, data=[7, 103]),\n",
      "   midi.ControlChangeEvent(tick=8, channel=7, data=[10, 96]),\n",
      "   midi.ControlChangeEvent(tick=2, channel=7, data=[7, 104]),\n",
      "   midi.ControlChangeEvent(tick=8, channel=7, data=[10, 95]),\n",
      "   midi.ControlChangeEvent(tick=2, channel=7, data=[7, 105]),\n",
      "   midi.ControlChangeEvent(tick=4, channel=7, data=[7, 106]),\n",
      "   midi.ControlChangeEvent(tick=14, channel=7, data=[10, 94]),\n",
      "   midi.ControlChangeEvent(tick=10, channel=7, data=[10, 93]),\n",
      "   midi.ControlChangeEvent(tick=20, channel=7, data=[10, 92]),\n",
      "   midi.ControlChangeEvent(tick=6, channel=7, data=[7, 107]),\n",
      "   midi.ControlChangeEvent(tick=4, channel=7, data=[10, 91]),\n",
      "   midi.ControlChangeEvent(tick=20, channel=7, data=[10, 90]),\n",
      "   midi.ControlChangeEvent(tick=10, channel=7, data=[10, 89]),\n",
      "   midi.ControlChangeEvent(tick=16, channel=7, data=[7, 108]),\n",
      "   midi.ControlChangeEvent(tick=4, channel=7, data=[10, 88]),\n",
      "   midi.ControlChangeEvent(tick=10, channel=7, data=[10, 87]),\n",
      "   midi.ControlChangeEvent(tick=20, channel=7, data=[10, 86]),\n",
      "   midi.ControlChangeEvent(tick=6, channel=7, data=[7, 109]),\n",
      "   midi.ControlChangeEvent(tick=4, channel=7, data=[10, 85]),\n",
      "   midi.ControlChangeEvent(tick=20, channel=7, data=[10, 84]),\n",
      "   midi.ControlChangeEvent(tick=10, channel=7, data=[10, 83]),\n",
      "   midi.ControlChangeEvent(tick=16, channel=7, data=[7, 110]),\n",
      "   midi.ControlChangeEvent(tick=4, channel=7, data=[10, 82]),\n",
      "   midi.ControlChangeEvent(tick=10, channel=7, data=[10, 81]),\n",
      "   midi.ControlChangeEvent(tick=20, channel=7, data=[10, 80]),\n",
      "   midi.ControlChangeEvent(tick=6, channel=7, data=[7, 111]),\n",
      "   midi.ControlChangeEvent(tick=4, channel=7, data=[10, 79]),\n",
      "   midi.ControlChangeEvent(tick=20, channel=7, data=[10, 78]),\n",
      "   midi.ControlChangeEvent(tick=10, channel=7, data=[10, 77]),\n",
      "   midi.ControlChangeEvent(tick=16, channel=7, data=[7, 112]),\n",
      "   midi.ControlChangeEvent(tick=4, channel=7, data=[10, 76]),\n",
      "   midi.ControlChangeEvent(tick=10, channel=7, data=[10, 75]),\n",
      "   midi.ControlChangeEvent(tick=20, channel=7, data=[10, 74]),\n",
      "   midi.ControlChangeEvent(tick=6, channel=7, data=[7, 113]),\n",
      "   midi.ControlChangeEvent(tick=4, channel=7, data=[10, 73]),\n",
      "   midi.ControlChangeEvent(tick=20, channel=7, data=[10, 72]),\n",
      "   midi.ControlChangeEvent(tick=10, channel=7, data=[10, 71]),\n",
      "   midi.ControlChangeEvent(tick=16, channel=7, data=[7, 114]),\n",
      "   midi.ControlChangeEvent(tick=4, channel=7, data=[10, 70]),\n",
      "   midi.ControlChangeEvent(tick=10, channel=7, data=[10, 69]),\n",
      "   midi.ControlChangeEvent(tick=20, channel=7, data=[10, 68]),\n",
      "   midi.ControlChangeEvent(tick=10, channel=7, data=[10, 67]),\n",
      "   midi.ControlChangeEvent(tick=6, channel=7, data=[7, 115]),\n",
      "   midi.ControlChangeEvent(tick=14, channel=7, data=[10, 66]),\n",
      "   midi.ControlChangeEvent(tick=10, channel=7, data=[10, 65]),\n",
      "   midi.ControlChangeEvent(tick=16, channel=7, data=[7, 116]),\n",
      "   midi.ControlChangeEvent(tick=4, channel=7, data=[10, 64]),\n",
      "   midi.ControlChangeEvent(tick=10, channel=7, data=[10, 63]),\n",
      "   midi.ControlChangeEvent(tick=6, channel=7, data=[10, 63]),\n",
      "   midi.ControlChangeEvent(tick=10, channel=7, data=[10, 62]),\n",
      "   midi.ControlChangeEvent(tick=10, channel=7, data=[10, 61]),\n",
      "   midi.ControlChangeEvent(tick=10, channel=7, data=[7, 117]),\n",
      "   midi.ControlChangeEvent(tick=0, channel=7, data=[10, 60]),\n",
      "   midi.ControlChangeEvent(tick=10, channel=7, data=[10, 58]),\n",
      "   midi.ControlChangeEvent(tick=10, channel=7, data=[10, 57]),\n",
      "   midi.ControlChangeEvent(tick=10, channel=7, data=[10, 56]),\n",
      "   midi.ControlChangeEvent(tick=10, channel=7, data=[7, 118]),\n",
      "   midi.ControlChangeEvent(tick=0, channel=7, data=[10, 54]),\n",
      "   midi.ControlChangeEvent(tick=10, channel=7, data=[10, 53]),\n",
      "   midi.ControlChangeEvent(tick=10, channel=7, data=[10, 52]),\n",
      "   midi.ControlChangeEvent(tick=10, channel=7, data=[10, 50]),\n",
      "   midi.ControlChangeEvent(tick=10, channel=7, data=[10, 49]),\n",
      "   midi.ControlChangeEvent(tick=10, channel=7, data=[7, 119]),\n",
      "   midi.ControlChangeEvent(tick=0, channel=7, data=[10, 48]),\n",
      "   midi.NoteOnEvent(tick=0, channel=7, data=[57, 86]),\n",
      "   midi.ControlChangeEvent(tick=10, channel=7, data=[10, 46]),\n",
      "   midi.ControlChangeEvent(tick=10, channel=7, data=[10, 45]),\n",
      "   midi.ControlChangeEvent(tick=10, channel=7, data=[10, 44]),\n",
      "   midi.ControlChangeEvent(tick=10, channel=7, data=[7, 120]),\n",
      "   midi.ControlChangeEvent(tick=0, channel=7, data=[10, 42]),\n",
      "   midi.ControlChangeEvent(tick=10, channel=7, data=[10, 41]),\n",
      "   midi.ControlChangeEvent(tick=10, channel=7, data=[10, 40]),\n",
      "   midi.ControlChangeEvent(tick=10, channel=7, data=[10, 39]),\n",
      "   midi.ControlChangeEvent(tick=10, channel=7, data=[10, 37]),\n",
      "   midi.ControlChangeEvent(tick=10, channel=7, data=[7, 121]),\n",
      "   midi.ControlChangeEvent(tick=0, channel=7, data=[10, 36]),\n",
      "   midi.ControlChangeEvent(tick=10, channel=7, data=[10, 35]),\n",
      "   midi.ControlChangeEvent(tick=10, channel=7, data=[10, 33]),\n",
      "   midi.NoteOnEvent(tick=10, channel=7, data=[45, 86]),\n",
      "   midi.ControlChangeEvent(tick=0, channel=7, data=[10, 32]),\n",
      "   midi.ControlChangeEvent(tick=10, channel=7, data=[10, 31]),\n",
      "   midi.ControlChangeEvent(tick=10, channel=7, data=[7, 122]),\n",
      "   midi.ControlChangeEvent(tick=0, channel=7, data=[10, 29]),\n",
      "   midi.ControlChangeEvent(tick=10, channel=7, data=[10, 28]),\n",
      "   midi.ControlChangeEvent(tick=10, channel=7, data=[10, 27]),\n",
      "   midi.ControlChangeEvent(tick=10, channel=7, data=[10, 25]),\n",
      "   midi.ControlChangeEvent(tick=10, channel=7, data=[7, 123]),\n",
      "   midi.ControlChangeEvent(tick=0, channel=7, data=[10, 24]),\n",
      "   midi.ControlChangeEvent(tick=10, channel=7, data=[10, 23]),\n",
      "   midi.ControlChangeEvent(tick=10, channel=7, data=[10, 21]),\n",
      "   midi.ControlChangeEvent(tick=10, channel=7, data=[10, 20]),\n",
      "   midi.ControlChangeEvent(tick=10, channel=7, data=[10, 19]),\n",
      "   midi.ControlChangeEvent(tick=10, channel=7, data=[7, 124]),\n",
      "   midi.ControlChangeEvent(tick=0, channel=7, data=[10, 18]),\n",
      "   midi.ControlChangeEvent(tick=10, channel=7, data=[10, 16]),\n",
      "   midi.ControlChangeEvent(tick=10, channel=7, data=[10, 15]),\n",
      "   midi.ControlChangeEvent(tick=10, channel=7, data=[10, 14]),\n",
      "   midi.ControlChangeEvent(tick=10, channel=7, data=[7, 125]),\n",
      "   midi.ControlChangeEvent(tick=0, channel=7, data=[10, 12]),\n",
      "   midi.ControlChangeEvent(tick=10, channel=7, data=[10, 11]),\n",
      "   midi.ControlChangeEvent(tick=10, channel=7, data=[10, 10]),\n",
      "   midi.ControlChangeEvent(tick=10, channel=7, data=[10, 8]),\n",
      "   midi.ControlChangeEvent(tick=10, channel=7, data=[10, 7]),\n",
      "   midi.ControlChangeEvent(tick=10, channel=7, data=[7, 126]),\n",
      "   midi.ControlChangeEvent(tick=0, channel=7, data=[10, 6]),\n",
      "   midi.ControlChangeEvent(tick=10, channel=7, data=[10, 4]),\n",
      "   midi.ControlChangeEvent(tick=10, channel=7, data=[10, 3]),\n",
      "   midi.ControlChangeEvent(tick=10, channel=7, data=[10, 2]),\n",
      "   midi.ControlChangeEvent(tick=10, channel=7, data=[7, 127]),\n",
      "   midi.ControlChangeEvent(tick=0, channel=7, data=[10, 0]),\n",
      "   midi.ControlChangeEvent(tick=10, channel=7, data=[7, 127]),\n",
      "   midi.ControlChangeEvent(tick=10, channel=7, data=[7, 116]),\n",
      "   midi.ControlChangeEvent(tick=10, channel=7, data=[7, 104]),\n",
      "   midi.ControlChangeEvent(tick=10, channel=7, data=[7, 93]),\n",
      "   midi.ControlChangeEvent(tick=10, channel=7, data=[7, 81]),\n",
      "   midi.ControlChangeEvent(tick=10, channel=7, data=[7, 70]),\n",
      "   midi.ControlChangeEvent(tick=10, channel=7, data=[7, 58]),\n",
      "   midi.ControlChangeEvent(tick=10, channel=7, data=[7, 47]),\n",
      "   midi.ControlChangeEvent(tick=10, channel=7, data=[7, 35]),\n",
      "   midi.ControlChangeEvent(tick=10, channel=7, data=[7, 24]),\n",
      "   midi.ControlChangeEvent(tick=10, channel=7, data=[7, 12]),\n",
      "   midi.NoteOnEvent(tick=10, channel=7, data=[57, 0]),\n",
      "   midi.ControlChangeEvent(tick=0, channel=7, data=[7, 0]),\n",
      "   midi.NoteOnEvent(tick=60, channel=7, data=[33, 0]),\n",
      "   midi.NoteOnEvent(tick=1800, channel=7, data=[57, 0]),\n",
      "   midi.NoteOnEvent(tick=840, channel=7, data=[45, 0]),\n",
      "   midi.NoteOnEvent(tick=0, channel=7, data=[57, 0]),\n",
      "   midi.EndOfTrackEvent(tick=0, data=[])]),\n",
      " midi.Track(\\\n",
      "  [midi.PortEvent(tick=0, data=[0]),\n",
      "   midi.TrackNameEvent(tick=0, text='Sweep G-96', data=[83, 119, 101, 101, 112, 32, 71, 45, 57, 54]),\n",
      "   midi.ProgramChangeEvent(tick=0, channel=8, data=[95]),\n",
      "   midi.ControlChangeEvent(tick=0, channel=8, data=[7, 99]),\n",
      "   midi.ControlChangeEvent(tick=0, channel=8, data=[10, 64]),\n",
      "   midi.NoteOnEvent(tick=2400, channel=8, data=[45, 64]),\n",
      "   midi.NoteOnEvent(tick=960, channel=8, data=[43, 45]),\n",
      "   midi.NoteOnEvent(tick=36, channel=8, data=[45, 0]),\n",
      "   midi.NoteOnEvent(tick=1042, channel=8, data=[43, 0]),\n",
      "   midi.NoteOnEvent(tick=362, channel=8, data=[45, 58]),\n",
      "   midi.NoteOnEvent(tick=960, channel=8, data=[43, 60]),\n",
      "   midi.NoteOnEvent(tick=17, channel=8, data=[45, 0]),\n",
      "   midi.NoteOnEvent(tick=943, channel=8, data=[41, 72]),\n",
      "   midi.NoteOnEvent(tick=3, channel=8, data=[43, 0]),\n",
      "   midi.NoteOnEvent(tick=957, channel=8, data=[31, 127]),\n",
      "   midi.NoteOnEvent(tick=20, channel=8, data=[41, 0]),\n",
      "   midi.NoteOnEvent(tick=1180, channel=8, data=[31, 0]),\n",
      "   midi.NoteOnEvent(tick=240, channel=8, data=[45, 123]),\n",
      "   midi.NoteOnEvent(tick=1223, channel=8, data=[45, 0]),\n",
      "   midi.EndOfTrackEvent(tick=0, data=[])]),\n",
      " midi.Track(\\\n",
      "  [midi.PortEvent(tick=0, data=[0]),\n",
      "   midi.TrackNameEvent(tick=0, text='Crash Drums GM-129', data=[67, 114, 97, 115, 104, 32, 68, 114, 117, 109, 115, 32, 71, 77, 45, 49, 50, 57]),\n",
      "   midi.ProgramChangeEvent(tick=0, channel=9, data=[0]),\n",
      "   midi.ControlChangeEvent(tick=0, channel=9, data=[7, 127]),\n",
      "   midi.NoteOnEvent(tick=9120, channel=9, data=[52, 127]),\n",
      "   midi.NoteOnEvent(tick=129, channel=9, data=[52, 0]),\n",
      "   midi.NoteOnEvent(tick=38271, channel=9, data=[52, 127]),\n",
      "   midi.NoteOnEvent(tick=129, channel=9, data=[52, 0]),\n",
      "   midi.NoteOnEvent(tick=7011, channel=9, data=[52, 127]),\n",
      "   midi.NoteOnEvent(tick=129, channel=9, data=[52, 0]),\n",
      "   midi.NoteOnEvent(tick=411, channel=9, data=[57, 127]),\n",
      "   midi.NoteOnEvent(tick=129, channel=9, data=[57, 0]),\n",
      "   midi.NoteOnEvent(tick=14751, channel=9, data=[57, 127]),\n",
      "   midi.NoteOnEvent(tick=129, channel=9, data=[57, 0]),\n",
      "   midi.NoteOnEvent(tick=8031, channel=9, data=[57, 127]),\n",
      "   midi.NoteOnEvent(tick=129, channel=9, data=[57, 0]),\n",
      "   midi.EndOfTrackEvent(tick=0, data=[])]),\n",
      " midi.Track(\\\n",
      "  [midi.PortEvent(tick=0, data=[0]),\n",
      "   midi.TrackNameEvent(tick=0, text='Hi Hat', data=[72, 105, 32, 72, 97, 116]),\n",
      "   midi.NoteOnEvent(tick=9000, channel=9, data=[46, 127]),\n",
      "   midi.NoteOnEvent(tick=29, channel=9, data=[46, 0]),\n",
      "   midi.NoteOnEvent(tick=31, channel=9, data=[42, 127]),\n",
      "   midi.NoteOnEvent(tick=29, channel=9, data=[42, 0]),\n",
      "   midi.NoteOnEvent(tick=31, channel=9, data=[42, 127]),\n",
      "   midi.NoteOnEvent(tick=29, channel=9, data=[42, 0]),\n",
      "   midi.NoteOnEvent(tick=31, channel=9, data=[42, 127]),\n",
      "   midi.NoteOnEvent(tick=29, channel=9, data=[42, 0]),\n",
      "   midi.NoteOnEvent(tick=31, channel=9, data=[42, 127]),\n",
      "   midi.NoteOnEvent(tick=29, channel=9, data=[42, 0]),\n",
      "   midi.NoteOnEvent(tick=31, channel=9, data=[42, 127]),\n",
      "   midi.NoteOnEvent(tick=29, channel=9, data=[42, 0]),\n",
      "   midi.NoteOnEvent(tick=31, channel=9, data=[42, 127]),\n",
      "   midi.NoteOnEvent(tick=29, channel=9, data=[42, 0]),\n",
      "   midi.NoteOnEvent(tick=31, channel=9, data=[42, 127]),\n",
      "   midi.NoteOnEvent(tick=29, channel=9, data=[42, 0]),\n",
      "   midi.NoteOnEvent(tick=31, channel=9, data=[42, 127]),\n",
      "   midi.NoteOnEvent(tick=29, channel=9, data=[42, 0]),\n",
      "   midi.NoteOnEvent(tick=31, channel=9, data=[42, 127]),\n",
      "   midi.NoteOnEvent(tick=29, channel=9, data=[42, 0]),\n",
      "   midi.NoteOnEvent(tick=31, channel=9, data=[42, 127]),\n",
      "   midi.NoteOnEvent(tick=29, channel=9, data=[42, 0]),\n",
      "   midi.NoteOnEvent(tick=31, channel=9, data=[42, 127]),\n",
      "   midi.NoteOnEvent(tick=29, channel=9, data=[42, 0]),\n",
      "   midi.NoteOnEvent(tick=31, channel=9, data=[42, 127]),\n",
      "   midi.NoteOnEvent(tick=29, channel=9, data=[42, 0]),\n",
      "   midi.NoteOnEvent(tick=31, channel=9, data=[42, 127]),\n",
      "   midi.NoteOnEvent(tick=29, channel=9, data=[42, 0]),\n",
      "   midi.NoteOnEvent(tick=31, channel=9, data=[42, 127]),\n",
      "   midi.NoteOnEvent(tick=29, channel=9, data=[42, 0]),\n",
      "   midi.NoteOnEvent(tick=31, channel=9, data=[42, 127]),\n",
      "   midi.NoteOnEvent(tick=29, channel=9, data=[42, 0]),\n",
      "   midi.NoteOnEvent(tick=31, channel=9, data=[42, 127]),\n",
      "   midi.NoteOnEvent(tick=29, channel=9, data=[42, 0]),\n",
      "   midi.NoteOnEvent(tick=31, channel=9, data=[42, 127]),\n",
      "   midi.NoteOnEvent(tick=29, channel=9, data=[42, 0]),\n",
      "   midi.NoteOnEvent(tick=31, channel=9, data=[42, 127]),\n",
      "   midi.NoteOnEvent(tick=29, channel=9, data=[42, 0]),\n",
      "   midi.NoteOnEvent(tick=31, channel=9, data=[42, 127]),\n",
      "   midi.NoteOnEvent(tick=29, channel=9, data=[42, 0]),\n",
      "   midi.NoteOnEvent(tick=31, channel=9, data=[42, 127]),\n",
      "   midi.NoteOnEvent(tick=29, channel=9, data=[42, 0]),\n",
      "   midi.NoteOnEvent(tick=31, channel=9, data=[42, 127]),\n",
      "   midi.NoteOnEvent(tick=29, channel=9, data=[42, 0]),\n",
      "   midi.NoteOnEvent(tick=31, channel=9, data=[42, 127]),\n",
      "   midi.NoteOnEvent(tick=29, channel=9, data=[42, 0]),\n",
      "   midi.NoteOnEvent(tick=31, channel=9, data=[42, 127]),\n",
      "   midi.NoteOnEvent(tick=29, channel=9, data=[42, 0]),\n",
      "   midi.NoteOnEvent(tick=31, channel=9, data=[42, 127]),\n",
      "   midi.NoteOnEvent(tick=29, channel=9, data=[42, 0]),\n",
      "   midi.NoteOnEvent(tick=31, channel=9, data=[42, 127]),\n",
      "   midi.NoteOnEvent(tick=29, channel=9, data=[42, 0]),\n",
      "   midi.NoteOnEvent(tick=31, channel=9, data=[42, 127]),\n",
      "   midi.NoteOnEvent(tick=29, channel=9, data=[42, 0]),\n",
      "   midi.NoteOnEvent(tick=31, channel=9, data=[42, 127]),\n",
      "   midi.NoteOnEvent(tick=29, channel=9, data=[42, 0]),\n",
      "   midi.NoteOnEvent(tick=31, channel=9, data=[42, 127]),\n",
      "   midi.NoteOnEvent(tick=29, channel=9, data=[42, 0]),\n",
      "   midi.NoteOnEvent(tick=31, channel=9, data=[42, 127]),\n",
      "   midi.NoteOnEvent(tick=29, channel=9, data=[42, 0]),\n",
      "   midi.NoteOnEvent(tick=31, channel=9, data=[42, 127]),\n",
      "   midi.NoteOnEvent(tick=29, channel=9, data=[42, 0]),\n",
      "   midi.NoteOnEvent(tick=31, channel=9, data=[42, 127]),\n",
      "   midi.NoteOnEvent(tick=29, channel=9, data=[42, 0]),\n",
      "   midi.NoteOnEvent(tick=31, channel=9, data=[42, 127]),\n",
      "   midi.NoteOnEvent(tick=29, channel=9, data=[42, 0]),\n",
      "   midi.NoteOnEvent(tick=31, channel=9, data=[42, 127]),\n",
      "   midi.NoteOnEvent(tick=29, channel=9, data=[42, 0]),\n",
      "   midi.NoteOnEvent(tick=31, channel=9, data=[42, 127]),\n",
      "   midi.NoteOnEvent(tick=29, channel=9, data=[42, 0]),\n",
      "   midi.NoteOnEvent(tick=31, channel=9, data=[42, 127]),\n",
      "   midi.NoteOnEvent(tick=29, channel=9, data=[42, 0]),\n",
      "   midi.NoteOnEvent(tick=31, channel=9, data=[42, 127]),\n",
      "   midi.NoteOnEvent(tick=29, channel=9, data=[42, 0]),\n",
      "   midi.NoteOnEvent(tick=31, channel=9, data=[42, 127]),\n",
      "   midi.NoteOnEvent(tick=29, channel=9, data=[42, 0]),\n",
      "   midi.NoteOnEvent(tick=31, channel=9, data=[42, 127]),\n",
      "   midi.NoteOnEvent(tick=29, channel=9, data=[42, 0]),\n",
      "   midi.NoteOnEvent(tick=31, channel=9, data=[42, 127]),\n",
      "   midi.NoteOnEvent(tick=29, channel=9, data=[42, 0]),\n",
      "   midi.NoteOnEvent(tick=31, channel=9, data=[42, 127]),\n",
      "   midi.NoteOnEvent(tick=29, channel=9, data=[42, 0]),\n",
      "   midi.NoteOnEvent(tick=31, channel=9, data=[42, 127]),\n",
      "   midi.NoteOnEvent(tick=29, channel=9, data=[42, 0]),\n",
      "   midi.NoteOnEvent(tick=31, channel=9, data=[42, 127]),\n",
      "   midi.NoteOnEvent(tick=29, channel=9, data=[42, 0]),\n",
      "   midi.NoteOnEvent(tick=31, channel=9, data=[42, 127]),\n",
      "   midi.NoteOnEvent(tick=29, channel=9, data=[42, 0]),\n",
      "   midi.NoteOnEvent(tick=31, channel=9, data=[42, 127]),\n",
      "   midi.NoteOnEvent(tick=29, channel=9, data=[42, 0]),\n",
      "   midi.NoteOnEvent(tick=31, channel=9, data=[42, 127]),\n",
      "   midi.NoteOnEvent(tick=29, channel=9, data=[42, 0]),\n",
      "   midi.NoteOnEvent(tick=31, channel=9, data=[42, 127]),\n",
      "   midi.NoteOnEvent(tick=29, channel=9, data=[42, 0]),\n",
      "   midi.NoteOnEvent(tick=31, channel=9, data=[42, 127]),\n",
      "   midi.NoteOnEvent(tick=29, channel=9, data=[42, 0]),\n",
      "   midi.NoteOnEvent(tick=31, channel=9, data=[42, 127]),\n",
      "   midi.NoteOnEvent(tick=29, channel=9, data=[42, 0]),\n",
      "   midi.NoteOnEvent(tick=31, channel=9, data=[42, 127]),\n",
      "   midi.NoteOnEvent(tick=29, channel=9, data=[42, 0]),\n",
      "   midi.NoteOnEvent(tick=31, channel=9, data=[42, 127]),\n",
      "   midi.NoteOnEvent(tick=29, channel=9, data=[42, 0]),\n",
      "   midi.NoteOnEvent(tick=31, channel=9, data=[42, 127]),\n",
      "   midi.NoteOnEvent(tick=29, channel=9, data=[42, 0]),\n",
      "   midi.NoteOnEvent(tick=31, channel=9, data=[42, 127]),\n",
      "   midi.NoteOnEvent(tick=29, channel=9, data=[42, 0]),\n",
      "   midi.NoteOnEvent(tick=31, channel=9, data=[42, 127]),\n",
      "   midi.NoteOnEvent(tick=29, channel=9, data=[42, 0]),\n",
      "   midi.NoteOnEvent(tick=31, channel=9, data=[42, 127]),\n",
      "   midi.NoteOnEvent(tick=29, channel=9, data=[42, 0]),\n",
      "   midi.NoteOnEvent(tick=31, channel=9, data=[42, 127]),\n",
      "   midi.NoteOnEvent(tick=29, channel=9, data=[42, 0]),\n",
      "   midi.NoteOnEvent(tick=31, channel=9, data=[42, 127]),\n",
      "   midi.NoteOnEvent(tick=29, channel=9, data=[42, 0]),\n",
      "   midi.NoteOnEvent(tick=31, channel=9, data=[42, 127]),\n",
      "   midi.NoteOnEvent(tick=29, channel=9, data=[42, 0]),\n",
      "   midi.NoteOnEvent(tick=31, channel=9, data=[42, 127]),\n",
      "   midi.NoteOnEvent(tick=29, channel=9, data=[42, 0]),\n",
      "   midi.NoteOnEvent(tick=31, channel=9, data=[42, 127]),\n",
      "   midi.NoteOnEvent(tick=29, channel=9, data=[42, 0]),\n",
      "   midi.NoteOnEvent(tick=31, channel=9, data=[42, 127]),\n",
      "   midi.NoteOnEvent(tick=29, channel=9, data=[42, 0]),\n",
      "   midi.NoteOnEvent(tick=31, channel=9, data=[42, 127]),\n",
      "   midi.NoteOnEvent(tick=29, channel=9, data=[42, 0]),\n",
      "   midi.NoteOnEvent(tick=31, channel=9, data=[42, 127]),\n",
      "   midi.NoteOnEvent(tick=29, channel=9, data=[42, 0]),\n",
      "   midi.NoteOnEvent(tick=31, channel=9, data=[42, 127]),\n",
      "   midi.NoteOnEvent(tick=29, channel=9, data=[42, 0]),\n",
      "   midi.NoteOnEvent(tick=31, channel=9, data=[42, 127]),\n",
      "   midi.NoteOnEvent(tick=29, channel=9, data=[42, 0]),\n",
      "   midi.NoteOnEvent(tick=31, channel=9, data=[42, 127]),\n",
      "   midi.NoteOnEvent(tick=29, channel=9, data=[42, 0]),\n",
      "   midi.NoteOnEvent(tick=31, channel=9, data=[42, 127]),\n",
      "   midi.NoteOnEvent(tick=29, channel=9, data=[42, 0]),\n",
      "   midi.NoteOnEvent(tick=31, channel=9, data=[42, 127]),\n",
      "   midi.NoteOnEvent(tick=29, channel=9, data=[42, 0]),\n",
      "   midi.NoteOnEvent(tick=31, channel=9, data=[42, 127]),\n",
      "   midi.NoteOnEvent(tick=29, channel=9, data=[42, 0]),\n",
      "   midi.NoteOnEvent(tick=31, channel=9, data=[42, 127]),\n",
      "   midi.NoteOnEvent(tick=29, channel=9, data=[42, 0]),\n",
      "   midi.NoteOnEvent(tick=31, channel=9, data=[42, 127]),\n",
      "   midi.NoteOnEvent(tick=29, channel=9, data=[42, 0]),\n",
      "   midi.NoteOnEvent(tick=31, channel=9, data=[42, 127]),\n",
      "   midi.NoteOnEvent(tick=29, channel=9, data=[42, 0]),\n",
      "   midi.NoteOnEvent(tick=31, channel=9, data=[42, 127]),\n",
      "   midi.NoteOnEvent(tick=29, channel=9, data=[42, 0]),\n",
      "   midi.NoteOnEvent(tick=31, channel=9, data=[42, 127]),\n",
      "   midi.NoteOnEvent(tick=29, channel=9, data=[42, 0]),\n",
      "   midi.NoteOnEvent(tick=31, channel=9, data=[42, 127]),\n",
      "   midi.NoteOnEvent(tick=29, channel=9, data=[42, 0]),\n",
      "   midi.NoteOnEvent(tick=31, channel=9, data=[42, 127]),\n",
      "   midi.NoteOnEvent(tick=29, channel=9, data=[42, 0]),\n",
      "   midi.NoteOnEvent(tick=31, channel=9, data=[42, 127]),\n",
      "   midi.NoteOnEvent(tick=29, channel=9, data=[42, 0]),\n",
      "   midi.NoteOnEvent(tick=31, channel=9, data=[42, 127]),\n",
      "   midi.NoteOnEvent(tick=29, channel=9, data=[42, 0]),\n",
      "   midi.NoteOnEvent(tick=31, channel=9, data=[42, 127]),\n",
      "   midi.NoteOnEvent(tick=29, channel=9, data=[42, 0]),\n",
      "   midi.NoteOnEvent(tick=31, channel=9, data=[42, 127]),\n",
      "   midi.NoteOnEvent(tick=29, channel=9, data=[42, 0]),\n",
      "   midi.NoteOnEvent(tick=31, channel=9, data=[42, 127]),\n",
      "   midi.NoteOnEvent(tick=29, channel=9, data=[42, 0]),\n",
      "   midi.NoteOnEvent(tick=31, channel=9, data=[42, 127]),\n",
      "   midi.NoteOnEvent(tick=29, channel=9, data=[42, 0]),\n",
      "   midi.NoteOnEvent(tick=31, channel=9, data=[42, 127]),\n",
      "   midi.NoteOnEvent(tick=29, channel=9, data=[42, 0]),\n",
      "   midi.NoteOnEvent(tick=31, channel=9, data=[42, 127]),\n",
      "   midi.NoteOnEvent(tick=29, channel=9, data=[42, 0]),\n",
      "   midi.NoteOnEvent(tick=31, channel=9, data=[42, 127]),\n",
      "   midi.NoteOnEvent(tick=29, channel=9, data=[42, 0]),\n",
      "   midi.NoteOnEvent(tick=31, channel=9, data=[42, 127]),\n",
      "   midi.NoteOnEvent(tick=29, channel=9, data=[42, 0]),\n",
      "   midi.NoteOnEvent(tick=31, channel=9, data=[42, 127]),\n",
      "   midi.NoteOnEvent(tick=29, channel=9, data=[42, 0]),\n",
      "   midi.NoteOnEvent(tick=31, channel=9, data=[42, 127]),\n",
      "   midi.NoteOnEvent(tick=29, channel=9, data=[42, 0]),\n",
      "   midi.NoteOnEvent(tick=31, channel=9, data=[42, 127]),\n",
      "   midi.NoteOnEvent(tick=29, channel=9, data=[42, 0]),\n",
      "   midi.NoteOnEvent(tick=31, channel=9, data=[42, 127]),\n",
      "   midi.NoteOnEvent(tick=29, channel=9, data=[42, 0]),\n",
      "   midi.NoteOnEvent(tick=31, channel=9, data=[42, 127]),\n",
      "   midi.NoteOnEvent(tick=29, channel=9, data=[42, 0]),\n",
      "   midi.NoteOnEvent(tick=31, channel=9, data=[42, 127]),\n",
      "   midi.NoteOnEvent(tick=29, channel=9, data=[42, 0]),\n",
      "   midi.NoteOnEvent(tick=31, channel=9, data=[42, 127]),\n",
      "   midi.NoteOnEvent(tick=29, channel=9, data=[42, 0]),\n",
      "   midi.NoteOnEvent(tick=31, channel=9, data=[42, 127]),\n",
      "   midi.NoteOnEvent(tick=29, channel=9, data=[42, 0]),\n",
      "   midi.NoteOnEvent(tick=31, channel=9, data=[42, 127]),\n",
      "   midi.NoteOnEvent(tick=29, channel=9, data=[42, 0]),\n",
      "   midi.NoteOnEvent(tick=31, channel=9, data=[42, 127]),\n",
      "   midi.NoteOnEvent(tick=29, channel=9, data=[42, 0]),\n",
      "   midi.NoteOnEvent(tick=31, channel=9, data=[42, 127]),\n",
      "   midi.NoteOnEvent(tick=29, channel=9, data=[42, 0]),\n",
      "   midi.NoteOnEvent(tick=31, channel=9, data=[42, 127]),\n",
      "   midi.NoteOnEvent(tick=29, channel=9, data=[42, 0]),\n",
      "   midi.NoteOnEvent(tick=31, channel=9, data=[42, 127]),\n",
      "   midi.NoteOnEvent(tick=29, channel=9, data=[42, 0]),\n",
      "   midi.NoteOnEvent(tick=31, channel=9, data=[42, 127]),\n",
      "   midi.NoteOnEvent(tick=29, channel=9, data=[42, 0]),\n",
      "   midi.NoteOnEvent(tick=31, channel=9, data=[42, 127]),\n",
      "   midi.NoteOnEvent(tick=29, channel=9, data=[42, 0]),\n",
      "   midi.NoteOnEvent(tick=31, channel=9, data=[42, 127]),\n",
      "   midi.NoteOnEvent(tick=29, channel=9, data=[42, 0]),\n",
      "   midi.NoteOnEvent(tick=31, channel=9, data=[42, 127]),\n",
      "   midi.NoteOnEvent(tick=29, channel=9, data=[42, 0]),\n",
      "   midi.NoteOnEvent(tick=31, channel=9, data=[42, 127]),\n",
      "   midi.NoteOnEvent(tick=29, channel=9, data=[42, 0]),\n",
      "   midi.NoteOnEvent(tick=31, channel=9, data=[42, 127]),\n",
      "   midi.NoteOnEvent(tick=29, channel=9, data=[42, 0]),\n",
      "   midi.NoteOnEvent(tick=31, channel=9, data=[42, 127]),\n",
      "   midi.NoteOnEvent(tick=29, channel=9, data=[42, 0]),\n",
      "   midi.NoteOnEvent(tick=31, channel=9, data=[42, 127]),\n",
      "   midi.NoteOnEvent(tick=29, channel=9, data=[42, 0]),\n",
      "   midi.NoteOnEvent(tick=31, channel=9, data=[42, 127]),\n",
      "   midi.NoteOnEvent(tick=29, channel=9, data=[42, 0]),\n",
      "   midi.NoteOnEvent(tick=31, channel=9, data=[42, 127]),\n",
      "   midi.NoteOnEvent(tick=29, channel=9, data=[42, 0]),\n",
      "   midi.NoteOnEvent(tick=31, channel=9, data=[42, 127]),\n",
      "   midi.NoteOnEvent(tick=29, channel=9, data=[42, 0]),\n",
      "   midi.NoteOnEvent(tick=31, channel=9, data=[42, 127]),\n",
      "   midi.NoteOnEvent(tick=29, channel=9, data=[42, 0]),\n",
      "   midi.NoteOnEvent(tick=31, channel=9, data=[42, 127]),\n",
      "   midi.NoteOnEvent(tick=29, channel=9, data=[42, 0]),\n",
      "   midi.NoteOnEvent(tick=31, channel=9, data=[42, 127]),\n",
      "   midi.NoteOnEvent(tick=29, channel=9, data=[42, 0]),\n",
      "   midi.NoteOnEvent(tick=31, channel=9, data=[42, 127]),\n",
      "   midi.NoteOnEvent(tick=29, channel=9, data=[42, 0]),\n",
      "   midi.NoteOnEvent(tick=31, channel=9, data=[42, 127]),\n",
      "   midi.NoteOnEvent(tick=29, channel=9, data=[42, 0]),\n",
      "   midi.NoteOnEvent(tick=31, channel=9, data=[42, 127]),\n",
      "   midi.NoteOnEvent(tick=29, channel=9, data=[42, 0]),\n",
      "   midi.NoteOnEvent(tick=31, channel=9, data=[42, 127]),\n",
      "   midi.NoteOnEvent(tick=29, channel=9, data=[42, 0]),\n",
      "   midi.NoteOnEvent(tick=31, channel=9, data=[42, 127]),\n",
      "   midi.NoteOnEvent(tick=29, channel=9, data=[42, 0]),\n",
      "   midi.NoteOnEvent(tick=31, channel=9, data=[42, 127]),\n",
      "   midi.NoteOnEvent(tick=29, channel=9, data=[42, 0]),\n",
      "   midi.NoteOnEvent(tick=31, channel=9, data=[42, 127]),\n",
      "   midi.NoteOnEvent(tick=29, channel=9, data=[42, 0]),\n",
      "   midi.NoteOnEvent(tick=31, channel=9, data=[42, 127]),\n",
      "   midi.NoteOnEvent(tick=29, channel=9, data=[42, 0]),\n",
      "   midi.NoteOnEvent(tick=31, channel=9, data=[42, 127]),\n",
      "   midi.NoteOnEvent(tick=29, channel=9, data=[42, 0]),\n",
      "   midi.NoteOnEvent(tick=31, channel=9, data=[42, 127]),\n",
      "   midi.NoteOnEvent(tick=29, channel=9, data=[42, 0]),\n",
      "   midi.NoteOnEvent(tick=31, channel=9, data=[42, 127]),\n",
      "   midi.NoteOnEvent(tick=29, channel=9, data=[42, 0]),\n",
      "   midi.NoteOnEvent(tick=31, channel=9, data=[42, 127]),\n",
      "   midi.NoteOnEvent(tick=29, channel=9, data=[42, 0]),\n",
      "   midi.NoteOnEvent(tick=31, channel=9, data=[42, 127]),\n",
      "   midi.NoteOnEvent(tick=29, channel=9, data=[42, 0]),\n",
      "   midi.NoteOnEvent(tick=31, channel=9, data=[42, 127]),\n",
      "   midi.NoteOnEvent(tick=29, channel=9, data=[42, 0]),\n",
      "   midi.NoteOnEvent(tick=31, channel=9, data=[42, 127]),\n",
      "   midi.NoteOnEvent(tick=29, channel=9, data=[42, 0]),\n",
      "   midi.NoteOnEvent(tick=31, channel=9, data=[42, 127]),\n",
      "   midi.NoteOnEvent(tick=29, channel=9, data=[42, 0]),\n",
      "   midi.NoteOnEvent(tick=31, channel=9, data=[42, 127]),\n",
      "   midi.NoteOnEvent(tick=29, channel=9, data=[42, 0]),\n",
      "   midi.NoteOnEvent(tick=31, channel=9, data=[42, 127]),\n",
      "   midi.NoteOnEvent(tick=29, channel=9, data=[42, 0]),\n",
      "   midi.NoteOnEvent(tick=31, channel=9, data=[42, 127]),\n",
      "   midi.NoteOnEvent(tick=29, channel=9, data=[42, 0]),\n",
      "   midi.NoteOnEvent(tick=31, channel=9, data=[42, 127]),\n",
      "   midi.NoteOnEvent(tick=29, channel=9, data=[42, 0]),\n",
      "   midi.NoteOnEvent(tick=31, channel=9, data=[42, 127]),\n",
      "   midi.NoteOnEvent(tick=29, channel=9, data=[42, 0]),\n",
      "   midi.NoteOnEvent(tick=31, channel=9, data=[42, 127]),\n",
      "   midi.NoteOnEvent(tick=29, channel=9, data=[42, 0]),\n",
      "   midi.NoteOnEvent(tick=31, channel=9, data=[42, 127]),\n",
      "   midi.NoteOnEvent(tick=29, channel=9, data=[42, 0]),\n",
      "   midi.NoteOnEvent(tick=31, channel=9, data=[42, 127]),\n",
      "   midi.NoteOnEvent(tick=29, channel=9, data=[42, 0]),\n",
      "   midi.NoteOnEvent(tick=31, channel=9, data=[42, 127]),\n",
      "   midi.NoteOnEvent(tick=29, channel=9, data=[42, 0]),\n",
      "   midi.NoteOnEvent(tick=31, channel=9, data=[42, 127]),\n",
      "   midi.NoteOnEvent(tick=29, channel=9, data=[42, 0]),\n",
      "   midi.NoteOnEvent(tick=31, channel=9, data=[42, 127]),\n",
      "   midi.NoteOnEvent(tick=29, channel=9, data=[42, 0]),\n",
      "   midi.NoteOnEvent(tick=31, channel=9, data=[42, 127]),\n",
      "   midi.NoteOnEvent(tick=29, channel=9, data=[42, 0]),\n",
      "   midi.NoteOnEvent(tick=31, channel=9, data=[42, 127]),\n",
      "   midi.NoteOnEvent(tick=29, channel=9, data=[42, 0]),\n",
      "   midi.NoteOnEvent(tick=31, channel=9, data=[42, 127]),\n",
      "   midi.NoteOnEvent(tick=29, channel=9, data=[42, 0]),\n",
      "   midi.NoteOnEvent(tick=31, channel=9, data=[42, 127]),\n",
      "   midi.NoteOnEvent(tick=29, channel=9, data=[42, 0]),\n",
      "   midi.NoteOnEvent(tick=31, channel=9, data=[42, 127]),\n",
      "   midi.NoteOnEvent(tick=29, channel=9, data=[42, 0]),\n",
      "   midi.NoteOnEvent(tick=31, channel=9, data=[42, 127]),\n",
      "   midi.NoteOnEvent(tick=29, channel=9, data=[42, 0]),\n",
      "   midi.NoteOnEvent(tick=31, channel=9, data=[42, 127]),\n",
      "   midi.NoteOnEvent(tick=29, channel=9, data=[42, 0]),\n",
      "   midi.NoteOnEvent(tick=31, channel=9, data=[42, 127]),\n",
      "   midi.NoteOnEvent(tick=29, channel=9, data=[42, 0]),\n",
      "   midi.NoteOnEvent(tick=31, channel=9, data=[42, 127]),\n",
      "   midi.NoteOnEvent(tick=29, channel=9, data=[42, 0]),\n",
      "   midi.NoteOnEvent(tick=31, channel=9, data=[42, 127]),\n",
      "   midi.NoteOnEvent(tick=29, channel=9, data=[42, 0]),\n",
      "   midi.NoteOnEvent(tick=31, channel=9, data=[42, 127]),\n",
      "   midi.NoteOnEvent(tick=29, channel=9, data=[42, 0]),\n",
      "   midi.NoteOnEvent(tick=31, channel=9, data=[42, 127]),\n",
      "   midi.NoteOnEvent(tick=29, channel=9, data=[42, 0]),\n",
      "   midi.NoteOnEvent(tick=31, channel=9, data=[42, 127]),\n",
      "   midi.NoteOnEvent(tick=29, channel=9, data=[42, 0]),\n",
      "   midi.NoteOnEvent(tick=31, channel=9, data=[42, 127]),\n",
      "   midi.NoteOnEvent(tick=29, channel=9, data=[42, 0]),\n",
      "   midi.NoteOnEvent(tick=31, channel=9, data=[42, 127]),\n",
      "   midi.NoteOnEvent(tick=29, channel=9, data=[42, 0]),\n",
      "   midi.NoteOnEvent(tick=31, channel=9, data=[42, 127]),\n",
      "   midi.NoteOnEvent(tick=29, channel=9, data=[42, 0]),\n",
      "   midi.NoteOnEvent(tick=31, channel=9, data=[42, 127]),\n",
      "   midi.NoteOnEvent(tick=29, channel=9, data=[42, 0]),\n",
      "   midi.NoteOnEvent(tick=31, channel=9, data=[42, 127]),\n",
      "   midi.NoteOnEvent(tick=29, channel=9, data=[42, 0]),\n",
      "   midi.NoteOnEvent(tick=31, channel=9, data=[42, 127]),\n",
      "   midi.NoteOnEvent(tick=29, channel=9, data=[42, 0]),\n",
      "   midi.NoteOnEvent(tick=31, channel=9, data=[42, 127]),\n",
      "   midi.NoteOnEvent(tick=29, channel=9, data=[42, 0]),\n",
      "   midi.NoteOnEvent(tick=31, channel=9, data=[42, 127]),\n",
      "   midi.NoteOnEvent(tick=29, channel=9, data=[42, 0]),\n",
      "   midi.NoteOnEvent(tick=31, channel=9, data=[42, 127]),\n",
      "   midi.NoteOnEvent(tick=29, channel=9, data=[42, 0]),\n",
      "   midi.NoteOnEvent(tick=31, channel=9, data=[42, 127]),\n",
      "   midi.NoteOnEvent(tick=29, channel=9, data=[42, 0]),\n",
      "   midi.NoteOnEvent(tick=31, channel=9, data=[42, 127]),\n",
      "   midi.NoteOnEvent(tick=29, channel=9, data=[42, 0]),\n",
      "   midi.NoteOnEvent(tick=31, channel=9, data=[42, 127]),\n",
      "   midi.NoteOnEvent(tick=29, channel=9, data=[42, 0]),\n",
      "   midi.NoteOnEvent(tick=31, channel=9, data=[42, 127]),\n",
      "   midi.NoteOnEvent(tick=29, channel=9, data=[42, 0]),\n",
      "   midi.NoteOnEvent(tick=31, channel=9, data=[42, 127]),\n",
      "   midi.NoteOnEvent(tick=29, channel=9, data=[42, 0]),\n",
      "   midi.NoteOnEvent(tick=31, channel=9, data=[42, 127]),\n",
      "   midi.NoteOnEvent(tick=29, channel=9, data=[42, 0]),\n",
      "   midi.NoteOnEvent(tick=31, channel=9, data=[42, 127]),\n",
      "   midi.NoteOnEvent(tick=29, channel=9, data=[42, 0]),\n",
      "   midi.NoteOnEvent(tick=31, channel=9, data=[42, 127]),\n",
      "   midi.NoteOnEvent(tick=29, channel=9, data=[42, 0]),\n",
      "   midi.NoteOnEvent(tick=31, channel=9, data=[42, 127]),\n",
      "   midi.NoteOnEvent(tick=29, channel=9, data=[42, 0]),\n",
      "   midi.NoteOnEvent(tick=31, channel=9, data=[42, 127]),\n",
      "   midi.NoteOnEvent(tick=29, channel=9, data=[42, 0]),\n",
      "   midi.NoteOnEvent(tick=31, channel=9, data=[42, 127]),\n",
      "   midi.NoteOnEvent(tick=29, channel=9, data=[42, 0]),\n",
      "   midi.NoteOnEvent(tick=31, channel=9, data=[42, 127]),\n",
      "   midi.NoteOnEvent(tick=29, channel=9, data=[42, 0]),\n",
      "   midi.NoteOnEvent(tick=31, channel=9, data=[42, 127]),\n",
      "   midi.NoteOnEvent(tick=29, channel=9, data=[42, 0]),\n",
      "   midi.NoteOnEvent(tick=31, channel=9, data=[42, 127]),\n",
      "   midi.NoteOnEvent(tick=29, channel=9, data=[42, 0]),\n",
      "   midi.NoteOnEvent(tick=31, channel=9, data=[42, 127]),\n",
      "   midi.NoteOnEvent(tick=29, channel=9, data=[42, 0]),\n",
      "   midi.NoteOnEvent(tick=31, channel=9, data=[42, 127]),\n",
      "   midi.NoteOnEvent(tick=29, channel=9, data=[42, 0]),\n",
      "   midi.NoteOnEvent(tick=31, channel=9, data=[42, 127]),\n",
      "   midi.NoteOnEvent(tick=29, channel=9, data=[42, 0]),\n",
      "   midi.NoteOnEvent(tick=31, channel=9, data=[42, 127]),\n",
      "   midi.NoteOnEvent(tick=29, channel=9, data=[42, 0]),\n",
      "   midi.NoteOnEvent(tick=31, channel=9, data=[42, 127]),\n",
      "   midi.NoteOnEvent(tick=29, channel=9, data=[42, 0]),\n",
      "   midi.NoteOnEvent(tick=31, channel=9, data=[42, 127]),\n",
      "   midi.NoteOnEvent(tick=29, channel=9, data=[42, 0]),\n",
      "   midi.NoteOnEvent(tick=31, channel=9, data=[42, 127]),\n",
      "   midi.NoteOnEvent(tick=29, channel=9, data=[42, 0]),\n",
      "   midi.NoteOnEvent(tick=31, channel=9, data=[42, 127]),\n",
      "   midi.NoteOnEvent(tick=29, channel=9, data=[42, 0]),\n",
      "   midi.NoteOnEvent(tick=31, channel=9, data=[42, 127]),\n",
      "   midi.NoteOnEvent(tick=29, channel=9, data=[42, 0]),\n",
      "   midi.NoteOnEvent(tick=31, channel=9, data=[42, 127]),\n",
      "   midi.NoteOnEvent(tick=29, channel=9, data=[42, 0]),\n",
      "   midi.NoteOnEvent(tick=31, channel=9, data=[42, 127]),\n",
      "   midi.NoteOnEvent(tick=29, channel=9, data=[42, 0]),\n",
      "   midi.NoteOnEvent(tick=31, channel=9, data=[42, 127]),\n",
      "   midi.NoteOnEvent(tick=29, channel=9, data=[42, 0]),\n",
      "   midi.NoteOnEvent(tick=31, channel=9, data=[42, 127]),\n",
      "   midi.NoteOnEvent(tick=29, channel=9, data=[42, 0]),\n",
      "   midi.NoteOnEvent(tick=31, channel=9, data=[42, 127]),\n",
      "   midi.NoteOnEvent(tick=29, channel=9, data=[42, 0]),\n",
      "   midi.NoteOnEvent(tick=31, channel=9, data=[42, 127]),\n",
      "   midi.NoteOnEvent(tick=29, channel=9, data=[42, 0]),\n",
      "   midi.NoteOnEvent(tick=31, channel=9, data=[42, 127]),\n",
      "   midi.NoteOnEvent(tick=29, channel=9, data=[42, 0]),\n",
      "   midi.NoteOnEvent(tick=31, channel=9, data=[42, 127]),\n",
      "   midi.NoteOnEvent(tick=29, channel=9, data=[42, 0]),\n",
      "   midi.NoteOnEvent(tick=31, channel=9, data=[42, 127]),\n",
      "   midi.NoteOnEvent(tick=29, channel=9, data=[42, 0]),\n",
      "   midi.NoteOnEvent(tick=31, channel=9, data=[42, 127]),\n",
      "   midi.NoteOnEvent(tick=29, channel=9, data=[42, 0]),\n",
      "   midi.NoteOnEvent(tick=31, channel=9, data=[42, 127]),\n",
      "   midi.NoteOnEvent(tick=29, channel=9, data=[42, 0]),\n",
      "   midi.NoteOnEvent(tick=31, channel=9, data=[42, 127]),\n",
      "   midi.NoteOnEvent(tick=29, channel=9, data=[42, 0]),\n",
      "   midi.NoteOnEvent(tick=31, channel=9, data=[42, 127]),\n",
      "   midi.NoteOnEvent(tick=29, channel=9, data=[42, 0]),\n",
      "   midi.NoteOnEvent(tick=31, channel=9, data=[42, 127]),\n",
      "   midi.NoteOnEvent(tick=29, channel=9, data=[42, 0]),\n",
      "   midi.NoteOnEvent(tick=31, channel=9, data=[42, 127]),\n",
      "   midi.NoteOnEvent(tick=29, channel=9, data=[42, 0]),\n",
      "   midi.NoteOnEvent(tick=31, channel=9, data=[42, 127]),\n",
      "   midi.NoteOnEvent(tick=29, channel=9, data=[42, 0]),\n",
      "   midi.NoteOnEvent(tick=31, channel=9, data=[42, 127]),\n",
      "   midi.NoteOnEvent(tick=29, channel=9, data=[42, 0]),\n",
      "   midi.NoteOnEvent(tick=31, channel=9, data=[42, 127]),\n",
      "   midi.NoteOnEvent(tick=29, channel=9, data=[42, 0]),\n",
      "   midi.NoteOnEvent(tick=31, channel=9, data=[42, 127]),\n",
      "   midi.NoteOnEvent(tick=29, channel=9, data=[42, 0]),\n",
      "   midi.NoteOnEvent(tick=31, channel=9, data=[42, 127]),\n",
      "   midi.NoteOnEvent(tick=29, channel=9, data=[42, 0]),\n",
      "   midi.NoteOnEvent(tick=31, channel=9, data=[42, 127]),\n",
      "   midi.NoteOnEvent(tick=29, channel=9, data=[42, 0]),\n",
      "   midi.NoteOnEvent(tick=31, channel=9, data=[42, 127]),\n",
      "   midi.NoteOnEvent(tick=29, channel=9, data=[42, 0]),\n",
      "   midi.NoteOnEvent(tick=31, channel=9, data=[42, 127]),\n",
      "   midi.NoteOnEvent(tick=29, channel=9, data=[42, 0]),\n",
      "   midi.NoteOnEvent(tick=31, channel=9, data=[42, 127]),\n",
      "   midi.NoteOnEvent(tick=29, channel=9, data=[42, 0]),\n",
      "   midi.NoteOnEvent(tick=31, channel=9, data=[42, 127]),\n",
      "   midi.NoteOnEvent(tick=29, channel=9, data=[42, 0]),\n",
      "   midi.NoteOnEvent(tick=31, channel=9, data=[42, 127]),\n",
      "   midi.NoteOnEvent(tick=29, channel=9, data=[42, 0]),\n",
      "   midi.NoteOnEvent(tick=31, channel=9, data=[42, 127]),\n",
      "   midi.NoteOnEvent(tick=29, channel=9, data=[42, 0]),\n",
      "   midi.NoteOnEvent(tick=31, channel=9, data=[42, 127]),\n",
      "   midi.NoteOnEvent(tick=29, channel=9, data=[42, 0]),\n",
      "   midi.NoteOnEvent(tick=31, channel=9, data=[42, 127]),\n",
      "   midi.NoteOnEvent(tick=29, channel=9, data=[42, 0]),\n",
      "   midi.NoteOnEvent(tick=31, channel=9, data=[42, 127]),\n",
      "   midi.NoteOnEvent(tick=29, channel=9, data=[42, 0]),\n",
      "   midi.NoteOnEvent(tick=31, channel=9, data=[42, 127]),\n",
      "   midi.NoteOnEvent(tick=29, channel=9, data=[42, 0]),\n",
      "   midi.NoteOnEvent(tick=31, channel=9, data=[42, 127]),\n",
      "   midi.NoteOnEvent(tick=29, channel=9, data=[42, 0]),\n",
      "   midi.NoteOnEvent(tick=31, channel=9, data=[42, 127]),\n",
      "   midi.NoteOnEvent(tick=29, channel=9, data=[42, 0]),\n",
      "   midi.NoteOnEvent(tick=31, channel=9, data=[42, 127]),\n",
      "   midi.NoteOnEvent(tick=29, channel=9, data=[42, 0]),\n",
      "   midi.NoteOnEvent(tick=31, channel=9, data=[42, 127]),\n",
      "   midi.NoteOnEvent(tick=29, channel=9, data=[42, 0]),\n",
      "   midi.NoteOnEvent(tick=31, channel=9, data=[42, 127]),\n",
      "   midi.NoteOnEvent(tick=29, channel=9, data=[42, 0]),\n",
      "   midi.NoteOnEvent(tick=31, channel=9, data=[42, 127]),\n",
      "   midi.NoteOnEvent(tick=29, channel=9, data=[42, 0]),\n",
      "   midi.NoteOnEvent(tick=31, channel=9, data=[42, 127]),\n",
      "   midi.NoteOnEvent(tick=29, channel=9, data=[42, 0]),\n",
      "   midi.NoteOnEvent(tick=31, channel=9, data=[42, 127]),\n",
      "   midi.NoteOnEvent(tick=29, channel=9, data=[42, 0]),\n",
      "   midi.NoteOnEvent(tick=31, channel=9, data=[42, 127]),\n",
      "   midi.NoteOnEvent(tick=29, channel=9, data=[42, 0]),\n",
      "   midi.NoteOnEvent(tick=31, channel=9, data=[42, 127]),\n",
      "   midi.NoteOnEvent(tick=29, channel=9, data=[42, 0]),\n",
      "   midi.NoteOnEvent(tick=31, channel=9, data=[42, 127]),\n",
      "   midi.NoteOnEvent(tick=29, channel=9, data=[42, 0]),\n",
      "   midi.NoteOnEvent(tick=31, channel=9, data=[42, 127]),\n",
      "   midi.NoteOnEvent(tick=29, channel=9, data=[42, 0]),\n",
      "   midi.NoteOnEvent(tick=31, channel=9, data=[42, 127]),\n",
      "   midi.NoteOnEvent(tick=29, channel=9, data=[42, 0]),\n",
      "   midi.NoteOnEvent(tick=31, channel=9, data=[42, 127]),\n",
      "   midi.NoteOnEvent(tick=29, channel=9, data=[42, 0]),\n",
      "   midi.NoteOnEvent(tick=31, channel=9, data=[42, 127]),\n",
      "   midi.NoteOnEvent(tick=29, channel=9, data=[42, 0]),\n",
      "   midi.NoteOnEvent(tick=31, channel=9, data=[42, 127]),\n",
      "   midi.NoteOnEvent(tick=29, channel=9, data=[42, 0]),\n",
      "   midi.NoteOnEvent(tick=31, channel=9, data=[42, 127]),\n",
      "   midi.NoteOnEvent(tick=29, channel=9, data=[42, 0]),\n",
      "   midi.NoteOnEvent(tick=31, channel=9, data=[42, 127]),\n",
      "   midi.NoteOnEvent(tick=29, channel=9, data=[42, 0]),\n",
      "   midi.NoteOnEvent(tick=31, channel=9, data=[42, 127]),\n",
      "   midi.NoteOnEvent(tick=29, channel=9, data=[42, 0]),\n",
      "   midi.NoteOnEvent(tick=31, channel=9, data=[42, 127]),\n",
      "   midi.NoteOnEvent(tick=29, channel=9, data=[42, 0]),\n",
      "   midi.NoteOnEvent(tick=31, channel=9, data=[42, 127]),\n",
      "   midi.NoteOnEvent(tick=29, channel=9, data=[42, 0]),\n",
      "   midi.NoteOnEvent(tick=31, channel=9, data=[42, 127]),\n",
      "   midi.NoteOnEvent(tick=29, channel=9, data=[42, 0]),\n",
      "   midi.NoteOnEvent(tick=31, channel=9, data=[42, 127]),\n",
      "   midi.NoteOnEvent(tick=29, channel=9, data=[42, 0]),\n",
      "   midi.NoteOnEvent(tick=31, channel=9, data=[42, 127]),\n",
      "   midi.NoteOnEvent(tick=29, channel=9, data=[42, 0]),\n",
      "   midi.NoteOnEvent(tick=31, channel=9, data=[42, 127]),\n",
      "   midi.NoteOnEvent(tick=29, channel=9, data=[42, 0]),\n",
      "   midi.NoteOnEvent(tick=31, channel=9, data=[42, 127]),\n",
      "   midi.NoteOnEvent(tick=29, channel=9, data=[42, 0]),\n",
      "   midi.NoteOnEvent(tick=31, channel=9, data=[42, 127]),\n",
      "   midi.NoteOnEvent(tick=29, channel=9, data=[42, 0]),\n",
      "   midi.NoteOnEvent(tick=31, channel=9, data=[42, 127]),\n",
      "   midi.NoteOnEvent(tick=29, channel=9, data=[42, 0]),\n",
      "   midi.NoteOnEvent(tick=31, channel=9, data=[42, 127]),\n",
      "   midi.NoteOnEvent(tick=29, channel=9, data=[42, 0]),\n",
      "   midi.NoteOnEvent(tick=31, channel=9, data=[42, 127]),\n",
      "   midi.NoteOnEvent(tick=29, channel=9, data=[42, 0]),\n",
      "   midi.NoteOnEvent(tick=31, channel=9, data=[42, 127]),\n",
      "   midi.NoteOnEvent(tick=29, channel=9, data=[42, 0]),\n",
      "   midi.NoteOnEvent(tick=31, channel=9, data=[42, 127]),\n",
      "   midi.NoteOnEvent(tick=29, channel=9, data=[42, 0]),\n",
      "   midi.NoteOnEvent(tick=31, channel=9, data=[42, 127]),\n",
      "   midi.NoteOnEvent(tick=29, channel=9, data=[42, 0]),\n",
      "   midi.NoteOnEvent(tick=31, channel=9, data=[42, 127]),\n",
      "   midi.NoteOnEvent(tick=29, channel=9, data=[42, 0]),\n",
      "   midi.NoteOnEvent(tick=31, channel=9, data=[42, 127]),\n",
      "   midi.NoteOnEvent(tick=29, channel=9, data=[42, 0]),\n",
      "   midi.NoteOnEvent(tick=31, channel=9, data=[42, 127]),\n",
      "   midi.NoteOnEvent(tick=29, channel=9, data=[42, 0]),\n",
      "   midi.NoteOnEvent(tick=31, channel=9, data=[42, 127]),\n",
      "   midi.NoteOnEvent(tick=29, channel=9, data=[42, 0]),\n",
      "   midi.NoteOnEvent(tick=31, channel=9, data=[42, 127]),\n",
      "   midi.NoteOnEvent(tick=29, channel=9, data=[42, 0]),\n",
      "   midi.NoteOnEvent(tick=31, channel=9, data=[42, 127]),\n",
      "   midi.NoteOnEvent(tick=29, channel=9, data=[42, 0]),\n",
      "   midi.NoteOnEvent(tick=31, channel=9, data=[42, 127]),\n",
      "   midi.NoteOnEvent(tick=29, channel=9, data=[42, 0]),\n",
      "   midi.NoteOnEvent(tick=31, channel=9, data=[42, 127]),\n",
      "   midi.NoteOnEvent(tick=29, channel=9, data=[42, 0]),\n",
      "   midi.NoteOnEvent(tick=31, channel=9, data=[42, 127]),\n",
      "   midi.NoteOnEvent(tick=29, channel=9, data=[42, 0]),\n",
      "   midi.NoteOnEvent(tick=31, channel=9, data=[42, 127]),\n",
      "   midi.NoteOnEvent(tick=29, channel=9, data=[42, 0]),\n",
      "   midi.NoteOnEvent(tick=31, channel=9, data=[42, 127]),\n",
      "   midi.NoteOnEvent(tick=29, channel=9, data=[42, 0]),\n",
      "   midi.NoteOnEvent(tick=31, channel=9, data=[42, 127]),\n",
      "   midi.NoteOnEvent(tick=29, channel=9, data=[42, 0]),\n",
      "   midi.NoteOnEvent(tick=31, channel=9, data=[42, 127]),\n",
      "   midi.NoteOnEvent(tick=29, channel=9, data=[42, 0]),\n",
      "   midi.NoteOnEvent(tick=31, channel=9, data=[42, 127]),\n",
      "   midi.NoteOnEvent(tick=29, channel=9, data=[42, 0]),\n",
      "   midi.NoteOnEvent(tick=31, channel=9, data=[42, 127]),\n",
      "   midi.NoteOnEvent(tick=29, channel=9, data=[42, 0]),\n",
      "   midi.NoteOnEvent(tick=31, channel=9, data=[42, 127]),\n",
      "   midi.NoteOnEvent(tick=29, channel=9, data=[42, 0]),\n",
      "   midi.NoteOnEvent(tick=31, channel=9, data=[42, 127]),\n",
      "   midi.NoteOnEvent(tick=29, channel=9, data=[42, 0]),\n",
      "   midi.NoteOnEvent(tick=31, channel=9, data=[42, 127]),\n",
      "   midi.NoteOnEvent(tick=29, channel=9, data=[42, 0]),\n",
      "   midi.NoteOnEvent(tick=31, channel=9, data=[42, 127]),\n",
      "   midi.NoteOnEvent(tick=29, channel=9, data=[42, 0]),\n",
      "   midi.NoteOnEvent(tick=31, channel=9, data=[42, 127]),\n",
      "   midi.NoteOnEvent(tick=29, channel=9, data=[42, 0]),\n",
      "   midi.NoteOnEvent(tick=31, channel=9, data=[42, 127]),\n",
      "   midi.NoteOnEvent(tick=29, channel=9, data=[42, 0]),\n",
      "   midi.NoteOnEvent(tick=31, channel=9, data=[42, 127]),\n",
      "   midi.NoteOnEvent(tick=29, channel=9, data=[42, 0]),\n",
      "   midi.NoteOnEvent(tick=31, channel=9, data=[42, 127]),\n",
      "   midi.NoteOnEvent(tick=29, channel=9, data=[42, 0]),\n",
      "   midi.NoteOnEvent(tick=31, channel=9, data=[42, 127]),\n",
      "   midi.NoteOnEvent(tick=29, channel=9, data=[42, 0]),\n",
      "   midi.NoteOnEvent(tick=31, channel=9, data=[42, 127]),\n",
      "   midi.NoteOnEvent(tick=29, channel=9, data=[42, 0]),\n",
      "   midi.NoteOnEvent(tick=31, channel=9, data=[42, 127]),\n",
      "   midi.NoteOnEvent(tick=29, channel=9, data=[42, 0]),\n",
      "   midi.NoteOnEvent(tick=31, channel=9, data=[42, 127]),\n",
      "   midi.NoteOnEvent(tick=29, channel=9, data=[42, 0]),\n",
      "   midi.NoteOnEvent(tick=31, channel=9, data=[42, 127]),\n",
      "   midi.NoteOnEvent(tick=29, channel=9, data=[42, 0]),\n",
      "   midi.NoteOnEvent(tick=31, channel=9, data=[42, 127]),\n",
      "   midi.NoteOnEvent(tick=29, channel=9, data=[42, 0]),\n",
      "   midi.NoteOnEvent(tick=31, channel=9, data=[42, 127]),\n",
      "   midi.NoteOnEvent(tick=29, channel=9, data=[42, 0]),\n",
      "   midi.NoteOnEvent(tick=31, channel=9, data=[42, 127]),\n",
      "   midi.NoteOnEvent(tick=29, channel=9, data=[42, 0]),\n",
      "   midi.NoteOnEvent(tick=31, channel=9, data=[42, 127]),\n",
      "   midi.NoteOnEvent(tick=29, channel=9, data=[42, 0]),\n",
      "   midi.NoteOnEvent(tick=31, channel=9, data=[42, 127]),\n",
      "   midi.NoteOnEvent(tick=29, channel=9, data=[42, 0]),\n",
      "   midi.NoteOnEvent(tick=31, channel=9, data=[42, 127]),\n",
      "   midi.NoteOnEvent(tick=29, channel=9, data=[42, 0]),\n",
      "   midi.NoteOnEvent(tick=31, channel=9, data=[42, 127]),\n",
      "   midi.NoteOnEvent(tick=29, channel=9, data=[42, 0]),\n",
      "   midi.NoteOnEvent(tick=31, channel=9, data=[42, 127]),\n",
      "   midi.NoteOnEvent(tick=29, channel=9, data=[42, 0]),\n",
      "   midi.NoteOnEvent(tick=31, channel=9, data=[42, 127]),\n",
      "   midi.NoteOnEvent(tick=29, channel=9, data=[42, 0]),\n",
      "   midi.NoteOnEvent(tick=31, channel=9, data=[42, 127]),\n",
      "   midi.NoteOnEvent(tick=29, channel=9, data=[42, 0]),\n",
      "   midi.NoteOnEvent(tick=31, channel=9, data=[42, 127]),\n",
      "   midi.NoteOnEvent(tick=29, channel=9, data=[42, 0]),\n",
      "   midi.NoteOnEvent(tick=31, channel=9, data=[42, 127]),\n",
      "   midi.NoteOnEvent(tick=29, channel=9, data=[42, 0]),\n",
      "   midi.NoteOnEvent(tick=31, channel=9, data=[42, 127]),\n",
      "   midi.NoteOnEvent(tick=29, channel=9, data=[42, 0]),\n",
      "   midi.NoteOnEvent(tick=31, channel=9, data=[42, 127]),\n",
      "   midi.NoteOnEvent(tick=29, channel=9, data=[42, 0]),\n",
      "   midi.NoteOnEvent(tick=31, channel=9, data=[42, 127]),\n",
      "   midi.NoteOnEvent(tick=29, channel=9, data=[42, 0]),\n",
      "   midi.NoteOnEvent(tick=31, channel=9, data=[42, 127]),\n",
      "   midi.NoteOnEvent(tick=29, channel=9, data=[42, 0]),\n",
      "   midi.NoteOnEvent(tick=31, channel=9, data=[42, 127]),\n",
      "   midi.NoteOnEvent(tick=29, channel=9, data=[42, 0]),\n",
      "   midi.NoteOnEvent(tick=31, channel=9, data=[42, 127]),\n",
      "   midi.NoteOnEvent(tick=29, channel=9, data=[42, 0]),\n",
      "   midi.NoteOnEvent(tick=31, channel=9, data=[42, 127]),\n",
      "   midi.NoteOnEvent(tick=29, channel=9, data=[42, 0]),\n",
      "   midi.NoteOnEvent(tick=31, channel=9, data=[42, 127]),\n",
      "   midi.NoteOnEvent(tick=29, channel=9, data=[42, 0]),\n",
      "   midi.NoteOnEvent(tick=31, channel=9, data=[42, 127]),\n",
      "   midi.NoteOnEvent(tick=29, channel=9, data=[42, 0]),\n",
      "   midi.NoteOnEvent(tick=31, channel=9, data=[42, 127]),\n",
      "   midi.NoteOnEvent(tick=29, channel=9, data=[42, 0]),\n",
      "   midi.NoteOnEvent(tick=31, channel=9, data=[42, 127]),\n",
      "   midi.NoteOnEvent(tick=29, channel=9, data=[42, 0]),\n",
      "   midi.NoteOnEvent(tick=31, channel=9, data=[42, 127]),\n",
      "   midi.NoteOnEvent(tick=29, channel=9, data=[42, 0]),\n",
      "   midi.NoteOnEvent(tick=31, channel=9, data=[42, 127]),\n",
      "   midi.NoteOnEvent(tick=29, channel=9, data=[42, 0]),\n",
      "   midi.NoteOnEvent(tick=31, channel=9, data=[42, 127]),\n",
      "   midi.NoteOnEvent(tick=29, channel=9, data=[42, 0]),\n",
      "   midi.NoteOnEvent(tick=31, channel=9, data=[42, 127]),\n",
      "   midi.NoteOnEvent(tick=29, channel=9, data=[42, 0]),\n",
      "   midi.NoteOnEvent(tick=31, channel=9, data=[42, 127]),\n",
      "   midi.NoteOnEvent(tick=29, channel=9, data=[42, 0]),\n",
      "   midi.NoteOnEvent(tick=31, channel=9, data=[42, 127]),\n",
      "   midi.NoteOnEvent(tick=29, channel=9, data=[42, 0]),\n",
      "   midi.NoteOnEvent(tick=31, channel=9, data=[42, 127]),\n",
      "   midi.NoteOnEvent(tick=29, channel=9, data=[42, 0]),\n",
      "   midi.NoteOnEvent(tick=31, channel=9, data=[42, 127]),\n",
      "   midi.NoteOnEvent(tick=29, channel=9, data=[42, 0]),\n",
      "   midi.NoteOnEvent(tick=31, channel=9, data=[42, 127]),\n",
      "   midi.NoteOnEvent(tick=29, channel=9, data=[42, 0]),\n",
      "   midi.NoteOnEvent(tick=31, channel=9, data=[42, 127]),\n",
      "   midi.NoteOnEvent(tick=29, channel=9, data=[42, 0]),\n",
      "   midi.NoteOnEvent(tick=31, channel=9, data=[42, 127]),\n",
      "   midi.NoteOnEvent(tick=29, channel=9, data=[42, 0]),\n",
      "   midi.NoteOnEvent(tick=31, channel=9, data=[42, 127]),\n",
      "   midi.NoteOnEvent(tick=29, channel=9, data=[42, 0]),\n",
      "   midi.NoteOnEvent(tick=31, channel=9, data=[42, 127]),\n",
      "   midi.NoteOnEvent(tick=29, channel=9, data=[42, 0]),\n",
      "   midi.NoteOnEvent(tick=31, channel=9, data=[42, 127]),\n",
      "   midi.NoteOnEvent(tick=29, channel=9, data=[42, 0]),\n",
      "   midi.NoteOnEvent(tick=31, channel=9, data=[42, 127]),\n",
      "   midi.NoteOnEvent(tick=29, channel=9, data=[42, 0]),\n",
      "   midi.NoteOnEvent(tick=31, channel=9, data=[42, 127]),\n",
      "   midi.NoteOnEvent(tick=29, channel=9, data=[42, 0]),\n",
      "   midi.NoteOnEvent(tick=31, channel=9, data=[42, 127]),\n",
      "   midi.NoteOnEvent(tick=29, channel=9, data=[42, 0]),\n",
      "   midi.NoteOnEvent(tick=31, channel=9, data=[42, 127]),\n",
      "   midi.NoteOnEvent(tick=29, channel=9, data=[42, 0]),\n",
      "   midi.NoteOnEvent(tick=31, channel=9, data=[42, 127]),\n",
      "   midi.NoteOnEvent(tick=29, channel=9, data=[42, 0]),\n",
      "   midi.NoteOnEvent(tick=31, channel=9, data=[42, 127]),\n",
      "   midi.NoteOnEvent(tick=29, channel=9, data=[42, 0]),\n",
      "   midi.NoteOnEvent(tick=31, channel=9, data=[42, 127]),\n",
      "   midi.NoteOnEvent(tick=29, channel=9, data=[42, 0]),\n",
      "   midi.NoteOnEvent(tick=31, channel=9, data=[42, 127]),\n",
      "   midi.NoteOnEvent(tick=29, channel=9, data=[42, 0]),\n",
      "   midi.NoteOnEvent(tick=31, channel=9, data=[42, 127]),\n",
      "   midi.NoteOnEvent(tick=29, channel=9, data=[42, 0]),\n",
      "   midi.NoteOnEvent(tick=31, channel=9, data=[42, 127]),\n",
      "   midi.NoteOnEvent(tick=29, channel=9, data=[42, 0]),\n",
      "   midi.NoteOnEvent(tick=31, channel=9, data=[42, 127]),\n",
      "   midi.NoteOnEvent(tick=29, channel=9, data=[42, 0]),\n",
      "   midi.NoteOnEvent(tick=31, channel=9, data=[42, 127]),\n",
      "   midi.NoteOnEvent(tick=29, channel=9, data=[42, 0]),\n",
      "   midi.NoteOnEvent(tick=31, channel=9, data=[42, 127]),\n",
      "   midi.NoteOnEvent(tick=29, channel=9, data=[42, 0]),\n",
      "   midi.NoteOnEvent(tick=31, channel=9, data=[42, 127]),\n",
      "   midi.NoteOnEvent(tick=29, channel=9, data=[42, 0]),\n",
      "   midi.NoteOnEvent(tick=31, channel=9, data=[42, 127]),\n",
      "   midi.NoteOnEvent(tick=29, channel=9, data=[42, 0]),\n",
      "   midi.NoteOnEvent(tick=31, channel=9, data=[42, 127]),\n",
      "   midi.NoteOnEvent(tick=29, channel=9, data=[42, 0]),\n",
      "   midi.NoteOnEvent(tick=31, channel=9, data=[42, 127]),\n",
      "   midi.NoteOnEvent(tick=29, channel=9, data=[42, 0]),\n",
      "   midi.NoteOnEvent(tick=31, channel=9, data=[42, 127]),\n",
      "   midi.NoteOnEvent(tick=29, channel=9, data=[42, 0]),\n",
      "   midi.NoteOnEvent(tick=31, channel=9, data=[42, 127]),\n",
      "   midi.NoteOnEvent(tick=29, channel=9, data=[42, 0]),\n",
      "   midi.NoteOnEvent(tick=31, channel=9, data=[42, 127]),\n",
      "   midi.NoteOnEvent(tick=29, channel=9, data=[42, 0]),\n",
      "   midi.NoteOnEvent(tick=31, channel=9, data=[42, 127]),\n",
      "   midi.NoteOnEvent(tick=29, channel=9, data=[42, 0]),\n",
      "   midi.NoteOnEvent(tick=31, channel=9, data=[42, 127]),\n",
      "   midi.NoteOnEvent(tick=29, channel=9, data=[42, 0]),\n",
      "   midi.NoteOnEvent(tick=31, channel=9, data=[42, 127]),\n",
      "   midi.NoteOnEvent(tick=29, channel=9, data=[42, 0]),\n",
      "   midi.NoteOnEvent(tick=31, channel=9, data=[42, 127]),\n",
      "   midi.NoteOnEvent(tick=29, channel=9, data=[42, 0]),\n",
      "   midi.NoteOnEvent(tick=31, channel=9, data=[42, 127]),\n",
      "   midi.NoteOnEvent(tick=29, channel=9, data=[42, 0]),\n",
      "   midi.NoteOnEvent(tick=31, channel=9, data=[42, 127]),\n",
      "   midi.NoteOnEvent(tick=29, channel=9, data=[42, 0]),\n",
      "   midi.NoteOnEvent(tick=31, channel=9, data=[42, 127]),\n",
      "   midi.NoteOnEvent(tick=29, channel=9, data=[42, 0]),\n",
      "   midi.NoteOnEvent(tick=31, channel=9, data=[42, 127]),\n",
      "   midi.NoteOnEvent(tick=29, channel=9, data=[42, 0]),\n",
      "   midi.NoteOnEvent(tick=31, channel=9, data=[42, 127]),\n",
      "   midi.NoteOnEvent(tick=29, channel=9, data=[42, 0]),\n",
      "   midi.NoteOnEvent(tick=31, channel=9, data=[42, 127]),\n",
      "   midi.NoteOnEvent(tick=29, channel=9, data=[42, 0]),\n",
      "   midi.NoteOnEvent(tick=31, channel=9, data=[42, 127]),\n",
      "   midi.NoteOnEvent(tick=29, channel=9, data=[42, 0]),\n",
      "   midi.NoteOnEvent(tick=16, channel=9, data=[42, 127]),\n",
      "   midi.NoteOnEvent(tick=15, channel=9, data=[42, 127]),\n",
      "   midi.NoteOnEvent(tick=14, channel=9, data=[42, 0]),\n",
      "   midi.NoteOnEvent(tick=15, channel=9, data=[42, 0]),\n",
      "   midi.NoteOnEvent(tick=511, channel=9, data=[42, 127]),\n",
      "   midi.NoteOnEvent(tick=29, channel=9, data=[42, 0]),\n",
      "   midi.NoteOnEvent(tick=31, channel=9, data=[42, 127]),\n",
      "   midi.NoteOnEvent(tick=29, channel=9, data=[42, 0]),\n",
      "   midi.NoteOnEvent(tick=31, channel=9, data=[42, 127]),\n",
      "   midi.NoteOnEvent(tick=29, channel=9, data=[42, 0]),\n",
      "   midi.NoteOnEvent(tick=31, channel=9, data=[42, 127]),\n",
      "   midi.NoteOnEvent(tick=29, channel=9, data=[42, 0]),\n",
      "   midi.NoteOnEvent(tick=31, channel=9, data=[42, 127]),\n",
      "   midi.NoteOnEvent(tick=29, channel=9, data=[42, 0]),\n",
      "   midi.NoteOnEvent(tick=31, channel=9, data=[42, 127]),\n",
      "   midi.NoteOnEvent(tick=29, channel=9, data=[42, 0]),\n",
      "   midi.NoteOnEvent(tick=31, channel=9, data=[42, 127]),\n",
      "   midi.NoteOnEvent(tick=29, channel=9, data=[42, 0]),\n",
      "   midi.NoteOnEvent(tick=31, channel=9, data=[42, 127]),\n",
      "   midi.NoteOnEvent(tick=29, channel=9, data=[42, 0]),\n",
      "   midi.NoteOnEvent(tick=31, channel=9, data=[42, 127]),\n",
      "   midi.NoteOnEvent(tick=29, channel=9, data=[42, 0]),\n",
      "   midi.NoteOnEvent(tick=31, channel=9, data=[42, 127]),\n",
      "   midi.NoteOnEvent(tick=29, channel=9, data=[42, 0]),\n",
      "   midi.NoteOnEvent(tick=31, channel=9, data=[42, 127]),\n",
      "   midi.NoteOnEvent(tick=29, channel=9, data=[42, 0]),\n",
      "   midi.NoteOnEvent(tick=31, channel=9, data=[42, 127]),\n",
      "   midi.NoteOnEvent(tick=29, channel=9, data=[42, 0]),\n",
      "   midi.NoteOnEvent(tick=31, channel=9, data=[42, 127]),\n",
      "   midi.NoteOnEvent(tick=29, channel=9, data=[42, 0]),\n",
      "   midi.NoteOnEvent(tick=31, channel=9, data=[42, 127]),\n",
      "   midi.NoteOnEvent(tick=29, channel=9, data=[42, 0]),\n",
      "   midi.NoteOnEvent(tick=31, channel=9, data=[42, 127]),\n",
      "   midi.NoteOnEvent(tick=29, channel=9, data=[42, 0]),\n",
      "   midi.NoteOnEvent(tick=31, channel=9, data=[42, 127]),\n",
      "   midi.NoteOnEvent(tick=29, channel=9, data=[42, 0]),\n",
      "   midi.NoteOnEvent(tick=31, channel=9, data=[42, 127]),\n",
      "   midi.NoteOnEvent(tick=29, channel=9, data=[42, 0]),\n",
      "   midi.NoteOnEvent(tick=31, channel=9, data=[42, 127]),\n",
      "   midi.NoteOnEvent(tick=29, channel=9, data=[42, 0]),\n",
      "   midi.NoteOnEvent(tick=31, channel=9, data=[42, 127]),\n",
      "   midi.NoteOnEvent(tick=29, channel=9, data=[42, 0]),\n",
      "   midi.NoteOnEvent(tick=31, channel=9, data=[42, 127]),\n",
      "   midi.NoteOnEvent(tick=29, channel=9, data=[42, 0]),\n",
      "   midi.NoteOnEvent(tick=31, channel=9, data=[42, 127]),\n",
      "   midi.NoteOnEvent(tick=29, channel=9, data=[42, 0]),\n",
      "   midi.NoteOnEvent(tick=31, channel=9, data=[42, 127]),\n",
      "   midi.NoteOnEvent(tick=29, channel=9, data=[42, 0]),\n",
      "   midi.NoteOnEvent(tick=31, channel=9, data=[42, 127]),\n",
      "   midi.NoteOnEvent(tick=29, channel=9, data=[42, 0]),\n",
      "   midi.NoteOnEvent(tick=31, channel=9, data=[42, 127]),\n",
      "   midi.NoteOnEvent(tick=29, channel=9, data=[42, 0]),\n",
      "   midi.NoteOnEvent(tick=31, channel=9, data=[42, 127]),\n",
      "   midi.NoteOnEvent(tick=29, channel=9, data=[42, 0]),\n",
      "   midi.NoteOnEvent(tick=31, channel=9, data=[42, 127]),\n",
      "   midi.NoteOnEvent(tick=29, channel=9, data=[42, 0]),\n",
      "   midi.NoteOnEvent(tick=31, channel=9, data=[42, 127]),\n",
      "   midi.NoteOnEvent(tick=29, channel=9, data=[42, 0]),\n",
      "   midi.NoteOnEvent(tick=31, channel=9, data=[42, 127]),\n",
      "   midi.NoteOnEvent(tick=29, channel=9, data=[42, 0]),\n",
      "   midi.NoteOnEvent(tick=31, channel=9, data=[42, 127]),\n",
      "   midi.NoteOnEvent(tick=29, channel=9, data=[42, 0]),\n",
      "   midi.NoteOnEvent(tick=31, channel=9, data=[42, 127]),\n",
      "   midi.NoteOnEvent(tick=29, channel=9, data=[42, 0]),\n",
      "   midi.NoteOnEvent(tick=31, channel=9, data=[42, 127]),\n",
      "   midi.NoteOnEvent(tick=29, channel=9, data=[42, 0]),\n",
      "   midi.NoteOnEvent(tick=31, channel=9, data=[42, 127]),\n",
      "   midi.NoteOnEvent(tick=29, channel=9, data=[42, 0]),\n",
      "   midi.NoteOnEvent(tick=31, channel=9, data=[42, 127]),\n",
      "   midi.NoteOnEvent(tick=29, channel=9, data=[42, 0]),\n",
      "   midi.NoteOnEvent(tick=31, channel=9, data=[42, 127]),\n",
      "   midi.NoteOnEvent(tick=29, channel=9, data=[42, 0]),\n",
      "   midi.NoteOnEvent(tick=31, channel=9, data=[42, 127]),\n",
      "   midi.NoteOnEvent(tick=29, channel=9, data=[42, 0]),\n",
      "   midi.NoteOnEvent(tick=31, channel=9, data=[42, 127]),\n",
      "   midi.NoteOnEvent(tick=29, channel=9, data=[42, 0]),\n",
      "   midi.NoteOnEvent(tick=31, channel=9, data=[42, 127]),\n",
      "   midi.NoteOnEvent(tick=29, channel=9, data=[42, 0]),\n",
      "   midi.NoteOnEvent(tick=31, channel=9, data=[42, 127]),\n",
      "   midi.NoteOnEvent(tick=29, channel=9, data=[42, 0]),\n",
      "   midi.NoteOnEvent(tick=31, channel=9, data=[42, 127]),\n",
      "   midi.NoteOnEvent(tick=29, channel=9, data=[42, 0]),\n",
      "   midi.NoteOnEvent(tick=31, channel=9, data=[42, 127]),\n",
      "   midi.NoteOnEvent(tick=29, channel=9, data=[42, 0]),\n",
      "   midi.NoteOnEvent(tick=31, channel=9, data=[42, 127]),\n",
      "   midi.NoteOnEvent(tick=29, channel=9, data=[42, 0]),\n",
      "   midi.NoteOnEvent(tick=31, channel=9, data=[42, 127]),\n",
      "   midi.NoteOnEvent(tick=29, channel=9, data=[42, 0]),\n",
      "   midi.NoteOnEvent(tick=31, channel=9, data=[42, 127]),\n",
      "   midi.NoteOnEvent(tick=29, channel=9, data=[42, 0]),\n",
      "   midi.NoteOnEvent(tick=31, channel=9, data=[42, 127]),\n",
      "   midi.NoteOnEvent(tick=29, channel=9, data=[42, 0]),\n",
      "   midi.NoteOnEvent(tick=31, channel=9, data=[42, 127]),\n",
      "   midi.NoteOnEvent(tick=29, channel=9, data=[42, 0]),\n",
      "   midi.NoteOnEvent(tick=31, channel=9, data=[42, 127]),\n",
      "   midi.NoteOnEvent(tick=29, channel=9, data=[42, 0]),\n",
      "   midi.NoteOnEvent(tick=31, channel=9, data=[42, 127]),\n",
      "   midi.NoteOnEvent(tick=29, channel=9, data=[42, 0]),\n",
      "   midi.NoteOnEvent(tick=31, channel=9, data=[42, 127]),\n",
      "   midi.NoteOnEvent(tick=29, channel=9, data=[42, 0]),\n",
      "   midi.NoteOnEvent(tick=31, channel=9, data=[42, 127]),\n",
      "   midi.NoteOnEvent(tick=29, channel=9, data=[42, 0]),\n",
      "   midi.NoteOnEvent(tick=31, channel=9, data=[42, 127]),\n",
      "   midi.NoteOnEvent(tick=29, channel=9, data=[42, 0]),\n",
      "   midi.NoteOnEvent(tick=31, channel=9, data=[42, 127]),\n",
      "   midi.NoteOnEvent(tick=29, channel=9, data=[42, 0]),\n",
      "   midi.NoteOnEvent(tick=31, channel=9, data=[42, 127]),\n",
      "   midi.NoteOnEvent(tick=29, channel=9, data=[42, 0]),\n",
      "   midi.NoteOnEvent(tick=31, channel=9, data=[42, 127]),\n",
      "   midi.NoteOnEvent(tick=29, channel=9, data=[42, 0]),\n",
      "   midi.NoteOnEvent(tick=31, channel=9, data=[42, 127]),\n",
      "   midi.NoteOnEvent(tick=29, channel=9, data=[42, 0]),\n",
      "   midi.NoteOnEvent(tick=31, channel=9, data=[42, 127]),\n",
      "   midi.NoteOnEvent(tick=29, channel=9, data=[42, 0]),\n",
      "   midi.NoteOnEvent(tick=31, channel=9, data=[42, 127]),\n",
      "   midi.NoteOnEvent(tick=29, channel=9, data=[42, 0]),\n",
      "   midi.NoteOnEvent(tick=31, channel=9, data=[42, 127]),\n",
      "   midi.NoteOnEvent(tick=29, channel=9, data=[42, 0]),\n",
      "   midi.NoteOnEvent(tick=31, channel=9, data=[42, 127]),\n",
      "   midi.NoteOnEvent(tick=29, channel=9, data=[42, 0]),\n",
      "   midi.NoteOnEvent(tick=31, channel=9, data=[42, 127]),\n",
      "   midi.NoteOnEvent(tick=29, channel=9, data=[42, 0]),\n",
      "   midi.NoteOnEvent(tick=31, channel=9, data=[42, 127]),\n",
      "   midi.NoteOnEvent(tick=29, channel=9, data=[42, 0]),\n",
      "   midi.NoteOnEvent(tick=31, channel=9, data=[42, 127]),\n",
      "   midi.NoteOnEvent(tick=29, channel=9, data=[42, 0]),\n",
      "   midi.NoteOnEvent(tick=31, channel=9, data=[42, 127]),\n",
      "   midi.NoteOnEvent(tick=29, channel=9, data=[42, 0]),\n",
      "   midi.NoteOnEvent(tick=31, channel=9, data=[42, 127]),\n",
      "   midi.NoteOnEvent(tick=29, channel=9, data=[42, 0]),\n",
      "   midi.NoteOnEvent(tick=31, channel=9, data=[42, 127]),\n",
      "   midi.NoteOnEvent(tick=29, channel=9, data=[42, 0]),\n",
      "   midi.NoteOnEvent(tick=31, channel=9, data=[42, 127]),\n",
      "   midi.NoteOnEvent(tick=29, channel=9, data=[42, 0]),\n",
      "   midi.NoteOnEvent(tick=31, channel=9, data=[42, 127]),\n",
      "   midi.NoteOnEvent(tick=29, channel=9, data=[42, 0]),\n",
      "   midi.NoteOnEvent(tick=31, channel=9, data=[42, 127]),\n",
      "   midi.NoteOnEvent(tick=29, channel=9, data=[42, 0]),\n",
      "   midi.NoteOnEvent(tick=31, channel=9, data=[42, 127]),\n",
      "   midi.NoteOnEvent(tick=29, channel=9, data=[42, 0]),\n",
      "   midi.NoteOnEvent(tick=31, channel=9, data=[42, 127]),\n",
      "   midi.NoteOnEvent(tick=29, channel=9, data=[42, 0]),\n",
      "   midi.NoteOnEvent(tick=31, channel=9, data=[42, 127]),\n",
      "   midi.NoteOnEvent(tick=29, channel=9, data=[42, 0]),\n",
      "   midi.NoteOnEvent(tick=31, channel=9, data=[42, 127]),\n",
      "   midi.NoteOnEvent(tick=29, channel=9, data=[42, 0]),\n",
      "   midi.NoteOnEvent(tick=31, channel=9, data=[42, 127]),\n",
      "   midi.NoteOnEvent(tick=29, channel=9, data=[42, 0]),\n",
      "   midi.NoteOnEvent(tick=31, channel=9, data=[42, 127]),\n",
      "   midi.NoteOnEvent(tick=29, channel=9, data=[42, 0]),\n",
      "   midi.NoteOnEvent(tick=31, channel=9, data=[42, 127]),\n",
      "   midi.NoteOnEvent(tick=29, channel=9, data=[42, 0]),\n",
      "   midi.NoteOnEvent(tick=31, channel=9, data=[42, 127]),\n",
      "   midi.NoteOnEvent(tick=29, channel=9, data=[42, 0]),\n",
      "   midi.NoteOnEvent(tick=31, channel=9, data=[42, 127]),\n",
      "   midi.NoteOnEvent(tick=29, channel=9, data=[42, 0]),\n",
      "   midi.NoteOnEvent(tick=31, channel=9, data=[42, 127]),\n",
      "   midi.NoteOnEvent(tick=29, channel=9, data=[42, 0]),\n",
      "   midi.NoteOnEvent(tick=31, channel=9, data=[42, 127]),\n",
      "   midi.NoteOnEvent(tick=29, channel=9, data=[42, 0]),\n",
      "   midi.NoteOnEvent(tick=31, channel=9, data=[42, 127]),\n",
      "   midi.NoteOnEvent(tick=29, channel=9, data=[42, 0]),\n",
      "   midi.NoteOnEvent(tick=31, channel=9, data=[42, 127]),\n",
      "   midi.NoteOnEvent(tick=29, channel=9, data=[42, 0]),\n",
      "   midi.NoteOnEvent(tick=31, channel=9, data=[42, 127]),\n",
      "   midi.NoteOnEvent(tick=29, channel=9, data=[42, 0]),\n",
      "   midi.NoteOnEvent(tick=31, channel=9, data=[42, 127]),\n",
      "   midi.NoteOnEvent(tick=29, channel=9, data=[42, 0]),\n",
      "   midi.NoteOnEvent(tick=31, channel=9, data=[42, 127]),\n",
      "   midi.NoteOnEvent(tick=29, channel=9, data=[42, 0]),\n",
      "   midi.NoteOnEvent(tick=31, channel=9, data=[42, 127]),\n",
      "   midi.NoteOnEvent(tick=29, channel=9, data=[42, 0]),\n",
      "   midi.NoteOnEvent(tick=31, channel=9, data=[42, 127]),\n",
      "   midi.NoteOnEvent(tick=29, channel=9, data=[42, 0]),\n",
      "   midi.NoteOnEvent(tick=31, channel=9, data=[42, 127]),\n",
      "   midi.NoteOnEvent(tick=29, channel=9, data=[42, 0]),\n",
      "   midi.NoteOnEvent(tick=31, channel=9, data=[42, 127]),\n",
      "   midi.NoteOnEvent(tick=29, channel=9, data=[42, 0]),\n",
      "   midi.NoteOnEvent(tick=31, channel=9, data=[42, 127]),\n",
      "   midi.NoteOnEvent(tick=29, channel=9, data=[42, 0]),\n",
      "   midi.NoteOnEvent(tick=31, channel=9, data=[42, 127]),\n",
      "   midi.NoteOnEvent(tick=29, channel=9, data=[42, 0]),\n",
      "   midi.NoteOnEvent(tick=31, channel=9, data=[42, 127]),\n",
      "   midi.NoteOnEvent(tick=29, channel=9, data=[42, 0]),\n",
      "   midi.NoteOnEvent(tick=31, channel=9, data=[42, 127]),\n",
      "   midi.NoteOnEvent(tick=29, channel=9, data=[42, 0]),\n",
      "   midi.NoteOnEvent(tick=31, channel=9, data=[42, 127]),\n",
      "   midi.NoteOnEvent(tick=29, channel=9, data=[42, 0]),\n",
      "   midi.NoteOnEvent(tick=31, channel=9, data=[42, 127]),\n",
      "   midi.NoteOnEvent(tick=29, channel=9, data=[42, 0]),\n",
      "   midi.NoteOnEvent(tick=31, channel=9, data=[42, 127]),\n",
      "   midi.NoteOnEvent(tick=29, channel=9, data=[42, 0]),\n",
      "   midi.NoteOnEvent(tick=31, channel=9, data=[42, 127]),\n",
      "   midi.NoteOnEvent(tick=29, channel=9, data=[42, 0]),\n",
      "   midi.NoteOnEvent(tick=31, channel=9, data=[42, 127]),\n",
      "   midi.NoteOnEvent(tick=29, channel=9, data=[42, 0]),\n",
      "   midi.NoteOnEvent(tick=31, channel=9, data=[42, 127]),\n",
      "   midi.NoteOnEvent(tick=29, channel=9, data=[42, 0]),\n",
      "   midi.NoteOnEvent(tick=31, channel=9, data=[42, 127]),\n",
      "   midi.NoteOnEvent(tick=29, channel=9, data=[42, 0]),\n",
      "   midi.NoteOnEvent(tick=31, channel=9, data=[42, 127]),\n",
      "   midi.NoteOnEvent(tick=29, channel=9, data=[42, 0]),\n",
      "   midi.NoteOnEvent(tick=31, channel=9, data=[42, 127]),\n",
      "   midi.NoteOnEvent(tick=29, channel=9, data=[42, 0]),\n",
      "   midi.NoteOnEvent(tick=31, channel=9, data=[42, 127]),\n",
      "   midi.NoteOnEvent(tick=29, channel=9, data=[42, 0]),\n",
      "   midi.NoteOnEvent(tick=31, channel=9, data=[42, 127]),\n",
      "   midi.NoteOnEvent(tick=29, channel=9, data=[42, 0]),\n",
      "   midi.NoteOnEvent(tick=31, channel=9, data=[42, 127]),\n",
      "   midi.NoteOnEvent(tick=29, channel=9, data=[42, 0]),\n",
      "   midi.NoteOnEvent(tick=31, channel=9, data=[42, 127]),\n",
      "   midi.NoteOnEvent(tick=29, channel=9, data=[42, 0]),\n",
      "   midi.NoteOnEvent(tick=31, channel=9, data=[42, 127]),\n",
      "   midi.NoteOnEvent(tick=29, channel=9, data=[42, 0]),\n",
      "   midi.NoteOnEvent(tick=31, channel=9, data=[42, 127]),\n",
      "   midi.NoteOnEvent(tick=29, channel=9, data=[42, 0]),\n",
      "   midi.NoteOnEvent(tick=31, channel=9, data=[42, 127]),\n",
      "   midi.NoteOnEvent(tick=29, channel=9, data=[42, 0]),\n",
      "   midi.NoteOnEvent(tick=31, channel=9, data=[42, 127]),\n",
      "   midi.NoteOnEvent(tick=29, channel=9, data=[42, 0]),\n",
      "   midi.NoteOnEvent(tick=31, channel=9, data=[42, 127]),\n",
      "   midi.NoteOnEvent(tick=29, channel=9, data=[42, 0]),\n",
      "   midi.NoteOnEvent(tick=31, channel=9, data=[42, 127]),\n",
      "   midi.NoteOnEvent(tick=29, channel=9, data=[42, 0]),\n",
      "   midi.NoteOnEvent(tick=31, channel=9, data=[42, 127]),\n",
      "   midi.NoteOnEvent(tick=29, channel=9, data=[42, 0]),\n",
      "   midi.NoteOnEvent(tick=31, channel=9, data=[42, 127]),\n",
      "   midi.NoteOnEvent(tick=29, channel=9, data=[42, 0]),\n",
      "   midi.NoteOnEvent(tick=31, channel=9, data=[42, 127]),\n",
      "   midi.NoteOnEvent(tick=29, channel=9, data=[42, 0]),\n",
      "   midi.NoteOnEvent(tick=31, channel=9, data=[42, 127]),\n",
      "   midi.NoteOnEvent(tick=29, channel=9, data=[42, 0]),\n",
      "   midi.NoteOnEvent(tick=31, channel=9, data=[42, 127]),\n",
      "   midi.NoteOnEvent(tick=29, channel=9, data=[42, 0]),\n",
      "   midi.NoteOnEvent(tick=31, channel=9, data=[42, 127]),\n",
      "   midi.NoteOnEvent(tick=29, channel=9, data=[42, 0]),\n",
      "   midi.NoteOnEvent(tick=31, channel=9, data=[42, 127]),\n",
      "   midi.NoteOnEvent(tick=29, channel=9, data=[42, 0]),\n",
      "   midi.NoteOnEvent(tick=31, channel=9, data=[42, 127]),\n",
      "   midi.NoteOnEvent(tick=29, channel=9, data=[42, 0]),\n",
      "   midi.NoteOnEvent(tick=31, channel=9, data=[42, 127]),\n",
      "   midi.NoteOnEvent(tick=29, channel=9, data=[42, 0]),\n",
      "   midi.NoteOnEvent(tick=31, channel=9, data=[42, 127]),\n",
      "   midi.NoteOnEvent(tick=29, channel=9, data=[42, 0]),\n",
      "   midi.NoteOnEvent(tick=31, channel=9, data=[42, 127]),\n",
      "   midi.NoteOnEvent(tick=29, channel=9, data=[42, 0]),\n",
      "   midi.NoteOnEvent(tick=31, channel=9, data=[42, 127]),\n",
      "   midi.NoteOnEvent(tick=29, channel=9, data=[42, 0]),\n",
      "   midi.NoteOnEvent(tick=31, channel=9, data=[42, 127]),\n",
      "   midi.NoteOnEvent(tick=29, channel=9, data=[42, 0]),\n",
      "   midi.NoteOnEvent(tick=31, channel=9, data=[42, 127]),\n",
      "   midi.NoteOnEvent(tick=29, channel=9, data=[42, 0]),\n",
      "   midi.NoteOnEvent(tick=31, channel=9, data=[42, 127]),\n",
      "   midi.NoteOnEvent(tick=29, channel=9, data=[42, 0]),\n",
      "   midi.NoteOnEvent(tick=31, channel=9, data=[42, 127]),\n",
      "   midi.NoteOnEvent(tick=29, channel=9, data=[42, 0]),\n",
      "   midi.NoteOnEvent(tick=31, channel=9, data=[42, 127]),\n",
      "   midi.NoteOnEvent(tick=29, channel=9, data=[42, 0]),\n",
      "   midi.NoteOnEvent(tick=31, channel=9, data=[42, 127]),\n",
      "   midi.NoteOnEvent(tick=29, channel=9, data=[42, 0]),\n",
      "   midi.NoteOnEvent(tick=31, channel=9, data=[42, 127]),\n",
      "   midi.NoteOnEvent(tick=29, channel=9, data=[42, 0]),\n",
      "   midi.NoteOnEvent(tick=31, channel=9, data=[42, 127]),\n",
      "   midi.NoteOnEvent(tick=29, channel=9, data=[42, 0]),\n",
      "   midi.NoteOnEvent(tick=31, channel=9, data=[42, 127]),\n",
      "   midi.NoteOnEvent(tick=29, channel=9, data=[42, 0]),\n",
      "   midi.NoteOnEvent(tick=31, channel=9, data=[42, 127]),\n",
      "   midi.NoteOnEvent(tick=29, channel=9, data=[42, 0]),\n",
      "   midi.NoteOnEvent(tick=31, channel=9, data=[42, 127]),\n",
      "   midi.NoteOnEvent(tick=29, channel=9, data=[42, 0]),\n",
      "   midi.NoteOnEvent(tick=31, channel=9, data=[42, 127]),\n",
      "   midi.NoteOnEvent(tick=29, channel=9, data=[42, 0]),\n",
      "   midi.NoteOnEvent(tick=31, channel=9, data=[42, 127]),\n",
      "   midi.NoteOnEvent(tick=29, channel=9, data=[42, 0]),\n",
      "   midi.NoteOnEvent(tick=31, channel=9, data=[42, 127]),\n",
      "   midi.NoteOnEvent(tick=29, channel=9, data=[42, 0]),\n",
      "   midi.NoteOnEvent(tick=31, channel=9, data=[42, 127]),\n",
      "   midi.NoteOnEvent(tick=29, channel=9, data=[42, 0]),\n",
      "   midi.NoteOnEvent(tick=31, channel=9, data=[42, 127]),\n",
      "   midi.NoteOnEvent(tick=29, channel=9, data=[42, 0]),\n",
      "   midi.NoteOnEvent(tick=31, channel=9, data=[42, 127]),\n",
      "   midi.NoteOnEvent(tick=29, channel=9, data=[42, 0]),\n",
      "   midi.NoteOnEvent(tick=31, channel=9, data=[42, 127]),\n",
      "   midi.NoteOnEvent(tick=29, channel=9, data=[42, 0]),\n",
      "   midi.NoteOnEvent(tick=31, channel=9, data=[42, 127]),\n",
      "   midi.NoteOnEvent(tick=29, channel=9, data=[42, 0]),\n",
      "   midi.NoteOnEvent(tick=31, channel=9, data=[42, 127]),\n",
      "   midi.NoteOnEvent(tick=29, channel=9, data=[42, 0]),\n",
      "   midi.NoteOnEvent(tick=31, channel=9, data=[42, 127]),\n",
      "   midi.NoteOnEvent(tick=29, channel=9, data=[42, 0]),\n",
      "   midi.NoteOnEvent(tick=31, channel=9, data=[42, 127]),\n",
      "   midi.NoteOnEvent(tick=29, channel=9, data=[42, 0]),\n",
      "   midi.NoteOnEvent(tick=31, channel=9, data=[42, 127]),\n",
      "   midi.NoteOnEvent(tick=29, channel=9, data=[42, 0]),\n",
      "   midi.NoteOnEvent(tick=31, channel=9, data=[42, 127]),\n",
      "   midi.NoteOnEvent(tick=29, channel=9, data=[42, 0]),\n",
      "   midi.NoteOnEvent(tick=31, channel=9, data=[42, 127]),\n",
      "   midi.NoteOnEvent(tick=29, channel=9, data=[42, 0]),\n",
      "   midi.NoteOnEvent(tick=31, channel=9, data=[42, 127]),\n",
      "   midi.NoteOnEvent(tick=29, channel=9, data=[42, 0]),\n",
      "   midi.NoteOnEvent(tick=31, channel=9, data=[42, 127]),\n",
      "   midi.NoteOnEvent(tick=29, channel=9, data=[42, 0]),\n",
      "   midi.NoteOnEvent(tick=31, channel=9, data=[42, 127]),\n",
      "   midi.NoteOnEvent(tick=29, channel=9, data=[42, 0]),\n",
      "   midi.NoteOnEvent(tick=31, channel=9, data=[42, 127]),\n",
      "   midi.NoteOnEvent(tick=29, channel=9, data=[42, 0]),\n",
      "   midi.NoteOnEvent(tick=31, channel=9, data=[42, 127]),\n",
      "   midi.NoteOnEvent(tick=29, channel=9, data=[42, 0]),\n",
      "   midi.NoteOnEvent(tick=31, channel=9, data=[42, 127]),\n",
      "   midi.NoteOnEvent(tick=29, channel=9, data=[42, 0]),\n",
      "   midi.NoteOnEvent(tick=31, channel=9, data=[42, 127]),\n",
      "   midi.NoteOnEvent(tick=29, channel=9, data=[42, 0]),\n",
      "   midi.NoteOnEvent(tick=31, channel=9, data=[42, 127]),\n",
      "   midi.NoteOnEvent(tick=29, channel=9, data=[42, 0]),\n",
      "   midi.NoteOnEvent(tick=31, channel=9, data=[42, 127]),\n",
      "   midi.NoteOnEvent(tick=29, channel=9, data=[42, 0]),\n",
      "   midi.NoteOnEvent(tick=31, channel=9, data=[42, 127]),\n",
      "   midi.NoteOnEvent(tick=29, channel=9, data=[42, 0]),\n",
      "   midi.NoteOnEvent(tick=31, channel=9, data=[42, 127]),\n",
      "   midi.NoteOnEvent(tick=29, channel=9, data=[42, 0]),\n",
      "   midi.NoteOnEvent(tick=31, channel=9, data=[42, 127]),\n",
      "   midi.NoteOnEvent(tick=29, channel=9, data=[42, 0]),\n",
      "   midi.NoteOnEvent(tick=31, channel=9, data=[42, 127]),\n",
      "   midi.NoteOnEvent(tick=29, channel=9, data=[42, 0]),\n",
      "   midi.NoteOnEvent(tick=31, channel=9, data=[42, 127]),\n",
      "   midi.NoteOnEvent(tick=29, channel=9, data=[42, 0]),\n",
      "   midi.NoteOnEvent(tick=31, channel=9, data=[42, 127]),\n",
      "   midi.NoteOnEvent(tick=29, channel=9, data=[42, 0]),\n",
      "   midi.NoteOnEvent(tick=31, channel=9, data=[42, 127]),\n",
      "   midi.NoteOnEvent(tick=29, channel=9, data=[42, 0]),\n",
      "   midi.NoteOnEvent(tick=31, channel=9, data=[42, 127]),\n",
      "   midi.NoteOnEvent(tick=29, channel=9, data=[42, 0]),\n",
      "   midi.NoteOnEvent(tick=31, channel=9, data=[42, 127]),\n",
      "   midi.NoteOnEvent(tick=29, channel=9, data=[42, 0]),\n",
      "   midi.NoteOnEvent(tick=31, channel=9, data=[42, 127]),\n",
      "   midi.NoteOnEvent(tick=29, channel=9, data=[42, 0]),\n",
      "   midi.NoteOnEvent(tick=31, channel=9, data=[42, 127]),\n",
      "   midi.NoteOnEvent(tick=29, channel=9, data=[42, 0]),\n",
      "   midi.NoteOnEvent(tick=31, channel=9, data=[42, 127]),\n",
      "   midi.NoteOnEvent(tick=29, channel=9, data=[42, 0]),\n",
      "   midi.NoteOnEvent(tick=31, channel=9, data=[42, 127]),\n",
      "   midi.NoteOnEvent(tick=29, channel=9, data=[42, 0]),\n",
      "   midi.NoteOnEvent(tick=31, channel=9, data=[42, 127]),\n",
      "   midi.NoteOnEvent(tick=29, channel=9, data=[42, 0]),\n",
      "   midi.NoteOnEvent(tick=31, channel=9, data=[42, 127]),\n",
      "   midi.NoteOnEvent(tick=29, channel=9, data=[42, 0]),\n",
      "   midi.NoteOnEvent(tick=31, channel=9, data=[42, 127]),\n",
      "   midi.NoteOnEvent(tick=29, channel=9, data=[42, 0]),\n",
      "   midi.NoteOnEvent(tick=31, channel=9, data=[42, 127]),\n",
      "   midi.NoteOnEvent(tick=29, channel=9, data=[42, 0]),\n",
      "   midi.NoteOnEvent(tick=31, channel=9, data=[42, 127]),\n",
      "   midi.NoteOnEvent(tick=29, channel=9, data=[42, 0]),\n",
      "   midi.NoteOnEvent(tick=31, channel=9, data=[42, 127]),\n",
      "   midi.NoteOnEvent(tick=29, channel=9, data=[42, 0]),\n",
      "   midi.NoteOnEvent(tick=31, channel=9, data=[42, 127]),\n",
      "   midi.NoteOnEvent(tick=29, channel=9, data=[42, 0]),\n",
      "   midi.NoteOnEvent(tick=31, channel=9, data=[42, 127]),\n",
      "   midi.NoteOnEvent(tick=29, channel=9, data=[42, 0]),\n",
      "   midi.NoteOnEvent(tick=31, channel=9, data=[42, 127]),\n",
      "   midi.NoteOnEvent(tick=29, channel=9, data=[42, 0]),\n",
      "   midi.NoteOnEvent(tick=31, channel=9, data=[42, 127]),\n",
      "   midi.NoteOnEvent(tick=29, channel=9, data=[42, 0]),\n",
      "   midi.NoteOnEvent(tick=31, channel=9, data=[42, 127]),\n",
      "   midi.NoteOnEvent(tick=29, channel=9, data=[42, 0]),\n",
      "   midi.NoteOnEvent(tick=31, channel=9, data=[42, 127]),\n",
      "   midi.NoteOnEvent(tick=29, channel=9, data=[42, 0]),\n",
      "   midi.NoteOnEvent(tick=31, channel=9, data=[42, 127]),\n",
      "   midi.NoteOnEvent(tick=29, channel=9, data=[42, 0]),\n",
      "   midi.NoteOnEvent(tick=31, channel=9, data=[42, 127]),\n",
      "   midi.NoteOnEvent(tick=29, channel=9, data=[42, 0]),\n",
      "   midi.NoteOnEvent(tick=31, channel=9, data=[42, 127]),\n",
      "   midi.NoteOnEvent(tick=29, channel=9, data=[42, 0]),\n",
      "   midi.NoteOnEvent(tick=31, channel=9, data=[42, 127]),\n",
      "   midi.NoteOnEvent(tick=29, channel=9, data=[42, 0]),\n",
      "   midi.NoteOnEvent(tick=31, channel=9, data=[42, 127]),\n",
      "   midi.NoteOnEvent(tick=29, channel=9, data=[42, 0]),\n",
      "   midi.NoteOnEvent(tick=31, channel=9, data=[42, 127]),\n",
      "   midi.NoteOnEvent(tick=29, channel=9, data=[42, 0]),\n",
      "   midi.NoteOnEvent(tick=31, channel=9, data=[42, 127]),\n",
      "   midi.NoteOnEvent(tick=29, channel=9, data=[42, 0]),\n",
      "   midi.NoteOnEvent(tick=31, channel=9, data=[42, 127]),\n",
      "   midi.NoteOnEvent(tick=29, channel=9, data=[42, 0]),\n",
      "   midi.NoteOnEvent(tick=31, channel=9, data=[42, 127]),\n",
      "   midi.NoteOnEvent(tick=29, channel=9, data=[42, 0]),\n",
      "   midi.NoteOnEvent(tick=31, channel=9, data=[42, 127]),\n",
      "   midi.NoteOnEvent(tick=29, channel=9, data=[42, 0]),\n",
      "   midi.NoteOnEvent(tick=31, channel=9, data=[42, 127]),\n",
      "   midi.NoteOnEvent(tick=29, channel=9, data=[42, 0]),\n",
      "   midi.NoteOnEvent(tick=31, channel=9, data=[42, 127]),\n",
      "   midi.NoteOnEvent(tick=29, channel=9, data=[42, 0]),\n",
      "   midi.NoteOnEvent(tick=31, channel=9, data=[42, 127]),\n",
      "   midi.NoteOnEvent(tick=29, channel=9, data=[42, 0]),\n",
      "   midi.NoteOnEvent(tick=31, channel=9, data=[42, 127]),\n",
      "   midi.NoteOnEvent(tick=29, channel=9, data=[42, 0]),\n",
      "   midi.NoteOnEvent(tick=31, channel=9, data=[42, 127]),\n",
      "   midi.NoteOnEvent(tick=29, channel=9, data=[42, 0]),\n",
      "   midi.NoteOnEvent(tick=31, channel=9, data=[42, 127]),\n",
      "   midi.NoteOnEvent(tick=29, channel=9, data=[42, 0]),\n",
      "   midi.NoteOnEvent(tick=31, channel=9, data=[42, 127]),\n",
      "   midi.NoteOnEvent(tick=29, channel=9, data=[42, 0]),\n",
      "   midi.NoteOnEvent(tick=31, channel=9, data=[42, 127]),\n",
      "   midi.NoteOnEvent(tick=29, channel=9, data=[42, 0]),\n",
      "   midi.NoteOnEvent(tick=31, channel=9, data=[42, 127]),\n",
      "   midi.NoteOnEvent(tick=29, channel=9, data=[42, 0]),\n",
      "   midi.NoteOnEvent(tick=31, channel=9, data=[42, 127]),\n",
      "   midi.NoteOnEvent(tick=29, channel=9, data=[42, 0]),\n",
      "   midi.NoteOnEvent(tick=31, channel=9, data=[42, 127]),\n",
      "   midi.NoteOnEvent(tick=29, channel=9, data=[42, 0]),\n",
      "   midi.NoteOnEvent(tick=31, channel=9, data=[42, 127]),\n",
      "   midi.NoteOnEvent(tick=29, channel=9, data=[42, 0]),\n",
      "   midi.NoteOnEvent(tick=31, channel=9, data=[42, 127]),\n",
      "   midi.NoteOnEvent(tick=29, channel=9, data=[42, 0]),\n",
      "   midi.NoteOnEvent(tick=31, channel=9, data=[42, 127]),\n",
      "   midi.NoteOnEvent(tick=29, channel=9, data=[42, 0]),\n",
      "   midi.NoteOnEvent(tick=31, channel=9, data=[42, 127]),\n",
      "   midi.NoteOnEvent(tick=29, channel=9, data=[42, 0]),\n",
      "   midi.NoteOnEvent(tick=31, channel=9, data=[42, 127]),\n",
      "   midi.NoteOnEvent(tick=29, channel=9, data=[42, 0]),\n",
      "   midi.NoteOnEvent(tick=31, channel=9, data=[42, 127]),\n",
      "   midi.NoteOnEvent(tick=29, channel=9, data=[42, 0]),\n",
      "   midi.NoteOnEvent(tick=31, channel=9, data=[42, 127]),\n",
      "   midi.NoteOnEvent(tick=29, channel=9, data=[42, 0]),\n",
      "   midi.NoteOnEvent(tick=31, channel=9, data=[42, 127]),\n",
      "   midi.NoteOnEvent(tick=29, channel=9, data=[42, 0]),\n",
      "   midi.NoteOnEvent(tick=31, channel=9, data=[42, 127]),\n",
      "   midi.NoteOnEvent(tick=29, channel=9, data=[42, 0]),\n",
      "   midi.NoteOnEvent(tick=31, channel=9, data=[42, 127]),\n",
      "   midi.NoteOnEvent(tick=29, channel=9, data=[42, 0]),\n",
      "   midi.NoteOnEvent(tick=31, channel=9, data=[42, 127]),\n",
      "   midi.NoteOnEvent(tick=29, channel=9, data=[42, 0]),\n",
      "   midi.NoteOnEvent(tick=31, channel=9, data=[42, 127]),\n",
      "   midi.NoteOnEvent(tick=29, channel=9, data=[42, 0]),\n",
      "   midi.NoteOnEvent(tick=31, channel=9, data=[42, 127]),\n",
      "   midi.NoteOnEvent(tick=29, channel=9, data=[42, 0]),\n",
      "   midi.NoteOnEvent(tick=31, channel=9, data=[42, 127]),\n",
      "   midi.NoteOnEvent(tick=29, channel=9, data=[42, 0]),\n",
      "   midi.NoteOnEvent(tick=31, channel=9, data=[42, 127]),\n",
      "   midi.NoteOnEvent(tick=29, channel=9, data=[42, 0]),\n",
      "   midi.NoteOnEvent(tick=31, channel=9, data=[42, 127]),\n",
      "   midi.NoteOnEvent(tick=29, channel=9, data=[42, 0]),\n",
      "   midi.NoteOnEvent(tick=31, channel=9, data=[42, 127]),\n",
      "   midi.NoteOnEvent(tick=29, channel=9, data=[42, 0]),\n",
      "   midi.NoteOnEvent(tick=31, channel=9, data=[42, 127]),\n",
      "   midi.NoteOnEvent(tick=29, channel=9, data=[42, 0]),\n",
      "   midi.NoteOnEvent(tick=31, channel=9, data=[42, 127]),\n",
      "   midi.NoteOnEvent(tick=29, channel=9, data=[42, 0]),\n",
      "   midi.NoteOnEvent(tick=31, channel=9, data=[42, 127]),\n",
      "   midi.NoteOnEvent(tick=29, channel=9, data=[42, 0]),\n",
      "   midi.NoteOnEvent(tick=31, channel=9, data=[42, 127]),\n",
      "   midi.NoteOnEvent(tick=29, channel=9, data=[42, 0]),\n",
      "   midi.NoteOnEvent(tick=31, channel=9, data=[42, 127]),\n",
      "   midi.NoteOnEvent(tick=29, channel=9, data=[42, 0]),\n",
      "   midi.NoteOnEvent(tick=31, channel=9, data=[42, 127]),\n",
      "   midi.NoteOnEvent(tick=29, channel=9, data=[42, 0]),\n",
      "   midi.NoteOnEvent(tick=31, channel=9, data=[42, 127]),\n",
      "   midi.NoteOnEvent(tick=29, channel=9, data=[42, 0]),\n",
      "   midi.NoteOnEvent(tick=31, channel=9, data=[42, 127]),\n",
      "   midi.NoteOnEvent(tick=29, channel=9, data=[42, 0]),\n",
      "   midi.NoteOnEvent(tick=31, channel=9, data=[42, 127]),\n",
      "   midi.NoteOnEvent(tick=29, channel=9, data=[42, 0]),\n",
      "   midi.NoteOnEvent(tick=31, channel=9, data=[42, 127]),\n",
      "   midi.NoteOnEvent(tick=29, channel=9, data=[42, 0]),\n",
      "   midi.NoteOnEvent(tick=31, channel=9, data=[42, 127]),\n",
      "   midi.NoteOnEvent(tick=29, channel=9, data=[42, 0]),\n",
      "   midi.NoteOnEvent(tick=31, channel=9, data=[42, 127]),\n",
      "   midi.NoteOnEvent(tick=29, channel=9, data=[42, 0]),\n",
      "   midi.NoteOnEvent(tick=31, channel=9, data=[42, 127]),\n",
      "   midi.NoteOnEvent(tick=29, channel=9, data=[42, 0]),\n",
      "   midi.NoteOnEvent(tick=31, channel=9, data=[42, 127]),\n",
      "   midi.NoteOnEvent(tick=29, channel=9, data=[42, 0]),\n",
      "   midi.NoteOnEvent(tick=31, channel=9, data=[42, 127]),\n",
      "   midi.NoteOnEvent(tick=29, channel=9, data=[42, 0]),\n",
      "   midi.NoteOnEvent(tick=31, channel=9, data=[42, 127]),\n",
      "   midi.NoteOnEvent(tick=29, channel=9, data=[42, 0]),\n",
      "   midi.NoteOnEvent(tick=31, channel=9, data=[42, 127]),\n",
      "   midi.NoteOnEvent(tick=29, channel=9, data=[42, 0]),\n",
      "   midi.NoteOnEvent(tick=31, channel=9, data=[42, 127]),\n",
      "   midi.NoteOnEvent(tick=29, channel=9, data=[42, 0]),\n",
      "   midi.NoteOnEvent(tick=31, channel=9, data=[42, 127]),\n",
      "   midi.NoteOnEvent(tick=29, channel=9, data=[42, 0]),\n",
      "   midi.NoteOnEvent(tick=31, channel=9, data=[42, 127]),\n",
      "   midi.NoteOnEvent(tick=29, channel=9, data=[42, 0]),\n",
      "   midi.NoteOnEvent(tick=31, channel=9, data=[42, 127]),\n",
      "   midi.NoteOnEvent(tick=29, channel=9, data=[42, 0]),\n",
      "   midi.NoteOnEvent(tick=31, channel=9, data=[42, 127]),\n",
      "   midi.NoteOnEvent(tick=29, channel=9, data=[42, 0]),\n",
      "   midi.NoteOnEvent(tick=31, channel=9, data=[42, 127]),\n",
      "   midi.NoteOnEvent(tick=29, channel=9, data=[42, 0]),\n",
      "   midi.NoteOnEvent(tick=31, channel=9, data=[42, 127]),\n",
      "   midi.NoteOnEvent(tick=29, channel=9, data=[42, 0]),\n",
      "   midi.NoteOnEvent(tick=31, channel=9, data=[42, 127]),\n",
      "   midi.NoteOnEvent(tick=29, channel=9, data=[42, 0]),\n",
      "   midi.NoteOnEvent(tick=31, channel=9, data=[42, 127]),\n",
      "   midi.NoteOnEvent(tick=29, channel=9, data=[42, 0]),\n",
      "   midi.NoteOnEvent(tick=31, channel=9, data=[42, 127]),\n",
      "   midi.NoteOnEvent(tick=29, channel=9, data=[42, 0]),\n",
      "   midi.NoteOnEvent(tick=31, channel=9, data=[42, 127]),\n",
      "   midi.NoteOnEvent(tick=29, channel=9, data=[42, 0]),\n",
      "   midi.NoteOnEvent(tick=31, channel=9, data=[42, 127]),\n",
      "   midi.NoteOnEvent(tick=29, channel=9, data=[42, 0]),\n",
      "   midi.NoteOnEvent(tick=31, channel=9, data=[42, 127]),\n",
      "   midi.NoteOnEvent(tick=29, channel=9, data=[42, 0]),\n",
      "   midi.NoteOnEvent(tick=2371, channel=9, data=[42, 127]),\n",
      "   midi.NoteOnEvent(tick=29, channel=9, data=[42, 0]),\n",
      "   midi.NoteOnEvent(tick=31, channel=9, data=[42, 127]),\n",
      "   midi.NoteOnEvent(tick=29, channel=9, data=[42, 0]),\n",
      "   midi.NoteOnEvent(tick=31, channel=9, data=[42, 127]),\n",
      "   midi.NoteOnEvent(tick=29, channel=9, data=[42, 0]),\n",
      "   midi.NoteOnEvent(tick=31, channel=9, data=[42, 127]),\n",
      "   midi.NoteOnEvent(tick=29, channel=9, data=[42, 0]),\n",
      "   midi.NoteOnEvent(tick=31, channel=9, data=[42, 127]),\n",
      "   midi.NoteOnEvent(tick=29, channel=9, data=[42, 0]),\n",
      "   midi.NoteOnEvent(tick=31, channel=9, data=[42, 127]),\n",
      "   midi.NoteOnEvent(tick=29, channel=9, data=[42, 0]),\n",
      "   midi.NoteOnEvent(tick=31, channel=9, data=[42, 127]),\n",
      "   midi.NoteOnEvent(tick=29, channel=9, data=[42, 0]),\n",
      "   midi.NoteOnEvent(tick=31, channel=9, data=[42, 127]),\n",
      "   midi.NoteOnEvent(tick=29, channel=9, data=[42, 0]),\n",
      "   midi.NoteOnEvent(tick=31, channel=9, data=[42, 127]),\n",
      "   midi.NoteOnEvent(tick=29, channel=9, data=[42, 0]),\n",
      "   midi.NoteOnEvent(tick=31, channel=9, data=[42, 127]),\n",
      "   midi.NoteOnEvent(tick=29, channel=9, data=[42, 0]),\n",
      "   midi.NoteOnEvent(tick=31, channel=9, data=[42, 127]),\n",
      "   midi.NoteOnEvent(tick=29, channel=9, data=[42, 0]),\n",
      "   midi.NoteOnEvent(tick=31, channel=9, data=[42, 127]),\n",
      "   midi.NoteOnEvent(tick=29, channel=9, data=[42, 0]),\n",
      "   midi.NoteOnEvent(tick=31, channel=9, data=[42, 127]),\n",
      "   midi.NoteOnEvent(tick=29, channel=9, data=[42, 0]),\n",
      "   midi.NoteOnEvent(tick=31, channel=9, data=[42, 127]),\n",
      "   midi.NoteOnEvent(tick=29, channel=9, data=[42, 0]),\n",
      "   midi.NoteOnEvent(tick=31, channel=9, data=[42, 127]),\n",
      "   midi.NoteOnEvent(tick=29, channel=9, data=[42, 0]),\n",
      "   midi.NoteOnEvent(tick=31, channel=9, data=[42, 127]),\n",
      "   midi.NoteOnEvent(tick=29, channel=9, data=[42, 0]),\n",
      "   midi.NoteOnEvent(tick=31, channel=9, data=[42, 127]),\n",
      "   midi.NoteOnEvent(tick=29, channel=9, data=[42, 0]),\n",
      "   midi.NoteOnEvent(tick=31, channel=9, data=[42, 127]),\n",
      "   midi.NoteOnEvent(tick=29, channel=9, data=[42, 0]),\n",
      "   midi.NoteOnEvent(tick=31, channel=9, data=[42, 127]),\n",
      "   midi.NoteOnEvent(tick=29, channel=9, data=[42, 0]),\n",
      "   midi.NoteOnEvent(tick=31, channel=9, data=[42, 127]),\n",
      "   midi.NoteOnEvent(tick=29, channel=9, data=[42, 0]),\n",
      "   midi.NoteOnEvent(tick=31, channel=9, data=[42, 127]),\n",
      "   midi.NoteOnEvent(tick=29, channel=9, data=[42, 0]),\n",
      "   midi.NoteOnEvent(tick=31, channel=9, data=[42, 127]),\n",
      "   midi.NoteOnEvent(tick=29, channel=9, data=[42, 0]),\n",
      "   midi.NoteOnEvent(tick=31, channel=9, data=[42, 127]),\n",
      "   midi.NoteOnEvent(tick=29, channel=9, data=[42, 0]),\n",
      "   midi.NoteOnEvent(tick=31, channel=9, data=[42, 127]),\n",
      "   midi.NoteOnEvent(tick=29, channel=9, data=[42, 0]),\n",
      "   midi.NoteOnEvent(tick=31, channel=9, data=[42, 127]),\n",
      "   midi.NoteOnEvent(tick=29, channel=9, data=[42, 0]),\n",
      "   midi.NoteOnEvent(tick=31, channel=9, data=[42, 127]),\n",
      "   midi.NoteOnEvent(tick=29, channel=9, data=[42, 0]),\n",
      "   midi.NoteOnEvent(tick=31, channel=9, data=[42, 127]),\n",
      "   midi.NoteOnEvent(tick=29, channel=9, data=[42, 0]),\n",
      "   midi.NoteOnEvent(tick=31, channel=9, data=[42, 127]),\n",
      "   midi.NoteOnEvent(tick=29, channel=9, data=[42, 0]),\n",
      "   midi.NoteOnEvent(tick=31, channel=9, data=[42, 127]),\n",
      "   midi.NoteOnEvent(tick=29, channel=9, data=[42, 0]),\n",
      "   midi.NoteOnEvent(tick=31, channel=9, data=[42, 127]),\n",
      "   midi.NoteOnEvent(tick=29, channel=9, data=[42, 0]),\n",
      "   midi.NoteOnEvent(tick=31, channel=9, data=[42, 127]),\n",
      "   midi.NoteOnEvent(tick=29, channel=9, data=[42, 0]),\n",
      "   midi.NoteOnEvent(tick=31, channel=9, data=[42, 127]),\n",
      "   midi.NoteOnEvent(tick=29, channel=9, data=[42, 0]),\n",
      "   midi.NoteOnEvent(tick=31, channel=9, data=[42, 127]),\n",
      "   midi.NoteOnEvent(tick=29, channel=9, data=[42, 0]),\n",
      "   midi.NoteOnEvent(tick=31, channel=9, data=[42, 127]),\n",
      "   midi.NoteOnEvent(tick=29, channel=9, data=[42, 0]),\n",
      "   midi.NoteOnEvent(tick=31, channel=9, data=[42, 127]),\n",
      "   midi.NoteOnEvent(tick=29, channel=9, data=[42, 0]),\n",
      "   midi.NoteOnEvent(tick=31, channel=9, data=[42, 127]),\n",
      "   midi.NoteOnEvent(tick=29, channel=9, data=[42, 0]),\n",
      "   midi.NoteOnEvent(tick=31, channel=9, data=[42, 127]),\n",
      "   midi.NoteOnEvent(tick=29, channel=9, data=[42, 0]),\n",
      "   midi.NoteOnEvent(tick=31, channel=9, data=[42, 127]),\n",
      "   midi.NoteOnEvent(tick=29, channel=9, data=[42, 0]),\n",
      "   midi.NoteOnEvent(tick=31, channel=9, data=[42, 127]),\n",
      "   midi.NoteOnEvent(tick=29, channel=9, data=[42, 0]),\n",
      "   midi.NoteOnEvent(tick=31, channel=9, data=[42, 127]),\n",
      "   midi.NoteOnEvent(tick=29, channel=9, data=[42, 0]),\n",
      "   midi.NoteOnEvent(tick=31, channel=9, data=[42, 127]),\n",
      "   midi.NoteOnEvent(tick=29, channel=9, data=[42, 0]),\n",
      "   midi.NoteOnEvent(tick=31, channel=9, data=[42, 127]),\n",
      "   midi.NoteOnEvent(tick=29, channel=9, data=[42, 0]),\n",
      "   midi.NoteOnEvent(tick=31, channel=9, data=[42, 127]),\n",
      "   midi.NoteOnEvent(tick=29, channel=9, data=[42, 0]),\n",
      "   midi.NoteOnEvent(tick=31, channel=9, data=[42, 127]),\n",
      "   midi.NoteOnEvent(tick=29, channel=9, data=[42, 0]),\n",
      "   midi.NoteOnEvent(tick=31, channel=9, data=[42, 127]),\n",
      "   midi.NoteOnEvent(tick=29, channel=9, data=[42, 0]),\n",
      "   midi.NoteOnEvent(tick=31, channel=9, data=[42, 127]),\n",
      "   midi.NoteOnEvent(tick=29, channel=9, data=[42, 0]),\n",
      "   midi.NoteOnEvent(tick=31, channel=9, data=[42, 127]),\n",
      "   midi.NoteOnEvent(tick=29, channel=9, data=[42, 0]),\n",
      "   midi.NoteOnEvent(tick=31, channel=9, data=[42, 127]),\n",
      "   midi.NoteOnEvent(tick=29, channel=9, data=[42, 0]),\n",
      "   midi.NoteOnEvent(tick=31, channel=9, data=[42, 127]),\n",
      "   midi.NoteOnEvent(tick=29, channel=9, data=[42, 0]),\n",
      "   midi.NoteOnEvent(tick=31, channel=9, data=[42, 127]),\n",
      "   midi.NoteOnEvent(tick=29, channel=9, data=[42, 0]),\n",
      "   midi.NoteOnEvent(tick=31, channel=9, data=[42, 127]),\n",
      "   midi.NoteOnEvent(tick=29, channel=9, data=[42, 0]),\n",
      "   midi.NoteOnEvent(tick=31, channel=9, data=[42, 127]),\n",
      "   midi.NoteOnEvent(tick=29, channel=9, data=[42, 0]),\n",
      "   midi.NoteOnEvent(tick=31, channel=9, data=[42, 127]),\n",
      "   midi.NoteOnEvent(tick=29, channel=9, data=[42, 0]),\n",
      "   midi.NoteOnEvent(tick=31, channel=9, data=[42, 127]),\n",
      "   midi.NoteOnEvent(tick=29, channel=9, data=[42, 0]),\n",
      "   midi.NoteOnEvent(tick=31, channel=9, data=[42, 127]),\n",
      "   midi.NoteOnEvent(tick=29, channel=9, data=[42, 0]),\n",
      "   midi.NoteOnEvent(tick=31, channel=9, data=[42, 127]),\n",
      "   midi.NoteOnEvent(tick=29, channel=9, data=[42, 0]),\n",
      "   midi.NoteOnEvent(tick=31, channel=9, data=[42, 127]),\n",
      "   midi.NoteOnEvent(tick=29, channel=9, data=[42, 0]),\n",
      "   midi.NoteOnEvent(tick=31, channel=9, data=[42, 127]),\n",
      "   midi.NoteOnEvent(tick=29, channel=9, data=[42, 0]),\n",
      "   midi.NoteOnEvent(tick=31, channel=9, data=[42, 127]),\n",
      "   midi.NoteOnEvent(tick=29, channel=9, data=[42, 0]),\n",
      "   midi.NoteOnEvent(tick=31, channel=9, data=[42, 127]),\n",
      "   midi.NoteOnEvent(tick=29, channel=9, data=[42, 0]),\n",
      "   midi.NoteOnEvent(tick=31, channel=9, data=[42, 127]),\n",
      "   midi.NoteOnEvent(tick=29, channel=9, data=[42, 0]),\n",
      "   midi.NoteOnEvent(tick=31, channel=9, data=[42, 127]),\n",
      "   midi.NoteOnEvent(tick=29, channel=9, data=[42, 0]),\n",
      "   midi.NoteOnEvent(tick=31, channel=9, data=[42, 127]),\n",
      "   midi.NoteOnEvent(tick=29, channel=9, data=[42, 0]),\n",
      "   midi.NoteOnEvent(tick=31, channel=9, data=[42, 127]),\n",
      "   midi.NoteOnEvent(tick=29, channel=9, data=[42, 0]),\n",
      "   midi.NoteOnEvent(tick=31, channel=9, data=[42, 127]),\n",
      "   midi.NoteOnEvent(tick=29, channel=9, data=[42, 0]),\n",
      "   midi.NoteOnEvent(tick=31, channel=9, data=[42, 127]),\n",
      "   midi.NoteOnEvent(tick=29, channel=9, data=[42, 0]),\n",
      "   midi.NoteOnEvent(tick=31, channel=9, data=[42, 127]),\n",
      "   midi.NoteOnEvent(tick=29, channel=9, data=[42, 0]),\n",
      "   midi.NoteOnEvent(tick=31, channel=9, data=[42, 127]),\n",
      "   midi.NoteOnEvent(tick=29, channel=9, data=[42, 0]),\n",
      "   midi.NoteOnEvent(tick=31, channel=9, data=[42, 127]),\n",
      "   midi.NoteOnEvent(tick=29, channel=9, data=[42, 0]),\n",
      "   midi.NoteOnEvent(tick=31, channel=9, data=[42, 127]),\n",
      "   midi.NoteOnEvent(tick=29, channel=9, data=[42, 0]),\n",
      "   midi.NoteOnEvent(tick=31, channel=9, data=[42, 127]),\n",
      "   midi.NoteOnEvent(tick=29, channel=9, data=[42, 0]),\n",
      "   midi.NoteOnEvent(tick=31, channel=9, data=[42, 127]),\n",
      "   midi.NoteOnEvent(tick=29, channel=9, data=[42, 0]),\n",
      "   midi.NoteOnEvent(tick=31, channel=9, data=[42, 127]),\n",
      "   midi.NoteOnEvent(tick=29, channel=9, data=[42, 0]),\n",
      "   midi.NoteOnEvent(tick=31, channel=9, data=[42, 127]),\n",
      "   midi.NoteOnEvent(tick=29, channel=9, data=[42, 0]),\n",
      "   midi.NoteOnEvent(tick=31, channel=9, data=[42, 127]),\n",
      "   midi.NoteOnEvent(tick=29, channel=9, data=[42, 0]),\n",
      "   midi.NoteOnEvent(tick=31, channel=9, data=[42, 127]),\n",
      "   midi.NoteOnEvent(tick=29, channel=9, data=[42, 0]),\n",
      "   midi.NoteOnEvent(tick=31, channel=9, data=[42, 127]),\n",
      "   midi.NoteOnEvent(tick=29, channel=9, data=[42, 0]),\n",
      "   midi.NoteOnEvent(tick=31, channel=9, data=[42, 127]),\n",
      "   midi.NoteOnEvent(tick=29, channel=9, data=[42, 0]),\n",
      "   midi.NoteOnEvent(tick=31, channel=9, data=[42, 127]),\n",
      "   midi.NoteOnEvent(tick=29, channel=9, data=[42, 0]),\n",
      "   midi.NoteOnEvent(tick=31, channel=9, data=[42, 127]),\n",
      "   midi.NoteOnEvent(tick=29, channel=9, data=[42, 0]),\n",
      "   midi.NoteOnEvent(tick=31, channel=9, data=[42, 127]),\n",
      "   midi.NoteOnEvent(tick=29, channel=9, data=[42, 0]),\n",
      "   midi.NoteOnEvent(tick=31, channel=9, data=[42, 127]),\n",
      "   midi.NoteOnEvent(tick=29, channel=9, data=[42, 0]),\n",
      "   midi.NoteOnEvent(tick=31, channel=9, data=[42, 127]),\n",
      "   midi.NoteOnEvent(tick=29, channel=9, data=[42, 0]),\n",
      "   midi.NoteOnEvent(tick=31, channel=9, data=[42, 127]),\n",
      "   midi.NoteOnEvent(tick=29, channel=9, data=[42, 0]),\n",
      "   midi.NoteOnEvent(tick=31, channel=9, data=[42, 127]),\n",
      "   midi.NoteOnEvent(tick=29, channel=9, data=[42, 0]),\n",
      "   midi.NoteOnEvent(tick=31, channel=9, data=[42, 127]),\n",
      "   midi.NoteOnEvent(tick=29, channel=9, data=[42, 0]),\n",
      "   midi.NoteOnEvent(tick=31, channel=9, data=[42, 127]),\n",
      "   midi.NoteOnEvent(tick=29, channel=9, data=[42, 0]),\n",
      "   midi.NoteOnEvent(tick=31, channel=9, data=[42, 127]),\n",
      "   midi.NoteOnEvent(tick=29, channel=9, data=[42, 0]),\n",
      "   midi.NoteOnEvent(tick=31, channel=9, data=[42, 127]),\n",
      "   midi.NoteOnEvent(tick=29, channel=9, data=[42, 0]),\n",
      "   midi.NoteOnEvent(tick=31, channel=9, data=[42, 127]),\n",
      "   midi.NoteOnEvent(tick=29, channel=9, data=[42, 0]),\n",
      "   midi.NoteOnEvent(tick=31, channel=9, data=[42, 127]),\n",
      "   midi.NoteOnEvent(tick=29, channel=9, data=[42, 0]),\n",
      "   midi.NoteOnEvent(tick=31, channel=9, data=[42, 127]),\n",
      "   midi.NoteOnEvent(tick=29, channel=9, data=[42, 0]),\n",
      "   midi.NoteOnEvent(tick=31, channel=9, data=[42, 127]),\n",
      "   midi.NoteOnEvent(tick=29, channel=9, data=[42, 0]),\n",
      "   midi.NoteOnEvent(tick=31, channel=9, data=[42, 127]),\n",
      "   midi.NoteOnEvent(tick=29, channel=9, data=[42, 0]),\n",
      "   midi.NoteOnEvent(tick=31, channel=9, data=[42, 127]),\n",
      "   midi.NoteOnEvent(tick=29, channel=9, data=[42, 0]),\n",
      "   midi.NoteOnEvent(tick=31, channel=9, data=[42, 127]),\n",
      "   midi.NoteOnEvent(tick=29, channel=9, data=[42, 0]),\n",
      "   midi.NoteOnEvent(tick=31, channel=9, data=[42, 127]),\n",
      "   midi.NoteOnEvent(tick=29, channel=9, data=[42, 0]),\n",
      "   midi.NoteOnEvent(tick=31, channel=9, data=[42, 127]),\n",
      "   midi.NoteOnEvent(tick=29, channel=9, data=[42, 0]),\n",
      "   midi.NoteOnEvent(tick=31, channel=9, data=[42, 127]),\n",
      "   midi.NoteOnEvent(tick=29, channel=9, data=[42, 0]),\n",
      "   midi.NoteOnEvent(tick=31, channel=9, data=[42, 127]),\n",
      "   midi.NoteOnEvent(tick=29, channel=9, data=[42, 0]),\n",
      "   midi.NoteOnEvent(tick=31, channel=9, data=[42, 127]),\n",
      "   midi.NoteOnEvent(tick=29, channel=9, data=[42, 0]),\n",
      "   midi.NoteOnEvent(tick=31, channel=9, data=[42, 127]),\n",
      "   midi.NoteOnEvent(tick=29, channel=9, data=[42, 0]),\n",
      "   midi.NoteOnEvent(tick=31, channel=9, data=[42, 127]),\n",
      "   midi.NoteOnEvent(tick=29, channel=9, data=[42, 0]),\n",
      "   midi.NoteOnEvent(tick=31, channel=9, data=[42, 127]),\n",
      "   midi.NoteOnEvent(tick=29, channel=9, data=[42, 0]),\n",
      "   midi.NoteOnEvent(tick=31, channel=9, data=[42, 127]),\n",
      "   midi.NoteOnEvent(tick=29, channel=9, data=[42, 0]),\n",
      "   midi.NoteOnEvent(tick=31, channel=9, data=[42, 127]),\n",
      "   midi.NoteOnEvent(tick=29, channel=9, data=[42, 0]),\n",
      "   midi.NoteOnEvent(tick=31, channel=9, data=[42, 127]),\n",
      "   midi.NoteOnEvent(tick=29, channel=9, data=[42, 0]),\n",
      "   midi.NoteOnEvent(tick=31, channel=9, data=[42, 127]),\n",
      "   midi.NoteOnEvent(tick=29, channel=9, data=[42, 0]),\n",
      "   midi.NoteOnEvent(tick=31, channel=9, data=[42, 127]),\n",
      "   midi.NoteOnEvent(tick=29, channel=9, data=[42, 0]),\n",
      "   midi.NoteOnEvent(tick=31, channel=9, data=[42, 127]),\n",
      "   midi.NoteOnEvent(tick=29, channel=9, data=[42, 0]),\n",
      "   midi.NoteOnEvent(tick=31, channel=9, data=[42, 127]),\n",
      "   midi.NoteOnEvent(tick=29, channel=9, data=[42, 0]),\n",
      "   midi.NoteOnEvent(tick=31, channel=9, data=[42, 127]),\n",
      "   midi.NoteOnEvent(tick=29, channel=9, data=[42, 0]),\n",
      "   midi.NoteOnEvent(tick=31, channel=9, data=[42, 127]),\n",
      "   midi.NoteOnEvent(tick=29, channel=9, data=[42, 0]),\n",
      "   midi.NoteOnEvent(tick=31, channel=9, data=[42, 127]),\n",
      "   midi.NoteOnEvent(tick=29, channel=9, data=[42, 0]),\n",
      "   midi.NoteOnEvent(tick=31, channel=9, data=[42, 127]),\n",
      "   midi.NoteOnEvent(tick=29, channel=9, data=[42, 0]),\n",
      "   midi.NoteOnEvent(tick=31, channel=9, data=[42, 127]),\n",
      "   midi.NoteOnEvent(tick=29, channel=9, data=[42, 0]),\n",
      "   midi.NoteOnEvent(tick=31, channel=9, data=[42, 127]),\n",
      "   midi.NoteOnEvent(tick=29, channel=9, data=[42, 0]),\n",
      "   midi.NoteOnEvent(tick=31, channel=9, data=[42, 127]),\n",
      "   midi.NoteOnEvent(tick=29, channel=9, data=[42, 0]),\n",
      "   midi.NoteOnEvent(tick=31, channel=9, data=[42, 127]),\n",
      "   midi.NoteOnEvent(tick=29, channel=9, data=[42, 0]),\n",
      "   midi.NoteOnEvent(tick=31, channel=9, data=[42, 127]),\n",
      "   midi.NoteOnEvent(tick=29, channel=9, data=[42, 0]),\n",
      "   midi.NoteOnEvent(tick=511, channel=9, data=[42, 127]),\n",
      "   midi.NoteOnEvent(tick=29, channel=9, data=[42, 0]),\n",
      "   midi.NoteOnEvent(tick=31, channel=9, data=[42, 127]),\n",
      "   midi.NoteOnEvent(tick=29, channel=9, data=[42, 0]),\n",
      "   midi.NoteOnEvent(tick=31, channel=9, data=[42, 127]),\n",
      "   midi.NoteOnEvent(tick=29, channel=9, data=[42, 0]),\n",
      "   midi.NoteOnEvent(tick=31, channel=9, data=[42, 127]),\n",
      "   midi.NoteOnEvent(tick=29, channel=9, data=[42, 0]),\n",
      "   midi.NoteOnEvent(tick=31, channel=9, data=[42, 127]),\n",
      "   midi.NoteOnEvent(tick=29, channel=9, data=[42, 0]),\n",
      "   midi.NoteOnEvent(tick=31, channel=9, data=[42, 127]),\n",
      "   midi.NoteOnEvent(tick=29, channel=9, data=[42, 0]),\n",
      "   midi.NoteOnEvent(tick=31, channel=9, data=[42, 127]),\n",
      "   midi.NoteOnEvent(tick=29, channel=9, data=[42, 0]),\n",
      "   midi.NoteOnEvent(tick=31, channel=9, data=[42, 127]),\n",
      "   midi.NoteOnEvent(tick=29, channel=9, data=[42, 0]),\n",
      "   midi.NoteOnEvent(tick=31, channel=9, data=[42, 127]),\n",
      "   midi.NoteOnEvent(tick=29, channel=9, data=[42, 0]),\n",
      "   midi.NoteOnEvent(tick=31, channel=9, data=[42, 127]),\n",
      "   midi.NoteOnEvent(tick=29, channel=9, data=[42, 0]),\n",
      "   midi.NoteOnEvent(tick=31, channel=9, data=[42, 127]),\n",
      "   midi.NoteOnEvent(tick=29, channel=9, data=[42, 0]),\n",
      "   midi.NoteOnEvent(tick=31, channel=9, data=[42, 127]),\n",
      "   midi.NoteOnEvent(tick=29, channel=9, data=[42, 0]),\n",
      "   midi.NoteOnEvent(tick=31, channel=9, data=[42, 127]),\n",
      "   midi.NoteOnEvent(tick=29, channel=9, data=[42, 0]),\n",
      "   midi.NoteOnEvent(tick=31, channel=9, data=[42, 127]),\n",
      "   midi.NoteOnEvent(tick=29, channel=9, data=[42, 0]),\n",
      "   midi.NoteOnEvent(tick=31, channel=9, data=[42, 127]),\n",
      "   midi.NoteOnEvent(tick=29, channel=9, data=[42, 0]),\n",
      "   midi.NoteOnEvent(tick=31, channel=9, data=[42, 127]),\n",
      "   midi.NoteOnEvent(tick=29, channel=9, data=[42, 0]),\n",
      "   midi.NoteOnEvent(tick=31, channel=9, data=[42, 127]),\n",
      "   midi.NoteOnEvent(tick=29, channel=9, data=[42, 0]),\n",
      "   midi.NoteOnEvent(tick=31, channel=9, data=[42, 127]),\n",
      "   midi.NoteOnEvent(tick=29, channel=9, data=[42, 0]),\n",
      "   midi.NoteOnEvent(tick=31, channel=9, data=[42, 127]),\n",
      "   midi.NoteOnEvent(tick=29, channel=9, data=[42, 0]),\n",
      "   midi.NoteOnEvent(tick=31, channel=9, data=[42, 127]),\n",
      "   midi.NoteOnEvent(tick=29, channel=9, data=[42, 0]),\n",
      "   midi.NoteOnEvent(tick=31, channel=9, data=[42, 127]),\n",
      "   midi.NoteOnEvent(tick=29, channel=9, data=[42, 0]),\n",
      "   midi.NoteOnEvent(tick=31, channel=9, data=[42, 127]),\n",
      "   midi.NoteOnEvent(tick=29, channel=9, data=[42, 0]),\n",
      "   midi.NoteOnEvent(tick=31, channel=9, data=[42, 127]),\n",
      "   midi.NoteOnEvent(tick=29, channel=9, data=[42, 0]),\n",
      "   midi.NoteOnEvent(tick=31, channel=9, data=[42, 127]),\n",
      "   midi.NoteOnEvent(tick=29, channel=9, data=[42, 0]),\n",
      "   midi.NoteOnEvent(tick=31, channel=9, data=[42, 127]),\n",
      "   midi.NoteOnEvent(tick=29, channel=9, data=[42, 0]),\n",
      "   midi.NoteOnEvent(tick=31, channel=9, data=[42, 127]),\n",
      "   midi.NoteOnEvent(tick=29, channel=9, data=[42, 0]),\n",
      "   midi.NoteOnEvent(tick=31, channel=9, data=[42, 127]),\n",
      "   midi.NoteOnEvent(tick=29, channel=9, data=[42, 0]),\n",
      "   midi.NoteOnEvent(tick=31, channel=9, data=[42, 127]),\n",
      "   midi.NoteOnEvent(tick=29, channel=9, data=[42, 0]),\n",
      "   midi.NoteOnEvent(tick=31, channel=9, data=[42, 127]),\n",
      "   midi.NoteOnEvent(tick=29, channel=9, data=[42, 0]),\n",
      "   midi.NoteOnEvent(tick=31, channel=9, data=[42, 127]),\n",
      "   midi.NoteOnEvent(tick=29, channel=9, data=[42, 0]),\n",
      "   midi.NoteOnEvent(tick=31, channel=9, data=[42, 127]),\n",
      "   midi.NoteOnEvent(tick=29, channel=9, data=[42, 0]),\n",
      "   midi.NoteOnEvent(tick=31, channel=9, data=[42, 127]),\n",
      "   midi.NoteOnEvent(tick=29, channel=9, data=[42, 0]),\n",
      "   midi.NoteOnEvent(tick=31, channel=9, data=[42, 127]),\n",
      "   midi.NoteOnEvent(tick=29, channel=9, data=[42, 0]),\n",
      "   midi.NoteOnEvent(tick=31, channel=9, data=[42, 127]),\n",
      "   midi.NoteOnEvent(tick=29, channel=9, data=[42, 0]),\n",
      "   midi.NoteOnEvent(tick=31, channel=9, data=[42, 127]),\n",
      "   midi.NoteOnEvent(tick=29, channel=9, data=[42, 0]),\n",
      "   midi.NoteOnEvent(tick=31, channel=9, data=[42, 127]),\n",
      "   midi.NoteOnEvent(tick=29, channel=9, data=[42, 0]),\n",
      "   midi.NoteOnEvent(tick=31, channel=9, data=[42, 127]),\n",
      "   midi.NoteOnEvent(tick=29, channel=9, data=[42, 0]),\n",
      "   midi.NoteOnEvent(tick=31, channel=9, data=[42, 127]),\n",
      "   midi.NoteOnEvent(tick=29, channel=9, data=[42, 0]),\n",
      "   midi.NoteOnEvent(tick=31, channel=9, data=[42, 127]),\n",
      "   midi.NoteOnEvent(tick=29, channel=9, data=[42, 0]),\n",
      "   midi.NoteOnEvent(tick=31, channel=9, data=[42, 127]),\n",
      "   midi.NoteOnEvent(tick=29, channel=9, data=[42, 0]),\n",
      "   midi.NoteOnEvent(tick=31, channel=9, data=[42, 127]),\n",
      "   midi.NoteOnEvent(tick=29, channel=9, data=[42, 0]),\n",
      "   midi.NoteOnEvent(tick=31, channel=9, data=[42, 127]),\n",
      "   midi.NoteOnEvent(tick=29, channel=9, data=[42, 0]),\n",
      "   midi.NoteOnEvent(tick=31, channel=9, data=[42, 127]),\n",
      "   midi.NoteOnEvent(tick=29, channel=9, data=[42, 0]),\n",
      "   midi.NoteOnEvent(tick=31, channel=9, data=[42, 127]),\n",
      "   midi.NoteOnEvent(tick=29, channel=9, data=[42, 0]),\n",
      "   midi.NoteOnEvent(tick=31, channel=9, data=[42, 127]),\n",
      "   midi.NoteOnEvent(tick=29, channel=9, data=[42, 0]),\n",
      "   midi.NoteOnEvent(tick=31, channel=9, data=[42, 127]),\n",
      "   midi.NoteOnEvent(tick=29, channel=9, data=[42, 0]),\n",
      "   midi.NoteOnEvent(tick=31, channel=9, data=[42, 127]),\n",
      "   midi.NoteOnEvent(tick=29, channel=9, data=[42, 0]),\n",
      "   midi.NoteOnEvent(tick=31, channel=9, data=[42, 127]),\n",
      "   midi.NoteOnEvent(tick=29, channel=9, data=[42, 0]),\n",
      "   midi.NoteOnEvent(tick=31, channel=9, data=[42, 127]),\n",
      "   midi.NoteOnEvent(tick=29, channel=9, data=[42, 0]),\n",
      "   midi.NoteOnEvent(tick=31, channel=9, data=[42, 127]),\n",
      "   midi.NoteOnEvent(tick=29, channel=9, data=[42, 0]),\n",
      "   midi.NoteOnEvent(tick=31, channel=9, data=[42, 127]),\n",
      "   midi.NoteOnEvent(tick=29, channel=9, data=[42, 0]),\n",
      "   midi.NoteOnEvent(tick=31, channel=9, data=[42, 127]),\n",
      "   midi.NoteOnEvent(tick=29, channel=9, data=[42, 0]),\n",
      "   midi.NoteOnEvent(tick=31, channel=9, data=[42, 127]),\n",
      "   midi.NoteOnEvent(tick=29, channel=9, data=[42, 0]),\n",
      "   midi.NoteOnEvent(tick=31, channel=9, data=[42, 127]),\n",
      "   midi.NoteOnEvent(tick=29, channel=9, data=[42, 0]),\n",
      "   midi.NoteOnEvent(tick=31, channel=9, data=[42, 127]),\n",
      "   midi.NoteOnEvent(tick=29, channel=9, data=[42, 0]),\n",
      "   midi.NoteOnEvent(tick=31, channel=9, data=[42, 127]),\n",
      "   midi.NoteOnEvent(tick=29, channel=9, data=[42, 0]),\n",
      "   midi.NoteOnEvent(tick=31, channel=9, data=[42, 127]),\n",
      "   midi.NoteOnEvent(tick=29, channel=9, data=[42, 0]),\n",
      "   midi.NoteOnEvent(tick=31, channel=9, data=[42, 127]),\n",
      "   midi.NoteOnEvent(tick=29, channel=9, data=[42, 0]),\n",
      "   midi.NoteOnEvent(tick=31, channel=9, data=[42, 127]),\n",
      "   midi.NoteOnEvent(tick=29, channel=9, data=[42, 0]),\n",
      "   midi.NoteOnEvent(tick=31, channel=9, data=[42, 127]),\n",
      "   midi.NoteOnEvent(tick=29, channel=9, data=[42, 0]),\n",
      "   midi.NoteOnEvent(tick=31, channel=9, data=[42, 127]),\n",
      "   midi.NoteOnEvent(tick=29, channel=9, data=[42, 0]),\n",
      "   midi.NoteOnEvent(tick=31, channel=9, data=[42, 127]),\n",
      "   midi.NoteOnEvent(tick=29, channel=9, data=[42, 0]),\n",
      "   midi.NoteOnEvent(tick=31, channel=9, data=[42, 127]),\n",
      "   midi.NoteOnEvent(tick=29, channel=9, data=[42, 0]),\n",
      "   midi.NoteOnEvent(tick=31, channel=9, data=[42, 127]),\n",
      "   midi.NoteOnEvent(tick=29, channel=9, data=[42, 0]),\n",
      "   midi.NoteOnEvent(tick=31, channel=9, data=[42, 127]),\n",
      "   midi.NoteOnEvent(tick=29, channel=9, data=[42, 0]),\n",
      "   midi.NoteOnEvent(tick=31, channel=9, data=[42, 127]),\n",
      "   midi.NoteOnEvent(tick=29, channel=9, data=[42, 0]),\n",
      "   midi.NoteOnEvent(tick=31, channel=9, data=[42, 127]),\n",
      "   midi.NoteOnEvent(tick=29, channel=9, data=[42, 0]),\n",
      "   midi.NoteOnEvent(tick=31, channel=9, data=[42, 127]),\n",
      "   midi.NoteOnEvent(tick=29, channel=9, data=[42, 0]),\n",
      "   midi.NoteOnEvent(tick=31, channel=9, data=[42, 127]),\n",
      "   midi.NoteOnEvent(tick=29, channel=9, data=[42, 0]),\n",
      "   midi.NoteOnEvent(tick=31, channel=9, data=[42, 127]),\n",
      "   midi.NoteOnEvent(tick=29, channel=9, data=[42, 0]),\n",
      "   midi.NoteOnEvent(tick=31, channel=9, data=[42, 127]),\n",
      "   midi.NoteOnEvent(tick=29, channel=9, data=[42, 0]),\n",
      "   midi.NoteOnEvent(tick=31, channel=9, data=[42, 127]),\n",
      "   midi.NoteOnEvent(tick=29, channel=9, data=[42, 0]),\n",
      "   midi.NoteOnEvent(tick=31, channel=9, data=[42, 127]),\n",
      "   midi.NoteOnEvent(tick=29, channel=9, data=[42, 0]),\n",
      "   midi.NoteOnEvent(tick=31, channel=9, data=[42, 127]),\n",
      "   midi.NoteOnEvent(tick=29, channel=9, data=[42, 0]),\n",
      "   midi.NoteOnEvent(tick=31, channel=9, data=[42, 127]),\n",
      "   midi.NoteOnEvent(tick=29, channel=9, data=[42, 0]),\n",
      "   midi.NoteOnEvent(tick=31, channel=9, data=[42, 127]),\n",
      "   midi.NoteOnEvent(tick=29, channel=9, data=[42, 0]),\n",
      "   midi.NoteOnEvent(tick=31, channel=9, data=[42, 127]),\n",
      "   midi.NoteOnEvent(tick=29, channel=9, data=[42, 0]),\n",
      "   midi.NoteOnEvent(tick=31, channel=9, data=[42, 127]),\n",
      "   midi.NoteOnEvent(tick=29, channel=9, data=[42, 0]),\n",
      "   midi.NoteOnEvent(tick=31, channel=9, data=[42, 127]),\n",
      "   midi.NoteOnEvent(tick=29, channel=9, data=[42, 0]),\n",
      "   midi.NoteOnEvent(tick=31, channel=9, data=[42, 127]),\n",
      "   midi.NoteOnEvent(tick=29, channel=9, data=[42, 0]),\n",
      "   midi.NoteOnEvent(tick=31, channel=9, data=[42, 127]),\n",
      "   midi.NoteOnEvent(tick=29, channel=9, data=[42, 0]),\n",
      "   midi.NoteOnEvent(tick=31, channel=9, data=[42, 127]),\n",
      "   midi.NoteOnEvent(tick=29, channel=9, data=[42, 0]),\n",
      "   midi.NoteOnEvent(tick=31, channel=9, data=[42, 127]),\n",
      "   midi.NoteOnEvent(tick=29, channel=9, data=[42, 0]),\n",
      "   midi.NoteOnEvent(tick=31, channel=9, data=[42, 127]),\n",
      "   midi.NoteOnEvent(tick=29, channel=9, data=[42, 0]),\n",
      "   midi.NoteOnEvent(tick=31, channel=9, data=[42, 127]),\n",
      "   midi.NoteOnEvent(tick=29, channel=9, data=[42, 0]),\n",
      "   midi.NoteOnEvent(tick=31, channel=9, data=[42, 127]),\n",
      "   midi.NoteOnEvent(tick=29, channel=9, data=[42, 0]),\n",
      "   midi.NoteOnEvent(tick=31, channel=9, data=[42, 127]),\n",
      "   midi.NoteOnEvent(tick=29, channel=9, data=[42, 0]),\n",
      "   midi.NoteOnEvent(tick=31, channel=9, data=[42, 127]),\n",
      "   midi.NoteOnEvent(tick=29, channel=9, data=[42, 0]),\n",
      "   midi.NoteOnEvent(tick=31, channel=9, data=[42, 127]),\n",
      "   midi.NoteOnEvent(tick=29, channel=9, data=[42, 0]),\n",
      "   midi.NoteOnEvent(tick=31, channel=9, data=[42, 127]),\n",
      "   midi.NoteOnEvent(tick=29, channel=9, data=[42, 0]),\n",
      "   midi.NoteOnEvent(tick=31, channel=9, data=[42, 127]),\n",
      "   midi.NoteOnEvent(tick=29, channel=9, data=[42, 0]),\n",
      "   midi.NoteOnEvent(tick=31, channel=9, data=[42, 127]),\n",
      "   midi.NoteOnEvent(tick=29, channel=9, data=[42, 0]),\n",
      "   midi.NoteOnEvent(tick=31, channel=9, data=[42, 127]),\n",
      "   midi.NoteOnEvent(tick=29, channel=9, data=[42, 0]),\n",
      "   midi.NoteOnEvent(tick=31, channel=9, data=[42, 127]),\n",
      "   midi.NoteOnEvent(tick=29, channel=9, data=[42, 0]),\n",
      "   midi.NoteOnEvent(tick=31, channel=9, data=[42, 127]),\n",
      "   midi.NoteOnEvent(tick=29, channel=9, data=[42, 0]),\n",
      "   midi.NoteOnEvent(tick=31, channel=9, data=[42, 127]),\n",
      "   midi.NoteOnEvent(tick=29, channel=9, data=[42, 0]),\n",
      "   midi.NoteOnEvent(tick=31, channel=9, data=[42, 127]),\n",
      "   midi.NoteOnEvent(tick=29, channel=9, data=[42, 0]),\n",
      "   midi.NoteOnEvent(tick=31, channel=9, data=[42, 127]),\n",
      "   midi.NoteOnEvent(tick=29, channel=9, data=[42, 0]),\n",
      "   midi.NoteOnEvent(tick=31, channel=9, data=[42, 127]),\n",
      "   midi.NoteOnEvent(tick=29, channel=9, data=[42, 0]),\n",
      "   midi.NoteOnEvent(tick=31, channel=9, data=[42, 127]),\n",
      "   midi.NoteOnEvent(tick=29, channel=9, data=[42, 0]),\n",
      "   midi.NoteOnEvent(tick=31, channel=9, data=[42, 127]),\n",
      "   midi.NoteOnEvent(tick=29, channel=9, data=[42, 0]),\n",
      "   midi.NoteOnEvent(tick=31, channel=9, data=[42, 127]),\n",
      "   midi.NoteOnEvent(tick=29, channel=9, data=[42, 0]),\n",
      "   midi.NoteOnEvent(tick=31, channel=9, data=[42, 127]),\n",
      "   midi.NoteOnEvent(tick=29, channel=9, data=[42, 0]),\n",
      "   midi.NoteOnEvent(tick=31, channel=9, data=[42, 127]),\n",
      "   midi.NoteOnEvent(tick=29, channel=9, data=[42, 0]),\n",
      "   midi.NoteOnEvent(tick=31, channel=9, data=[42, 127]),\n",
      "   midi.NoteOnEvent(tick=29, channel=9, data=[42, 0]),\n",
      "   midi.NoteOnEvent(tick=31, channel=9, data=[42, 127]),\n",
      "   midi.NoteOnEvent(tick=29, channel=9, data=[42, 0]),\n",
      "   midi.NoteOnEvent(tick=31, channel=9, data=[42, 127]),\n",
      "   midi.NoteOnEvent(tick=29, channel=9, data=[42, 0]),\n",
      "   midi.NoteOnEvent(tick=31, channel=9, data=[42, 127]),\n",
      "   midi.NoteOnEvent(tick=29, channel=9, data=[42, 0]),\n",
      "   midi.NoteOnEvent(tick=31, channel=9, data=[42, 127]),\n",
      "   midi.NoteOnEvent(tick=29, channel=9, data=[42, 0]),\n",
      "   midi.NoteOnEvent(tick=31, channel=9, data=[42, 127]),\n",
      "   midi.NoteOnEvent(tick=29, channel=9, data=[42, 0]),\n",
      "   midi.NoteOnEvent(tick=31, channel=9, data=[42, 127]),\n",
      "   midi.NoteOnEvent(tick=29, channel=9, data=[42, 0]),\n",
      "   midi.NoteOnEvent(tick=31, channel=9, data=[42, 127]),\n",
      "   midi.NoteOnEvent(tick=29, channel=9, data=[42, 0]),\n",
      "   midi.NoteOnEvent(tick=31, channel=9, data=[42, 127]),\n",
      "   midi.NoteOnEvent(tick=29, channel=9, data=[42, 0]),\n",
      "   midi.NoteOnEvent(tick=31, channel=9, data=[42, 127]),\n",
      "   midi.NoteOnEvent(tick=29, channel=9, data=[42, 0]),\n",
      "   midi.NoteOnEvent(tick=31, channel=9, data=[42, 127]),\n",
      "   midi.NoteOnEvent(tick=29, channel=9, data=[42, 0]),\n",
      "   midi.NoteOnEvent(tick=31, channel=9, data=[42, 127]),\n",
      "   midi.NoteOnEvent(tick=29, channel=9, data=[42, 0]),\n",
      "   midi.NoteOnEvent(tick=31, channel=9, data=[42, 127]),\n",
      "   midi.NoteOnEvent(tick=29, channel=9, data=[42, 0]),\n",
      "   midi.NoteOnEvent(tick=31, channel=9, data=[42, 127]),\n",
      "   midi.NoteOnEvent(tick=29, channel=9, data=[42, 0]),\n",
      "   midi.NoteOnEvent(tick=31, channel=9, data=[42, 127]),\n",
      "   midi.NoteOnEvent(tick=29, channel=9, data=[42, 0]),\n",
      "   midi.NoteOnEvent(tick=31, channel=9, data=[42, 127]),\n",
      "   midi.NoteOnEvent(tick=29, channel=9, data=[42, 0]),\n",
      "   midi.NoteOnEvent(tick=31, channel=9, data=[42, 127]),\n",
      "   midi.NoteOnEvent(tick=29, channel=9, data=[42, 0]),\n",
      "   midi.NoteOnEvent(tick=31, channel=9, data=[42, 127]),\n",
      "   midi.NoteOnEvent(tick=29, channel=9, data=[42, 0]),\n",
      "   midi.NoteOnEvent(tick=31, channel=9, data=[42, 127]),\n",
      "   midi.NoteOnEvent(tick=29, channel=9, data=[42, 0]),\n",
      "   midi.NoteOnEvent(tick=31, channel=9, data=[42, 127]),\n",
      "   midi.NoteOnEvent(tick=29, channel=9, data=[42, 0]),\n",
      "   midi.NoteOnEvent(tick=31, channel=9, data=[42, 127]),\n",
      "   midi.NoteOnEvent(tick=29, channel=9, data=[42, 0]),\n",
      "   midi.NoteOnEvent(tick=31, channel=9, data=[42, 127]),\n",
      "   midi.NoteOnEvent(tick=29, channel=9, data=[42, 0]),\n",
      "   midi.NoteOnEvent(tick=31, channel=9, data=[42, 127]),\n",
      "   midi.NoteOnEvent(tick=29, channel=9, data=[42, 0]),\n",
      "   midi.NoteOnEvent(tick=31, channel=9, data=[42, 127]),\n",
      "   midi.NoteOnEvent(tick=29, channel=9, data=[42, 0]),\n",
      "   midi.NoteOnEvent(tick=31, channel=9, data=[42, 127]),\n",
      "   midi.NoteOnEvent(tick=29, channel=9, data=[42, 0]),\n",
      "   midi.NoteOnEvent(tick=31, channel=9, data=[42, 127]),\n",
      "   midi.NoteOnEvent(tick=29, channel=9, data=[42, 0]),\n",
      "   midi.NoteOnEvent(tick=31, channel=9, data=[42, 127]),\n",
      "   midi.NoteOnEvent(tick=29, channel=9, data=[42, 0]),\n",
      "   midi.NoteOnEvent(tick=31, channel=9, data=[42, 127]),\n",
      "   midi.NoteOnEvent(tick=29, channel=9, data=[42, 0]),\n",
      "   midi.NoteOnEvent(tick=31, channel=9, data=[42, 127]),\n",
      "   midi.NoteOnEvent(tick=29, channel=9, data=[42, 0]),\n",
      "   midi.NoteOnEvent(tick=31, channel=9, data=[42, 127]),\n",
      "   midi.NoteOnEvent(tick=29, channel=9, data=[42, 0]),\n",
      "   midi.NoteOnEvent(tick=31, channel=9, data=[42, 127]),\n",
      "   midi.NoteOnEvent(tick=29, channel=9, data=[42, 0]),\n",
      "   midi.NoteOnEvent(tick=31, channel=9, data=[42, 127]),\n",
      "   midi.NoteOnEvent(tick=29, channel=9, data=[42, 0]),\n",
      "   midi.NoteOnEvent(tick=31, channel=9, data=[42, 127]),\n",
      "   midi.NoteOnEvent(tick=29, channel=9, data=[42, 0]),\n",
      "   midi.NoteOnEvent(tick=31, channel=9, data=[42, 127]),\n",
      "   midi.NoteOnEvent(tick=29, channel=9, data=[42, 0]),\n",
      "   midi.NoteOnEvent(tick=31, channel=9, data=[42, 127]),\n",
      "   midi.NoteOnEvent(tick=29, channel=9, data=[42, 0]),\n",
      "   midi.NoteOnEvent(tick=31, channel=9, data=[42, 127]),\n",
      "   midi.NoteOnEvent(tick=29, channel=9, data=[42, 0]),\n",
      "   midi.NoteOnEvent(tick=31, channel=9, data=[42, 127]),\n",
      "   midi.NoteOnEvent(tick=29, channel=9, data=[42, 0]),\n",
      "   midi.NoteOnEvent(tick=31, channel=9, data=[42, 127]),\n",
      "   midi.NoteOnEvent(tick=29, channel=9, data=[42, 0]),\n",
      "   midi.NoteOnEvent(tick=31, channel=9, data=[42, 127]),\n",
      "   midi.NoteOnEvent(tick=29, channel=9, data=[42, 0]),\n",
      "   midi.NoteOnEvent(tick=31, channel=9, data=[42, 127]),\n",
      "   midi.NoteOnEvent(tick=29, channel=9, data=[42, 0]),\n",
      "   midi.NoteOnEvent(tick=31, channel=9, data=[42, 127]),\n",
      "   midi.NoteOnEvent(tick=29, channel=9, data=[42, 0]),\n",
      "   midi.NoteOnEvent(tick=31, channel=9, data=[42, 127]),\n",
      "   midi.NoteOnEvent(tick=29, channel=9, data=[42, 0]),\n",
      "   midi.NoteOnEvent(tick=31, channel=9, data=[42, 127]),\n",
      "   midi.NoteOnEvent(tick=29, channel=9, data=[42, 0]),\n",
      "   midi.NoteOnEvent(tick=31, channel=9, data=[42, 127]),\n",
      "   midi.NoteOnEvent(tick=29, channel=9, data=[42, 0]),\n",
      "   midi.NoteOnEvent(tick=31, channel=9, data=[42, 127]),\n",
      "   midi.NoteOnEvent(tick=29, channel=9, data=[42, 0]),\n",
      "   midi.NoteOnEvent(tick=31, channel=9, data=[42, 127]),\n",
      "   midi.NoteOnEvent(tick=29, channel=9, data=[42, 0]),\n",
      "   midi.NoteOnEvent(tick=31, channel=9, data=[42, 127]),\n",
      "   midi.NoteOnEvent(tick=29, channel=9, data=[42, 0]),\n",
      "   midi.NoteOnEvent(tick=31, channel=9, data=[42, 127]),\n",
      "   midi.NoteOnEvent(tick=29, channel=9, data=[42, 0]),\n",
      "   midi.NoteOnEvent(tick=31, channel=9, data=[42, 127]),\n",
      "   midi.NoteOnEvent(tick=29, channel=9, data=[42, 0]),\n",
      "   midi.NoteOnEvent(tick=31, channel=9, data=[42, 127]),\n",
      "   midi.NoteOnEvent(tick=29, channel=9, data=[42, 0]),\n",
      "   midi.NoteOnEvent(tick=31, channel=9, data=[42, 127]),\n",
      "   midi.NoteOnEvent(tick=29, channel=9, data=[42, 0]),\n",
      "   midi.NoteOnEvent(tick=31, channel=9, data=[42, 127]),\n",
      "   midi.NoteOnEvent(tick=29, channel=9, data=[42, 0]),\n",
      "   midi.NoteOnEvent(tick=31, channel=9, data=[42, 127]),\n",
      "   midi.NoteOnEvent(tick=29, channel=9, data=[42, 0]),\n",
      "   midi.NoteOnEvent(tick=31, channel=9, data=[42, 127]),\n",
      "   midi.NoteOnEvent(tick=29, channel=9, data=[42, 0]),\n",
      "   midi.NoteOnEvent(tick=31, channel=9, data=[42, 127]),\n",
      "   midi.NoteOnEvent(tick=29, channel=9, data=[42, 0]),\n",
      "   midi.NoteOnEvent(tick=31, channel=9, data=[42, 127]),\n",
      "   midi.NoteOnEvent(tick=29, channel=9, data=[42, 0]),\n",
      "   midi.NoteOnEvent(tick=31, channel=9, data=[42, 127]),\n",
      "   midi.NoteOnEvent(tick=29, channel=9, data=[42, 0]),\n",
      "   midi.NoteOnEvent(tick=31, channel=9, data=[42, 127]),\n",
      "   midi.NoteOnEvent(tick=29, channel=9, data=[42, 0]),\n",
      "   midi.NoteOnEvent(tick=31, channel=9, data=[42, 127]),\n",
      "   midi.NoteOnEvent(tick=29, channel=9, data=[42, 0]),\n",
      "   midi.NoteOnEvent(tick=31, channel=9, data=[42, 127]),\n",
      "   midi.NoteOnEvent(tick=29, channel=9, data=[42, 0]),\n",
      "   midi.NoteOnEvent(tick=31, channel=9, data=[42, 127]),\n",
      "   midi.NoteOnEvent(tick=29, channel=9, data=[42, 0]),\n",
      "   midi.NoteOnEvent(tick=31, channel=9, data=[42, 127]),\n",
      "   midi.NoteOnEvent(tick=29, channel=9, data=[42, 0]),\n",
      "   midi.NoteOnEvent(tick=31, channel=9, data=[42, 127]),\n",
      "   midi.NoteOnEvent(tick=29, channel=9, data=[42, 0]),\n",
      "   midi.NoteOnEvent(tick=31, channel=9, data=[42, 127]),\n",
      "   midi.NoteOnEvent(tick=29, channel=9, data=[42, 0]),\n",
      "   midi.NoteOnEvent(tick=31, channel=9, data=[42, 127]),\n",
      "   midi.NoteOnEvent(tick=29, channel=9, data=[42, 0]),\n",
      "   midi.NoteOnEvent(tick=31, channel=9, data=[42, 127]),\n",
      "   midi.NoteOnEvent(tick=29, channel=9, data=[42, 0]),\n",
      "   midi.NoteOnEvent(tick=31, channel=9, data=[42, 127]),\n",
      "   midi.NoteOnEvent(tick=29, channel=9, data=[42, 0]),\n",
      "   midi.NoteOnEvent(tick=31, channel=9, data=[42, 127]),\n",
      "   midi.NoteOnEvent(tick=29, channel=9, data=[42, 0]),\n",
      "   midi.NoteOnEvent(tick=31, channel=9, data=[42, 127]),\n",
      "   midi.NoteOnEvent(tick=29, channel=9, data=[42, 0]),\n",
      "   midi.NoteOnEvent(tick=31, channel=9, data=[42, 127]),\n",
      "   midi.NoteOnEvent(tick=29, channel=9, data=[42, 0]),\n",
      "   midi.NoteOnEvent(tick=31, channel=9, data=[42, 127]),\n",
      "   midi.NoteOnEvent(tick=29, channel=9, data=[42, 0]),\n",
      "   midi.NoteOnEvent(tick=31, channel=9, data=[42, 127]),\n",
      "   midi.NoteOnEvent(tick=29, channel=9, data=[42, 0]),\n",
      "   midi.NoteOnEvent(tick=31, channel=9, data=[42, 127]),\n",
      "   midi.NoteOnEvent(tick=29, channel=9, data=[42, 0]),\n",
      "   midi.NoteOnEvent(tick=31, channel=9, data=[42, 127]),\n",
      "   midi.NoteOnEvent(tick=29, channel=9, data=[42, 0]),\n",
      "   midi.NoteOnEvent(tick=31, channel=9, data=[42, 127]),\n",
      "   midi.NoteOnEvent(tick=29, channel=9, data=[42, 0]),\n",
      "   midi.NoteOnEvent(tick=31, channel=9, data=[42, 127]),\n",
      "   midi.NoteOnEvent(tick=29, channel=9, data=[42, 0]),\n",
      "   midi.NoteOnEvent(tick=31, channel=9, data=[42, 127]),\n",
      "   midi.NoteOnEvent(tick=29, channel=9, data=[42, 0]),\n",
      "   midi.NoteOnEvent(tick=31, channel=9, data=[42, 127]),\n",
      "   midi.NoteOnEvent(tick=29, channel=9, data=[42, 0]),\n",
      "   midi.NoteOnEvent(tick=31, channel=9, data=[42, 127]),\n",
      "   midi.NoteOnEvent(tick=29, channel=9, data=[42, 0]),\n",
      "   midi.NoteOnEvent(tick=31, channel=9, data=[42, 127]),\n",
      "   midi.NoteOnEvent(tick=29, channel=9, data=[42, 0]),\n",
      "   midi.NoteOnEvent(tick=31, channel=9, data=[42, 127]),\n",
      "   midi.NoteOnEvent(tick=29, channel=9, data=[42, 0]),\n",
      "   midi.NoteOnEvent(tick=31, channel=9, data=[42, 127]),\n",
      "   midi.NoteOnEvent(tick=29, channel=9, data=[42, 0]),\n",
      "   midi.NoteOnEvent(tick=31, channel=9, data=[42, 127]),\n",
      "   midi.NoteOnEvent(tick=29, channel=9, data=[42, 0]),\n",
      "   midi.NoteOnEvent(tick=31, channel=9, data=[42, 127]),\n",
      "   midi.NoteOnEvent(tick=29, channel=9, data=[42, 0]),\n",
      "   midi.NoteOnEvent(tick=31, channel=9, data=[42, 127]),\n",
      "   midi.NoteOnEvent(tick=29, channel=9, data=[42, 0]),\n",
      "   midi.NoteOnEvent(tick=31, channel=9, data=[42, 127]),\n",
      "   midi.NoteOnEvent(tick=29, channel=9, data=[42, 0]),\n",
      "   midi.NoteOnEvent(tick=31, channel=9, data=[42, 127]),\n",
      "   midi.NoteOnEvent(tick=29, channel=9, data=[42, 0]),\n",
      "   midi.NoteOnEvent(tick=31, channel=9, data=[42, 127]),\n",
      "   midi.NoteOnEvent(tick=29, channel=9, data=[42, 0]),\n",
      "   midi.NoteOnEvent(tick=31, channel=9, data=[42, 127]),\n",
      "   midi.NoteOnEvent(tick=29, channel=9, data=[42, 0]),\n",
      "   midi.NoteOnEvent(tick=31, channel=9, data=[42, 127]),\n",
      "   midi.NoteOnEvent(tick=29, channel=9, data=[42, 0]),\n",
      "   midi.NoteOnEvent(tick=31, channel=9, data=[42, 127]),\n",
      "   midi.NoteOnEvent(tick=29, channel=9, data=[42, 0]),\n",
      "   midi.NoteOnEvent(tick=31, channel=9, data=[42, 127]),\n",
      "   midi.NoteOnEvent(tick=29, channel=9, data=[42, 0]),\n",
      "   midi.NoteOnEvent(tick=31, channel=9, data=[42, 127]),\n",
      "   midi.NoteOnEvent(tick=29, channel=9, data=[42, 0]),\n",
      "   midi.NoteOnEvent(tick=31, channel=9, data=[42, 127]),\n",
      "   midi.NoteOnEvent(tick=29, channel=9, data=[42, 0]),\n",
      "   midi.NoteOnEvent(tick=31, channel=9, data=[42, 127]),\n",
      "   midi.NoteOnEvent(tick=29, channel=9, data=[42, 0]),\n",
      "   midi.NoteOnEvent(tick=31, channel=9, data=[42, 127]),\n",
      "   midi.NoteOnEvent(tick=29, channel=9, data=[42, 0]),\n",
      "   midi.NoteOnEvent(tick=31, channel=9, data=[42, 127]),\n",
      "   midi.NoteOnEvent(tick=29, channel=9, data=[42, 0]),\n",
      "   midi.NoteOnEvent(tick=31, channel=9, data=[42, 127]),\n",
      "   midi.NoteOnEvent(tick=29, channel=9, data=[42, 0]),\n",
      "   midi.NoteOnEvent(tick=31, channel=9, data=[42, 127]),\n",
      "   midi.NoteOnEvent(tick=29, channel=9, data=[42, 0]),\n",
      "   midi.NoteOnEvent(tick=31, channel=9, data=[42, 127]),\n",
      "   midi.NoteOnEvent(tick=29, channel=9, data=[42, 0]),\n",
      "   midi.NoteOnEvent(tick=31, channel=9, data=[42, 127]),\n",
      "   midi.NoteOnEvent(tick=29, channel=9, data=[42, 0]),\n",
      "   midi.NoteOnEvent(tick=31, channel=9, data=[42, 127]),\n",
      "   midi.NoteOnEvent(tick=29, channel=9, data=[42, 0]),\n",
      "   midi.NoteOnEvent(tick=31, channel=9, data=[42, 127]),\n",
      "   midi.NoteOnEvent(tick=29, channel=9, data=[42, 0]),\n",
      "   midi.NoteOnEvent(tick=31, channel=9, data=[42, 127]),\n",
      "   midi.NoteOnEvent(tick=29, channel=9, data=[42, 0]),\n",
      "   midi.NoteOnEvent(tick=31, channel=9, data=[42, 127]),\n",
      "   midi.NoteOnEvent(tick=29, channel=9, data=[42, 0]),\n",
      "   midi.NoteOnEvent(tick=31, channel=9, data=[42, 127]),\n",
      "   midi.NoteOnEvent(tick=29, channel=9, data=[42, 0]),\n",
      "   midi.NoteOnEvent(tick=31, channel=9, data=[42, 127]),\n",
      "   midi.NoteOnEvent(tick=29, channel=9, data=[42, 0]),\n",
      "   midi.NoteOnEvent(tick=31, channel=9, data=[42, 127]),\n",
      "   midi.NoteOnEvent(tick=29, channel=9, data=[42, 0]),\n",
      "   midi.NoteOnEvent(tick=31, channel=9, data=[42, 127]),\n",
      "   midi.NoteOnEvent(tick=29, channel=9, data=[42, 0]),\n",
      "   midi.NoteOnEvent(tick=31, channel=9, data=[42, 127]),\n",
      "   midi.NoteOnEvent(tick=29, channel=9, data=[42, 0]),\n",
      "   midi.NoteOnEvent(tick=31, channel=9, data=[42, 127]),\n",
      "   midi.NoteOnEvent(tick=29, channel=9, data=[42, 0]),\n",
      "   midi.NoteOnEvent(tick=31, channel=9, data=[42, 127]),\n",
      "   midi.NoteOnEvent(tick=29, channel=9, data=[42, 0]),\n",
      "   midi.NoteOnEvent(tick=31, channel=9, data=[42, 127]),\n",
      "   midi.NoteOnEvent(tick=29, channel=9, data=[42, 0]),\n",
      "   midi.NoteOnEvent(tick=31, channel=9, data=[42, 127]),\n",
      "   midi.NoteOnEvent(tick=29, channel=9, data=[42, 0]),\n",
      "   midi.NoteOnEvent(tick=31, channel=9, data=[42, 127]),\n",
      "   midi.NoteOnEvent(tick=29, channel=9, data=[42, 0]),\n",
      "   midi.NoteOnEvent(tick=31, channel=9, data=[42, 127]),\n",
      "   midi.NoteOnEvent(tick=29, channel=9, data=[42, 0]),\n",
      "   midi.NoteOnEvent(tick=31, channel=9, data=[42, 127]),\n",
      "   midi.NoteOnEvent(tick=29, channel=9, data=[42, 0]),\n",
      "   midi.NoteOnEvent(tick=31, channel=9, data=[42, 127]),\n",
      "   midi.NoteOnEvent(tick=29, channel=9, data=[42, 0]),\n",
      "   midi.NoteOnEvent(tick=31, channel=9, data=[42, 127]),\n",
      "   midi.NoteOnEvent(tick=29, channel=9, data=[42, 0]),\n",
      "   midi.NoteOnEvent(tick=31, channel=9, data=[42, 127]),\n",
      "   midi.NoteOnEvent(tick=29, channel=9, data=[42, 0]),\n",
      "   midi.NoteOnEvent(tick=31, channel=9, data=[42, 127]),\n",
      "   midi.NoteOnEvent(tick=29, channel=9, data=[42, 0]),\n",
      "   midi.NoteOnEvent(tick=31, channel=9, data=[42, 127]),\n",
      "   midi.NoteOnEvent(tick=29, channel=9, data=[42, 0]),\n",
      "   midi.NoteOnEvent(tick=31, channel=9, data=[42, 127]),\n",
      "   midi.NoteOnEvent(tick=29, channel=9, data=[42, 0]),\n",
      "   midi.NoteOnEvent(tick=31, channel=9, data=[42, 127]),\n",
      "   midi.NoteOnEvent(tick=29, channel=9, data=[42, 0]),\n",
      "   midi.NoteOnEvent(tick=31, channel=9, data=[42, 127]),\n",
      "   midi.NoteOnEvent(tick=29, channel=9, data=[42, 0]),\n",
      "   midi.NoteOnEvent(tick=31, channel=9, data=[42, 127]),\n",
      "   midi.NoteOnEvent(tick=29, channel=9, data=[42, 0]),\n",
      "   midi.NoteOnEvent(tick=31, channel=9, data=[42, 127]),\n",
      "   midi.NoteOnEvent(tick=29, channel=9, data=[42, 0]),\n",
      "   midi.NoteOnEvent(tick=31, channel=9, data=[42, 127]),\n",
      "   midi.NoteOnEvent(tick=29, channel=9, data=[42, 0]),\n",
      "   midi.NoteOnEvent(tick=31, channel=9, data=[42, 127]),\n",
      "   midi.NoteOnEvent(tick=29, channel=9, data=[42, 0]),\n",
      "   midi.NoteOnEvent(tick=31, channel=9, data=[42, 127]),\n",
      "   midi.NoteOnEvent(tick=29, channel=9, data=[42, 0]),\n",
      "   midi.NoteOnEvent(tick=31, channel=9, data=[42, 127]),\n",
      "   midi.NoteOnEvent(tick=29, channel=9, data=[42, 0]),\n",
      "   midi.NoteOnEvent(tick=31, channel=9, data=[42, 127]),\n",
      "   midi.NoteOnEvent(tick=29, channel=9, data=[42, 0]),\n",
      "   midi.NoteOnEvent(tick=31, channel=9, data=[42, 127]),\n",
      "   midi.NoteOnEvent(tick=29, channel=9, data=[42, 0]),\n",
      "   midi.NoteOnEvent(tick=31, channel=9, data=[42, 127]),\n",
      "   midi.NoteOnEvent(tick=29, channel=9, data=[42, 0]),\n",
      "   midi.NoteOnEvent(tick=31, channel=9, data=[42, 127]),\n",
      "   midi.NoteOnEvent(tick=29, channel=9, data=[42, 0]),\n",
      "   midi.NoteOnEvent(tick=31, channel=9, data=[42, 127]),\n",
      "   midi.NoteOnEvent(tick=29, channel=9, data=[42, 0]),\n",
      "   midi.NoteOnEvent(tick=31, channel=9, data=[42, 127]),\n",
      "   midi.NoteOnEvent(tick=29, channel=9, data=[42, 0]),\n",
      "   midi.NoteOnEvent(tick=31, channel=9, data=[42, 127]),\n",
      "   midi.NoteOnEvent(tick=29, channel=9, data=[42, 0]),\n",
      "   midi.NoteOnEvent(tick=31, channel=9, data=[42, 127]),\n",
      "   midi.NoteOnEvent(tick=29, channel=9, data=[42, 0]),\n",
      "   midi.NoteOnEvent(tick=31, channel=9, data=[42, 127]),\n",
      "   midi.NoteOnEvent(tick=29, channel=9, data=[42, 0]),\n",
      "   midi.NoteOnEvent(tick=31, channel=9, data=[42, 127]),\n",
      "   midi.NoteOnEvent(tick=29, channel=9, data=[42, 0]),\n",
      "   midi.NoteOnEvent(tick=31, channel=9, data=[42, 127]),\n",
      "   midi.NoteOnEvent(tick=29, channel=9, data=[42, 0]),\n",
      "   midi.NoteOnEvent(tick=31, channel=9, data=[42, 127]),\n",
      "   midi.NoteOnEvent(tick=29, channel=9, data=[42, 0]),\n",
      "   midi.NoteOnEvent(tick=16, channel=9, data=[42, 127]),\n",
      "   midi.NoteOnEvent(tick=15, channel=9, data=[42, 127]),\n",
      "   midi.NoteOnEvent(tick=14, channel=9, data=[42, 0]),\n",
      "   midi.NoteOnEvent(tick=15, channel=9, data=[42, 0]),\n",
      "   midi.NoteOnEvent(tick=31, channel=9, data=[42, 127]),\n",
      "   midi.NoteOnEvent(tick=29, channel=9, data=[42, 0]),\n",
      "   midi.NoteOnEvent(tick=451, channel=9, data=[42, 127]),\n",
      "   midi.NoteOnEvent(tick=29, channel=9, data=[42, 0]),\n",
      "   midi.NoteOnEvent(tick=31, channel=9, data=[42, 127]),\n",
      "   midi.NoteOnEvent(tick=29, channel=9, data=[42, 0]),\n",
      "   midi.NoteOnEvent(tick=31, channel=9, data=[42, 127]),\n",
      "   midi.NoteOnEvent(tick=29, channel=9, data=[42, 0]),\n",
      "   midi.NoteOnEvent(tick=31, channel=9, data=[42, 127]),\n",
      "   midi.NoteOnEvent(tick=29, channel=9, data=[42, 0]),\n",
      "   midi.NoteOnEvent(tick=31, channel=9, data=[42, 127]),\n",
      "   midi.NoteOnEvent(tick=29, channel=9, data=[42, 0]),\n",
      "   midi.NoteOnEvent(tick=31, channel=9, data=[42, 127]),\n",
      "   midi.NoteOnEvent(tick=29, channel=9, data=[42, 0]),\n",
      "   midi.NoteOnEvent(tick=31, channel=9, data=[42, 127]),\n",
      "   midi.NoteOnEvent(tick=29, channel=9, data=[42, 0]),\n",
      "   midi.NoteOnEvent(tick=31, channel=9, data=[42, 127]),\n",
      "   midi.NoteOnEvent(tick=29, channel=9, data=[42, 0]),\n",
      "   midi.NoteOnEvent(tick=31, channel=9, data=[42, 127]),\n",
      "   midi.NoteOnEvent(tick=29, channel=9, data=[42, 0]),\n",
      "   midi.NoteOnEvent(tick=31, channel=9, data=[42, 127]),\n",
      "   midi.NoteOnEvent(tick=29, channel=9, data=[42, 0]),\n",
      "   midi.NoteOnEvent(tick=31, channel=9, data=[42, 127]),\n",
      "   midi.NoteOnEvent(tick=29, channel=9, data=[42, 0]),\n",
      "   midi.NoteOnEvent(tick=31, channel=9, data=[42, 127]),\n",
      "   midi.NoteOnEvent(tick=29, channel=9, data=[42, 0]),\n",
      "   midi.NoteOnEvent(tick=31, channel=9, data=[42, 127]),\n",
      "   midi.NoteOnEvent(tick=29, channel=9, data=[42, 0]),\n",
      "   midi.NoteOnEvent(tick=31, channel=9, data=[42, 127]),\n",
      "   midi.NoteOnEvent(tick=29, channel=9, data=[42, 0]),\n",
      "   midi.NoteOnEvent(tick=31, channel=9, data=[42, 127]),\n",
      "   midi.NoteOnEvent(tick=29, channel=9, data=[42, 0]),\n",
      "   midi.NoteOnEvent(tick=31, channel=9, data=[42, 127]),\n",
      "   midi.NoteOnEvent(tick=29, channel=9, data=[42, 0]),\n",
      "   midi.NoteOnEvent(tick=31, channel=9, data=[42, 127]),\n",
      "   midi.NoteOnEvent(tick=29, channel=9, data=[42, 0]),\n",
      "   midi.NoteOnEvent(tick=31, channel=9, data=[42, 127]),\n",
      "   midi.NoteOnEvent(tick=29, channel=9, data=[42, 0]),\n",
      "   midi.NoteOnEvent(tick=31, channel=9, data=[42, 127]),\n",
      "   midi.NoteOnEvent(tick=29, channel=9, data=[42, 0]),\n",
      "   midi.NoteOnEvent(tick=31, channel=9, data=[42, 127]),\n",
      "   midi.NoteOnEvent(tick=29, channel=9, data=[42, 0]),\n",
      "   midi.NoteOnEvent(tick=31, channel=9, data=[42, 127]),\n",
      "   midi.NoteOnEvent(tick=29, channel=9, data=[42, 0]),\n",
      "   midi.NoteOnEvent(tick=31, channel=9, data=[42, 127]),\n",
      "   midi.NoteOnEvent(tick=29, channel=9, data=[42, 0]),\n",
      "   midi.NoteOnEvent(tick=31, channel=9, data=[42, 127]),\n",
      "   midi.NoteOnEvent(tick=29, channel=9, data=[42, 0]),\n",
      "   midi.NoteOnEvent(tick=31, channel=9, data=[42, 127]),\n",
      "   midi.NoteOnEvent(tick=29, channel=9, data=[42, 0]),\n",
      "   midi.NoteOnEvent(tick=31, channel=9, data=[42, 127]),\n",
      "   midi.NoteOnEvent(tick=29, channel=9, data=[42, 0]),\n",
      "   midi.NoteOnEvent(tick=31, channel=9, data=[42, 127]),\n",
      "   midi.NoteOnEvent(tick=29, channel=9, data=[42, 0]),\n",
      "   midi.NoteOnEvent(tick=31, channel=9, data=[42, 127]),\n",
      "   midi.NoteOnEvent(tick=29, channel=9, data=[42, 0]),\n",
      "   midi.NoteOnEvent(tick=31, channel=9, data=[42, 127]),\n",
      "   midi.NoteOnEvent(tick=29, channel=9, data=[42, 0]),\n",
      "   midi.NoteOnEvent(tick=31, channel=9, data=[42, 127]),\n",
      "   midi.NoteOnEvent(tick=29, channel=9, data=[42, 0]),\n",
      "   midi.NoteOnEvent(tick=31, channel=9, data=[42, 127]),\n",
      "   midi.NoteOnEvent(tick=29, channel=9, data=[42, 0]),\n",
      "   midi.NoteOnEvent(tick=31, channel=9, data=[42, 127]),\n",
      "   midi.NoteOnEvent(tick=29, channel=9, data=[42, 0]),\n",
      "   midi.NoteOnEvent(tick=31, channel=9, data=[42, 127]),\n",
      "   midi.NoteOnEvent(tick=29, channel=9, data=[42, 0]),\n",
      "   midi.NoteOnEvent(tick=31, channel=9, data=[42, 127]),\n",
      "   midi.NoteOnEvent(tick=29, channel=9, data=[42, 0]),\n",
      "   midi.NoteOnEvent(tick=31, channel=9, data=[42, 127]),\n",
      "   midi.NoteOnEvent(tick=29, channel=9, data=[42, 0]),\n",
      "   midi.NoteOnEvent(tick=31, channel=9, data=[42, 127]),\n",
      "   midi.NoteOnEvent(tick=29, channel=9, data=[42, 0]),\n",
      "   midi.NoteOnEvent(tick=31, channel=9, data=[42, 127]),\n",
      "   midi.NoteOnEvent(tick=29, channel=9, data=[42, 0]),\n",
      "   midi.NoteOnEvent(tick=31, channel=9, data=[42, 127]),\n",
      "   midi.NoteOnEvent(tick=29, channel=9, data=[42, 0]),\n",
      "   midi.NoteOnEvent(tick=31, channel=9, data=[42, 127]),\n",
      "   midi.NoteOnEvent(tick=29, channel=9, data=[42, 0]),\n",
      "   midi.NoteOnEvent(tick=31, channel=9, data=[42, 127]),\n",
      "   midi.NoteOnEvent(tick=29, channel=9, data=[42, 0]),\n",
      "   midi.NoteOnEvent(tick=31, channel=9, data=[42, 127]),\n",
      "   midi.NoteOnEvent(tick=29, channel=9, data=[42, 0]),\n",
      "   midi.NoteOnEvent(tick=31, channel=9, data=[42, 127]),\n",
      "   midi.NoteOnEvent(tick=29, channel=9, data=[42, 0]),\n",
      "   midi.NoteOnEvent(tick=31, channel=9, data=[42, 127]),\n",
      "   midi.NoteOnEvent(tick=29, channel=9, data=[42, 0]),\n",
      "   midi.NoteOnEvent(tick=31, channel=9, data=[42, 127]),\n",
      "   midi.NoteOnEvent(tick=29, channel=9, data=[42, 0]),\n",
      "   midi.NoteOnEvent(tick=31, channel=9, data=[42, 127]),\n",
      "   midi.NoteOnEvent(tick=29, channel=9, data=[42, 0]),\n",
      "   midi.NoteOnEvent(tick=31, channel=9, data=[42, 127]),\n",
      "   midi.NoteOnEvent(tick=29, channel=9, data=[42, 0]),\n",
      "   midi.NoteOnEvent(tick=31, channel=9, data=[42, 127]),\n",
      "   midi.NoteOnEvent(tick=29, channel=9, data=[42, 0]),\n",
      "   midi.NoteOnEvent(tick=31, channel=9, data=[42, 127]),\n",
      "   midi.NoteOnEvent(tick=29, channel=9, data=[42, 0]),\n",
      "   midi.NoteOnEvent(tick=31, channel=9, data=[42, 127]),\n",
      "   midi.NoteOnEvent(tick=29, channel=9, data=[42, 0]),\n",
      "   midi.NoteOnEvent(tick=31, channel=9, data=[42, 127]),\n",
      "   midi.NoteOnEvent(tick=29, channel=9, data=[42, 0]),\n",
      "   midi.NoteOnEvent(tick=31, channel=9, data=[42, 127]),\n",
      "   midi.NoteOnEvent(tick=29, channel=9, data=[42, 0]),\n",
      "   midi.NoteOnEvent(tick=31, channel=9, data=[42, 127]),\n",
      "   midi.NoteOnEvent(tick=29, channel=9, data=[42, 0]),\n",
      "   midi.NoteOnEvent(tick=31, channel=9, data=[42, 127]),\n",
      "   midi.NoteOnEvent(tick=29, channel=9, data=[42, 0]),\n",
      "   midi.NoteOnEvent(tick=31, channel=9, data=[42, 127]),\n",
      "   midi.NoteOnEvent(tick=29, channel=9, data=[42, 0]),\n",
      "   midi.NoteOnEvent(tick=31, channel=9, data=[42, 127]),\n",
      "   midi.NoteOnEvent(tick=29, channel=9, data=[42, 0]),\n",
      "   midi.NoteOnEvent(tick=31, channel=9, data=[42, 127]),\n",
      "   midi.NoteOnEvent(tick=29, channel=9, data=[42, 0]),\n",
      "   midi.NoteOnEvent(tick=31, channel=9, data=[42, 127]),\n",
      "   midi.NoteOnEvent(tick=29, channel=9, data=[42, 0]),\n",
      "   midi.NoteOnEvent(tick=31, channel=9, data=[42, 127]),\n",
      "   midi.NoteOnEvent(tick=29, channel=9, data=[42, 0]),\n",
      "   midi.NoteOnEvent(tick=31, channel=9, data=[42, 127]),\n",
      "   midi.NoteOnEvent(tick=29, channel=9, data=[42, 0]),\n",
      "   midi.NoteOnEvent(tick=31, channel=9, data=[42, 127]),\n",
      "   midi.NoteOnEvent(tick=29, channel=9, data=[42, 0]),\n",
      "   midi.NoteOnEvent(tick=31, channel=9, data=[42, 127]),\n",
      "   midi.NoteOnEvent(tick=29, channel=9, data=[42, 0]),\n",
      "   midi.NoteOnEvent(tick=31, channel=9, data=[42, 127]),\n",
      "   midi.NoteOnEvent(tick=29, channel=9, data=[42, 0]),\n",
      "   midi.NoteOnEvent(tick=31, channel=9, data=[42, 127]),\n",
      "   midi.NoteOnEvent(tick=29, channel=9, data=[42, 0]),\n",
      "   midi.NoteOnEvent(tick=31, channel=9, data=[42, 127]),\n",
      "   midi.NoteOnEvent(tick=29, channel=9, data=[42, 0]),\n",
      "   midi.NoteOnEvent(tick=31, channel=9, data=[42, 127]),\n",
      "   midi.NoteOnEvent(tick=29, channel=9, data=[42, 0]),\n",
      "   midi.NoteOnEvent(tick=31, channel=9, data=[42, 127]),\n",
      "   midi.NoteOnEvent(tick=29, channel=9, data=[42, 0]),\n",
      "   midi.NoteOnEvent(tick=31, channel=9, data=[42, 127]),\n",
      "   midi.NoteOnEvent(tick=29, channel=9, data=[42, 0]),\n",
      "   midi.NoteOnEvent(tick=31, channel=9, data=[42, 127]),\n",
      "   midi.NoteOnEvent(tick=29, channel=9, data=[42, 0]),\n",
      "   midi.NoteOnEvent(tick=31, channel=9, data=[42, 127]),\n",
      "   midi.NoteOnEvent(tick=29, channel=9, data=[42, 0]),\n",
      "   midi.NoteOnEvent(tick=31, channel=9, data=[42, 127]),\n",
      "   midi.NoteOnEvent(tick=29, channel=9, data=[42, 0]),\n",
      "   midi.NoteOnEvent(tick=31, channel=9, data=[42, 127]),\n",
      "   midi.NoteOnEvent(tick=29, channel=9, data=[42, 0]),\n",
      "   midi.NoteOnEvent(tick=31, channel=9, data=[42, 127]),\n",
      "   midi.NoteOnEvent(tick=29, channel=9, data=[42, 0]),\n",
      "   midi.NoteOnEvent(tick=31, channel=9, data=[42, 127]),\n",
      "   midi.NoteOnEvent(tick=29, channel=9, data=[42, 0]),\n",
      "   midi.NoteOnEvent(tick=31, channel=9, data=[42, 127]),\n",
      "   midi.NoteOnEvent(tick=29, channel=9, data=[42, 0]),\n",
      "   midi.NoteOnEvent(tick=31, channel=9, data=[42, 127]),\n",
      "   midi.NoteOnEvent(tick=29, channel=9, data=[42, 0]),\n",
      "   midi.NoteOnEvent(tick=31, channel=9, data=[42, 127]),\n",
      "   midi.NoteOnEvent(tick=29, channel=9, data=[42, 0]),\n",
      "   midi.NoteOnEvent(tick=31, channel=9, data=[42, 127]),\n",
      "   midi.NoteOnEvent(tick=29, channel=9, data=[42, 0]),\n",
      "   midi.NoteOnEvent(tick=31, channel=9, data=[42, 127]),\n",
      "   midi.NoteOnEvent(tick=29, channel=9, data=[42, 0]),\n",
      "   midi.NoteOnEvent(tick=31, channel=9, data=[42, 127]),\n",
      "   midi.NoteOnEvent(tick=29, channel=9, data=[42, 0]),\n",
      "   midi.NoteOnEvent(tick=31, channel=9, data=[42, 127]),\n",
      "   midi.NoteOnEvent(tick=29, channel=9, data=[42, 0]),\n",
      "   midi.NoteOnEvent(tick=31, channel=9, data=[42, 127]),\n",
      "   midi.NoteOnEvent(tick=29, channel=9, data=[42, 0]),\n",
      "   midi.NoteOnEvent(tick=31, channel=9, data=[42, 127]),\n",
      "   midi.NoteOnEvent(tick=29, channel=9, data=[42, 0]),\n",
      "   midi.NoteOnEvent(tick=31, channel=9, data=[42, 127]),\n",
      "   midi.NoteOnEvent(tick=29, channel=9, data=[42, 0]),\n",
      "   midi.NoteOnEvent(tick=31, channel=9, data=[42, 127]),\n",
      "   midi.NoteOnEvent(tick=29, channel=9, data=[42, 0]),\n",
      "   midi.NoteOnEvent(tick=31, channel=9, data=[42, 127]),\n",
      "   midi.NoteOnEvent(tick=29, channel=9, data=[42, 0]),\n",
      "   midi.NoteOnEvent(tick=31, channel=9, data=[42, 127]),\n",
      "   midi.NoteOnEvent(tick=29, channel=9, data=[42, 0]),\n",
      "   midi.NoteOnEvent(tick=31, channel=9, data=[42, 127]),\n",
      "   midi.NoteOnEvent(tick=29, channel=9, data=[42, 0]),\n",
      "   midi.NoteOnEvent(tick=31, channel=9, data=[42, 127]),\n",
      "   midi.NoteOnEvent(tick=29, channel=9, data=[42, 0]),\n",
      "   midi.NoteOnEvent(tick=31, channel=9, data=[42, 127]),\n",
      "   midi.NoteOnEvent(tick=29, channel=9, data=[42, 0]),\n",
      "   midi.NoteOnEvent(tick=31, channel=9, data=[42, 127]),\n",
      "   midi.NoteOnEvent(tick=29, channel=9, data=[42, 0]),\n",
      "   midi.NoteOnEvent(tick=31, channel=9, data=[42, 127]),\n",
      "   midi.NoteOnEvent(tick=29, channel=9, data=[42, 0]),\n",
      "   midi.NoteOnEvent(tick=31, channel=9, data=[42, 127]),\n",
      "   midi.NoteOnEvent(tick=29, channel=9, data=[42, 0]),\n",
      "   midi.NoteOnEvent(tick=31, channel=9, data=[42, 127]),\n",
      "   midi.NoteOnEvent(tick=29, channel=9, data=[42, 0]),\n",
      "   midi.NoteOnEvent(tick=31, channel=9, data=[42, 127]),\n",
      "   midi.NoteOnEvent(tick=29, channel=9, data=[42, 0]),\n",
      "   midi.NoteOnEvent(tick=31, channel=9, data=[42, 127]),\n",
      "   midi.NoteOnEvent(tick=29, channel=9, data=[42, 0]),\n",
      "   midi.NoteOnEvent(tick=31, channel=9, data=[42, 127]),\n",
      "   midi.NoteOnEvent(tick=29, channel=9, data=[42, 0]),\n",
      "   midi.NoteOnEvent(tick=31, channel=9, data=[42, 127]),\n",
      "   midi.NoteOnEvent(tick=29, channel=9, data=[42, 0]),\n",
      "   midi.NoteOnEvent(tick=31, channel=9, data=[42, 127]),\n",
      "   midi.NoteOnEvent(tick=29, channel=9, data=[42, 0]),\n",
      "   midi.NoteOnEvent(tick=31, channel=9, data=[42, 127]),\n",
      "   midi.NoteOnEvent(tick=29, channel=9, data=[42, 0]),\n",
      "   midi.NoteOnEvent(tick=31, channel=9, data=[42, 127]),\n",
      "   midi.NoteOnEvent(tick=29, channel=9, data=[42, 0]),\n",
      "   midi.NoteOnEvent(tick=31, channel=9, data=[42, 127]),\n",
      "   midi.NoteOnEvent(tick=29, channel=9, data=[42, 0]),\n",
      "   midi.NoteOnEvent(tick=31, channel=9, data=[42, 127]),\n",
      "   midi.NoteOnEvent(tick=29, channel=9, data=[42, 0]),\n",
      "   midi.NoteOnEvent(tick=31, channel=9, data=[42, 127]),\n",
      "   midi.NoteOnEvent(tick=29, channel=9, data=[42, 0]),\n",
      "   midi.NoteOnEvent(tick=31, channel=9, data=[42, 127]),\n",
      "   midi.NoteOnEvent(tick=29, channel=9, data=[42, 0]),\n",
      "   midi.NoteOnEvent(tick=31, channel=9, data=[42, 127]),\n",
      "   midi.NoteOnEvent(tick=29, channel=9, data=[42, 0]),\n",
      "   midi.NoteOnEvent(tick=31, channel=9, data=[42, 127]),\n",
      "   midi.NoteOnEvent(tick=29, channel=9, data=[42, 0]),\n",
      "   midi.NoteOnEvent(tick=31, channel=9, data=[42, 127]),\n",
      "   midi.NoteOnEvent(tick=29, channel=9, data=[42, 0]),\n",
      "   midi.NoteOnEvent(tick=31, channel=9, data=[42, 127]),\n",
      "   midi.NoteOnEvent(tick=29, channel=9, data=[42, 0]),\n",
      "   midi.NoteOnEvent(tick=31, channel=9, data=[42, 127]),\n",
      "   midi.NoteOnEvent(tick=29, channel=9, data=[42, 0]),\n",
      "   midi.NoteOnEvent(tick=31, channel=9, data=[42, 127]),\n",
      "   midi.NoteOnEvent(tick=29, channel=9, data=[42, 0]),\n",
      "   midi.NoteOnEvent(tick=31, channel=9, data=[42, 127]),\n",
      "   midi.NoteOnEvent(tick=29, channel=9, data=[42, 0]),\n",
      "   midi.NoteOnEvent(tick=31, channel=9, data=[42, 127]),\n",
      "   midi.NoteOnEvent(tick=29, channel=9, data=[42, 0]),\n",
      "   midi.NoteOnEvent(tick=31, channel=9, data=[42, 127]),\n",
      "   midi.NoteOnEvent(tick=29, channel=9, data=[42, 0]),\n",
      "   midi.NoteOnEvent(tick=31, channel=9, data=[42, 127]),\n",
      "   midi.NoteOnEvent(tick=29, channel=9, data=[42, 0]),\n",
      "   midi.NoteOnEvent(tick=31, channel=9, data=[42, 127]),\n",
      "   midi.NoteOnEvent(tick=29, channel=9, data=[42, 0]),\n",
      "   midi.NoteOnEvent(tick=31, channel=9, data=[42, 127]),\n",
      "   midi.NoteOnEvent(tick=29, channel=9, data=[42, 0]),\n",
      "   midi.NoteOnEvent(tick=31, channel=9, data=[42, 127]),\n",
      "   midi.NoteOnEvent(tick=29, channel=9, data=[42, 0]),\n",
      "   midi.NoteOnEvent(tick=31, channel=9, data=[42, 127]),\n",
      "   midi.NoteOnEvent(tick=29, channel=9, data=[42, 0]),\n",
      "   midi.NoteOnEvent(tick=31, channel=9, data=[42, 127]),\n",
      "   midi.NoteOnEvent(tick=29, channel=9, data=[42, 0]),\n",
      "   midi.NoteOnEvent(tick=31, channel=9, data=[42, 127]),\n",
      "   midi.NoteOnEvent(tick=29, channel=9, data=[42, 0]),\n",
      "   midi.NoteOnEvent(tick=31, channel=9, data=[42, 127]),\n",
      "   midi.NoteOnEvent(tick=29, channel=9, data=[42, 0]),\n",
      "   midi.NoteOnEvent(tick=31, channel=9, data=[42, 127]),\n",
      "   midi.NoteOnEvent(tick=29, channel=9, data=[42, 0]),\n",
      "   midi.NoteOnEvent(tick=31, channel=9, data=[42, 127]),\n",
      "   midi.NoteOnEvent(tick=29, channel=9, data=[42, 0]),\n",
      "   midi.NoteOnEvent(tick=31, channel=9, data=[42, 127]),\n",
      "   midi.NoteOnEvent(tick=29, channel=9, data=[42, 0]),\n",
      "   midi.NoteOnEvent(tick=31, channel=9, data=[42, 127]),\n",
      "   midi.NoteOnEvent(tick=29, channel=9, data=[42, 0]),\n",
      "   midi.NoteOnEvent(tick=31, channel=9, data=[42, 127]),\n",
      "   midi.NoteOnEvent(tick=29, channel=9, data=[42, 0]),\n",
      "   midi.NoteOnEvent(tick=31, channel=9, data=[42, 127]),\n",
      "   midi.NoteOnEvent(tick=29, channel=9, data=[42, 0]),\n",
      "   midi.NoteOnEvent(tick=31, channel=9, data=[42, 127]),\n",
      "   midi.NoteOnEvent(tick=29, channel=9, data=[42, 0]),\n",
      "   midi.NoteOnEvent(tick=31, channel=9, data=[42, 127]),\n",
      "   midi.NoteOnEvent(tick=29, channel=9, data=[42, 0]),\n",
      "   midi.EndOfTrackEvent(tick=0, data=[])]),\n",
      " midi.Track(\\\n",
      "  [midi.PortEvent(tick=0, data=[0]),\n",
      "   midi.TrackNameEvent(tick=0, text='Snare', data=[83, 110, 97, 114, 101]),\n",
      "   midi.NoteOnEvent(tick=8940, channel=9, data=[38, 127]),\n",
      "   midi.NoteOnEvent(tick=60, channel=9, data=[38, 127]),\n",
      "   midi.NoteOnEvent(tick=60, channel=9, data=[38, 0]),\n",
      "   midi.NoteOnEvent(tick=60, channel=9, data=[38, 0]),\n",
      "   midi.NoteOnEvent(tick=120, channel=9, data=[38, 127]),\n",
      "   midi.NoteOnEvent(tick=120, channel=9, data=[38, 0]),\n",
      "   midi.NoteOnEvent(tick=120, channel=9, data=[38, 127]),\n",
      "   midi.NoteOnEvent(tick=120, channel=9, data=[38, 0]),\n",
      "   midi.NoteOnEvent(tick=120, channel=9, data=[38, 127]),\n",
      "   midi.NoteOnEvent(tick=120, channel=9, data=[38, 0]),\n",
      "   midi.NoteOnEvent(tick=120, channel=9, data=[38, 127]),\n",
      "   midi.NoteOnEvent(tick=120, channel=9, data=[38, 0]),\n",
      "   midi.NoteOnEvent(tick=120, channel=9, data=[38, 127]),\n",
      "   midi.NoteOnEvent(tick=120, channel=9, data=[38, 0]),\n",
      "   midi.NoteOnEvent(tick=120, channel=9, data=[38, 127]),\n",
      "   midi.NoteOnEvent(tick=120, channel=9, data=[38, 0]),\n",
      "   midi.NoteOnEvent(tick=120, channel=9, data=[38, 127]),\n",
      "   midi.NoteOnEvent(tick=120, channel=9, data=[38, 0]),\n",
      "   midi.NoteOnEvent(tick=120, channel=9, data=[38, 127]),\n",
      "   midi.NoteOnEvent(tick=120, channel=9, data=[38, 0]),\n",
      "   midi.NoteOnEvent(tick=120, channel=9, data=[38, 127]),\n",
      "   midi.NoteOnEvent(tick=120, channel=9, data=[38, 0]),\n",
      "   midi.NoteOnEvent(tick=120, channel=9, data=[38, 127]),\n",
      "   midi.NoteOnEvent(tick=120, channel=9, data=[38, 0]),\n",
      "   midi.NoteOnEvent(tick=120, channel=9, data=[38, 127]),\n",
      "   midi.NoteOnEvent(tick=120, channel=9, data=[38, 0]),\n",
      "   midi.NoteOnEvent(tick=120, channel=9, data=[38, 127]),\n",
      "   midi.NoteOnEvent(tick=120, channel=9, data=[38, 0]),\n",
      "   midi.NoteOnEvent(tick=120, channel=9, data=[38, 127]),\n",
      "   midi.NoteOnEvent(tick=120, channel=9, data=[38, 0]),\n",
      "   midi.NoteOnEvent(tick=120, channel=9, data=[38, 127]),\n",
      "   midi.NoteOnEvent(tick=120, channel=9, data=[38, 0]),\n",
      "   midi.NoteOnEvent(tick=120, channel=9, data=[38, 127]),\n",
      "   midi.NoteOnEvent(tick=120, channel=9, data=[38, 0]),\n",
      "   midi.NoteOnEvent(tick=120, channel=9, data=[38, 127]),\n",
      "   midi.NoteOnEvent(tick=120, channel=9, data=[38, 0]),\n",
      "   midi.NoteOnEvent(tick=120, channel=9, data=[38, 127]),\n",
      "   midi.NoteOnEvent(tick=120, channel=9, data=[38, 0]),\n",
      "   midi.NoteOnEvent(tick=120, channel=9, data=[38, 127]),\n",
      "   midi.NoteOnEvent(tick=120, channel=9, data=[38, 0]),\n",
      "   midi.NoteOnEvent(tick=120, channel=9, data=[38, 127]),\n",
      "   midi.NoteOnEvent(tick=120, channel=9, data=[38, 0]),\n",
      "   midi.NoteOnEvent(tick=120, channel=9, data=[38, 127]),\n",
      "   midi.NoteOnEvent(tick=120, channel=9, data=[38, 0]),\n",
      "   midi.NoteOnEvent(tick=120, channel=9, data=[38, 127]),\n",
      "   midi.NoteOnEvent(tick=120, channel=9, data=[38, 0]),\n",
      "   midi.NoteOnEvent(tick=120, channel=9, data=[38, 127]),\n",
      "   midi.NoteOnEvent(tick=120, channel=9, data=[38, 0]),\n",
      "   midi.NoteOnEvent(tick=120, channel=9, data=[38, 127]),\n",
      "   midi.NoteOnEvent(tick=120, channel=9, data=[38, 0]),\n",
      "   midi.NoteOnEvent(tick=120, channel=9, data=[38, 127]),\n",
      "   midi.NoteOnEvent(tick=120, channel=9, data=[38, 0]),\n",
      "   midi.NoteOnEvent(tick=120, channel=9, data=[38, 127]),\n",
      "   midi.NoteOnEvent(tick=120, channel=9, data=[38, 0]),\n",
      "   midi.NoteOnEvent(tick=120, channel=9, data=[38, 127]),\n",
      "   midi.NoteOnEvent(tick=120, channel=9, data=[38, 0]),\n",
      "   midi.NoteOnEvent(tick=120, channel=9, data=[38, 127]),\n",
      "   midi.NoteOnEvent(tick=120, channel=9, data=[38, 0]),\n",
      "   midi.NoteOnEvent(tick=120, channel=9, data=[38, 127]),\n",
      "   midi.NoteOnEvent(tick=120, channel=9, data=[38, 0]),\n",
      "   midi.NoteOnEvent(tick=120, channel=9, data=[38, 127]),\n",
      "   midi.NoteOnEvent(tick=120, channel=9, data=[38, 0]),\n",
      "   midi.NoteOnEvent(tick=120, channel=9, data=[38, 127]),\n",
      "   midi.NoteOnEvent(tick=120, channel=9, data=[38, 0]),\n",
      "   midi.NoteOnEvent(tick=120, channel=9, data=[38, 127]),\n",
      "   midi.NoteOnEvent(tick=120, channel=9, data=[38, 0]),\n",
      "   midi.NoteOnEvent(tick=120, channel=9, data=[38, 127]),\n",
      "   midi.NoteOnEvent(tick=120, channel=9, data=[38, 0]),\n",
      "   midi.NoteOnEvent(tick=120, channel=9, data=[38, 127]),\n",
      "   midi.NoteOnEvent(tick=120, channel=9, data=[38, 0]),\n",
      "   midi.NoteOnEvent(tick=120, channel=9, data=[38, 127]),\n",
      "   midi.NoteOnEvent(tick=120, channel=9, data=[38, 0]),\n",
      "   midi.NoteOnEvent(tick=120, channel=9, data=[38, 127]),\n",
      "   midi.NoteOnEvent(tick=120, channel=9, data=[38, 0]),\n",
      "   midi.NoteOnEvent(tick=120, channel=9, data=[38, 127]),\n",
      "   midi.NoteOnEvent(tick=120, channel=9, data=[38, 0]),\n",
      "   midi.NoteOnEvent(tick=120, channel=9, data=[38, 127]),\n",
      "   midi.NoteOnEvent(tick=120, channel=9, data=[38, 0]),\n",
      "   midi.NoteOnEvent(tick=120, channel=9, data=[38, 127]),\n",
      "   midi.NoteOnEvent(tick=120, channel=9, data=[38, 0]),\n",
      "   midi.NoteOnEvent(tick=120, channel=9, data=[38, 127]),\n",
      "   midi.NoteOnEvent(tick=120, channel=9, data=[38, 0]),\n",
      "   midi.NoteOnEvent(tick=120, channel=9, data=[38, 127]),\n",
      "   midi.NoteOnEvent(tick=120, channel=9, data=[38, 0]),\n",
      "   midi.NoteOnEvent(tick=120, channel=9, data=[38, 127]),\n",
      "   midi.NoteOnEvent(tick=120, channel=9, data=[38, 0]),\n",
      "   midi.NoteOnEvent(tick=120, channel=9, data=[38, 127]),\n",
      "   midi.NoteOnEvent(tick=120, channel=9, data=[38, 0]),\n",
      "   midi.NoteOnEvent(tick=120, channel=9, data=[38, 127]),\n",
      "   midi.NoteOnEvent(tick=120, channel=9, data=[38, 0]),\n",
      "   midi.NoteOnEvent(tick=120, channel=9, data=[38, 127]),\n",
      "   midi.NoteOnEvent(tick=120, channel=9, data=[38, 0]),\n",
      "   midi.NoteOnEvent(tick=120, channel=9, data=[38, 127]),\n",
      "   midi.NoteOnEvent(tick=120, channel=9, data=[38, 0]),\n",
      "   midi.NoteOnEvent(tick=120, channel=9, data=[38, 127]),\n",
      "   midi.NoteOnEvent(tick=120, channel=9, data=[38, 0]),\n",
      "   midi.NoteOnEvent(tick=120, channel=9, data=[38, 127]),\n",
      "   midi.NoteOnEvent(tick=120, channel=9, data=[38, 0]),\n",
      "   midi.NoteOnEvent(tick=120, channel=9, data=[38, 127]),\n",
      "   midi.NoteOnEvent(tick=120, channel=9, data=[38, 0]),\n",
      "   midi.NoteOnEvent(tick=120, channel=9, data=[38, 127]),\n",
      "   midi.NoteOnEvent(tick=120, channel=9, data=[38, 0]),\n",
      "   midi.NoteOnEvent(tick=120, channel=9, data=[38, 127]),\n",
      "   midi.NoteOnEvent(tick=120, channel=9, data=[38, 0]),\n",
      "   midi.NoteOnEvent(tick=120, channel=9, data=[38, 127]),\n",
      "   midi.NoteOnEvent(tick=120, channel=9, data=[38, 0]),\n",
      "   midi.NoteOnEvent(tick=120, channel=9, data=[38, 127]),\n",
      "   midi.NoteOnEvent(tick=120, channel=9, data=[38, 0]),\n",
      "   midi.NoteOnEvent(tick=120, channel=9, data=[38, 127]),\n",
      "   midi.NoteOnEvent(tick=120, channel=9, data=[38, 0]),\n",
      "   midi.NoteOnEvent(tick=120, channel=9, data=[38, 127]),\n",
      "   midi.NoteOnEvent(tick=120, channel=9, data=[38, 0]),\n",
      "   midi.NoteOnEvent(tick=120, channel=9, data=[38, 127]),\n",
      "   midi.NoteOnEvent(tick=120, channel=9, data=[38, 0]),\n",
      "   midi.NoteOnEvent(tick=120, channel=9, data=[38, 127]),\n",
      "   midi.NoteOnEvent(tick=120, channel=9, data=[38, 0]),\n",
      "   midi.NoteOnEvent(tick=120, channel=9, data=[38, 127]),\n",
      "   midi.NoteOnEvent(tick=120, channel=9, data=[38, 0]),\n",
      "   midi.NoteOnEvent(tick=120, channel=9, data=[38, 127]),\n",
      "   midi.NoteOnEvent(tick=120, channel=9, data=[38, 0]),\n",
      "   midi.NoteOnEvent(tick=120, channel=9, data=[38, 127]),\n",
      "   midi.NoteOnEvent(tick=120, channel=9, data=[38, 0]),\n",
      "   midi.NoteOnEvent(tick=120, channel=9, data=[38, 127]),\n",
      "   midi.NoteOnEvent(tick=120, channel=9, data=[38, 0]),\n",
      "   midi.NoteOnEvent(tick=120, channel=9, data=[38, 127]),\n",
      "   midi.NoteOnEvent(tick=120, channel=9, data=[38, 0]),\n",
      "   midi.NoteOnEvent(tick=120, channel=9, data=[38, 127]),\n",
      "   midi.NoteOnEvent(tick=120, channel=9, data=[38, 0]),\n",
      "   midi.NoteOnEvent(tick=120, channel=9, data=[38, 127]),\n",
      "   midi.NoteOnEvent(tick=120, channel=9, data=[38, 0]),\n",
      "   midi.NoteOnEvent(tick=120, channel=9, data=[38, 127]),\n",
      "   midi.NoteOnEvent(tick=120, channel=9, data=[38, 0]),\n",
      "   midi.NoteOnEvent(tick=120, channel=9, data=[38, 127]),\n",
      "   midi.NoteOnEvent(tick=120, channel=9, data=[38, 0]),\n",
      "   midi.NoteOnEvent(tick=120, channel=9, data=[38, 127]),\n",
      "   midi.NoteOnEvent(tick=120, channel=9, data=[38, 0]),\n",
      "   midi.NoteOnEvent(tick=120, channel=9, data=[38, 127]),\n",
      "   midi.NoteOnEvent(tick=120, channel=9, data=[38, 0]),\n",
      "   midi.NoteOnEvent(tick=120, channel=9, data=[38, 127]),\n",
      "   midi.NoteOnEvent(tick=120, channel=9, data=[38, 0]),\n",
      "   midi.NoteOnEvent(tick=120, channel=9, data=[38, 127]),\n",
      "   midi.NoteOnEvent(tick=120, channel=9, data=[38, 0]),\n",
      "   midi.NoteOnEvent(tick=120, channel=9, data=[38, 127]),\n",
      "   midi.NoteOnEvent(tick=120, channel=9, data=[38, 0]),\n",
      "   midi.NoteOnEvent(tick=120, channel=9, data=[38, 127]),\n",
      "   midi.NoteOnEvent(tick=120, channel=9, data=[38, 0]),\n",
      "   midi.NoteOnEvent(tick=120, channel=9, data=[38, 127]),\n",
      "   midi.NoteOnEvent(tick=120, channel=9, data=[38, 0]),\n",
      "   midi.NoteOnEvent(tick=120, channel=9, data=[38, 127]),\n",
      "   midi.NoteOnEvent(tick=120, channel=9, data=[38, 0]),\n",
      "   midi.NoteOnEvent(tick=120, channel=9, data=[38, 127]),\n",
      "   midi.NoteOnEvent(tick=120, channel=9, data=[38, 0]),\n",
      "   midi.NoteOnEvent(tick=120, channel=9, data=[38, 127]),\n",
      "   midi.NoteOnEvent(tick=120, channel=9, data=[38, 0]),\n",
      "   midi.NoteOnEvent(tick=120, channel=9, data=[38, 127]),\n",
      "   midi.NoteOnEvent(tick=120, channel=9, data=[38, 0]),\n",
      "   midi.NoteOnEvent(tick=120, channel=9, data=[38, 127]),\n",
      "   midi.NoteOnEvent(tick=120, channel=9, data=[38, 0]),\n",
      "   midi.NoteOnEvent(tick=120, channel=9, data=[38, 127]),\n",
      "   midi.NoteOnEvent(tick=120, channel=9, data=[38, 0]),\n",
      "   midi.NoteOnEvent(tick=120, channel=9, data=[38, 127]),\n",
      "   midi.NoteOnEvent(tick=120, channel=9, data=[38, 0]),\n",
      "   midi.NoteOnEvent(tick=120, channel=9, data=[38, 127]),\n",
      "   midi.NoteOnEvent(tick=120, channel=9, data=[38, 0]),\n",
      "   midi.NoteOnEvent(tick=120, channel=9, data=[38, 127]),\n",
      "   midi.NoteOnEvent(tick=120, channel=9, data=[38, 0]),\n",
      "   midi.NoteOnEvent(tick=120, channel=9, data=[38, 127]),\n",
      "   midi.NoteOnEvent(tick=120, channel=9, data=[38, 0]),\n",
      "   midi.NoteOnEvent(tick=120, channel=9, data=[38, 127]),\n",
      "   midi.NoteOnEvent(tick=120, channel=9, data=[38, 0]),\n",
      "   midi.NoteOnEvent(tick=120, channel=9, data=[38, 127]),\n",
      "   midi.NoteOnEvent(tick=120, channel=9, data=[38, 0]),\n",
      "   midi.NoteOnEvent(tick=120, channel=9, data=[38, 127]),\n",
      "   midi.NoteOnEvent(tick=120, channel=9, data=[38, 0]),\n",
      "   midi.NoteOnEvent(tick=120, channel=9, data=[38, 127]),\n",
      "   midi.NoteOnEvent(tick=120, channel=9, data=[38, 0]),\n",
      "   midi.NoteOnEvent(tick=0, channel=9, data=[38, 127]),\n",
      "   midi.NoteOnEvent(tick=120, channel=9, data=[38, 0]),\n",
      "   midi.NoteOnEvent(tick=360, channel=9, data=[38, 127]),\n",
      "   midi.NoteOnEvent(tick=120, channel=9, data=[38, 0]),\n",
      "   midi.NoteOnEvent(tick=0, channel=9, data=[38, 127]),\n",
      "   midi.NoteOnEvent(tick=120, channel=9, data=[38, 0]),\n",
      "   midi.NoteOnEvent(tick=120, channel=9, data=[38, 127]),\n",
      "   midi.NoteOnEvent(tick=120, channel=9, data=[38, 0]),\n",
      "   midi.NoteOnEvent(tick=120, channel=9, data=[38, 127]),\n",
      "   midi.NoteOnEvent(tick=120, channel=9, data=[38, 0]),\n",
      "   midi.NoteOnEvent(tick=120, channel=9, data=[38, 127]),\n",
      "   midi.NoteOnEvent(tick=120, channel=9, data=[38, 0]),\n",
      "   midi.NoteOnEvent(tick=120, channel=9, data=[38, 127]),\n",
      "   midi.NoteOnEvent(tick=120, channel=9, data=[38, 0]),\n",
      "   midi.NoteOnEvent(tick=120, channel=9, data=[38, 127]),\n",
      "   midi.NoteOnEvent(tick=120, channel=9, data=[38, 0]),\n",
      "   midi.NoteOnEvent(tick=120, channel=9, data=[38, 127]),\n",
      "   midi.NoteOnEvent(tick=120, channel=9, data=[38, 0]),\n",
      "   midi.NoteOnEvent(tick=120, channel=9, data=[38, 127]),\n",
      "   midi.NoteOnEvent(tick=120, channel=9, data=[38, 0]),\n",
      "   midi.NoteOnEvent(tick=120, channel=9, data=[38, 127]),\n",
      "   midi.NoteOnEvent(tick=120, channel=9, data=[38, 0]),\n",
      "   midi.NoteOnEvent(tick=120, channel=9, data=[38, 127]),\n",
      "   midi.NoteOnEvent(tick=120, channel=9, data=[38, 0]),\n",
      "   midi.NoteOnEvent(tick=120, channel=9, data=[38, 127]),\n",
      "   midi.NoteOnEvent(tick=120, channel=9, data=[38, 0]),\n",
      "   midi.NoteOnEvent(tick=120, channel=9, data=[38, 127]),\n",
      "   midi.NoteOnEvent(tick=120, channel=9, data=[38, 0]),\n",
      "   midi.NoteOnEvent(tick=120, channel=9, data=[38, 127]),\n",
      "   midi.NoteOnEvent(tick=120, channel=9, data=[38, 0]),\n",
      "   midi.NoteOnEvent(tick=120, channel=9, data=[38, 127]),\n",
      "   midi.NoteOnEvent(tick=120, channel=9, data=[38, 0]),\n",
      "   midi.NoteOnEvent(tick=120, channel=9, data=[38, 127]),\n",
      "   midi.NoteOnEvent(tick=120, channel=9, data=[38, 0]),\n",
      "   midi.NoteOnEvent(tick=120, channel=9, data=[38, 127]),\n",
      "   midi.NoteOnEvent(tick=120, channel=9, data=[38, 0]),\n",
      "   midi.NoteOnEvent(tick=120, channel=9, data=[38, 127]),\n",
      "   midi.NoteOnEvent(tick=120, channel=9, data=[38, 0]),\n",
      "   midi.NoteOnEvent(tick=120, channel=9, data=[38, 127]),\n",
      "   midi.NoteOnEvent(tick=120, channel=9, data=[38, 0]),\n",
      "   midi.NoteOnEvent(tick=120, channel=9, data=[38, 127]),\n",
      "   midi.NoteOnEvent(tick=120, channel=9, data=[38, 0]),\n",
      "   midi.NoteOnEvent(tick=120, channel=9, data=[38, 127]),\n",
      "   midi.NoteOnEvent(tick=120, channel=9, data=[38, 0]),\n",
      "   midi.NoteOnEvent(tick=120, channel=9, data=[38, 127]),\n",
      "   midi.NoteOnEvent(tick=120, channel=9, data=[38, 0]),\n",
      "   midi.NoteOnEvent(tick=120, channel=9, data=[38, 127]),\n",
      "   midi.NoteOnEvent(tick=120, channel=9, data=[38, 0]),\n",
      "   midi.NoteOnEvent(tick=120, channel=9, data=[38, 127]),\n",
      "   midi.NoteOnEvent(tick=120, channel=9, data=[38, 0]),\n",
      "   midi.NoteOnEvent(tick=120, channel=9, data=[38, 127]),\n",
      "   midi.NoteOnEvent(tick=120, channel=9, data=[38, 0]),\n",
      "   midi.NoteOnEvent(tick=120, channel=9, data=[38, 127]),\n",
      "   midi.NoteOnEvent(tick=120, channel=9, data=[38, 0]),\n",
      "   midi.NoteOnEvent(tick=120, channel=9, data=[38, 127]),\n",
      "   midi.NoteOnEvent(tick=120, channel=9, data=[38, 0]),\n",
      "   midi.NoteOnEvent(tick=120, channel=9, data=[38, 127]),\n",
      "   midi.NoteOnEvent(tick=120, channel=9, data=[38, 0]),\n",
      "   midi.NoteOnEvent(tick=120, channel=9, data=[38, 127]),\n",
      "   midi.NoteOnEvent(tick=120, channel=9, data=[38, 0]),\n",
      "   midi.NoteOnEvent(tick=120, channel=9, data=[38, 127]),\n",
      "   midi.NoteOnEvent(tick=120, channel=9, data=[38, 0]),\n",
      "   midi.NoteOnEvent(tick=120, channel=9, data=[38, 127]),\n",
      "   midi.NoteOnEvent(tick=120, channel=9, data=[38, 0]),\n",
      "   midi.NoteOnEvent(tick=120, channel=9, data=[38, 127]),\n",
      "   midi.NoteOnEvent(tick=120, channel=9, data=[38, 0]),\n",
      "   midi.NoteOnEvent(tick=120, channel=9, data=[38, 127]),\n",
      "   midi.NoteOnEvent(tick=120, channel=9, data=[38, 0]),\n",
      "   midi.NoteOnEvent(tick=120, channel=9, data=[38, 127]),\n",
      "   midi.NoteOnEvent(tick=120, channel=9, data=[38, 0]),\n",
      "   midi.NoteOnEvent(tick=120, channel=9, data=[38, 127]),\n",
      "   midi.NoteOnEvent(tick=120, channel=9, data=[38, 0]),\n",
      "   midi.NoteOnEvent(tick=120, channel=9, data=[38, 127]),\n",
      "   midi.NoteOnEvent(tick=120, channel=9, data=[38, 0]),\n",
      "   midi.NoteOnEvent(tick=120, channel=9, data=[38, 127]),\n",
      "   midi.NoteOnEvent(tick=120, channel=9, data=[38, 0]),\n",
      "   midi.NoteOnEvent(tick=120, channel=9, data=[38, 127]),\n",
      "   midi.NoteOnEvent(tick=120, channel=9, data=[38, 0]),\n",
      "   midi.NoteOnEvent(tick=120, channel=9, data=[38, 127]),\n",
      "   midi.NoteOnEvent(tick=120, channel=9, data=[38, 0]),\n",
      "   midi.NoteOnEvent(tick=120, channel=9, data=[38, 127]),\n",
      "   midi.NoteOnEvent(tick=120, channel=9, data=[38, 0]),\n",
      "   midi.NoteOnEvent(tick=120, channel=9, data=[38, 127]),\n",
      "   midi.NoteOnEvent(tick=120, channel=9, data=[38, 0]),\n",
      "   midi.NoteOnEvent(tick=120, channel=9, data=[38, 127]),\n",
      "   midi.NoteOnEvent(tick=120, channel=9, data=[38, 0]),\n",
      "   midi.NoteOnEvent(tick=120, channel=9, data=[38, 127]),\n",
      "   midi.NoteOnEvent(tick=120, channel=9, data=[38, 0]),\n",
      "   midi.NoteOnEvent(tick=120, channel=9, data=[38, 127]),\n",
      "   midi.NoteOnEvent(tick=120, channel=9, data=[38, 0]),\n",
      "   midi.NoteOnEvent(tick=120, channel=9, data=[38, 127]),\n",
      "   midi.NoteOnEvent(tick=120, channel=9, data=[38, 0]),\n",
      "   midi.NoteOnEvent(tick=120, channel=9, data=[38, 127]),\n",
      "   midi.NoteOnEvent(tick=120, channel=9, data=[38, 0]),\n",
      "   midi.NoteOnEvent(tick=120, channel=9, data=[38, 127]),\n",
      "   midi.NoteOnEvent(tick=120, channel=9, data=[38, 0]),\n",
      "   midi.NoteOnEvent(tick=120, channel=9, data=[38, 127]),\n",
      "   midi.NoteOnEvent(tick=120, channel=9, data=[38, 0]),\n",
      "   midi.NoteOnEvent(tick=120, channel=9, data=[38, 127]),\n",
      "   midi.NoteOnEvent(tick=120, channel=9, data=[38, 0]),\n",
      "   midi.NoteOnEvent(tick=120, channel=9, data=[38, 127]),\n",
      "   midi.NoteOnEvent(tick=120, channel=9, data=[38, 0]),\n",
      "   midi.NoteOnEvent(tick=120, channel=9, data=[38, 127]),\n",
      "   midi.NoteOnEvent(tick=120, channel=9, data=[38, 0]),\n",
      "   midi.NoteOnEvent(tick=120, channel=9, data=[38, 127]),\n",
      "   midi.NoteOnEvent(tick=120, channel=9, data=[38, 0]),\n",
      "   midi.NoteOnEvent(tick=120, channel=9, data=[38, 127]),\n",
      "   midi.NoteOnEvent(tick=120, channel=9, data=[38, 0]),\n",
      "   midi.NoteOnEvent(tick=120, channel=9, data=[38, 127]),\n",
      "   midi.NoteOnEvent(tick=120, channel=9, data=[38, 0]),\n",
      "   midi.NoteOnEvent(tick=120, channel=9, data=[38, 127]),\n",
      "   midi.NoteOnEvent(tick=120, channel=9, data=[38, 0]),\n",
      "   midi.NoteOnEvent(tick=120, channel=9, data=[38, 127]),\n",
      "   midi.NoteOnEvent(tick=120, channel=9, data=[38, 0]),\n",
      "   midi.NoteOnEvent(tick=120, channel=9, data=[38, 127]),\n",
      "   midi.NoteOnEvent(tick=120, channel=9, data=[38, 0]),\n",
      "   midi.NoteOnEvent(tick=120, channel=9, data=[38, 127]),\n",
      "   midi.NoteOnEvent(tick=120, channel=9, data=[38, 0]),\n",
      "   midi.NoteOnEvent(tick=120, channel=9, data=[38, 127]),\n",
      "   midi.NoteOnEvent(tick=120, channel=9, data=[38, 0]),\n",
      "   midi.NoteOnEvent(tick=120, channel=9, data=[38, 127]),\n",
      "   midi.NoteOnEvent(tick=120, channel=9, data=[38, 0]),\n",
      "   midi.NoteOnEvent(tick=120, channel=9, data=[38, 127]),\n",
      "   midi.NoteOnEvent(tick=120, channel=9, data=[38, 0]),\n",
      "   midi.NoteOnEvent(tick=120, channel=9, data=[38, 127]),\n",
      "   midi.NoteOnEvent(tick=120, channel=9, data=[38, 0]),\n",
      "   midi.NoteOnEvent(tick=120, channel=9, data=[38, 127]),\n",
      "   midi.NoteOnEvent(tick=120, channel=9, data=[38, 0]),\n",
      "   midi.NoteOnEvent(tick=0, channel=9, data=[38, 127]),\n",
      "   midi.NoteOnEvent(tick=120, channel=9, data=[38, 0]),\n",
      "   midi.NoteOnEvent(tick=360, channel=9, data=[38, 127]),\n",
      "   midi.NoteOnEvent(tick=120, channel=9, data=[38, 0]),\n",
      "   midi.NoteOnEvent(tick=1920, channel=9, data=[38, 127]),\n",
      "   midi.NoteOnEvent(tick=120, channel=9, data=[38, 0]),\n",
      "   midi.NoteOnEvent(tick=120, channel=9, data=[38, 127]),\n",
      "   midi.NoteOnEvent(tick=120, channel=9, data=[38, 0]),\n",
      "   midi.NoteOnEvent(tick=120, channel=9, data=[38, 127]),\n",
      "   midi.NoteOnEvent(tick=120, channel=9, data=[38, 0]),\n",
      "   midi.NoteOnEvent(tick=120, channel=9, data=[38, 127]),\n",
      "   midi.NoteOnEvent(tick=120, channel=9, data=[38, 0]),\n",
      "   midi.NoteOnEvent(tick=120, channel=9, data=[38, 127]),\n",
      "   midi.NoteOnEvent(tick=120, channel=9, data=[38, 0]),\n",
      "   midi.NoteOnEvent(tick=120, channel=9, data=[38, 127]),\n",
      "   midi.NoteOnEvent(tick=120, channel=9, data=[38, 0]),\n",
      "   midi.NoteOnEvent(tick=120, channel=9, data=[38, 127]),\n",
      "   midi.NoteOnEvent(tick=120, channel=9, data=[38, 0]),\n",
      "   midi.NoteOnEvent(tick=120, channel=9, data=[38, 127]),\n",
      "   midi.NoteOnEvent(tick=120, channel=9, data=[38, 0]),\n",
      "   midi.NoteOnEvent(tick=120, channel=9, data=[38, 127]),\n",
      "   midi.NoteOnEvent(tick=120, channel=9, data=[38, 0]),\n",
      "   midi.NoteOnEvent(tick=120, channel=9, data=[38, 127]),\n",
      "   midi.NoteOnEvent(tick=120, channel=9, data=[38, 0]),\n",
      "   midi.NoteOnEvent(tick=120, channel=9, data=[38, 127]),\n",
      "   midi.NoteOnEvent(tick=120, channel=9, data=[38, 0]),\n",
      "   midi.NoteOnEvent(tick=120, channel=9, data=[38, 127]),\n",
      "   midi.NoteOnEvent(tick=120, channel=9, data=[38, 0]),\n",
      "   midi.NoteOnEvent(tick=120, channel=9, data=[38, 127]),\n",
      "   midi.NoteOnEvent(tick=120, channel=9, data=[38, 0]),\n",
      "   midi.NoteOnEvent(tick=120, channel=9, data=[38, 127]),\n",
      "   midi.NoteOnEvent(tick=120, channel=9, data=[38, 0]),\n",
      "   midi.NoteOnEvent(tick=120, channel=9, data=[38, 127]),\n",
      "   midi.NoteOnEvent(tick=120, channel=9, data=[38, 0]),\n",
      "   midi.NoteOnEvent(tick=120, channel=9, data=[38, 127]),\n",
      "   midi.NoteOnEvent(tick=120, channel=9, data=[38, 0]),\n",
      "   midi.NoteOnEvent(tick=120, channel=9, data=[38, 127]),\n",
      "   midi.NoteOnEvent(tick=120, channel=9, data=[38, 0]),\n",
      "   midi.NoteOnEvent(tick=120, channel=9, data=[38, 127]),\n",
      "   midi.NoteOnEvent(tick=120, channel=9, data=[38, 0]),\n",
      "   midi.NoteOnEvent(tick=120, channel=9, data=[38, 127]),\n",
      "   midi.NoteOnEvent(tick=120, channel=9, data=[38, 0]),\n",
      "   midi.NoteOnEvent(tick=120, channel=9, data=[38, 127]),\n",
      "   midi.NoteOnEvent(tick=120, channel=9, data=[38, 0]),\n",
      "   midi.NoteOnEvent(tick=120, channel=9, data=[38, 127]),\n",
      "   midi.NoteOnEvent(tick=120, channel=9, data=[38, 0]),\n",
      "   midi.NoteOnEvent(tick=120, channel=9, data=[38, 127]),\n",
      "   midi.NoteOnEvent(tick=120, channel=9, data=[38, 0]),\n",
      "   midi.NoteOnEvent(tick=120, channel=9, data=[38, 127]),\n",
      "   midi.NoteOnEvent(tick=120, channel=9, data=[38, 0]),\n",
      "   midi.NoteOnEvent(tick=120, channel=9, data=[38, 127]),\n",
      "   midi.NoteOnEvent(tick=120, channel=9, data=[38, 0]),\n",
      "   midi.NoteOnEvent(tick=120, channel=9, data=[38, 127]),\n",
      "   midi.NoteOnEvent(tick=120, channel=9, data=[38, 0]),\n",
      "   midi.NoteOnEvent(tick=120, channel=9, data=[38, 127]),\n",
      "   midi.NoteOnEvent(tick=120, channel=9, data=[38, 0]),\n",
      "   midi.NoteOnEvent(tick=120, channel=9, data=[38, 127]),\n",
      "   midi.NoteOnEvent(tick=120, channel=9, data=[38, 0]),\n",
      "   midi.NoteOnEvent(tick=120, channel=9, data=[38, 127]),\n",
      "   midi.NoteOnEvent(tick=120, channel=9, data=[38, 0]),\n",
      "   midi.NoteOnEvent(tick=120, channel=9, data=[38, 127]),\n",
      "   midi.NoteOnEvent(tick=120, channel=9, data=[38, 0]),\n",
      "   midi.NoteOnEvent(tick=120, channel=9, data=[38, 127]),\n",
      "   midi.NoteOnEvent(tick=75, channel=9, data=[38, 127]),\n",
      "   midi.NoteOnEvent(tick=17, channel=9, data=[38, 0]),\n",
      "   midi.NoteOnEvent(tick=28, channel=9, data=[38, 0]),\n",
      "   midi.NoteOnEvent(tick=0, channel=9, data=[38, 127]),\n",
      "   midi.NoteOnEvent(tick=46, channel=9, data=[38, 0]),\n",
      "   midi.NoteOnEvent(tick=374, channel=9, data=[38, 127]),\n",
      "   midi.NoteOnEvent(tick=30, channel=9, data=[38, 127]),\n",
      "   midi.NoteOnEvent(tick=16, channel=9, data=[38, 0]),\n",
      "   midi.NoteOnEvent(tick=30, channel=9, data=[38, 0]),\n",
      "   midi.NoteOnEvent(tick=104, channel=9, data=[38, 127]),\n",
      "   midi.NoteOnEvent(tick=120, channel=9, data=[38, 0]),\n",
      "   midi.NoteOnEvent(tick=120, channel=9, data=[38, 127]),\n",
      "   midi.NoteOnEvent(tick=120, channel=9, data=[38, 0]),\n",
      "   midi.NoteOnEvent(tick=120, channel=9, data=[38, 127]),\n",
      "   midi.NoteOnEvent(tick=120, channel=9, data=[38, 0]),\n",
      "   midi.NoteOnEvent(tick=120, channel=9, data=[38, 127]),\n",
      "   midi.NoteOnEvent(tick=120, channel=9, data=[38, 0]),\n",
      "   midi.NoteOnEvent(tick=120, channel=9, data=[38, 127]),\n",
      "   midi.NoteOnEvent(tick=120, channel=9, data=[38, 0]),\n",
      "   midi.NoteOnEvent(tick=120, channel=9, data=[38, 127]),\n",
      "   midi.NoteOnEvent(tick=120, channel=9, data=[38, 0]),\n",
      "   midi.NoteOnEvent(tick=120, channel=9, data=[38, 127]),\n",
      "   midi.NoteOnEvent(tick=120, channel=9, data=[38, 0]),\n",
      "   midi.NoteOnEvent(tick=120, channel=9, data=[38, 127]),\n",
      "   midi.NoteOnEvent(tick=120, channel=9, data=[38, 0]),\n",
      "   midi.NoteOnEvent(tick=120, channel=9, data=[38, 127]),\n",
      "   midi.NoteOnEvent(tick=120, channel=9, data=[38, 0]),\n",
      "   midi.NoteOnEvent(tick=120, channel=9, data=[38, 127]),\n",
      "   midi.NoteOnEvent(tick=120, channel=9, data=[38, 0]),\n",
      "   midi.NoteOnEvent(tick=120, channel=9, data=[38, 127]),\n",
      "   midi.NoteOnEvent(tick=120, channel=9, data=[38, 0]),\n",
      "   midi.NoteOnEvent(tick=120, channel=9, data=[38, 127]),\n",
      "   midi.NoteOnEvent(tick=120, channel=9, data=[38, 0]),\n",
      "   midi.NoteOnEvent(tick=120, channel=9, data=[38, 127]),\n",
      "   midi.NoteOnEvent(tick=120, channel=9, data=[38, 0]),\n",
      "   midi.NoteOnEvent(tick=120, channel=9, data=[38, 127]),\n",
      "   midi.NoteOnEvent(tick=120, channel=9, data=[38, 0]),\n",
      "   midi.NoteOnEvent(tick=120, channel=9, data=[38, 127]),\n",
      "   midi.NoteOnEvent(tick=120, channel=9, data=[38, 0]),\n",
      "   midi.NoteOnEvent(tick=120, channel=9, data=[38, 127]),\n",
      "   midi.NoteOnEvent(tick=120, channel=9, data=[38, 0]),\n",
      "   midi.NoteOnEvent(tick=120, channel=9, data=[38, 127]),\n",
      "   midi.NoteOnEvent(tick=120, channel=9, data=[38, 0]),\n",
      "   midi.NoteOnEvent(tick=120, channel=9, data=[38, 127]),\n",
      "   midi.NoteOnEvent(tick=120, channel=9, data=[38, 0]),\n",
      "   midi.NoteOnEvent(tick=120, channel=9, data=[38, 127]),\n",
      "   midi.NoteOnEvent(tick=120, channel=9, data=[38, 0]),\n",
      "   midi.NoteOnEvent(tick=120, channel=9, data=[38, 127]),\n",
      "   midi.NoteOnEvent(tick=120, channel=9, data=[38, 0]),\n",
      "   midi.NoteOnEvent(tick=120, channel=9, data=[38, 127]),\n",
      "   midi.NoteOnEvent(tick=120, channel=9, data=[38, 0]),\n",
      "   midi.NoteOnEvent(tick=120, channel=9, data=[38, 127]),\n",
      "   midi.NoteOnEvent(tick=120, channel=9, data=[38, 0]),\n",
      "   midi.NoteOnEvent(tick=120, channel=9, data=[38, 127]),\n",
      "   midi.NoteOnEvent(tick=120, channel=9, data=[38, 0]),\n",
      "   midi.NoteOnEvent(tick=120, channel=9, data=[38, 127]),\n",
      "   midi.NoteOnEvent(tick=120, channel=9, data=[38, 0]),\n",
      "   midi.NoteOnEvent(tick=120, channel=9, data=[38, 127]),\n",
      "   midi.NoteOnEvent(tick=120, channel=9, data=[38, 0]),\n",
      "   midi.NoteOnEvent(tick=120, channel=9, data=[38, 127]),\n",
      "   midi.NoteOnEvent(tick=120, channel=9, data=[38, 0]),\n",
      "   midi.NoteOnEvent(tick=120, channel=9, data=[38, 127]),\n",
      "   midi.NoteOnEvent(tick=120, channel=9, data=[38, 0]),\n",
      "   midi.NoteOnEvent(tick=120, channel=9, data=[38, 127]),\n",
      "   midi.NoteOnEvent(tick=120, channel=9, data=[38, 0]),\n",
      "   midi.NoteOnEvent(tick=120, channel=9, data=[38, 127]),\n",
      "   midi.NoteOnEvent(tick=120, channel=9, data=[38, 0]),\n",
      "   midi.NoteOnEvent(tick=120, channel=9, data=[38, 127]),\n",
      "   midi.NoteOnEvent(tick=120, channel=9, data=[38, 0]),\n",
      "   midi.NoteOnEvent(tick=120, channel=9, data=[38, 127]),\n",
      "   midi.NoteOnEvent(tick=120, channel=9, data=[38, 0]),\n",
      "   midi.NoteOnEvent(tick=120, channel=9, data=[38, 127]),\n",
      "   midi.NoteOnEvent(tick=120, channel=9, data=[38, 0]),\n",
      "   midi.NoteOnEvent(tick=120, channel=9, data=[38, 127]),\n",
      "   midi.NoteOnEvent(tick=120, channel=9, data=[38, 0]),\n",
      "   midi.NoteOnEvent(tick=120, channel=9, data=[38, 127]),\n",
      "   midi.NoteOnEvent(tick=120, channel=9, data=[38, 0]),\n",
      "   midi.NoteOnEvent(tick=120, channel=9, data=[38, 127]),\n",
      "   midi.NoteOnEvent(tick=120, channel=9, data=[38, 0]),\n",
      "   midi.NoteOnEvent(tick=120, channel=9, data=[38, 127]),\n",
      "   midi.NoteOnEvent(tick=120, channel=9, data=[38, 0]),\n",
      "   midi.NoteOnEvent(tick=120, channel=9, data=[38, 127]),\n",
      "   midi.NoteOnEvent(tick=120, channel=9, data=[38, 0]),\n",
      "   midi.NoteOnEvent(tick=120, channel=9, data=[38, 127]),\n",
      "   midi.NoteOnEvent(tick=120, channel=9, data=[38, 0]),\n",
      "   midi.NoteOnEvent(tick=120, channel=9, data=[38, 127]),\n",
      "   midi.NoteOnEvent(tick=120, channel=9, data=[38, 0]),\n",
      "   midi.NoteOnEvent(tick=120, channel=9, data=[38, 127]),\n",
      "   midi.NoteOnEvent(tick=120, channel=9, data=[38, 0]),\n",
      "   midi.NoteOnEvent(tick=120, channel=9, data=[38, 127]),\n",
      "   midi.NoteOnEvent(tick=120, channel=9, data=[38, 0]),\n",
      "   midi.NoteOnEvent(tick=120, channel=9, data=[38, 127]),\n",
      "   midi.NoteOnEvent(tick=120, channel=9, data=[38, 0]),\n",
      "   midi.NoteOnEvent(tick=120, channel=9, data=[38, 127]),\n",
      "   midi.NoteOnEvent(tick=120, channel=9, data=[38, 0]),\n",
      "   midi.NoteOnEvent(tick=120, channel=9, data=[38, 127]),\n",
      "   midi.NoteOnEvent(tick=120, channel=9, data=[38, 0]),\n",
      "   midi.NoteOnEvent(tick=120, channel=9, data=[38, 127]),\n",
      "   midi.NoteOnEvent(tick=120, channel=9, data=[38, 0]),\n",
      "   midi.NoteOnEvent(tick=120, channel=9, data=[38, 127]),\n",
      "   midi.NoteOnEvent(tick=120, channel=9, data=[38, 0]),\n",
      "   midi.NoteOnEvent(tick=120, channel=9, data=[38, 127]),\n",
      "   midi.NoteOnEvent(tick=120, channel=9, data=[38, 0]),\n",
      "   midi.NoteOnEvent(tick=120, channel=9, data=[38, 127]),\n",
      "   midi.NoteOnEvent(tick=120, channel=9, data=[38, 0]),\n",
      "   midi.NoteOnEvent(tick=120, channel=9, data=[38, 127]),\n",
      "   midi.NoteOnEvent(tick=120, channel=9, data=[38, 0]),\n",
      "   midi.NoteOnEvent(tick=120, channel=9, data=[38, 127]),\n",
      "   midi.NoteOnEvent(tick=120, channel=9, data=[38, 0]),\n",
      "   midi.NoteOnEvent(tick=120, channel=9, data=[38, 127]),\n",
      "   midi.NoteOnEvent(tick=120, channel=9, data=[38, 0]),\n",
      "   midi.NoteOnEvent(tick=120, channel=9, data=[38, 127]),\n",
      "   midi.NoteOnEvent(tick=120, channel=9, data=[38, 0]),\n",
      "   midi.NoteOnEvent(tick=120, channel=9, data=[38, 127]),\n",
      "   midi.NoteOnEvent(tick=120, channel=9, data=[38, 0]),\n",
      "   midi.NoteOnEvent(tick=120, channel=9, data=[38, 127]),\n",
      "   midi.NoteOnEvent(tick=120, channel=9, data=[38, 0]),\n",
      "   midi.NoteOnEvent(tick=120, channel=9, data=[38, 127]),\n",
      "   midi.NoteOnEvent(tick=120, channel=9, data=[38, 0]),\n",
      "   midi.NoteOnEvent(tick=120, channel=9, data=[38, 127]),\n",
      "   midi.NoteOnEvent(tick=120, channel=9, data=[38, 0]),\n",
      "   midi.NoteOnEvent(tick=120, channel=9, data=[38, 127]),\n",
      "   midi.NoteOnEvent(tick=120, channel=9, data=[38, 0]),\n",
      "   midi.NoteOnEvent(tick=120, channel=9, data=[38, 127]),\n",
      "   midi.NoteOnEvent(tick=120, channel=9, data=[38, 0]),\n",
      "   midi.NoteOnEvent(tick=120, channel=9, data=[38, 127]),\n",
      "   midi.NoteOnEvent(tick=120, channel=9, data=[38, 0]),\n",
      "   midi.NoteOnEvent(tick=120, channel=9, data=[38, 127]),\n",
      "   midi.NoteOnEvent(tick=120, channel=9, data=[38, 0]),\n",
      "   midi.NoteOnEvent(tick=120, channel=9, data=[38, 127]),\n",
      "   midi.NoteOnEvent(tick=120, channel=9, data=[38, 0]),\n",
      "   midi.NoteOnEvent(tick=120, channel=9, data=[38, 127]),\n",
      "   midi.NoteOnEvent(tick=120, channel=9, data=[38, 0]),\n",
      "   midi.NoteOnEvent(tick=0, channel=9, data=[38, 127]),\n",
      "   midi.NoteOnEvent(tick=120, channel=9, data=[38, 0]),\n",
      "   midi.NoteOnEvent(tick=480, channel=9, data=[38, 127]),\n",
      "   midi.NoteOnEvent(tick=120, channel=9, data=[38, 0]),\n",
      "   midi.NoteOnEvent(tick=120, channel=9, data=[38, 127]),\n",
      "   midi.NoteOnEvent(tick=120, channel=9, data=[38, 0]),\n",
      "   midi.NoteOnEvent(tick=120, channel=9, data=[38, 127]),\n",
      "   midi.NoteOnEvent(tick=120, channel=9, data=[38, 0]),\n",
      "   midi.NoteOnEvent(tick=120, channel=9, data=[38, 127]),\n",
      "   midi.NoteOnEvent(tick=120, channel=9, data=[38, 0]),\n",
      "   midi.NoteOnEvent(tick=120, channel=9, data=[38, 127]),\n",
      "   midi.NoteOnEvent(tick=120, channel=9, data=[38, 0]),\n",
      "   midi.NoteOnEvent(tick=120, channel=9, data=[38, 127]),\n",
      "   midi.NoteOnEvent(tick=120, channel=9, data=[38, 0]),\n",
      "   midi.NoteOnEvent(tick=120, channel=9, data=[38, 127]),\n",
      "   midi.NoteOnEvent(tick=120, channel=9, data=[38, 0]),\n",
      "   midi.NoteOnEvent(tick=120, channel=9, data=[38, 127]),\n",
      "   midi.NoteOnEvent(tick=120, channel=9, data=[38, 0]),\n",
      "   midi.NoteOnEvent(tick=120, channel=9, data=[38, 127]),\n",
      "   midi.NoteOnEvent(tick=120, channel=9, data=[38, 0]),\n",
      "   midi.NoteOnEvent(tick=120, channel=9, data=[38, 127]),\n",
      "   midi.NoteOnEvent(tick=120, channel=9, data=[38, 0]),\n",
      "   midi.NoteOnEvent(tick=120, channel=9, data=[38, 127]),\n",
      "   midi.NoteOnEvent(tick=120, channel=9, data=[38, 0]),\n",
      "   midi.NoteOnEvent(tick=120, channel=9, data=[38, 127]),\n",
      "   midi.NoteOnEvent(tick=120, channel=9, data=[38, 0]),\n",
      "   midi.NoteOnEvent(tick=120, channel=9, data=[38, 127]),\n",
      "   midi.NoteOnEvent(tick=120, channel=9, data=[38, 0]),\n",
      "   midi.NoteOnEvent(tick=120, channel=9, data=[38, 127]),\n",
      "   midi.NoteOnEvent(tick=120, channel=9, data=[38, 0]),\n",
      "   midi.NoteOnEvent(tick=120, channel=9, data=[38, 127]),\n",
      "   midi.NoteOnEvent(tick=120, channel=9, data=[38, 0]),\n",
      "   midi.NoteOnEvent(tick=120, channel=9, data=[38, 127]),\n",
      "   midi.NoteOnEvent(tick=120, channel=9, data=[38, 0]),\n",
      "   midi.NoteOnEvent(tick=120, channel=9, data=[38, 127]),\n",
      "   midi.NoteOnEvent(tick=120, channel=9, data=[38, 0]),\n",
      "   midi.NoteOnEvent(tick=120, channel=9, data=[38, 127]),\n",
      "   midi.NoteOnEvent(tick=120, channel=9, data=[38, 0]),\n",
      "   midi.NoteOnEvent(tick=120, channel=9, data=[38, 127]),\n",
      "   midi.NoteOnEvent(tick=120, channel=9, data=[38, 0]),\n",
      "   midi.NoteOnEvent(tick=120, channel=9, data=[38, 127]),\n",
      "   midi.NoteOnEvent(tick=120, channel=9, data=[38, 0]),\n",
      "   midi.NoteOnEvent(tick=120, channel=9, data=[38, 127]),\n",
      "   midi.NoteOnEvent(tick=120, channel=9, data=[38, 0]),\n",
      "   midi.NoteOnEvent(tick=120, channel=9, data=[38, 127]),\n",
      "   midi.NoteOnEvent(tick=120, channel=9, data=[38, 0]),\n",
      "   midi.NoteOnEvent(tick=120, channel=9, data=[38, 127]),\n",
      "   midi.NoteOnEvent(tick=120, channel=9, data=[38, 0]),\n",
      "   midi.NoteOnEvent(tick=120, channel=9, data=[38, 127]),\n",
      "   midi.NoteOnEvent(tick=120, channel=9, data=[38, 0]),\n",
      "   midi.NoteOnEvent(tick=120, channel=9, data=[38, 127]),\n",
      "   midi.NoteOnEvent(tick=120, channel=9, data=[38, 0]),\n",
      "   midi.NoteOnEvent(tick=120, channel=9, data=[38, 127]),\n",
      "   midi.NoteOnEvent(tick=120, channel=9, data=[38, 0]),\n",
      "   midi.NoteOnEvent(tick=120, channel=9, data=[38, 127]),\n",
      "   midi.NoteOnEvent(tick=120, channel=9, data=[38, 0]),\n",
      "   midi.NoteOnEvent(tick=120, channel=9, data=[38, 127]),\n",
      "   midi.NoteOnEvent(tick=120, channel=9, data=[38, 0]),\n",
      "   midi.NoteOnEvent(tick=120, channel=9, data=[38, 127]),\n",
      "   midi.NoteOnEvent(tick=120, channel=9, data=[38, 0]),\n",
      "   midi.NoteOnEvent(tick=120, channel=9, data=[38, 127]),\n",
      "   midi.NoteOnEvent(tick=120, channel=9, data=[38, 0]),\n",
      "   midi.NoteOnEvent(tick=120, channel=9, data=[38, 127]),\n",
      "   midi.NoteOnEvent(tick=120, channel=9, data=[38, 0]),\n",
      "   midi.NoteOnEvent(tick=120, channel=9, data=[38, 127]),\n",
      "   midi.NoteOnEvent(tick=120, channel=9, data=[38, 0]),\n",
      "   midi.NoteOnEvent(tick=0, channel=9, data=[38, 127]),\n",
      "   midi.NoteOnEvent(tick=120, channel=9, data=[38, 0]),\n",
      "   midi.EndOfTrackEvent(tick=0, data=[])]),\n",
      " midi.Track(\\\n",
      "  [midi.PortEvent(tick=0, data=[0]),\n",
      "   midi.TrackNameEvent(tick=0, text='Bass Drum', data=[66, 97, 115, 115, 32, 68, 114, 117, 109]),\n",
      "   midi.NoteOnEvent(tick=8940, channel=9, data=[31, 127]),\n",
      "   midi.NoteOnEvent(tick=60, channel=9, data=[31, 127]),\n",
      "   midi.NoteOnEvent(tick=30, channel=9, data=[31, 127]),\n",
      "   midi.NoteOnEvent(tick=29, channel=9, data=[31, 0]),\n",
      "   midi.NoteOnEvent(tick=60, channel=9, data=[31, 0]),\n",
      "   midi.NoteOnEvent(tick=1, channel=9, data=[31, 127]),\n",
      "   midi.NoteOnEvent(tick=29, channel=9, data=[31, 0]),\n",
      "   midi.NoteOnEvent(tick=90, channel=9, data=[31, 0]),\n",
      "   midi.NoteOnEvent(tick=121, channel=9, data=[31, 127]),\n",
      "   midi.NoteOnEvent(tick=119, channel=9, data=[31, 0]),\n",
      "   midi.NoteOnEvent(tick=121, channel=9, data=[31, 127]),\n",
      "   midi.NoteOnEvent(tick=119, channel=9, data=[31, 0]),\n",
      "   midi.NoteOnEvent(tick=121, channel=9, data=[31, 127]),\n",
      "   midi.NoteOnEvent(tick=119, channel=9, data=[31, 0]),\n",
      "   midi.NoteOnEvent(tick=121, channel=9, data=[31, 127]),\n",
      "   midi.NoteOnEvent(tick=119, channel=9, data=[31, 0]),\n",
      "   midi.NoteOnEvent(tick=121, channel=9, data=[31, 127]),\n",
      "   midi.NoteOnEvent(tick=119, channel=9, data=[31, 0]),\n",
      "   midi.NoteOnEvent(tick=121, channel=9, data=[31, 127]),\n",
      "   midi.NoteOnEvent(tick=119, channel=9, data=[31, 0]),\n",
      "   midi.NoteOnEvent(tick=121, channel=9, data=[31, 127]),\n",
      "   midi.NoteOnEvent(tick=119, channel=9, data=[31, 0]),\n",
      "   midi.NoteOnEvent(tick=121, channel=9, data=[31, 127]),\n",
      "   midi.NoteOnEvent(tick=119, channel=9, data=[31, 0]),\n",
      "   midi.NoteOnEvent(tick=121, channel=9, data=[31, 127]),\n",
      "   midi.NoteOnEvent(tick=119, channel=9, data=[31, 0]),\n",
      "   midi.NoteOnEvent(tick=121, channel=9, data=[31, 127]),\n",
      "   midi.NoteOnEvent(tick=119, channel=9, data=[31, 0]),\n",
      "   midi.NoteOnEvent(tick=121, channel=9, data=[31, 127]),\n",
      "   midi.NoteOnEvent(tick=119, channel=9, data=[31, 0]),\n",
      "   midi.NoteOnEvent(tick=121, channel=9, data=[31, 127]),\n",
      "   midi.NoteOnEvent(tick=119, channel=9, data=[31, 0]),\n",
      "   midi.NoteOnEvent(tick=121, channel=9, data=[31, 127]),\n",
      "   midi.NoteOnEvent(tick=119, channel=9, data=[31, 0]),\n",
      "   midi.NoteOnEvent(tick=121, channel=9, data=[31, 127]),\n",
      "   midi.NoteOnEvent(tick=119, channel=9, data=[31, 0]),\n",
      "   midi.NoteOnEvent(tick=121, channel=9, data=[31, 127]),\n",
      "   midi.NoteOnEvent(tick=119, channel=9, data=[31, 0]),\n",
      "   midi.NoteOnEvent(tick=121, channel=9, data=[31, 127]),\n",
      "   midi.NoteOnEvent(tick=119, channel=9, data=[31, 0]),\n",
      "   midi.NoteOnEvent(tick=121, channel=9, data=[31, 127]),\n",
      "   midi.NoteOnEvent(tick=119, channel=9, data=[31, 0]),\n",
      "   midi.NoteOnEvent(tick=121, channel=9, data=[31, 127]),\n",
      "   midi.NoteOnEvent(tick=119, channel=9, data=[31, 0]),\n",
      "   midi.NoteOnEvent(tick=121, channel=9, data=[31, 127]),\n",
      "   midi.NoteOnEvent(tick=119, channel=9, data=[31, 0]),\n",
      "   midi.NoteOnEvent(tick=121, channel=9, data=[31, 127]),\n",
      "   midi.NoteOnEvent(tick=119, channel=9, data=[31, 0]),\n",
      "   midi.NoteOnEvent(tick=121, channel=9, data=[31, 127]),\n",
      "   midi.NoteOnEvent(tick=119, channel=9, data=[31, 0]),\n",
      "   midi.NoteOnEvent(tick=121, channel=9, data=[31, 127]),\n",
      "   midi.NoteOnEvent(tick=119, channel=9, data=[31, 0]),\n",
      "   midi.NoteOnEvent(tick=121, channel=9, data=[31, 127]),\n",
      "   midi.NoteOnEvent(tick=119, channel=9, data=[31, 0]),\n",
      "   midi.NoteOnEvent(tick=121, channel=9, data=[31, 127]),\n",
      "   midi.NoteOnEvent(tick=119, channel=9, data=[31, 0]),\n",
      "   midi.NoteOnEvent(tick=121, channel=9, data=[31, 127]),\n",
      "   midi.NoteOnEvent(tick=119, channel=9, data=[31, 0]),\n",
      "   midi.NoteOnEvent(tick=121, channel=9, data=[31, 127]),\n",
      "   midi.NoteOnEvent(tick=119, channel=9, data=[31, 0]),\n",
      "   midi.NoteOnEvent(tick=121, channel=9, data=[31, 127]),\n",
      "   midi.NoteOnEvent(tick=119, channel=9, data=[31, 0]),\n",
      "   midi.NoteOnEvent(tick=121, channel=9, data=[31, 127]),\n",
      "   midi.NoteOnEvent(tick=119, channel=9, data=[31, 0]),\n",
      "   midi.NoteOnEvent(tick=121, channel=9, data=[31, 127]),\n",
      "   midi.NoteOnEvent(tick=119, channel=9, data=[31, 0]),\n",
      "   midi.NoteOnEvent(tick=121, channel=9, data=[31, 127]),\n",
      "   midi.NoteOnEvent(tick=119, channel=9, data=[31, 0]),\n",
      "   midi.NoteOnEvent(tick=121, channel=9, data=[31, 127]),\n",
      "   midi.NoteOnEvent(tick=119, channel=9, data=[31, 0]),\n",
      "   midi.NoteOnEvent(tick=121, channel=9, data=[31, 127]),\n",
      "   midi.NoteOnEvent(tick=119, channel=9, data=[31, 0]),\n",
      "   midi.NoteOnEvent(tick=121, channel=9, data=[31, 127]),\n",
      "   midi.NoteOnEvent(tick=119, channel=9, data=[31, 0]),\n",
      "   midi.NoteOnEvent(tick=121, channel=9, data=[31, 127]),\n",
      "   midi.NoteOnEvent(tick=119, channel=9, data=[31, 0]),\n",
      "   midi.NoteOnEvent(tick=121, channel=9, data=[31, 127]),\n",
      "   midi.NoteOnEvent(tick=119, channel=9, data=[31, 0]),\n",
      "   midi.NoteOnEvent(tick=121, channel=9, data=[31, 127]),\n",
      "   midi.NoteOnEvent(tick=119, channel=9, data=[31, 0]),\n",
      "   midi.NoteOnEvent(tick=121, channel=9, data=[31, 127]),\n",
      "   midi.NoteOnEvent(tick=119, channel=9, data=[31, 0]),\n",
      "   midi.NoteOnEvent(tick=121, channel=9, data=[31, 127]),\n",
      "   midi.NoteOnEvent(tick=119, channel=9, data=[31, 0]),\n",
      "   midi.NoteOnEvent(tick=121, channel=9, data=[31, 127]),\n",
      "   midi.NoteOnEvent(tick=119, channel=9, data=[31, 0]),\n",
      "   midi.NoteOnEvent(tick=121, channel=9, data=[31, 127]),\n",
      "   midi.NoteOnEvent(tick=119, channel=9, data=[31, 0]),\n",
      "   midi.NoteOnEvent(tick=121, channel=9, data=[31, 127]),\n",
      "   midi.NoteOnEvent(tick=119, channel=9, data=[31, 0]),\n",
      "   midi.NoteOnEvent(tick=121, channel=9, data=[31, 127]),\n",
      "   midi.NoteOnEvent(tick=119, channel=9, data=[31, 0]),\n",
      "   midi.NoteOnEvent(tick=121, channel=9, data=[31, 127]),\n",
      "   midi.NoteOnEvent(tick=119, channel=9, data=[31, 0]),\n",
      "   midi.NoteOnEvent(tick=121, channel=9, data=[31, 127]),\n",
      "   midi.NoteOnEvent(tick=119, channel=9, data=[31, 0]),\n",
      "   midi.NoteOnEvent(tick=121, channel=9, data=[31, 127]),\n",
      "   midi.NoteOnEvent(tick=119, channel=9, data=[31, 0]),\n",
      "   midi.NoteOnEvent(tick=121, channel=9, data=[31, 127]),\n",
      "   midi.NoteOnEvent(tick=119, channel=9, data=[31, 0]),\n",
      "   midi.NoteOnEvent(tick=121, channel=9, data=[31, 127]),\n",
      "   midi.NoteOnEvent(tick=119, channel=9, data=[31, 0]),\n",
      "   midi.NoteOnEvent(tick=121, channel=9, data=[31, 127]),\n",
      "   midi.NoteOnEvent(tick=119, channel=9, data=[31, 0]),\n",
      "   midi.NoteOnEvent(tick=121, channel=9, data=[31, 127]),\n",
      "   midi.NoteOnEvent(tick=119, channel=9, data=[31, 0]),\n",
      "   midi.NoteOnEvent(tick=121, channel=9, data=[31, 127]),\n",
      "   midi.NoteOnEvent(tick=119, channel=9, data=[31, 0]),\n",
      "   midi.NoteOnEvent(tick=121, channel=9, data=[31, 127]),\n",
      "   midi.NoteOnEvent(tick=119, channel=9, data=[31, 0]),\n",
      "   midi.NoteOnEvent(tick=121, channel=9, data=[31, 127]),\n",
      "   midi.NoteOnEvent(tick=119, channel=9, data=[31, 0]),\n",
      "   midi.NoteOnEvent(tick=121, channel=9, data=[31, 127]),\n",
      "   midi.NoteOnEvent(tick=119, channel=9, data=[31, 0]),\n",
      "   midi.NoteOnEvent(tick=121, channel=9, data=[31, 127]),\n",
      "   midi.NoteOnEvent(tick=119, channel=9, data=[31, 0]),\n",
      "   midi.NoteOnEvent(tick=121, channel=9, data=[31, 127]),\n",
      "   midi.NoteOnEvent(tick=119, channel=9, data=[31, 0]),\n",
      "   midi.NoteOnEvent(tick=121, channel=9, data=[31, 127]),\n",
      "   midi.NoteOnEvent(tick=119, channel=9, data=[31, 0]),\n",
      "   midi.NoteOnEvent(tick=121, channel=9, data=[31, 127]),\n",
      "   midi.NoteOnEvent(tick=119, channel=9, data=[31, 0]),\n",
      "   midi.NoteOnEvent(tick=121, channel=9, data=[31, 127]),\n",
      "   midi.NoteOnEvent(tick=119, channel=9, data=[31, 0]),\n",
      "   midi.NoteOnEvent(tick=121, channel=9, data=[31, 127]),\n",
      "   midi.NoteOnEvent(tick=119, channel=9, data=[31, 0]),\n",
      "   midi.NoteOnEvent(tick=121, channel=9, data=[31, 127]),\n",
      "   midi.NoteOnEvent(tick=119, channel=9, data=[31, 0]),\n",
      "   midi.NoteOnEvent(tick=121, channel=9, data=[31, 127]),\n",
      "   midi.NoteOnEvent(tick=119, channel=9, data=[31, 0]),\n",
      "   midi.NoteOnEvent(tick=121, channel=9, data=[31, 127]),\n",
      "   midi.NoteOnEvent(tick=119, channel=9, data=[31, 0]),\n",
      "   midi.NoteOnEvent(tick=121, channel=9, data=[31, 127]),\n",
      "   midi.NoteOnEvent(tick=119, channel=9, data=[31, 0]),\n",
      "   midi.NoteOnEvent(tick=121, channel=9, data=[31, 127]),\n",
      "   midi.NoteOnEvent(tick=119, channel=9, data=[31, 0]),\n",
      "   midi.NoteOnEvent(tick=121, channel=9, data=[31, 127]),\n",
      "   midi.NoteOnEvent(tick=119, channel=9, data=[31, 0]),\n",
      "   midi.NoteOnEvent(tick=121, channel=9, data=[31, 127]),\n",
      "   midi.NoteOnEvent(tick=119, channel=9, data=[31, 0]),\n",
      "   midi.NoteOnEvent(tick=121, channel=9, data=[31, 127]),\n",
      "   midi.NoteOnEvent(tick=119, channel=9, data=[31, 0]),\n",
      "   midi.NoteOnEvent(tick=121, channel=9, data=[31, 127]),\n",
      "   midi.NoteOnEvent(tick=119, channel=9, data=[31, 0]),\n",
      "   midi.NoteOnEvent(tick=121, channel=9, data=[31, 127]),\n",
      "   midi.NoteOnEvent(tick=119, channel=9, data=[31, 0]),\n",
      "   midi.NoteOnEvent(tick=121, channel=9, data=[31, 127]),\n",
      "   midi.NoteOnEvent(tick=119, channel=9, data=[31, 0]),\n",
      "   midi.NoteOnEvent(tick=121, channel=9, data=[31, 127]),\n",
      "   midi.NoteOnEvent(tick=119, channel=9, data=[31, 0]),\n",
      "   midi.NoteOnEvent(tick=121, channel=9, data=[31, 127]),\n",
      "   midi.NoteOnEvent(tick=119, channel=9, data=[31, 0]),\n",
      "   midi.NoteOnEvent(tick=121, channel=9, data=[31, 127]),\n",
      "   midi.NoteOnEvent(tick=119, channel=9, data=[31, 0]),\n",
      "   midi.NoteOnEvent(tick=121, channel=9, data=[31, 127]),\n",
      "   midi.NoteOnEvent(tick=119, channel=9, data=[31, 0]),\n",
      "   midi.NoteOnEvent(tick=121, channel=9, data=[31, 127]),\n",
      "   midi.NoteOnEvent(tick=119, channel=9, data=[31, 0]),\n",
      "   midi.NoteOnEvent(tick=121, channel=9, data=[31, 127]),\n",
      "   midi.NoteOnEvent(tick=119, channel=9, data=[31, 0]),\n",
      "   midi.NoteOnEvent(tick=121, channel=9, data=[31, 127]),\n",
      "   midi.NoteOnEvent(tick=119, channel=9, data=[31, 0]),\n",
      "   midi.NoteOnEvent(tick=121, channel=9, data=[31, 127]),\n",
      "   midi.NoteOnEvent(tick=119, channel=9, data=[31, 0]),\n",
      "   midi.NoteOnEvent(tick=121, channel=9, data=[31, 127]),\n",
      "   midi.NoteOnEvent(tick=119, channel=9, data=[31, 0]),\n",
      "   midi.NoteOnEvent(tick=121, channel=9, data=[31, 127]),\n",
      "   midi.NoteOnEvent(tick=119, channel=9, data=[31, 0]),\n",
      "   midi.NoteOnEvent(tick=121, channel=9, data=[31, 127]),\n",
      "   midi.NoteOnEvent(tick=119, channel=9, data=[31, 0]),\n",
      "   midi.NoteOnEvent(tick=121, channel=9, data=[31, 127]),\n",
      "   midi.NoteOnEvent(tick=119, channel=9, data=[31, 0]),\n",
      "   midi.NoteOnEvent(tick=121, channel=9, data=[31, 127]),\n",
      "   midi.NoteOnEvent(tick=119, channel=9, data=[31, 0]),\n",
      "   midi.NoteOnEvent(tick=121, channel=9, data=[31, 127]),\n",
      "   midi.NoteOnEvent(tick=119, channel=9, data=[31, 0]),\n",
      "   midi.NoteOnEvent(tick=121, channel=9, data=[31, 127]),\n",
      "   midi.NoteOnEvent(tick=119, channel=9, data=[31, 0]),\n",
      "   midi.NoteOnEvent(tick=601, channel=9, data=[31, 127]),\n",
      "   midi.NoteOnEvent(tick=119, channel=9, data=[31, 0]),\n",
      "   midi.NoteOnEvent(tick=121, channel=9, data=[31, 127]),\n",
      "   midi.NoteOnEvent(tick=119, channel=9, data=[31, 0]),\n",
      "   midi.NoteOnEvent(tick=121, channel=9, data=[31, 127]),\n",
      "   midi.NoteOnEvent(tick=119, channel=9, data=[31, 0]),\n",
      "   midi.NoteOnEvent(tick=121, channel=9, data=[31, 127]),\n",
      "   midi.NoteOnEvent(tick=119, channel=9, data=[31, 0]),\n",
      "   midi.NoteOnEvent(tick=121, channel=9, data=[31, 127]),\n",
      "   midi.NoteOnEvent(tick=119, channel=9, data=[31, 0]),\n",
      "   midi.NoteOnEvent(tick=121, channel=9, data=[31, 127]),\n",
      "   midi.NoteOnEvent(tick=119, channel=9, data=[31, 0]),\n",
      "   midi.NoteOnEvent(tick=121, channel=9, data=[31, 127]),\n",
      "   midi.NoteOnEvent(tick=119, channel=9, data=[31, 0]),\n",
      "   midi.NoteOnEvent(tick=121, channel=9, data=[31, 127]),\n",
      "   midi.NoteOnEvent(tick=119, channel=9, data=[31, 0]),\n",
      "   midi.NoteOnEvent(tick=121, channel=9, data=[31, 127]),\n",
      "   midi.NoteOnEvent(tick=119, channel=9, data=[31, 0]),\n",
      "   midi.NoteOnEvent(tick=121, channel=9, data=[31, 127]),\n",
      "   midi.NoteOnEvent(tick=119, channel=9, data=[31, 0]),\n",
      "   midi.NoteOnEvent(tick=121, channel=9, data=[31, 127]),\n",
      "   midi.NoteOnEvent(tick=119, channel=9, data=[31, 0]),\n",
      "   midi.NoteOnEvent(tick=121, channel=9, data=[31, 127]),\n",
      "   midi.NoteOnEvent(tick=119, channel=9, data=[31, 0]),\n",
      "   midi.NoteOnEvent(tick=121, channel=9, data=[31, 127]),\n",
      "   midi.NoteOnEvent(tick=119, channel=9, data=[31, 0]),\n",
      "   midi.NoteOnEvent(tick=121, channel=9, data=[31, 127]),\n",
      "   midi.NoteOnEvent(tick=119, channel=9, data=[31, 0]),\n",
      "   midi.NoteOnEvent(tick=121, channel=9, data=[31, 127]),\n",
      "   midi.NoteOnEvent(tick=119, channel=9, data=[31, 0]),\n",
      "   midi.NoteOnEvent(tick=121, channel=9, data=[31, 127]),\n",
      "   midi.NoteOnEvent(tick=119, channel=9, data=[31, 0]),\n",
      "   midi.NoteOnEvent(tick=121, channel=9, data=[31, 127]),\n",
      "   midi.NoteOnEvent(tick=119, channel=9, data=[31, 0]),\n",
      "   midi.NoteOnEvent(tick=121, channel=9, data=[31, 127]),\n",
      "   midi.NoteOnEvent(tick=119, channel=9, data=[31, 0]),\n",
      "   midi.NoteOnEvent(tick=121, channel=9, data=[31, 127]),\n",
      "   midi.NoteOnEvent(tick=119, channel=9, data=[31, 0]),\n",
      "   midi.NoteOnEvent(tick=121, channel=9, data=[31, 127]),\n",
      "   midi.NoteOnEvent(tick=119, channel=9, data=[31, 0]),\n",
      "   midi.NoteOnEvent(tick=121, channel=9, data=[31, 127]),\n",
      "   midi.NoteOnEvent(tick=119, channel=9, data=[31, 0]),\n",
      "   midi.NoteOnEvent(tick=121, channel=9, data=[31, 127]),\n",
      "   midi.NoteOnEvent(tick=119, channel=9, data=[31, 0]),\n",
      "   midi.NoteOnEvent(tick=121, channel=9, data=[31, 127]),\n",
      "   midi.NoteOnEvent(tick=119, channel=9, data=[31, 0]),\n",
      "   midi.NoteOnEvent(tick=121, channel=9, data=[31, 127]),\n",
      "   midi.NoteOnEvent(tick=119, channel=9, data=[31, 0]),\n",
      "   midi.NoteOnEvent(tick=121, channel=9, data=[31, 127]),\n",
      "   midi.NoteOnEvent(tick=119, channel=9, data=[31, 0]),\n",
      "   midi.NoteOnEvent(tick=121, channel=9, data=[31, 127]),\n",
      "   midi.NoteOnEvent(tick=119, channel=9, data=[31, 0]),\n",
      "   midi.NoteOnEvent(tick=121, channel=9, data=[31, 127]),\n",
      "   midi.NoteOnEvent(tick=119, channel=9, data=[31, 0]),\n",
      "   midi.NoteOnEvent(tick=121, channel=9, data=[31, 127]),\n",
      "   midi.NoteOnEvent(tick=119, channel=9, data=[31, 0]),\n",
      "   midi.NoteOnEvent(tick=121, channel=9, data=[31, 127]),\n",
      "   midi.NoteOnEvent(tick=119, channel=9, data=[31, 0]),\n",
      "   midi.NoteOnEvent(tick=121, channel=9, data=[31, 127]),\n",
      "   midi.NoteOnEvent(tick=119, channel=9, data=[31, 0]),\n",
      "   midi.NoteOnEvent(tick=121, channel=9, data=[31, 127]),\n",
      "   midi.NoteOnEvent(tick=119, channel=9, data=[31, 0]),\n",
      "   midi.NoteOnEvent(tick=121, channel=9, data=[31, 127]),\n",
      "   midi.NoteOnEvent(tick=119, channel=9, data=[31, 0]),\n",
      "   midi.NoteOnEvent(tick=121, channel=9, data=[31, 127]),\n",
      "   midi.NoteOnEvent(tick=119, channel=9, data=[31, 0]),\n",
      "   midi.NoteOnEvent(tick=121, channel=9, data=[31, 127]),\n",
      "   midi.NoteOnEvent(tick=119, channel=9, data=[31, 0]),\n",
      "   midi.NoteOnEvent(tick=121, channel=9, data=[31, 127]),\n",
      "   midi.NoteOnEvent(tick=119, channel=9, data=[31, 0]),\n",
      "   midi.NoteOnEvent(tick=121, channel=9, data=[31, 127]),\n",
      "   midi.NoteOnEvent(tick=119, channel=9, data=[31, 0]),\n",
      "   midi.NoteOnEvent(tick=121, channel=9, data=[31, 127]),\n",
      "   midi.NoteOnEvent(tick=119, channel=9, data=[31, 0]),\n",
      "   midi.NoteOnEvent(tick=121, channel=9, data=[31, 127]),\n",
      "   midi.NoteOnEvent(tick=119, channel=9, data=[31, 0]),\n",
      "   midi.NoteOnEvent(tick=121, channel=9, data=[31, 127]),\n",
      "   midi.NoteOnEvent(tick=119, channel=9, data=[31, 0]),\n",
      "   midi.NoteOnEvent(tick=121, channel=9, data=[31, 127]),\n",
      "   midi.NoteOnEvent(tick=119, channel=9, data=[31, 0]),\n",
      "   midi.NoteOnEvent(tick=121, channel=9, data=[31, 127]),\n",
      "   midi.NoteOnEvent(tick=119, channel=9, data=[31, 0]),\n",
      "   midi.NoteOnEvent(tick=121, channel=9, data=[31, 127]),\n",
      "   midi.NoteOnEvent(tick=119, channel=9, data=[31, 0]),\n",
      "   midi.NoteOnEvent(tick=121, channel=9, data=[31, 127]),\n",
      "   midi.NoteOnEvent(tick=119, channel=9, data=[31, 0]),\n",
      "   midi.NoteOnEvent(tick=121, channel=9, data=[31, 127]),\n",
      "   midi.NoteOnEvent(tick=119, channel=9, data=[31, 0]),\n",
      "   midi.NoteOnEvent(tick=121, channel=9, data=[31, 127]),\n",
      "   midi.NoteOnEvent(tick=119, channel=9, data=[31, 0]),\n",
      "   midi.NoteOnEvent(tick=121, channel=9, data=[31, 127]),\n",
      "   midi.NoteOnEvent(tick=119, channel=9, data=[31, 0]),\n",
      "   midi.NoteOnEvent(tick=121, channel=9, data=[31, 127]),\n",
      "   midi.NoteOnEvent(tick=119, channel=9, data=[31, 0]),\n",
      "   midi.NoteOnEvent(tick=121, channel=9, data=[31, 127]),\n",
      "   midi.NoteOnEvent(tick=119, channel=9, data=[31, 0]),\n",
      "   midi.NoteOnEvent(tick=121, channel=9, data=[31, 127]),\n",
      "   midi.NoteOnEvent(tick=119, channel=9, data=[31, 0]),\n",
      "   midi.NoteOnEvent(tick=121, channel=9, data=[31, 127]),\n",
      "   midi.NoteOnEvent(tick=119, channel=9, data=[31, 0]),\n",
      "   midi.NoteOnEvent(tick=121, channel=9, data=[31, 127]),\n",
      "   midi.NoteOnEvent(tick=119, channel=9, data=[31, 0]),\n",
      "   midi.NoteOnEvent(tick=121, channel=9, data=[31, 127]),\n",
      "   midi.NoteOnEvent(tick=119, channel=9, data=[31, 0]),\n",
      "   midi.NoteOnEvent(tick=121, channel=9, data=[31, 127]),\n",
      "   midi.NoteOnEvent(tick=119, channel=9, data=[31, 0]),\n",
      "   midi.NoteOnEvent(tick=121, channel=9, data=[31, 127]),\n",
      "   midi.NoteOnEvent(tick=119, channel=9, data=[31, 0]),\n",
      "   midi.NoteOnEvent(tick=121, channel=9, data=[31, 127]),\n",
      "   midi.NoteOnEvent(tick=119, channel=9, data=[31, 0]),\n",
      "   midi.NoteOnEvent(tick=121, channel=9, data=[31, 127]),\n",
      "   midi.NoteOnEvent(tick=119, channel=9, data=[31, 0]),\n",
      "   midi.NoteOnEvent(tick=121, channel=9, data=[31, 127]),\n",
      "   midi.NoteOnEvent(tick=119, channel=9, data=[31, 0]),\n",
      "   midi.NoteOnEvent(tick=121, channel=9, data=[31, 127]),\n",
      "   midi.NoteOnEvent(tick=119, channel=9, data=[31, 0]),\n",
      "   midi.NoteOnEvent(tick=121, channel=9, data=[31, 127]),\n",
      "   midi.NoteOnEvent(tick=119, channel=9, data=[31, 0]),\n",
      "   midi.NoteOnEvent(tick=121, channel=9, data=[31, 127]),\n",
      "   midi.NoteOnEvent(tick=119, channel=9, data=[31, 0]),\n",
      "   midi.NoteOnEvent(tick=121, channel=9, data=[31, 127]),\n",
      "   midi.NoteOnEvent(tick=119, channel=9, data=[31, 0]),\n",
      "   midi.NoteOnEvent(tick=121, channel=9, data=[31, 127]),\n",
      "   midi.NoteOnEvent(tick=119, channel=9, data=[31, 0]),\n",
      "   midi.NoteOnEvent(tick=121, channel=9, data=[31, 127]),\n",
      "   midi.NoteOnEvent(tick=119, channel=9, data=[31, 0]),\n",
      "   midi.NoteOnEvent(tick=361, channel=9, data=[31, 127]),\n",
      "   midi.NoteOnEvent(tick=120, channel=9, data=[31, 0]),\n",
      "   midi.NoteOnEvent(tick=0, channel=9, data=[31, 127]),\n",
      "   midi.NoteOnEvent(tick=120, channel=9, data=[31, 0]),\n",
      "   midi.NoteOnEvent(tick=120, channel=9, data=[31, 127]),\n",
      "   midi.NoteOnEvent(tick=115, channel=9, data=[31, 0]),\n",
      "   midi.NoteOnEvent(tick=125, channel=9, data=[31, 127]),\n",
      "   midi.NoteOnEvent(tick=132, channel=9, data=[31, 0]),\n",
      "   midi.NoteOnEvent(tick=108, channel=9, data=[31, 127]),\n",
      "   midi.NoteOnEvent(tick=140, channel=9, data=[31, 0]),\n",
      "   midi.NoteOnEvent(tick=100, channel=9, data=[31, 127]),\n",
      "   midi.NoteOnEvent(tick=134, channel=9, data=[31, 0]),\n",
      "   midi.NoteOnEvent(tick=106, channel=9, data=[31, 127]),\n",
      "   midi.NoteOnEvent(tick=129, channel=9, data=[31, 0]),\n",
      "   midi.NoteOnEvent(tick=111, channel=9, data=[31, 127]),\n",
      "   midi.NoteOnEvent(tick=140, channel=9, data=[31, 0]),\n",
      "   midi.NoteOnEvent(tick=100, channel=9, data=[31, 127]),\n",
      "   midi.NoteOnEvent(tick=120, channel=9, data=[31, 127]),\n",
      "   midi.NoteOnEvent(tick=10, channel=9, data=[31, 0]),\n",
      "   midi.NoteOnEvent(tick=109, channel=9, data=[31, 0]),\n",
      "   midi.NoteOnEvent(tick=121, channel=9, data=[31, 127]),\n",
      "   midi.NoteOnEvent(tick=119, channel=9, data=[31, 0]),\n",
      "   midi.NoteOnEvent(tick=121, channel=9, data=[31, 127]),\n",
      "   midi.NoteOnEvent(tick=119, channel=9, data=[31, 0]),\n",
      "   midi.NoteOnEvent(tick=121, channel=9, data=[31, 127]),\n",
      "   midi.NoteOnEvent(tick=119, channel=9, data=[31, 0]),\n",
      "   midi.NoteOnEvent(tick=121, channel=9, data=[31, 127]),\n",
      "   midi.NoteOnEvent(tick=119, channel=9, data=[31, 0]),\n",
      "   midi.NoteOnEvent(tick=121, channel=9, data=[31, 127]),\n",
      "   midi.NoteOnEvent(tick=119, channel=9, data=[31, 0]),\n",
      "   midi.NoteOnEvent(tick=121, channel=9, data=[31, 127]),\n",
      "   midi.NoteOnEvent(tick=119, channel=9, data=[31, 0]),\n",
      "   midi.NoteOnEvent(tick=121, channel=9, data=[31, 127]),\n",
      "   midi.NoteOnEvent(tick=119, channel=9, data=[31, 0]),\n",
      "   midi.NoteOnEvent(tick=121, channel=9, data=[31, 127]),\n",
      "   midi.NoteOnEvent(tick=119, channel=9, data=[31, 0]),\n",
      "   midi.NoteOnEvent(tick=121, channel=9, data=[31, 127]),\n",
      "   midi.NoteOnEvent(tick=119, channel=9, data=[31, 0]),\n",
      "   midi.NoteOnEvent(tick=121, channel=9, data=[31, 127]),\n",
      "   midi.NoteOnEvent(tick=119, channel=9, data=[31, 0]),\n",
      "   midi.NoteOnEvent(tick=121, channel=9, data=[31, 127]),\n",
      "   midi.NoteOnEvent(tick=119, channel=9, data=[31, 0]),\n",
      "   midi.NoteOnEvent(tick=121, channel=9, data=[31, 127]),\n",
      "   midi.NoteOnEvent(tick=119, channel=9, data=[31, 0]),\n",
      "   midi.NoteOnEvent(tick=121, channel=9, data=[31, 127]),\n",
      "   midi.NoteOnEvent(tick=119, channel=9, data=[31, 0]),\n",
      "   midi.NoteOnEvent(tick=121, channel=9, data=[31, 127]),\n",
      "   midi.NoteOnEvent(tick=119, channel=9, data=[31, 0]),\n",
      "   midi.NoteOnEvent(tick=121, channel=9, data=[31, 127]),\n",
      "   midi.NoteOnEvent(tick=119, channel=9, data=[31, 0]),\n",
      "   midi.NoteOnEvent(tick=121, channel=9, data=[31, 127]),\n",
      "   midi.NoteOnEvent(tick=119, channel=9, data=[31, 0]),\n",
      "   midi.NoteOnEvent(tick=121, channel=9, data=[31, 127]),\n",
      "   midi.NoteOnEvent(tick=119, channel=9, data=[31, 0]),\n",
      "   midi.NoteOnEvent(tick=121, channel=9, data=[31, 127]),\n",
      "   midi.NoteOnEvent(tick=119, channel=9, data=[31, 0]),\n",
      "   midi.NoteOnEvent(tick=121, channel=9, data=[31, 127]),\n",
      "   midi.NoteOnEvent(tick=119, channel=9, data=[31, 0]),\n",
      "   midi.NoteOnEvent(tick=121, channel=9, data=[31, 127]),\n",
      "   midi.NoteOnEvent(tick=119, channel=9, data=[31, 0]),\n",
      "   midi.NoteOnEvent(tick=121, channel=9, data=[31, 127]),\n",
      "   midi.NoteOnEvent(tick=119, channel=9, data=[31, 0]),\n",
      "   midi.NoteOnEvent(tick=121, channel=9, data=[31, 127]),\n",
      "   midi.NoteOnEvent(tick=119, channel=9, data=[31, 0]),\n",
      "   midi.NoteOnEvent(tick=121, channel=9, data=[31, 127]),\n",
      "   midi.NoteOnEvent(tick=119, channel=9, data=[31, 0]),\n",
      "   midi.NoteOnEvent(tick=121, channel=9, data=[31, 127]),\n",
      "   midi.NoteOnEvent(tick=119, channel=9, data=[31, 0]),\n",
      "   midi.NoteOnEvent(tick=121, channel=9, data=[31, 127]),\n",
      "   midi.NoteOnEvent(tick=119, channel=9, data=[31, 0]),\n",
      "   midi.NoteOnEvent(tick=121, channel=9, data=[31, 127]),\n",
      "   midi.NoteOnEvent(tick=119, channel=9, data=[31, 0]),\n",
      "   midi.NoteOnEvent(tick=121, channel=9, data=[31, 127]),\n",
      "   midi.NoteOnEvent(tick=119, channel=9, data=[31, 0]),\n",
      "   midi.NoteOnEvent(tick=121, channel=9, data=[31, 127]),\n",
      "   midi.NoteOnEvent(tick=119, channel=9, data=[31, 0]),\n",
      "   midi.NoteOnEvent(tick=121, channel=9, data=[31, 127]),\n",
      "   midi.NoteOnEvent(tick=119, channel=9, data=[31, 0]),\n",
      "   midi.NoteOnEvent(tick=121, channel=9, data=[31, 127]),\n",
      "   midi.NoteOnEvent(tick=119, channel=9, data=[31, 0]),\n",
      "   midi.NoteOnEvent(tick=361, channel=9, data=[31, 127]),\n",
      "   midi.NoteOnEvent(tick=119, channel=9, data=[31, 0]),\n",
      "   midi.NoteOnEvent(tick=121, channel=9, data=[31, 127]),\n",
      "   midi.NoteOnEvent(tick=119, channel=9, data=[31, 0]),\n",
      "   midi.NoteOnEvent(tick=121, channel=9, data=[31, 127]),\n",
      "   midi.NoteOnEvent(tick=119, channel=9, data=[31, 0]),\n",
      "   midi.NoteOnEvent(tick=121, channel=9, data=[31, 127]),\n",
      "   midi.NoteOnEvent(tick=119, channel=9, data=[31, 0]),\n",
      "   midi.NoteOnEvent(tick=121, channel=9, data=[31, 127]),\n",
      "   midi.NoteOnEvent(tick=119, channel=9, data=[31, 0]),\n",
      "   midi.NoteOnEvent(tick=121, channel=9, data=[31, 127]),\n",
      "   midi.NoteOnEvent(tick=119, channel=9, data=[31, 0]),\n",
      "   midi.NoteOnEvent(tick=121, channel=9, data=[31, 127]),\n",
      "   midi.NoteOnEvent(tick=119, channel=9, data=[31, 0]),\n",
      "   midi.NoteOnEvent(tick=121, channel=9, data=[31, 127]),\n",
      "   midi.NoteOnEvent(tick=119, channel=9, data=[31, 0]),\n",
      "   midi.NoteOnEvent(tick=121, channel=9, data=[31, 127]),\n",
      "   midi.NoteOnEvent(tick=119, channel=9, data=[31, 0]),\n",
      "   midi.NoteOnEvent(tick=121, channel=9, data=[31, 127]),\n",
      "   midi.NoteOnEvent(tick=119, channel=9, data=[31, 0]),\n",
      "   midi.NoteOnEvent(tick=121, channel=9, data=[31, 127]),\n",
      "   midi.NoteOnEvent(tick=119, channel=9, data=[31, 0]),\n",
      "   midi.NoteOnEvent(tick=121, channel=9, data=[31, 127]),\n",
      "   midi.NoteOnEvent(tick=119, channel=9, data=[31, 0]),\n",
      "   midi.NoteOnEvent(tick=121, channel=9, data=[31, 127]),\n",
      "   midi.NoteOnEvent(tick=119, channel=9, data=[31, 0]),\n",
      "   midi.NoteOnEvent(tick=121, channel=9, data=[31, 127]),\n",
      "   midi.NoteOnEvent(tick=119, channel=9, data=[31, 0]),\n",
      "   midi.NoteOnEvent(tick=121, channel=9, data=[31, 127]),\n",
      "   midi.NoteOnEvent(tick=119, channel=9, data=[31, 0]),\n",
      "   midi.NoteOnEvent(tick=121, channel=9, data=[31, 127]),\n",
      "   midi.NoteOnEvent(tick=119, channel=9, data=[31, 0]),\n",
      "   midi.NoteOnEvent(tick=121, channel=9, data=[31, 127]),\n",
      "   midi.NoteOnEvent(tick=119, channel=9, data=[31, 0]),\n",
      "   midi.NoteOnEvent(tick=121, channel=9, data=[31, 127]),\n",
      "   midi.NoteOnEvent(tick=119, channel=9, data=[31, 0]),\n",
      "   midi.NoteOnEvent(tick=121, channel=9, data=[31, 127]),\n",
      "   midi.NoteOnEvent(tick=119, channel=9, data=[31, 0]),\n",
      "   midi.NoteOnEvent(tick=121, channel=9, data=[31, 127]),\n",
      "   midi.NoteOnEvent(tick=119, channel=9, data=[31, 0]),\n",
      "   midi.NoteOnEvent(tick=121, channel=9, data=[31, 127]),\n",
      "   midi.NoteOnEvent(tick=119, channel=9, data=[31, 0]),\n",
      "   midi.NoteOnEvent(tick=121, channel=9, data=[31, 127]),\n",
      "   midi.NoteOnEvent(tick=119, channel=9, data=[31, 0]),\n",
      "   midi.NoteOnEvent(tick=121, channel=9, data=[31, 127]),\n",
      "   midi.NoteOnEvent(tick=119, channel=9, data=[31, 0]),\n",
      "   midi.NoteOnEvent(tick=121, channel=9, data=[31, 127]),\n",
      "   midi.NoteOnEvent(tick=119, channel=9, data=[31, 0]),\n",
      "   midi.NoteOnEvent(tick=121, channel=9, data=[31, 127]),\n",
      "   midi.NoteOnEvent(tick=119, channel=9, data=[31, 0]),\n",
      "   midi.NoteOnEvent(tick=121, channel=9, data=[31, 127]),\n",
      "   midi.NoteOnEvent(tick=119, channel=9, data=[31, 0]),\n",
      "   midi.NoteOnEvent(tick=121, channel=9, data=[31, 127]),\n",
      "   midi.NoteOnEvent(tick=119, channel=9, data=[31, 0]),\n",
      "   midi.NoteOnEvent(tick=121, channel=9, data=[31, 127]),\n",
      "   midi.NoteOnEvent(tick=119, channel=9, data=[31, 0]),\n",
      "   midi.NoteOnEvent(tick=121, channel=9, data=[31, 127]),\n",
      "   midi.NoteOnEvent(tick=119, channel=9, data=[31, 0]),\n",
      "   midi.NoteOnEvent(tick=121, channel=9, data=[31, 127]),\n",
      "   midi.NoteOnEvent(tick=119, channel=9, data=[31, 0]),\n",
      "   midi.NoteOnEvent(tick=121, channel=9, data=[31, 127]),\n",
      "   midi.NoteOnEvent(tick=119, channel=9, data=[31, 0]),\n",
      "   midi.NoteOnEvent(tick=121, channel=9, data=[31, 127]),\n",
      "   midi.NoteOnEvent(tick=119, channel=9, data=[31, 0]),\n",
      "   midi.NoteOnEvent(tick=121, channel=9, data=[31, 127]),\n",
      "   midi.NoteOnEvent(tick=119, channel=9, data=[31, 0]),\n",
      "   midi.NoteOnEvent(tick=121, channel=9, data=[31, 127]),\n",
      "   midi.NoteOnEvent(tick=119, channel=9, data=[31, 0]),\n",
      "   midi.NoteOnEvent(tick=121, channel=9, data=[31, 127]),\n",
      "   midi.NoteOnEvent(tick=119, channel=9, data=[31, 0]),\n",
      "   midi.NoteOnEvent(tick=121, channel=9, data=[31, 127]),\n",
      "   midi.NoteOnEvent(tick=119, channel=9, data=[31, 0]),\n",
      "   midi.NoteOnEvent(tick=121, channel=9, data=[31, 127]),\n",
      "   midi.NoteOnEvent(tick=119, channel=9, data=[31, 0]),\n",
      "   midi.NoteOnEvent(tick=121, channel=9, data=[31, 127]),\n",
      "   midi.NoteOnEvent(tick=119, channel=9, data=[31, 0]),\n",
      "   midi.NoteOnEvent(tick=121, channel=9, data=[31, 127]),\n",
      "   midi.NoteOnEvent(tick=119, channel=9, data=[31, 0]),\n",
      "   midi.NoteOnEvent(tick=121, channel=9, data=[31, 127]),\n",
      "   midi.NoteOnEvent(tick=119, channel=9, data=[31, 0]),\n",
      "   midi.NoteOnEvent(tick=121, channel=9, data=[31, 127]),\n",
      "   midi.NoteOnEvent(tick=119, channel=9, data=[31, 0]),\n",
      "   midi.NoteOnEvent(tick=121, channel=9, data=[31, 127]),\n",
      "   midi.NoteOnEvent(tick=119, channel=9, data=[31, 0]),\n",
      "   midi.NoteOnEvent(tick=121, channel=9, data=[31, 127]),\n",
      "   midi.NoteOnEvent(tick=119, channel=9, data=[31, 0]),\n",
      "   midi.NoteOnEvent(tick=121, channel=9, data=[31, 127]),\n",
      "   midi.NoteOnEvent(tick=119, channel=9, data=[31, 0]),\n",
      "   midi.NoteOnEvent(tick=121, channel=9, data=[31, 127]),\n",
      "   midi.NoteOnEvent(tick=119, channel=9, data=[31, 0]),\n",
      "   midi.NoteOnEvent(tick=121, channel=9, data=[31, 127]),\n",
      "   midi.NoteOnEvent(tick=119, channel=9, data=[31, 0]),\n",
      "   midi.NoteOnEvent(tick=121, channel=9, data=[31, 127]),\n",
      "   midi.NoteOnEvent(tick=119, channel=9, data=[31, 0]),\n",
      "   midi.NoteOnEvent(tick=121, channel=9, data=[31, 127]),\n",
      "   midi.NoteOnEvent(tick=119, channel=9, data=[31, 0]),\n",
      "   midi.NoteOnEvent(tick=121, channel=9, data=[31, 127]),\n",
      "   midi.NoteOnEvent(tick=119, channel=9, data=[31, 0]),\n",
      "   midi.NoteOnEvent(tick=121, channel=9, data=[31, 127]),\n",
      "   midi.NoteOnEvent(tick=119, channel=9, data=[31, 0]),\n",
      "   midi.NoteOnEvent(tick=121, channel=9, data=[31, 127]),\n",
      "   midi.NoteOnEvent(tick=119, channel=9, data=[31, 0]),\n",
      "   midi.NoteOnEvent(tick=121, channel=9, data=[31, 127]),\n",
      "   midi.NoteOnEvent(tick=119, channel=9, data=[31, 0]),\n",
      "   midi.NoteOnEvent(tick=121, channel=9, data=[31, 127]),\n",
      "   midi.NoteOnEvent(tick=119, channel=9, data=[31, 0]),\n",
      "   midi.NoteOnEvent(tick=121, channel=9, data=[31, 127]),\n",
      "   midi.NoteOnEvent(tick=119, channel=9, data=[31, 0]),\n",
      "   midi.NoteOnEvent(tick=121, channel=9, data=[31, 127]),\n",
      "   midi.NoteOnEvent(tick=119, channel=9, data=[31, 0]),\n",
      "   midi.NoteOnEvent(tick=121, channel=9, data=[31, 127]),\n",
      "   midi.NoteOnEvent(tick=119, channel=9, data=[31, 0]),\n",
      "   midi.NoteOnEvent(tick=121, channel=9, data=[31, 127]),\n",
      "   midi.NoteOnEvent(tick=119, channel=9, data=[31, 0]),\n",
      "   midi.NoteOnEvent(tick=121, channel=9, data=[31, 127]),\n",
      "   midi.NoteOnEvent(tick=119, channel=9, data=[31, 0]),\n",
      "   midi.NoteOnEvent(tick=121, channel=9, data=[31, 127]),\n",
      "   midi.NoteOnEvent(tick=119, channel=9, data=[31, 0]),\n",
      "   midi.NoteOnEvent(tick=121, channel=9, data=[31, 127]),\n",
      "   midi.NoteOnEvent(tick=119, channel=9, data=[31, 0]),\n",
      "   midi.NoteOnEvent(tick=121, channel=9, data=[31, 127]),\n",
      "   midi.NoteOnEvent(tick=119, channel=9, data=[31, 0]),\n",
      "   midi.NoteOnEvent(tick=121, channel=9, data=[31, 127]),\n",
      "   midi.NoteOnEvent(tick=119, channel=9, data=[31, 0]),\n",
      "   midi.NoteOnEvent(tick=121, channel=9, data=[31, 127]),\n",
      "   midi.NoteOnEvent(tick=119, channel=9, data=[31, 0]),\n",
      "   midi.NoteOnEvent(tick=361, channel=9, data=[31, 127]),\n",
      "   midi.NoteOnEvent(tick=119, channel=9, data=[31, 0]),\n",
      "   midi.NoteOnEvent(tick=121, channel=9, data=[31, 127]),\n",
      "   midi.NoteOnEvent(tick=119, channel=9, data=[31, 0]),\n",
      "   midi.NoteOnEvent(tick=121, channel=9, data=[31, 127]),\n",
      "   midi.NoteOnEvent(tick=119, channel=9, data=[31, 0]),\n",
      "   midi.NoteOnEvent(tick=121, channel=9, data=[31, 127]),\n",
      "   midi.NoteOnEvent(tick=119, channel=9, data=[31, 0]),\n",
      "   midi.NoteOnEvent(tick=121, channel=9, data=[31, 127]),\n",
      "   midi.NoteOnEvent(tick=119, channel=9, data=[31, 0]),\n",
      "   midi.NoteOnEvent(tick=121, channel=9, data=[31, 127]),\n",
      "   midi.NoteOnEvent(tick=119, channel=9, data=[31, 0]),\n",
      "   midi.NoteOnEvent(tick=121, channel=9, data=[31, 127]),\n",
      "   midi.NoteOnEvent(tick=119, channel=9, data=[31, 0]),\n",
      "   midi.NoteOnEvent(tick=121, channel=9, data=[31, 127]),\n",
      "   midi.NoteOnEvent(tick=119, channel=9, data=[31, 0]),\n",
      "   midi.NoteOnEvent(tick=121, channel=9, data=[31, 127]),\n",
      "   midi.NoteOnEvent(tick=119, channel=9, data=[31, 0]),\n",
      "   midi.NoteOnEvent(tick=121, channel=9, data=[31, 127]),\n",
      "   midi.NoteOnEvent(tick=119, channel=9, data=[31, 0]),\n",
      "   midi.NoteOnEvent(tick=121, channel=9, data=[31, 127]),\n",
      "   midi.NoteOnEvent(tick=119, channel=9, data=[31, 0]),\n",
      "   midi.NoteOnEvent(tick=121, channel=9, data=[31, 127]),\n",
      "   midi.NoteOnEvent(tick=119, channel=9, data=[31, 0]),\n",
      "   midi.NoteOnEvent(tick=121, channel=9, data=[31, 127]),\n",
      "   midi.NoteOnEvent(tick=119, channel=9, data=[31, 0]),\n",
      "   midi.NoteOnEvent(tick=121, channel=9, data=[31, 127]),\n",
      "   midi.NoteOnEvent(tick=119, channel=9, data=[31, 0]),\n",
      "   midi.NoteOnEvent(tick=121, channel=9, data=[31, 127]),\n",
      "   midi.NoteOnEvent(tick=119, channel=9, data=[31, 0]),\n",
      "   midi.NoteOnEvent(tick=121, channel=9, data=[31, 127]),\n",
      "   midi.NoteOnEvent(tick=119, channel=9, data=[31, 0]),\n",
      "   midi.NoteOnEvent(tick=121, channel=9, data=[31, 127]),\n",
      "   midi.NoteOnEvent(tick=119, channel=9, data=[31, 0]),\n",
      "   midi.NoteOnEvent(tick=121, channel=9, data=[31, 127]),\n",
      "   midi.NoteOnEvent(tick=119, channel=9, data=[31, 0]),\n",
      "   midi.NoteOnEvent(tick=121, channel=9, data=[31, 127]),\n",
      "   midi.NoteOnEvent(tick=119, channel=9, data=[31, 0]),\n",
      "   midi.NoteOnEvent(tick=121, channel=9, data=[31, 127]),\n",
      "   midi.NoteOnEvent(tick=119, channel=9, data=[31, 0]),\n",
      "   midi.NoteOnEvent(tick=121, channel=9, data=[31, 127]),\n",
      "   midi.NoteOnEvent(tick=119, channel=9, data=[31, 0]),\n",
      "   midi.NoteOnEvent(tick=121, channel=9, data=[31, 127]),\n",
      "   midi.NoteOnEvent(tick=119, channel=9, data=[31, 0]),\n",
      "   midi.NoteOnEvent(tick=121, channel=9, data=[31, 127]),\n",
      "   midi.NoteOnEvent(tick=119, channel=9, data=[31, 0]),\n",
      "   midi.NoteOnEvent(tick=121, channel=9, data=[31, 127]),\n",
      "   midi.NoteOnEvent(tick=119, channel=9, data=[31, 0]),\n",
      "   midi.NoteOnEvent(tick=121, channel=9, data=[31, 127]),\n",
      "   midi.NoteOnEvent(tick=119, channel=9, data=[31, 0]),\n",
      "   midi.NoteOnEvent(tick=121, channel=9, data=[31, 127]),\n",
      "   midi.NoteOnEvent(tick=119, channel=9, data=[31, 0]),\n",
      "   midi.NoteOnEvent(tick=121, channel=9, data=[31, 127]),\n",
      "   midi.NoteOnEvent(tick=119, channel=9, data=[31, 0]),\n",
      "   midi.NoteOnEvent(tick=121, channel=9, data=[31, 127]),\n",
      "   midi.NoteOnEvent(tick=119, channel=9, data=[31, 0]),\n",
      "   midi.NoteOnEvent(tick=121, channel=9, data=[31, 127]),\n",
      "   midi.NoteOnEvent(tick=119, channel=9, data=[31, 0]),\n",
      "   midi.NoteOnEvent(tick=121, channel=9, data=[31, 127]),\n",
      "   midi.NoteOnEvent(tick=119, channel=9, data=[31, 0]),\n",
      "   midi.NoteOnEvent(tick=121, channel=9, data=[31, 127]),\n",
      "   midi.NoteOnEvent(tick=119, channel=9, data=[31, 0]),\n",
      "   midi.NoteOnEvent(tick=121, channel=9, data=[31, 127]),\n",
      "   midi.NoteOnEvent(tick=119, channel=9, data=[31, 0]),\n",
      "   midi.NoteOnEvent(tick=121, channel=9, data=[31, 127]),\n",
      "   midi.NoteOnEvent(tick=119, channel=9, data=[31, 0]),\n",
      "   midi.EndOfTrackEvent(tick=0, data=[])]),\n",
      " midi.Track(\\\n",
      "  [midi.PortEvent(tick=0, data=[0]),\n",
      "   midi.TrackNameEvent(tick=0, text='Toms', data=[84, 111, 109, 115]),\n",
      "   midi.NoteOnEvent(tick=45600, channel=9, data=[47, 102]),\n",
      "   midi.NoteOnEvent(tick=7, channel=9, data=[47, 0]),\n",
      "   midi.NoteOnEvent(tick=23, channel=9, data=[47, 103]),\n",
      "   midi.NoteOnEvent(tick=7, channel=9, data=[47, 0]),\n",
      "   midi.NoteOnEvent(tick=23, channel=9, data=[47, 105]),\n",
      "   midi.NoteOnEvent(tick=7, channel=9, data=[47, 0]),\n",
      "   midi.NoteOnEvent(tick=23, channel=9, data=[47, 107]),\n",
      "   midi.NoteOnEvent(tick=7, channel=9, data=[47, 0]),\n",
      "   midi.NoteOnEvent(tick=23, channel=9, data=[47, 109]),\n",
      "   midi.NoteOnEvent(tick=7, channel=9, data=[47, 0]),\n",
      "   midi.NoteOnEvent(tick=23, channel=9, data=[47, 111]),\n",
      "   midi.NoteOnEvent(tick=7, channel=9, data=[47, 0]),\n",
      "   midi.NoteOnEvent(tick=23, channel=9, data=[47, 112]),\n",
      "   midi.NoteOnEvent(tick=7, channel=9, data=[47, 0]),\n",
      "   midi.NoteOnEvent(tick=23, channel=9, data=[47, 114]),\n",
      "   midi.NoteOnEvent(tick=7, channel=9, data=[47, 0]),\n",
      "   midi.NoteOnEvent(tick=23, channel=9, data=[47, 116]),\n",
      "   midi.NoteOnEvent(tick=7, channel=9, data=[47, 0]),\n",
      "   midi.NoteOnEvent(tick=23, channel=9, data=[47, 118]),\n",
      "   midi.NoteOnEvent(tick=7, channel=9, data=[47, 0]),\n",
      "   midi.NoteOnEvent(tick=23, channel=9, data=[47, 120]),\n",
      "   midi.NoteOnEvent(tick=7, channel=9, data=[47, 0]),\n",
      "   midi.NoteOnEvent(tick=23, channel=9, data=[47, 122]),\n",
      "   midi.NoteOnEvent(tick=7, channel=9, data=[47, 0]),\n",
      "   midi.NoteOnEvent(tick=23, channel=9, data=[47, 123]),\n",
      "   midi.NoteOnEvent(tick=7, channel=9, data=[47, 0]),\n",
      "   midi.NoteOnEvent(tick=23, channel=9, data=[47, 125]),\n",
      "   midi.NoteOnEvent(tick=7, channel=9, data=[47, 0]),\n",
      "   midi.NoteOnEvent(tick=23, channel=9, data=[47, 127]),\n",
      "   midi.NoteOnEvent(tick=7, channel=9, data=[47, 0]),\n",
      "   midi.NoteOnEvent(tick=23, channel=9, data=[47, 127]),\n",
      "   midi.NoteOnEvent(tick=7, channel=9, data=[47, 0]),\n",
      "   midi.NoteOnEvent(tick=23, channel=9, data=[47, 127]),\n",
      "   midi.NoteOnEvent(tick=7, channel=9, data=[47, 0]),\n",
      "   midi.NoteOnEvent(tick=23, channel=9, data=[47, 127]),\n",
      "   midi.NoteOnEvent(tick=7, channel=9, data=[47, 0]),\n",
      "   midi.NoteOnEvent(tick=23, channel=9, data=[47, 127]),\n",
      "   midi.NoteOnEvent(tick=7, channel=9, data=[47, 0]),\n",
      "   midi.NoteOnEvent(tick=23, channel=9, data=[47, 127]),\n",
      "   midi.NoteOnEvent(tick=7, channel=9, data=[47, 0]),\n",
      "   midi.NoteOnEvent(tick=23, channel=9, data=[47, 127]),\n",
      "   midi.NoteOnEvent(tick=7, channel=9, data=[47, 0]),\n",
      "   midi.NoteOnEvent(tick=23, channel=9, data=[47, 127]),\n",
      "   midi.NoteOnEvent(tick=7, channel=9, data=[47, 0]),\n",
      "   midi.NoteOnEvent(tick=23, channel=9, data=[47, 127]),\n",
      "   midi.NoteOnEvent(tick=7, channel=9, data=[47, 0]),\n",
      "   midi.NoteOnEvent(tick=23, channel=9, data=[47, 127]),\n",
      "   midi.NoteOnEvent(tick=7, channel=9, data=[47, 0]),\n",
      "   midi.NoteOnEvent(tick=23, channel=9, data=[47, 127]),\n",
      "   midi.NoteOnEvent(tick=7, channel=9, data=[47, 0]),\n",
      "   midi.NoteOnEvent(tick=23, channel=9, data=[47, 127]),\n",
      "   midi.NoteOnEvent(tick=7, channel=9, data=[47, 0]),\n",
      "   midi.NoteOnEvent(tick=23, channel=9, data=[47, 127]),\n",
      "   midi.NoteOnEvent(tick=7, channel=9, data=[47, 0]),\n",
      "   midi.NoteOnEvent(tick=23, channel=9, data=[47, 127]),\n",
      "   midi.NoteOnEvent(tick=7, channel=9, data=[47, 0]),\n",
      "   midi.NoteOnEvent(tick=23, channel=9, data=[47, 127]),\n",
      "   midi.NoteOnEvent(tick=7, channel=9, data=[47, 0]),\n",
      "   midi.NoteOnEvent(tick=23, channel=9, data=[47, 127]),\n",
      "   midi.NoteOnEvent(tick=7, channel=9, data=[47, 0]),\n",
      "   midi.NoteOnEvent(tick=23, channel=9, data=[47, 127]),\n",
      "   midi.NoteOnEvent(tick=7, channel=9, data=[47, 0]),\n",
      "   midi.NoteOnEvent(tick=23, channel=9, data=[47, 127]),\n",
      "   midi.NoteOnEvent(tick=7, channel=9, data=[47, 0]),\n",
      "   midi.NoteOnEvent(tick=23, channel=9, data=[47, 127]),\n",
      "   midi.NoteOnEvent(tick=7, channel=9, data=[47, 0]),\n",
      "   midi.NoteOnEvent(tick=23, channel=9, data=[47, 127]),\n",
      "   midi.NoteOnEvent(tick=7, channel=9, data=[47, 0]),\n",
      "   midi.NoteOnEvent(tick=23, channel=9, data=[47, 127]),\n",
      "   midi.NoteOnEvent(tick=7, channel=9, data=[47, 0]),\n",
      "   midi.NoteOnEvent(tick=23, channel=9, data=[47, 127]),\n",
      "   midi.NoteOnEvent(tick=7, channel=9, data=[47, 0]),\n",
      "   midi.NoteOnEvent(tick=23, channel=9, data=[47, 127]),\n",
      "   midi.NoteOnEvent(tick=7, channel=9, data=[47, 0]),\n",
      "   midi.NoteOnEvent(tick=23, channel=9, data=[47, 127]),\n",
      "   midi.NoteOnEvent(tick=7, channel=9, data=[47, 0]),\n",
      "   midi.NoteOnEvent(tick=23, channel=9, data=[47, 127]),\n",
      "   midi.NoteOnEvent(tick=7, channel=9, data=[47, 0]),\n",
      "   midi.NoteOnEvent(tick=23, channel=9, data=[47, 127]),\n",
      "   midi.NoteOnEvent(tick=7, channel=9, data=[47, 0]),\n",
      "   midi.NoteOnEvent(tick=23, channel=9, data=[47, 127]),\n",
      "   midi.NoteOnEvent(tick=7, channel=9, data=[47, 0]),\n",
      "   midi.NoteOnEvent(tick=23, channel=9, data=[47, 127]),\n",
      "   midi.NoteOnEvent(tick=7, channel=9, data=[47, 0]),\n",
      "   midi.NoteOnEvent(tick=23, channel=9, data=[47, 127]),\n",
      "   midi.NoteOnEvent(tick=7, channel=9, data=[47, 0]),\n",
      "   midi.NoteOnEvent(tick=23, channel=9, data=[47, 127]),\n",
      "   midi.NoteOnEvent(tick=7, channel=9, data=[47, 0]),\n",
      "   midi.NoteOnEvent(tick=23, channel=9, data=[47, 127]),\n",
      "   midi.NoteOnEvent(tick=7, channel=9, data=[47, 0]),\n",
      "   midi.NoteOnEvent(tick=23, channel=9, data=[47, 127]),\n",
      "   midi.NoteOnEvent(tick=7, channel=9, data=[47, 0]),\n",
      "   midi.NoteOnEvent(tick=23, channel=9, data=[47, 127]),\n",
      "   midi.NoteOnEvent(tick=7, channel=9, data=[47, 0]),\n",
      "   midi.NoteOnEvent(tick=23, channel=9, data=[47, 127]),\n",
      "   midi.NoteOnEvent(tick=7, channel=9, data=[47, 0]),\n",
      "   midi.NoteOnEvent(tick=23, channel=9, data=[47, 127]),\n",
      "   midi.NoteOnEvent(tick=7, channel=9, data=[47, 0]),\n",
      "   midi.NoteOnEvent(tick=23, channel=9, data=[47, 127]),\n",
      "   midi.NoteOnEvent(tick=7, channel=9, data=[47, 0]),\n",
      "   midi.NoteOnEvent(tick=23, channel=9, data=[47, 127]),\n",
      "   midi.NoteOnEvent(tick=7, channel=9, data=[47, 0]),\n",
      "   midi.NoteOnEvent(tick=23, channel=9, data=[47, 127]),\n",
      "   midi.NoteOnEvent(tick=7, channel=9, data=[47, 0]),\n",
      "   midi.NoteOnEvent(tick=23, channel=9, data=[47, 127]),\n",
      "   midi.NoteOnEvent(tick=7, channel=9, data=[47, 0]),\n",
      "   midi.NoteOnEvent(tick=23, channel=9, data=[47, 127]),\n",
      "   midi.NoteOnEvent(tick=7, channel=9, data=[47, 0]),\n",
      "   midi.NoteOnEvent(tick=23, channel=9, data=[47, 127]),\n",
      "   midi.NoteOnEvent(tick=7, channel=9, data=[47, 0]),\n",
      "   midi.NoteOnEvent(tick=23, channel=9, data=[47, 127]),\n",
      "   midi.NoteOnEvent(tick=7, channel=9, data=[47, 0]),\n",
      "   midi.NoteOnEvent(tick=23, channel=9, data=[47, 127]),\n",
      "   midi.NoteOnEvent(tick=7, channel=9, data=[47, 0]),\n",
      "   midi.NoteOnEvent(tick=23, channel=9, data=[47, 127]),\n",
      "   midi.NoteOnEvent(tick=7, channel=9, data=[47, 0]),\n",
      "   midi.NoteOnEvent(tick=23, channel=9, data=[47, 127]),\n",
      "   midi.NoteOnEvent(tick=7, channel=9, data=[47, 0]),\n",
      "   midi.NoteOnEvent(tick=23, channel=9, data=[47, 127]),\n",
      "   midi.NoteOnEvent(tick=7, channel=9, data=[47, 0]),\n",
      "   midi.NoteOnEvent(tick=23, channel=9, data=[47, 127]),\n",
      "   midi.NoteOnEvent(tick=7, channel=9, data=[47, 0]),\n",
      "   midi.NoteOnEvent(tick=23, channel=9, data=[47, 127]),\n",
      "   midi.NoteOnEvent(tick=7, channel=9, data=[47, 0]),\n",
      "   midi.NoteOnEvent(tick=23, channel=9, data=[47, 127]),\n",
      "   midi.NoteOnEvent(tick=7, channel=9, data=[47, 0]),\n",
      "   midi.NoteOnEvent(tick=23, channel=9, data=[47, 127]),\n",
      "   midi.NoteOnEvent(tick=7, channel=9, data=[47, 0]),\n",
      "   midi.NoteOnEvent(tick=23, channel=9, data=[47, 127]),\n",
      "   midi.NoteOnEvent(tick=7, channel=9, data=[47, 0]),\n",
      "   midi.EndOfTrackEvent(tick=0, data=[])]),\n",
      " midi.Track(\\\n",
      "  [midi.PortEvent(tick=0, data=[0]),\n",
      "   midi.TrackNameEvent(tick=0, text='Dist Gtr G-31', data=[68, 105, 115, 116, 32, 71, 116, 114, 32, 71, 45, 51, 49]),\n",
      "   midi.ProgramChangeEvent(tick=0, channel=11, data=[30]),\n",
      "   midi.ControlChangeEvent(tick=0, channel=11, data=[7, 33]),\n",
      "   midi.ControlChangeEvent(tick=0, channel=11, data=[10, 64]),\n",
      "   midi.ControlChangeEvent(tick=47506, channel=11, data=[91, 121]),\n",
      "   midi.ControlChangeEvent(tick=0, channel=11, data=[1, 99]),\n",
      "   midi.ControlChangeEvent(tick=0, channel=11, data=[7, 121]),\n",
      "   midi.NoteOnEvent(tick=14, channel=11, data=[69, 115]),\n",
      "   midi.NoteOnEvent(tick=120, channel=11, data=[69, 0]),\n",
      "   midi.NoteOnEvent(tick=0, channel=11, data=[67, 86]),\n",
      "   midi.NoteOnEvent(tick=60, channel=11, data=[67, 0]),\n",
      "   midi.NoteOnEvent(tick=0, channel=11, data=[69, 122]),\n",
      "   midi.NoteOnEvent(tick=360, channel=11, data=[69, 0]),\n",
      "   midi.NoteOnEvent(tick=0, channel=11, data=[67, 83]),\n",
      "   midi.NoteOnEvent(tick=60, channel=11, data=[67, 0]),\n",
      "   midi.NoteOnEvent(tick=0, channel=11, data=[69, 96]),\n",
      "   midi.NoteOnEvent(tick=60, channel=11, data=[69, 0]),\n",
      "   midi.NoteOnEvent(tick=0, channel=11, data=[67, 83]),\n",
      "   midi.NoteOnEvent(tick=60, channel=11, data=[67, 0]),\n",
      "   midi.NoteOnEvent(tick=0, channel=11, data=[69, 127]),\n",
      "   midi.NoteOnEvent(tick=90, channel=11, data=[69, 0]),\n",
      "   midi.NoteOnEvent(tick=30, channel=11, data=[69, 122]),\n",
      "   midi.NoteOnEvent(tick=60, channel=11, data=[69, 0]),\n",
      "   midi.NoteOnEvent(tick=60, channel=11, data=[69, 122]),\n",
      "   midi.NoteOnEvent(tick=90, channel=11, data=[69, 0]),\n",
      "   midi.NoteOnEvent(tick=30, channel=11, data=[67, 115]),\n",
      "   midi.NoteOnEvent(tick=240, channel=11, data=[67, 0]),\n",
      "   midi.NoteOnEvent(tick=0, channel=11, data=[64, 92]),\n",
      "   midi.NoteOnEvent(tick=60, channel=11, data=[67, 92]),\n",
      "   midi.NoteOnEvent(tick=30, channel=11, data=[64, 0]),\n",
      "   midi.NoteOnEvent(tick=90, channel=11, data=[67, 0]),\n",
      "   midi.NoteOnEvent(tick=0, channel=11, data=[64, 75]),\n",
      "   midi.NoteOnEvent(tick=60, channel=11, data=[64, 0]),\n",
      "   midi.NoteOnEvent(tick=0, channel=11, data=[67, 77]),\n",
      "   midi.NoteOnEvent(tick=60, channel=11, data=[67, 0]),\n",
      "   midi.NoteOnEvent(tick=0, channel=11, data=[64, 77]),\n",
      "   midi.NoteOnEvent(tick=60, channel=11, data=[64, 0]),\n",
      "   midi.NoteOnEvent(tick=0, channel=11, data=[69, 100]),\n",
      "   midi.PitchWheelEvent(tick=20, channel=11, data=[7, 69]),\n",
      "   midi.PitchWheelEvent(tick=1, channel=11, data=[70, 73]),\n",
      "   midi.PitchWheelEvent(tick=1, channel=11, data=[102, 75]),\n",
      "   midi.PitchWheelEvent(tick=1, channel=11, data=[22, 79]),\n",
      "   midi.PitchWheelEvent(tick=2, channel=11, data=[69, 82]),\n",
      "   midi.PitchWheelEvent(tick=0, channel=11, data=[101, 84]),\n",
      "   midi.PitchWheelEvent(tick=1, channel=11, data=[20, 88]),\n",
      "   midi.PitchWheelEvent(tick=3, channel=11, data=[84, 92]),\n",
      "   midi.PitchWheelEvent(tick=1, channel=11, data=[35, 98]),\n",
      "   midi.PitchWheelEvent(tick=1, channel=11, data=[67, 100]),\n",
      "   midi.PitchWheelEvent(tick=1, channel=11, data=[114, 103]),\n",
      "   midi.PitchWheelEvent(tick=1, channel=11, data=[18, 106]),\n",
      "   midi.PitchWheelEvent(tick=1, channel=11, data=[97, 111]),\n",
      "   midi.PitchWheelEvent(tick=2, channel=11, data=[17, 115]),\n",
      "   midi.PitchWheelEvent(tick=1, channel=11, data=[49, 117]),\n",
      "   midi.PitchWheelEvent(tick=1, channel=11, data=[96, 120]),\n",
      "   midi.PitchWheelEvent(tick=1, channel=11, data=[0, 123]),\n",
      "   midi.PitchWheelEvent(tick=2, channel=11, data=[48, 126]),\n",
      "   midi.PitchWheelEvent(tick=0, channel=11, data=[127, 127]),\n",
      "   midi.NoteOnEvent(tick=19, channel=11, data=[69, 0]),\n",
      "   midi.PitchWheelEvent(tick=25, channel=11, data=[64, 127]),\n",
      "   midi.PitchWheelEvent(tick=0, channel=11, data=[0, 123]),\n",
      "   midi.PitchWheelEvent(tick=2, channel=11, data=[65, 118]),\n",
      "   midi.PitchWheelEvent(tick=1, channel=11, data=[1, 114]),\n",
      "   midi.PitchWheelEvent(tick=1, channel=11, data=[66, 109]),\n",
      "   midi.PitchWheelEvent(tick=1, channel=11, data=[114, 103]),\n",
      "   midi.PitchWheelEvent(tick=1, channel=11, data=[3, 96]),\n",
      "   midi.PitchWheelEvent(tick=1, channel=11, data=[36, 89]),\n",
      "   midi.PitchWheelEvent(tick=1, channel=11, data=[102, 75]),\n",
      "   midi.PitchWheelEvent(tick=1, channel=11, data=[23, 70]),\n",
      "   midi.PitchWheelEvent(tick=1, channel=11, data=[71, 64]),\n",
      "   midi.PitchWheelEvent(tick=2, channel=11, data=[0, 64]),\n",
      "   midi.NoteOnEvent(tick=23, channel=11, data=[69, 105]),\n",
      "   midi.PitchWheelEvent(tick=21, channel=11, data=[87, 65]),\n",
      "   midi.PitchWheelEvent(tick=1, channel=11, data=[119, 67]),\n",
      "   midi.PitchWheelEvent(tick=1, channel=11, data=[23, 70]),\n",
      "   midi.PitchWheelEvent(tick=2, channel=11, data=[54, 72]),\n",
      "   midi.PitchWheelEvent(tick=1, channel=11, data=[86, 74]),\n",
      "   midi.PitchWheelEvent(tick=1, channel=11, data=[118, 76]),\n",
      "   midi.PitchWheelEvent(tick=0, channel=11, data=[22, 79]),\n",
      "   midi.PitchWheelEvent(tick=1, channel=11, data=[69, 82]),\n",
      "   midi.PitchWheelEvent(tick=1, channel=11, data=[101, 84]),\n",
      "   midi.PitchWheelEvent(tick=1, channel=11, data=[5, 87]),\n",
      "   midi.PitchWheelEvent(tick=1, channel=11, data=[52, 90]),\n",
      "   midi.PitchWheelEvent(tick=1, channel=11, data=[84, 92]),\n",
      "   midi.PitchWheelEvent(tick=1, channel=11, data=[3, 96]),\n",
      "   midi.PitchWheelEvent(tick=1, channel=11, data=[67, 100]),\n",
      "   midi.PitchWheelEvent(tick=1, channel=11, data=[114, 103]),\n",
      "   midi.PitchWheelEvent(tick=0, channel=11, data=[34, 107]),\n",
      "   midi.PitchWheelEvent(tick=2, channel=11, data=[82, 110]),\n",
      "   midi.PitchWheelEvent(tick=1, channel=11, data=[1, 114]),\n",
      "   midi.PitchWheelEvent(tick=1, channel=11, data=[49, 117]),\n",
      "   midi.PitchWheelEvent(tick=0, channel=11, data=[96, 120]),\n",
      "   midi.PitchWheelEvent(tick=2, channel=11, data=[16, 124]),\n",
      "   midi.PitchWheelEvent(tick=0, channel=11, data=[64, 127]),\n",
      "   midi.PitchWheelEvent(tick=2, channel=11, data=[127, 127]),\n",
      "   midi.NoteOnEvent(tick=17, channel=11, data=[69, 0]),\n",
      "   midi.PitchWheelEvent(tick=38, channel=11, data=[16, 124]),\n",
      "   midi.PitchWheelEvent(tick=1, channel=11, data=[80, 119]),\n",
      "   midi.PitchWheelEvent(tick=1, channel=11, data=[17, 115]),\n",
      "   midi.PitchWheelEvent(tick=2, channel=11, data=[82, 110]),\n",
      "   midi.PitchWheelEvent(tick=0, channel=11, data=[2, 105]),\n",
      "   midi.PitchWheelEvent(tick=1, channel=11, data=[67, 100]),\n",
      "   midi.PitchWheelEvent(tick=1, channel=11, data=[3, 96]),\n",
      "   midi.PitchWheelEvent(tick=2, channel=11, data=[68, 91]),\n",
      "   midi.PitchWheelEvent(tick=0, channel=11, data=[5, 87]),\n",
      "   midi.PitchWheelEvent(tick=1, channel=11, data=[53, 81]),\n",
      "   midi.PitchWheelEvent(tick=1, channel=11, data=[102, 75]),\n",
      "   midi.PitchWheelEvent(tick=1, channel=11, data=[23, 70]),\n",
      "   midi.PitchWheelEvent(tick=2, channel=11, data=[87, 65]),\n",
      "   midi.PitchWheelEvent(tick=0, channel=11, data=[0, 64]),\n",
      "   midi.NoteOnEvent(tick=9, channel=11, data=[69, 127]),\n",
      "   midi.NoteOnEvent(tick=210, channel=11, data=[69, 0]),\n",
      "   midi.NoteOnEvent(tick=30, channel=11, data=[69, 122]),\n",
      "   midi.NoteOnEvent(tick=120, channel=11, data=[69, 0]),\n",
      "   midi.NoteOnEvent(tick=0, channel=11, data=[67, 86]),\n",
      "   midi.NoteOnEvent(tick=60, channel=11, data=[67, 0]),\n",
      "   midi.NoteOnEvent(tick=0, channel=11, data=[69, 100]),\n",
      "   midi.NoteOnEvent(tick=120, channel=11, data=[69, 0]),\n",
      "   midi.NoteOnEvent(tick=0, channel=11, data=[67, 80]),\n",
      "   midi.NoteOnEvent(tick=29, channel=11, data=[67, 0]),\n",
      "   midi.NoteOnEvent(tick=31, channel=11, data=[69, 89]),\n",
      "   midi.NoteOnEvent(tick=60, channel=11, data=[69, 0]),\n",
      "   midi.NoteOnEvent(tick=0, channel=11, data=[67, 80]),\n",
      "   midi.NoteOnEvent(tick=29, channel=11, data=[67, 0]),\n",
      "   midi.NoteOnEvent(tick=31, channel=11, data=[69, 122]),\n",
      "   midi.NoteOnEvent(tick=90, channel=11, data=[69, 0]),\n",
      "   midi.NoteOnEvent(tick=30, channel=11, data=[69, 110]),\n",
      "   midi.NoteOnEvent(tick=90, channel=11, data=[69, 0]),\n",
      "   midi.NoteOnEvent(tick=30, channel=11, data=[69, 127]),\n",
      "   midi.NoteOnEvent(tick=120, channel=11, data=[69, 0]),\n",
      "   midi.NoteOnEvent(tick=0, channel=11, data=[67, 105]),\n",
      "   midi.NoteOnEvent(tick=240, channel=11, data=[67, 0]),\n",
      "   midi.NoteOnEvent(tick=0, channel=11, data=[64, 73]),\n",
      "   midi.NoteOnEvent(tick=60, channel=11, data=[64, 0]),\n",
      "   midi.NoteOnEvent(tick=0, channel=11, data=[67, 100]),\n",
      "   midi.NoteOnEvent(tick=180, channel=11, data=[67, 0]),\n",
      "   midi.NoteOnEvent(tick=0, channel=11, data=[57, 111]),\n",
      "   midi.PitchWheelEvent(tick=171, channel=11, data=[104, 62]),\n",
      "   midi.PitchWheelEvent(tick=8, channel=11, data=[56, 60]),\n",
      "   midi.PitchWheelEvent(tick=4, channel=11, data=[9, 58]),\n",
      "   midi.PitchWheelEvent(tick=5, channel=11, data=[90, 55]),\n",
      "   midi.PitchWheelEvent(tick=4, channel=11, data=[42, 53]),\n",
      "   midi.PitchWheelEvent(tick=3, channel=11, data=[123, 50]),\n",
      "   midi.PitchWheelEvent(tick=2, channel=11, data=[75, 48]),\n",
      "   midi.PitchWheelEvent(tick=6, channel=11, data=[4, 45]),\n",
      "   midi.PitchWheelEvent(tick=4, channel=11, data=[85, 42]),\n",
      "   midi.PitchWheelEvent(tick=4, channel=11, data=[37, 40]),\n",
      "   midi.PitchWheelEvent(tick=3, channel=11, data=[118, 37]),\n",
      "   midi.PitchWheelEvent(tick=3, channel=11, data=[71, 35]),\n",
      "   midi.PitchWheelEvent(tick=2, channel=11, data=[23, 33]),\n",
      "   midi.PitchWheelEvent(tick=2, channel=11, data=[104, 30]),\n",
      "   midi.PitchWheelEvent(tick=4, channel=11, data=[56, 28]),\n",
      "   midi.PitchWheelEvent(tick=2, channel=11, data=[9, 26]),\n",
      "   midi.PitchWheelEvent(tick=3, channel=11, data=[66, 22]),\n",
      "   midi.PitchWheelEvent(tick=1, channel=11, data=[18, 20]),\n",
      "   midi.PitchWheelEvent(tick=3, channel=11, data=[99, 17]),\n",
      "   midi.PitchWheelEvent(tick=2, channel=11, data=[52, 15]),\n",
      "   midi.PitchWheelEvent(tick=2, channel=11, data=[109, 11]),\n",
      "   midi.NoteOnEvent(tick=2, channel=11, data=[57, 0]),\n",
      "   midi.PitchWheelEvent(tick=1, channel=11, data=[61, 9]),\n",
      "   midi.PitchWheelEvent(tick=2, channel=11, data=[118, 5]),\n",
      "   midi.PitchWheelEvent(tick=1, channel=11, data=[47, 2]),\n",
      "   midi.PitchWheelEvent(tick=3, channel=11, data=[0, 0]),\n",
      "   midi.PitchWheelEvent(tick=48, channel=11, data=[118, 5]),\n",
      "   midi.PitchWheelEvent(tick=1, channel=11, data=[33, 27]),\n",
      "   midi.PitchWheelEvent(tick=2, channel=11, data=[113, 56]),\n",
      "   midi.PitchWheelEvent(tick=1, channel=11, data=[0, 64]),\n",
      "   midi.PitchWheelEvent(tick=1, channel=11, data=[86, 74]),\n",
      "   midi.PitchWheelEvent(tick=1, channel=11, data=[54, 72]),\n",
      "   midi.PitchWheelEvent(tick=1, channel=11, data=[0, 64]),\n",
      "   midi.NoteOnEvent(tick=58, channel=11, data=[74, 110]),\n",
      "   midi.NoteOnEvent(tick=120, channel=11, data=[74, 0]),\n",
      "   midi.NoteOnEvent(tick=0, channel=11, data=[72, 110]),\n",
      "   midi.NoteOnEvent(tick=300, channel=11, data=[72, 0]),\n",
      "   midi.NoteOnEvent(tick=0, channel=11, data=[69, 96]),\n",
      "   midi.NoteOnEvent(tick=60, channel=11, data=[69, 0]),\n",
      "   midi.NoteOnEvent(tick=0, channel=11, data=[72, 89]),\n",
      "   midi.NoteOnEvent(tick=120, channel=11, data=[72, 0]),\n",
      "   midi.NoteOnEvent(tick=0, channel=11, data=[69, 80]),\n",
      "   midi.NoteOnEvent(tick=60, channel=11, data=[69, 0]),\n",
      "   midi.NoteOnEvent(tick=0, channel=11, data=[72, 89]),\n",
      "   midi.NoteOnEvent(tick=150, channel=11, data=[72, 0]),\n",
      "   midi.NoteOnEvent(tick=30, channel=11, data=[74, 92]),\n",
      "   midi.PitchWheelEvent(tick=23, channel=11, data=[87, 65]),\n",
      "   midi.PitchWheelEvent(tick=1, channel=11, data=[7, 69]),\n",
      "   midi.PitchWheelEvent(tick=1, channel=11, data=[54, 72]),\n",
      "   midi.PitchWheelEvent(tick=2, channel=11, data=[118, 76]),\n",
      "   midi.PitchWheelEvent(tick=0, channel=11, data=[53, 81]),\n",
      "   midi.PitchWheelEvent(tick=1, channel=11, data=[117, 85]),\n",
      "   midi.PitchWheelEvent(tick=2, channel=11, data=[36, 89]),\n",
      "   midi.PitchWheelEvent(tick=1, channel=11, data=[3, 96]),\n",
      "   midi.PitchWheelEvent(tick=1, channel=11, data=[67, 100]),\n",
      "   midi.PitchWheelEvent(tick=2, channel=11, data=[18, 106]),\n",
      "   midi.PitchWheelEvent(tick=1, channel=11, data=[82, 110]),\n",
      "   midi.PitchWheelEvent(tick=1, channel=11, data=[1, 114]),\n",
      "   midi.PitchWheelEvent(tick=1, channel=11, data=[33, 116]),\n",
      "   midi.PitchWheelEvent(tick=1, channel=11, data=[96, 120]),\n",
      "   midi.PitchWheelEvent(tick=1, channel=11, data=[16, 124]),\n",
      "   midi.PitchWheelEvent(tick=2, channel=11, data=[127, 127]),\n",
      "   midi.NoteOnEvent(tick=19, channel=11, data=[74, 0]),\n",
      "   midi.PitchWheelEvent(tick=25, channel=11, data=[32, 125]),\n",
      "   midi.PitchWheelEvent(tick=2, channel=11, data=[80, 119]),\n",
      "   midi.PitchWheelEvent(tick=1, channel=11, data=[1, 114]),\n",
      "   midi.PitchWheelEvent(tick=1, channel=11, data=[50, 108]),\n",
      "   midi.PitchWheelEvent(tick=1, channel=11, data=[83, 101]),\n",
      "   midi.PitchWheelEvent(tick=1, channel=11, data=[100, 93]),\n",
      "   midi.PitchWheelEvent(tick=1, channel=11, data=[117, 85]),\n",
      "   midi.PitchWheelEvent(tick=1, channel=11, data=[6, 78]),\n",
      "   midi.PitchWheelEvent(tick=1, channel=11, data=[23, 70]),\n",
      "   midi.PitchWheelEvent(tick=1, channel=11, data=[71, 64]),\n",
      "   midi.PitchWheelEvent(tick=3, channel=11, data=[0, 64]),\n",
      "   midi.NoteOnEvent(tick=22, channel=11, data=[74, 105]),\n",
      "   midi.PitchWheelEvent(tick=18, channel=11, data=[71, 64]),\n",
      "   midi.PitchWheelEvent(tick=3, channel=11, data=[119, 67]),\n",
      "   midi.PitchWheelEvent(tick=2, channel=11, data=[54, 72]),\n",
      "   midi.PitchWheelEvent(tick=1, channel=11, data=[86, 74]),\n",
      "   midi.PitchWheelEvent(tick=1, channel=11, data=[6, 78]),\n",
      "   midi.PitchWheelEvent(tick=1, channel=11, data=[53, 81]),\n",
      "   midi.PitchWheelEvent(tick=1, channel=11, data=[101, 84]),\n",
      "   midi.PitchWheelEvent(tick=1, channel=11, data=[20, 88]),\n",
      "   midi.PitchWheelEvent(tick=0, channel=11, data=[52, 90]),\n",
      "   midi.PitchWheelEvent(tick=1, channel=11, data=[116, 94]),\n",
      "   midi.PitchWheelEvent(tick=2, channel=11, data=[35, 98]),\n",
      "   midi.PitchWheelEvent(tick=0, channel=11, data=[83, 101]),\n",
      "   midi.PitchWheelEvent(tick=1, channel=11, data=[2, 105]),\n",
      "   midi.PitchWheelEvent(tick=1, channel=11, data=[50, 108]),\n",
      "   midi.PitchWheelEvent(tick=1, channel=11, data=[113, 112]),\n",
      "   midi.PitchWheelEvent(tick=1, channel=11, data=[33, 116]),\n",
      "   midi.PitchWheelEvent(tick=1, channel=11, data=[80, 119]),\n",
      "   midi.PitchWheelEvent(tick=1, channel=11, data=[0, 123]),\n",
      "   midi.PitchWheelEvent(tick=1, channel=11, data=[48, 126]),\n",
      "   midi.PitchWheelEvent(tick=1, channel=11, data=[127, 127]),\n",
      "   midi.PitchWheelEvent(tick=46, channel=11, data=[112, 121]),\n",
      "   midi.PitchWheelEvent(tick=0, channel=11, data=[33, 116]),\n",
      "   midi.PitchWheelEvent(tick=1, channel=11, data=[82, 110]),\n",
      "   midi.PitchWheelEvent(tick=2, channel=11, data=[35, 98]),\n",
      "   midi.NoteOnEvent(tick=2, channel=11, data=[74, 0]),\n",
      "   midi.PitchWheelEvent(tick=0, channel=11, data=[52, 90]),\n",
      "   midi.PitchWheelEvent(tick=1, channel=11, data=[86, 74]),\n",
      "   midi.PitchWheelEvent(tick=2, channel=11, data=[87, 65]),\n",
      "   midi.PitchWheelEvent(tick=1, channel=11, data=[0, 64]),\n",
      "   midi.NoteOnEvent(tick=26, channel=11, data=[74, 100]),\n",
      "   midi.PitchWheelEvent(tick=23, channel=11, data=[7, 69]),\n",
      "   midi.PitchWheelEvent(tick=1, channel=11, data=[39, 71]),\n",
      "   midi.PitchWheelEvent(tick=1, channel=11, data=[86, 74]),\n",
      "   midi.PitchWheelEvent(tick=1, channel=11, data=[118, 76]),\n",
      "   midi.PitchWheelEvent(tick=2, channel=11, data=[69, 82]),\n",
      "   midi.PitchWheelEvent(tick=2, channel=11, data=[117, 85]),\n",
      "   midi.PitchWheelEvent(tick=1, channel=11, data=[20, 88]),\n",
      "   midi.PitchWheelEvent(tick=1, channel=11, data=[52, 90]),\n",
      "   midi.PitchWheelEvent(tick=1, channel=11, data=[3, 96]),\n",
      "   midi.PitchWheelEvent(tick=2, channel=11, data=[99, 102]),\n",
      "   midi.PitchWheelEvent(tick=2, channel=11, data=[18, 106]),\n",
      "   midi.PitchWheelEvent(tick=1, channel=11, data=[1, 114]),\n",
      "   midi.PitchWheelEvent(tick=2, channel=11, data=[96, 120]),\n",
      "   midi.PitchWheelEvent(tick=2, channel=11, data=[127, 127]),\n",
      "   midi.NoteOnEvent(tick=48, channel=11, data=[74, 0]),\n",
      "   midi.PitchWheelEvent(tick=4, channel=11, data=[48, 126]),\n",
      "   midi.PitchWheelEvent(tick=1, channel=11, data=[96, 120]),\n",
      "   midi.PitchWheelEvent(tick=1, channel=11, data=[17, 115]),\n",
      "   midi.PitchWheelEvent(tick=2, channel=11, data=[50, 108]),\n",
      "   midi.PitchWheelEvent(tick=1, channel=11, data=[116, 94]),\n",
      "   midi.PitchWheelEvent(tick=1, channel=11, data=[5, 87]),\n",
      "   midi.PitchWheelEvent(tick=1, channel=11, data=[118, 76]),\n",
      "   midi.PitchWheelEvent(tick=2, channel=11, data=[103, 66]),\n",
      "   midi.PitchWheelEvent(tick=1, channel=11, data=[71, 64]),\n",
      "   midi.PitchWheelEvent(tick=1, channel=11, data=[0, 64]),\n",
      "   midi.NoteOnEvent(tick=15, channel=11, data=[74, 122]),\n",
      "   midi.NoteOnEvent(tick=120, channel=11, data=[74, 0]),\n",
      "   midi.NoteOnEvent(tick=0, channel=11, data=[72, 83]),\n",
      "   midi.NoteOnEvent(tick=60, channel=11, data=[72, 0]),\n",
      "   midi.NoteOnEvent(tick=0, channel=11, data=[74, 105]),\n",
      "   midi.NoteOnEvent(tick=270, channel=11, data=[74, 0]),\n",
      "   midi.NoteOnEvent(tick=30, channel=11, data=[74, 105]),\n",
      "   midi.NoteOnEvent(tick=60, channel=11, data=[74, 0]),\n",
      "   midi.NoteOnEvent(tick=0, channel=11, data=[72, 80]),\n",
      "   midi.NoteOnEvent(tick=60, channel=11, data=[72, 0]),\n",
      "   midi.NoteOnEvent(tick=0, channel=11, data=[74, 89]),\n",
      "   midi.NoteOnEvent(tick=60, channel=11, data=[74, 0]),\n",
      "   midi.NoteOnEvent(tick=0, channel=11, data=[76, 83]),\n",
      "   midi.NoteOnEvent(tick=29, channel=11, data=[76, 0]),\n",
      "   midi.NoteOnEvent(tick=31, channel=11, data=[74, 110]),\n",
      "   midi.NoteOnEvent(tick=120, channel=11, data=[72, 115]),\n",
      "   midi.NoteOnEvent(tick=30, channel=11, data=[74, 0]),\n",
      "   midi.NoteOnEvent(tick=210, channel=11, data=[72, 0]),\n",
      "   midi.NoteOnEvent(tick=0, channel=11, data=[69, 80]),\n",
      "   midi.NoteOnEvent(tick=60, channel=11, data=[72, 89]),\n",
      "   midi.NoteOnEvent(tick=30, channel=11, data=[69, 0]),\n",
      "   midi.NoteOnEvent(tick=90, channel=11, data=[72, 0]),\n",
      "   midi.NoteOnEvent(tick=0, channel=11, data=[69, 80]),\n",
      "   midi.NoteOnEvent(tick=60, channel=11, data=[69, 0]),\n",
      "   midi.NoteOnEvent(tick=0, channel=11, data=[72, 83]),\n",
      "   midi.NoteOnEvent(tick=60, channel=11, data=[72, 0]),\n",
      "   midi.NoteOnEvent(tick=0, channel=11, data=[69, 83]),\n",
      "   midi.NoteOnEvent(tick=60, channel=11, data=[69, 0]),\n",
      "   midi.NoteOnEvent(tick=0, channel=11, data=[74, 105]),\n",
      "   midi.PitchWheelEvent(tick=28, channel=11, data=[103, 66]),\n",
      "   midi.PitchWheelEvent(tick=2, channel=11, data=[23, 70]),\n",
      "   midi.PitchWheelEvent(tick=2, channel=11, data=[54, 72]),\n",
      "   midi.PitchWheelEvent(tick=2, channel=11, data=[102, 75]),\n",
      "   midi.PitchWheelEvent(tick=3, channel=11, data=[22, 79]),\n",
      "   midi.PitchWheelEvent(tick=0, channel=11, data=[53, 81]),\n",
      "   midi.PitchWheelEvent(tick=2, channel=11, data=[85, 83]),\n",
      "   midi.PitchWheelEvent(tick=2, channel=11, data=[5, 87]),\n",
      "   midi.PitchWheelEvent(tick=2, channel=11, data=[68, 91]),\n",
      "   midi.PitchWheelEvent(tick=0, channel=11, data=[100, 93]),\n",
      "   midi.PitchWheelEvent(tick=1, channel=11, data=[19, 97]),\n",
      "   midi.PitchWheelEvent(tick=2, channel=11, data=[67, 100]),\n",
      "   midi.PitchWheelEvent(tick=1, channel=11, data=[99, 102]),\n",
      "   midi.PitchWheelEvent(tick=1, channel=11, data=[50, 108]),\n",
      "   midi.PitchWheelEvent(tick=1, channel=11, data=[82, 110]),\n",
      "   midi.PitchWheelEvent(tick=1, channel=11, data=[1, 114]),\n",
      "   midi.PitchWheelEvent(tick=1, channel=11, data=[33, 116]),\n",
      "   midi.PitchWheelEvent(tick=2, channel=11, data=[65, 118]),\n",
      "   midi.PitchWheelEvent(tick=1, channel=11, data=[112, 121]),\n",
      "   midi.PitchWheelEvent(tick=0, channel=11, data=[16, 124]),\n",
      "   midi.PitchWheelEvent(tick=2, channel=11, data=[64, 127]),\n",
      "   midi.PitchWheelEvent(tick=2, channel=11, data=[127, 127]),\n",
      "   midi.NoteOnEvent(tick=32, channel=11, data=[74, 0]),\n",
      "   midi.PitchWheelEvent(tick=6, channel=11, data=[48, 126]),\n",
      "   midi.PitchWheelEvent(tick=1, channel=11, data=[112, 121]),\n",
      "   midi.PitchWheelEvent(tick=1, channel=11, data=[33, 116]),\n",
      "   midi.PitchWheelEvent(tick=2, channel=11, data=[82, 110]),\n",
      "   midi.PitchWheelEvent(tick=0, channel=11, data=[114, 103]),\n",
      "   midi.PitchWheelEvent(tick=2, channel=11, data=[52, 90]),\n",
      "   midi.PitchWheelEvent(tick=1, channel=11, data=[69, 82]),\n",
      "   midi.PitchWheelEvent(tick=1, channel=11, data=[86, 74]),\n",
      "   midi.PitchWheelEvent(tick=2, channel=11, data=[7, 69]),\n",
      "   midi.PitchWheelEvent(tick=1, channel=11, data=[71, 64]),\n",
      "   midi.PitchWheelEvent(tick=2, channel=11, data=[0, 64]),\n",
      "   midi.NoteOnEvent(tick=11, channel=11, data=[74, 96]),\n",
      "   midi.PitchWheelEvent(tick=25, channel=11, data=[71, 64]),\n",
      "   midi.PitchWheelEvent(tick=3, channel=11, data=[103, 66]),\n",
      "   midi.PitchWheelEvent(tick=1, channel=11, data=[23, 70]),\n",
      "   midi.PitchWheelEvent(tick=1, channel=11, data=[70, 73]),\n",
      "   midi.PitchWheelEvent(tick=3, channel=11, data=[118, 76]),\n",
      "   midi.PitchWheelEvent(tick=1, channel=11, data=[22, 79]),\n",
      "   midi.PitchWheelEvent(tick=1, channel=11, data=[53, 81]),\n",
      "   midi.PitchWheelEvent(tick=1, channel=11, data=[117, 85]),\n",
      "   midi.PitchWheelEvent(tick=3, channel=11, data=[20, 88]),\n",
      "   midi.PitchWheelEvent(tick=1, channel=11, data=[84, 92]),\n",
      "   midi.PitchWheelEvent(tick=1, channel=11, data=[116, 94]),\n",
      "   midi.PitchWheelEvent(tick=2, channel=11, data=[35, 98]),\n",
      "   midi.PitchWheelEvent(tick=1, channel=11, data=[67, 100]),\n",
      "   midi.PitchWheelEvent(tick=1, channel=11, data=[18, 106]),\n",
      "   midi.PitchWheelEvent(tick=1, channel=11, data=[50, 108]),\n",
      "   midi.PitchWheelEvent(tick=1, channel=11, data=[97, 111]),\n",
      "   midi.PitchWheelEvent(tick=2, channel=11, data=[17, 115]),\n",
      "   midi.PitchWheelEvent(tick=1, channel=11, data=[112, 121]),\n",
      "   midi.PitchWheelEvent(tick=1, channel=11, data=[48, 126]),\n",
      "   midi.PitchWheelEvent(tick=1, channel=11, data=[127, 127]),\n",
      "   midi.NoteOnEvent(tick=38, channel=11, data=[74, 0]),\n",
      "   midi.PitchWheelEvent(tick=11, channel=11, data=[48, 126]),\n",
      "   midi.PitchWheelEvent(tick=1, channel=11, data=[112, 121]),\n",
      "   midi.PitchWheelEvent(tick=1, channel=11, data=[49, 117]),\n",
      "   midi.PitchWheelEvent(tick=1, channel=11, data=[97, 111]),\n",
      "   midi.PitchWheelEvent(tick=1, channel=11, data=[34, 107]),\n",
      "   midi.PitchWheelEvent(tick=1, channel=11, data=[116, 94]),\n",
      "   midi.PitchWheelEvent(tick=1, channel=11, data=[36, 89]),\n",
      "   midi.PitchWheelEvent(tick=2, channel=11, data=[69, 82]),\n",
      "   midi.ControlChangeEvent(tick=1, channel=11, data=[7, 121]),\n",
      "   midi.PitchWheelEvent(tick=0, channel=11, data=[102, 75]),\n",
      "   midi.PitchWheelEvent(tick=1, channel=11, data=[71, 64]),\n",
      "   midi.PitchWheelEvent(tick=4, channel=11, data=[0, 64]),\n",
      "   midi.NoteOnEvent(tick=5, channel=11, data=[74, 105]),\n",
      "   midi.NoteOnEvent(tick=210, channel=11, data=[74, 0]),\n",
      "   midi.NoteOnEvent(tick=30, channel=11, data=[74, 100]),\n",
      "   midi.NoteOnEvent(tick=120, channel=11, data=[74, 0]),\n",
      "   midi.NoteOnEvent(tick=0, channel=11, data=[72, 121]),\n",
      "   midi.NoteOnEvent(tick=29, channel=11, data=[72, 0]),\n",
      "   midi.NoteOnEvent(tick=31, channel=11, data=[74, 121]),\n",
      "   midi.PitchWheelEvent(tick=213, channel=11, data=[104, 62]),\n",
      "   midi.PitchWheelEvent(tick=11, channel=11, data=[56, 60]),\n",
      "   midi.PitchWheelEvent(tick=8, channel=11, data=[9, 58]),\n",
      "   midi.PitchWheelEvent(tick=9, channel=11, data=[90, 55]),\n",
      "   midi.PitchWheelEvent(tick=12, channel=11, data=[42, 53]),\n",
      "   midi.PitchWheelEvent(tick=4, channel=11, data=[123, 50]),\n",
      "   midi.PitchWheelEvent(tick=5, channel=11, data=[75, 48]),\n",
      "   midi.PitchWheelEvent(tick=10, channel=11, data=[28, 46]),\n",
      "   midi.PitchWheelEvent(tick=5, channel=11, data=[109, 43]),\n",
      "   midi.PitchWheelEvent(tick=4, channel=11, data=[61, 41]),\n",
      "   midi.PitchWheelEvent(tick=6, channel=11, data=[14, 39]),\n",
      "   midi.PitchWheelEvent(tick=6, channel=11, data=[94, 36]),\n",
      "   midi.PitchWheelEvent(tick=5, channel=11, data=[47, 34]),\n",
      "   midi.PitchWheelEvent(tick=6, channel=11, data=[0, 32]),\n",
      "   midi.PitchWheelEvent(tick=9, channel=11, data=[80, 29]),\n",
      "   midi.PitchWheelEvent(tick=6, channel=11, data=[33, 27]),\n",
      "   midi.PitchWheelEvent(tick=7, channel=11, data=[113, 24]),\n",
      "   midi.PitchWheelEvent(tick=10, channel=11, data=[66, 22]),\n",
      "   midi.PitchWheelEvent(tick=11, channel=11, data=[18, 20]),\n",
      "   midi.PitchWheelEvent(tick=10, channel=11, data=[99, 17]),\n",
      "   midi.PitchWheelEvent(tick=11, channel=11, data=[52, 15]),\n",
      "   midi.PitchWheelEvent(tick=9, channel=11, data=[4, 13]),\n",
      "   midi.PitchWheelEvent(tick=10, channel=11, data=[85, 10]),\n",
      "   midi.PitchWheelEvent(tick=7, channel=11, data=[37, 8]),\n",
      "   midi.PitchWheelEvent(tick=4, channel=11, data=[118, 5]),\n",
      "   midi.PitchWheelEvent(tick=3, channel=11, data=[71, 3]),\n",
      "   midi.PitchWheelEvent(tick=5, channel=11, data=[23, 1]),\n",
      "   midi.PitchWheelEvent(tick=5, channel=11, data=[0, 0]),\n",
      "   midi.NoteOnEvent(tick=9, channel=11, data=[74, 0]),\n",
      "   midi.PitchWheelEvent(tick=14520, channel=11, data=[0, 64]),\n",
      "   midi.ControlChangeEvent(tick=480, channel=11, data=[7, 125]),\n",
      "   midi.NoteOnEvent(tick=420, channel=11, data=[76, 64]),\n",
      "   midi.NoteOnEvent(tick=60, channel=11, data=[76, 0]),\n",
      "   midi.NoteOnEvent(tick=0, channel=11, data=[77, 77]),\n",
      "   midi.NoteOnEvent(tick=29, channel=11, data=[77, 0]),\n",
      "   midi.NoteOnEvent(tick=31, channel=11, data=[77, 77]),\n",
      "   midi.NoteOnEvent(tick=29, channel=11, data=[77, 0]),\n",
      "   midi.NoteOnEvent(tick=31, channel=11, data=[76, 75]),\n",
      "   midi.NoteOnEvent(tick=29, channel=11, data=[76, 0]),\n",
      "   midi.NoteOnEvent(tick=31, channel=11, data=[76, 67]),\n",
      "   midi.NoteOnEvent(tick=29, channel=11, data=[76, 0]),\n",
      "   midi.NoteOnEvent(tick=31, channel=11, data=[74, 89]),\n",
      "   midi.NoteOnEvent(tick=180, channel=11, data=[74, 0]),\n",
      "   midi.NoteOnEvent(tick=0, channel=11, data=[76, 73]),\n",
      "   midi.ControlChangeEvent(tick=20, channel=11, data=[7, 124]),\n",
      "   midi.NoteOnEvent(tick=9, channel=11, data=[76, 0]),\n",
      "   midi.NoteOnEvent(tick=31, channel=11, data=[77, 86]),\n",
      "   midi.NoteOnEvent(tick=29, channel=11, data=[77, 0]),\n",
      "   midi.NoteOnEvent(tick=31, channel=11, data=[77, 80]),\n",
      "   midi.NoteOnEvent(tick=29, channel=11, data=[77, 0]),\n",
      "   midi.NoteOnEvent(tick=31, channel=11, data=[76, 75]),\n",
      "   midi.NoteOnEvent(tick=29, channel=11, data=[76, 0]),\n",
      "   midi.NoteOnEvent(tick=31, channel=11, data=[76, 69]),\n",
      "   midi.NoteOnEvent(tick=29, channel=11, data=[76, 0]),\n",
      "   midi.NoteOnEvent(tick=31, channel=11, data=[74, 105]),\n",
      "   midi.NoteOnEvent(tick=180, channel=11, data=[74, 0]),\n",
      "   midi.NoteOnEvent(tick=0, channel=11, data=[76, 71]),\n",
      "   midi.NoteOnEvent(tick=29, channel=11, data=[76, 0]),\n",
      "   midi.NoteOnEvent(tick=31, channel=11, data=[77, 86]),\n",
      "   midi.NoteOnEvent(tick=29, channel=11, data=[77, 0]),\n",
      "   midi.NoteOnEvent(tick=31, channel=11, data=[77, 83]),\n",
      "   midi.NoteOnEvent(tick=29, channel=11, data=[77, 0]),\n",
      "   midi.NoteOnEvent(tick=31, channel=11, data=[76, 89]),\n",
      "   midi.NoteOnEvent(tick=29, channel=11, data=[76, 0]),\n",
      "   midi.NoteOnEvent(tick=31, channel=11, data=[76, 83]),\n",
      "   midi.NoteOnEvent(tick=29, channel=11, data=[76, 0]),\n",
      "   midi.NoteOnEvent(tick=31, channel=11, data=[74, 105]),\n",
      "   midi.NoteOnEvent(tick=180, channel=11, data=[76, 83]),\n",
      "   midi.NoteOnEvent(tick=29, channel=11, data=[76, 0]),\n",
      "   midi.NoteOnEvent(tick=1, channel=11, data=[74, 0]),\n",
      "   midi.NoteOnEvent(tick=30, channel=11, data=[77, 83]),\n",
      "   midi.NoteOnEvent(tick=29, channel=11, data=[77, 0]),\n",
      "   midi.NoteOnEvent(tick=31, channel=11, data=[77, 83]),\n",
      "   midi.NoteOnEvent(tick=29, channel=11, data=[77, 0]),\n",
      "   midi.NoteOnEvent(tick=31, channel=11, data=[76, 80]),\n",
      "   midi.NoteOnEvent(tick=29, channel=11, data=[76, 0]),\n",
      "   midi.NoteOnEvent(tick=31, channel=11, data=[76, 77]),\n",
      "   midi.NoteOnEvent(tick=29, channel=11, data=[76, 0]),\n",
      "   midi.NoteOnEvent(tick=31, channel=11, data=[74, 100]),\n",
      "   midi.NoteOnEvent(tick=180, channel=11, data=[74, 0]),\n",
      "   midi.NoteOnEvent(tick=0, channel=11, data=[76, 77]),\n",
      "   midi.NoteOnEvent(tick=29, channel=11, data=[76, 0]),\n",
      "   midi.NoteOnEvent(tick=31, channel=11, data=[77, 80]),\n",
      "   midi.NoteOnEvent(tick=29, channel=11, data=[77, 0]),\n",
      "   midi.NoteOnEvent(tick=31, channel=11, data=[77, 69]),\n",
      "   midi.NoteOnEvent(tick=29, channel=11, data=[77, 0]),\n",
      "   midi.NoteOnEvent(tick=31, channel=11, data=[76, 86]),\n",
      "   midi.NoteOnEvent(tick=29, channel=11, data=[76, 0]),\n",
      "   midi.NoteOnEvent(tick=31, channel=11, data=[76, 67]),\n",
      "   midi.NoteOnEvent(tick=29, channel=11, data=[76, 0]),\n",
      "   midi.NoteOnEvent(tick=31, channel=11, data=[74, 100]),\n",
      "   midi.NoteOnEvent(tick=180, channel=11, data=[74, 0]),\n",
      "   midi.NoteOnEvent(tick=0, channel=11, data=[76, 69]),\n",
      "   midi.NoteOnEvent(tick=29, channel=11, data=[76, 0]),\n",
      "   midi.NoteOnEvent(tick=31, channel=11, data=[77, 73]),\n",
      "   midi.NoteOnEvent(tick=29, channel=11, data=[77, 0]),\n",
      "   midi.NoteOnEvent(tick=31, channel=11, data=[77, 63]),\n",
      "   midi.NoteOnEvent(tick=29, channel=11, data=[77, 0]),\n",
      "   midi.NoteOnEvent(tick=31, channel=11, data=[76, 71]),\n",
      "   midi.NoteOnEvent(tick=29, channel=11, data=[76, 0]),\n",
      "   midi.NoteOnEvent(tick=31, channel=11, data=[76, 69]),\n",
      "   midi.NoteOnEvent(tick=29, channel=11, data=[76, 0]),\n",
      "   midi.NoteOnEvent(tick=31, channel=11, data=[74, 105]),\n",
      "   midi.NoteOnEvent(tick=180, channel=11, data=[74, 0]),\n",
      "   midi.NoteOnEvent(tick=0, channel=11, data=[76, 65]),\n",
      "   midi.NoteOnEvent(tick=60, channel=11, data=[76, 0]),\n",
      "   midi.NoteOnEvent(tick=0, channel=11, data=[77, 83]),\n",
      "   midi.NoteOnEvent(tick=29, channel=11, data=[77, 0]),\n",
      "   midi.NoteOnEvent(tick=31, channel=11, data=[77, 65]),\n",
      "   midi.NoteOnEvent(tick=29, channel=11, data=[77, 0]),\n",
      "   midi.NoteOnEvent(tick=31, channel=11, data=[76, 77]),\n",
      "   midi.NoteOnEvent(tick=29, channel=11, data=[76, 0]),\n",
      "   midi.NoteOnEvent(tick=31, channel=11, data=[76, 67]),\n",
      "   midi.NoteOnEvent(tick=29, channel=11, data=[76, 0]),\n",
      "   midi.NoteOnEvent(tick=31, channel=11, data=[74, 96]),\n",
      "   midi.NoteOnEvent(tick=180, channel=11, data=[74, 0]),\n",
      "   midi.NoteOnEvent(tick=0, channel=11, data=[76, 71]),\n",
      "   midi.NoteOnEvent(tick=29, channel=11, data=[76, 0]),\n",
      "   midi.NoteOnEvent(tick=31, channel=11, data=[77, 73]),\n",
      "   midi.NoteOnEvent(tick=29, channel=11, data=[77, 0]),\n",
      "   midi.NoteOnEvent(tick=31, channel=11, data=[77, 60]),\n",
      "   midi.NoteOnEvent(tick=29, channel=11, data=[77, 0]),\n",
      "   midi.NoteOnEvent(tick=31, channel=11, data=[76, 77]),\n",
      "   midi.NoteOnEvent(tick=29, channel=11, data=[76, 0]),\n",
      "   midi.NoteOnEvent(tick=31, channel=11, data=[76, 62]),\n",
      "   midi.NoteOnEvent(tick=29, channel=11, data=[76, 0]),\n",
      "   midi.NoteOnEvent(tick=31, channel=11, data=[74, 86]),\n",
      "   midi.NoteOnEvent(tick=180, channel=11, data=[74, 0]),\n",
      "   midi.NoteOnEvent(tick=0, channel=11, data=[76, 65]),\n",
      "   midi.NoteOnEvent(tick=29, channel=11, data=[76, 0]),\n",
      "   midi.NoteOnEvent(tick=31, channel=11, data=[77, 77]),\n",
      "   midi.NoteOnEvent(tick=29, channel=11, data=[77, 0]),\n",
      "   midi.NoteOnEvent(tick=31, channel=11, data=[77, 64]),\n",
      "   midi.NoteOnEvent(tick=29, channel=11, data=[77, 0]),\n",
      "   midi.NoteOnEvent(tick=31, channel=11, data=[76, 73]),\n",
      "   midi.NoteOnEvent(tick=29, channel=11, data=[76, 0]),\n",
      "   midi.NoteOnEvent(tick=31, channel=11, data=[76, 62]),\n",
      "   midi.NoteOnEvent(tick=29, channel=11, data=[76, 0]),\n",
      "   midi.NoteOnEvent(tick=31, channel=11, data=[74, 86]),\n",
      "   midi.NoteOnEvent(tick=29, channel=11, data=[74, 0]),\n",
      "   midi.NoteOnEvent(tick=31, channel=11, data=[74, 62]),\n",
      "   midi.NoteOnEvent(tick=29, channel=11, data=[74, 0]),\n",
      "   midi.NoteOnEvent(tick=31, channel=11, data=[76, 71]),\n",
      "   midi.NoteOnEvent(tick=29, channel=11, data=[76, 0]),\n",
      "   midi.NoteOnEvent(tick=31, channel=11, data=[76, 61]),\n",
      "   midi.NoteOnEvent(tick=29, channel=11, data=[76, 0]),\n",
      "   midi.NoteOnEvent(tick=31, channel=11, data=[77, 71]),\n",
      "   midi.NoteOnEvent(tick=29, channel=11, data=[77, 0]),\n",
      "   midi.NoteOnEvent(tick=31, channel=11, data=[77, 63]),\n",
      "   midi.NoteOnEvent(tick=29, channel=11, data=[77, 0]),\n",
      "   midi.NoteOnEvent(tick=31, channel=11, data=[76, 75]),\n",
      "   midi.NoteOnEvent(tick=29, channel=11, data=[76, 0]),\n",
      "   midi.NoteOnEvent(tick=31, channel=11, data=[76, 61]),\n",
      "   midi.NoteOnEvent(tick=29, channel=11, data=[76, 0]),\n",
      "   midi.NoteOnEvent(tick=31, channel=11, data=[74, 73]),\n",
      "   midi.NoteOnEvent(tick=29, channel=11, data=[74, 0]),\n",
      "   midi.NoteOnEvent(tick=31, channel=11, data=[74, 51]),\n",
      "   midi.NoteOnEvent(tick=29, channel=11, data=[74, 0]),\n",
      "   midi.NoteOnEvent(tick=31, channel=11, data=[76, 64]),\n",
      "   midi.NoteOnEvent(tick=29, channel=11, data=[76, 0]),\n",
      "   midi.NoteOnEvent(tick=31, channel=11, data=[76, 61]),\n",
      "   midi.NoteOnEvent(tick=29, channel=11, data=[76, 0]),\n",
      "   midi.NoteOnEvent(tick=31, channel=11, data=[77, 69]),\n",
      "   midi.NoteOnEvent(tick=29, channel=11, data=[77, 0]),\n",
      "   midi.NoteOnEvent(tick=31, channel=11, data=[77, 62]),\n",
      "   midi.NoteOnEvent(tick=29, channel=11, data=[77, 0]),\n",
      "   midi.NoteOnEvent(tick=31, channel=11, data=[76, 69]),\n",
      "   midi.NoteOnEvent(tick=29, channel=11, data=[76, 0]),\n",
      "   midi.NoteOnEvent(tick=31, channel=11, data=[76, 63]),\n",
      "   midi.NoteOnEvent(tick=29, channel=11, data=[76, 0]),\n",
      "   midi.NoteOnEvent(tick=31, channel=11, data=[74, 75]),\n",
      "   midi.NoteOnEvent(tick=29, channel=11, data=[74, 0]),\n",
      "   midi.NoteOnEvent(tick=31, channel=11, data=[74, 57]),\n",
      "   midi.NoteOnEvent(tick=29, channel=11, data=[74, 0]),\n",
      "   midi.NoteOnEvent(tick=31, channel=11, data=[76, 75]),\n",
      "   midi.NoteOnEvent(tick=29, channel=11, data=[76, 0]),\n",
      "   midi.NoteOnEvent(tick=31, channel=11, data=[76, 64]),\n",
      "   midi.NoteOnEvent(tick=29, channel=11, data=[76, 0]),\n",
      "   midi.NoteOnEvent(tick=31, channel=11, data=[77, 65]),\n",
      "   midi.NoteOnEvent(tick=29, channel=11, data=[77, 0]),\n",
      "   midi.NoteOnEvent(tick=31, channel=11, data=[77, 57]),\n",
      "   midi.NoteOnEvent(tick=29, channel=11, data=[77, 0]),\n",
      "   midi.NoteOnEvent(tick=31, channel=11, data=[76, 77]),\n",
      "   midi.NoteOnEvent(tick=29, channel=11, data=[76, 0]),\n",
      "   midi.NoteOnEvent(tick=31, channel=11, data=[76, 63]),\n",
      "   midi.NoteOnEvent(tick=29, channel=11, data=[76, 0]),\n",
      "   midi.NoteOnEvent(tick=31, channel=11, data=[74, 71]),\n",
      "   midi.NoteOnEvent(tick=29, channel=11, data=[74, 0]),\n",
      "   midi.NoteOnEvent(tick=31, channel=11, data=[74, 59]),\n",
      "   midi.NoteOnEvent(tick=29, channel=11, data=[74, 0]),\n",
      "   midi.NoteOnEvent(tick=31, channel=11, data=[76, 73]),\n",
      "   midi.NoteOnEvent(tick=29, channel=11, data=[76, 0]),\n",
      "   midi.NoteOnEvent(tick=31, channel=11, data=[76, 60]),\n",
      "   midi.NoteOnEvent(tick=29, channel=11, data=[76, 0]),\n",
      "   midi.NoteOnEvent(tick=31, channel=11, data=[77, 71]),\n",
      "   midi.NoteOnEvent(tick=29, channel=11, data=[77, 0]),\n",
      "   midi.NoteOnEvent(tick=31, channel=11, data=[77, 58]),\n",
      "   midi.NoteOnEvent(tick=29, channel=11, data=[77, 0]),\n",
      "   midi.NoteOnEvent(tick=31, channel=11, data=[76, 71]),\n",
      "   midi.NoteOnEvent(tick=29, channel=11, data=[76, 0]),\n",
      "   midi.NoteOnEvent(tick=31, channel=11, data=[76, 61]),\n",
      "   midi.NoteOnEvent(tick=29, channel=11, data=[76, 0]),\n",
      "   midi.NoteOnEvent(tick=31, channel=11, data=[74, 65]),\n",
      "   midi.NoteOnEvent(tick=29, channel=11, data=[74, 0]),\n",
      "   midi.NoteOnEvent(tick=31, channel=11, data=[74, 61]),\n",
      "   midi.NoteOnEvent(tick=29, channel=11, data=[74, 0]),\n",
      "   midi.NoteOnEvent(tick=31, channel=11, data=[76, 67]),\n",
      "   midi.NoteOnEvent(tick=29, channel=11, data=[76, 0]),\n",
      "   midi.NoteOnEvent(tick=31, channel=11, data=[76, 58]),\n",
      "   midi.NoteOnEvent(tick=29, channel=11, data=[76, 0]),\n",
      "   midi.NoteOnEvent(tick=31, channel=11, data=[77, 77]),\n",
      "   midi.NoteOnEvent(tick=29, channel=11, data=[77, 0]),\n",
      "   midi.NoteOnEvent(tick=31, channel=11, data=[77, 64]),\n",
      "   midi.NoteOnEvent(tick=29, channel=11, data=[77, 0]),\n",
      "   midi.NoteOnEvent(tick=31, channel=11, data=[76, 71]),\n",
      "   midi.NoteOnEvent(tick=29, channel=11, data=[76, 0]),\n",
      "   midi.NoteOnEvent(tick=31, channel=11, data=[76, 61]),\n",
      "   midi.NoteOnEvent(tick=29, channel=11, data=[76, 0]),\n",
      "   midi.NoteOnEvent(tick=31, channel=11, data=[74, 69]),\n",
      "   midi.NoteOnEvent(tick=29, channel=11, data=[74, 0]),\n",
      "   midi.NoteOnEvent(tick=31, channel=11, data=[74, 59]),\n",
      "   midi.NoteOnEvent(tick=29, channel=11, data=[74, 0]),\n",
      "   midi.NoteOnEvent(tick=31, channel=11, data=[74, 62]),\n",
      "   midi.NoteOnEvent(tick=29, channel=11, data=[74, 0]),\n",
      "   midi.NoteOnEvent(tick=31, channel=11, data=[72, 64]),\n",
      "   midi.NoteOnEvent(tick=29, channel=11, data=[72, 0]),\n",
      "   midi.NoteOnEvent(tick=31, channel=11, data=[74, 80]),\n",
      "   midi.NoteOnEvent(tick=120, channel=11, data=[74, 0]),\n",
      "   midi.NoteOnEvent(tick=0, channel=11, data=[72, 73]),\n",
      "   midi.NoteOnEvent(tick=60, channel=11, data=[74, 89]),\n",
      "   midi.NoteOnEvent(tick=30, channel=11, data=[72, 0]),\n",
      "   midi.NoteOnEvent(tick=90, channel=11, data=[74, 0]),\n",
      "   midi.NoteOnEvent(tick=0, channel=11, data=[72, 63]),\n",
      "   midi.NoteOnEvent(tick=60, channel=11, data=[74, 86]),\n",
      "   midi.NoteOnEvent(tick=30, channel=11, data=[72, 0]),\n",
      "   midi.NoteOnEvent(tick=90, channel=11, data=[74, 0]),\n",
      "   midi.NoteOnEvent(tick=0, channel=11, data=[72, 62]),\n",
      "   midi.NoteOnEvent(tick=60, channel=11, data=[74, 86]),\n",
      "   midi.NoteOnEvent(tick=30, channel=11, data=[72, 0]),\n",
      "   midi.NoteOnEvent(tick=90, channel=11, data=[74, 0]),\n",
      "   midi.NoteOnEvent(tick=0, channel=11, data=[72, 64]),\n",
      "   midi.NoteOnEvent(tick=60, channel=11, data=[72, 0]),\n",
      "   midi.NoteOnEvent(tick=0, channel=11, data=[74, 80]),\n",
      "   midi.NoteOnEvent(tick=120, channel=11, data=[74, 0]),\n",
      "   midi.NoteOnEvent(tick=0, channel=11, data=[72, 89]),\n",
      "   midi.PitchWheelEvent(tick=100, channel=11, data=[104, 62]),\n",
      "   midi.PitchWheelEvent(tick=8, channel=11, data=[56, 60]),\n",
      "   midi.PitchWheelEvent(tick=10, channel=11, data=[9, 58]),\n",
      "   midi.PitchWheelEvent(tick=12, channel=11, data=[90, 55]),\n",
      "   midi.PitchWheelEvent(tick=11, channel=11, data=[42, 53]),\n",
      "   midi.PitchWheelEvent(tick=9, channel=11, data=[123, 50]),\n",
      "   midi.PitchWheelEvent(tick=10, channel=11, data=[75, 48]),\n",
      "   midi.PitchWheelEvent(tick=15, channel=11, data=[28, 46]),\n",
      "   midi.PitchWheelEvent(tick=8, channel=11, data=[109, 43]),\n",
      "   midi.PitchWheelEvent(tick=8, channel=11, data=[61, 41]),\n",
      "   midi.PitchWheelEvent(tick=11, channel=11, data=[14, 39]),\n",
      "   midi.PitchWheelEvent(tick=9, channel=11, data=[94, 36]),\n",
      "   midi.PitchWheelEvent(tick=9, channel=11, data=[47, 34]),\n",
      "   midi.PitchWheelEvent(tick=8, channel=11, data=[0, 32]),\n",
      "   midi.PitchWheelEvent(tick=8, channel=11, data=[80, 29]),\n",
      "   midi.PitchWheelEvent(tick=11, channel=11, data=[33, 27]),\n",
      "   midi.PitchWheelEvent(tick=6, channel=11, data=[113, 24]),\n",
      "   midi.PitchWheelEvent(tick=9, channel=11, data=[66, 22]),\n",
      "   midi.PitchWheelEvent(tick=7, channel=11, data=[18, 20]),\n",
      "   midi.PitchWheelEvent(tick=10, channel=11, data=[99, 17]),\n",
      "   midi.PitchWheelEvent(tick=7, channel=11, data=[52, 15]),\n",
      "   midi.PitchWheelEvent(tick=5, channel=11, data=[4, 13]),\n",
      "   midi.PitchWheelEvent(tick=8, channel=11, data=[85, 10]),\n",
      "   midi.PitchWheelEvent(tick=10, channel=11, data=[14, 7]),\n",
      "   midi.PitchWheelEvent(tick=8, channel=11, data=[94, 4]),\n",
      "   midi.PitchWheelEvent(tick=6, channel=11, data=[47, 2]),\n",
      "   midi.PitchWheelEvent(tick=4, channel=11, data=[0, 0]),\n",
      "   midi.NoteOnEvent(tick=6, channel=11, data=[72, 0]),\n",
      "   midi.EndOfTrackEvent(tick=0, data=[])]),\n",
      " midi.Track(\\\n",
      "  [midi.PortEvent(tick=0, data=[0]),\n",
      "   midi.TrackNameEvent(tick=0, text='\"I Ran\" by A Flock of Seagulls', data=[34, 73, 32, 82, 97, 110, 34, 32, 98, 121, 32, 65, 32, 70, 108, 111, 99, 107, 32, 111, 102, 32, 83, 101, 97, 103, 117, 108, 108, 115]),\n",
      "   midi.EndOfTrackEvent(tick=0, data=[])]),\n",
      " midi.Track(\\\n",
      "  [midi.PortEvent(tick=0, data=[0]),\n",
      "   midi.TrackNameEvent(tick=0, text='Sequenced by Rick Davis 4/97', data=[83, 101, 113, 117, 101, 110, 99, 101, 100, 32, 98, 121, 32, 82, 105, 99, 107, 32, 68, 97, 118, 105, 115, 32, 52, 47, 57, 55]),\n",
      "   midi.EndOfTrackEvent(tick=0, data=[])]),\n",
      " midi.Track(\\\n",
      "  [midi.PortEvent(tick=0, data=[0]),\n",
      "   midi.TrackNameEvent(tick=0, text='      RickEtc@AOL.COM', data=[32, 32, 32, 32, 32, 32, 82, 105, 99, 107, 69, 116, 99, 64, 65, 79, 76, 46, 67, 79, 77]),\n",
      "   midi.EndOfTrackEvent(tick=0, data=[])])])\n"
     ]
    }
   ],
   "source": [
    "import midi\n",
    "pattern = midi.read_midifile(\"/Users/nikhilkotecha/Desktop/Music/i_ran_so_far_away-flock_of_seagulls.mid\")\n",
    "print (pattern)"
   ]
  },
  {
   "cell_type": "code",
   "execution_count": null,
   "metadata": {
    "collapsed": true
   },
   "outputs": [],
   "source": []
  }
 ],
 "metadata": {
  "kernelspec": {
   "display_name": "Python 3",
   "language": "python",
   "name": "python3"
  },
  "language_info": {
   "codemirror_mode": {
    "name": "ipython",
    "version": 3
   },
   "file_extension": ".py",
   "mimetype": "text/x-python",
   "name": "python",
   "nbconvert_exporter": "python",
   "pygments_lexer": "ipython3",
   "version": "3.6.1"
  }
 },
 "nbformat": 4,
 "nbformat_minor": 2
}
